<?xml version="1.0" standalone="no"?>
 <!DOCTYPE svg PUBLIC "-//W3C//DTD SVG 1.1//EN" 
 "http://www.w3.org/Graphics/SVG/1.1/DTD/svg11.dtd"> 
<svg
  xmlns:svg="http://www.w3.org/2000/svg"
  xmlns="http://www.w3.org/2000/svg"
  xmlns:xlink="http://www.w3.org/1999/xlink"
  version="1.1"
  width="297.0022mm" height="210.0072mm" viewBox="0.0000 0.0000 297.0022 210.0072">
<title>SVG Image created as wingbeat_detector-B_Silkscreen.svg date 2023/03/27 10:06:52 </title>
  <desc>Image generated by PCBNEW </desc>
<g style="fill:#000000; fill-opacity:1.0000;stroke:#000000; stroke-opacity:1.0000;
stroke-linecap:round; stroke-linejoin:round;"
 transform="translate(0 0) scale(1 1)">
</g>
<g style="fill:#000000; fill-opacity:0.0; 
stroke:#000000; stroke-width:0.0000; stroke-opacity:1; 
stroke-linecap:round; stroke-linejoin:round;">
</g>
<g style="fill:#000000; fill-opacity:0.0; 
stroke:#000000; stroke-width:0.1000; stroke-opacity:1; 
stroke-linecap:round; stroke-linejoin:round;">
<g transform="rotate(-90.000000 149.2780 107.5000)">
<text x="149.2780" y="107.7000"
transform="scale(-1 1) translate(-298.556000 0)"
textLength="1.7510" font-size="0.5333" lengthAdjust="spacingAndGlyphs"
text-anchor="middle" opacity="0">JUMP</text>
</g>
<g class="stroked-text"><desc>JUMP</desc>
<path d="M149.0630 106.9190
L149.3488 106.9190
" />
<path d="M149.3488 106.9190
L149.4059 106.9000
" />
<path d="M149.4059 106.9000
L149.4440 106.8619
" />
<path d="M149.4440 106.8619
L149.4630 106.8048
" />
<path d="M149.4630 106.8048
L149.4630 106.7667
" />
<path d="M149.0630 107.1095
L149.3869 107.1095
" />
<path d="M149.3869 107.1095
L149.4250 107.1286
" />
<path d="M149.4250 107.1286
L149.4440 107.1476
" />
<path d="M149.4440 107.1476
L149.4630 107.1857
" />
<path d="M149.4630 107.1857
L149.4630 107.2619
" />
<path d="M149.4630 107.2619
L149.4440 107.3000
" />
<path d="M149.4440 107.3000
L149.4250 107.3190
" />
<path d="M149.4250 107.3190
L149.3869 107.3381
" />
<path d="M149.3869 107.3381
L149.0630 107.3381
" />
<path d="M149.4630 107.5286
L149.0630 107.5286
" />
<path d="M149.0630 107.5286
L149.3488 107.6619
" />
<path d="M149.3488 107.6619
L149.0630 107.7952
" />
<path d="M149.0630 107.7952
L149.4630 107.7952
" />
<path d="M149.4630 107.9857
L149.0630 107.9857
" />
<path d="M149.0630 107.9857
L149.0630 108.1381
" />
<path d="M149.0630 108.1381
L149.0821 108.1762
" />
<path d="M149.0821 108.1762
L149.1011 108.1952
" />
<path d="M149.1011 108.1952
L149.1392 108.2143
" />
<path d="M149.1392 108.2143
L149.1964 108.2143
" />
<path d="M149.1964 108.2143
L149.2345 108.1952
" />
<path d="M149.2345 108.1952
L149.2535 108.1762
" />
<path d="M149.2535 108.1762
L149.2726 108.1381
" />
<path d="M149.2726 108.1381
L149.2726 107.9857
" />
</g><g transform="rotate(-90.000000 149.9260 107.5000)">
<text x="149.9260" y="107.7000"
transform="scale(-1 1) translate(-299.852000 0)"
textLength="1.2557" font-size="0.5333" lengthAdjust="spacingAndGlyphs"
text-anchor="middle" opacity="0">LED</text>
</g>
<g class="stroked-text"><desc>LED</desc>
<path d="M150.1110 107.2429
L150.1110 107.0524
" />
<path d="M150.1110 107.0524
L149.7110 107.0524
" />
<path d="M149.9015 107.3762
L149.9015 107.5095
" />
<path d="M150.1110 107.5667
L150.1110 107.3762
" />
<path d="M150.1110 107.3762
L149.7110 107.3762
" />
<path d="M149.7110 107.3762
L149.7110 107.5667
" />
<path d="M150.1110 107.7381
L149.7110 107.7381
" />
<path d="M149.7110 107.7381
L149.7110 107.8333
" />
<path d="M149.7110 107.8333
L149.7301 107.8905
" />
<path d="M149.7301 107.8905
L149.7682 107.9286
" />
<path d="M149.7682 107.9286
L149.8063 107.9476
" />
<path d="M149.8063 107.9476
L149.8825 107.9667
" />
<path d="M149.8825 107.9667
L149.9396 107.9667
" />
<path d="M149.9396 107.9667
L150.0158 107.9476
" />
<path d="M150.0158 107.9476
L150.0539 107.9286
" />
<path d="M150.0539 107.9286
L150.0920 107.8905
" />
<path d="M150.0920 107.8905
L150.1110 107.8333
" />
<path d="M150.1110 107.8333
L150.1110 107.7381
" />
</g><g transform="rotate(-90.000000 150.5740 107.5000)">
<text x="150.5740" y="107.7000"
transform="scale(-1 1) translate(-301.148000 0)"
textLength="2.6652" font-size="0.5333" lengthAdjust="spacingAndGlyphs"
text-anchor="middle" opacity="0">DEFAULT</text>
</g>
<g class="stroked-text"><desc>DEFAULT</desc>
<path d="M150.7590 106.3476
L150.3590 106.3476
" />
<path d="M150.3590 106.3476
L150.3590 106.4429
" />
<path d="M150.3590 106.4429
L150.3781 106.5000
" />
<path d="M150.3781 106.5000
L150.4162 106.5381
" />
<path d="M150.4162 106.5381
L150.4543 106.5571
" />
<path d="M150.4543 106.5571
L150.5305 106.5762
" />
<path d="M150.5305 106.5762
L150.5876 106.5762
" />
<path d="M150.5876 106.5762
L150.6638 106.5571
" />
<path d="M150.6638 106.5571
L150.7019 106.5381
" />
<path d="M150.7019 106.5381
L150.7400 106.5000
" />
<path d="M150.7400 106.5000
L150.7590 106.4429
" />
<path d="M150.7590 106.4429
L150.7590 106.3476
" />
<path d="M150.5495 106.7476
L150.5495 106.8810
" />
<path d="M150.7590 106.9381
L150.7590 106.7476
" />
<path d="M150.7590 106.7476
L150.3590 106.7476
" />
<path d="M150.3590 106.7476
L150.3590 106.9381
" />
<path d="M150.5495 107.2429
L150.5495 107.1095
" />
<path d="M150.7590 107.1095
L150.3590 107.1095
" />
<path d="M150.3590 107.1095
L150.3590 107.3000
" />
<path d="M150.6448 107.4333
L150.6448 107.6238
" />
<path d="M150.7590 107.3952
L150.3590 107.5286
" />
<path d="M150.3590 107.5286
L150.7590 107.6619
" />
<path d="M150.3590 107.7952
L150.6829 107.7952
" />
<path d="M150.6829 107.7952
L150.7210 107.8143
" />
<path d="M150.7210 107.8143
L150.7400 107.8333
" />
<path d="M150.7400 107.8333
L150.7590 107.8714
" />
<path d="M150.7590 107.8714
L150.7590 107.9476
" />
<path d="M150.7590 107.9476
L150.7400 107.9857
" />
<path d="M150.7400 107.9857
L150.7210 108.0048
" />
<path d="M150.7210 108.0048
L150.6829 108.0238
" />
<path d="M150.6829 108.0238
L150.3590 108.0238
" />
<path d="M150.7590 108.4048
L150.7590 108.2143
" />
<path d="M150.7590 108.2143
L150.3590 108.2143
" />
<path d="M150.3590 108.4810
L150.3590 108.7095
" />
<path d="M150.7590 108.5952
L150.3590 108.5952
" />
</g><g transform="rotate(-90.000000 151.2220 107.5000)">
<text x="151.2220" y="107.7000"
transform="scale(-1 1) translate(-302.444000 0)"
textLength="2.9700" font-size="0.5333" lengthAdjust="spacingAndGlyphs"
text-anchor="middle" opacity="0">DISABLED</text>
</g>
<g class="stroked-text"><desc>DISABLED</desc>
<path d="M151.4070 106.1952
L151.0070 106.1952
" />
<path d="M151.0070 106.1952
L151.0070 106.2905
" />
<path d="M151.0070 106.2905
L151.0261 106.3476
" />
<path d="M151.0261 106.3476
L151.0642 106.3857
" />
<path d="M151.0642 106.3857
L151.1023 106.4048
" />
<path d="M151.1023 106.4048
L151.1785 106.4238
" />
<path d="M151.1785 106.4238
L151.2356 106.4238
" />
<path d="M151.2356 106.4238
L151.3118 106.4048
" />
<path d="M151.3118 106.4048
L151.3499 106.3857
" />
<path d="M151.3499 106.3857
L151.3880 106.3476
" />
<path d="M151.3880 106.3476
L151.4070 106.2905
" />
<path d="M151.4070 106.2905
L151.4070 106.1952
" />
<path d="M151.4070 106.5952
L151.0070 106.5952
" />
<path d="M151.3880 106.7667
L151.4070 106.8238
" />
<path d="M151.4070 106.8238
L151.4070 106.9190
" />
<path d="M151.4070 106.9190
L151.3880 106.9571
" />
<path d="M151.3880 106.9571
L151.3690 106.9762
" />
<path d="M151.3690 106.9762
L151.3309 106.9952
" />
<path d="M151.3309 106.9952
L151.2928 106.9952
" />
<path d="M151.2928 106.9952
L151.2547 106.9762
" />
<path d="M151.2547 106.9762
L151.2356 106.9571
" />
<path d="M151.2356 106.9571
L151.2166 106.9190
" />
<path d="M151.2166 106.9190
L151.1975 106.8429
" />
<path d="M151.1975 106.8429
L151.1785 106.8048
" />
<path d="M151.1785 106.8048
L151.1594 106.7857
" />
<path d="M151.1594 106.7857
L151.1213 106.7667
" />
<path d="M151.1213 106.7667
L151.0832 106.7667
" />
<path d="M151.0832 106.7667
L151.0451 106.7857
" />
<path d="M151.0451 106.7857
L151.0261 106.8048
" />
<path d="M151.0261 106.8048
L151.0070 106.8429
" />
<path d="M151.0070 106.8429
L151.0070 106.9381
" />
<path d="M151.0070 106.9381
L151.0261 106.9952
" />
<path d="M151.2928 107.1476
L151.2928 107.3381
" />
<path d="M151.4070 107.1095
L151.0070 107.2429
" />
<path d="M151.0070 107.2429
L151.4070 107.3762
" />
<path d="M151.1975 107.6429
L151.2166 107.7000
" />
<path d="M151.2166 107.7000
L151.2356 107.7190
" />
<path d="M151.2356 107.7190
L151.2737 107.7381
" />
<path d="M151.2737 107.7381
L151.3309 107.7381
" />
<path d="M151.3309 107.7381
L151.3690 107.7190
" />
<path d="M151.3690 107.7190
L151.3880 107.7000
" />
<path d="M151.3880 107.7000
L151.4070 107.6619
" />
<path d="M151.4070 107.6619
L151.4070 107.5095
" />
<path d="M151.4070 107.5095
L151.0070 107.5095
" />
<path d="M151.0070 107.5095
L151.0070 107.6429
" />
<path d="M151.0070 107.6429
L151.0261 107.6810
" />
<path d="M151.0261 107.6810
L151.0451 107.7000
" />
<path d="M151.0451 107.7000
L151.0832 107.7190
" />
<path d="M151.0832 107.7190
L151.1213 107.7190
" />
<path d="M151.1213 107.7190
L151.1594 107.7000
" />
<path d="M151.1594 107.7000
L151.1785 107.6810
" />
<path d="M151.1785 107.6810
L151.1975 107.6429
" />
<path d="M151.1975 107.6429
L151.1975 107.5095
" />
<path d="M151.4070 108.1000
L151.4070 107.9095
" />
<path d="M151.4070 107.9095
L151.0070 107.9095
" />
<path d="M151.1975 108.2333
L151.1975 108.3667
" />
<path d="M151.4070 108.4238
L151.4070 108.2333
" />
<path d="M151.4070 108.2333
L151.0070 108.2333
" />
<path d="M151.0070 108.2333
L151.0070 108.4238
" />
<path d="M151.4070 108.5952
L151.0070 108.5952
" />
<path d="M151.0070 108.5952
L151.0070 108.6905
" />
<path d="M151.0070 108.6905
L151.0261 108.7476
" />
<path d="M151.0261 108.7476
L151.0642 108.7857
" />
<path d="M151.0642 108.7857
L151.1023 108.8048
" />
<path d="M151.1023 108.8048
L151.1785 108.8238
" />
<path d="M151.1785 108.8238
L151.2356 108.8238
" />
<path d="M151.2356 108.8238
L151.3118 108.8048
" />
<path d="M151.3118 108.8048
L151.3499 108.7857
" />
<path d="M151.3499 108.7857
L151.3880 108.7476
" />
<path d="M151.3880 108.7476
L151.4070 108.6905
" />
<path d="M151.4070 108.6905
L151.4070 108.5952
" />
</g></g>
<g style="fill:#000000; fill-opacity:0.0; 
stroke:#000000; stroke-width:0.1250; stroke-opacity:1; 
stroke-linecap:round; stroke-linejoin:round;">
<g transform="rotate(-90.000000 140.5000 106.5000)">
<text x="140.5000" y="106.7500"
transform="scale(-1 1) translate(-281.000000 0)"
textLength="4.7125" font-size="0.6667" lengthAdjust="spacingAndGlyphs"
text-anchor="middle" opacity="0">LED ENABLE</text>
</g>
<g class="stroked-text"><desc>LED ENABLE</desc>
<path d="M140.7313 104.6071
L140.7313 104.3690
" />
<path d="M140.7313 104.3690
L140.2313 104.3690
" />
<path d="M140.4694 104.7738
L140.4694 104.9405
" />
<path d="M140.7313 105.0119
L140.7313 104.7738
" />
<path d="M140.7313 104.7738
L140.2313 104.7738
" />
<path d="M140.2313 104.7738
L140.2313 105.0119
" />
<path d="M140.7313 105.2262
L140.2313 105.2262
" />
<path d="M140.2313 105.2262
L140.2313 105.3452
" />
<path d="M140.2313 105.3452
L140.2551 105.4167
" />
<path d="M140.2551 105.4167
L140.3027 105.4643
" />
<path d="M140.3027 105.4643
L140.3504 105.4881
" />
<path d="M140.3504 105.4881
L140.4456 105.5119
" />
<path d="M140.4456 105.5119
L140.5170 105.5119
" />
<path d="M140.5170 105.5119
L140.6123 105.4881
" />
<path d="M140.6123 105.4881
L140.6599 105.4643
" />
<path d="M140.6599 105.4643
L140.7075 105.4167
" />
<path d="M140.7075 105.4167
L140.7313 105.3452
" />
<path d="M140.7313 105.3452
L140.7313 105.2262
" />
<path d="M140.4694 106.1071
L140.4694 106.2738
" />
<path d="M140.7313 106.3452
L140.7313 106.1071
" />
<path d="M140.7313 106.1071
L140.2313 106.1071
" />
<path d="M140.2313 106.1071
L140.2313 106.3452
" />
<path d="M140.7313 106.5595
L140.2313 106.5595
" />
<path d="M140.2313 106.5595
L140.7313 106.8452
" />
<path d="M140.7313 106.8452
L140.2313 106.8452
" />
<path d="M140.5885 107.0595
L140.5885 107.2976
" />
<path d="M140.7313 107.0119
L140.2313 107.1786
" />
<path d="M140.2313 107.1786
L140.7313 107.3452
" />
<path d="M140.4694 107.6786
L140.4932 107.7500
" />
<path d="M140.4932 107.7500
L140.5170 107.7738
" />
<path d="M140.5170 107.7738
L140.5646 107.7976
" />
<path d="M140.5646 107.7976
L140.6361 107.7976
" />
<path d="M140.6361 107.7976
L140.6837 107.7738
" />
<path d="M140.6837 107.7738
L140.7075 107.7500
" />
<path d="M140.7075 107.7500
L140.7313 107.7024
" />
<path d="M140.7313 107.7024
L140.7313 107.5119
" />
<path d="M140.7313 107.5119
L140.2313 107.5119
" />
<path d="M140.2313 107.5119
L140.2313 107.6786
" />
<path d="M140.2313 107.6786
L140.2551 107.7262
" />
<path d="M140.2551 107.7262
L140.2789 107.7500
" />
<path d="M140.2789 107.7500
L140.3265 107.7738
" />
<path d="M140.3265 107.7738
L140.3742 107.7738
" />
<path d="M140.3742 107.7738
L140.4218 107.7500
" />
<path d="M140.4218 107.7500
L140.4456 107.7262
" />
<path d="M140.4456 107.7262
L140.4694 107.6786
" />
<path d="M140.4694 107.6786
L140.4694 107.5119
" />
<path d="M140.7313 108.2500
L140.7313 108.0119
" />
<path d="M140.7313 108.0119
L140.2313 108.0119
" />
<path d="M140.4694 108.4167
L140.4694 108.5833
" />
<path d="M140.7313 108.6548
L140.7313 108.4167
" />
<path d="M140.7313 108.4167
L140.2313 108.4167
" />
<path d="M140.2313 108.4167
L140.2313 108.6548
" />
</g><text x="165.5000" y="102.8450"
transform="scale(-1 1) translate(-331.000000 0)"
textLength="2.6173" font-size="0.6667" lengthAdjust="spacingAndGlyphs"
text-anchor="middle" opacity="0">FILTER</text>
<g class="stroked-text"><desc>FILTER</desc>
<path d="M166.4167 102.5644
L166.5833 102.5644
" />
<path d="M166.5833 102.8263
L166.5833 102.3263
" />
<path d="M166.5833 102.3263
L166.3452 102.3263
" />
<path d="M166.1548 102.8263
L166.1548 102.3263
" />
<path d="M165.6786 102.8263
L165.9167 102.8263
" />
<path d="M165.9167 102.8263
L165.9167 102.3263
" />
<path d="M165.5833 102.3263
L165.2976 102.3263
" />
<path d="M165.4405 102.8263
L165.4405 102.3263
" />
<path d="M165.1310 102.5644
L164.9643 102.5644
" />
<path d="M164.8929 102.8263
L165.1310 102.8263
" />
<path d="M165.1310 102.8263
L165.1310 102.3263
" />
<path d="M165.1310 102.3263
L164.8929 102.3263
" />
<path d="M164.3929 102.8263
L164.5595 102.5882
" />
<path d="M164.6786 102.8263
L164.6786 102.3263
" />
<path d="M164.6786 102.3263
L164.4881 102.3263
" />
<path d="M164.4881 102.3263
L164.4405 102.3501
" />
<path d="M164.4405 102.3501
L164.4167 102.3739
" />
<path d="M164.4167 102.3739
L164.3929 102.4215
" />
<path d="M164.3929 102.4215
L164.3929 102.4930
" />
<path d="M164.3929 102.4930
L164.4167 102.5406
" />
<path d="M164.4167 102.5406
L164.4405 102.5644
" />
<path d="M164.4405 102.5644
L164.4881 102.5882
" />
<path d="M164.4881 102.5882
L164.6786 102.5882
" />
</g><text x="165.5000" y="103.6550"
transform="scale(-1 1) translate(-331.000000 0)"
textLength="3.0458" font-size="0.6667" lengthAdjust="spacingAndGlyphs"
text-anchor="middle" opacity="0">OUTPUT</text>
<g class="stroked-text"><desc>OUTPUT</desc>
<path d="M166.7024 103.1363
L166.6071 103.1363
" />
<path d="M166.6071 103.1363
L166.5595 103.1601
" />
<path d="M166.5595 103.1601
L166.5119 103.2077
" />
<path d="M166.5119 103.2077
L166.4881 103.3030
" />
<path d="M166.4881 103.3030
L166.4881 103.4696
" />
<path d="M166.4881 103.4696
L166.5119 103.5649
" />
<path d="M166.5119 103.5649
L166.5595 103.6125
" />
<path d="M166.5595 103.6125
L166.6071 103.6363
" />
<path d="M166.6071 103.6363
L166.7024 103.6363
" />
<path d="M166.7024 103.6363
L166.7500 103.6125
" />
<path d="M166.7500 103.6125
L166.7976 103.5649
" />
<path d="M166.7976 103.5649
L166.8214 103.4696
" />
<path d="M166.8214 103.4696
L166.8214 103.3030
" />
<path d="M166.8214 103.3030
L166.7976 103.2077
" />
<path d="M166.7976 103.2077
L166.7500 103.1601
" />
<path d="M166.7500 103.1601
L166.7024 103.1363
" />
<path d="M166.2738 103.1363
L166.2738 103.5411
" />
<path d="M166.2738 103.5411
L166.2500 103.5887
" />
<path d="M166.2500 103.5887
L166.2262 103.6125
" />
<path d="M166.2262 103.6125
L166.1786 103.6363
" />
<path d="M166.1786 103.6363
L166.0833 103.6363
" />
<path d="M166.0833 103.6363
L166.0357 103.6125
" />
<path d="M166.0357 103.6125
L166.0119 103.5887
" />
<path d="M166.0119 103.5887
L165.9881 103.5411
" />
<path d="M165.9881 103.5411
L165.9881 103.1363
" />
<path d="M165.8214 103.1363
L165.5357 103.1363
" />
<path d="M165.6786 103.6363
L165.6786 103.1363
" />
<path d="M165.3690 103.6363
L165.3690 103.1363
" />
<path d="M165.3690 103.1363
L165.1786 103.1363
" />
<path d="M165.1786 103.1363
L165.1310 103.1601
" />
<path d="M165.1310 103.1601
L165.1071 103.1839
" />
<path d="M165.1071 103.1839
L165.0833 103.2315
" />
<path d="M165.0833 103.2315
L165.0833 103.3030
" />
<path d="M165.0833 103.3030
L165.1071 103.3506
" />
<path d="M165.1071 103.3506
L165.1310 103.3744
" />
<path d="M165.1310 103.3744
L165.1786 103.3982
" />
<path d="M165.1786 103.3982
L165.3690 103.3982
" />
<path d="M164.8690 103.1363
L164.8690 103.5411
" />
<path d="M164.8690 103.5411
L164.8452 103.5887
" />
<path d="M164.8452 103.5887
L164.8214 103.6125
" />
<path d="M164.8214 103.6125
L164.7738 103.6363
" />
<path d="M164.7738 103.6363
L164.6786 103.6363
" />
<path d="M164.6786 103.6363
L164.6310 103.6125
" />
<path d="M164.6310 103.6125
L164.6071 103.5887
" />
<path d="M164.6071 103.5887
L164.5833 103.5411
" />
<path d="M164.5833 103.5411
L164.5833 103.1363
" />
<path d="M164.4167 103.1363
L164.1310 103.1363
" />
<path d="M164.2738 103.6363
L164.2738 103.1363
" />
</g><g transform="rotate(-90.000000 138.3450 93.5000)">
<text x="138.3450" y="93.7500"
transform="scale(-1 1) translate(-276.690000 0)"
textLength="1.7125" font-size="0.6667" lengthAdjust="spacingAndGlyphs"
text-anchor="middle" opacity="0">RAW</text>
</g>
<g class="stroked-text"><desc>RAW</desc>
<path d="M138.5763 93.1548
L138.3382 92.9881
" />
<path d="M138.5763 92.8690
L138.0763 92.8690
" />
<path d="M138.0763 92.8690
L138.0763 93.0595
" />
<path d="M138.0763 93.0595
L138.1001 93.1071
" />
<path d="M138.1001 93.1071
L138.1239 93.1310
" />
<path d="M138.1239 93.1310
L138.1715 93.1548
" />
<path d="M138.1715 93.1548
L138.2430 93.1548
" />
<path d="M138.2430 93.1548
L138.2906 93.1310
" />
<path d="M138.2906 93.1310
L138.3144 93.1071
" />
<path d="M138.3144 93.1071
L138.3382 93.0595
" />
<path d="M138.3382 93.0595
L138.3382 92.8690
" />
<path d="M138.4335 93.3452
L138.4335 93.5833
" />
<path d="M138.5763 93.2976
L138.0763 93.4643
" />
<path d="M138.0763 93.4643
L138.5763 93.6310
" />
<path d="M138.0763 93.7500
L138.5763 93.8690
" />
<path d="M138.5763 93.8690
L138.2192 93.9643
" />
<path d="M138.2192 93.9643
L138.5763 94.0595
" />
<path d="M138.5763 94.0595
L138.0763 94.1786
" />
</g><g transform="rotate(-90.000000 139.1550 93.5000)">
<text x="139.1550" y="93.7500"
transform="scale(-1 1) translate(-278.310000 0)"
textLength="3.0458" font-size="0.6667" lengthAdjust="spacingAndGlyphs"
text-anchor="middle" opacity="0">OUTPUT</text>
</g>
<g class="stroked-text"><desc>OUTPUT</desc>
<path d="M138.8863 92.2976
L138.8863 92.3929
" />
<path d="M138.8863 92.3929
L138.9101 92.4405
" />
<path d="M138.9101 92.4405
L138.9577 92.4881
" />
<path d="M138.9577 92.4881
L139.0530 92.5119
" />
<path d="M139.0530 92.5119
L139.2196 92.5119
" />
<path d="M139.2196 92.5119
L139.3149 92.4881
" />
<path d="M139.3149 92.4881
L139.3625 92.4405
" />
<path d="M139.3625 92.4405
L139.3863 92.3929
" />
<path d="M139.3863 92.3929
L139.3863 92.2976
" />
<path d="M139.3863 92.2976
L139.3625 92.2500
" />
<path d="M139.3625 92.2500
L139.3149 92.2024
" />
<path d="M139.3149 92.2024
L139.2196 92.1786
" />
<path d="M139.2196 92.1786
L139.0530 92.1786
" />
<path d="M139.0530 92.1786
L138.9577 92.2024
" />
<path d="M138.9577 92.2024
L138.9101 92.2500
" />
<path d="M138.9101 92.2500
L138.8863 92.2976
" />
<path d="M138.8863 92.7262
L139.2911 92.7262
" />
<path d="M139.2911 92.7262
L139.3387 92.7500
" />
<path d="M139.3387 92.7500
L139.3625 92.7738
" />
<path d="M139.3625 92.7738
L139.3863 92.8214
" />
<path d="M139.3863 92.8214
L139.3863 92.9167
" />
<path d="M139.3863 92.9167
L139.3625 92.9643
" />
<path d="M139.3625 92.9643
L139.3387 92.9881
" />
<path d="M139.3387 92.9881
L139.2911 93.0119
" />
<path d="M139.2911 93.0119
L138.8863 93.0119
" />
<path d="M138.8863 93.1786
L138.8863 93.4643
" />
<path d="M139.3863 93.3214
L138.8863 93.3214
" />
<path d="M139.3863 93.6310
L138.8863 93.6310
" />
<path d="M138.8863 93.6310
L138.8863 93.8214
" />
<path d="M138.8863 93.8214
L138.9101 93.8690
" />
<path d="M138.9101 93.8690
L138.9339 93.8929
" />
<path d="M138.9339 93.8929
L138.9815 93.9167
" />
<path d="M138.9815 93.9167
L139.0530 93.9167
" />
<path d="M139.0530 93.9167
L139.1006 93.8929
" />
<path d="M139.1006 93.8929
L139.1244 93.8690
" />
<path d="M139.1244 93.8690
L139.1482 93.8214
" />
<path d="M139.1482 93.8214
L139.1482 93.6310
" />
<path d="M138.8863 94.1310
L139.2911 94.1310
" />
<path d="M139.2911 94.1310
L139.3387 94.1548
" />
<path d="M139.3387 94.1548
L139.3625 94.1786
" />
<path d="M139.3625 94.1786
L139.3863 94.2262
" />
<path d="M139.3863 94.2262
L139.3863 94.3214
" />
<path d="M139.3863 94.3214
L139.3625 94.3690
" />
<path d="M139.3625 94.3690
L139.3387 94.3929
" />
<path d="M139.3387 94.3929
L139.2911 94.4167
" />
<path d="M139.2911 94.4167
L138.8863 94.4167
" />
<path d="M138.8863 94.5833
L138.8863 94.8690
" />
<path d="M139.3863 94.7262
L138.8863 94.7262
" />
</g><text x="134.7500" y="96.3450"
transform="scale(-1 1) translate(-269.500000 0)"
textLength="1.5696" font-size="0.6667" lengthAdjust="spacingAndGlyphs"
text-anchor="middle" opacity="0">LED</text>
<g class="stroked-text"><desc>LED</desc>
<path d="M135.0714 96.3263
L135.3095 96.3263
" />
<path d="M135.3095 96.3263
L135.3095 95.8263
" />
<path d="M134.9048 96.0644
L134.7381 96.0644
" />
<path d="M134.6667 96.3263
L134.9048 96.3263
" />
<path d="M134.9048 96.3263
L134.9048 95.8263
" />
<path d="M134.9048 95.8263
L134.6667 95.8263
" />
<path d="M134.4524 96.3263
L134.4524 95.8263
" />
<path d="M134.4524 95.8263
L134.3333 95.8263
" />
<path d="M134.3333 95.8263
L134.2619 95.8501
" />
<path d="M134.2619 95.8501
L134.2143 95.8977
" />
<path d="M134.2143 95.8977
L134.1905 95.9454
" />
<path d="M134.1905 95.9454
L134.1667 96.0406
" />
<path d="M134.1667 96.0406
L134.1667 96.1120
" />
<path d="M134.1667 96.1120
L134.1905 96.2073
" />
<path d="M134.1905 96.2073
L134.2143 96.2549
" />
<path d="M134.2143 96.2549
L134.2619 96.3025
" />
<path d="M134.2619 96.3025
L134.3333 96.3263
" />
<path d="M134.3333 96.3263
L134.4524 96.3263
" />
</g><text x="134.7500" y="97.1550"
transform="scale(-1 1) translate(-269.500000 0)"
textLength="3.1411" font-size="0.6667" lengthAdjust="spacingAndGlyphs"
text-anchor="middle" opacity="0">940 nm</text>
<g class="stroked-text"><desc>940 nm</desc>
<path d="M136.0714 97.1363
L135.9762 97.1363
" />
<path d="M135.9762 97.1363
L135.9286 97.1125
" />
<path d="M135.9286 97.1125
L135.9048 97.0887
" />
<path d="M135.9048 97.0887
L135.8571 97.0173
" />
<path d="M135.8571 97.0173
L135.8333 96.9220
" />
<path d="M135.8333 96.9220
L135.8333 96.7315
" />
<path d="M135.8333 96.7315
L135.8571 96.6839
" />
<path d="M135.8571 96.6839
L135.8810 96.6601
" />
<path d="M135.8810 96.6601
L135.9286 96.6363
" />
<path d="M135.9286 96.6363
L136.0238 96.6363
" />
<path d="M136.0238 96.6363
L136.0714 96.6601
" />
<path d="M136.0714 96.6601
L136.0952 96.6839
" />
<path d="M136.0952 96.6839
L136.1190 96.7315
" />
<path d="M136.1190 96.7315
L136.1190 96.8506
" />
<path d="M136.1190 96.8506
L136.0952 96.8982
" />
<path d="M136.0952 96.8982
L136.0714 96.9220
" />
<path d="M136.0714 96.9220
L136.0238 96.9458
" />
<path d="M136.0238 96.9458
L135.9286 96.9458
" />
<path d="M135.9286 96.9458
L135.8810 96.9220
" />
<path d="M135.8810 96.9220
L135.8571 96.8982
" />
<path d="M135.8571 96.8982
L135.8333 96.8506
" />
<path d="M135.4048 96.8030
L135.4048 97.1363
" />
<path d="M135.5238 96.6125
L135.6429 96.9696
" />
<path d="M135.6429 96.9696
L135.3333 96.9696
" />
<path d="M135.0476 96.6363
L135.0000 96.6363
" />
<path d="M135.0000 96.6363
L134.9524 96.6601
" />
<path d="M134.9524 96.6601
L134.9286 96.6839
" />
<path d="M134.9286 96.6839
L134.9048 96.7315
" />
<path d="M134.9048 96.7315
L134.8810 96.8268
" />
<path d="M134.8810 96.8268
L134.8810 96.9458
" />
<path d="M134.8810 96.9458
L134.9048 97.0411
" />
<path d="M134.9048 97.0411
L134.9286 97.0887
" />
<path d="M134.9286 97.0887
L134.9524 97.1125
" />
<path d="M134.9524 97.1125
L135.0000 97.1363
" />
<path d="M135.0000 97.1363
L135.0476 97.1363
" />
<path d="M135.0476 97.1363
L135.0952 97.1125
" />
<path d="M135.0952 97.1125
L135.1190 97.0887
" />
<path d="M135.1190 97.0887
L135.1429 97.0411
" />
<path d="M135.1429 97.0411
L135.1667 96.9458
" />
<path d="M135.1667 96.9458
L135.1667 96.8268
" />
<path d="M135.1667 96.8268
L135.1429 96.7315
" />
<path d="M135.1429 96.7315
L135.1190 96.6839
" />
<path d="M135.1190 96.6839
L135.0952 96.6601
" />
<path d="M135.0952 96.6601
L135.0476 96.6363
" />
<path d="M134.2857 96.8030
L134.2857 97.1363
" />
<path d="M134.2857 96.8506
L134.2619 96.8268
" />
<path d="M134.2619 96.8268
L134.2143 96.8030
" />
<path d="M134.2143 96.8030
L134.1429 96.8030
" />
<path d="M134.1429 96.8030
L134.0952 96.8268
" />
<path d="M134.0952 96.8268
L134.0714 96.8744
" />
<path d="M134.0714 96.8744
L134.0714 97.1363
" />
<path d="M133.8333 97.1363
L133.8333 96.8030
" />
<path d="M133.8333 96.8506
L133.8095 96.8268
" />
<path d="M133.8095 96.8268
L133.7619 96.8030
" />
<path d="M133.7619 96.8030
L133.6905 96.8030
" />
<path d="M133.6905 96.8030
L133.6429 96.8268
" />
<path d="M133.6429 96.8268
L133.6190 96.8744
" />
<path d="M133.6190 96.8744
L133.6190 97.1363
" />
<path d="M133.6190 96.8744
L133.5952 96.8268
" />
<path d="M133.5952 96.8268
L133.5476 96.8030
" />
<path d="M133.5476 96.8030
L133.4762 96.8030
" />
<path d="M133.4762 96.8030
L133.4286 96.8268
" />
<path d="M133.4286 96.8268
L133.4048 96.8744
" />
<path d="M133.4048 96.8744
L133.4048 97.1363
" />
</g><g transform="rotate(-90.000000 149.2500 92.5000)">
<text x="149.2500" y="92.7500"
transform="scale(-1 1) translate(-298.500000 0)"
textLength="1.1887" font-size="0.6667" lengthAdjust="spacingAndGlyphs"
text-anchor="middle" opacity="0">C7</text>
</g>
<g class="stroked-text"><desc>C7</desc>
<path d="M149.4337 92.4167
L149.4575 92.3929
" />
<path d="M149.4575 92.3929
L149.4813 92.3214
" />
<path d="M149.4813 92.3214
L149.4813 92.2738
" />
<path d="M149.4813 92.2738
L149.4575 92.2024
" />
<path d="M149.4575 92.2024
L149.4099 92.1548
" />
<path d="M149.4099 92.1548
L149.3623 92.1310
" />
<path d="M149.3623 92.1310
L149.2670 92.1071
" />
<path d="M149.2670 92.1071
L149.1956 92.1071
" />
<path d="M149.1956 92.1071
L149.1004 92.1310
" />
<path d="M149.1004 92.1310
L149.0527 92.1548
" />
<path d="M149.0527 92.1548
L149.0051 92.2024
" />
<path d="M149.0051 92.2024
L148.9813 92.2738
" />
<path d="M148.9813 92.2738
L148.9813 92.3214
" />
<path d="M148.9813 92.3214
L149.0051 92.3929
" />
<path d="M149.0051 92.3929
L149.0289 92.4167
" />
<path d="M148.9813 92.5833
L148.9813 92.9167
" />
<path d="M148.9813 92.9167
L149.4813 92.7024
" />
</g><text x="138.0000" y="108.7500"
transform="scale(-1 1) translate(-276.000000 0)"
textLength="1.6649" font-size="0.6667" lengthAdjust="spacingAndGlyphs"
text-anchor="middle" opacity="0">C13</text>
<g class="stroked-text"><desc>C13</desc>
<path d="M138.3214 108.6837
L138.3452 108.7075
" />
<path d="M138.3452 108.7075
L138.4167 108.7313
" />
<path d="M138.4167 108.7313
L138.4643 108.7313
" />
<path d="M138.4643 108.7313
L138.5357 108.7075
" />
<path d="M138.5357 108.7075
L138.5833 108.6599
" />
<path d="M138.5833 108.6599
L138.6071 108.6123
" />
<path d="M138.6071 108.6123
L138.6310 108.5170
" />
<path d="M138.6310 108.5170
L138.6310 108.4456
" />
<path d="M138.6310 108.4456
L138.6071 108.3504
" />
<path d="M138.6071 108.3504
L138.5833 108.3027
" />
<path d="M138.5833 108.3027
L138.5357 108.2551
" />
<path d="M138.5357 108.2551
L138.4643 108.2313
" />
<path d="M138.4643 108.2313
L138.4167 108.2313
" />
<path d="M138.4167 108.2313
L138.3452 108.2551
" />
<path d="M138.3452 108.2551
L138.3214 108.2789
" />
<path d="M137.8452 108.7313
L138.1310 108.7313
" />
<path d="M137.9881 108.7313
L137.9881 108.2313
" />
<path d="M137.9881 108.2313
L138.0357 108.3027
" />
<path d="M138.0357 108.3027
L138.0833 108.3504
" />
<path d="M138.0833 108.3504
L138.1310 108.3742
" />
<path d="M137.6786 108.2313
L137.3690 108.2313
" />
<path d="M137.3690 108.2313
L137.5357 108.4218
" />
<path d="M137.5357 108.4218
L137.4643 108.4218
" />
<path d="M137.4643 108.4218
L137.4167 108.4456
" />
<path d="M137.4167 108.4456
L137.3929 108.4694
" />
<path d="M137.3929 108.4694
L137.3690 108.5170
" />
<path d="M137.3690 108.5170
L137.3690 108.6361
" />
<path d="M137.3690 108.6361
L137.3929 108.6837
" />
<path d="M137.3929 108.6837
L137.4167 108.7075
" />
<path d="M137.4167 108.7075
L137.4643 108.7313
" />
<path d="M137.4643 108.7313
L137.6071 108.7313
" />
<path d="M137.6071 108.7313
L137.6548 108.7075
" />
<path d="M137.6548 108.7075
L137.6786 108.6837
" />
</g><g transform="rotate(-90.000000 151.7500 92.5000)">
<text x="151.7500" y="92.7500"
transform="scale(-1 1) translate(-303.500000 0)"
textLength="1.1887" font-size="0.6667" lengthAdjust="spacingAndGlyphs"
text-anchor="middle" opacity="0">R3</text>
</g>
<g class="stroked-text"><desc>R3</desc>
<path d="M151.9813 92.4167
L151.7432 92.2500
" />
<path d="M151.9813 92.1310
L151.4813 92.1310
" />
<path d="M151.4813 92.1310
L151.4813 92.3214
" />
<path d="M151.4813 92.3214
L151.5051 92.3690
" />
<path d="M151.5051 92.3690
L151.5289 92.3929
" />
<path d="M151.5289 92.3929
L151.5765 92.4167
" />
<path d="M151.5765 92.4167
L151.6480 92.4167
" />
<path d="M151.6480 92.4167
L151.6956 92.3929
" />
<path d="M151.6956 92.3929
L151.7194 92.3690
" />
<path d="M151.7194 92.3690
L151.7432 92.3214
" />
<path d="M151.7432 92.3214
L151.7432 92.1310
" />
<path d="M151.4813 92.5833
L151.4813 92.8929
" />
<path d="M151.4813 92.8929
L151.6718 92.7262
" />
<path d="M151.6718 92.7262
L151.6718 92.7976
" />
<path d="M151.6718 92.7976
L151.6956 92.8452
" />
<path d="M151.6956 92.8452
L151.7194 92.8690
" />
<path d="M151.7194 92.8690
L151.7670 92.8929
" />
<path d="M151.7670 92.8929
L151.8861 92.8929
" />
<path d="M151.8861 92.8929
L151.9337 92.8690
" />
<path d="M151.9337 92.8690
L151.9575 92.8452
" />
<path d="M151.9575 92.8452
L151.9813 92.7976
" />
<path d="M151.9813 92.7976
L151.9813 92.6548
" />
<path d="M151.9813 92.6548
L151.9575 92.6071
" />
<path d="M151.9575 92.6071
L151.9337 92.5833
" />
</g><g transform="rotate(-90.000000 161.5000 93.5000)">
<text x="161.5000" y="93.7500"
transform="scale(-1 1) translate(-323.000000 0)"
textLength="1.1887" font-size="0.6667" lengthAdjust="spacingAndGlyphs"
text-anchor="middle" opacity="0">C4</text>
</g>
<g class="stroked-text"><desc>C4</desc>
<path d="M161.6837 93.4167
L161.7075 93.3929
" />
<path d="M161.7075 93.3929
L161.7313 93.3214
" />
<path d="M161.7313 93.3214
L161.7313 93.2738
" />
<path d="M161.7313 93.2738
L161.7075 93.2024
" />
<path d="M161.7075 93.2024
L161.6599 93.1548
" />
<path d="M161.6599 93.1548
L161.6123 93.1310
" />
<path d="M161.6123 93.1310
L161.5170 93.1071
" />
<path d="M161.5170 93.1071
L161.4456 93.1071
" />
<path d="M161.4456 93.1071
L161.3504 93.1310
" />
<path d="M161.3504 93.1310
L161.3027 93.1548
" />
<path d="M161.3027 93.1548
L161.2551 93.2024
" />
<path d="M161.2551 93.2024
L161.2313 93.2738
" />
<path d="M161.2313 93.2738
L161.2313 93.3214
" />
<path d="M161.2313 93.3214
L161.2551 93.3929
" />
<path d="M161.2551 93.3929
L161.2789 93.4167
" />
<path d="M161.3980 93.8452
L161.7313 93.8452
" />
<path d="M161.2075 93.7262
L161.5646 93.6071
" />
<path d="M161.5646 93.6071
L161.5646 93.9167
" />
</g><g transform="rotate(-90.000000 156.0000 106.5000)">
<text x="156.0000" y="106.7500"
transform="scale(-1 1) translate(-312.000000 0)"
textLength="1.1887" font-size="0.6667" lengthAdjust="spacingAndGlyphs"
text-anchor="middle" opacity="0">C5</text>
</g>
<g class="stroked-text"><desc>C5</desc>
<path d="M156.1837 106.4167
L156.2075 106.3929
" />
<path d="M156.2075 106.3929
L156.2313 106.3214
" />
<path d="M156.2313 106.3214
L156.2313 106.2738
" />
<path d="M156.2313 106.2738
L156.2075 106.2024
" />
<path d="M156.2075 106.2024
L156.1599 106.1548
" />
<path d="M156.1599 106.1548
L156.1123 106.1310
" />
<path d="M156.1123 106.1310
L156.0170 106.1071
" />
<path d="M156.0170 106.1071
L155.9456 106.1071
" />
<path d="M155.9456 106.1071
L155.8504 106.1310
" />
<path d="M155.8504 106.1310
L155.8027 106.1548
" />
<path d="M155.8027 106.1548
L155.7551 106.2024
" />
<path d="M155.7551 106.2024
L155.7313 106.2738
" />
<path d="M155.7313 106.2738
L155.7313 106.3214
" />
<path d="M155.7313 106.3214
L155.7551 106.3929
" />
<path d="M155.7551 106.3929
L155.7789 106.4167
" />
<path d="M155.7313 106.8690
L155.7313 106.6310
" />
<path d="M155.7313 106.6310
L155.9694 106.6071
" />
<path d="M155.9694 106.6071
L155.9456 106.6310
" />
<path d="M155.9456 106.6310
L155.9218 106.6786
" />
<path d="M155.9218 106.6786
L155.9218 106.7976
" />
<path d="M155.9218 106.7976
L155.9456 106.8452
" />
<path d="M155.9456 106.8452
L155.9694 106.8690
" />
<path d="M155.9694 106.8690
L156.0170 106.8929
" />
<path d="M156.0170 106.8929
L156.1361 106.8929
" />
<path d="M156.1361 106.8929
L156.1837 106.8690
" />
<path d="M156.1837 106.8690
L156.2075 106.8452
" />
<path d="M156.2075 106.8452
L156.2313 106.7976
" />
<path d="M156.2313 106.7976
L156.2313 106.6786
" />
<path d="M156.2313 106.6786
L156.2075 106.6310
" />
<path d="M156.2075 106.6310
L156.1837 106.6071
" />
</g><g transform="rotate(-90.000000 157.0000 93.5000)">
<text x="157.0000" y="93.7500"
transform="scale(-1 1) translate(-314.000000 0)"
textLength="1.1887" font-size="0.6667" lengthAdjust="spacingAndGlyphs"
text-anchor="middle" opacity="0">C1</text>
</g>
<g class="stroked-text"><desc>C1</desc>
<path d="M157.1837 93.4167
L157.2075 93.3929
" />
<path d="M157.2075 93.3929
L157.2313 93.3214
" />
<path d="M157.2313 93.3214
L157.2313 93.2738
" />
<path d="M157.2313 93.2738
L157.2075 93.2024
" />
<path d="M157.2075 93.2024
L157.1599 93.1548
" />
<path d="M157.1599 93.1548
L157.1123 93.1310
" />
<path d="M157.1123 93.1310
L157.0170 93.1071
" />
<path d="M157.0170 93.1071
L156.9456 93.1071
" />
<path d="M156.9456 93.1071
L156.8504 93.1310
" />
<path d="M156.8504 93.1310
L156.8027 93.1548
" />
<path d="M156.8027 93.1548
L156.7551 93.2024
" />
<path d="M156.7551 93.2024
L156.7313 93.2738
" />
<path d="M156.7313 93.2738
L156.7313 93.3214
" />
<path d="M156.7313 93.3214
L156.7551 93.3929
" />
<path d="M156.7551 93.3929
L156.7789 93.4167
" />
<path d="M157.2313 93.8929
L157.2313 93.6071
" />
<path d="M157.2313 93.7500
L156.7313 93.7500
" />
<path d="M156.7313 93.7500
L156.8027 93.7024
" />
<path d="M156.8027 93.7024
L156.8504 93.6548
" />
<path d="M156.8504 93.6548
L156.8742 93.6071
" />
</g><g transform="rotate(-90.000000 153.7500 92.5000)">
<text x="153.7500" y="92.7500"
transform="scale(-1 1) translate(-307.500000 0)"
textLength="1.1887" font-size="0.6667" lengthAdjust="spacingAndGlyphs"
text-anchor="middle" opacity="0">R6</text>
</g>
<g class="stroked-text"><desc>R6</desc>
<path d="M153.9813 92.4167
L153.7432 92.2500
" />
<path d="M153.9813 92.1310
L153.4813 92.1310
" />
<path d="M153.4813 92.1310
L153.4813 92.3214
" />
<path d="M153.4813 92.3214
L153.5051 92.3690
" />
<path d="M153.5051 92.3690
L153.5289 92.3929
" />
<path d="M153.5289 92.3929
L153.5765 92.4167
" />
<path d="M153.5765 92.4167
L153.6480 92.4167
" />
<path d="M153.6480 92.4167
L153.6956 92.3929
" />
<path d="M153.6956 92.3929
L153.7194 92.3690
" />
<path d="M153.7194 92.3690
L153.7432 92.3214
" />
<path d="M153.7432 92.3214
L153.7432 92.1310
" />
<path d="M153.4813 92.8452
L153.4813 92.7500
" />
<path d="M153.4813 92.7500
L153.5051 92.7024
" />
<path d="M153.5051 92.7024
L153.5289 92.6786
" />
<path d="M153.5289 92.6786
L153.6004 92.6310
" />
<path d="M153.6004 92.6310
L153.6956 92.6071
" />
<path d="M153.6956 92.6071
L153.8861 92.6071
" />
<path d="M153.8861 92.6071
L153.9337 92.6310
" />
<path d="M153.9337 92.6310
L153.9575 92.6548
" />
<path d="M153.9575 92.6548
L153.9813 92.7024
" />
<path d="M153.9813 92.7024
L153.9813 92.7976
" />
<path d="M153.9813 92.7976
L153.9575 92.8452
" />
<path d="M153.9575 92.8452
L153.9337 92.8690
" />
<path d="M153.9337 92.8690
L153.8861 92.8929
" />
<path d="M153.8861 92.8929
L153.7670 92.8929
" />
<path d="M153.7670 92.8929
L153.7194 92.8690
" />
<path d="M153.7194 92.8690
L153.6956 92.8452
" />
<path d="M153.6956 92.8452
L153.6718 92.7976
" />
<path d="M153.6718 92.7976
L153.6718 92.7024
" />
<path d="M153.6718 92.7024
L153.6956 92.6548
" />
<path d="M153.6956 92.6548
L153.7194 92.6310
" />
<path d="M153.7194 92.6310
L153.7670 92.6071
" />
</g><text x="152.5000" y="108.0000"
transform="scale(-1 1) translate(-305.000000 0)"
textLength="1.1887" font-size="0.6667" lengthAdjust="spacingAndGlyphs"
text-anchor="middle" opacity="0">R4</text>
<g class="stroked-text"><desc>R4</desc>
<path d="M152.5833 107.9813
L152.7500 107.7432
" />
<path d="M152.8690 107.9813
L152.8690 107.4813
" />
<path d="M152.8690 107.4813
L152.6786 107.4813
" />
<path d="M152.6786 107.4813
L152.6310 107.5051
" />
<path d="M152.6310 107.5051
L152.6071 107.5289
" />
<path d="M152.6071 107.5289
L152.5833 107.5765
" />
<path d="M152.5833 107.5765
L152.5833 107.6480
" />
<path d="M152.5833 107.6480
L152.6071 107.6956
" />
<path d="M152.6071 107.6956
L152.6310 107.7194
" />
<path d="M152.6310 107.7194
L152.6786 107.7432
" />
<path d="M152.6786 107.7432
L152.8690 107.7432
" />
<path d="M152.1548 107.6480
L152.1548 107.9813
" />
<path d="M152.2738 107.4575
L152.3929 107.8146
" />
<path d="M152.3929 107.8146
L152.0833 107.8146
" />
</g><text x="137.5000" y="102.7500"
transform="scale(-1 1) translate(-275.000000 0)"
textLength="1.2125" font-size="0.6667" lengthAdjust="spacingAndGlyphs"
text-anchor="middle" opacity="0">U6</text>
<g class="stroked-text"><desc>U6</desc>
<path d="M137.8810 102.2313
L137.8810 102.6361
" />
<path d="M137.8810 102.6361
L137.8571 102.6837
" />
<path d="M137.8571 102.6837
L137.8333 102.7075
" />
<path d="M137.8333 102.7075
L137.7857 102.7313
" />
<path d="M137.7857 102.7313
L137.6905 102.7313
" />
<path d="M137.6905 102.7313
L137.6429 102.7075
" />
<path d="M137.6429 102.7075
L137.6190 102.6837
" />
<path d="M137.6190 102.6837
L137.5952 102.6361
" />
<path d="M137.5952 102.6361
L137.5952 102.2313
" />
<path d="M137.1429 102.2313
L137.2381 102.2313
" />
<path d="M137.2381 102.2313
L137.2857 102.2551
" />
<path d="M137.2857 102.2551
L137.3095 102.2789
" />
<path d="M137.3095 102.2789
L137.3571 102.3504
" />
<path d="M137.3571 102.3504
L137.3810 102.4456
" />
<path d="M137.3810 102.4456
L137.3810 102.6361
" />
<path d="M137.3810 102.6361
L137.3571 102.6837
" />
<path d="M137.3571 102.6837
L137.3333 102.7075
" />
<path d="M137.3333 102.7075
L137.2857 102.7313
" />
<path d="M137.2857 102.7313
L137.1905 102.7313
" />
<path d="M137.1905 102.7313
L137.1429 102.7075
" />
<path d="M137.1429 102.7075
L137.1190 102.6837
" />
<path d="M137.1190 102.6837
L137.0952 102.6361
" />
<path d="M137.0952 102.6361
L137.0952 102.5170
" />
<path d="M137.0952 102.5170
L137.1190 102.4694
" />
<path d="M137.1190 102.4694
L137.1429 102.4456
" />
<path d="M137.1429 102.4456
L137.1905 102.4218
" />
<path d="M137.1905 102.4218
L137.2857 102.4218
" />
<path d="M137.2857 102.4218
L137.3333 102.4456
" />
<path d="M137.3333 102.4456
L137.3571 102.4694
" />
<path d="M137.3571 102.4694
L137.3810 102.5170
" />
</g><text x="143.0000" y="96.2500"
transform="scale(-1 1) translate(-286.000000 0)"
textLength="1.0696" font-size="0.6667" lengthAdjust="spacingAndGlyphs"
text-anchor="middle" opacity="0">J3</text>
<g class="stroked-text"><desc>J3</desc>
<path d="M143.1667 95.7313
L143.1667 96.0885
" />
<path d="M143.1667 96.0885
L143.1905 96.1599
" />
<path d="M143.1905 96.1599
L143.2381 96.2075
" />
<path d="M143.2381 96.2075
L143.3095 96.2313
" />
<path d="M143.3095 96.2313
L143.3571 96.2313
" />
<path d="M142.9762 95.7313
L142.6667 95.7313
" />
<path d="M142.6667 95.7313
L142.8333 95.9218
" />
<path d="M142.8333 95.9218
L142.7619 95.9218
" />
<path d="M142.7619 95.9218
L142.7143 95.9456
" />
<path d="M142.7143 95.9456
L142.6905 95.9694
" />
<path d="M142.6905 95.9694
L142.6667 96.0170
" />
<path d="M142.6667 96.0170
L142.6667 96.1361
" />
<path d="M142.6667 96.1361
L142.6905 96.1837
" />
<path d="M142.6905 96.1837
L142.7143 96.2075
" />
<path d="M142.7143 96.2075
L142.7619 96.2313
" />
<path d="M142.7619 96.2313
L142.9048 96.2313
" />
<path d="M142.9048 96.2313
L142.9524 96.2075
" />
<path d="M142.9524 96.2075
L142.9762 96.1837
" />
</g><text x="143.0000" y="102.5000"
transform="scale(-1 1) translate(-286.000000 0)"
textLength="1.6649" font-size="0.6667" lengthAdjust="spacingAndGlyphs"
text-anchor="middle" opacity="0">R17</text>
<g class="stroked-text"><desc>R17</desc>
<path d="M143.3214 102.4813
L143.4881 102.2432
" />
<path d="M143.6071 102.4813
L143.6071 101.9813
" />
<path d="M143.6071 101.9813
L143.4167 101.9813
" />
<path d="M143.4167 101.9813
L143.3690 102.0051
" />
<path d="M143.3690 102.0051
L143.3452 102.0289
" />
<path d="M143.3452 102.0289
L143.3214 102.0765
" />
<path d="M143.3214 102.0765
L143.3214 102.1480
" />
<path d="M143.3214 102.1480
L143.3452 102.1956
" />
<path d="M143.3452 102.1956
L143.3690 102.2194
" />
<path d="M143.3690 102.2194
L143.4167 102.2432
" />
<path d="M143.4167 102.2432
L143.6071 102.2432
" />
<path d="M142.8452 102.4813
L143.1310 102.4813
" />
<path d="M142.9881 102.4813
L142.9881 101.9813
" />
<path d="M142.9881 101.9813
L143.0357 102.0527
" />
<path d="M143.0357 102.0527
L143.0833 102.1004
" />
<path d="M143.0833 102.1004
L143.1310 102.1242
" />
<path d="M142.6786 101.9813
L142.3452 101.9813
" />
<path d="M142.3452 101.9813
L142.5595 102.4813
" />
</g><text x="139.2500" y="100.2500"
transform="scale(-1 1) translate(-278.500000 0)"
textLength="1.1887" font-size="0.6667" lengthAdjust="spacingAndGlyphs"
text-anchor="middle" opacity="0">D2</text>
<g class="stroked-text"><desc>D2</desc>
<path d="M139.6190 100.2313
L139.6190 99.7313
" />
<path d="M139.6190 99.7313
L139.5000 99.7313
" />
<path d="M139.5000 99.7313
L139.4286 99.7551
" />
<path d="M139.4286 99.7551
L139.3810 99.8027
" />
<path d="M139.3810 99.8027
L139.3571 99.8504
" />
<path d="M139.3571 99.8504
L139.3333 99.9456
" />
<path d="M139.3333 99.9456
L139.3333 100.0170
" />
<path d="M139.3333 100.0170
L139.3571 100.1123
" />
<path d="M139.3571 100.1123
L139.3810 100.1599
" />
<path d="M139.3810 100.1599
L139.4286 100.2075
" />
<path d="M139.4286 100.2075
L139.5000 100.2313
" />
<path d="M139.5000 100.2313
L139.6190 100.2313
" />
<path d="M139.1429 99.7789
L139.1190 99.7551
" />
<path d="M139.1190 99.7551
L139.0714 99.7313
" />
<path d="M139.0714 99.7313
L138.9524 99.7313
" />
<path d="M138.9524 99.7313
L138.9048 99.7551
" />
<path d="M138.9048 99.7551
L138.8810 99.7789
" />
<path d="M138.8810 99.7789
L138.8571 99.8265
" />
<path d="M138.8571 99.8265
L138.8571 99.8742
" />
<path d="M138.8571 99.8742
L138.8810 99.9456
" />
<path d="M138.8810 99.9456
L139.1667 100.2313
" />
<path d="M139.1667 100.2313
L138.8571 100.2313
" />
</g><text x="147.5000" y="106.2500"
transform="scale(-1 1) translate(-295.000000 0)"
textLength="1.5696" font-size="0.6667" lengthAdjust="spacingAndGlyphs"
text-anchor="middle" opacity="0">JP1</text>
<g class="stroked-text"><desc>JP1</desc>
<path d="M147.9167 105.7313
L147.9167 106.0885
" />
<path d="M147.9167 106.0885
L147.9405 106.1599
" />
<path d="M147.9405 106.1599
L147.9881 106.2075
" />
<path d="M147.9881 106.2075
L148.0595 106.2313
" />
<path d="M148.0595 106.2313
L148.1071 106.2313
" />
<path d="M147.6786 106.2313
L147.6786 105.7313
" />
<path d="M147.6786 105.7313
L147.4881 105.7313
" />
<path d="M147.4881 105.7313
L147.4405 105.7551
" />
<path d="M147.4405 105.7551
L147.4167 105.7789
" />
<path d="M147.4167 105.7789
L147.3929 105.8265
" />
<path d="M147.3929 105.8265
L147.3929 105.8980
" />
<path d="M147.3929 105.8980
L147.4167 105.9456
" />
<path d="M147.4167 105.9456
L147.4405 105.9694
" />
<path d="M147.4405 105.9694
L147.4881 105.9932
" />
<path d="M147.4881 105.9932
L147.6786 105.9932
" />
<path d="M146.9167 106.2313
L147.2024 106.2313
" />
<path d="M147.0595 106.2313
L147.0595 105.7313
" />
<path d="M147.0595 105.7313
L147.1071 105.8027
" />
<path d="M147.1071 105.8027
L147.1548 105.8504
" />
<path d="M147.1548 105.8504
L147.2024 105.8742
" />
</g><g transform="rotate(-90.000000 160.0000 100.0000)">
<text x="160.0000" y="100.2500"
transform="scale(-1 1) translate(-320.000000 0)"
textLength="1.2125" font-size="0.6667" lengthAdjust="spacingAndGlyphs"
text-anchor="middle" opacity="0">U1</text>
</g>
<g class="stroked-text"><desc>U1</desc>
<path d="M159.7313 99.6190
L160.1361 99.6190
" />
<path d="M160.1361 99.6190
L160.1837 99.6429
" />
<path d="M160.1837 99.6429
L160.2075 99.6667
" />
<path d="M160.2075 99.6667
L160.2313 99.7143
" />
<path d="M160.2313 99.7143
L160.2313 99.8095
" />
<path d="M160.2313 99.8095
L160.2075 99.8571
" />
<path d="M160.2075 99.8571
L160.1837 99.8810
" />
<path d="M160.1837 99.8810
L160.1361 99.9048
" />
<path d="M160.1361 99.9048
L159.7313 99.9048
" />
<path d="M160.2313 100.4048
L160.2313 100.1190
" />
<path d="M160.2313 100.2619
L159.7313 100.2619
" />
<path d="M159.7313 100.2619
L159.8027 100.2143
" />
<path d="M159.8027 100.2143
L159.8504 100.1667
" />
<path d="M159.8504 100.1667
L159.8742 100.1190
" />
</g><g transform="rotate(-90.000000 156.5000 103.7500)">
<text x="156.5000" y="104.0000"
transform="scale(-1 1) translate(-313.000000 0)"
textLength="1.2125" font-size="0.6667" lengthAdjust="spacingAndGlyphs"
text-anchor="middle" opacity="0">U3</text>
</g>
<g class="stroked-text"><desc>U3</desc>
<path d="M156.2313 103.3690
L156.6361 103.3690
" />
<path d="M156.6361 103.3690
L156.6837 103.3929
" />
<path d="M156.6837 103.3929
L156.7075 103.4167
" />
<path d="M156.7075 103.4167
L156.7313 103.4643
" />
<path d="M156.7313 103.4643
L156.7313 103.5595
" />
<path d="M156.7313 103.5595
L156.7075 103.6071
" />
<path d="M156.7075 103.6071
L156.6837 103.6310
" />
<path d="M156.6837 103.6310
L156.6361 103.6548
" />
<path d="M156.6361 103.6548
L156.2313 103.6548
" />
<path d="M156.2313 103.8452
L156.2313 104.1548
" />
<path d="M156.2313 104.1548
L156.4218 103.9881
" />
<path d="M156.4218 103.9881
L156.4218 104.0595
" />
<path d="M156.4218 104.0595
L156.4456 104.1071
" />
<path d="M156.4456 104.1071
L156.4694 104.1310
" />
<path d="M156.4694 104.1310
L156.5170 104.1548
" />
<path d="M156.5170 104.1548
L156.6361 104.1548
" />
<path d="M156.6361 104.1548
L156.6837 104.1310
" />
<path d="M156.6837 104.1310
L156.7075 104.1071
" />
<path d="M156.7075 104.1071
L156.7313 104.0595
" />
<path d="M156.7313 104.0595
L156.7313 103.9167
" />
<path d="M156.7313 103.9167
L156.7075 103.8690
" />
<path d="M156.7075 103.8690
L156.6837 103.8452
" />
</g><text x="143.0000" y="104.2500"
transform="scale(-1 1) translate(-286.000000 0)"
textLength="1.0696" font-size="0.6667" lengthAdjust="spacingAndGlyphs"
text-anchor="middle" opacity="0">J4</text>
<g class="stroked-text"><desc>J4</desc>
<path d="M143.1667 103.7313
L143.1667 104.0885
" />
<path d="M143.1667 104.0885
L143.1905 104.1599
" />
<path d="M143.1905 104.1599
L143.2381 104.2075
" />
<path d="M143.2381 104.2075
L143.3095 104.2313
" />
<path d="M143.3095 104.2313
L143.3571 104.2313
" />
<path d="M142.7143 103.8980
L142.7143 104.2313
" />
<path d="M142.8333 103.7075
L142.9524 104.0646
" />
<path d="M142.9524 104.0646
L142.6429 104.0646
" />
</g><text x="165.5000" y="97.7500"
transform="scale(-1 1) translate(-331.000000 0)"
textLength="1.0696" font-size="0.6667" lengthAdjust="spacingAndGlyphs"
text-anchor="middle" opacity="0">J2</text>
<g class="stroked-text"><desc>J2</desc>
<path d="M165.6667 97.2313
L165.6667 97.5885
" />
<path d="M165.6667 97.5885
L165.6905 97.6599
" />
<path d="M165.6905 97.6599
L165.7381 97.7075
" />
<path d="M165.7381 97.7075
L165.8095 97.7313
" />
<path d="M165.8095 97.7313
L165.8571 97.7313
" />
<path d="M165.4524 97.2789
L165.4286 97.2551
" />
<path d="M165.4286 97.2551
L165.3810 97.2313
" />
<path d="M165.3810 97.2313
L165.2619 97.2313
" />
<path d="M165.2619 97.2313
L165.2143 97.2551
" />
<path d="M165.2143 97.2551
L165.1905 97.2789
" />
<path d="M165.1905 97.2789
L165.1667 97.3265
" />
<path d="M165.1667 97.3265
L165.1667 97.3742
" />
<path d="M165.1667 97.3742
L165.1905 97.4456
" />
<path d="M165.1905 97.4456
L165.4762 97.7313
" />
<path d="M165.4762 97.7313
L165.1667 97.7313
" />
</g><text x="139.0000" y="103.2500"
transform="scale(-1 1) translate(-278.000000 0)"
textLength="1.6649" font-size="0.6667" lengthAdjust="spacingAndGlyphs"
text-anchor="middle" opacity="0">R16</text>
<g class="stroked-text"><desc>R16</desc>
<path d="M139.3214 103.2313
L139.4881 102.9932
" />
<path d="M139.6071 103.2313
L139.6071 102.7313
" />
<path d="M139.6071 102.7313
L139.4167 102.7313
" />
<path d="M139.4167 102.7313
L139.3690 102.7551
" />
<path d="M139.3690 102.7551
L139.3452 102.7789
" />
<path d="M139.3452 102.7789
L139.3214 102.8265
" />
<path d="M139.3214 102.8265
L139.3214 102.8980
" />
<path d="M139.3214 102.8980
L139.3452 102.9456
" />
<path d="M139.3452 102.9456
L139.3690 102.9694
" />
<path d="M139.3690 102.9694
L139.4167 102.9932
" />
<path d="M139.4167 102.9932
L139.6071 102.9932
" />
<path d="M138.8452 103.2313
L139.1310 103.2313
" />
<path d="M138.9881 103.2313
L138.9881 102.7313
" />
<path d="M138.9881 102.7313
L139.0357 102.8027
" />
<path d="M139.0357 102.8027
L139.0833 102.8504
" />
<path d="M139.0833 102.8504
L139.1310 102.8742
" />
<path d="M138.4167 102.7313
L138.5119 102.7313
" />
<path d="M138.5119 102.7313
L138.5595 102.7551
" />
<path d="M138.5595 102.7551
L138.5833 102.7789
" />
<path d="M138.5833 102.7789
L138.6310 102.8504
" />
<path d="M138.6310 102.8504
L138.6548 102.9456
" />
<path d="M138.6548 102.9456
L138.6548 103.1361
" />
<path d="M138.6548 103.1361
L138.6310 103.1837
" />
<path d="M138.6310 103.1837
L138.6071 103.2075
" />
<path d="M138.6071 103.2075
L138.5595 103.2313
" />
<path d="M138.5595 103.2313
L138.4643 103.2313
" />
<path d="M138.4643 103.2313
L138.4167 103.2075
" />
<path d="M138.4167 103.2075
L138.3929 103.1837
" />
<path d="M138.3929 103.1837
L138.3690 103.1361
" />
<path d="M138.3690 103.1361
L138.3690 103.0170
" />
<path d="M138.3690 103.0170
L138.3929 102.9694
" />
<path d="M138.3929 102.9694
L138.4167 102.9456
" />
<path d="M138.4167 102.9456
L138.4643 102.9218
" />
<path d="M138.4643 102.9218
L138.5595 102.9218
" />
<path d="M138.5595 102.9218
L138.6071 102.9456
" />
<path d="M138.6071 102.9456
L138.6310 102.9694
" />
<path d="M138.6310 102.9694
L138.6548 103.0170
" />
</g><text x="139.0000" y="107.0000"
transform="scale(-1 1) translate(-278.000000 0)"
textLength="1.6649" font-size="0.6667" lengthAdjust="spacingAndGlyphs"
text-anchor="middle" opacity="0">R15</text>
<g class="stroked-text"><desc>R15</desc>
<path d="M139.3214 106.9813
L139.4881 106.7432
" />
<path d="M139.6071 106.9813
L139.6071 106.4813
" />
<path d="M139.6071 106.4813
L139.4167 106.4813
" />
<path d="M139.4167 106.4813
L139.3690 106.5051
" />
<path d="M139.3690 106.5051
L139.3452 106.5289
" />
<path d="M139.3452 106.5289
L139.3214 106.5765
" />
<path d="M139.3214 106.5765
L139.3214 106.6480
" />
<path d="M139.3214 106.6480
L139.3452 106.6956
" />
<path d="M139.3452 106.6956
L139.3690 106.7194
" />
<path d="M139.3690 106.7194
L139.4167 106.7432
" />
<path d="M139.4167 106.7432
L139.6071 106.7432
" />
<path d="M138.8452 106.9813
L139.1310 106.9813
" />
<path d="M138.9881 106.9813
L138.9881 106.4813
" />
<path d="M138.9881 106.4813
L139.0357 106.5527
" />
<path d="M139.0357 106.5527
L139.0833 106.6004
" />
<path d="M139.0833 106.6004
L139.1310 106.6242
" />
<path d="M138.3929 106.4813
L138.6310 106.4813
" />
<path d="M138.6310 106.4813
L138.6548 106.7194
" />
<path d="M138.6548 106.7194
L138.6310 106.6956
" />
<path d="M138.6310 106.6956
L138.5833 106.6718
" />
<path d="M138.5833 106.6718
L138.4643 106.6718
" />
<path d="M138.4643 106.6718
L138.4167 106.6956
" />
<path d="M138.4167 106.6956
L138.3929 106.7194
" />
<path d="M138.3929 106.7194
L138.3690 106.7670
" />
<path d="M138.3690 106.7670
L138.3690 106.8861
" />
<path d="M138.3690 106.8861
L138.3929 106.9337
" />
<path d="M138.3929 106.9337
L138.4167 106.9575
" />
<path d="M138.4167 106.9575
L138.4643 106.9813
" />
<path d="M138.4643 106.9813
L138.5833 106.9813
" />
<path d="M138.5833 106.9813
L138.6310 106.9575
" />
<path d="M138.6310 106.9575
L138.6548 106.9337
" />
</g><g transform="rotate(-90.000000 147.7500 92.5000)">
<text x="147.7500" y="92.7500"
transform="scale(-1 1) translate(-295.500000 0)"
textLength="1.1887" font-size="0.6667" lengthAdjust="spacingAndGlyphs"
text-anchor="middle" opacity="0">C9</text>
</g>
<g class="stroked-text"><desc>C9</desc>
<path d="M147.9337 92.4167
L147.9575 92.3929
" />
<path d="M147.9575 92.3929
L147.9813 92.3214
" />
<path d="M147.9813 92.3214
L147.9813 92.2738
" />
<path d="M147.9813 92.2738
L147.9575 92.2024
" />
<path d="M147.9575 92.2024
L147.9099 92.1548
" />
<path d="M147.9099 92.1548
L147.8623 92.1310
" />
<path d="M147.8623 92.1310
L147.7670 92.1071
" />
<path d="M147.7670 92.1071
L147.6956 92.1071
" />
<path d="M147.6956 92.1071
L147.6004 92.1310
" />
<path d="M147.6004 92.1310
L147.5527 92.1548
" />
<path d="M147.5527 92.1548
L147.5051 92.2024
" />
<path d="M147.5051 92.2024
L147.4813 92.2738
" />
<path d="M147.4813 92.2738
L147.4813 92.3214
" />
<path d="M147.4813 92.3214
L147.5051 92.3929
" />
<path d="M147.5051 92.3929
L147.5289 92.4167
" />
<path d="M147.9813 92.6548
L147.9813 92.7500
" />
<path d="M147.9813 92.7500
L147.9575 92.7976
" />
<path d="M147.9575 92.7976
L147.9337 92.8214
" />
<path d="M147.9337 92.8214
L147.8623 92.8690
" />
<path d="M147.8623 92.8690
L147.7670 92.8929
" />
<path d="M147.7670 92.8929
L147.5765 92.8929
" />
<path d="M147.5765 92.8929
L147.5289 92.8690
" />
<path d="M147.5289 92.8690
L147.5051 92.8452
" />
<path d="M147.5051 92.8452
L147.4813 92.7976
" />
<path d="M147.4813 92.7976
L147.4813 92.7024
" />
<path d="M147.4813 92.7024
L147.5051 92.6548
" />
<path d="M147.5051 92.6548
L147.5289 92.6310
" />
<path d="M147.5289 92.6310
L147.5765 92.6071
" />
<path d="M147.5765 92.6071
L147.6956 92.6071
" />
<path d="M147.6956 92.6071
L147.7432 92.6310
" />
<path d="M147.7432 92.6310
L147.7670 92.6548
" />
<path d="M147.7670 92.6548
L147.7908 92.7024
" />
<path d="M147.7908 92.7024
L147.7908 92.7976
" />
<path d="M147.7908 92.7976
L147.7670 92.8452
" />
<path d="M147.7670 92.8452
L147.7432 92.8690
" />
<path d="M147.7432 92.8690
L147.6956 92.8929
" />
</g><g transform="rotate(-90.000000 144.0000 98.5000)">
<text x="144.0000" y="98.7500"
transform="scale(-1 1) translate(-288.000000 0)"
textLength="1.1887" font-size="0.6667" lengthAdjust="spacingAndGlyphs"
text-anchor="middle" opacity="0">R8</text>
</g>
<g class="stroked-text"><desc>R8</desc>
<path d="M144.2313 98.4167
L143.9932 98.2500
" />
<path d="M144.2313 98.1310
L143.7313 98.1310
" />
<path d="M143.7313 98.1310
L143.7313 98.3214
" />
<path d="M143.7313 98.3214
L143.7551 98.3690
" />
<path d="M143.7551 98.3690
L143.7789 98.3929
" />
<path d="M143.7789 98.3929
L143.8265 98.4167
" />
<path d="M143.8265 98.4167
L143.8980 98.4167
" />
<path d="M143.8980 98.4167
L143.9456 98.3929
" />
<path d="M143.9456 98.3929
L143.9694 98.3690
" />
<path d="M143.9694 98.3690
L143.9932 98.3214
" />
<path d="M143.9932 98.3214
L143.9932 98.1310
" />
<path d="M143.9456 98.7024
L143.9218 98.6548
" />
<path d="M143.9218 98.6548
L143.8980 98.6310
" />
<path d="M143.8980 98.6310
L143.8504 98.6071
" />
<path d="M143.8504 98.6071
L143.8265 98.6071
" />
<path d="M143.8265 98.6071
L143.7789 98.6310
" />
<path d="M143.7789 98.6310
L143.7551 98.6548
" />
<path d="M143.7551 98.6548
L143.7313 98.7024
" />
<path d="M143.7313 98.7024
L143.7313 98.7976
" />
<path d="M143.7313 98.7976
L143.7551 98.8452
" />
<path d="M143.7551 98.8452
L143.7789 98.8690
" />
<path d="M143.7789 98.8690
L143.8265 98.8929
" />
<path d="M143.8265 98.8929
L143.8504 98.8929
" />
<path d="M143.8504 98.8929
L143.8980 98.8690
" />
<path d="M143.8980 98.8690
L143.9218 98.8452
" />
<path d="M143.9218 98.8452
L143.9456 98.7976
" />
<path d="M143.9456 98.7976
L143.9456 98.7024
" />
<path d="M143.9456 98.7024
L143.9694 98.6548
" />
<path d="M143.9694 98.6548
L143.9932 98.6310
" />
<path d="M143.9932 98.6310
L144.0408 98.6071
" />
<path d="M144.0408 98.6071
L144.1361 98.6071
" />
<path d="M144.1361 98.6071
L144.1837 98.6310
" />
<path d="M144.1837 98.6310
L144.2075 98.6548
" />
<path d="M144.2075 98.6548
L144.2313 98.7024
" />
<path d="M144.2313 98.7024
L144.2313 98.7976
" />
<path d="M144.2313 98.7976
L144.2075 98.8452
" />
<path d="M144.2075 98.8452
L144.1837 98.8690
" />
<path d="M144.1837 98.8690
L144.1361 98.8929
" />
<path d="M144.1361 98.8929
L144.0408 98.8929
" />
<path d="M144.0408 98.8929
L143.9932 98.8690
" />
<path d="M143.9932 98.8690
L143.9694 98.8452
" />
<path d="M143.9694 98.8452
L143.9456 98.7976
" />
</g><g transform="rotate(-90.000000 161.0000 106.5000)">
<text x="161.0000" y="106.7500"
transform="scale(-1 1) translate(-322.000000 0)"
textLength="1.1887" font-size="0.6667" lengthAdjust="spacingAndGlyphs"
text-anchor="middle" opacity="0">C2</text>
</g>
<g class="stroked-text"><desc>C2</desc>
<path d="M161.1837 106.4167
L161.2075 106.3929
" />
<path d="M161.2075 106.3929
L161.2313 106.3214
" />
<path d="M161.2313 106.3214
L161.2313 106.2738
" />
<path d="M161.2313 106.2738
L161.2075 106.2024
" />
<path d="M161.2075 106.2024
L161.1599 106.1548
" />
<path d="M161.1599 106.1548
L161.1123 106.1310
" />
<path d="M161.1123 106.1310
L161.0170 106.1071
" />
<path d="M161.0170 106.1071
L160.9456 106.1071
" />
<path d="M160.9456 106.1071
L160.8504 106.1310
" />
<path d="M160.8504 106.1310
L160.8027 106.1548
" />
<path d="M160.8027 106.1548
L160.7551 106.2024
" />
<path d="M160.7551 106.2024
L160.7313 106.2738
" />
<path d="M160.7313 106.2738
L160.7313 106.3214
" />
<path d="M160.7313 106.3214
L160.7551 106.3929
" />
<path d="M160.7551 106.3929
L160.7789 106.4167
" />
<path d="M160.7789 106.6071
L160.7551 106.6310
" />
<path d="M160.7551 106.6310
L160.7313 106.6786
" />
<path d="M160.7313 106.6786
L160.7313 106.7976
" />
<path d="M160.7313 106.7976
L160.7551 106.8452
" />
<path d="M160.7551 106.8452
L160.7789 106.8690
" />
<path d="M160.7789 106.8690
L160.8265 106.8929
" />
<path d="M160.8265 106.8929
L160.8742 106.8929
" />
<path d="M160.8742 106.8929
L160.9456 106.8690
" />
<path d="M160.9456 106.8690
L161.2313 106.5833
" />
<path d="M161.2313 106.5833
L161.2313 106.8929
" />
</g><g transform="rotate(-90.000000 138.7500 104.5000)">
<text x="138.7500" y="104.7500"
transform="scale(-1 1) translate(-277.500000 0)"
textLength="1.2125" font-size="0.6667" lengthAdjust="spacingAndGlyphs"
text-anchor="middle" opacity="0">Q1</text>
</g>
<g class="stroked-text"><desc>Q1</desc>
<path d="M139.0289 104.4524
L139.0051 104.4048
" />
<path d="M139.0051 104.4048
L138.9575 104.3571
" />
<path d="M138.9575 104.3571
L138.8861 104.2857
" />
<path d="M138.8861 104.2857
L138.8623 104.2381
" />
<path d="M138.8623 104.2381
L138.8623 104.1905
" />
<path d="M138.9813 104.2143
L138.9575 104.1667
" />
<path d="M138.9575 104.1667
L138.9099 104.1190
" />
<path d="M138.9099 104.1190
L138.8146 104.0952
" />
<path d="M138.8146 104.0952
L138.6480 104.0952
" />
<path d="M138.6480 104.0952
L138.5527 104.1190
" />
<path d="M138.5527 104.1190
L138.5051 104.1667
" />
<path d="M138.5051 104.1667
L138.4813 104.2143
" />
<path d="M138.4813 104.2143
L138.4813 104.3095
" />
<path d="M138.4813 104.3095
L138.5051 104.3571
" />
<path d="M138.5051 104.3571
L138.5527 104.4048
" />
<path d="M138.5527 104.4048
L138.6480 104.4286
" />
<path d="M138.6480 104.4286
L138.8146 104.4286
" />
<path d="M138.8146 104.4286
L138.9099 104.4048
" />
<path d="M138.9099 104.4048
L138.9575 104.3571
" />
<path d="M138.9575 104.3571
L138.9813 104.3095
" />
<path d="M138.9813 104.3095
L138.9813 104.2143
" />
<path d="M138.9813 104.9048
L138.9813 104.6190
" />
<path d="M138.9813 104.7619
L138.4813 104.7619
" />
<path d="M138.4813 104.7619
L138.5527 104.7143
" />
<path d="M138.5527 104.7143
L138.6004 104.6667
" />
<path d="M138.6004 104.6667
L138.6242 104.6190
" />
</g><g transform="rotate(-90.000000 158.5000 106.5000)">
<text x="158.5000" y="106.7500"
transform="scale(-1 1) translate(-317.000000 0)"
textLength="1.1887" font-size="0.6667" lengthAdjust="spacingAndGlyphs"
text-anchor="middle" opacity="0">C3</text>
</g>
<g class="stroked-text"><desc>C3</desc>
<path d="M158.6837 106.4167
L158.7075 106.3929
" />
<path d="M158.7075 106.3929
L158.7313 106.3214
" />
<path d="M158.7313 106.3214
L158.7313 106.2738
" />
<path d="M158.7313 106.2738
L158.7075 106.2024
" />
<path d="M158.7075 106.2024
L158.6599 106.1548
" />
<path d="M158.6599 106.1548
L158.6123 106.1310
" />
<path d="M158.6123 106.1310
L158.5170 106.1071
" />
<path d="M158.5170 106.1071
L158.4456 106.1071
" />
<path d="M158.4456 106.1071
L158.3504 106.1310
" />
<path d="M158.3504 106.1310
L158.3027 106.1548
" />
<path d="M158.3027 106.1548
L158.2551 106.2024
" />
<path d="M158.2551 106.2024
L158.2313 106.2738
" />
<path d="M158.2313 106.2738
L158.2313 106.3214
" />
<path d="M158.2313 106.3214
L158.2551 106.3929
" />
<path d="M158.2551 106.3929
L158.2789 106.4167
" />
<path d="M158.2313 106.5833
L158.2313 106.8929
" />
<path d="M158.2313 106.8929
L158.4218 106.7262
" />
<path d="M158.4218 106.7262
L158.4218 106.7976
" />
<path d="M158.4218 106.7976
L158.4456 106.8452
" />
<path d="M158.4456 106.8452
L158.4694 106.8690
" />
<path d="M158.4694 106.8690
L158.5170 106.8929
" />
<path d="M158.5170 106.8929
L158.6361 106.8929
" />
<path d="M158.6361 106.8929
L158.6837 106.8690
" />
<path d="M158.6837 106.8690
L158.7075 106.8452
" />
<path d="M158.7075 106.8452
L158.7313 106.7976
" />
<path d="M158.7313 106.7976
L158.7313 106.6548
" />
<path d="M158.7313 106.6548
L158.7075 106.6071
" />
<path d="M158.7075 106.6071
L158.6837 106.5833
" />
</g></g>
<g style="fill:#000000; fill-opacity:0.0; 
stroke:#000000; stroke-width:0.1500; stroke-opacity:1; 
stroke-linecap:round; stroke-linejoin:round;">
<path d="M148.2500 92.6078
L148.2500 92.3922
" />
<path d="M148.7500 92.6078
L148.7500 92.3922
" />
<path d="M137.8594 107.1000
L138.1406 107.1000
" />
<path d="M137.8594 107.9000
L138.1406 107.9000
" />
<path d="M150.7250 92.6536
L150.7250 92.3464
" />
<path d="M151.2750 92.6536
L151.2750 92.3464
" />
<path d="M160.1000 93.6406
L160.1000 93.3594
" />
<path d="M160.9000 93.6406
L160.9000 93.3594
" />
<path d="M156.6000 106.6406
L156.6000 106.3594
" />
<path d="M157.4000 106.6406
L157.4000 106.3594
" />
<path d="M157.6000 93.6406
L157.6000 93.3594
" />
<path d="M158.4000 93.6406
L158.4000 93.3594
" />
<path d="M152.7250 92.6536
L152.7250 92.3464
" />
<path d="M153.2750 92.6536
L153.2750 92.3464
" />
<path d="M152.3464 106.7250
L152.6536 106.7250
" />
<path d="M152.3464 107.2750
L152.6536 107.2750
" />
<path d="M136.0000 102.9000
L138.0000 102.9000
" />
<path d="M137.0000 105.1000
L138.0000 105.1000
" />
</g>
<g style="fill:#000000; fill-opacity:0.0; 
stroke:#000000; stroke-width:0.3500; stroke-opacity:1; 
stroke-linecap:round; stroke-linejoin:round;">
</g>
<g style="fill:#000000; fill-opacity:1.0000; 
stroke:#000000; stroke-width:0.0000; stroke-opacity:1; 
stroke-linecap:round; stroke-linejoin:round;">
<circle cx="135.9500" cy="105.0500" r="0.1750" /> 
</g>
<g style="fill:#000000; fill-opacity:1.0000; 
stroke:#000000; stroke-width:0.5000; stroke-opacity:1; 
stroke-linecap:round; stroke-linejoin:round;">
</g>
<g style="fill:#000000; fill-opacity:0.0; 
stroke:#000000; stroke-width:0.5000; stroke-opacity:1; 
stroke-linecap:round; stroke-linejoin:round;">
<path d="M144.3000 92.2000
L144.3000 94.8000
" />
<path d="M142.2000 92.2000
L144.3000 92.2000
" />
<path d="M141.7000 92.7000
L142.2000 92.2000
" />
<path d="M141.7000 92.7000
L141.7000 94.3000
" />
<path d="M141.7000 94.3000
L142.2000 94.8000
" />
<path d="M142.2000 94.8000
L144.3000 94.8000
" />
</g>
<g style="fill:#000000; fill-opacity:0.0; 
stroke:#000000; stroke-width:0.1500; stroke-opacity:1; 
stroke-linecap:round; stroke-linejoin:round;">
<path d="M143.1536 103.2750
L142.8464 103.2750
" />
<path d="M143.1536 102.7250
L142.8464 102.7250
" />
</g>
<g style="fill:#000000; fill-opacity:0.0; 
stroke:#000000; stroke-width:0.5000; stroke-opacity:1; 
stroke-linecap:round; stroke-linejoin:round;">
<path d="M136.4250 101.2700
L138.3300 101.2700
" />
</g>
<g style="fill:#000000; fill-opacity:0.0; 
stroke:#000000; stroke-width:0.3000; stroke-opacity:1; 
stroke-linecap:round; stroke-linejoin:round;">
<path d="M137.0600 100.3810
L138.3300 100.3810
" />
<path d="M137.6950 100.3810
L137.6950 101.2700
" />
<path d="M137.6950 100.3810
L137.0600 99.7460
" />
<path d="M137.0600 99.7460
L138.3300 99.7460
" />
<path d="M137.6950 99.7460
L137.6950 98.7300
" />
<path d="M138.3300 99.7460
L137.6950 100.3810
" />
</g>
<g style="fill:#000000; fill-opacity:0.0; 
stroke:#000000; stroke-width:0.5000; stroke-opacity:1; 
stroke-linecap:round; stroke-linejoin:round;">
<path d="M136.4250 98.7300
L138.3300 98.7300
" />
<path d="M132.8250 102.4000
L136.4250 102.4000
" />
<path d="M136.4250 102.4000
L136.4250 97.6000
" />
<path d="M136.4250 97.6000
L132.8250 97.6000
" />
<path d="M132.8250 97.6000
L132.8250 102.4000
" />
</g>
<g style="fill:#000000; fill-opacity:0.0; 
stroke:#000000; stroke-width:0.3000; stroke-opacity:1; 
stroke-linecap:round; stroke-linejoin:round;">
<circle cx="138.3300" cy="101.2700" r="0.3500" /> 
</g>
<g style="fill:#000000; fill-opacity:0.0; 
stroke:#000000; stroke-width:0.1200; stroke-opacity:1; 
stroke-linecap:round; stroke-linejoin:round;">
<path d="M148.9000 107.8000
L148.9000 107.2000
" />
<path d="M148.2000 106.5000
L146.8000 106.5000
" />
<path d="M146.8000 108.5000
L148.2000 108.5000
" />
<path d="M146.1000 107.2000
L146.1000 107.8000
" />
<path d="M148.2000 108.5000 A0.7000 0.7000 0.0 0 0 148.9000 107.8000" />
<path d="M148.9000 107.2000 A0.7000 0.7000 0.0 0 0 148.2000 106.5000" />
<path d="M146.1000 107.8000 A0.7000 0.7000 0.0 0 0 146.8000 108.5000" />
<path d="M146.8000 106.5000 A0.7000 0.7000 0.0 0 0 146.1000 107.2000" />
</g>
<g style="fill:#000000; fill-opacity:0.0; 
stroke:#000000; stroke-width:0.1270; stroke-opacity:1; 
stroke-linecap:round; stroke-linejoin:round;">
<path d="M156.4500 101.5500
L156.4500 98.4500
" />
<path d="M159.5500 101.5500
L159.5500 98.4500
" />
</g>
<g style="fill:#000000; fill-opacity:0.0; 
stroke:#000000; stroke-width:0.2000; stroke-opacity:1; 
stroke-linecap:round; stroke-linejoin:round;">
<circle cx="159.4450" cy="102.0000" r="0.1000" /> 
</g>
<g style="fill:#000000; fill-opacity:0.0; 
stroke:#000000; stroke-width:0.1200; stroke-opacity:1; 
stroke-linecap:round; stroke-linejoin:round;">
<path d="M145.2400 103.8600
L145.4950 103.8600
" />
<path d="M155.5050 103.8600
L155.5050 105.6750
" />
<path d="M155.7600 103.8600
L155.5050 103.8600
" />
<path d="M145.2400 100.0000
L145.2400 103.8600
" />
<path d="M145.2400 100.0000
L145.2400 96.1400
" />
<path d="M155.7600 100.0000
L155.7600 103.8600
" />
<path d="M155.7600 100.0000
L155.7600 96.1400
" />
<path d="M145.2400 96.1400
L145.4950 96.1400
" />
<path d="M155.7600 96.1400
L155.5050 96.1400
" />
</g>
<g style="fill:#000000; fill-opacity:1.0000; 
stroke:#000000; stroke-width:0.0000; stroke-opacity:1; 
stroke-linecap:round; stroke-linejoin:round;">
<circle cx="156.0000" cy="104.7500" r="0.3000" /> 
</g>
<g style="fill:#000000; fill-opacity:1.0000; 
stroke:#000000; stroke-width:0.5000; stroke-opacity:1; 
stroke-linecap:round; stroke-linejoin:round;">
</g>
<g style="fill:#000000; fill-opacity:0.0; 
stroke:#000000; stroke-width:0.5000; stroke-opacity:1; 
stroke-linecap:round; stroke-linejoin:round;">
<path d="M144.3000 105.2000
L144.3000 107.8000
" />
<path d="M142.2000 105.2000
L144.3000 105.2000
" />
<path d="M141.7000 105.7000
L142.2000 105.2000
" />
<path d="M141.7000 105.7000
L141.7000 107.3000
" />
<path d="M141.7000 107.3000
L142.2000 107.8000
" />
<path d="M142.2000 107.8000
L144.3000 107.8000
" />
<path d="M166.8000 98.7000
L166.8000 101.3000
" />
<path d="M164.7000 98.7000
L166.8000 98.7000
" />
<path d="M164.2000 99.2000
L164.7000 98.7000
" />
<path d="M164.2000 99.2000
L164.2000 100.8000
" />
<path d="M164.2000 100.8000
L164.7000 101.3000
" />
<path d="M164.7000 101.3000
L166.8000 101.3000
" />
</g>
<g style="fill:#000000; fill-opacity:0.0; 
stroke:#000000; stroke-width:0.1500; stroke-opacity:1; 
stroke-linecap:round; stroke-linejoin:round;">
<path d="M140.3464 102.7250
L140.6536 102.7250
" />
<path d="M140.3464 103.2750
L140.6536 103.2750
" />
<path d="M138.8464 105.7250
L139.1536 105.7250
" />
<path d="M138.8464 106.2750
L139.1536 106.2750
" />
<path d="M147.2500 92.3922
L147.2500 92.6078
" />
<path d="M146.7500 92.3922
L146.7500 92.6078
" />
<path d="M143.7250 100.1536
L143.7250 99.8464
" />
<path d="M144.2750 100.1536
L144.2750 99.8464
" />
<path d="M162.4000 106.3594
L162.4000 106.6406
" />
<path d="M161.6000 106.3594
L161.6000 106.6406
" />
</g>
<g style="fill:#000000; fill-opacity:0.0; 
stroke:#000000; stroke-width:0.0500; stroke-opacity:1; 
stroke-linecap:round; stroke-linejoin:round;">
<path d="M139.1800 103.9800
L139.8200 103.9800
" />
<path d="M139.1800 105.0200
L139.1800 103.9800
" />
<path d="M139.8200 103.9800
L139.8200 105.0200
" />
<path d="M139.8200 105.0200
L139.1800 105.0200
" />
</g>
<g style="fill:#000000; fill-opacity:0.0; 
stroke:#000000; stroke-width:0.2500; stroke-opacity:1; 
stroke-linecap:round; stroke-linejoin:round;">
</g>
<g style="fill:#000000; fill-opacity:1.0000; 
stroke:#000000; stroke-width:0.0000; stroke-opacity:1; 
stroke-linecap:round; stroke-linejoin:round;">
<circle cx="139.9500" cy="105.1500" r="0.1250" /> 
</g>
<g style="fill:#000000; fill-opacity:1.0000; 
stroke:#000000; stroke-width:0.1500; stroke-opacity:1; 
stroke-linecap:round; stroke-linejoin:round;">
</g>
<g style="fill:#000000; fill-opacity:0.0; 
stroke:#000000; stroke-width:0.1500; stroke-opacity:1; 
stroke-linecap:round; stroke-linejoin:round;">
<path d="M159.9000 106.3594
L159.9000 106.6406
" />
<path d="M159.1000 106.3594
L159.1000 106.6406
" />
<g >
</g>
<g >
</g>
<g >
</g>
<g >
</g>
<g >
</g>
<g >
</g>
<g >
</g>
<g >
</g>
<g >
</g>
<g >
</g>
<g >
</g>
<g >
</g>
<g >
</g>
<g >
</g>
<g >
</g>
<g >
</g>
<g >
</g>
<g >
</g>
<g >
</g>
<g >
</g>
<g >
</g>
<g >
</g>
<g >
</g>
<g >
</g>
<g >
</g>
<g >
</g>
<g >
</g>
<g >
</g>
<g >
</g>
<g >
</g>
<g >
</g>
<g >
</g>
<g >
</g>
<g >
</g>
<g >
</g>
<g >
</g>
<g >
</g>
<g >
</g>
<g >
</g>
<g >
</g>
<g >
</g>
<g >
</g>
<g >
</g>
<g >
</g>
<g >
</g>
<g >
</g>
<g >
</g>
<g >
</g>
<g >
</g>
<g >
</g>
<g >
</g>
<g >
</g>
<g >
</g>
<g >
</g>
<g >
</g>
<g >
</g>
<g >
</g>
</g>
<g style="fill:#000000; fill-opacity:0.0; 
stroke:#000000; stroke-width:0.1500; stroke-opacity:1; 
stroke-linecap:round; stroke-linejoin:round;">
</g>
<g style="fill:#000000; fill-opacity:0.0; 
stroke:#000000; stroke-width:0.1000; stroke-opacity:1; 
stroke-linecap:round; stroke-linejoin:round;">
<path d="M132.0000 93.0000
L132.0000 107.0000
" />
<path d="M166.0000 109.0000 A2.0000 2.0000 0.0 0 0 168.0000 107.0000" />
<path d="M168.0000 93.0000 A2.0000 2.0000 0.0 0 0 166.0000 91.0000" />
<path d="M134.0000 91.0000
L166.0000 91.0000
" />
<path d="M134.0000 91.0000 A2.0000 2.0000 0.0 0 0 132.0000 93.0000" />
<path d="M168.0000 107.0000
L168.0000 93.0000
" />
<path d="M134.0000 109.0000
L166.0000 109.0000
" />
<path d="M132.0000 107.0000 A2.0000 2.0000 0.0 0 0 134.0000 109.0000" />
<g >
</g>
<g >
</g>
<g >
</g>
<g >
</g>
<g >
</g>
<g >
</g>
<g >
</g>
<g >
</g>
<g >
</g>
<g >
</g>
<g >
</g>
<g >
</g>
<g >
</g>
<g >
</g>
<g >
</g>
<g >
</g>
<g >
</g>
<g >
</g>
<g >
</g>
<g >
</g>
<g >
</g>
<g >
</g>
<g >
</g>
<g >
</g>
<g >
</g>
<g >
</g>
<g >
</g>
<g >
</g>
<g >
</g>
<g >
</g>
<g >
</g>
<g >
</g>
<g >
</g>
<g >
</g>
<g >
</g>
<g >
</g>
<g >
</g>
<g >
</g>
<g >
</g>
<g >
</g>
<g >
</g>
<g >
</g>
<g >
</g>
<g >
</g>
<g >
</g>
<g >
</g>
<g >
</g>
<g >
</g>
<g >
</g>
<g >
</g>
<g >
</g>
<g >
</g>
<g >
</g>
<g >
</g>
<g >
</g>
<g >
</g>
<g >
</g>
</g> 
</svg>
