<?xml version="1.0" standalone="no"?>
 <!DOCTYPE svg PUBLIC "-//W3C//DTD SVG 1.1//EN" 
 "http://www.w3.org/Graphics/SVG/1.1/DTD/svg11.dtd"> 
<svg
  xmlns:svg="http://www.w3.org/2000/svg"
  xmlns="http://www.w3.org/2000/svg"
  xmlns:xlink="http://www.w3.org/1999/xlink"
  version="1.1"
  width="297.0022mm" height="210.0072mm" viewBox="0.0000 0.0000 297.0022 210.0072">
<title>SVG Image created as wingbeat_detector-User_Drawings.svg date 2023/03/27 10:06:52 </title>
  <desc>Image generated by PCBNEW </desc>
<g style="fill:#000000; fill-opacity:1.0000;stroke:#000000; stroke-opacity:1.0000;
stroke-linecap:round; stroke-linejoin:round;"
 transform="translate(0 0) scale(1 1)">
</g>
<g style="fill:#000000; fill-opacity:0.0; 
stroke:#000000; stroke-width:0.0000; stroke-opacity:1; 
stroke-linecap:round; stroke-linejoin:round;">
</g>
<g style="fill:#000000; fill-opacity:0.0; 
stroke:#000000; stroke-width:0.1000; stroke-opacity:1; 
stroke-linecap:round; stroke-linejoin:round;">
<path d="M168.0000 93.0000 A2.0000 2.0000 0.0 0 0 166.0000 91.0000" />
<path d="M166.0000 109.0000 A2.0000 2.0000 0.0 0 0 168.0000 107.0000" />
<path d="M134.0000 91.0000
L166.0000 91.0000
" />
<path d="M132.0000 107.0000 A2.0000 2.0000 0.0 0 0 134.0000 109.0000" />
<path d="M134.0000 91.0000 A2.0000 2.0000 0.0 0 0 132.0000 93.0000" />
<path d="M132.0000 93.0000
L132.0000 107.0000
" />
<path d="M134.0000 109.0000
L166.0000 109.0000
" />
<path d="M168.0000 107.0000
L168.0000 93.0000
" />
</g>
<g style="fill:#000000; fill-opacity:0.0; 
stroke:#000000; stroke-width:0.1500; stroke-opacity:1; 
stroke-linecap:round; stroke-linejoin:round;">
<path d="M134.0000 96.0000
L134.0000 90.0000
" />
<path d="M131.0000 93.0000
L137.0000 93.0000
" />
<path d="M166.0000 110.0000
L166.0000 104.0000
" />
<path d="M163.0000 107.0000
L169.0000 107.0000
" />
<path d="M134.0000 110.0000
L134.0000 104.0000
" />
<path d="M131.0000 107.0000
L137.0000 107.0000
" />
<path d="M169.0000 100.0000
L131.0000 100.0000
" />
<path d="M150.0000 119.0000
L150.0000 81.0000
" />
<path d="M166.0000 96.0000
L166.0000 90.0000
" />
<path d="M163.0000 93.0000
L169.0000 93.0000
" />
<text x="182.6083" y="111.6083"
textLength="6.3179" font-size="1.3333" lengthAdjust="spacingAndGlyphs"
text-anchor="middle" opacity="0">R 2 mm</text>
<g class="stroked-text"><desc>R 2 mm</desc>
<path d="M180.3464 111.5709
L180.0131 111.0947
" />
<path d="M179.7750 111.5709
L179.7750 110.5709
" />
<path d="M179.7750 110.5709
L180.1559 110.5709
" />
<path d="M180.1559 110.5709
L180.2511 110.6185
" />
<path d="M180.2511 110.6185
L180.2988 110.6661
" />
<path d="M180.2988 110.6661
L180.3464 110.7614
" />
<path d="M180.3464 110.7614
L180.3464 110.9042
" />
<path d="M180.3464 110.9042
L180.2988 110.9995
" />
<path d="M180.2988 110.9995
L180.2511 111.0471
" />
<path d="M180.2511 111.0471
L180.1559 111.0947
" />
<path d="M180.1559 111.0947
L179.7750 111.0947
" />
<path d="M181.4892 110.6661
L181.5369 110.6185
" />
<path d="M181.5369 110.6185
L181.6321 110.5709
" />
<path d="M181.6321 110.5709
L181.8702 110.5709
" />
<path d="M181.8702 110.5709
L181.9654 110.6185
" />
<path d="M181.9654 110.6185
L182.0131 110.6661
" />
<path d="M182.0131 110.6661
L182.0607 110.7614
" />
<path d="M182.0607 110.7614
L182.0607 110.8566
" />
<path d="M182.0607 110.8566
L182.0131 110.9995
" />
<path d="M182.0131 110.9995
L181.4416 111.5709
" />
<path d="M181.4416 111.5709
L182.0607 111.5709
" />
<path d="M183.2511 111.5709
L183.2511 110.9042
" />
<path d="M183.2511 110.9995
L183.2988 110.9519
" />
<path d="M183.2988 110.9519
L183.3940 110.9042
" />
<path d="M183.3940 110.9042
L183.5369 110.9042
" />
<path d="M183.5369 110.9042
L183.6321 110.9519
" />
<path d="M183.6321 110.9519
L183.6797 111.0471
" />
<path d="M183.6797 111.0471
L183.6797 111.5709
" />
<path d="M183.6797 111.0471
L183.7273 110.9519
" />
<path d="M183.7273 110.9519
L183.8226 110.9042
" />
<path d="M183.8226 110.9042
L183.9654 110.9042
" />
<path d="M183.9654 110.9042
L184.0607 110.9519
" />
<path d="M184.0607 110.9519
L184.1083 111.0471
" />
<path d="M184.1083 111.0471
L184.1083 111.5709
" />
<path d="M184.5845 111.5709
L184.5845 110.9042
" />
<path d="M184.5845 110.9995
L184.6321 110.9519
" />
<path d="M184.6321 110.9519
L184.7273 110.9042
" />
<path d="M184.7273 110.9042
L184.8702 110.9042
" />
<path d="M184.8702 110.9042
L184.9654 110.9519
" />
<path d="M184.9654 110.9519
L185.0131 111.0471
" />
<path d="M185.0131 111.0471
L185.0131 111.5709
" />
<path d="M185.0131 111.0471
L185.0607 110.9519
" />
<path d="M185.0607 110.9519
L185.1559 110.9042
" />
<path d="M185.1559 110.9042
L185.2988 110.9042
" />
<path d="M185.2988 110.9042
L185.3940 110.9519
" />
<path d="M185.3940 110.9519
L185.4416 111.0471
" />
<path d="M185.4416 111.0471
L185.4416 111.5709
" />
</g><path d="M166.0000 105.7500
L166.0000 108.2500
" />
<path d="M167.2500 107.0000
L164.7500 107.0000
" />
<path d="M167.4142 108.4142
L170.1083 111.1083
" />
<path d="M167.4142 108.4142
L168.6064 108.7901
" />
<path d="M167.4142 108.4142
L167.7901 109.6064
" />
<path d="M170.1083 111.1083
L178.9494 111.1083
" />
<text x="141.0000" y="87.0239"
textLength="5.5083" font-size="1.3333" lengthAdjust="spacingAndGlyphs"
text-anchor="middle" opacity="0">18 mm</text>
<g class="stroked-text"><desc>18 mm</desc>
<path d="M139.0952 86.9866
L138.5238 86.9866
" />
<path d="M138.8095 86.9866
L138.8095 85.9866
" />
<path d="M138.8095 85.9866
L138.7143 86.1294
" />
<path d="M138.7143 86.1294
L138.6190 86.2247
" />
<path d="M138.6190 86.2247
L138.5238 86.2723
" />
<path d="M139.6667 86.4151
L139.5714 86.3675
" />
<path d="M139.5714 86.3675
L139.5238 86.3199
" />
<path d="M139.5238 86.3199
L139.4762 86.2247
" />
<path d="M139.4762 86.2247
L139.4762 86.1770
" />
<path d="M139.4762 86.1770
L139.5238 86.0818
" />
<path d="M139.5238 86.0818
L139.5714 86.0342
" />
<path d="M139.5714 86.0342
L139.6667 85.9866
" />
<path d="M139.6667 85.9866
L139.8571 85.9866
" />
<path d="M139.8571 85.9866
L139.9524 86.0342
" />
<path d="M139.9524 86.0342
L140.0000 86.0818
" />
<path d="M140.0000 86.0818
L140.0476 86.1770
" />
<path d="M140.0476 86.1770
L140.0476 86.2247
" />
<path d="M140.0476 86.2247
L140.0000 86.3199
" />
<path d="M140.0000 86.3199
L139.9524 86.3675
" />
<path d="M139.9524 86.3675
L139.8571 86.4151
" />
<path d="M139.8571 86.4151
L139.6667 86.4151
" />
<path d="M139.6667 86.4151
L139.5714 86.4628
" />
<path d="M139.5714 86.4628
L139.5238 86.5104
" />
<path d="M139.5238 86.5104
L139.4762 86.6056
" />
<path d="M139.4762 86.6056
L139.4762 86.7961
" />
<path d="M139.4762 86.7961
L139.5238 86.8913
" />
<path d="M139.5238 86.8913
L139.5714 86.9389
" />
<path d="M139.5714 86.9389
L139.6667 86.9866
" />
<path d="M139.6667 86.9866
L139.8571 86.9866
" />
<path d="M139.8571 86.9866
L139.9524 86.9389
" />
<path d="M139.9524 86.9389
L140.0000 86.8913
" />
<path d="M140.0000 86.8913
L140.0476 86.7961
" />
<path d="M140.0476 86.7961
L140.0476 86.6056
" />
<path d="M140.0476 86.6056
L140.0000 86.5104
" />
<path d="M140.0000 86.5104
L139.9524 86.4628
" />
<path d="M139.9524 86.4628
L139.8571 86.4151
" />
<path d="M141.2381 86.9866
L141.2381 86.3199
" />
<path d="M141.2381 86.4151
L141.2857 86.3675
" />
<path d="M141.2857 86.3675
L141.3810 86.3199
" />
<path d="M141.3810 86.3199
L141.5238 86.3199
" />
<path d="M141.5238 86.3199
L141.6190 86.3675
" />
<path d="M141.6190 86.3675
L141.6667 86.4628
" />
<path d="M141.6667 86.4628
L141.6667 86.9866
" />
<path d="M141.6667 86.4628
L141.7143 86.3675
" />
<path d="M141.7143 86.3675
L141.8095 86.3199
" />
<path d="M141.8095 86.3199
L141.9524 86.3199
" />
<path d="M141.9524 86.3199
L142.0476 86.3675
" />
<path d="M142.0476 86.3675
L142.0952 86.4628
" />
<path d="M142.0952 86.4628
L142.0952 86.9866
" />
<path d="M142.5714 86.9866
L142.5714 86.3199
" />
<path d="M142.5714 86.4151
L142.6190 86.3675
" />
<path d="M142.6190 86.3675
L142.7143 86.3199
" />
<path d="M142.7143 86.3199
L142.8571 86.3199
" />
<path d="M142.8571 86.3199
L142.9524 86.3675
" />
<path d="M142.9524 86.3675
L143.0000 86.4628
" />
<path d="M143.0000 86.4628
L143.0000 86.9866
" />
<path d="M143.0000 86.4628
L143.0476 86.3675
" />
<path d="M143.0476 86.3675
L143.1429 86.3199
" />
<path d="M143.1429 86.3199
L143.2857 86.3199
" />
<path d="M143.2857 86.3199
L143.3810 86.3675
" />
<path d="M143.3810 86.3675
L143.4286 86.4628
" />
<path d="M143.4286 86.4628
L143.4286 86.9866
" />
</g><path d="M150.0000 99.5000
L150.0000 87.0875
" />
<path d="M132.0000 87.0875
L132.0000 94.5000
" />
<path d="M150.0000 87.6739
L132.0000 87.6739
" />
<path d="M150.0000 87.6739
L132.0000 87.6739
" />
<path d="M150.0000 87.6739
L148.8912 88.2511
" />
<path d="M150.0000 87.6739
L148.8912 87.0968
" />
<path d="M132.0000 87.6739
L133.1088 87.0968
" />
<path d="M132.0000 87.6739
L133.1088 88.2511
" />
<text x="158.0000" y="87.0239"
textLength="5.5083" font-size="1.3333" lengthAdjust="spacingAndGlyphs"
text-anchor="middle" opacity="0">16 mm</text>
<g class="stroked-text"><desc>16 mm</desc>
<path d="M156.0952 86.9866
L155.5238 86.9866
" />
<path d="M155.8095 86.9866
L155.8095 85.9866
" />
<path d="M155.8095 85.9866
L155.7143 86.1294
" />
<path d="M155.7143 86.1294
L155.6190 86.2247
" />
<path d="M155.6190 86.2247
L155.5238 86.2723
" />
<path d="M156.9524 85.9866
L156.7619 85.9866
" />
<path d="M156.7619 85.9866
L156.6667 86.0342
" />
<path d="M156.6667 86.0342
L156.6190 86.0818
" />
<path d="M156.6190 86.0818
L156.5238 86.2247
" />
<path d="M156.5238 86.2247
L156.4762 86.4151
" />
<path d="M156.4762 86.4151
L156.4762 86.7961
" />
<path d="M156.4762 86.7961
L156.5238 86.8913
" />
<path d="M156.5238 86.8913
L156.5714 86.9389
" />
<path d="M156.5714 86.9389
L156.6667 86.9866
" />
<path d="M156.6667 86.9866
L156.8571 86.9866
" />
<path d="M156.8571 86.9866
L156.9524 86.9389
" />
<path d="M156.9524 86.9389
L157.0000 86.8913
" />
<path d="M157.0000 86.8913
L157.0476 86.7961
" />
<path d="M157.0476 86.7961
L157.0476 86.5580
" />
<path d="M157.0476 86.5580
L157.0000 86.4628
" />
<path d="M157.0000 86.4628
L156.9524 86.4151
" />
<path d="M156.9524 86.4151
L156.8571 86.3675
" />
<path d="M156.8571 86.3675
L156.6667 86.3675
" />
<path d="M156.6667 86.3675
L156.5714 86.4151
" />
<path d="M156.5714 86.4151
L156.5238 86.4628
" />
<path d="M156.5238 86.4628
L156.4762 86.5580
" />
<path d="M158.2381 86.9866
L158.2381 86.3199
" />
<path d="M158.2381 86.4151
L158.2857 86.3675
" />
<path d="M158.2857 86.3675
L158.3810 86.3199
" />
<path d="M158.3810 86.3199
L158.5238 86.3199
" />
<path d="M158.5238 86.3199
L158.6190 86.3675
" />
<path d="M158.6190 86.3675
L158.6667 86.4628
" />
<path d="M158.6667 86.4628
L158.6667 86.9866
" />
<path d="M158.6667 86.4628
L158.7143 86.3675
" />
<path d="M158.7143 86.3675
L158.8095 86.3199
" />
<path d="M158.8095 86.3199
L158.9524 86.3199
" />
<path d="M158.9524 86.3199
L159.0476 86.3675
" />
<path d="M159.0476 86.3675
L159.0952 86.4628
" />
<path d="M159.0952 86.4628
L159.0952 86.9866
" />
<path d="M159.5714 86.9866
L159.5714 86.3199
" />
<path d="M159.5714 86.4151
L159.6190 86.3675
" />
<path d="M159.6190 86.3675
L159.7143 86.3199
" />
<path d="M159.7143 86.3199
L159.8571 86.3199
" />
<path d="M159.8571 86.3199
L159.9524 86.3675
" />
<path d="M159.9524 86.3675
L160.0000 86.4628
" />
<path d="M160.0000 86.4628
L160.0000 86.9866
" />
<path d="M160.0000 86.4628
L160.0476 86.3675
" />
<path d="M160.0476 86.3675
L160.1429 86.3199
" />
<path d="M160.1429 86.3199
L160.2857 86.3199
" />
<path d="M160.2857 86.3199
L160.3810 86.3675
" />
<path d="M160.3810 86.3675
L160.4286 86.4628
" />
<path d="M160.4286 86.4628
L160.4286 86.9866
" />
</g><path d="M150.0000 99.5000
L150.0000 87.0875
" />
<path d="M166.0000 87.0875
L166.0000 92.5000
" />
<path d="M150.0000 87.6739
L166.0000 87.6739
" />
<path d="M150.0000 87.6739
L166.0000 87.6739
" />
<path d="M150.0000 87.6739
L151.1088 87.0968
" />
<path d="M150.0000 87.6739
L151.1088 88.2511
" />
<path d="M166.0000 87.6739
L164.8912 88.2511
" />
<path d="M166.0000 87.6739
L164.8912 87.0968
" />
<text x="171.0000" y="114.5000"
textLength="6.9369" font-size="1.3333" lengthAdjust="spacingAndGlyphs"
text-anchor="middle" opacity="0">2.26 mm</text>
<g class="stroked-text"><desc>2.26 mm</desc>
<path d="M167.8095 113.5579
L167.8571 113.5102
" />
<path d="M167.8571 113.5102
L167.9524 113.4626
" />
<path d="M167.9524 113.4626
L168.1905 113.4626
" />
<path d="M168.1905 113.4626
L168.2857 113.5102
" />
<path d="M168.2857 113.5102
L168.3333 113.5579
" />
<path d="M168.3333 113.5579
L168.3810 113.6531
" />
<path d="M168.3810 113.6531
L168.3810 113.7483
" />
<path d="M168.3810 113.7483
L168.3333 113.8912
" />
<path d="M168.3333 113.8912
L167.7619 114.4626
" />
<path d="M167.7619 114.4626
L168.3810 114.4626
" />
<path d="M168.8095 114.3674
L168.8571 114.4150
" />
<path d="M168.8571 114.4150
L168.8095 114.4626
" />
<path d="M168.8095 114.4626
L168.7619 114.4150
" />
<path d="M168.7619 114.4150
L168.8095 114.3674
" />
<path d="M168.8095 114.3674
L168.8095 114.4626
" />
<path d="M169.2381 113.5579
L169.2857 113.5102
" />
<path d="M169.2857 113.5102
L169.3810 113.4626
" />
<path d="M169.3810 113.4626
L169.6190 113.4626
" />
<path d="M169.6190 113.4626
L169.7143 113.5102
" />
<path d="M169.7143 113.5102
L169.7619 113.5579
" />
<path d="M169.7619 113.5579
L169.8095 113.6531
" />
<path d="M169.8095 113.6531
L169.8095 113.7483
" />
<path d="M169.8095 113.7483
L169.7619 113.8912
" />
<path d="M169.7619 113.8912
L169.1905 114.4626
" />
<path d="M169.1905 114.4626
L169.8095 114.4626
" />
<path d="M170.6667 113.4626
L170.4762 113.4626
" />
<path d="M170.4762 113.4626
L170.3810 113.5102
" />
<path d="M170.3810 113.5102
L170.3333 113.5579
" />
<path d="M170.3333 113.5579
L170.2381 113.7007
" />
<path d="M170.2381 113.7007
L170.1905 113.8912
" />
<path d="M170.1905 113.8912
L170.1905 114.2721
" />
<path d="M170.1905 114.2721
L170.2381 114.3674
" />
<path d="M170.2381 114.3674
L170.2857 114.4150
" />
<path d="M170.2857 114.4150
L170.3810 114.4626
" />
<path d="M170.3810 114.4626
L170.5714 114.4626
" />
<path d="M170.5714 114.4626
L170.6667 114.4150
" />
<path d="M170.6667 114.4150
L170.7143 114.3674
" />
<path d="M170.7143 114.3674
L170.7619 114.2721
" />
<path d="M170.7619 114.2721
L170.7619 114.0340
" />
<path d="M170.7619 114.0340
L170.7143 113.9388
" />
<path d="M170.7143 113.9388
L170.6667 113.8912
" />
<path d="M170.6667 113.8912
L170.5714 113.8436
" />
<path d="M170.5714 113.8436
L170.3810 113.8436
" />
<path d="M170.3810 113.8436
L170.2857 113.8912
" />
<path d="M170.2857 113.8912
L170.2381 113.9388
" />
<path d="M170.2381 113.9388
L170.1905 114.0340
" />
<path d="M171.9524 114.4626
L171.9524 113.7960
" />
<path d="M171.9524 113.8912
L172.0000 113.8436
" />
<path d="M172.0000 113.8436
L172.0952 113.7960
" />
<path d="M172.0952 113.7960
L172.2381 113.7960
" />
<path d="M172.2381 113.7960
L172.3333 113.8436
" />
<path d="M172.3333 113.8436
L172.3810 113.9388
" />
<path d="M172.3810 113.9388
L172.3810 114.4626
" />
<path d="M172.3810 113.9388
L172.4286 113.8436
" />
<path d="M172.4286 113.8436
L172.5238 113.7960
" />
<path d="M172.5238 113.7960
L172.6667 113.7960
" />
<path d="M172.6667 113.7960
L172.7619 113.8436
" />
<path d="M172.7619 113.8436
L172.8095 113.9388
" />
<path d="M172.8095 113.9388
L172.8095 114.4626
" />
<path d="M173.2857 114.4626
L173.2857 113.7960
" />
<path d="M173.2857 113.8912
L173.3333 113.8436
" />
<path d="M173.3333 113.8436
L173.4286 113.7960
" />
<path d="M173.4286 113.7960
L173.5714 113.7960
" />
<path d="M173.5714 113.7960
L173.6667 113.8436
" />
<path d="M173.6667 113.8436
L173.7143 113.9388
" />
<path d="M173.7143 113.9388
L173.7143 114.4626
" />
<path d="M173.7143 113.9388
L173.7619 113.8436
" />
<path d="M173.7619 113.8436
L173.8571 113.7960
" />
<path d="M173.8571 113.7960
L174.0000 113.7960
" />
<path d="M174.0000 113.7960
L174.0952 113.8436
" />
<path d="M174.0952 113.8436
L174.1429 113.9388
" />
<path d="M174.1429 113.9388
L174.1429 114.4626
" />
</g><path d="M167.1300 108.5000
L167.1300 114.5864
" />
<path d="M164.8700 114.5864
L164.8700 108.5000
" />
<path d="M167.0315 114.0000
L164.8700 114.0000
" />
<path d="M167.1300 114.0000
L166.6865 114.2309
" />
<path d="M167.1300 114.0000
L166.6865 113.7691
" />
<path d="M164.8700 114.0000
L165.3135 113.7691
" />
<path d="M164.8700 114.0000
L165.3135 114.2309
" />
<text x="150.0000" y="79.3500"
textLength="5.5083" font-size="1.3333" lengthAdjust="spacingAndGlyphs"
text-anchor="middle" opacity="0">36 mm</text>
<g class="stroked-text"><desc>36 mm</desc>
<path d="M147.4762 78.3126
L148.0952 78.3126
" />
<path d="M148.0952 78.3126
L147.7619 78.6936
" />
<path d="M147.7619 78.6936
L147.9048 78.6936
" />
<path d="M147.9048 78.6936
L148.0000 78.7412
" />
<path d="M148.0000 78.7412
L148.0476 78.7888
" />
<path d="M148.0476 78.7888
L148.0952 78.8840
" />
<path d="M148.0952 78.8840
L148.0952 79.1221
" />
<path d="M148.0952 79.1221
L148.0476 79.2174
" />
<path d="M148.0476 79.2174
L148.0000 79.2650
" />
<path d="M148.0000 79.2650
L147.9048 79.3126
" />
<path d="M147.9048 79.3126
L147.6190 79.3126
" />
<path d="M147.6190 79.3126
L147.5238 79.2650
" />
<path d="M147.5238 79.2650
L147.4762 79.2174
" />
<path d="M148.9524 78.3126
L148.7619 78.3126
" />
<path d="M148.7619 78.3126
L148.6667 78.3602
" />
<path d="M148.6667 78.3602
L148.6190 78.4079
" />
<path d="M148.6190 78.4079
L148.5238 78.5507
" />
<path d="M148.5238 78.5507
L148.4762 78.7412
" />
<path d="M148.4762 78.7412
L148.4762 79.1221
" />
<path d="M148.4762 79.1221
L148.5238 79.2174
" />
<path d="M148.5238 79.2174
L148.5714 79.2650
" />
<path d="M148.5714 79.2650
L148.6667 79.3126
" />
<path d="M148.6667 79.3126
L148.8571 79.3126
" />
<path d="M148.8571 79.3126
L148.9524 79.2650
" />
<path d="M148.9524 79.2650
L149.0000 79.2174
" />
<path d="M149.0000 79.2174
L149.0476 79.1221
" />
<path d="M149.0476 79.1221
L149.0476 78.8840
" />
<path d="M149.0476 78.8840
L149.0000 78.7888
" />
<path d="M149.0000 78.7888
L148.9524 78.7412
" />
<path d="M148.9524 78.7412
L148.8571 78.6936
" />
<path d="M148.8571 78.6936
L148.6667 78.6936
" />
<path d="M148.6667 78.6936
L148.5714 78.7412
" />
<path d="M148.5714 78.7412
L148.5238 78.7888
" />
<path d="M148.5238 78.7888
L148.4762 78.8840
" />
<path d="M150.2381 79.3126
L150.2381 78.6460
" />
<path d="M150.2381 78.7412
L150.2857 78.6936
" />
<path d="M150.2857 78.6936
L150.3810 78.6460
" />
<path d="M150.3810 78.6460
L150.5238 78.6460
" />
<path d="M150.5238 78.6460
L150.6190 78.6936
" />
<path d="M150.6190 78.6936
L150.6667 78.7888
" />
<path d="M150.6667 78.7888
L150.6667 79.3126
" />
<path d="M150.6667 78.7888
L150.7143 78.6936
" />
<path d="M150.7143 78.6936
L150.8095 78.6460
" />
<path d="M150.8095 78.6460
L150.9524 78.6460
" />
<path d="M150.9524 78.6460
L151.0476 78.6936
" />
<path d="M151.0476 78.6936
L151.0952 78.7888
" />
<path d="M151.0952 78.7888
L151.0952 79.3126
" />
<path d="M151.5714 79.3126
L151.5714 78.6460
" />
<path d="M151.5714 78.7412
L151.6190 78.6936
" />
<path d="M151.6190 78.6936
L151.7143 78.6460
" />
<path d="M151.7143 78.6460
L151.8571 78.6460
" />
<path d="M151.8571 78.6460
L151.9524 78.6936
" />
<path d="M151.9524 78.6936
L152.0000 78.7888
" />
<path d="M152.0000 78.7888
L152.0000 79.3126
" />
<path d="M152.0000 78.7888
L152.0476 78.6936
" />
<path d="M152.0476 78.6936
L152.1429 78.6460
" />
<path d="M152.1429 78.6460
L152.2857 78.6460
" />
<path d="M152.2857 78.6460
L152.3810 78.6936
" />
<path d="M152.3810 78.6936
L152.4286 78.7888
" />
<path d="M152.4286 78.7888
L152.4286 79.3126
" />
</g><path d="M168.0000 97.5000
L168.0000 79.4136
" />
<path d="M132.0000 79.4136
L132.0000 97.5000
" />
<path d="M168.0000 80.0000
L132.0000 80.0000
" />
<path d="M168.0000 80.0000
L132.0000 80.0000
" />
<path d="M168.0000 80.0000
L166.8912 80.5772
" />
<path d="M168.0000 80.0000
L166.8912 79.4228
" />
<path d="M132.0000 80.0000
L133.1088 79.4228
" />
<path d="M132.0000 80.0000
L133.1088 80.5772
" />
<text x="150.0000" y="120.3500"
textLength="5.5083" font-size="1.3333" lengthAdjust="spacingAndGlyphs"
text-anchor="middle" opacity="0">32 mm</text>
<g class="stroked-text"><desc>32 mm</desc>
<path d="M147.4762 119.3126
L148.0952 119.3126
" />
<path d="M148.0952 119.3126
L147.7619 119.6936
" />
<path d="M147.7619 119.6936
L147.9048 119.6936
" />
<path d="M147.9048 119.6936
L148.0000 119.7412
" />
<path d="M148.0000 119.7412
L148.0476 119.7888
" />
<path d="M148.0476 119.7888
L148.0952 119.8840
" />
<path d="M148.0952 119.8840
L148.0952 120.1221
" />
<path d="M148.0952 120.1221
L148.0476 120.2174
" />
<path d="M148.0476 120.2174
L148.0000 120.2650
" />
<path d="M148.0000 120.2650
L147.9048 120.3126
" />
<path d="M147.9048 120.3126
L147.6190 120.3126
" />
<path d="M147.6190 120.3126
L147.5238 120.2650
" />
<path d="M147.5238 120.2650
L147.4762 120.2174
" />
<path d="M148.4762 119.4079
L148.5238 119.3602
" />
<path d="M148.5238 119.3602
L148.6190 119.3126
" />
<path d="M148.6190 119.3126
L148.8571 119.3126
" />
<path d="M148.8571 119.3126
L148.9524 119.3602
" />
<path d="M148.9524 119.3602
L149.0000 119.4079
" />
<path d="M149.0000 119.4079
L149.0476 119.5031
" />
<path d="M149.0476 119.5031
L149.0476 119.5983
" />
<path d="M149.0476 119.5983
L149.0000 119.7412
" />
<path d="M149.0000 119.7412
L148.4286 120.3126
" />
<path d="M148.4286 120.3126
L149.0476 120.3126
" />
<path d="M150.2381 120.3126
L150.2381 119.6460
" />
<path d="M150.2381 119.7412
L150.2857 119.6936
" />
<path d="M150.2857 119.6936
L150.3810 119.6460
" />
<path d="M150.3810 119.6460
L150.5238 119.6460
" />
<path d="M150.5238 119.6460
L150.6190 119.6936
" />
<path d="M150.6190 119.6936
L150.6667 119.7888
" />
<path d="M150.6667 119.7888
L150.6667 120.3126
" />
<path d="M150.6667 119.7888
L150.7143 119.6936
" />
<path d="M150.7143 119.6936
L150.8095 119.6460
" />
<path d="M150.8095 119.6460
L150.9524 119.6460
" />
<path d="M150.9524 119.6460
L151.0476 119.6936
" />
<path d="M151.0476 119.6936
L151.0952 119.7888
" />
<path d="M151.0952 119.7888
L151.0952 120.3126
" />
<path d="M151.5714 120.3126
L151.5714 119.6460
" />
<path d="M151.5714 119.7412
L151.6190 119.6936
" />
<path d="M151.6190 119.6936
L151.7143 119.6460
" />
<path d="M151.7143 119.6460
L151.8571 119.6460
" />
<path d="M151.8571 119.6460
L151.9524 119.6936
" />
<path d="M151.9524 119.6936
L152.0000 119.7888
" />
<path d="M152.0000 119.7888
L152.0000 120.3126
" />
<path d="M152.0000 119.7888
L152.0476 119.6936
" />
<path d="M152.0476 119.6936
L152.1429 119.6460
" />
<path d="M152.1429 119.6460
L152.2857 119.6460
" />
<path d="M152.2857 119.6460
L152.3810 119.6936
" />
<path d="M152.3810 119.6936
L152.4286 119.7888
" />
<path d="M152.4286 119.7888
L152.4286 120.3126
" />
</g><path d="M166.0000 107.5000
L166.0000 121.5864
" />
<path d="M134.0000 121.5864
L134.0000 107.5000
" />
<path d="M166.0000 121.0000
L134.0000 121.0000
" />
<path d="M166.0000 121.0000
L134.0000 121.0000
" />
<path d="M166.0000 121.0000
L164.8912 121.5772
" />
<path d="M166.0000 121.0000
L164.8912 120.4228
" />
<path d="M134.0000 121.0000
L135.1088 120.4228
" />
<path d="M134.0000 121.0000
L135.1088 121.5772
" />
<g transform="rotate(-90.000000 126.0000 100.0000)">
<text x="126.0000" y="100.5000"
textLength="5.5083" font-size="1.3333" lengthAdjust="spacingAndGlyphs"
text-anchor="middle" opacity="0">18 mm</text>
</g>
<g class="stroked-text"><desc>18 mm</desc>
<path d="M126.4626 101.9048
L126.4626 102.4762
" />
<path d="M126.4626 102.1905
L125.4626 102.1905
" />
<path d="M125.4626 102.1905
L125.6055 102.2857
" />
<path d="M125.6055 102.2857
L125.7007 102.3810
" />
<path d="M125.7007 102.3810
L125.7483 102.4762
" />
<path d="M125.8912 101.3333
L125.8436 101.4286
" />
<path d="M125.8436 101.4286
L125.7960 101.4762
" />
<path d="M125.7960 101.4762
L125.7007 101.5238
" />
<path d="M125.7007 101.5238
L125.6531 101.5238
" />
<path d="M125.6531 101.5238
L125.5579 101.4762
" />
<path d="M125.5579 101.4762
L125.5102 101.4286
" />
<path d="M125.5102 101.4286
L125.4626 101.3333
" />
<path d="M125.4626 101.3333
L125.4626 101.1429
" />
<path d="M125.4626 101.1429
L125.5102 101.0476
" />
<path d="M125.5102 101.0476
L125.5579 101.0000
" />
<path d="M125.5579 101.0000
L125.6531 100.9524
" />
<path d="M125.6531 100.9524
L125.7007 100.9524
" />
<path d="M125.7007 100.9524
L125.7960 101.0000
" />
<path d="M125.7960 101.0000
L125.8436 101.0476
" />
<path d="M125.8436 101.0476
L125.8912 101.1429
" />
<path d="M125.8912 101.1429
L125.8912 101.3333
" />
<path d="M125.8912 101.3333
L125.9388 101.4286
" />
<path d="M125.9388 101.4286
L125.9864 101.4762
" />
<path d="M125.9864 101.4762
L126.0817 101.5238
" />
<path d="M126.0817 101.5238
L126.2721 101.5238
" />
<path d="M126.2721 101.5238
L126.3674 101.4762
" />
<path d="M126.3674 101.4762
L126.4150 101.4286
" />
<path d="M126.4150 101.4286
L126.4626 101.3333
" />
<path d="M126.4626 101.3333
L126.4626 101.1429
" />
<path d="M126.4626 101.1429
L126.4150 101.0476
" />
<path d="M126.4150 101.0476
L126.3674 101.0000
" />
<path d="M126.3674 101.0000
L126.2721 100.9524
" />
<path d="M126.2721 100.9524
L126.0817 100.9524
" />
<path d="M126.0817 100.9524
L125.9864 101.0000
" />
<path d="M125.9864 101.0000
L125.9388 101.0476
" />
<path d="M125.9388 101.0476
L125.8912 101.1429
" />
<path d="M126.4626 99.7619
L125.7960 99.7619
" />
<path d="M125.8912 99.7619
L125.8436 99.7143
" />
<path d="M125.8436 99.7143
L125.7960 99.6190
" />
<path d="M125.7960 99.6190
L125.7960 99.4762
" />
<path d="M125.7960 99.4762
L125.8436 99.3810
" />
<path d="M125.8436 99.3810
L125.9388 99.3333
" />
<path d="M125.9388 99.3333
L126.4626 99.3333
" />
<path d="M125.9388 99.3333
L125.8436 99.2857
" />
<path d="M125.8436 99.2857
L125.7960 99.1905
" />
<path d="M125.7960 99.1905
L125.7960 99.0476
" />
<path d="M125.7960 99.0476
L125.8436 98.9524
" />
<path d="M125.8436 98.9524
L125.9388 98.9048
" />
<path d="M125.9388 98.9048
L126.4626 98.9048
" />
<path d="M126.4626 98.4286
L125.7960 98.4286
" />
<path d="M125.8912 98.4286
L125.8436 98.3810
" />
<path d="M125.8436 98.3810
L125.7960 98.2857
" />
<path d="M125.7960 98.2857
L125.7960 98.1429
" />
<path d="M125.7960 98.1429
L125.8436 98.0476
" />
<path d="M125.8436 98.0476
L125.9388 98.0000
" />
<path d="M125.9388 98.0000
L126.4626 98.0000
" />
<path d="M125.9388 98.0000
L125.8436 97.9524
" />
<path d="M125.8436 97.9524
L125.7960 97.8571
" />
<path d="M125.7960 97.8571
L125.7960 97.7143
" />
<path d="M125.7960 97.7143
L125.8436 97.6190
" />
<path d="M125.8436 97.6190
L125.9388 97.5714
" />
<path d="M125.9388 97.5714
L126.4626 97.5714
" />
</g><path d="M162.5051 91.0000
L126.4136 91.0000
" />
<path d="M126.4136 109.0000
L161.5051 109.0000
" />
<path d="M127.0000 91.0000
L127.0000 109.0000
" />
<path d="M127.0000 91.0000
L127.0000 109.0000
" />
<path d="M127.0000 91.0000
L127.5772 92.1088
" />
<path d="M127.0000 91.0000
L126.4228 92.1088
" />
<path d="M127.0000 109.0000
L126.4228 107.8912
" />
<path d="M127.0000 109.0000
L127.5772 107.8912
" />
<g transform="rotate(-90.000000 128.7119 96.5000)">
<text x="128.7119" y="97.0000"
textLength="4.5560" font-size="1.3333" lengthAdjust="spacingAndGlyphs"
text-anchor="middle" opacity="0">7 mm</text>
</g>
<g class="stroked-text"><desc>7 mm</desc>
<path d="M128.1746 98.5476
L128.1746 97.8810
" />
<path d="M128.1746 97.8810
L129.1746 98.3095
" />
<path d="M129.1746 96.7381
L128.5079 96.7381
" />
<path d="M128.6031 96.7381
L128.5555 96.6905
" />
<path d="M128.5555 96.6905
L128.5079 96.5952
" />
<path d="M128.5079 96.5952
L128.5079 96.4524
" />
<path d="M128.5079 96.4524
L128.5555 96.3571
" />
<path d="M128.5555 96.3571
L128.6508 96.3095
" />
<path d="M128.6508 96.3095
L129.1746 96.3095
" />
<path d="M128.6508 96.3095
L128.5555 96.2619
" />
<path d="M128.5555 96.2619
L128.5079 96.1667
" />
<path d="M128.5079 96.1667
L128.5079 96.0238
" />
<path d="M128.5079 96.0238
L128.5555 95.9286
" />
<path d="M128.5555 95.9286
L128.6508 95.8810
" />
<path d="M128.6508 95.8810
L129.1746 95.8810
" />
<path d="M129.1746 95.4048
L128.5079 95.4048
" />
<path d="M128.6031 95.4048
L128.5555 95.3571
" />
<path d="M128.5555 95.3571
L128.5079 95.2619
" />
<path d="M128.5079 95.2619
L128.5079 95.1190
" />
<path d="M128.5079 95.1190
L128.5555 95.0238
" />
<path d="M128.5555 95.0238
L128.6508 94.9762
" />
<path d="M128.6508 94.9762
L129.1746 94.9762
" />
<path d="M128.6508 94.9762
L128.5555 94.9286
" />
<path d="M128.5555 94.9286
L128.5079 94.8333
" />
<path d="M128.5079 94.8333
L128.5079 94.6905
" />
<path d="M128.5079 94.6905
L128.5555 94.5952
" />
<path d="M128.5555 94.5952
L128.6508 94.5476
" />
<path d="M128.6508 94.5476
L129.1746 94.5476
" />
</g><path d="M149.5000 100.0000
L129.2755 100.0000
" />
<path d="M129.2755 93.0000
L165.5000 93.0000
" />
<path d="M129.8619 100.0000
L129.8619 93.0000
" />
<path d="M129.8619 100.0000
L129.8619 93.0000
" />
<path d="M129.8619 100.0000
L129.2848 98.8912
" />
<path d="M129.8619 100.0000
L130.4391 98.8912
" />
<path d="M129.8619 93.0000
L130.4391 94.1088
" />
<path d="M129.8619 93.0000
L129.2848 94.1088
" />
<g transform="rotate(-90.000000 128.7223 104.5000)">
<text x="128.7223" y="105.0000"
textLength="4.5560" font-size="1.3333" lengthAdjust="spacingAndGlyphs"
text-anchor="middle" opacity="0">9 mm</text>
</g>
<g class="stroked-text"><desc>9 mm</desc>
<path d="M129.1849 106.4048
L129.1849 106.2143
" />
<path d="M129.1849 106.2143
L129.1373 106.1190
" />
<path d="M129.1373 106.1190
L129.0897 106.0714
" />
<path d="M129.0897 106.0714
L128.9468 105.9762
" />
<path d="M128.9468 105.9762
L128.7564 105.9286
" />
<path d="M128.7564 105.9286
L128.3754 105.9286
" />
<path d="M128.3754 105.9286
L128.2802 105.9762
" />
<path d="M128.2802 105.9762
L128.2326 106.0238
" />
<path d="M128.2326 106.0238
L128.1849 106.1190
" />
<path d="M128.1849 106.1190
L128.1849 106.3095
" />
<path d="M128.1849 106.3095
L128.2326 106.4048
" />
<path d="M128.2326 106.4048
L128.2802 106.4524
" />
<path d="M128.2802 106.4524
L128.3754 106.5000
" />
<path d="M128.3754 106.5000
L128.6135 106.5000
" />
<path d="M128.6135 106.5000
L128.7087 106.4524
" />
<path d="M128.7087 106.4524
L128.7564 106.4048
" />
<path d="M128.7564 106.4048
L128.8040 106.3095
" />
<path d="M128.8040 106.3095
L128.8040 106.1190
" />
<path d="M128.8040 106.1190
L128.7564 106.0238
" />
<path d="M128.7564 106.0238
L128.7087 105.9762
" />
<path d="M128.7087 105.9762
L128.6135 105.9286
" />
<path d="M129.1849 104.7381
L128.5183 104.7381
" />
<path d="M128.6135 104.7381
L128.5659 104.6905
" />
<path d="M128.5659 104.6905
L128.5183 104.5952
" />
<path d="M128.5183 104.5952
L128.5183 104.4524
" />
<path d="M128.5183 104.4524
L128.5659 104.3571
" />
<path d="M128.5659 104.3571
L128.6611 104.3095
" />
<path d="M128.6611 104.3095
L129.1849 104.3095
" />
<path d="M128.6611 104.3095
L128.5659 104.2619
" />
<path d="M128.5659 104.2619
L128.5183 104.1667
" />
<path d="M128.5183 104.1667
L128.5183 104.0238
" />
<path d="M128.5183 104.0238
L128.5659 103.9286
" />
<path d="M128.5659 103.9286
L128.6611 103.8810
" />
<path d="M128.6611 103.8810
L129.1849 103.8810
" />
<path d="M129.1849 103.4048
L128.5183 103.4048
" />
<path d="M128.6135 103.4048
L128.5659 103.3571
" />
<path d="M128.5659 103.3571
L128.5183 103.2619
" />
<path d="M128.5183 103.2619
L128.5183 103.1190
" />
<path d="M128.5183 103.1190
L128.5659 103.0238
" />
<path d="M128.5659 103.0238
L128.6611 102.9762
" />
<path d="M128.6611 102.9762
L129.1849 102.9762
" />
<path d="M128.6611 102.9762
L128.5659 102.9286
" />
<path d="M128.5659 102.9286
L128.5183 102.8333
" />
<path d="M128.5183 102.8333
L128.5183 102.6905
" />
<path d="M128.5183 102.6905
L128.5659 102.5952
" />
<path d="M128.5659 102.5952
L128.6611 102.5476
" />
<path d="M128.6611 102.5476
L129.1849 102.5476
" />
</g><path d="M149.5000 100.0000
L129.2859 100.0000
" />
<path d="M129.2859 109.0000
L147.5000 109.0000
" />
<path d="M129.8723 100.0000
L129.8723 109.0000
" />
<path d="M129.8723 100.0000
L129.8723 109.0000
" />
<path d="M129.8723 100.0000
L130.4495 101.1088
" />
<path d="M129.8723 100.0000
L129.2951 101.1088
" />
<path d="M129.8723 109.0000
L129.2951 107.8912
" />
<path d="M129.8723 109.0000
L130.4495 107.8912
" />
<g transform="rotate(-90.000000 170.8500 100.0000)">
<text x="170.8500" y="100.5000"
textLength="5.5083" font-size="1.3333" lengthAdjust="spacingAndGlyphs"
text-anchor="middle" opacity="0">14 mm</text>
</g>
<g class="stroked-text"><desc>14 mm</desc>
<path d="M171.3126 101.9048
L171.3126 102.4762
" />
<path d="M171.3126 102.1905
L170.3126 102.1905
" />
<path d="M170.3126 102.1905
L170.4555 102.2857
" />
<path d="M170.4555 102.2857
L170.5507 102.3810
" />
<path d="M170.5507 102.3810
L170.5983 102.4762
" />
<path d="M170.6460 101.0476
L171.3126 101.0476
" />
<path d="M170.2650 101.2857
L170.9793 101.5238
" />
<path d="M170.9793 101.5238
L170.9793 100.9048
" />
<path d="M171.3126 99.7619
L170.6460 99.7619
" />
<path d="M170.7412 99.7619
L170.6936 99.7143
" />
<path d="M170.6936 99.7143
L170.6460 99.6190
" />
<path d="M170.6460 99.6190
L170.6460 99.4762
" />
<path d="M170.6460 99.4762
L170.6936 99.3810
" />
<path d="M170.6936 99.3810
L170.7888 99.3333
" />
<path d="M170.7888 99.3333
L171.3126 99.3333
" />
<path d="M170.7888 99.3333
L170.6936 99.2857
" />
<path d="M170.6936 99.2857
L170.6460 99.1905
" />
<path d="M170.6460 99.1905
L170.6460 99.0476
" />
<path d="M170.6460 99.0476
L170.6936 98.9524
" />
<path d="M170.6936 98.9524
L170.7888 98.9048
" />
<path d="M170.7888 98.9048
L171.3126 98.9048
" />
<path d="M171.3126 98.4286
L170.6460 98.4286
" />
<path d="M170.7412 98.4286
L170.6936 98.3810
" />
<path d="M170.6936 98.3810
L170.6460 98.2857
" />
<path d="M170.6460 98.2857
L170.6460 98.1429
" />
<path d="M170.6460 98.1429
L170.6936 98.0476
" />
<path d="M170.6936 98.0476
L170.7888 98.0000
" />
<path d="M170.7888 98.0000
L171.3126 98.0000
" />
<path d="M170.7888 98.0000
L170.6936 97.9524
" />
<path d="M170.6936 97.9524
L170.6460 97.8571
" />
<path d="M170.6460 97.8571
L170.6460 97.7143
" />
<path d="M170.6460 97.7143
L170.6936 97.6190
" />
<path d="M170.6936 97.6190
L170.7888 97.5714
" />
<path d="M170.7888 97.5714
L171.3126 97.5714
" />
</g><path d="M166.5000 107.0000
L172.5864 107.0000
" />
<path d="M172.5864 93.0000
L166.5000 93.0000
" />
<path d="M172.0000 107.0000
L172.0000 93.0000
" />
<path d="M172.0000 107.0000
L172.0000 93.0000
" />
<path d="M172.0000 107.0000
L171.4228 105.8912
" />
<path d="M172.0000 107.0000
L172.5772 105.8912
" />
<path d="M172.0000 93.0000
L172.5772 94.1088
" />
<path d="M172.0000 93.0000
L171.4228 94.1088
" />
</g>
<g style="fill:#000000; fill-opacity:0.0; 
stroke:#000000; stroke-width:0.3000; stroke-opacity:1; 
stroke-linecap:round; stroke-linejoin:round;">
<circle cx="166.0000" cy="93.0000" r="1.1300" /> 
<circle cx="134.0000" cy="107.0000" r="1.1300" /> 
<circle cx="166.0000" cy="107.0000" r="1.1300" /> 
<circle cx="134.0000" cy="93.0000" r="1.1300" /> 
<g >
</g>
<g >
</g>
<g >
</g>
<g >
</g>
<g >
</g>
<g >
</g>
<g >
</g>
<g >
</g>
<g >
</g>
<g >
</g>
<g >
</g>
<g >
</g>
<g >
</g>
<g >
</g>
<g >
</g>
<g >
</g>
<g >
</g>
<g >
</g>
<g >
</g>
<g >
</g>
<g >
</g>
<g >
</g>
<g >
</g>
<g >
</g>
<g >
</g>
<g >
</g>
<g >
</g>
<g >
</g>
<g >
</g>
<g >
</g>
<g >
</g>
<g >
</g>
<g >
</g>
<g >
</g>
<g >
</g>
<g >
</g>
<g >
</g>
<g >
</g>
<g >
</g>
<g >
</g>
<g >
</g>
<g >
</g>
<g >
</g>
<g >
</g>
<g >
</g>
<g >
</g>
<g >
</g>
<g >
</g>
<g >
</g>
<g >
</g>
<g >
</g>
<g >
</g>
<g >
</g>
<g >
</g>
<g >
</g>
<g >
</g>
<g >
</g>
</g>
<g style="fill:#000000; fill-opacity:0.0; 
stroke:#000000; stroke-width:0.3000; stroke-opacity:1; 
stroke-linecap:round; stroke-linejoin:round;">
</g>
<g style="fill:#000000; fill-opacity:0.0; 
stroke:#000000; stroke-width:0.1000; stroke-opacity:1; 
stroke-linecap:round; stroke-linejoin:round;">
<path d="M132.0000 93.0000
L132.0000 107.0000
" />
<path d="M166.0000 109.0000 A2.0000 2.0000 0.0 0 0 168.0000 107.0000" />
<path d="M168.0000 93.0000 A2.0000 2.0000 0.0 0 0 166.0000 91.0000" />
<path d="M134.0000 91.0000
L166.0000 91.0000
" />
<path d="M134.0000 91.0000 A2.0000 2.0000 0.0 0 0 132.0000 93.0000" />
<path d="M168.0000 107.0000
L168.0000 93.0000
" />
<path d="M134.0000 109.0000
L166.0000 109.0000
" />
<path d="M132.0000 107.0000 A2.0000 2.0000 0.0 0 0 134.0000 109.0000" />
<g >
</g>
<g >
</g>
<g >
</g>
<g >
</g>
<g >
</g>
<g >
</g>
<g >
</g>
<g >
</g>
<g >
</g>
<g >
</g>
<g >
</g>
<g >
</g>
<g >
</g>
<g >
</g>
<g >
</g>
<g >
</g>
<g >
</g>
<g >
</g>
<g >
</g>
<g >
</g>
<g >
</g>
<g >
</g>
<g >
</g>
<g >
</g>
<g >
</g>
<g >
</g>
<g >
</g>
<g >
</g>
<g >
</g>
<g >
</g>
<g >
</g>
<g >
</g>
<g >
</g>
<g >
</g>
<g >
</g>
<g >
</g>
<g >
</g>
<g >
</g>
<g >
</g>
<g >
</g>
<g >
</g>
<g >
</g>
<g >
</g>
<g >
</g>
<g >
</g>
<g >
</g>
<g >
</g>
<g >
</g>
<g >
</g>
<g >
</g>
<g >
</g>
<g >
</g>
<g >
</g>
<g >
</g>
<g >
</g>
<g >
</g>
<g >
</g>
</g> 
</svg>
