<?xml version="1.0" standalone="no"?>
 <!DOCTYPE svg PUBLIC "-//W3C//DTD SVG 1.1//EN" 
 "http://www.w3.org/Graphics/SVG/1.1/DTD/svg11.dtd"> 
<svg
  xmlns:svg="http://www.w3.org/2000/svg"
  xmlns="http://www.w3.org/2000/svg"
  xmlns:xlink="http://www.w3.org/1999/xlink"
  version="1.1"
  width="62.5094mm" height="43.4848mm" viewBox="0.0000 0.0000 62.5094 43.4848">
<title>SVG Image created as wingbeat_detector-F_Silkscreen.svg date 2023/03/29 10:56:58 </title>
  <desc>Image generated by PCBNEW </desc>
<g style="fill:#000000; fill-opacity:1.0000;stroke:#000000; stroke-opacity:1.0000;
stroke-linecap:round; stroke-linejoin:round;"
 transform="translate(0 0) scale(1 1)">
</g>
<g style="fill:#000000; fill-opacity:0.0; 
stroke:#000000; stroke-width:0.0000; stroke-opacity:1; 
stroke-linecap:round; stroke-linejoin:round;">
</g>
<g style="fill:#000000; fill-opacity:0.0; 
stroke:#000000; stroke-width:0.1250; stroke-opacity:1; 
stroke-linecap:round; stroke-linejoin:round;">
<text x="20.7542" y="18.0875"
textLength="4.6887" font-size="0.6667" lengthAdjust="spacingAndGlyphs"
text-anchor="middle" opacity="0">FILTER GAIN</text>
<g class="stroked-text"><desc>FILTER GAIN</desc>
<path d="M18.8018 17.8069
L18.6351 17.8069
" />
<path d="M18.6351 18.0688
L18.6351 17.5688
" />
<path d="M18.6351 17.5688
L18.8732 17.5688
" />
<path d="M19.0637 18.0688
L19.0637 17.5688
" />
<path d="M19.5399 18.0688
L19.3018 18.0688
" />
<path d="M19.3018 18.0688
L19.3018 17.5688
" />
<path d="M19.6351 17.5688
L19.9208 17.5688
" />
<path d="M19.7780 18.0688
L19.7780 17.5688
" />
<path d="M20.0875 17.8069
L20.2542 17.8069
" />
<path d="M20.3256 18.0688
L20.0875 18.0688
" />
<path d="M20.0875 18.0688
L20.0875 17.5688
" />
<path d="M20.0875 17.5688
L20.3256 17.5688
" />
<path d="M20.8256 18.0688
L20.6589 17.8307
" />
<path d="M20.5399 18.0688
L20.5399 17.5688
" />
<path d="M20.5399 17.5688
L20.7304 17.5688
" />
<path d="M20.7304 17.5688
L20.7780 17.5926
" />
<path d="M20.7780 17.5926
L20.8018 17.6164
" />
<path d="M20.8018 17.6164
L20.8256 17.6640
" />
<path d="M20.8256 17.6640
L20.8256 17.7355
" />
<path d="M20.8256 17.7355
L20.8018 17.7831
" />
<path d="M20.8018 17.7831
L20.7780 17.8069
" />
<path d="M20.7780 17.8069
L20.7304 17.8307
" />
<path d="M20.7304 17.8307
L20.5399 17.8307
" />
<path d="M21.6827 17.5926
L21.6351 17.5688
" />
<path d="M21.6351 17.5688
L21.5637 17.5688
" />
<path d="M21.5637 17.5688
L21.4923 17.5926
" />
<path d="M21.4923 17.5926
L21.4446 17.6402
" />
<path d="M21.4446 17.6402
L21.4208 17.6879
" />
<path d="M21.4208 17.6879
L21.3970 17.7831
" />
<path d="M21.3970 17.7831
L21.3970 17.8545
" />
<path d="M21.3970 17.8545
L21.4208 17.9498
" />
<path d="M21.4208 17.9498
L21.4446 17.9974
" />
<path d="M21.4446 17.9974
L21.4923 18.0450
" />
<path d="M21.4923 18.0450
L21.5637 18.0688
" />
<path d="M21.5637 18.0688
L21.6113 18.0688
" />
<path d="M21.6113 18.0688
L21.6827 18.0450
" />
<path d="M21.6827 18.0450
L21.7065 18.0212
" />
<path d="M21.7065 18.0212
L21.7065 17.8545
" />
<path d="M21.7065 17.8545
L21.6113 17.8545
" />
<path d="M21.8970 17.9260
L22.1351 17.9260
" />
<path d="M21.8494 18.0688
L22.0161 17.5688
" />
<path d="M22.0161 17.5688
L22.1827 18.0688
" />
<path d="M22.3494 18.0688
L22.3494 17.5688
" />
<path d="M22.5875 18.0688
L22.5875 17.5688
" />
<path d="M22.5875 17.5688
L22.8732 18.0688
" />
<path d="M22.8732 18.0688
L22.8732 17.5688
" />
</g><text x="20.7542" y="26.0875"
textLength="3.7839" font-size="0.6667" lengthAdjust="spacingAndGlyphs"
text-anchor="middle" opacity="0">RAW GAIN</text>
<g class="stroked-text"><desc>RAW GAIN</desc>
<path d="M19.3732 26.0688
L19.2065 25.8307
" />
<path d="M19.0875 26.0688
L19.0875 25.5688
" />
<path d="M19.0875 25.5688
L19.2780 25.5688
" />
<path d="M19.2780 25.5688
L19.3256 25.5926
" />
<path d="M19.3256 25.5926
L19.3494 25.6164
" />
<path d="M19.3494 25.6164
L19.3732 25.6640
" />
<path d="M19.3732 25.6640
L19.3732 25.7355
" />
<path d="M19.3732 25.7355
L19.3494 25.7831
" />
<path d="M19.3494 25.7831
L19.3256 25.8069
" />
<path d="M19.3256 25.8069
L19.2780 25.8307
" />
<path d="M19.2780 25.8307
L19.0875 25.8307
" />
<path d="M19.5637 25.9260
L19.8018 25.9260
" />
<path d="M19.5161 26.0688
L19.6827 25.5688
" />
<path d="M19.6827 25.5688
L19.8494 26.0688
" />
<path d="M19.9685 25.5688
L20.0875 26.0688
" />
<path d="M20.0875 26.0688
L20.1827 25.7117
" />
<path d="M20.1827 25.7117
L20.2780 26.0688
" />
<path d="M20.2780 26.0688
L20.3970 25.5688
" />
<path d="M21.2304 25.5926
L21.1827 25.5688
" />
<path d="M21.1827 25.5688
L21.1113 25.5688
" />
<path d="M21.1113 25.5688
L21.0399 25.5926
" />
<path d="M21.0399 25.5926
L20.9923 25.6402
" />
<path d="M20.9923 25.6402
L20.9685 25.6879
" />
<path d="M20.9685 25.6879
L20.9446 25.7831
" />
<path d="M20.9446 25.7831
L20.9446 25.8545
" />
<path d="M20.9446 25.8545
L20.9685 25.9498
" />
<path d="M20.9685 25.9498
L20.9923 25.9974
" />
<path d="M20.9923 25.9974
L21.0399 26.0450
" />
<path d="M21.0399 26.0450
L21.1113 26.0688
" />
<path d="M21.1113 26.0688
L21.1589 26.0688
" />
<path d="M21.1589 26.0688
L21.2304 26.0450
" />
<path d="M21.2304 26.0450
L21.2542 26.0212
" />
<path d="M21.2542 26.0212
L21.2542 25.8545
" />
<path d="M21.2542 25.8545
L21.1589 25.8545
" />
<path d="M21.4446 25.9260
L21.6827 25.9260
" />
<path d="M21.3970 26.0688
L21.5637 25.5688
" />
<path d="M21.5637 25.5688
L21.7304 26.0688
" />
<path d="M21.8970 26.0688
L21.8970 25.5688
" />
<path d="M22.1351 26.0688
L22.1351 25.5688
" />
<path d="M22.1351 25.5688
L22.4208 26.0688
" />
<path d="M22.4208 26.0688
L22.4208 25.5688
" />
</g></g>
<g style="fill:#000000; fill-opacity:0.0; 
stroke:#000000; stroke-width:0.1000; stroke-opacity:1; 
stroke-linecap:round; stroke-linejoin:round;">
<text x="25.0042" y="13.5375"
textLength="16.2081" font-size="0.5333" lengthAdjust="spacingAndGlyphs"
text-anchor="start" opacity="0">https://github.com/peterpolidoro/wingbeat_detector</text>
<g class="stroked-text"><desc>https://github.com/peterpolidoro/wingbeat_detector</desc>
<path d="M25.0994 13.5225
L25.0994 13.1225
" />
<path d="M25.2708 13.5225
L25.2708 13.3130
" />
<path d="M25.2708 13.3130
L25.2518 13.2749
" />
<path d="M25.2518 13.2749
L25.2137 13.2559
" />
<path d="M25.2137 13.2559
L25.1565 13.2559
" />
<path d="M25.1565 13.2559
L25.1185 13.2749
" />
<path d="M25.1185 13.2749
L25.0994 13.2940
" />
<path d="M25.4042 13.2559
L25.5565 13.2559
" />
<path d="M25.4613 13.1225
L25.4613 13.4654
" />
<path d="M25.4613 13.4654
L25.4804 13.5035
" />
<path d="M25.4804 13.5035
L25.5185 13.5225
" />
<path d="M25.5185 13.5225
L25.5565 13.5225
" />
<path d="M25.6327 13.2559
L25.7851 13.2559
" />
<path d="M25.6899 13.1225
L25.6899 13.4654
" />
<path d="M25.6899 13.4654
L25.7089 13.5035
" />
<path d="M25.7089 13.5035
L25.7470 13.5225
" />
<path d="M25.7470 13.5225
L25.7851 13.5225
" />
<path d="M25.9185 13.2559
L25.9185 13.6559
" />
<path d="M25.9185 13.2749
L25.9565 13.2559
" />
<path d="M25.9565 13.2559
L26.0327 13.2559
" />
<path d="M26.0327 13.2559
L26.0708 13.2749
" />
<path d="M26.0708 13.2749
L26.0899 13.2940
" />
<path d="M26.0899 13.2940
L26.1089 13.3321
" />
<path d="M26.1089 13.3321
L26.1089 13.4464
" />
<path d="M26.1089 13.4464
L26.0899 13.4845
" />
<path d="M26.0899 13.4845
L26.0708 13.5035
" />
<path d="M26.0708 13.5035
L26.0327 13.5225
" />
<path d="M26.0327 13.5225
L25.9565 13.5225
" />
<path d="M25.9565 13.5225
L25.9185 13.5035
" />
<path d="M26.2613 13.5035
L26.2994 13.5225
" />
<path d="M26.2994 13.5225
L26.3756 13.5225
" />
<path d="M26.3756 13.5225
L26.4137 13.5035
" />
<path d="M26.4137 13.5035
L26.4327 13.4654
" />
<path d="M26.4327 13.4654
L26.4327 13.4464
" />
<path d="M26.4327 13.4464
L26.4137 13.4083
" />
<path d="M26.4137 13.4083
L26.3756 13.3892
" />
<path d="M26.3756 13.3892
L26.3185 13.3892
" />
<path d="M26.3185 13.3892
L26.2804 13.3702
" />
<path d="M26.2804 13.3702
L26.2613 13.3321
" />
<path d="M26.2613 13.3321
L26.2613 13.3130
" />
<path d="M26.2613 13.3130
L26.2804 13.2749
" />
<path d="M26.2804 13.2749
L26.3185 13.2559
" />
<path d="M26.3185 13.2559
L26.3756 13.2559
" />
<path d="M26.3756 13.2559
L26.4137 13.2749
" />
<path d="M26.6042 13.4845
L26.6232 13.5035
" />
<path d="M26.6232 13.5035
L26.6042 13.5225
" />
<path d="M26.6042 13.5225
L26.5851 13.5035
" />
<path d="M26.5851 13.5035
L26.6042 13.4845
" />
<path d="M26.6042 13.4845
L26.6042 13.5225
" />
<path d="M26.6042 13.2749
L26.6232 13.2940
" />
<path d="M26.6232 13.2940
L26.6042 13.3130
" />
<path d="M26.6042 13.3130
L26.5851 13.2940
" />
<path d="M26.5851 13.2940
L26.6042 13.2749
" />
<path d="M26.6042 13.2749
L26.6042 13.3130
" />
<path d="M27.0804 13.1035
L26.7375 13.6178
" />
<path d="M27.4994 13.1035
L27.1565 13.6178
" />
<path d="M27.8042 13.2559
L27.8042 13.5797
" />
<path d="M27.8042 13.5797
L27.7851 13.6178
" />
<path d="M27.7851 13.6178
L27.7661 13.6368
" />
<path d="M27.7661 13.6368
L27.7280 13.6559
" />
<path d="M27.7280 13.6559
L27.6708 13.6559
" />
<path d="M27.6708 13.6559
L27.6327 13.6368
" />
<path d="M27.8042 13.5035
L27.7661 13.5225
" />
<path d="M27.7661 13.5225
L27.6899 13.5225
" />
<path d="M27.6899 13.5225
L27.6518 13.5035
" />
<path d="M27.6518 13.5035
L27.6327 13.4845
" />
<path d="M27.6327 13.4845
L27.6137 13.4464
" />
<path d="M27.6137 13.4464
L27.6137 13.3321
" />
<path d="M27.6137 13.3321
L27.6327 13.2940
" />
<path d="M27.6327 13.2940
L27.6518 13.2749
" />
<path d="M27.6518 13.2749
L27.6899 13.2559
" />
<path d="M27.6899 13.2559
L27.7661 13.2559
" />
<path d="M27.7661 13.2559
L27.8042 13.2749
" />
<path d="M27.9946 13.5225
L27.9946 13.2559
" />
<path d="M27.9946 13.1225
L27.9756 13.1416
" />
<path d="M27.9756 13.1416
L27.9946 13.1606
" />
<path d="M27.9946 13.1606
L28.0137 13.1416
" />
<path d="M28.0137 13.1416
L27.9946 13.1225
" />
<path d="M27.9946 13.1225
L27.9946 13.1606
" />
<path d="M28.1280 13.2559
L28.2804 13.2559
" />
<path d="M28.1851 13.1225
L28.1851 13.4654
" />
<path d="M28.1851 13.4654
L28.2042 13.5035
" />
<path d="M28.2042 13.5035
L28.2423 13.5225
" />
<path d="M28.2423 13.5225
L28.2804 13.5225
" />
<path d="M28.4137 13.5225
L28.4137 13.1225
" />
<path d="M28.5851 13.5225
L28.5851 13.3130
" />
<path d="M28.5851 13.3130
L28.5661 13.2749
" />
<path d="M28.5661 13.2749
L28.5280 13.2559
" />
<path d="M28.5280 13.2559
L28.4708 13.2559
" />
<path d="M28.4708 13.2559
L28.4327 13.2749
" />
<path d="M28.4327 13.2749
L28.4137 13.2940
" />
<path d="M28.9470 13.2559
L28.9470 13.5225
" />
<path d="M28.7756 13.2559
L28.7756 13.4654
" />
<path d="M28.7756 13.4654
L28.7946 13.5035
" />
<path d="M28.7946 13.5035
L28.8327 13.5225
" />
<path d="M28.8327 13.5225
L28.8899 13.5225
" />
<path d="M28.8899 13.5225
L28.9280 13.5035
" />
<path d="M28.9280 13.5035
L28.9470 13.4845
" />
<path d="M29.1375 13.5225
L29.1375 13.1225
" />
<path d="M29.1375 13.2749
L29.1756 13.2559
" />
<path d="M29.1756 13.2559
L29.2518 13.2559
" />
<path d="M29.2518 13.2559
L29.2899 13.2749
" />
<path d="M29.2899 13.2749
L29.3089 13.2940
" />
<path d="M29.3089 13.2940
L29.3280 13.3321
" />
<path d="M29.3280 13.3321
L29.3280 13.4464
" />
<path d="M29.3280 13.4464
L29.3089 13.4845
" />
<path d="M29.3089 13.4845
L29.2899 13.5035
" />
<path d="M29.2899 13.5035
L29.2518 13.5225
" />
<path d="M29.2518 13.5225
L29.1756 13.5225
" />
<path d="M29.1756 13.5225
L29.1375 13.5035
" />
<path d="M29.4994 13.4845
L29.5185 13.5035
" />
<path d="M29.5185 13.5035
L29.4994 13.5225
" />
<path d="M29.4994 13.5225
L29.4804 13.5035
" />
<path d="M29.4804 13.5035
L29.4994 13.4845
" />
<path d="M29.4994 13.4845
L29.4994 13.5225
" />
<path d="M29.8613 13.5035
L29.8232 13.5225
" />
<path d="M29.8232 13.5225
L29.7470 13.5225
" />
<path d="M29.7470 13.5225
L29.7089 13.5035
" />
<path d="M29.7089 13.5035
L29.6899 13.4845
" />
<path d="M29.6899 13.4845
L29.6708 13.4464
" />
<path d="M29.6708 13.4464
L29.6708 13.3321
" />
<path d="M29.6708 13.3321
L29.6899 13.2940
" />
<path d="M29.6899 13.2940
L29.7089 13.2749
" />
<path d="M29.7089 13.2749
L29.7470 13.2559
" />
<path d="M29.7470 13.2559
L29.8232 13.2559
" />
<path d="M29.8232 13.2559
L29.8613 13.2749
" />
<path d="M30.0899 13.5225
L30.0518 13.5035
" />
<path d="M30.0518 13.5035
L30.0327 13.4845
" />
<path d="M30.0327 13.4845
L30.0137 13.4464
" />
<path d="M30.0137 13.4464
L30.0137 13.3321
" />
<path d="M30.0137 13.3321
L30.0327 13.2940
" />
<path d="M30.0327 13.2940
L30.0518 13.2749
" />
<path d="M30.0518 13.2749
L30.0899 13.2559
" />
<path d="M30.0899 13.2559
L30.1470 13.2559
" />
<path d="M30.1470 13.2559
L30.1851 13.2749
" />
<path d="M30.1851 13.2749
L30.2042 13.2940
" />
<path d="M30.2042 13.2940
L30.2232 13.3321
" />
<path d="M30.2232 13.3321
L30.2232 13.4464
" />
<path d="M30.2232 13.4464
L30.2042 13.4845
" />
<path d="M30.2042 13.4845
L30.1851 13.5035
" />
<path d="M30.1851 13.5035
L30.1470 13.5225
" />
<path d="M30.1470 13.5225
L30.0899 13.5225
" />
<path d="M30.3946 13.5225
L30.3946 13.2559
" />
<path d="M30.3946 13.2940
L30.4137 13.2749
" />
<path d="M30.4137 13.2749
L30.4518 13.2559
" />
<path d="M30.4518 13.2559
L30.5089 13.2559
" />
<path d="M30.5089 13.2559
L30.5470 13.2749
" />
<path d="M30.5470 13.2749
L30.5661 13.3130
" />
<path d="M30.5661 13.3130
L30.5661 13.5225
" />
<path d="M30.5661 13.3130
L30.5851 13.2749
" />
<path d="M30.5851 13.2749
L30.6232 13.2559
" />
<path d="M30.6232 13.2559
L30.6804 13.2559
" />
<path d="M30.6804 13.2559
L30.7185 13.2749
" />
<path d="M30.7185 13.2749
L30.7375 13.3130
" />
<path d="M30.7375 13.3130
L30.7375 13.5225
" />
<path d="M31.2137 13.1035
L30.8708 13.6178
" />
<path d="M31.3470 13.2559
L31.3470 13.6559
" />
<path d="M31.3470 13.2749
L31.3851 13.2559
" />
<path d="M31.3851 13.2559
L31.4613 13.2559
" />
<path d="M31.4613 13.2559
L31.4994 13.2749
" />
<path d="M31.4994 13.2749
L31.5185 13.2940
" />
<path d="M31.5185 13.2940
L31.5375 13.3321
" />
<path d="M31.5375 13.3321
L31.5375 13.4464
" />
<path d="M31.5375 13.4464
L31.5185 13.4845
" />
<path d="M31.5185 13.4845
L31.4994 13.5035
" />
<path d="M31.4994 13.5035
L31.4613 13.5225
" />
<path d="M31.4613 13.5225
L31.3851 13.5225
" />
<path d="M31.3851 13.5225
L31.3470 13.5035
" />
<path d="M31.8613 13.5035
L31.8232 13.5225
" />
<path d="M31.8232 13.5225
L31.7470 13.5225
" />
<path d="M31.7470 13.5225
L31.7089 13.5035
" />
<path d="M31.7089 13.5035
L31.6899 13.4654
" />
<path d="M31.6899 13.4654
L31.6899 13.3130
" />
<path d="M31.6899 13.3130
L31.7089 13.2749
" />
<path d="M31.7089 13.2749
L31.7470 13.2559
" />
<path d="M31.7470 13.2559
L31.8232 13.2559
" />
<path d="M31.8232 13.2559
L31.8613 13.2749
" />
<path d="M31.8613 13.2749
L31.8804 13.3130
" />
<path d="M31.8804 13.3130
L31.8804 13.3511
" />
<path d="M31.8804 13.3511
L31.6899 13.3892
" />
<path d="M31.9946 13.2559
L32.1470 13.2559
" />
<path d="M32.0518 13.1225
L32.0518 13.4654
" />
<path d="M32.0518 13.4654
L32.0708 13.5035
" />
<path d="M32.0708 13.5035
L32.1089 13.5225
" />
<path d="M32.1089 13.5225
L32.1470 13.5225
" />
<path d="M32.4327 13.5035
L32.3946 13.5225
" />
<path d="M32.3946 13.5225
L32.3185 13.5225
" />
<path d="M32.3185 13.5225
L32.2804 13.5035
" />
<path d="M32.2804 13.5035
L32.2613 13.4654
" />
<path d="M32.2613 13.4654
L32.2613 13.3130
" />
<path d="M32.2613 13.3130
L32.2804 13.2749
" />
<path d="M32.2804 13.2749
L32.3185 13.2559
" />
<path d="M32.3185 13.2559
L32.3946 13.2559
" />
<path d="M32.3946 13.2559
L32.4327 13.2749
" />
<path d="M32.4327 13.2749
L32.4518 13.3130
" />
<path d="M32.4518 13.3130
L32.4518 13.3511
" />
<path d="M32.4518 13.3511
L32.2613 13.3892
" />
<path d="M32.6232 13.5225
L32.6232 13.2559
" />
<path d="M32.6232 13.3321
L32.6423 13.2940
" />
<path d="M32.6423 13.2940
L32.6613 13.2749
" />
<path d="M32.6613 13.2749
L32.6994 13.2559
" />
<path d="M32.6994 13.2559
L32.7375 13.2559
" />
<path d="M32.8708 13.2559
L32.8708 13.6559
" />
<path d="M32.8708 13.2749
L32.9089 13.2559
" />
<path d="M32.9089 13.2559
L32.9851 13.2559
" />
<path d="M32.9851 13.2559
L33.0232 13.2749
" />
<path d="M33.0232 13.2749
L33.0423 13.2940
" />
<path d="M33.0423 13.2940
L33.0613 13.3321
" />
<path d="M33.0613 13.3321
L33.0613 13.4464
" />
<path d="M33.0613 13.4464
L33.0423 13.4845
" />
<path d="M33.0423 13.4845
L33.0232 13.5035
" />
<path d="M33.0232 13.5035
L32.9851 13.5225
" />
<path d="M32.9851 13.5225
L32.9089 13.5225
" />
<path d="M32.9089 13.5225
L32.8708 13.5035
" />
<path d="M33.2899 13.5225
L33.2518 13.5035
" />
<path d="M33.2518 13.5035
L33.2327 13.4845
" />
<path d="M33.2327 13.4845
L33.2137 13.4464
" />
<path d="M33.2137 13.4464
L33.2137 13.3321
" />
<path d="M33.2137 13.3321
L33.2327 13.2940
" />
<path d="M33.2327 13.2940
L33.2518 13.2749
" />
<path d="M33.2518 13.2749
L33.2899 13.2559
" />
<path d="M33.2899 13.2559
L33.3470 13.2559
" />
<path d="M33.3470 13.2559
L33.3851 13.2749
" />
<path d="M33.3851 13.2749
L33.4042 13.2940
" />
<path d="M33.4042 13.2940
L33.4232 13.3321
" />
<path d="M33.4232 13.3321
L33.4232 13.4464
" />
<path d="M33.4232 13.4464
L33.4042 13.4845
" />
<path d="M33.4042 13.4845
L33.3851 13.5035
" />
<path d="M33.3851 13.5035
L33.3470 13.5225
" />
<path d="M33.3470 13.5225
L33.2899 13.5225
" />
<path d="M33.6518 13.5225
L33.6137 13.5035
" />
<path d="M33.6137 13.5035
L33.5946 13.4654
" />
<path d="M33.5946 13.4654
L33.5946 13.1225
" />
<path d="M33.8042 13.5225
L33.8042 13.2559
" />
<path d="M33.8042 13.1225
L33.7851 13.1416
" />
<path d="M33.7851 13.1416
L33.8042 13.1606
" />
<path d="M33.8042 13.1606
L33.8232 13.1416
" />
<path d="M33.8232 13.1416
L33.8042 13.1225
" />
<path d="M33.8042 13.1225
L33.8042 13.1606
" />
<path d="M34.1661 13.5225
L34.1661 13.1225
" />
<path d="M34.1661 13.5035
L34.1280 13.5225
" />
<path d="M34.1280 13.5225
L34.0518 13.5225
" />
<path d="M34.0518 13.5225
L34.0137 13.5035
" />
<path d="M34.0137 13.5035
L33.9946 13.4845
" />
<path d="M33.9946 13.4845
L33.9756 13.4464
" />
<path d="M33.9756 13.4464
L33.9756 13.3321
" />
<path d="M33.9756 13.3321
L33.9946 13.2940
" />
<path d="M33.9946 13.2940
L34.0137 13.2749
" />
<path d="M34.0137 13.2749
L34.0518 13.2559
" />
<path d="M34.0518 13.2559
L34.1280 13.2559
" />
<path d="M34.1280 13.2559
L34.1661 13.2749
" />
<path d="M34.4137 13.5225
L34.3756 13.5035
" />
<path d="M34.3756 13.5035
L34.3565 13.4845
" />
<path d="M34.3565 13.4845
L34.3375 13.4464
" />
<path d="M34.3375 13.4464
L34.3375 13.3321
" />
<path d="M34.3375 13.3321
L34.3565 13.2940
" />
<path d="M34.3565 13.2940
L34.3756 13.2749
" />
<path d="M34.3756 13.2749
L34.4137 13.2559
" />
<path d="M34.4137 13.2559
L34.4708 13.2559
" />
<path d="M34.4708 13.2559
L34.5089 13.2749
" />
<path d="M34.5089 13.2749
L34.5280 13.2940
" />
<path d="M34.5280 13.2940
L34.5470 13.3321
" />
<path d="M34.5470 13.3321
L34.5470 13.4464
" />
<path d="M34.5470 13.4464
L34.5280 13.4845
" />
<path d="M34.5280 13.4845
L34.5089 13.5035
" />
<path d="M34.5089 13.5035
L34.4708 13.5225
" />
<path d="M34.4708 13.5225
L34.4137 13.5225
" />
<path d="M34.7185 13.5225
L34.7185 13.2559
" />
<path d="M34.7185 13.3321
L34.7375 13.2940
" />
<path d="M34.7375 13.2940
L34.7565 13.2749
" />
<path d="M34.7565 13.2749
L34.7946 13.2559
" />
<path d="M34.7946 13.2559
L34.8327 13.2559
" />
<path d="M35.0232 13.5225
L34.9851 13.5035
" />
<path d="M34.9851 13.5035
L34.9661 13.4845
" />
<path d="M34.9661 13.4845
L34.9470 13.4464
" />
<path d="M34.9470 13.4464
L34.9470 13.3321
" />
<path d="M34.9470 13.3321
L34.9661 13.2940
" />
<path d="M34.9661 13.2940
L34.9851 13.2749
" />
<path d="M34.9851 13.2749
L35.0232 13.2559
" />
<path d="M35.0232 13.2559
L35.0804 13.2559
" />
<path d="M35.0804 13.2559
L35.1185 13.2749
" />
<path d="M35.1185 13.2749
L35.1375 13.2940
" />
<path d="M35.1375 13.2940
L35.1565 13.3321
" />
<path d="M35.1565 13.3321
L35.1565 13.4464
" />
<path d="M35.1565 13.4464
L35.1375 13.4845
" />
<path d="M35.1375 13.4845
L35.1185 13.5035
" />
<path d="M35.1185 13.5035
L35.0804 13.5225
" />
<path d="M35.0804 13.5225
L35.0232 13.5225
" />
<path d="M35.6137 13.1035
L35.2708 13.6178
" />
<path d="M35.7089 13.2559
L35.7851 13.5225
" />
<path d="M35.7851 13.5225
L35.8613 13.3321
" />
<path d="M35.8613 13.3321
L35.9375 13.5225
" />
<path d="M35.9375 13.5225
L36.0137 13.2559
" />
<path d="M36.1661 13.5225
L36.1661 13.2559
" />
<path d="M36.1661 13.1225
L36.1470 13.1416
" />
<path d="M36.1470 13.1416
L36.1661 13.1606
" />
<path d="M36.1661 13.1606
L36.1851 13.1416
" />
<path d="M36.1851 13.1416
L36.1661 13.1225
" />
<path d="M36.1661 13.1225
L36.1661 13.1606
" />
<path d="M36.3565 13.2559
L36.3565 13.5225
" />
<path d="M36.3565 13.2940
L36.3756 13.2749
" />
<path d="M36.3756 13.2749
L36.4137 13.2559
" />
<path d="M36.4137 13.2559
L36.4708 13.2559
" />
<path d="M36.4708 13.2559
L36.5089 13.2749
" />
<path d="M36.5089 13.2749
L36.5280 13.3130
" />
<path d="M36.5280 13.3130
L36.5280 13.5225
" />
<path d="M36.8899 13.2559
L36.8899 13.5797
" />
<path d="M36.8899 13.5797
L36.8708 13.6178
" />
<path d="M36.8708 13.6178
L36.8518 13.6368
" />
<path d="M36.8518 13.6368
L36.8137 13.6559
" />
<path d="M36.8137 13.6559
L36.7565 13.6559
" />
<path d="M36.7565 13.6559
L36.7185 13.6368
" />
<path d="M36.8899 13.5035
L36.8518 13.5225
" />
<path d="M36.8518 13.5225
L36.7756 13.5225
" />
<path d="M36.7756 13.5225
L36.7375 13.5035
" />
<path d="M36.7375 13.5035
L36.7185 13.4845
" />
<path d="M36.7185 13.4845
L36.6994 13.4464
" />
<path d="M36.6994 13.4464
L36.6994 13.3321
" />
<path d="M36.6994 13.3321
L36.7185 13.2940
" />
<path d="M36.7185 13.2940
L36.7375 13.2749
" />
<path d="M36.7375 13.2749
L36.7756 13.2559
" />
<path d="M36.7756 13.2559
L36.8518 13.2559
" />
<path d="M36.8518 13.2559
L36.8899 13.2749
" />
<path d="M37.0804 13.5225
L37.0804 13.1225
" />
<path d="M37.0804 13.2749
L37.1185 13.2559
" />
<path d="M37.1185 13.2559
L37.1946 13.2559
" />
<path d="M37.1946 13.2559
L37.2327 13.2749
" />
<path d="M37.2327 13.2749
L37.2518 13.2940
" />
<path d="M37.2518 13.2940
L37.2708 13.3321
" />
<path d="M37.2708 13.3321
L37.2708 13.4464
" />
<path d="M37.2708 13.4464
L37.2518 13.4845
" />
<path d="M37.2518 13.4845
L37.2327 13.5035
" />
<path d="M37.2327 13.5035
L37.1946 13.5225
" />
<path d="M37.1946 13.5225
L37.1185 13.5225
" />
<path d="M37.1185 13.5225
L37.0804 13.5035
" />
<path d="M37.5946 13.5035
L37.5565 13.5225
" />
<path d="M37.5565 13.5225
L37.4804 13.5225
" />
<path d="M37.4804 13.5225
L37.4423 13.5035
" />
<path d="M37.4423 13.5035
L37.4232 13.4654
" />
<path d="M37.4232 13.4654
L37.4232 13.3130
" />
<path d="M37.4232 13.3130
L37.4423 13.2749
" />
<path d="M37.4423 13.2749
L37.4804 13.2559
" />
<path d="M37.4804 13.2559
L37.5565 13.2559
" />
<path d="M37.5565 13.2559
L37.5946 13.2749
" />
<path d="M37.5946 13.2749
L37.6137 13.3130
" />
<path d="M37.6137 13.3130
L37.6137 13.3511
" />
<path d="M37.6137 13.3511
L37.4232 13.3892
" />
<path d="M37.9565 13.5225
L37.9565 13.3130
" />
<path d="M37.9565 13.3130
L37.9375 13.2749
" />
<path d="M37.9375 13.2749
L37.8994 13.2559
" />
<path d="M37.8994 13.2559
L37.8232 13.2559
" />
<path d="M37.8232 13.2559
L37.7851 13.2749
" />
<path d="M37.9565 13.5035
L37.9185 13.5225
" />
<path d="M37.9185 13.5225
L37.8232 13.5225
" />
<path d="M37.8232 13.5225
L37.7851 13.5035
" />
<path d="M37.7851 13.5035
L37.7661 13.4654
" />
<path d="M37.7661 13.4654
L37.7661 13.4273
" />
<path d="M37.7661 13.4273
L37.7851 13.3892
" />
<path d="M37.7851 13.3892
L37.8232 13.3702
" />
<path d="M37.8232 13.3702
L37.9185 13.3702
" />
<path d="M37.9185 13.3702
L37.9565 13.3511
" />
<path d="M38.0899 13.2559
L38.2423 13.2559
" />
<path d="M38.1470 13.1225
L38.1470 13.4654
" />
<path d="M38.1470 13.4654
L38.1661 13.5035
" />
<path d="M38.1661 13.5035
L38.2042 13.5225
" />
<path d="M38.2042 13.5225
L38.2423 13.5225
" />
<path d="M38.2804 13.5606
L38.5851 13.5606
" />
<path d="M38.8518 13.5225
L38.8518 13.1225
" />
<path d="M38.8518 13.5035
L38.8137 13.5225
" />
<path d="M38.8137 13.5225
L38.7375 13.5225
" />
<path d="M38.7375 13.5225
L38.6994 13.5035
" />
<path d="M38.6994 13.5035
L38.6804 13.4845
" />
<path d="M38.6804 13.4845
L38.6613 13.4464
" />
<path d="M38.6613 13.4464
L38.6613 13.3321
" />
<path d="M38.6613 13.3321
L38.6804 13.2940
" />
<path d="M38.6804 13.2940
L38.6994 13.2749
" />
<path d="M38.6994 13.2749
L38.7375 13.2559
" />
<path d="M38.7375 13.2559
L38.8137 13.2559
" />
<path d="M38.8137 13.2559
L38.8518 13.2749
" />
<path d="M39.1946 13.5035
L39.1565 13.5225
" />
<path d="M39.1565 13.5225
L39.0804 13.5225
" />
<path d="M39.0804 13.5225
L39.0423 13.5035
" />
<path d="M39.0423 13.5035
L39.0232 13.4654
" />
<path d="M39.0232 13.4654
L39.0232 13.3130
" />
<path d="M39.0232 13.3130
L39.0423 13.2749
" />
<path d="M39.0423 13.2749
L39.0804 13.2559
" />
<path d="M39.0804 13.2559
L39.1565 13.2559
" />
<path d="M39.1565 13.2559
L39.1946 13.2749
" />
<path d="M39.1946 13.2749
L39.2137 13.3130
" />
<path d="M39.2137 13.3130
L39.2137 13.3511
" />
<path d="M39.2137 13.3511
L39.0232 13.3892
" />
<path d="M39.3280 13.2559
L39.4804 13.2559
" />
<path d="M39.3851 13.1225
L39.3851 13.4654
" />
<path d="M39.3851 13.4654
L39.4042 13.5035
" />
<path d="M39.4042 13.5035
L39.4423 13.5225
" />
<path d="M39.4423 13.5225
L39.4804 13.5225
" />
<path d="M39.7661 13.5035
L39.7280 13.5225
" />
<path d="M39.7280 13.5225
L39.6518 13.5225
" />
<path d="M39.6518 13.5225
L39.6137 13.5035
" />
<path d="M39.6137 13.5035
L39.5946 13.4654
" />
<path d="M39.5946 13.4654
L39.5946 13.3130
" />
<path d="M39.5946 13.3130
L39.6137 13.2749
" />
<path d="M39.6137 13.2749
L39.6518 13.2559
" />
<path d="M39.6518 13.2559
L39.7280 13.2559
" />
<path d="M39.7280 13.2559
L39.7661 13.2749
" />
<path d="M39.7661 13.2749
L39.7851 13.3130
" />
<path d="M39.7851 13.3130
L39.7851 13.3511
" />
<path d="M39.7851 13.3511
L39.5946 13.3892
" />
<path d="M40.1280 13.5035
L40.0899 13.5225
" />
<path d="M40.0899 13.5225
L40.0137 13.5225
" />
<path d="M40.0137 13.5225
L39.9756 13.5035
" />
<path d="M39.9756 13.5035
L39.9565 13.4845
" />
<path d="M39.9565 13.4845
L39.9375 13.4464
" />
<path d="M39.9375 13.4464
L39.9375 13.3321
" />
<path d="M39.9375 13.3321
L39.9565 13.2940
" />
<path d="M39.9565 13.2940
L39.9756 13.2749
" />
<path d="M39.9756 13.2749
L40.0137 13.2559
" />
<path d="M40.0137 13.2559
L40.0899 13.2559
" />
<path d="M40.0899 13.2559
L40.1280 13.2749
" />
<path d="M40.2423 13.2559
L40.3946 13.2559
" />
<path d="M40.2994 13.1225
L40.2994 13.4654
" />
<path d="M40.2994 13.4654
L40.3185 13.5035
" />
<path d="M40.3185 13.5035
L40.3565 13.5225
" />
<path d="M40.3565 13.5225
L40.3946 13.5225
" />
<path d="M40.5851 13.5225
L40.5470 13.5035
" />
<path d="M40.5470 13.5035
L40.5280 13.4845
" />
<path d="M40.5280 13.4845
L40.5089 13.4464
" />
<path d="M40.5089 13.4464
L40.5089 13.3321
" />
<path d="M40.5089 13.3321
L40.5280 13.2940
" />
<path d="M40.5280 13.2940
L40.5470 13.2749
" />
<path d="M40.5470 13.2749
L40.5851 13.2559
" />
<path d="M40.5851 13.2559
L40.6423 13.2559
" />
<path d="M40.6423 13.2559
L40.6804 13.2749
" />
<path d="M40.6804 13.2749
L40.6994 13.2940
" />
<path d="M40.6994 13.2940
L40.7185 13.3321
" />
<path d="M40.7185 13.3321
L40.7185 13.4464
" />
<path d="M40.7185 13.4464
L40.6994 13.4845
" />
<path d="M40.6994 13.4845
L40.6804 13.5035
" />
<path d="M40.6804 13.5035
L40.6423 13.5225
" />
<path d="M40.6423 13.5225
L40.5851 13.5225
" />
<path d="M40.8899 13.5225
L40.8899 13.2559
" />
<path d="M40.8899 13.3321
L40.9089 13.2940
" />
<path d="M40.9089 13.2940
L40.9280 13.2749
" />
<path d="M40.9280 13.2749
L40.9661 13.2559
" />
<path d="M40.9661 13.2559
L41.0042 13.2559
" />
</g></g>
<g style="fill:#000000; fill-opacity:0.0; 
stroke:#000000; stroke-width:0.1250; stroke-opacity:1; 
stroke-linecap:round; stroke-linejoin:round;">
<text x="37.2542" y="28.2775"
textLength="6.9506" font-size="0.6667" lengthAdjust="spacingAndGlyphs"
text-anchor="middle" opacity="0">wingbeat detector</text>
<g class="stroked-text"><desc>wingbeat detector</desc>
<path d="M33.9565 27.9255
L34.0518 28.2588
" />
<path d="M34.0518 28.2588
L34.1470 28.0207
" />
<path d="M34.1470 28.0207
L34.2423 28.2588
" />
<path d="M34.2423 28.2588
L34.3375 27.9255
" />
<path d="M34.5280 28.2588
L34.5280 27.9255
" />
<path d="M34.5280 27.7588
L34.5042 27.7826
" />
<path d="M34.5042 27.7826
L34.5280 27.8064
" />
<path d="M34.5280 27.8064
L34.5518 27.7826
" />
<path d="M34.5518 27.7826
L34.5280 27.7588
" />
<path d="M34.5280 27.7588
L34.5280 27.8064
" />
<path d="M34.7661 27.9255
L34.7661 28.2588
" />
<path d="M34.7661 27.9731
L34.7899 27.9493
" />
<path d="M34.7899 27.9493
L34.8375 27.9255
" />
<path d="M34.8375 27.9255
L34.9089 27.9255
" />
<path d="M34.9089 27.9255
L34.9565 27.9493
" />
<path d="M34.9565 27.9493
L34.9804 27.9969
" />
<path d="M34.9804 27.9969
L34.9804 28.2588
" />
<path d="M35.4327 27.9255
L35.4327 28.3302
" />
<path d="M35.4327 28.3302
L35.4089 28.3779
" />
<path d="M35.4089 28.3779
L35.3851 28.4017
" />
<path d="M35.3851 28.4017
L35.3375 28.4255
" />
<path d="M35.3375 28.4255
L35.2661 28.4255
" />
<path d="M35.2661 28.4255
L35.2185 28.4017
" />
<path d="M35.4327 28.2350
L35.3851 28.2588
" />
<path d="M35.3851 28.2588
L35.2899 28.2588
" />
<path d="M35.2899 28.2588
L35.2423 28.2350
" />
<path d="M35.2423 28.2350
L35.2185 28.2112
" />
<path d="M35.2185 28.2112
L35.1946 28.1636
" />
<path d="M35.1946 28.1636
L35.1946 28.0207
" />
<path d="M35.1946 28.0207
L35.2185 27.9731
" />
<path d="M35.2185 27.9731
L35.2423 27.9493
" />
<path d="M35.2423 27.9493
L35.2899 27.9255
" />
<path d="M35.2899 27.9255
L35.3851 27.9255
" />
<path d="M35.3851 27.9255
L35.4327 27.9493
" />
<path d="M35.6708 28.2588
L35.6708 27.7588
" />
<path d="M35.6708 27.9493
L35.7185 27.9255
" />
<path d="M35.7185 27.9255
L35.8137 27.9255
" />
<path d="M35.8137 27.9255
L35.8613 27.9493
" />
<path d="M35.8613 27.9493
L35.8851 27.9731
" />
<path d="M35.8851 27.9731
L35.9089 28.0207
" />
<path d="M35.9089 28.0207
L35.9089 28.1636
" />
<path d="M35.9089 28.1636
L35.8851 28.2112
" />
<path d="M35.8851 28.2112
L35.8613 28.2350
" />
<path d="M35.8613 28.2350
L35.8137 28.2588
" />
<path d="M35.8137 28.2588
L35.7185 28.2588
" />
<path d="M35.7185 28.2588
L35.6708 28.2350
" />
<path d="M36.3137 28.2350
L36.2661 28.2588
" />
<path d="M36.2661 28.2588
L36.1708 28.2588
" />
<path d="M36.1708 28.2588
L36.1232 28.2350
" />
<path d="M36.1232 28.2350
L36.0994 28.1874
" />
<path d="M36.0994 28.1874
L36.0994 27.9969
" />
<path d="M36.0994 27.9969
L36.1232 27.9493
" />
<path d="M36.1232 27.9493
L36.1708 27.9255
" />
<path d="M36.1708 27.9255
L36.2661 27.9255
" />
<path d="M36.2661 27.9255
L36.3137 27.9493
" />
<path d="M36.3137 27.9493
L36.3375 27.9969
" />
<path d="M36.3375 27.9969
L36.3375 28.0445
" />
<path d="M36.3375 28.0445
L36.0994 28.0921
" />
<path d="M36.7661 28.2588
L36.7661 27.9969
" />
<path d="M36.7661 27.9969
L36.7423 27.9493
" />
<path d="M36.7423 27.9493
L36.6946 27.9255
" />
<path d="M36.6946 27.9255
L36.5994 27.9255
" />
<path d="M36.5994 27.9255
L36.5518 27.9493
" />
<path d="M36.7661 28.2350
L36.7185 28.2588
" />
<path d="M36.7185 28.2588
L36.5994 28.2588
" />
<path d="M36.5994 28.2588
L36.5518 28.2350
" />
<path d="M36.5518 28.2350
L36.5280 28.1874
" />
<path d="M36.5280 28.1874
L36.5280 28.1398
" />
<path d="M36.5280 28.1398
L36.5518 28.0921
" />
<path d="M36.5518 28.0921
L36.5994 28.0683
" />
<path d="M36.5994 28.0683
L36.7185 28.0683
" />
<path d="M36.7185 28.0683
L36.7661 28.0445
" />
<path d="M36.9327 27.9255
L37.1232 27.9255
" />
<path d="M37.0042 27.7588
L37.0042 28.1874
" />
<path d="M37.0042 28.1874
L37.0280 28.2350
" />
<path d="M37.0280 28.2350
L37.0756 28.2588
" />
<path d="M37.0756 28.2588
L37.1232 28.2588
" />
<path d="M37.8851 28.2588
L37.8851 27.7588
" />
<path d="M37.8851 28.2350
L37.8375 28.2588
" />
<path d="M37.8375 28.2588
L37.7423 28.2588
" />
<path d="M37.7423 28.2588
L37.6946 28.2350
" />
<path d="M37.6946 28.2350
L37.6708 28.2112
" />
<path d="M37.6708 28.2112
L37.6470 28.1636
" />
<path d="M37.6470 28.1636
L37.6470 28.0207
" />
<path d="M37.6470 28.0207
L37.6708 27.9731
" />
<path d="M37.6708 27.9731
L37.6946 27.9493
" />
<path d="M37.6946 27.9493
L37.7423 27.9255
" />
<path d="M37.7423 27.9255
L37.8375 27.9255
" />
<path d="M37.8375 27.9255
L37.8851 27.9493
" />
<path d="M38.3137 28.2350
L38.2661 28.2588
" />
<path d="M38.2661 28.2588
L38.1708 28.2588
" />
<path d="M38.1708 28.2588
L38.1232 28.2350
" />
<path d="M38.1232 28.2350
L38.0994 28.1874
" />
<path d="M38.0994 28.1874
L38.0994 27.9969
" />
<path d="M38.0994 27.9969
L38.1232 27.9493
" />
<path d="M38.1232 27.9493
L38.1708 27.9255
" />
<path d="M38.1708 27.9255
L38.2661 27.9255
" />
<path d="M38.2661 27.9255
L38.3137 27.9493
" />
<path d="M38.3137 27.9493
L38.3375 27.9969
" />
<path d="M38.3375 27.9969
L38.3375 28.0445
" />
<path d="M38.3375 28.0445
L38.0994 28.0921
" />
<path d="M38.4804 27.9255
L38.6708 27.9255
" />
<path d="M38.5518 27.7588
L38.5518 28.1874
" />
<path d="M38.5518 28.1874
L38.5756 28.2350
" />
<path d="M38.5756 28.2350
L38.6232 28.2588
" />
<path d="M38.6232 28.2588
L38.6708 28.2588
" />
<path d="M39.0280 28.2350
L38.9804 28.2588
" />
<path d="M38.9804 28.2588
L38.8851 28.2588
" />
<path d="M38.8851 28.2588
L38.8375 28.2350
" />
<path d="M38.8375 28.2350
L38.8137 28.1874
" />
<path d="M38.8137 28.1874
L38.8137 27.9969
" />
<path d="M38.8137 27.9969
L38.8375 27.9493
" />
<path d="M38.8375 27.9493
L38.8851 27.9255
" />
<path d="M38.8851 27.9255
L38.9804 27.9255
" />
<path d="M38.9804 27.9255
L39.0280 27.9493
" />
<path d="M39.0280 27.9493
L39.0518 27.9969
" />
<path d="M39.0518 27.9969
L39.0518 28.0445
" />
<path d="M39.0518 28.0445
L38.8137 28.0921
" />
<path d="M39.4804 28.2350
L39.4327 28.2588
" />
<path d="M39.4327 28.2588
L39.3375 28.2588
" />
<path d="M39.3375 28.2588
L39.2899 28.2350
" />
<path d="M39.2899 28.2350
L39.2661 28.2112
" />
<path d="M39.2661 28.2112
L39.2423 28.1636
" />
<path d="M39.2423 28.1636
L39.2423 28.0207
" />
<path d="M39.2423 28.0207
L39.2661 27.9731
" />
<path d="M39.2661 27.9731
L39.2899 27.9493
" />
<path d="M39.2899 27.9493
L39.3375 27.9255
" />
<path d="M39.3375 27.9255
L39.4327 27.9255
" />
<path d="M39.4327 27.9255
L39.4804 27.9493
" />
<path d="M39.6232 27.9255
L39.8137 27.9255
" />
<path d="M39.6946 27.7588
L39.6946 28.1874
" />
<path d="M39.6946 28.1874
L39.7185 28.2350
" />
<path d="M39.7185 28.2350
L39.7661 28.2588
" />
<path d="M39.7661 28.2588
L39.8137 28.2588
" />
<path d="M40.0518 28.2588
L40.0042 28.2350
" />
<path d="M40.0042 28.2350
L39.9804 28.2112
" />
<path d="M39.9804 28.2112
L39.9565 28.1636
" />
<path d="M39.9565 28.1636
L39.9565 28.0207
" />
<path d="M39.9565 28.0207
L39.9804 27.9731
" />
<path d="M39.9804 27.9731
L40.0042 27.9493
" />
<path d="M40.0042 27.9493
L40.0518 27.9255
" />
<path d="M40.0518 27.9255
L40.1232 27.9255
" />
<path d="M40.1232 27.9255
L40.1708 27.9493
" />
<path d="M40.1708 27.9493
L40.1946 27.9731
" />
<path d="M40.1946 27.9731
L40.2184 28.0207
" />
<path d="M40.2184 28.0207
L40.2184 28.1636
" />
<path d="M40.2184 28.1636
L40.1946 28.2112
" />
<path d="M40.1946 28.2112
L40.1708 28.2350
" />
<path d="M40.1708 28.2350
L40.1232 28.2588
" />
<path d="M40.1232 28.2588
L40.0518 28.2588
" />
<path d="M40.4327 28.2588
L40.4327 27.9255
" />
<path d="M40.4327 28.0207
L40.4565 27.9731
" />
<path d="M40.4565 27.9731
L40.4804 27.9493
" />
<path d="M40.4804 27.9493
L40.5280 27.9255
" />
<path d="M40.5280 27.9255
L40.5756 27.9255
" />
</g><text x="37.2542" y="29.0875"
textLength="5.5458" font-size="0.6667" lengthAdjust="spacingAndGlyphs"
text-anchor="middle" opacity="0">v3.1 03/2023</text>
<g class="stroked-text"><desc>v3.1 03/2023</desc>
<path d="M34.6589 28.7355
L34.7780 29.0688
" />
<path d="M34.7780 29.0688
L34.8970 28.7355
" />
<path d="M35.0399 28.5688
L35.3494 28.5688
" />
<path d="M35.3494 28.5688
L35.1827 28.7593
" />
<path d="M35.1827 28.7593
L35.2542 28.7593
" />
<path d="M35.2542 28.7593
L35.3018 28.7831
" />
<path d="M35.3018 28.7831
L35.3256 28.8069
" />
<path d="M35.3256 28.8069
L35.3494 28.8545
" />
<path d="M35.3494 28.8545
L35.3494 28.9736
" />
<path d="M35.3494 28.9736
L35.3256 29.0212
" />
<path d="M35.3256 29.0212
L35.3018 29.0450
" />
<path d="M35.3018 29.0450
L35.2542 29.0688
" />
<path d="M35.2542 29.0688
L35.1113 29.0688
" />
<path d="M35.1113 29.0688
L35.0637 29.0450
" />
<path d="M35.0637 29.0450
L35.0399 29.0212
" />
<path d="M35.5637 29.0212
L35.5875 29.0450
" />
<path d="M35.5875 29.0450
L35.5637 29.0688
" />
<path d="M35.5637 29.0688
L35.5399 29.0450
" />
<path d="M35.5399 29.0450
L35.5637 29.0212
" />
<path d="M35.5637 29.0212
L35.5637 29.0688
" />
<path d="M36.0637 29.0688
L35.7780 29.0688
" />
<path d="M35.9208 29.0688
L35.9208 28.5688
" />
<path d="M35.9208 28.5688
L35.8732 28.6402
" />
<path d="M35.8732 28.6402
L35.8256 28.6879
" />
<path d="M35.8256 28.6879
L35.7780 28.7117
" />
<path d="M36.7542 28.5688
L36.8018 28.5688
" />
<path d="M36.8018 28.5688
L36.8494 28.5926
" />
<path d="M36.8494 28.5926
L36.8732 28.6164
" />
<path d="M36.8732 28.6164
L36.8970 28.6640
" />
<path d="M36.8970 28.6640
L36.9208 28.7593
" />
<path d="M36.9208 28.7593
L36.9208 28.8783
" />
<path d="M36.9208 28.8783
L36.8970 28.9736
" />
<path d="M36.8970 28.9736
L36.8732 29.0212
" />
<path d="M36.8732 29.0212
L36.8494 29.0450
" />
<path d="M36.8494 29.0450
L36.8018 29.0688
" />
<path d="M36.8018 29.0688
L36.7542 29.0688
" />
<path d="M36.7542 29.0688
L36.7065 29.0450
" />
<path d="M36.7065 29.0450
L36.6827 29.0212
" />
<path d="M36.6827 29.0212
L36.6589 28.9736
" />
<path d="M36.6589 28.9736
L36.6351 28.8783
" />
<path d="M36.6351 28.8783
L36.6351 28.7593
" />
<path d="M36.6351 28.7593
L36.6589 28.6640
" />
<path d="M36.6589 28.6640
L36.6827 28.6164
" />
<path d="M36.6827 28.6164
L36.7065 28.5926
" />
<path d="M36.7065 28.5926
L36.7542 28.5688
" />
<path d="M37.0875 28.5688
L37.3970 28.5688
" />
<path d="M37.3970 28.5688
L37.2304 28.7593
" />
<path d="M37.2304 28.7593
L37.3018 28.7593
" />
<path d="M37.3018 28.7593
L37.3494 28.7831
" />
<path d="M37.3494 28.7831
L37.3732 28.8069
" />
<path d="M37.3732 28.8069
L37.3970 28.8545
" />
<path d="M37.3970 28.8545
L37.3970 28.9736
" />
<path d="M37.3970 28.9736
L37.3732 29.0212
" />
<path d="M37.3732 29.0212
L37.3494 29.0450
" />
<path d="M37.3494 29.0450
L37.3018 29.0688
" />
<path d="M37.3018 29.0688
L37.1589 29.0688
" />
<path d="M37.1589 29.0688
L37.1113 29.0450
" />
<path d="M37.1113 29.0450
L37.0875 29.0212
" />
<path d="M37.9685 28.5450
L37.5399 29.1879
" />
<path d="M38.1113 28.6164
L38.1351 28.5926
" />
<path d="M38.1351 28.5926
L38.1827 28.5688
" />
<path d="M38.1827 28.5688
L38.3018 28.5688
" />
<path d="M38.3018 28.5688
L38.3494 28.5926
" />
<path d="M38.3494 28.5926
L38.3732 28.6164
" />
<path d="M38.3732 28.6164
L38.3970 28.6640
" />
<path d="M38.3970 28.6640
L38.3970 28.7117
" />
<path d="M38.3970 28.7117
L38.3732 28.7831
" />
<path d="M38.3732 28.7831
L38.0875 29.0688
" />
<path d="M38.0875 29.0688
L38.3970 29.0688
" />
<path d="M38.7065 28.5688
L38.7542 28.5688
" />
<path d="M38.7542 28.5688
L38.8018 28.5926
" />
<path d="M38.8018 28.5926
L38.8256 28.6164
" />
<path d="M38.8256 28.6164
L38.8494 28.6640
" />
<path d="M38.8494 28.6640
L38.8732 28.7593
" />
<path d="M38.8732 28.7593
L38.8732 28.8783
" />
<path d="M38.8732 28.8783
L38.8494 28.9736
" />
<path d="M38.8494 28.9736
L38.8256 29.0212
" />
<path d="M38.8256 29.0212
L38.8018 29.0450
" />
<path d="M38.8018 29.0450
L38.7542 29.0688
" />
<path d="M38.7542 29.0688
L38.7065 29.0688
" />
<path d="M38.7065 29.0688
L38.6589 29.0450
" />
<path d="M38.6589 29.0450
L38.6351 29.0212
" />
<path d="M38.6351 29.0212
L38.6113 28.9736
" />
<path d="M38.6113 28.9736
L38.5875 28.8783
" />
<path d="M38.5875 28.8783
L38.5875 28.7593
" />
<path d="M38.5875 28.7593
L38.6113 28.6640
" />
<path d="M38.6113 28.6640
L38.6351 28.6164
" />
<path d="M38.6351 28.6164
L38.6589 28.5926
" />
<path d="M38.6589 28.5926
L38.7065 28.5688
" />
<path d="M39.0637 28.6164
L39.0875 28.5926
" />
<path d="M39.0875 28.5926
L39.1351 28.5688
" />
<path d="M39.1351 28.5688
L39.2542 28.5688
" />
<path d="M39.2542 28.5688
L39.3018 28.5926
" />
<path d="M39.3018 28.5926
L39.3256 28.6164
" />
<path d="M39.3256 28.6164
L39.3494 28.6640
" />
<path d="M39.3494 28.6640
L39.3494 28.7117
" />
<path d="M39.3494 28.7117
L39.3256 28.7831
" />
<path d="M39.3256 28.7831
L39.0399 29.0688
" />
<path d="M39.0399 29.0688
L39.3494 29.0688
" />
<path d="M39.5161 28.5688
L39.8256 28.5688
" />
<path d="M39.8256 28.5688
L39.6589 28.7593
" />
<path d="M39.6589 28.7593
L39.7304 28.7593
" />
<path d="M39.7304 28.7593
L39.7780 28.7831
" />
<path d="M39.7780 28.7831
L39.8018 28.8069
" />
<path d="M39.8018 28.8069
L39.8256 28.8545
" />
<path d="M39.8256 28.8545
L39.8256 28.9736
" />
<path d="M39.8256 28.9736
L39.8018 29.0212
" />
<path d="M39.8018 29.0212
L39.7780 29.0450
" />
<path d="M39.7780 29.0450
L39.7304 29.0688
" />
<path d="M39.7304 29.0688
L39.5875 29.0688
" />
<path d="M39.5875 29.0688
L39.5399 29.0450
" />
<path d="M39.5399 29.0450
L39.5161 29.0212
" />
</g><text x="37.2542" y="29.8975"
textLength="6.7601" font-size="0.6667" lengthAdjust="spacingAndGlyphs"
text-anchor="middle" opacity="0">peter@polidoro.io</text>
<g class="stroked-text"><desc>peter@polidoro.io</desc>
<path d="M34.0994 29.5455
L34.0994 30.0455
" />
<path d="M34.0994 29.5693
L34.1470 29.5455
" />
<path d="M34.1470 29.5455
L34.2423 29.5455
" />
<path d="M34.2423 29.5455
L34.2899 29.5693
" />
<path d="M34.2899 29.5693
L34.3137 29.5931
" />
<path d="M34.3137 29.5931
L34.3375 29.6407
" />
<path d="M34.3375 29.6407
L34.3375 29.7836
" />
<path d="M34.3375 29.7836
L34.3137 29.8312
" />
<path d="M34.3137 29.8312
L34.2899 29.8550
" />
<path d="M34.2899 29.8550
L34.2423 29.8788
" />
<path d="M34.2423 29.8788
L34.1470 29.8788
" />
<path d="M34.1470 29.8788
L34.0994 29.8550
" />
<path d="M34.7423 29.8550
L34.6946 29.8788
" />
<path d="M34.6946 29.8788
L34.5994 29.8788
" />
<path d="M34.5994 29.8788
L34.5518 29.8550
" />
<path d="M34.5518 29.8550
L34.5280 29.8074
" />
<path d="M34.5280 29.8074
L34.5280 29.6169
" />
<path d="M34.5280 29.6169
L34.5518 29.5693
" />
<path d="M34.5518 29.5693
L34.5994 29.5455
" />
<path d="M34.5994 29.5455
L34.6946 29.5455
" />
<path d="M34.6946 29.5455
L34.7423 29.5693
" />
<path d="M34.7423 29.5693
L34.7661 29.6169
" />
<path d="M34.7661 29.6169
L34.7661 29.6645
" />
<path d="M34.7661 29.6645
L34.5280 29.7121
" />
<path d="M34.9089 29.5455
L35.0994 29.5455
" />
<path d="M34.9804 29.3788
L34.9804 29.8074
" />
<path d="M34.9804 29.8074
L35.0042 29.8550
" />
<path d="M35.0042 29.8550
L35.0518 29.8788
" />
<path d="M35.0518 29.8788
L35.0994 29.8788
" />
<path d="M35.4565 29.8550
L35.4089 29.8788
" />
<path d="M35.4089 29.8788
L35.3137 29.8788
" />
<path d="M35.3137 29.8788
L35.2661 29.8550
" />
<path d="M35.2661 29.8550
L35.2423 29.8074
" />
<path d="M35.2423 29.8074
L35.2423 29.6169
" />
<path d="M35.2423 29.6169
L35.2661 29.5693
" />
<path d="M35.2661 29.5693
L35.3137 29.5455
" />
<path d="M35.3137 29.5455
L35.4089 29.5455
" />
<path d="M35.4089 29.5455
L35.4565 29.5693
" />
<path d="M35.4565 29.5693
L35.4804 29.6169
" />
<path d="M35.4804 29.6169
L35.4804 29.6645
" />
<path d="M35.4804 29.6645
L35.2423 29.7121
" />
<path d="M35.6946 29.8788
L35.6946 29.5455
" />
<path d="M35.6946 29.6407
L35.7185 29.5931
" />
<path d="M35.7185 29.5931
L35.7423 29.5693
" />
<path d="M35.7423 29.5693
L35.7899 29.5455
" />
<path d="M35.7899 29.5455
L35.8375 29.5455
" />
<path d="M36.3137 29.6407
L36.2899 29.6169
" />
<path d="M36.2899 29.6169
L36.2423 29.5931
" />
<path d="M36.2423 29.5931
L36.1946 29.5931
" />
<path d="M36.1946 29.5931
L36.1470 29.6169
" />
<path d="M36.1470 29.6169
L36.1232 29.6407
" />
<path d="M36.1232 29.6407
L36.0994 29.6883
" />
<path d="M36.0994 29.6883
L36.0994 29.7360
" />
<path d="M36.0994 29.7360
L36.1232 29.7836
" />
<path d="M36.1232 29.7836
L36.1470 29.8074
" />
<path d="M36.1470 29.8074
L36.1946 29.8312
" />
<path d="M36.1946 29.8312
L36.2423 29.8312
" />
<path d="M36.2423 29.8312
L36.2899 29.8074
" />
<path d="M36.2899 29.8074
L36.3137 29.7836
" />
<path d="M36.3137 29.5931
L36.3137 29.7836
" />
<path d="M36.3137 29.7836
L36.3375 29.8074
" />
<path d="M36.3375 29.8074
L36.3613 29.8074
" />
<path d="M36.3613 29.8074
L36.4089 29.7836
" />
<path d="M36.4089 29.7836
L36.4327 29.7360
" />
<path d="M36.4327 29.7360
L36.4327 29.6169
" />
<path d="M36.4327 29.6169
L36.3851 29.5455
" />
<path d="M36.3851 29.5455
L36.3137 29.4979
" />
<path d="M36.3137 29.4979
L36.2185 29.4740
" />
<path d="M36.2185 29.4740
L36.1232 29.4979
" />
<path d="M36.1232 29.4979
L36.0518 29.5455
" />
<path d="M36.0518 29.5455
L36.0042 29.6169
" />
<path d="M36.0042 29.6169
L35.9804 29.7121
" />
<path d="M35.9804 29.7121
L36.0042 29.8074
" />
<path d="M36.0042 29.8074
L36.0518 29.8788
" />
<path d="M36.0518 29.8788
L36.1232 29.9264
" />
<path d="M36.1232 29.9264
L36.2185 29.9502
" />
<path d="M36.2185 29.9502
L36.3137 29.9264
" />
<path d="M36.3137 29.9264
L36.3851 29.8788
" />
<path d="M36.6470 29.5455
L36.6470 30.0455
" />
<path d="M36.6470 29.5693
L36.6946 29.5455
" />
<path d="M36.6946 29.5455
L36.7899 29.5455
" />
<path d="M36.7899 29.5455
L36.8375 29.5693
" />
<path d="M36.8375 29.5693
L36.8613 29.5931
" />
<path d="M36.8613 29.5931
L36.8851 29.6407
" />
<path d="M36.8851 29.6407
L36.8851 29.7836
" />
<path d="M36.8851 29.7836
L36.8613 29.8312
" />
<path d="M36.8613 29.8312
L36.8375 29.8550
" />
<path d="M36.8375 29.8550
L36.7899 29.8788
" />
<path d="M36.7899 29.8788
L36.6946 29.8788
" />
<path d="M36.6946 29.8788
L36.6470 29.8550
" />
<path d="M37.1708 29.8788
L37.1232 29.8550
" />
<path d="M37.1232 29.8550
L37.0994 29.8312
" />
<path d="M37.0994 29.8312
L37.0756 29.7836
" />
<path d="M37.0756 29.7836
L37.0756 29.6407
" />
<path d="M37.0756 29.6407
L37.0994 29.5931
" />
<path d="M37.0994 29.5931
L37.1232 29.5693
" />
<path d="M37.1232 29.5693
L37.1708 29.5455
" />
<path d="M37.1708 29.5455
L37.2423 29.5455
" />
<path d="M37.2423 29.5455
L37.2899 29.5693
" />
<path d="M37.2899 29.5693
L37.3137 29.5931
" />
<path d="M37.3137 29.5931
L37.3375 29.6407
" />
<path d="M37.3375 29.6407
L37.3375 29.7836
" />
<path d="M37.3375 29.7836
L37.3137 29.8312
" />
<path d="M37.3137 29.8312
L37.2899 29.8550
" />
<path d="M37.2899 29.8550
L37.2423 29.8788
" />
<path d="M37.2423 29.8788
L37.1708 29.8788
" />
<path d="M37.6232 29.8788
L37.5756 29.8550
" />
<path d="M37.5756 29.8550
L37.5518 29.8074
" />
<path d="M37.5518 29.8074
L37.5518 29.3788
" />
<path d="M37.8137 29.8788
L37.8137 29.5455
" />
<path d="M37.8137 29.3788
L37.7899 29.4026
" />
<path d="M37.7899 29.4026
L37.8137 29.4264
" />
<path d="M37.8137 29.4264
L37.8375 29.4026
" />
<path d="M37.8375 29.4026
L37.8137 29.3788
" />
<path d="M37.8137 29.3788
L37.8137 29.4264
" />
<path d="M38.2661 29.8788
L38.2661 29.3788
" />
<path d="M38.2661 29.8550
L38.2185 29.8788
" />
<path d="M38.2185 29.8788
L38.1232 29.8788
" />
<path d="M38.1232 29.8788
L38.0756 29.8550
" />
<path d="M38.0756 29.8550
L38.0518 29.8312
" />
<path d="M38.0518 29.8312
L38.0280 29.7836
" />
<path d="M38.0280 29.7836
L38.0280 29.6407
" />
<path d="M38.0280 29.6407
L38.0518 29.5931
" />
<path d="M38.0518 29.5931
L38.0756 29.5693
" />
<path d="M38.0756 29.5693
L38.1232 29.5455
" />
<path d="M38.1232 29.5455
L38.2185 29.5455
" />
<path d="M38.2185 29.5455
L38.2661 29.5693
" />
<path d="M38.5756 29.8788
L38.5280 29.8550
" />
<path d="M38.5280 29.8550
L38.5042 29.8312
" />
<path d="M38.5042 29.8312
L38.4804 29.7836
" />
<path d="M38.4804 29.7836
L38.4804 29.6407
" />
<path d="M38.4804 29.6407
L38.5042 29.5931
" />
<path d="M38.5042 29.5931
L38.5280 29.5693
" />
<path d="M38.5280 29.5693
L38.5756 29.5455
" />
<path d="M38.5756 29.5455
L38.6470 29.5455
" />
<path d="M38.6470 29.5455
L38.6946 29.5693
" />
<path d="M38.6946 29.5693
L38.7185 29.5931
" />
<path d="M38.7185 29.5931
L38.7423 29.6407
" />
<path d="M38.7423 29.6407
L38.7423 29.7836
" />
<path d="M38.7423 29.7836
L38.7185 29.8312
" />
<path d="M38.7185 29.8312
L38.6946 29.8550
" />
<path d="M38.6946 29.8550
L38.6470 29.8788
" />
<path d="M38.6470 29.8788
L38.5756 29.8788
" />
<path d="M38.9565 29.8788
L38.9565 29.5455
" />
<path d="M38.9565 29.6407
L38.9804 29.5931
" />
<path d="M38.9804 29.5931
L39.0042 29.5693
" />
<path d="M39.0042 29.5693
L39.0518 29.5455
" />
<path d="M39.0518 29.5455
L39.0994 29.5455
" />
<path d="M39.3375 29.8788
L39.2899 29.8550
" />
<path d="M39.2899 29.8550
L39.2661 29.8312
" />
<path d="M39.2661 29.8312
L39.2423 29.7836
" />
<path d="M39.2423 29.7836
L39.2423 29.6407
" />
<path d="M39.2423 29.6407
L39.2661 29.5931
" />
<path d="M39.2661 29.5931
L39.2899 29.5693
" />
<path d="M39.2899 29.5693
L39.3375 29.5455
" />
<path d="M39.3375 29.5455
L39.4089 29.5455
" />
<path d="M39.4089 29.5455
L39.4565 29.5693
" />
<path d="M39.4565 29.5693
L39.4804 29.5931
" />
<path d="M39.4804 29.5931
L39.5042 29.6407
" />
<path d="M39.5042 29.6407
L39.5042 29.7836
" />
<path d="M39.5042 29.7836
L39.4804 29.8312
" />
<path d="M39.4804 29.8312
L39.4565 29.8550
" />
<path d="M39.4565 29.8550
L39.4089 29.8788
" />
<path d="M39.4089 29.8788
L39.3375 29.8788
" />
<path d="M39.7185 29.8312
L39.7423 29.8550
" />
<path d="M39.7423 29.8550
L39.7185 29.8788
" />
<path d="M39.7185 29.8788
L39.6946 29.8550
" />
<path d="M39.6946 29.8550
L39.7185 29.8312
" />
<path d="M39.7185 29.8312
L39.7185 29.8788
" />
<path d="M39.9565 29.8788
L39.9565 29.5455
" />
<path d="M39.9565 29.3788
L39.9327 29.4026
" />
<path d="M39.9327 29.4026
L39.9565 29.4264
" />
<path d="M39.9565 29.4264
L39.9804 29.4026
" />
<path d="M39.9804 29.4026
L39.9565 29.3788
" />
<path d="M39.9565 29.3788
L39.9565 29.4264
" />
<path d="M40.2661 29.8788
L40.2185 29.8550
" />
<path d="M40.2185 29.8550
L40.1946 29.8312
" />
<path d="M40.1946 29.8312
L40.1708 29.7836
" />
<path d="M40.1708 29.7836
L40.1708 29.6407
" />
<path d="M40.1708 29.6407
L40.1946 29.5931
" />
<path d="M40.1946 29.5931
L40.2185 29.5693
" />
<path d="M40.2185 29.5693
L40.2661 29.5455
" />
<path d="M40.2661 29.5455
L40.3375 29.5455
" />
<path d="M40.3375 29.5455
L40.3851 29.5693
" />
<path d="M40.3851 29.5693
L40.4089 29.5931
" />
<path d="M40.4089 29.5931
L40.4327 29.6407
" />
<path d="M40.4327 29.6407
L40.4327 29.7836
" />
<path d="M40.4327 29.7836
L40.4089 29.8312
" />
<path d="M40.4089 29.8312
L40.3851 29.8550
" />
<path d="M40.3851 29.8550
L40.3375 29.8788
" />
<path d="M40.3375 29.8788
L40.2661 29.8788
" />
</g><text x="11.5042" y="25.1825"
textLength="4.3315" font-size="0.6667" lengthAdjust="spacingAndGlyphs"
text-anchor="middle" opacity="0">photodiode</text>
<g class="stroked-text"><desc>photodiode</desc>
<path d="M9.5637 24.8305
L9.5637 25.3305
" />
<path d="M9.5637 24.8543
L9.6113 24.8305
" />
<path d="M9.6113 24.8305
L9.7065 24.8305
" />
<path d="M9.7065 24.8305
L9.7542 24.8543
" />
<path d="M9.7542 24.8543
L9.7780 24.8781
" />
<path d="M9.7780 24.8781
L9.8018 24.9257
" />
<path d="M9.8018 24.9257
L9.8018 25.0686
" />
<path d="M9.8018 25.0686
L9.7780 25.1162
" />
<path d="M9.7780 25.1162
L9.7542 25.1400
" />
<path d="M9.7542 25.1400
L9.7065 25.1638
" />
<path d="M9.7065 25.1638
L9.6113 25.1638
" />
<path d="M9.6113 25.1638
L9.5637 25.1400
" />
<path d="M10.0161 25.1638
L10.0161 24.6638
" />
<path d="M10.2304 25.1638
L10.2304 24.9019
" />
<path d="M10.2304 24.9019
L10.2065 24.8543
" />
<path d="M10.2065 24.8543
L10.1589 24.8305
" />
<path d="M10.1589 24.8305
L10.0875 24.8305
" />
<path d="M10.0875 24.8305
L10.0399 24.8543
" />
<path d="M10.0399 24.8543
L10.0161 24.8781
" />
<path d="M10.5399 25.1638
L10.4923 25.1400
" />
<path d="M10.4923 25.1400
L10.4685 25.1162
" />
<path d="M10.4685 25.1162
L10.4446 25.0686
" />
<path d="M10.4446 25.0686
L10.4446 24.9257
" />
<path d="M10.4446 24.9257
L10.4685 24.8781
" />
<path d="M10.4685 24.8781
L10.4923 24.8543
" />
<path d="M10.4923 24.8543
L10.5399 24.8305
" />
<path d="M10.5399 24.8305
L10.6113 24.8305
" />
<path d="M10.6113 24.8305
L10.6589 24.8543
" />
<path d="M10.6589 24.8543
L10.6827 24.8781
" />
<path d="M10.6827 24.8781
L10.7065 24.9257
" />
<path d="M10.7065 24.9257
L10.7065 25.0686
" />
<path d="M10.7065 25.0686
L10.6827 25.1162
" />
<path d="M10.6827 25.1162
L10.6589 25.1400
" />
<path d="M10.6589 25.1400
L10.6113 25.1638
" />
<path d="M10.6113 25.1638
L10.5399 25.1638
" />
<path d="M10.8494 24.8305
L11.0399 24.8305
" />
<path d="M10.9208 24.6638
L10.9208 25.0924
" />
<path d="M10.9208 25.0924
L10.9446 25.1400
" />
<path d="M10.9446 25.1400
L10.9923 25.1638
" />
<path d="M10.9923 25.1638
L11.0399 25.1638
" />
<path d="M11.2780 25.1638
L11.2304 25.1400
" />
<path d="M11.2304 25.1400
L11.2065 25.1162
" />
<path d="M11.2065 25.1162
L11.1827 25.0686
" />
<path d="M11.1827 25.0686
L11.1827 24.9257
" />
<path d="M11.1827 24.9257
L11.2065 24.8781
" />
<path d="M11.2065 24.8781
L11.2304 24.8543
" />
<path d="M11.2304 24.8543
L11.2780 24.8305
" />
<path d="M11.2780 24.8305
L11.3494 24.8305
" />
<path d="M11.3494 24.8305
L11.3970 24.8543
" />
<path d="M11.3970 24.8543
L11.4208 24.8781
" />
<path d="M11.4208 24.8781
L11.4446 24.9257
" />
<path d="M11.4446 24.9257
L11.4446 25.0686
" />
<path d="M11.4446 25.0686
L11.4208 25.1162
" />
<path d="M11.4208 25.1162
L11.3970 25.1400
" />
<path d="M11.3970 25.1400
L11.3494 25.1638
" />
<path d="M11.3494 25.1638
L11.2780 25.1638
" />
<path d="M11.8732 25.1638
L11.8732 24.6638
" />
<path d="M11.8732 25.1400
L11.8256 25.1638
" />
<path d="M11.8256 25.1638
L11.7304 25.1638
" />
<path d="M11.7304 25.1638
L11.6827 25.1400
" />
<path d="M11.6827 25.1400
L11.6589 25.1162
" />
<path d="M11.6589 25.1162
L11.6351 25.0686
" />
<path d="M11.6351 25.0686
L11.6351 24.9257
" />
<path d="M11.6351 24.9257
L11.6589 24.8781
" />
<path d="M11.6589 24.8781
L11.6827 24.8543
" />
<path d="M11.6827 24.8543
L11.7304 24.8305
" />
<path d="M11.7304 24.8305
L11.8256 24.8305
" />
<path d="M11.8256 24.8305
L11.8732 24.8543
" />
<path d="M12.1113 25.1638
L12.1113 24.8305
" />
<path d="M12.1113 24.6638
L12.0875 24.6876
" />
<path d="M12.0875 24.6876
L12.1113 24.7114
" />
<path d="M12.1113 24.7114
L12.1351 24.6876
" />
<path d="M12.1351 24.6876
L12.1113 24.6638
" />
<path d="M12.1113 24.6638
L12.1113 24.7114
" />
<path d="M12.4208 25.1638
L12.3732 25.1400
" />
<path d="M12.3732 25.1400
L12.3494 25.1162
" />
<path d="M12.3494 25.1162
L12.3256 25.0686
" />
<path d="M12.3256 25.0686
L12.3256 24.9257
" />
<path d="M12.3256 24.9257
L12.3494 24.8781
" />
<path d="M12.3494 24.8781
L12.3732 24.8543
" />
<path d="M12.3732 24.8543
L12.4208 24.8305
" />
<path d="M12.4208 24.8305
L12.4923 24.8305
" />
<path d="M12.4923 24.8305
L12.5399 24.8543
" />
<path d="M12.5399 24.8543
L12.5637 24.8781
" />
<path d="M12.5637 24.8781
L12.5875 24.9257
" />
<path d="M12.5875 24.9257
L12.5875 25.0686
" />
<path d="M12.5875 25.0686
L12.5637 25.1162
" />
<path d="M12.5637 25.1162
L12.5399 25.1400
" />
<path d="M12.5399 25.1400
L12.4923 25.1638
" />
<path d="M12.4923 25.1638
L12.4208 25.1638
" />
<path d="M13.0161 25.1638
L13.0161 24.6638
" />
<path d="M13.0161 25.1400
L12.9685 25.1638
" />
<path d="M12.9685 25.1638
L12.8732 25.1638
" />
<path d="M12.8732 25.1638
L12.8256 25.1400
" />
<path d="M12.8256 25.1400
L12.8018 25.1162
" />
<path d="M12.8018 25.1162
L12.7780 25.0686
" />
<path d="M12.7780 25.0686
L12.7780 24.9257
" />
<path d="M12.7780 24.9257
L12.8018 24.8781
" />
<path d="M12.8018 24.8781
L12.8256 24.8543
" />
<path d="M12.8256 24.8543
L12.8732 24.8305
" />
<path d="M12.8732 24.8305
L12.9685 24.8305
" />
<path d="M12.9685 24.8305
L13.0161 24.8543
" />
<path d="M13.4446 25.1400
L13.3970 25.1638
" />
<path d="M13.3970 25.1638
L13.3018 25.1638
" />
<path d="M13.3018 25.1638
L13.2542 25.1400
" />
<path d="M13.2542 25.1400
L13.2304 25.0924
" />
<path d="M13.2304 25.0924
L13.2304 24.9019
" />
<path d="M13.2304 24.9019
L13.2542 24.8543
" />
<path d="M13.2542 24.8543
L13.3018 24.8305
" />
<path d="M13.3018 24.8305
L13.3970 24.8305
" />
<path d="M13.3970 24.8305
L13.4446 24.8543
" />
<path d="M13.4446 24.8543
L13.4685 24.9019
" />
<path d="M13.4685 24.9019
L13.4685 24.9495
" />
<path d="M13.4685 24.9495
L13.2304 24.9971
" />
</g><text x="11.5042" y="25.9925"
textLength="3.1411" font-size="0.6667" lengthAdjust="spacingAndGlyphs"
text-anchor="middle" opacity="0">940 nm</text>
<g class="stroked-text"><desc>940 nm</desc>
<path d="M10.1827 25.9738
L10.2780 25.9738
" />
<path d="M10.2780 25.9738
L10.3256 25.9500
" />
<path d="M10.3256 25.9500
L10.3494 25.9262
" />
<path d="M10.3494 25.9262
L10.3970 25.8548
" />
<path d="M10.3970 25.8548
L10.4208 25.7595
" />
<path d="M10.4208 25.7595
L10.4208 25.5690
" />
<path d="M10.4208 25.5690
L10.3970 25.5214
" />
<path d="M10.3970 25.5214
L10.3732 25.4976
" />
<path d="M10.3732 25.4976
L10.3256 25.4738
" />
<path d="M10.3256 25.4738
L10.2304 25.4738
" />
<path d="M10.2304 25.4738
L10.1827 25.4976
" />
<path d="M10.1827 25.4976
L10.1589 25.5214
" />
<path d="M10.1589 25.5214
L10.1351 25.5690
" />
<path d="M10.1351 25.5690
L10.1351 25.6881
" />
<path d="M10.1351 25.6881
L10.1589 25.7357
" />
<path d="M10.1589 25.7357
L10.1827 25.7595
" />
<path d="M10.1827 25.7595
L10.2304 25.7833
" />
<path d="M10.2304 25.7833
L10.3256 25.7833
" />
<path d="M10.3256 25.7833
L10.3732 25.7595
" />
<path d="M10.3732 25.7595
L10.3970 25.7357
" />
<path d="M10.3970 25.7357
L10.4208 25.6881
" />
<path d="M10.8494 25.6405
L10.8494 25.9738
" />
<path d="M10.7304 25.4500
L10.6113 25.8071
" />
<path d="M10.6113 25.8071
L10.9208 25.8071
" />
<path d="M11.2065 25.4738
L11.2542 25.4738
" />
<path d="M11.2542 25.4738
L11.3018 25.4976
" />
<path d="M11.3018 25.4976
L11.3256 25.5214
" />
<path d="M11.3256 25.5214
L11.3494 25.5690
" />
<path d="M11.3494 25.5690
L11.3732 25.6643
" />
<path d="M11.3732 25.6643
L11.3732 25.7833
" />
<path d="M11.3732 25.7833
L11.3494 25.8786
" />
<path d="M11.3494 25.8786
L11.3256 25.9262
" />
<path d="M11.3256 25.9262
L11.3018 25.9500
" />
<path d="M11.3018 25.9500
L11.2542 25.9738
" />
<path d="M11.2542 25.9738
L11.2065 25.9738
" />
<path d="M11.2065 25.9738
L11.1589 25.9500
" />
<path d="M11.1589 25.9500
L11.1351 25.9262
" />
<path d="M11.1351 25.9262
L11.1113 25.8786
" />
<path d="M11.1113 25.8786
L11.0875 25.7833
" />
<path d="M11.0875 25.7833
L11.0875 25.6643
" />
<path d="M11.0875 25.6643
L11.1113 25.5690
" />
<path d="M11.1113 25.5690
L11.1351 25.5214
" />
<path d="M11.1351 25.5214
L11.1589 25.4976
" />
<path d="M11.1589 25.4976
L11.2065 25.4738
" />
<path d="M11.9684 25.6405
L11.9684 25.9738
" />
<path d="M11.9684 25.6881
L11.9923 25.6643
" />
<path d="M11.9923 25.6643
L12.0399 25.6405
" />
<path d="M12.0399 25.6405
L12.1113 25.6405
" />
<path d="M12.1113 25.6405
L12.1589 25.6643
" />
<path d="M12.1589 25.6643
L12.1827 25.7119
" />
<path d="M12.1827 25.7119
L12.1827 25.9738
" />
<path d="M12.4208 25.9738
L12.4208 25.6405
" />
<path d="M12.4208 25.6881
L12.4446 25.6643
" />
<path d="M12.4446 25.6643
L12.4923 25.6405
" />
<path d="M12.4923 25.6405
L12.5637 25.6405
" />
<path d="M12.5637 25.6405
L12.6113 25.6643
" />
<path d="M12.6113 25.6643
L12.6351 25.7119
" />
<path d="M12.6351 25.7119
L12.6351 25.9738
" />
<path d="M12.6351 25.7119
L12.6589 25.6643
" />
<path d="M12.6589 25.6643
L12.7065 25.6405
" />
<path d="M12.7065 25.6405
L12.7780 25.6405
" />
<path d="M12.7780 25.6405
L12.8256 25.6643
" />
<path d="M12.8256 25.6643
L12.8494 25.7119
" />
<path d="M12.8494 25.7119
L12.8494 25.9738
" />
</g><g transform="rotate(-90.000000 35.7542 21.8375)">
<text x="35.7542" y="22.0875"
textLength="1.0696" font-size="0.6667" lengthAdjust="spacingAndGlyphs"
text-anchor="middle" opacity="0">J1</text>
</g>
<g class="stroked-text"><desc>J1</desc>
<path d="M35.4855 22.0042
L35.8426 22.0042
" />
<path d="M35.8426 22.0042
L35.9140 22.0280
" />
<path d="M35.9140 22.0280
L35.9617 22.0756
" />
<path d="M35.9617 22.0756
L35.9855 22.1470
" />
<path d="M35.9855 22.1470
L35.9855 22.1946
" />
<path d="M35.9855 21.5042
L35.9855 21.7899
" />
<path d="M35.9855 21.6470
L35.4855 21.6470
" />
<path d="M35.4855 21.6470
L35.5569 21.6946
" />
<path d="M35.5569 21.6946
L35.6045 21.7423
" />
<path d="M35.6045 21.7423
L35.6283 21.7899
" />
</g><text x="14.7542" y="17.8375"
textLength="1.6649" font-size="0.6667" lengthAdjust="spacingAndGlyphs"
text-anchor="middle" opacity="0">R14</text>
<g class="stroked-text"><desc>R14</desc>
<path d="M14.4327 17.8188
L14.2661 17.5807
" />
<path d="M14.1470 17.8188
L14.1470 17.3188
" />
<path d="M14.1470 17.3188
L14.3375 17.3188
" />
<path d="M14.3375 17.3188
L14.3851 17.3426
" />
<path d="M14.3851 17.3426
L14.4089 17.3664
" />
<path d="M14.4089 17.3664
L14.4327 17.4140
" />
<path d="M14.4327 17.4140
L14.4327 17.4855
" />
<path d="M14.4327 17.4855
L14.4089 17.5331
" />
<path d="M14.4089 17.5331
L14.3851 17.5569
" />
<path d="M14.3851 17.5569
L14.3375 17.5807
" />
<path d="M14.3375 17.5807
L14.1470 17.5807
" />
<path d="M14.9089 17.8188
L14.6232 17.8188
" />
<path d="M14.7661 17.8188
L14.7661 17.3188
" />
<path d="M14.7661 17.3188
L14.7185 17.3902
" />
<path d="M14.7185 17.3902
L14.6708 17.4379
" />
<path d="M14.6708 17.4379
L14.6232 17.4617
" />
<path d="M15.3375 17.4855
L15.3375 17.8188
" />
<path d="M15.2185 17.2950
L15.0994 17.6521
" />
<path d="M15.0994 17.6521
L15.4089 17.6521
" />
</g><text x="15.7542" y="28.8125"
textLength="1.2125" font-size="0.6667" lengthAdjust="spacingAndGlyphs"
text-anchor="middle" opacity="0">U4</text>
<g class="stroked-text"><desc>U4</desc>
<path d="M15.3732 28.2938
L15.3732 28.6986
" />
<path d="M15.3732 28.6986
L15.3970 28.7462
" />
<path d="M15.3970 28.7462
L15.4208 28.7700
" />
<path d="M15.4208 28.7700
L15.4685 28.7938
" />
<path d="M15.4685 28.7938
L15.5637 28.7938
" />
<path d="M15.5637 28.7938
L15.6113 28.7700
" />
<path d="M15.6113 28.7700
L15.6351 28.7462
" />
<path d="M15.6351 28.7462
L15.6589 28.6986
" />
<path d="M15.6589 28.6986
L15.6589 28.2938
" />
<path d="M16.1113 28.4605
L16.1113 28.7938
" />
<path d="M15.9923 28.2700
L15.8732 28.6271
" />
<path d="M15.8732 28.6271
L16.1827 28.6271
" />
</g><text x="28.2542" y="14.3375"
textLength="1.1887" font-size="0.6667" lengthAdjust="spacingAndGlyphs"
text-anchor="middle" opacity="0">R9</text>
<g class="stroked-text"><desc>R9</desc>
<path d="M28.1708 14.3188
L28.0042 14.0807
" />
<path d="M27.8851 14.3188
L27.8851 13.8188
" />
<path d="M27.8851 13.8188
L28.0756 13.8188
" />
<path d="M28.0756 13.8188
L28.1232 13.8426
" />
<path d="M28.1232 13.8426
L28.1470 13.8664
" />
<path d="M28.1470 13.8664
L28.1708 13.9140
" />
<path d="M28.1708 13.9140
L28.1708 13.9855
" />
<path d="M28.1708 13.9855
L28.1470 14.0331
" />
<path d="M28.1470 14.0331
L28.1232 14.0569
" />
<path d="M28.1232 14.0569
L28.0756 14.0807
" />
<path d="M28.0756 14.0807
L27.8851 14.0807
" />
<path d="M28.4089 14.3188
L28.5042 14.3188
" />
<path d="M28.5042 14.3188
L28.5518 14.2950
" />
<path d="M28.5518 14.2950
L28.5756 14.2712
" />
<path d="M28.5756 14.2712
L28.6232 14.1998
" />
<path d="M28.6232 14.1998
L28.6470 14.1045
" />
<path d="M28.6470 14.1045
L28.6470 13.9140
" />
<path d="M28.6470 13.9140
L28.6232 13.8664
" />
<path d="M28.6232 13.8664
L28.5994 13.8426
" />
<path d="M28.5994 13.8426
L28.5518 13.8188
" />
<path d="M28.5518 13.8188
L28.4565 13.8188
" />
<path d="M28.4565 13.8188
L28.4089 13.8426
" />
<path d="M28.4089 13.8426
L28.3851 13.8664
" />
<path d="M28.3851 13.8664
L28.3613 13.9140
" />
<path d="M28.3613 13.9140
L28.3613 14.0331
" />
<path d="M28.3613 14.0331
L28.3851 14.0807
" />
<path d="M28.3851 14.0807
L28.4089 14.1045
" />
<path d="M28.4089 14.1045
L28.4565 14.1283
" />
<path d="M28.4565 14.1283
L28.5518 14.1283
" />
<path d="M28.5518 14.1283
L28.5994 14.1045
" />
<path d="M28.5994 14.1045
L28.6232 14.0807
" />
<path d="M28.6232 14.0807
L28.6470 14.0331
" />
</g><g transform="rotate(-90.000000 23.5042 21.8375)">
<text x="23.5042" y="22.0875"
textLength="1.2125" font-size="0.6667" lengthAdjust="spacingAndGlyphs"
text-anchor="middle" opacity="0">U2</text>
</g>
<g class="stroked-text"><desc>U2</desc>
<path d="M23.2355 22.2185
L23.6402 22.2185
" />
<path d="M23.6402 22.2185
L23.6879 22.1946
" />
<path d="M23.6879 22.1946
L23.7117 22.1708
" />
<path d="M23.7117 22.1708
L23.7355 22.1232
" />
<path d="M23.7355 22.1232
L23.7355 22.0280
" />
<path d="M23.7355 22.0280
L23.7117 21.9804
" />
<path d="M23.7117 21.9804
L23.6879 21.9565
" />
<path d="M23.6879 21.9565
L23.6402 21.9327
" />
<path d="M23.6402 21.9327
L23.2355 21.9327
" />
<path d="M23.2831 21.7185
L23.2593 21.6946
" />
<path d="M23.2593 21.6946
L23.2355 21.6470
" />
<path d="M23.2355 21.6470
L23.2355 21.5280
" />
<path d="M23.2355 21.5280
L23.2593 21.4804
" />
<path d="M23.2593 21.4804
L23.2831 21.4565
" />
<path d="M23.2831 21.4565
L23.3307 21.4327
" />
<path d="M23.3307 21.4327
L23.3783 21.4327
" />
<path d="M23.3783 21.4327
L23.4498 21.4565
" />
<path d="M23.4498 21.4565
L23.7355 21.7423
" />
<path d="M23.7355 21.7423
L23.7355 21.4327
" />
</g><g transform="rotate(-90.000000 27.2542 29.3375)">
<text x="27.2542" y="29.5875"
textLength="1.6649" font-size="0.6667" lengthAdjust="spacingAndGlyphs"
text-anchor="middle" opacity="0">R12</text>
</g>
<g class="stroked-text"><desc>R12</desc>
<path d="M27.4855 29.6589
L27.2474 29.8256
" />
<path d="M27.4855 29.9446
L26.9855 29.9446
" />
<path d="M26.9855 29.9446
L26.9855 29.7542
" />
<path d="M26.9855 29.7542
L27.0093 29.7065
" />
<path d="M27.0093 29.7065
L27.0331 29.6827
" />
<path d="M27.0331 29.6827
L27.0807 29.6589
" />
<path d="M27.0807 29.6589
L27.1521 29.6589
" />
<path d="M27.1521 29.6589
L27.1998 29.6827
" />
<path d="M27.1998 29.6827
L27.2236 29.7065
" />
<path d="M27.2236 29.7065
L27.2474 29.7542
" />
<path d="M27.2474 29.7542
L27.2474 29.9446
" />
<path d="M27.4855 29.1827
L27.4855 29.4685
" />
<path d="M27.4855 29.3256
L26.9855 29.3256
" />
<path d="M26.9855 29.3256
L27.0569 29.3732
" />
<path d="M27.0569 29.3732
L27.1045 29.4208
" />
<path d="M27.1045 29.4208
L27.1283 29.4685
" />
<path d="M27.0331 28.9923
L27.0093 28.9685
" />
<path d="M27.0093 28.9685
L26.9855 28.9208
" />
<path d="M26.9855 28.9208
L26.9855 28.8018
" />
<path d="M26.9855 28.8018
L27.0093 28.7542
" />
<path d="M27.0093 28.7542
L27.0331 28.7304
" />
<path d="M27.0331 28.7304
L27.0807 28.7065
" />
<path d="M27.0807 28.7065
L27.1283 28.7065
" />
<path d="M27.1283 28.7065
L27.1998 28.7304
" />
<path d="M27.1998 28.7304
L27.4855 29.0161
" />
<path d="M27.4855 29.0161
L27.4855 28.7065
" />
</g><g transform="rotate(-90.000000 25.0042 29.3375)">
<text x="25.0042" y="29.5875"
textLength="1.6649" font-size="0.6667" lengthAdjust="spacingAndGlyphs"
text-anchor="middle" opacity="0">R10</text>
</g>
<g class="stroked-text"><desc>R10</desc>
<path d="M25.2355 29.6589
L24.9974 29.8256
" />
<path d="M25.2355 29.9446
L24.7355 29.9446
" />
<path d="M24.7355 29.9446
L24.7355 29.7542
" />
<path d="M24.7355 29.7542
L24.7593 29.7065
" />
<path d="M24.7593 29.7065
L24.7831 29.6827
" />
<path d="M24.7831 29.6827
L24.8307 29.6589
" />
<path d="M24.8307 29.6589
L24.9021 29.6589
" />
<path d="M24.9021 29.6589
L24.9498 29.6827
" />
<path d="M24.9498 29.6827
L24.9736 29.7065
" />
<path d="M24.9736 29.7065
L24.9974 29.7542
" />
<path d="M24.9974 29.7542
L24.9974 29.9446
" />
<path d="M25.2355 29.1827
L25.2355 29.4685
" />
<path d="M25.2355 29.3256
L24.7355 29.3256
" />
<path d="M24.7355 29.3256
L24.8069 29.3732
" />
<path d="M24.8069 29.3732
L24.8545 29.4208
" />
<path d="M24.8545 29.4208
L24.8783 29.4685
" />
<path d="M24.7355 28.8732
L24.7355 28.8256
" />
<path d="M24.7355 28.8256
L24.7593 28.7780
" />
<path d="M24.7593 28.7780
L24.7831 28.7542
" />
<path d="M24.7831 28.7542
L24.8307 28.7304
" />
<path d="M24.8307 28.7304
L24.9260 28.7065
" />
<path d="M24.9260 28.7065
L25.0450 28.7065
" />
<path d="M25.0450 28.7065
L25.1402 28.7304
" />
<path d="M25.1402 28.7304
L25.1879 28.7542
" />
<path d="M25.1879 28.7542
L25.2117 28.7780
" />
<path d="M25.2117 28.7780
L25.2355 28.8256
" />
<path d="M25.2355 28.8256
L25.2355 28.8732
" />
<path d="M25.2355 28.8732
L25.2117 28.9208
" />
<path d="M25.2117 28.9208
L25.1879 28.9446
" />
<path d="M25.1879 28.9446
L25.1402 28.9685
" />
<path d="M25.1402 28.9685
L25.0450 28.9923
" />
<path d="M25.0450 28.9923
L24.9260 28.9923
" />
<path d="M24.9260 28.9923
L24.8307 28.9685
" />
<path d="M24.8307 28.9685
L24.7831 28.9446
" />
<path d="M24.7831 28.9446
L24.7593 28.9208
" />
<path d="M24.7593 28.9208
L24.7355 28.8732
" />
</g><text x="19.7542" y="24.3375"
textLength="1.1887" font-size="0.6667" lengthAdjust="spacingAndGlyphs"
text-anchor="middle" opacity="0">R1</text>
<g class="stroked-text"><desc>R1</desc>
<path d="M19.6708 24.3188
L19.5042 24.0807
" />
<path d="M19.3851 24.3188
L19.3851 23.8188
" />
<path d="M19.3851 23.8188
L19.5756 23.8188
" />
<path d="M19.5756 23.8188
L19.6232 23.8426
" />
<path d="M19.6232 23.8426
L19.6470 23.8664
" />
<path d="M19.6470 23.8664
L19.6708 23.9140
" />
<path d="M19.6708 23.9140
L19.6708 23.9855
" />
<path d="M19.6708 23.9855
L19.6470 24.0331
" />
<path d="M19.6470 24.0331
L19.6232 24.0569
" />
<path d="M19.6232 24.0569
L19.5756 24.0807
" />
<path d="M19.5756 24.0807
L19.3851 24.0807
" />
<path d="M20.1470 24.3188
L19.8613 24.3188
" />
<path d="M20.0042 24.3188
L20.0042 23.8188
" />
<path d="M20.0042 23.8188
L19.9565 23.8902
" />
<path d="M19.9565 23.8902
L19.9089 23.9379
" />
<path d="M19.9089 23.9379
L19.8613 23.9617
" />
</g><g transform="rotate(-90.000000 29.5042 29.3375)">
<text x="29.5042" y="29.5875"
textLength="1.6649" font-size="0.6667" lengthAdjust="spacingAndGlyphs"
text-anchor="middle" opacity="0">R11</text>
</g>
<g class="stroked-text"><desc>R11</desc>
<path d="M29.7355 29.6589
L29.4974 29.8256
" />
<path d="M29.7355 29.9446
L29.2355 29.9446
" />
<path d="M29.2355 29.9446
L29.2355 29.7542
" />
<path d="M29.2355 29.7542
L29.2593 29.7065
" />
<path d="M29.2593 29.7065
L29.2831 29.6827
" />
<path d="M29.2831 29.6827
L29.3307 29.6589
" />
<path d="M29.3307 29.6589
L29.4021 29.6589
" />
<path d="M29.4021 29.6589
L29.4498 29.6827
" />
<path d="M29.4498 29.6827
L29.4736 29.7065
" />
<path d="M29.4736 29.7065
L29.4974 29.7542
" />
<path d="M29.4974 29.7542
L29.4974 29.9446
" />
<path d="M29.7355 29.1827
L29.7355 29.4685
" />
<path d="M29.7355 29.3256
L29.2355 29.3256
" />
<path d="M29.2355 29.3256
L29.3069 29.3732
" />
<path d="M29.3069 29.3732
L29.3545 29.4208
" />
<path d="M29.3545 29.4208
L29.3783 29.4685
" />
<path d="M29.7355 28.7065
L29.7355 28.9923
" />
<path d="M29.7355 28.8494
L29.2355 28.8494
" />
<path d="M29.2355 28.8494
L29.3069 28.8970
" />
<path d="M29.3069 28.8970
L29.3545 28.9446
" />
<path d="M29.3545 28.9446
L29.3783 28.9923
" />
</g><g transform="rotate(-90.000000 21.7542 24.0875)">
<text x="21.7542" y="24.3375"
textLength="1.1887" font-size="0.6667" lengthAdjust="spacingAndGlyphs"
text-anchor="middle" opacity="0">R5</text>
</g>
<g class="stroked-text"><desc>R5</desc>
<path d="M21.9855 24.1708
L21.7474 24.3375
" />
<path d="M21.9855 24.4565
L21.4855 24.4565
" />
<path d="M21.4855 24.4565
L21.4855 24.2661
" />
<path d="M21.4855 24.2661
L21.5093 24.2185
" />
<path d="M21.5093 24.2185
L21.5331 24.1946
" />
<path d="M21.5331 24.1946
L21.5807 24.1708
" />
<path d="M21.5807 24.1708
L21.6521 24.1708
" />
<path d="M21.6521 24.1708
L21.6998 24.1946
" />
<path d="M21.6998 24.1946
L21.7236 24.2185
" />
<path d="M21.7236 24.2185
L21.7474 24.2661
" />
<path d="M21.7474 24.2661
L21.7474 24.4565
" />
<path d="M21.4855 23.7185
L21.4855 23.9565
" />
<path d="M21.4855 23.9565
L21.7236 23.9804
" />
<path d="M21.7236 23.9804
L21.6998 23.9565
" />
<path d="M21.6998 23.9565
L21.6760 23.9089
" />
<path d="M21.6760 23.9089
L21.6760 23.7899
" />
<path d="M21.6760 23.7899
L21.6998 23.7423
" />
<path d="M21.6998 23.7423
L21.7236 23.7185
" />
<path d="M21.7236 23.7185
L21.7712 23.6946
" />
<path d="M21.7712 23.6946
L21.8902 23.6946
" />
<path d="M21.8902 23.6946
L21.9379 23.7185
" />
<path d="M21.9379 23.7185
L21.9617 23.7423
" />
<path d="M21.9617 23.7423
L21.9855 23.7899
" />
<path d="M21.9855 23.7899
L21.9855 23.9089
" />
<path d="M21.9855 23.9089
L21.9617 23.9565
" />
<path d="M21.9617 23.9565
L21.9379 23.9804
" />
</g><text x="24.6542" y="14.1875"
textLength="1.1887" font-size="0.6667" lengthAdjust="spacingAndGlyphs"
text-anchor="middle" opacity="0">R7</text>
<g class="stroked-text"><desc>R7</desc>
<path d="M24.5708 14.1688
L24.4042 13.9307
" />
<path d="M24.2851 14.1688
L24.2851 13.6688
" />
<path d="M24.2851 13.6688
L24.4756 13.6688
" />
<path d="M24.4756 13.6688
L24.5232 13.6926
" />
<path d="M24.5232 13.6926
L24.5470 13.7164
" />
<path d="M24.5470 13.7164
L24.5708 13.7640
" />
<path d="M24.5708 13.7640
L24.5708 13.8355
" />
<path d="M24.5708 13.8355
L24.5470 13.8831
" />
<path d="M24.5470 13.8831
L24.5232 13.9069
" />
<path d="M24.5232 13.9069
L24.4756 13.9307
" />
<path d="M24.4756 13.9307
L24.2851 13.9307
" />
<path d="M24.7375 13.6688
L25.0708 13.6688
" />
<path d="M25.0708 13.6688
L24.8565 14.1688
" />
</g><text x="32.5042" y="30.0875"
textLength="1.1887" font-size="0.6667" lengthAdjust="spacingAndGlyphs"
text-anchor="middle" opacity="0">C8</text>
<g class="stroked-text"><desc>C8</desc>
<path d="M32.4208 30.0212
L32.3970 30.0450
" />
<path d="M32.3970 30.0450
L32.3256 30.0688
" />
<path d="M32.3256 30.0688
L32.2780 30.0688
" />
<path d="M32.2780 30.0688
L32.2065 30.0450
" />
<path d="M32.2065 30.0450
L32.1589 29.9974
" />
<path d="M32.1589 29.9974
L32.1351 29.9498
" />
<path d="M32.1351 29.9498
L32.1113 29.8545
" />
<path d="M32.1113 29.8545
L32.1113 29.7831
" />
<path d="M32.1113 29.7831
L32.1351 29.6879
" />
<path d="M32.1351 29.6879
L32.1589 29.6402
" />
<path d="M32.1589 29.6402
L32.2065 29.5926
" />
<path d="M32.2065 29.5926
L32.2780 29.5688
" />
<path d="M32.2780 29.5688
L32.3256 29.5688
" />
<path d="M32.3256 29.5688
L32.3970 29.5926
" />
<path d="M32.3970 29.5926
L32.4208 29.6164
" />
<path d="M32.7065 29.7831
L32.6589 29.7593
" />
<path d="M32.6589 29.7593
L32.6351 29.7355
" />
<path d="M32.6351 29.7355
L32.6113 29.6879
" />
<path d="M32.6113 29.6879
L32.6113 29.6640
" />
<path d="M32.6113 29.6640
L32.6351 29.6164
" />
<path d="M32.6351 29.6164
L32.6589 29.5926
" />
<path d="M32.6589 29.5926
L32.7065 29.5688
" />
<path d="M32.7065 29.5688
L32.8018 29.5688
" />
<path d="M32.8018 29.5688
L32.8494 29.5926
" />
<path d="M32.8494 29.5926
L32.8732 29.6164
" />
<path d="M32.8732 29.6164
L32.8970 29.6640
" />
<path d="M32.8970 29.6640
L32.8970 29.6879
" />
<path d="M32.8970 29.6879
L32.8732 29.7355
" />
<path d="M32.8732 29.7355
L32.8494 29.7593
" />
<path d="M32.8494 29.7593
L32.8018 29.7831
" />
<path d="M32.8018 29.7831
L32.7065 29.7831
" />
<path d="M32.7065 29.7831
L32.6589 29.8069
" />
<path d="M32.6589 29.8069
L32.6351 29.8307
" />
<path d="M32.6351 29.8307
L32.6113 29.8783
" />
<path d="M32.6113 29.8783
L32.6113 29.9736
" />
<path d="M32.6113 29.9736
L32.6351 30.0212
" />
<path d="M32.6351 30.0212
L32.6589 30.0450
" />
<path d="M32.6589 30.0450
L32.7065 30.0688
" />
<path d="M32.7065 30.0688
L32.8018 30.0688
" />
<path d="M32.8018 30.0688
L32.8494 30.0450
" />
<path d="M32.8494 30.0450
L32.8732 30.0212
" />
<path d="M32.8732 30.0212
L32.8970 29.9736
" />
<path d="M32.8970 29.9736
L32.8970 29.8783
" />
<path d="M32.8970 29.8783
L32.8732 29.8307
" />
<path d="M32.8732 29.8307
L32.8494 29.8069
" />
<path d="M32.8494 29.8069
L32.8018 29.7831
" />
</g><text x="15.7542" y="22.0875"
textLength="1.1887" font-size="0.6667" lengthAdjust="spacingAndGlyphs"
text-anchor="middle" opacity="0">D1</text>
<g class="stroked-text"><desc>D1</desc>
<path d="M15.3851 22.0688
L15.3851 21.5688
" />
<path d="M15.3851 21.5688
L15.5042 21.5688
" />
<path d="M15.5042 21.5688
L15.5756 21.5926
" />
<path d="M15.5756 21.5926
L15.6232 21.6402
" />
<path d="M15.6232 21.6402
L15.6470 21.6879
" />
<path d="M15.6470 21.6879
L15.6708 21.7831
" />
<path d="M15.6708 21.7831
L15.6708 21.8545
" />
<path d="M15.6708 21.8545
L15.6470 21.9498
" />
<path d="M15.6470 21.9498
L15.6232 21.9974
" />
<path d="M15.6232 21.9974
L15.5756 22.0450
" />
<path d="M15.5756 22.0450
L15.5042 22.0688
" />
<path d="M15.5042 22.0688
L15.3851 22.0688
" />
<path d="M16.1470 22.0688
L15.8613 22.0688
" />
<path d="M16.0042 22.0688
L16.0042 21.5688
" />
<path d="M16.0042 21.5688
L15.9565 21.6402
" />
<path d="M15.9565 21.6402
L15.9089 21.6879
" />
<path d="M15.9089 21.6879
L15.8613 21.7117
" />
</g><g transform="rotate(-90.000000 18.2542 28.2375)">
<text x="18.2542" y="28.4875"
textLength="1.6173" font-size="0.6667" lengthAdjust="spacingAndGlyphs"
text-anchor="middle" opacity="0">RV2</text>
</g>
<g class="stroked-text"><desc>RV2</desc>
<path d="M18.4855 28.5351
L18.2474 28.7018
" />
<path d="M18.4855 28.8208
L17.9855 28.8208
" />
<path d="M17.9855 28.8208
L17.9855 28.6304
" />
<path d="M17.9855 28.6304
L18.0093 28.5827
" />
<path d="M18.0093 28.5827
L18.0331 28.5589
" />
<path d="M18.0331 28.5589
L18.0807 28.5351
" />
<path d="M18.0807 28.5351
L18.1521 28.5351
" />
<path d="M18.1521 28.5351
L18.1998 28.5589
" />
<path d="M18.1998 28.5589
L18.2236 28.5827
" />
<path d="M18.2236 28.5827
L18.2474 28.6304
" />
<path d="M18.2474 28.6304
L18.2474 28.8208
" />
<path d="M17.9855 28.3923
L18.4855 28.2256
" />
<path d="M18.4855 28.2256
L17.9855 28.0589
" />
<path d="M18.0331 27.9161
L18.0093 27.8923
" />
<path d="M18.0093 27.8923
L17.9855 27.8446
" />
<path d="M17.9855 27.8446
L17.9855 27.7256
" />
<path d="M17.9855 27.7256
L18.0093 27.6780
" />
<path d="M18.0093 27.6780
L18.0331 27.6542
" />
<path d="M18.0331 27.6542
L18.0807 27.6304
" />
<path d="M18.0807 27.6304
L18.1283 27.6304
" />
<path d="M18.1283 27.6304
L18.1998 27.6542
" />
<path d="M18.1998 27.6542
L18.4855 27.9399
" />
<path d="M18.4855 27.9399
L18.4855 27.6304
" />
</g><text x="32.5042" y="28.8375"
textLength="1.1887" font-size="0.6667" lengthAdjust="spacingAndGlyphs"
text-anchor="middle" opacity="0">C6</text>
<g class="stroked-text"><desc>C6</desc>
<path d="M32.4208 28.7712
L32.3970 28.7950
" />
<path d="M32.3970 28.7950
L32.3256 28.8188
" />
<path d="M32.3256 28.8188
L32.2780 28.8188
" />
<path d="M32.2780 28.8188
L32.2065 28.7950
" />
<path d="M32.2065 28.7950
L32.1589 28.7474
" />
<path d="M32.1589 28.7474
L32.1351 28.6998
" />
<path d="M32.1351 28.6998
L32.1113 28.6045
" />
<path d="M32.1113 28.6045
L32.1113 28.5331
" />
<path d="M32.1113 28.5331
L32.1351 28.4379
" />
<path d="M32.1351 28.4379
L32.1589 28.3902
" />
<path d="M32.1589 28.3902
L32.2065 28.3426
" />
<path d="M32.2065 28.3426
L32.2780 28.3188
" />
<path d="M32.2780 28.3188
L32.3256 28.3188
" />
<path d="M32.3256 28.3188
L32.3970 28.3426
" />
<path d="M32.3970 28.3426
L32.4208 28.3664
" />
<path d="M32.8494 28.3188
L32.7542 28.3188
" />
<path d="M32.7542 28.3188
L32.7065 28.3426
" />
<path d="M32.7065 28.3426
L32.6827 28.3664
" />
<path d="M32.6827 28.3664
L32.6351 28.4379
" />
<path d="M32.6351 28.4379
L32.6113 28.5331
" />
<path d="M32.6113 28.5331
L32.6113 28.7236
" />
<path d="M32.6113 28.7236
L32.6351 28.7712
" />
<path d="M32.6351 28.7712
L32.6589 28.7950
" />
<path d="M32.6589 28.7950
L32.7065 28.8188
" />
<path d="M32.7065 28.8188
L32.8018 28.8188
" />
<path d="M32.8018 28.8188
L32.8494 28.7950
" />
<path d="M32.8494 28.7950
L32.8732 28.7712
" />
<path d="M32.8732 28.7712
L32.8970 28.7236
" />
<path d="M32.8970 28.7236
L32.8970 28.6045
" />
<path d="M32.8970 28.6045
L32.8732 28.5569
" />
<path d="M32.8732 28.5569
L32.8494 28.5331
" />
<path d="M32.8494 28.5331
L32.8018 28.5093
" />
<path d="M32.8018 28.5093
L32.7065 28.5093
" />
<path d="M32.7065 28.5093
L32.6589 28.5331
" />
<path d="M32.6589 28.5331
L32.6351 28.5569
" />
<path d="M32.6351 28.5569
L32.6113 28.6045
" />
</g><text x="14.2542" y="30.3375"
textLength="1.6649" font-size="0.6667" lengthAdjust="spacingAndGlyphs"
text-anchor="middle" opacity="0">C10</text>
<g class="stroked-text"><desc>C10</desc>
<path d="M13.9327 30.2712
L13.9089 30.2950
" />
<path d="M13.9089 30.2950
L13.8375 30.3188
" />
<path d="M13.8375 30.3188
L13.7899 30.3188
" />
<path d="M13.7899 30.3188
L13.7185 30.2950
" />
<path d="M13.7185 30.2950
L13.6708 30.2474
" />
<path d="M13.6708 30.2474
L13.6470 30.1998
" />
<path d="M13.6470 30.1998
L13.6232 30.1045
" />
<path d="M13.6232 30.1045
L13.6232 30.0331
" />
<path d="M13.6232 30.0331
L13.6470 29.9379
" />
<path d="M13.6470 29.9379
L13.6708 29.8902
" />
<path d="M13.6708 29.8902
L13.7185 29.8426
" />
<path d="M13.7185 29.8426
L13.7899 29.8188
" />
<path d="M13.7899 29.8188
L13.8375 29.8188
" />
<path d="M13.8375 29.8188
L13.9089 29.8426
" />
<path d="M13.9089 29.8426
L13.9327 29.8664
" />
<path d="M14.4089 30.3188
L14.1232 30.3188
" />
<path d="M14.2661 30.3188
L14.2661 29.8188
" />
<path d="M14.2661 29.8188
L14.2185 29.8902
" />
<path d="M14.2185 29.8902
L14.1708 29.9379
" />
<path d="M14.1708 29.9379
L14.1232 29.9617
" />
<path d="M14.7185 29.8188
L14.7661 29.8188
" />
<path d="M14.7661 29.8188
L14.8137 29.8426
" />
<path d="M14.8137 29.8426
L14.8375 29.8664
" />
<path d="M14.8375 29.8664
L14.8613 29.9140
" />
<path d="M14.8613 29.9140
L14.8851 30.0093
" />
<path d="M14.8851 30.0093
L14.8851 30.1283
" />
<path d="M14.8851 30.1283
L14.8613 30.2236
" />
<path d="M14.8613 30.2236
L14.8375 30.2712
" />
<path d="M14.8375 30.2712
L14.8137 30.2950
" />
<path d="M14.8137 30.2950
L14.7661 30.3188
" />
<path d="M14.7661 30.3188
L14.7185 30.3188
" />
<path d="M14.7185 30.3188
L14.6708 30.2950
" />
<path d="M14.6708 30.2950
L14.6470 30.2712
" />
<path d="M14.6470 30.2712
L14.6232 30.2236
" />
<path d="M14.6232 30.2236
L14.5994 30.1283
" />
<path d="M14.5994 30.1283
L14.5994 30.0093
" />
<path d="M14.5994 30.0093
L14.6232 29.9140
" />
<path d="M14.6232 29.9140
L14.6470 29.8664
" />
<path d="M14.6470 29.8664
L14.6708 29.8426
" />
<path d="M14.6708 29.8426
L14.7185 29.8188
" />
</g><text x="30.7542" y="14.3375"
textLength="1.1887" font-size="0.6667" lengthAdjust="spacingAndGlyphs"
text-anchor="middle" opacity="0">R2</text>
<g class="stroked-text"><desc>R2</desc>
<path d="M30.6708 14.3188
L30.5042 14.0807
" />
<path d="M30.3851 14.3188
L30.3851 13.8188
" />
<path d="M30.3851 13.8188
L30.5756 13.8188
" />
<path d="M30.5756 13.8188
L30.6232 13.8426
" />
<path d="M30.6232 13.8426
L30.6470 13.8664
" />
<path d="M30.6470 13.8664
L30.6708 13.9140
" />
<path d="M30.6708 13.9140
L30.6708 13.9855
" />
<path d="M30.6708 13.9855
L30.6470 14.0331
" />
<path d="M30.6470 14.0331
L30.6232 14.0569
" />
<path d="M30.6232 14.0569
L30.5756 14.0807
" />
<path d="M30.5756 14.0807
L30.3851 14.0807
" />
<path d="M30.8613 13.8664
L30.8851 13.8426
" />
<path d="M30.8851 13.8426
L30.9327 13.8188
" />
<path d="M30.9327 13.8188
L31.0518 13.8188
" />
<path d="M31.0518 13.8188
L31.0994 13.8426
" />
<path d="M31.0994 13.8426
L31.1232 13.8664
" />
<path d="M31.1232 13.8664
L31.1470 13.9140
" />
<path d="M31.1470 13.9140
L31.1470 13.9617
" />
<path d="M31.1470 13.9617
L31.1232 14.0331
" />
<path d="M31.1232 14.0331
L30.8375 14.3188
" />
<path d="M30.8375 14.3188
L31.1470 14.3188
" />
</g><text x="21.2542" y="20.8375"
textLength="1.6649" font-size="0.6667" lengthAdjust="spacingAndGlyphs"
text-anchor="middle" opacity="0">C12</text>
<g class="stroked-text"><desc>C12</desc>
<path d="M20.9327 20.7712
L20.9089 20.7950
" />
<path d="M20.9089 20.7950
L20.8375 20.8188
" />
<path d="M20.8375 20.8188
L20.7899 20.8188
" />
<path d="M20.7899 20.8188
L20.7185 20.7950
" />
<path d="M20.7185 20.7950
L20.6708 20.7474
" />
<path d="M20.6708 20.7474
L20.6470 20.6998
" />
<path d="M20.6470 20.6998
L20.6232 20.6045
" />
<path d="M20.6232 20.6045
L20.6232 20.5331
" />
<path d="M20.6232 20.5331
L20.6470 20.4379
" />
<path d="M20.6470 20.4379
L20.6708 20.3902
" />
<path d="M20.6708 20.3902
L20.7185 20.3426
" />
<path d="M20.7185 20.3426
L20.7899 20.3188
" />
<path d="M20.7899 20.3188
L20.8375 20.3188
" />
<path d="M20.8375 20.3188
L20.9089 20.3426
" />
<path d="M20.9089 20.3426
L20.9327 20.3664
" />
<path d="M21.4089 20.8188
L21.1232 20.8188
" />
<path d="M21.2661 20.8188
L21.2661 20.3188
" />
<path d="M21.2661 20.3188
L21.2185 20.3902
" />
<path d="M21.2185 20.3902
L21.1708 20.4379
" />
<path d="M21.1708 20.4379
L21.1232 20.4617
" />
<path d="M21.5994 20.3664
L21.6232 20.3426
" />
<path d="M21.6232 20.3426
L21.6708 20.3188
" />
<path d="M21.6708 20.3188
L21.7899 20.3188
" />
<path d="M21.7899 20.3188
L21.8375 20.3426
" />
<path d="M21.8375 20.3426
L21.8613 20.3664
" />
<path d="M21.8613 20.3664
L21.8851 20.4140
" />
<path d="M21.8851 20.4140
L21.8851 20.4617
" />
<path d="M21.8851 20.4617
L21.8613 20.5331
" />
<path d="M21.8613 20.5331
L21.5756 20.8188
" />
<path d="M21.5756 20.8188
L21.8851 20.8188
" />
</g><text x="21.2542" y="23.3375"
textLength="1.2125" font-size="0.6667" lengthAdjust="spacingAndGlyphs"
text-anchor="middle" opacity="0">U5</text>
<g class="stroked-text"><desc>U5</desc>
<path d="M20.8732 22.8188
L20.8732 23.2236
" />
<path d="M20.8732 23.2236
L20.8970 23.2712
" />
<path d="M20.8970 23.2712
L20.9208 23.2950
" />
<path d="M20.9208 23.2950
L20.9685 23.3188
" />
<path d="M20.9685 23.3188
L21.0637 23.3188
" />
<path d="M21.0637 23.3188
L21.1113 23.2950
" />
<path d="M21.1113 23.2950
L21.1351 23.2712
" />
<path d="M21.1351 23.2712
L21.1589 23.2236
" />
<path d="M21.1589 23.2236
L21.1589 22.8188
" />
<path d="M21.6351 22.8188
L21.3970 22.8188
" />
<path d="M21.3970 22.8188
L21.3732 23.0569
" />
<path d="M21.3732 23.0569
L21.3970 23.0331
" />
<path d="M21.3970 23.0331
L21.4446 23.0093
" />
<path d="M21.4446 23.0093
L21.5637 23.0093
" />
<path d="M21.5637 23.0093
L21.6113 23.0331
" />
<path d="M21.6113 23.0331
L21.6351 23.0569
" />
<path d="M21.6351 23.0569
L21.6589 23.1045
" />
<path d="M21.6589 23.1045
L21.6589 23.2236
" />
<path d="M21.6589 23.2236
L21.6351 23.2712
" />
<path d="M21.6351 23.2712
L21.6113 23.2950
" />
<path d="M21.6113 23.2950
L21.5637 23.3188
" />
<path d="M21.5637 23.3188
L21.4446 23.3188
" />
<path d="M21.4446 23.3188
L21.3970 23.2950
" />
<path d="M21.3970 23.2950
L21.3732 23.2712
" />
</g><text x="17.2542" y="17.8375"
textLength="1.6649" font-size="0.6667" lengthAdjust="spacingAndGlyphs"
text-anchor="middle" opacity="0">R13</text>
<g class="stroked-text"><desc>R13</desc>
<path d="M16.9327 17.8188
L16.7661 17.5807
" />
<path d="M16.6470 17.8188
L16.6470 17.3188
" />
<path d="M16.6470 17.3188
L16.8375 17.3188
" />
<path d="M16.8375 17.3188
L16.8851 17.3426
" />
<path d="M16.8851 17.3426
L16.9089 17.3664
" />
<path d="M16.9089 17.3664
L16.9327 17.4140
" />
<path d="M16.9327 17.4140
L16.9327 17.4855
" />
<path d="M16.9327 17.4855
L16.9089 17.5331
" />
<path d="M16.9089 17.5331
L16.8851 17.5569
" />
<path d="M16.8851 17.5569
L16.8375 17.5807
" />
<path d="M16.8375 17.5807
L16.6470 17.5807
" />
<path d="M17.4089 17.8188
L17.1232 17.8188
" />
<path d="M17.2661 17.8188
L17.2661 17.3188
" />
<path d="M17.2661 17.3188
L17.2185 17.3902
" />
<path d="M17.2185 17.3902
L17.1708 17.4379
" />
<path d="M17.1708 17.4379
L17.1232 17.4617
" />
<path d="M17.5756 17.3188
L17.8851 17.3188
" />
<path d="M17.8851 17.3188
L17.7185 17.5093
" />
<path d="M17.7185 17.5093
L17.7899 17.5093
" />
<path d="M17.7899 17.5093
L17.8375 17.5331
" />
<path d="M17.8375 17.5331
L17.8613 17.5569
" />
<path d="M17.8613 17.5569
L17.8851 17.6045
" />
<path d="M17.8851 17.6045
L17.8851 17.7236
" />
<path d="M17.8851 17.7236
L17.8613 17.7712
" />
<path d="M17.8613 17.7712
L17.8375 17.7950
" />
<path d="M17.8375 17.7950
L17.7899 17.8188
" />
<path d="M17.7899 17.8188
L17.6470 17.8188
" />
<path d="M17.6470 17.8188
L17.5994 17.7950
" />
<path d="M17.5994 17.7950
L17.5756 17.7712
" />
</g><text x="17.2542" y="30.3375"
textLength="1.6649" font-size="0.6667" lengthAdjust="spacingAndGlyphs"
text-anchor="middle" opacity="0">C11</text>
<g class="stroked-text"><desc>C11</desc>
<path d="M16.9327 30.2712
L16.9089 30.2950
" />
<path d="M16.9089 30.2950
L16.8375 30.3188
" />
<path d="M16.8375 30.3188
L16.7899 30.3188
" />
<path d="M16.7899 30.3188
L16.7185 30.2950
" />
<path d="M16.7185 30.2950
L16.6708 30.2474
" />
<path d="M16.6708 30.2474
L16.6470 30.1998
" />
<path d="M16.6470 30.1998
L16.6232 30.1045
" />
<path d="M16.6232 30.1045
L16.6232 30.0331
" />
<path d="M16.6232 30.0331
L16.6470 29.9379
" />
<path d="M16.6470 29.9379
L16.6708 29.8902
" />
<path d="M16.6708 29.8902
L16.7185 29.8426
" />
<path d="M16.7185 29.8426
L16.7899 29.8188
" />
<path d="M16.7899 29.8188
L16.8375 29.8188
" />
<path d="M16.8375 29.8188
L16.9089 29.8426
" />
<path d="M16.9089 29.8426
L16.9327 29.8664
" />
<path d="M17.4089 30.3188
L17.1232 30.3188
" />
<path d="M17.2661 30.3188
L17.2661 29.8188
" />
<path d="M17.2661 29.8188
L17.2185 29.8902
" />
<path d="M17.2185 29.8902
L17.1708 29.9379
" />
<path d="M17.1708 29.9379
L17.1232 29.9617
" />
<path d="M17.8851 30.3188
L17.5994 30.3188
" />
<path d="M17.7423 30.3188
L17.7423 29.8188
" />
<path d="M17.7423 29.8188
L17.6946 29.8902
" />
<path d="M17.6946 29.8902
L17.6470 29.9379
" />
<path d="M17.6470 29.9379
L17.5994 29.9617
" />
</g><g transform="rotate(-90.000000 18.2542 15.3375)">
<text x="18.2542" y="15.5875"
textLength="1.6173" font-size="0.6667" lengthAdjust="spacingAndGlyphs"
text-anchor="middle" opacity="0">RV1</text>
</g>
<g class="stroked-text"><desc>RV1</desc>
<path d="M18.4855 15.6351
L18.2474 15.8018
" />
<path d="M18.4855 15.9208
L17.9855 15.9208
" />
<path d="M17.9855 15.9208
L17.9855 15.7304
" />
<path d="M17.9855 15.7304
L18.0093 15.6827
" />
<path d="M18.0093 15.6827
L18.0331 15.6589
" />
<path d="M18.0331 15.6589
L18.0807 15.6351
" />
<path d="M18.0807 15.6351
L18.1521 15.6351
" />
<path d="M18.1521 15.6351
L18.1998 15.6589
" />
<path d="M18.1998 15.6589
L18.2236 15.6827
" />
<path d="M18.2236 15.6827
L18.2474 15.7304
" />
<path d="M18.2474 15.7304
L18.2474 15.9208
" />
<path d="M17.9855 15.4923
L18.4855 15.3256
" />
<path d="M18.4855 15.3256
L17.9855 15.1589
" />
<path d="M18.4855 14.7304
L18.4855 15.0161
" />
<path d="M18.4855 14.8732
L17.9855 14.8732
" />
<path d="M17.9855 14.8732
L18.0569 14.9208
" />
<path d="M18.0569 14.9208
L18.1045 14.9685
" />
<path d="M18.1045 14.9685
L18.1283 15.0161
" />
</g></g>
<g style="fill:#000000; fill-opacity:0.0; 
stroke:#000000; stroke-width:0.2500; stroke-opacity:1; 
stroke-linecap:round; stroke-linejoin:round;">
<circle cx="42.7542" cy="14.8375" r="1.8500" /> 
<circle cx="10.7542" cy="28.8375" r="1.8500" /> 
<circle cx="42.7542" cy="28.8375" r="1.8500" /> 
<circle cx="10.7542" cy="14.8375" r="1.8500" /> 
</g>
<g style="fill:#000000; fill-opacity:0.0; 
stroke:#000000; stroke-width:0.1270; stroke-opacity:1; 
stroke-linecap:round; stroke-linejoin:round;">
<path d="M36.2042 26.6625
L42.2542 26.6625
" />
<path d="M36.2042 26.6625
L36.2042 17.0125
" />
<path d="M36.2042 17.0125
L42.2542 17.0125
" />
<path d="M44.3542 17.0125
L44.3542 26.6625
" />
</g>
<g style="fill:#000000; fill-opacity:0.0; 
stroke:#000000; stroke-width:0.1500; stroke-opacity:1; 
stroke-linecap:round; stroke-linejoin:round;">
<path d="M14.9078 18.6125
L14.6005 18.6125
" />
<path d="M14.9078 18.0625
L14.6005 18.0625
" />
</g>
<g style="fill:#000000; fill-opacity:0.0; 
stroke:#000000; stroke-width:0.3000; stroke-opacity:1; 
stroke-linecap:round; stroke-linejoin:round;">
<path d="M14.2042 24.7625
L17.3042 24.7625
" />
<path d="M17.3042 24.7625
L17.3042 27.8625
" />
<path d="M17.3042 27.8625
L14.2042 27.8625
" />
<path d="M14.2042 27.8625
L14.2042 24.7625
" />
<circle cx="14.2042" cy="24.7625" r="0.2550" /> 
</g>
<g style="fill:#000000; fill-opacity:0.0; 
stroke:#000000; stroke-width:0.1500; stroke-opacity:1; 
stroke-linecap:round; stroke-linejoin:round;">
<path d="M28.1005 14.5625
L28.4078 14.5625
" />
<path d="M28.1005 15.1125
L28.4078 15.1125
" />
</g>
<g style="fill:#000000; fill-opacity:0.0; 
stroke:#000000; stroke-width:0.1200; stroke-opacity:1; 
stroke-linecap:round; stroke-linejoin:round;">
<path d="M34.5142 17.9775
L34.2592 17.9775
" />
<path d="M34.2592 17.9775
L34.2592 16.1625
" />
<path d="M23.9942 17.9775
L24.2492 17.9775
" />
<path d="M34.5142 21.8375
L34.5142 17.9775
" />
<path d="M34.5142 21.8375
L34.5142 25.6975
" />
<path d="M23.9942 21.8375
L23.9942 17.9775
" />
<path d="M23.9942 21.8375
L23.9942 25.6975
" />
<path d="M34.5142 25.6975
L34.2592 25.6975
" />
<path d="M23.9942 25.6975
L24.2492 25.6975
" />
</g>
<g style="fill:#000000; fill-opacity:1.0000; 
stroke:#000000; stroke-width:0.0000; stroke-opacity:1; 
stroke-linecap:round; stroke-linejoin:round;">
<circle cx="34.7542" cy="17.0875" r="0.3000" /> 
</g>
<g style="fill:#000000; fill-opacity:1.0000; 
stroke:#000000; stroke-width:0.1500; stroke-opacity:1; 
stroke-linecap:round; stroke-linejoin:round;">
</g>
<g style="fill:#000000; fill-opacity:0.0; 
stroke:#000000; stroke-width:0.1500; stroke-opacity:1; 
stroke-linecap:round; stroke-linejoin:round;">
<path d="M26.2292 29.4911
L26.2292 29.1839
" />
<path d="M26.7792 29.4911
L26.7792 29.1839
" />
<path d="M24.5292 29.1839
L24.5292 29.4911
" />
<path d="M23.9792 29.1839
L23.9792 29.4911
" />
<path d="M19.6005 24.5625
L19.9078 24.5625
" />
<path d="M19.6005 25.1125
L19.9078 25.1125
" />
<path d="M28.4792 29.4911
L28.4792 29.1839
" />
<path d="M29.0292 29.4911
L29.0292 29.1839
" />
<path d="M23.1792 23.8502
L23.1792 24.3248
" />
<path d="M22.3292 23.8502
L22.3292 24.3248
" />
<path d="M24.8914 15.2625
L24.4169 15.2625
" />
<path d="M24.8914 14.4125
L24.4169 14.4125
" />
<path d="M31.1120 30.0875
L30.8963 30.0875
" />
<path d="M31.1120 29.5875
L30.8963 29.5875
" />
</g>
<g style="fill:#000000; fill-opacity:0.0; 
stroke:#000000; stroke-width:0.5000; stroke-opacity:1; 
stroke-linecap:round; stroke-linejoin:round;">
<path d="M13.1792 20.5675
L15.0842 20.5675
" />
</g>
<g style="fill:#000000; fill-opacity:0.0; 
stroke:#000000; stroke-width:0.3000; stroke-opacity:1; 
stroke-linecap:round; stroke-linejoin:round;">
<path d="M15.0842 21.5835
L13.8142 21.5835
" />
<path d="M14.4492 21.5835
L14.4492 20.5675
" />
<path d="M13.8142 21.5835
L14.4492 22.2185
" />
<path d="M15.0842 22.2185
L13.8142 22.2185
" />
<path d="M14.4492 22.2185
L15.0842 21.5835
" />
<path d="M14.4492 22.2185
L14.4492 23.1075
" />
</g>
<g style="fill:#000000; fill-opacity:0.0; 
stroke:#000000; stroke-width:0.5000; stroke-opacity:1; 
stroke-linecap:round; stroke-linejoin:round;">
<path d="M13.1792 23.1075
L15.0842 23.1075
" />
<path d="M9.5792 19.4375
L13.1792 19.4375
" />
<path d="M13.1792 19.4375
L13.1792 24.2375
" />
<path d="M13.1792 24.2375
L9.5792 24.2375
" />
<path d="M9.5792 24.2375
L9.5792 19.4375
" />
</g>
<g style="fill:#000000; fill-opacity:0.0; 
stroke:#000000; stroke-width:0.3000; stroke-opacity:1; 
stroke-linecap:round; stroke-linejoin:round;">
<circle cx="15.0842" cy="23.1075" r="0.3500" /> 
<path d="M18.7542 29.9275
L22.7542 29.9275
" />
<path d="M22.7542 29.9275
L22.7542 26.7475
" />
<path d="M22.7542 26.7475
L18.7542 26.7475
" />
<path d="M18.7542 26.7475
L18.7542 29.9275
" />
</g>
<g style="fill:#000000; fill-opacity:0.0; 
stroke:#000000; stroke-width:0.1500; stroke-opacity:1; 
stroke-linecap:round; stroke-linejoin:round;">
<path d="M30.8963 28.3375
L31.1120 28.3375
" />
<path d="M30.8963 28.8375
L31.1120 28.8375
" />
<path d="M14.1463 29.0875
L14.3620 29.0875
" />
<path d="M14.1463 29.5875
L14.3620 29.5875
" />
<path d="M30.9078 15.1125
L30.6005 15.1125
" />
<path d="M30.9078 14.5625
L30.6005 14.5625
" />
<path d="M21.3620 20.0875
L21.1463 20.0875
" />
<path d="M21.3620 19.5875
L21.1463 19.5875
" />
</g>
<g style="fill:#000000; fill-opacity:0.0; 
stroke:#000000; stroke-width:0.1270; stroke-opacity:1; 
stroke-linecap:round; stroke-linejoin:round;">
<path d="M20.6042 21.2375
L21.9042 21.2375
" />
<path d="M21.9042 21.2375
L21.9042 22.4375
" />
<path d="M21.9042 22.4375
L20.6042 22.4375
" />
<path d="M20.6042 22.4375
L20.6042 21.2375
" />
</g>
<g style="fill:#000000; fill-opacity:0.0; 
stroke:#000000; stroke-width:0.1000; stroke-opacity:1; 
stroke-linecap:round; stroke-linejoin:round;">
<circle cx="20.5542" cy="21.1875" r="0.0500" /> 
</g>
<g style="fill:#000000; fill-opacity:0.0; 
stroke:#000000; stroke-width:0.1500; stroke-opacity:1; 
stroke-linecap:round; stroke-linejoin:round;">
<path d="M17.4078 18.6125
L17.1005 18.6125
" />
<path d="M17.4078 18.0625
L17.1005 18.0625
" />
<path d="M17.1463 29.0875
L17.3620 29.0875
" />
<path d="M17.1463 29.5875
L17.3620 29.5875
" />
</g>
<g style="fill:#000000; fill-opacity:0.0; 
stroke:#000000; stroke-width:0.3000; stroke-opacity:1; 
stroke-linecap:round; stroke-linejoin:round;">
<path d="M18.7542 16.9275
L22.7542 16.9275
" />
<path d="M22.7542 16.9275
L22.7542 13.7475
" />
<path d="M22.7542 13.7475
L18.7542 13.7475
" />
<path d="M18.7542 13.7475
L18.7542 16.9275
" />
<g >
</g>
<g >
</g>
<g >
</g>
<g >
</g>
<g >
</g>
<g >
</g>
<g >
</g>
<g >
</g>
<g >
</g>
<g >
</g>
<g >
</g>
<g >
</g>
<g >
</g>
<g >
</g>
<g >
</g>
<g >
</g>
<g >
</g>
<g >
</g>
<g >
</g>
<g >
</g>
<g >
</g>
<g >
</g>
<g >
</g>
<g >
</g>
<g >
</g>
<g >
</g>
<g >
</g>
<g >
</g>
<g >
</g>
<g >
</g>
<g >
</g>
<g >
</g>
<g >
</g>
<g >
</g>
<g >
</g>
<g >
</g>
<g >
</g>
<g >
</g>
<g >
</g>
<g >
</g>
<g >
</g>
<g >
</g>
<g >
</g>
<g >
</g>
<g >
</g>
<g >
</g>
<g >
</g>
<g >
</g>
<g >
</g>
<g >
</g>
<g >
</g>
<g >
</g>
<g >
</g>
<g >
</g>
<g >
</g>
<g >
</g>
<g >
</g>
</g>
<g style="fill:#000000; fill-opacity:0.0; 
stroke:#000000; stroke-width:0.3000; stroke-opacity:1; 
stroke-linecap:round; stroke-linejoin:round;">
</g>
<g style="fill:#000000; fill-opacity:0.0; 
stroke:#000000; stroke-width:0.1000; stroke-opacity:1; 
stroke-linecap:round; stroke-linejoin:round;">
<path d="M8.7542 14.8375
L8.7542 28.8375
" />
<path d="M42.7542 30.8375 A2.0000 2.0000 0.0 0 0 44.7542 28.8375" />
<path d="M44.7542 14.8375 A2.0000 2.0000 0.0 0 0 42.7542 12.8375" />
<path d="M10.7542 12.8375
L42.7542 12.8375
" />
<path d="M10.7542 12.8375 A2.0000 2.0000 0.0 0 0 8.7542 14.8375" />
<path d="M44.7542 28.8375
L44.7542 14.8375
" />
<path d="M10.7542 30.8375
L42.7542 30.8375
" />
<path d="M8.7542 28.8375 A2.0000 2.0000 0.0 0 0 10.7542 30.8375" />
<g >
</g>
<g >
</g>
<g >
</g>
<g >
</g>
<g >
</g>
<g >
</g>
<g >
</g>
<g >
</g>
<g >
</g>
<g >
</g>
<g >
</g>
<g >
</g>
<g >
</g>
<g >
</g>
<g >
</g>
<g >
</g>
<g >
</g>
<g >
</g>
<g >
</g>
<g >
</g>
<g >
</g>
<g >
</g>
<g >
</g>
<g >
</g>
<g >
</g>
<g >
</g>
<g >
</g>
<g >
</g>
<g >
</g>
<g >
</g>
<g >
</g>
<g >
</g>
<g >
</g>
<g >
</g>
<g >
</g>
<g >
</g>
<g >
</g>
<g >
</g>
<g >
</g>
<g >
</g>
<g >
</g>
<g >
</g>
<g >
</g>
<g >
</g>
<g >
</g>
<g >
</g>
<g >
</g>
<g >
</g>
<g >
</g>
<g >
</g>
<g >
</g>
<g >
</g>
<g >
</g>
<g >
</g>
<g >
</g>
<g >
</g>
<g >
</g>
</g> 
</svg>
