<?xml version="1.0" standalone="no"?>
 <!DOCTYPE svg PUBLIC "-//W3C//DTD SVG 1.1//EN" 
 "http://www.w3.org/Graphics/SVG/1.1/DTD/svg11.dtd"> 
<svg
  xmlns:svg="http://www.w3.org/2000/svg"
  xmlns="http://www.w3.org/2000/svg"
  xmlns:xlink="http://www.w3.org/1999/xlink"
  version="1.1"
  width="62.5094mm" height="43.4848mm" viewBox="0.0000 0.0000 62.5094 43.4848">
<title>SVG Image created as wingbeat_detector-User_Drawings.svg date 2023/03/31 10:36:46 </title>
  <desc>Image generated by PCBNEW </desc>
<g style="fill:#000000; fill-opacity:1.0000;stroke:#000000; stroke-opacity:1.0000;
stroke-linecap:round; stroke-linejoin:round;"
 transform="translate(0 0) scale(1 1)">
</g>
<g style="fill:#000000; fill-opacity:0.0; 
stroke:#000000; stroke-width:0.0000; stroke-opacity:1; 
stroke-linecap:round; stroke-linejoin:round;">
</g>
<g style="fill:#000000; fill-opacity:0.0; 
stroke:#000000; stroke-width:0.1000; stroke-opacity:1; 
stroke-linecap:round; stroke-linejoin:round;">
<path d="M44.7542 14.8375 A2.0000 2.0000 0.0 0 0 42.7542 12.8375" />
<path d="M42.7542 30.8375 A2.0000 2.0000 0.0 0 0 44.7542 28.8375" />
<path d="M10.7542 12.8375
L42.7542 12.8375
" />
<path d="M8.7542 28.8375 A2.0000 2.0000 0.0 0 0 10.7542 30.8375" />
<path d="M10.7542 12.8375 A2.0000 2.0000 0.0 0 0 8.7542 14.8375" />
<path d="M8.7542 14.8375
L8.7542 28.8375
" />
<path d="M10.7542 30.8375
L42.7542 30.8375
" />
<path d="M44.7542 28.8375
L44.7542 14.8375
" />
</g>
<g style="fill:#000000; fill-opacity:0.0; 
stroke:#000000; stroke-width:0.1500; stroke-opacity:1; 
stroke-linecap:round; stroke-linejoin:round;">
<path d="M10.7542 17.8375
L10.7542 11.8375
" />
<path d="M7.7542 14.8375
L13.7542 14.8375
" />
<path d="M42.7542 31.8375
L42.7542 25.8375
" />
<path d="M39.7542 28.8375
L45.7542 28.8375
" />
<path d="M10.7542 31.8375
L10.7542 25.8375
" />
<path d="M7.7542 28.8375
L13.7542 28.8375
" />
<path d="M45.7542 21.8375
L7.7542 21.8375
" />
<path d="M26.7542 40.8375
L26.7542 2.8375
" />
<path d="M42.7542 17.8375
L42.7542 11.8375
" />
<path d="M39.7542 14.8375
L45.7542 14.8375
" />
<text x="59.3625" y="33.4458"
textLength="6.3179" font-size="1.3333" lengthAdjust="spacingAndGlyphs"
text-anchor="middle" opacity="0">R 2 mm</text>
<g class="stroked-text"><desc>R 2 mm</desc>
<path d="M57.1006 33.4084
L56.7672 32.9322
" />
<path d="M56.5291 33.4084
L56.5291 32.4084
" />
<path d="M56.5291 32.4084
L56.9101 32.4084
" />
<path d="M56.9101 32.4084
L57.0053 32.4560
" />
<path d="M57.0053 32.4560
L57.0529 32.5036
" />
<path d="M57.0529 32.5036
L57.1006 32.5989
" />
<path d="M57.1006 32.5989
L57.1006 32.7417
" />
<path d="M57.1006 32.7417
L57.0529 32.8370
" />
<path d="M57.0529 32.8370
L57.0053 32.8846
" />
<path d="M57.0053 32.8846
L56.9101 32.9322
" />
<path d="M56.9101 32.9322
L56.5291 32.9322
" />
<path d="M58.2434 32.5036
L58.2910 32.4560
" />
<path d="M58.2910 32.4560
L58.3863 32.4084
" />
<path d="M58.3863 32.4084
L58.6244 32.4084
" />
<path d="M58.6244 32.4084
L58.7196 32.4560
" />
<path d="M58.7196 32.4560
L58.7672 32.5036
" />
<path d="M58.7672 32.5036
L58.8148 32.5989
" />
<path d="M58.8148 32.5989
L58.8148 32.6941
" />
<path d="M58.8148 32.6941
L58.7672 32.8370
" />
<path d="M58.7672 32.8370
L58.1958 33.4084
" />
<path d="M58.1958 33.4084
L58.8148 33.4084
" />
<path d="M60.0053 33.4084
L60.0053 32.7417
" />
<path d="M60.0053 32.8370
L60.0529 32.7894
" />
<path d="M60.0529 32.7894
L60.1482 32.7417
" />
<path d="M60.1482 32.7417
L60.2910 32.7417
" />
<path d="M60.2910 32.7417
L60.3863 32.7894
" />
<path d="M60.3863 32.7894
L60.4339 32.8846
" />
<path d="M60.4339 32.8846
L60.4339 33.4084
" />
<path d="M60.4339 32.8846
L60.4815 32.7894
" />
<path d="M60.4815 32.7894
L60.5767 32.7417
" />
<path d="M60.5767 32.7417
L60.7196 32.7417
" />
<path d="M60.7196 32.7417
L60.8148 32.7894
" />
<path d="M60.8148 32.7894
L60.8625 32.8846
" />
<path d="M60.8625 32.8846
L60.8625 33.4084
" />
<path d="M61.3386 33.4084
L61.3386 32.7417
" />
<path d="M61.3386 32.8370
L61.3863 32.7894
" />
<path d="M61.3863 32.7894
L61.4815 32.7417
" />
<path d="M61.4815 32.7417
L61.6244 32.7417
" />
<path d="M61.6244 32.7417
L61.7196 32.7894
" />
<path d="M61.7196 32.7894
L61.7672 32.8846
" />
<path d="M61.7672 32.8846
L61.7672 33.4084
" />
<path d="M61.7672 32.8846
L61.8148 32.7894
" />
<path d="M61.8148 32.7894
L61.9101 32.7417
" />
<path d="M61.9101 32.7417
L62.0529 32.7417
" />
<path d="M62.0529 32.7417
L62.1482 32.7894
" />
<path d="M62.1482 32.7894
L62.1958 32.8846
" />
<path d="M62.1958 32.8846
L62.1958 33.4084
" />
</g><path d="M42.7542 27.5875
L42.7542 30.0875
" />
<path d="M44.0042 28.8375
L41.5042 28.8375
" />
<path d="M44.1684 30.2517
L46.8625 32.9458
" />
<path d="M44.1684 30.2517
L45.3605 30.6276
" />
<path d="M44.1684 30.2517
L44.5443 31.4439
" />
<path d="M46.8625 32.9458
L55.7035 32.9458
" />
<text x="17.7542" y="8.8614"
textLength="5.5083" font-size="1.3333" lengthAdjust="spacingAndGlyphs"
text-anchor="middle" opacity="0">18 mm</text>
<g class="stroked-text"><desc>18 mm</desc>
<path d="M15.8494 8.8241
L15.2780 8.8241
" />
<path d="M15.5637 8.8241
L15.5637 7.8241
" />
<path d="M15.5637 7.8241
L15.4685 7.9669
" />
<path d="M15.4685 7.9669
L15.3732 8.0622
" />
<path d="M15.3732 8.0622
L15.2780 8.1098
" />
<path d="M16.4208 8.2526
L16.3256 8.2050
" />
<path d="M16.3256 8.2050
L16.2780 8.1574
" />
<path d="M16.2780 8.1574
L16.2304 8.0622
" />
<path d="M16.2304 8.0622
L16.2304 8.0145
" />
<path d="M16.2304 8.0145
L16.2780 7.9193
" />
<path d="M16.2780 7.9193
L16.3256 7.8717
" />
<path d="M16.3256 7.8717
L16.4208 7.8241
" />
<path d="M16.4208 7.8241
L16.6113 7.8241
" />
<path d="M16.6113 7.8241
L16.7065 7.8717
" />
<path d="M16.7065 7.8717
L16.7542 7.9193
" />
<path d="M16.7542 7.9193
L16.8018 8.0145
" />
<path d="M16.8018 8.0145
L16.8018 8.0622
" />
<path d="M16.8018 8.0622
L16.7542 8.1574
" />
<path d="M16.7542 8.1574
L16.7065 8.2050
" />
<path d="M16.7065 8.2050
L16.6113 8.2526
" />
<path d="M16.6113 8.2526
L16.4208 8.2526
" />
<path d="M16.4208 8.2526
L16.3256 8.3003
" />
<path d="M16.3256 8.3003
L16.2780 8.3479
" />
<path d="M16.2780 8.3479
L16.2304 8.4431
" />
<path d="M16.2304 8.4431
L16.2304 8.6336
" />
<path d="M16.2304 8.6336
L16.2780 8.7288
" />
<path d="M16.2780 8.7288
L16.3256 8.7764
" />
<path d="M16.3256 8.7764
L16.4208 8.8241
" />
<path d="M16.4208 8.8241
L16.6113 8.8241
" />
<path d="M16.6113 8.8241
L16.7065 8.7764
" />
<path d="M16.7065 8.7764
L16.7542 8.7288
" />
<path d="M16.7542 8.7288
L16.8018 8.6336
" />
<path d="M16.8018 8.6336
L16.8018 8.4431
" />
<path d="M16.8018 8.4431
L16.7542 8.3479
" />
<path d="M16.7542 8.3479
L16.7065 8.3003
" />
<path d="M16.7065 8.3003
L16.6113 8.2526
" />
<path d="M17.9923 8.8241
L17.9923 8.1574
" />
<path d="M17.9923 8.2526
L18.0399 8.2050
" />
<path d="M18.0399 8.2050
L18.1351 8.1574
" />
<path d="M18.1351 8.1574
L18.2780 8.1574
" />
<path d="M18.2780 8.1574
L18.3732 8.2050
" />
<path d="M18.3732 8.2050
L18.4208 8.3003
" />
<path d="M18.4208 8.3003
L18.4208 8.8241
" />
<path d="M18.4208 8.3003
L18.4685 8.2050
" />
<path d="M18.4685 8.2050
L18.5637 8.1574
" />
<path d="M18.5637 8.1574
L18.7065 8.1574
" />
<path d="M18.7065 8.1574
L18.8018 8.2050
" />
<path d="M18.8018 8.2050
L18.8494 8.3003
" />
<path d="M18.8494 8.3003
L18.8494 8.8241
" />
<path d="M19.3256 8.8241
L19.3256 8.1574
" />
<path d="M19.3256 8.2526
L19.3732 8.2050
" />
<path d="M19.3732 8.2050
L19.4685 8.1574
" />
<path d="M19.4685 8.1574
L19.6113 8.1574
" />
<path d="M19.6113 8.1574
L19.7065 8.2050
" />
<path d="M19.7065 8.2050
L19.7542 8.3003
" />
<path d="M19.7542 8.3003
L19.7542 8.8241
" />
<path d="M19.7542 8.3003
L19.8018 8.2050
" />
<path d="M19.8018 8.2050
L19.8970 8.1574
" />
<path d="M19.8970 8.1574
L20.0399 8.1574
" />
<path d="M20.0399 8.1574
L20.1351 8.2050
" />
<path d="M20.1351 8.2050
L20.1827 8.3003
" />
<path d="M20.1827 8.3003
L20.1827 8.8241
" />
</g><path d="M26.7542 21.3375
L26.7542 8.9250
" />
<path d="M8.7542 8.9250
L8.7542 16.3375
" />
<path d="M26.7542 9.5114
L8.7542 9.5114
" />
<path d="M26.7542 9.5114
L8.7542 9.5114
" />
<path d="M26.7542 9.5114
L25.6454 10.0886
" />
<path d="M26.7542 9.5114
L25.6454 8.9343
" />
<path d="M8.7542 9.5114
L9.8629 8.9343
" />
<path d="M8.7542 9.5114
L9.8629 10.0886
" />
<text x="34.7542" y="8.8614"
textLength="5.5083" font-size="1.3333" lengthAdjust="spacingAndGlyphs"
text-anchor="middle" opacity="0">16 mm</text>
<g class="stroked-text"><desc>16 mm</desc>
<path d="M32.8494 8.8241
L32.2780 8.8241
" />
<path d="M32.5637 8.8241
L32.5637 7.8241
" />
<path d="M32.5637 7.8241
L32.4685 7.9669
" />
<path d="M32.4685 7.9669
L32.3732 8.0622
" />
<path d="M32.3732 8.0622
L32.2780 8.1098
" />
<path d="M33.7065 7.8241
L33.5161 7.8241
" />
<path d="M33.5161 7.8241
L33.4208 7.8717
" />
<path d="M33.4208 7.8717
L33.3732 7.9193
" />
<path d="M33.3732 7.9193
L33.2780 8.0622
" />
<path d="M33.2780 8.0622
L33.2304 8.2526
" />
<path d="M33.2304 8.2526
L33.2304 8.6336
" />
<path d="M33.2304 8.6336
L33.2780 8.7288
" />
<path d="M33.2780 8.7288
L33.3256 8.7764
" />
<path d="M33.3256 8.7764
L33.4208 8.8241
" />
<path d="M33.4208 8.8241
L33.6113 8.8241
" />
<path d="M33.6113 8.8241
L33.7065 8.7764
" />
<path d="M33.7065 8.7764
L33.7542 8.7288
" />
<path d="M33.7542 8.7288
L33.8018 8.6336
" />
<path d="M33.8018 8.6336
L33.8018 8.3955
" />
<path d="M33.8018 8.3955
L33.7542 8.3003
" />
<path d="M33.7542 8.3003
L33.7065 8.2526
" />
<path d="M33.7065 8.2526
L33.6113 8.2050
" />
<path d="M33.6113 8.2050
L33.4208 8.2050
" />
<path d="M33.4208 8.2050
L33.3256 8.2526
" />
<path d="M33.3256 8.2526
L33.2780 8.3003
" />
<path d="M33.2780 8.3003
L33.2304 8.3955
" />
<path d="M34.9923 8.8241
L34.9923 8.1574
" />
<path d="M34.9923 8.2526
L35.0399 8.2050
" />
<path d="M35.0399 8.2050
L35.1351 8.1574
" />
<path d="M35.1351 8.1574
L35.2780 8.1574
" />
<path d="M35.2780 8.1574
L35.3732 8.2050
" />
<path d="M35.3732 8.2050
L35.4208 8.3003
" />
<path d="M35.4208 8.3003
L35.4208 8.8241
" />
<path d="M35.4208 8.3003
L35.4685 8.2050
" />
<path d="M35.4685 8.2050
L35.5637 8.1574
" />
<path d="M35.5637 8.1574
L35.7065 8.1574
" />
<path d="M35.7065 8.1574
L35.8018 8.2050
" />
<path d="M35.8018 8.2050
L35.8494 8.3003
" />
<path d="M35.8494 8.3003
L35.8494 8.8241
" />
<path d="M36.3256 8.8241
L36.3256 8.1574
" />
<path d="M36.3256 8.2526
L36.3732 8.2050
" />
<path d="M36.3732 8.2050
L36.4685 8.1574
" />
<path d="M36.4685 8.1574
L36.6113 8.1574
" />
<path d="M36.6113 8.1574
L36.7065 8.2050
" />
<path d="M36.7065 8.2050
L36.7542 8.3003
" />
<path d="M36.7542 8.3003
L36.7542 8.8241
" />
<path d="M36.7542 8.3003
L36.8018 8.2050
" />
<path d="M36.8018 8.2050
L36.8970 8.1574
" />
<path d="M36.8970 8.1574
L37.0399 8.1574
" />
<path d="M37.0399 8.1574
L37.1351 8.2050
" />
<path d="M37.1351 8.2050
L37.1827 8.3003
" />
<path d="M37.1827 8.3003
L37.1827 8.8241
" />
</g><path d="M26.7542 21.3375
L26.7542 8.9250
" />
<path d="M42.7542 8.9250
L42.7542 14.3375
" />
<path d="M26.7542 9.5114
L42.7542 9.5114
" />
<path d="M26.7542 9.5114
L42.7542 9.5114
" />
<path d="M26.7542 9.5114
L27.8629 8.9343
" />
<path d="M26.7542 9.5114
L27.8629 10.0886
" />
<path d="M42.7542 9.5114
L41.6454 10.0886
" />
<path d="M42.7542 9.5114
L41.6454 8.9343
" />
<text x="47.7542" y="36.3375"
textLength="6.9369" font-size="1.3333" lengthAdjust="spacingAndGlyphs"
text-anchor="middle" opacity="0">2.26 mm</text>
<g class="stroked-text"><desc>2.26 mm</desc>
<path d="M44.5637 35.3954
L44.6113 35.3477
" />
<path d="M44.6113 35.3477
L44.7065 35.3001
" />
<path d="M44.7065 35.3001
L44.9446 35.3001
" />
<path d="M44.9446 35.3001
L45.0399 35.3477
" />
<path d="M45.0399 35.3477
L45.0875 35.3954
" />
<path d="M45.0875 35.3954
L45.1351 35.4906
" />
<path d="M45.1351 35.4906
L45.1351 35.5858
" />
<path d="M45.1351 35.5858
L45.0875 35.7287
" />
<path d="M45.0875 35.7287
L44.5161 36.3001
" />
<path d="M44.5161 36.3001
L45.1351 36.3001
" />
<path d="M45.5637 36.2049
L45.6113 36.2525
" />
<path d="M45.6113 36.2525
L45.5637 36.3001
" />
<path d="M45.5637 36.3001
L45.5161 36.2525
" />
<path d="M45.5161 36.2525
L45.5637 36.2049
" />
<path d="M45.5637 36.2049
L45.5637 36.3001
" />
<path d="M45.9923 35.3954
L46.0399 35.3477
" />
<path d="M46.0399 35.3477
L46.1351 35.3001
" />
<path d="M46.1351 35.3001
L46.3732 35.3001
" />
<path d="M46.3732 35.3001
L46.4685 35.3477
" />
<path d="M46.4685 35.3477
L46.5161 35.3954
" />
<path d="M46.5161 35.3954
L46.5637 35.4906
" />
<path d="M46.5637 35.4906
L46.5637 35.5858
" />
<path d="M46.5637 35.5858
L46.5161 35.7287
" />
<path d="M46.5161 35.7287
L45.9446 36.3001
" />
<path d="M45.9446 36.3001
L46.5637 36.3001
" />
<path d="M47.4208 35.3001
L47.2304 35.3001
" />
<path d="M47.2304 35.3001
L47.1351 35.3477
" />
<path d="M47.1351 35.3477
L47.0875 35.3954
" />
<path d="M47.0875 35.3954
L46.9923 35.5382
" />
<path d="M46.9923 35.5382
L46.9446 35.7287
" />
<path d="M46.9446 35.7287
L46.9446 36.1096
" />
<path d="M46.9446 36.1096
L46.9923 36.2049
" />
<path d="M46.9923 36.2049
L47.0399 36.2525
" />
<path d="M47.0399 36.2525
L47.1351 36.3001
" />
<path d="M47.1351 36.3001
L47.3256 36.3001
" />
<path d="M47.3256 36.3001
L47.4208 36.2525
" />
<path d="M47.4208 36.2525
L47.4685 36.2049
" />
<path d="M47.4685 36.2049
L47.5161 36.1096
" />
<path d="M47.5161 36.1096
L47.5161 35.8715
" />
<path d="M47.5161 35.8715
L47.4685 35.7763
" />
<path d="M47.4685 35.7763
L47.4208 35.7287
" />
<path d="M47.4208 35.7287
L47.3256 35.6811
" />
<path d="M47.3256 35.6811
L47.1351 35.6811
" />
<path d="M47.1351 35.6811
L47.0399 35.7287
" />
<path d="M47.0399 35.7287
L46.9923 35.7763
" />
<path d="M46.9923 35.7763
L46.9446 35.8715
" />
<path d="M48.7065 36.3001
L48.7065 35.6335
" />
<path d="M48.7065 35.7287
L48.7542 35.6811
" />
<path d="M48.7542 35.6811
L48.8494 35.6335
" />
<path d="M48.8494 35.6335
L48.9923 35.6335
" />
<path d="M48.9923 35.6335
L49.0875 35.6811
" />
<path d="M49.0875 35.6811
L49.1351 35.7763
" />
<path d="M49.1351 35.7763
L49.1351 36.3001
" />
<path d="M49.1351 35.7763
L49.1827 35.6811
" />
<path d="M49.1827 35.6811
L49.2780 35.6335
" />
<path d="M49.2780 35.6335
L49.4208 35.6335
" />
<path d="M49.4208 35.6335
L49.5161 35.6811
" />
<path d="M49.5161 35.6811
L49.5637 35.7763
" />
<path d="M49.5637 35.7763
L49.5637 36.3001
" />
<path d="M50.0399 36.3001
L50.0399 35.6335
" />
<path d="M50.0399 35.7287
L50.0875 35.6811
" />
<path d="M50.0875 35.6811
L50.1827 35.6335
" />
<path d="M50.1827 35.6335
L50.3256 35.6335
" />
<path d="M50.3256 35.6335
L50.4208 35.6811
" />
<path d="M50.4208 35.6811
L50.4685 35.7763
" />
<path d="M50.4685 35.7763
L50.4685 36.3001
" />
<path d="M50.4685 35.7763
L50.5161 35.6811
" />
<path d="M50.5161 35.6811
L50.6113 35.6335
" />
<path d="M50.6113 35.6335
L50.7542 35.6335
" />
<path d="M50.7542 35.6335
L50.8494 35.6811
" />
<path d="M50.8494 35.6811
L50.8970 35.7763
" />
<path d="M50.8970 35.7763
L50.8970 36.3001
" />
</g><path d="M43.8842 30.3375
L43.8842 36.4239
" />
<path d="M41.6242 36.4239
L41.6242 30.3375
" />
<path d="M43.7857 35.8375
L41.6242 35.8375
" />
<path d="M43.8842 35.8375
L43.4407 36.0684
" />
<path d="M43.8842 35.8375
L43.4407 35.6066
" />
<path d="M41.6242 35.8375
L42.0677 35.6066
" />
<path d="M41.6242 35.8375
L42.0677 36.0684
" />
<text x="26.7542" y="1.1875"
textLength="5.5083" font-size="1.3333" lengthAdjust="spacingAndGlyphs"
text-anchor="middle" opacity="0">36 mm</text>
<g class="stroked-text"><desc>36 mm</desc>
<path d="M24.2304 0.1501
L24.8494 0.1501
" />
<path d="M24.8494 0.1501
L24.5161 0.5311
" />
<path d="M24.5161 0.5311
L24.6589 0.5311
" />
<path d="M24.6589 0.5311
L24.7542 0.5787
" />
<path d="M24.7542 0.5787
L24.8018 0.6263
" />
<path d="M24.8018 0.6263
L24.8494 0.7215
" />
<path d="M24.8494 0.7215
L24.8494 0.9596
" />
<path d="M24.8494 0.9596
L24.8018 1.0549
" />
<path d="M24.8018 1.0549
L24.7542 1.1025
" />
<path d="M24.7542 1.1025
L24.6589 1.1501
" />
<path d="M24.6589 1.1501
L24.3732 1.1501
" />
<path d="M24.3732 1.1501
L24.2780 1.1025
" />
<path d="M24.2780 1.1025
L24.2304 1.0549
" />
<path d="M25.7065 0.1501
L25.5161 0.1501
" />
<path d="M25.5161 0.1501
L25.4208 0.1977
" />
<path d="M25.4208 0.1977
L25.3732 0.2454
" />
<path d="M25.3732 0.2454
L25.2780 0.3882
" />
<path d="M25.2780 0.3882
L25.2304 0.5787
" />
<path d="M25.2304 0.5787
L25.2304 0.9596
" />
<path d="M25.2304 0.9596
L25.2780 1.0549
" />
<path d="M25.2780 1.0549
L25.3256 1.1025
" />
<path d="M25.3256 1.1025
L25.4208 1.1501
" />
<path d="M25.4208 1.1501
L25.6113 1.1501
" />
<path d="M25.6113 1.1501
L25.7065 1.1025
" />
<path d="M25.7065 1.1025
L25.7542 1.0549
" />
<path d="M25.7542 1.0549
L25.8018 0.9596
" />
<path d="M25.8018 0.9596
L25.8018 0.7215
" />
<path d="M25.8018 0.7215
L25.7542 0.6263
" />
<path d="M25.7542 0.6263
L25.7065 0.5787
" />
<path d="M25.7065 0.5787
L25.6113 0.5311
" />
<path d="M25.6113 0.5311
L25.4208 0.5311
" />
<path d="M25.4208 0.5311
L25.3256 0.5787
" />
<path d="M25.3256 0.5787
L25.2780 0.6263
" />
<path d="M25.2780 0.6263
L25.2304 0.7215
" />
<path d="M26.9923 1.1501
L26.9923 0.4835
" />
<path d="M26.9923 0.5787
L27.0399 0.5311
" />
<path d="M27.0399 0.5311
L27.1351 0.4835
" />
<path d="M27.1351 0.4835
L27.2780 0.4835
" />
<path d="M27.2780 0.4835
L27.3732 0.5311
" />
<path d="M27.3732 0.5311
L27.4208 0.6263
" />
<path d="M27.4208 0.6263
L27.4208 1.1501
" />
<path d="M27.4208 0.6263
L27.4685 0.5311
" />
<path d="M27.4685 0.5311
L27.5637 0.4835
" />
<path d="M27.5637 0.4835
L27.7065 0.4835
" />
<path d="M27.7065 0.4835
L27.8018 0.5311
" />
<path d="M27.8018 0.5311
L27.8494 0.6263
" />
<path d="M27.8494 0.6263
L27.8494 1.1501
" />
<path d="M28.3256 1.1501
L28.3256 0.4835
" />
<path d="M28.3256 0.5787
L28.3732 0.5311
" />
<path d="M28.3732 0.5311
L28.4685 0.4835
" />
<path d="M28.4685 0.4835
L28.6113 0.4835
" />
<path d="M28.6113 0.4835
L28.7065 0.5311
" />
<path d="M28.7065 0.5311
L28.7542 0.6263
" />
<path d="M28.7542 0.6263
L28.7542 1.1501
" />
<path d="M28.7542 0.6263
L28.8018 0.5311
" />
<path d="M28.8018 0.5311
L28.8970 0.4835
" />
<path d="M28.8970 0.4835
L29.0399 0.4835
" />
<path d="M29.0399 0.4835
L29.1351 0.5311
" />
<path d="M29.1351 0.5311
L29.1827 0.6263
" />
<path d="M29.1827 0.6263
L29.1827 1.1501
" />
</g><path d="M44.7542 19.3375
L44.7542 1.2511
" />
<path d="M8.7542 1.2511
L8.7542 19.3375
" />
<path d="M44.7542 1.8375
L8.7542 1.8375
" />
<path d="M44.7542 1.8375
L8.7542 1.8375
" />
<path d="M44.7542 1.8375
L43.6454 2.4147
" />
<path d="M44.7542 1.8375
L43.6454 1.2603
" />
<path d="M8.7542 1.8375
L9.8629 1.2603
" />
<path d="M8.7542 1.8375
L9.8629 2.4147
" />
<text x="26.7542" y="42.1875"
textLength="5.5083" font-size="1.3333" lengthAdjust="spacingAndGlyphs"
text-anchor="middle" opacity="0">32 mm</text>
<g class="stroked-text"><desc>32 mm</desc>
<path d="M24.2304 41.1501
L24.8494 41.1501
" />
<path d="M24.8494 41.1501
L24.5161 41.5311
" />
<path d="M24.5161 41.5311
L24.6589 41.5311
" />
<path d="M24.6589 41.5311
L24.7542 41.5787
" />
<path d="M24.7542 41.5787
L24.8018 41.6263
" />
<path d="M24.8018 41.6263
L24.8494 41.7215
" />
<path d="M24.8494 41.7215
L24.8494 41.9596
" />
<path d="M24.8494 41.9596
L24.8018 42.0549
" />
<path d="M24.8018 42.0549
L24.7542 42.1025
" />
<path d="M24.7542 42.1025
L24.6589 42.1501
" />
<path d="M24.6589 42.1501
L24.3732 42.1501
" />
<path d="M24.3732 42.1501
L24.2780 42.1025
" />
<path d="M24.2780 42.1025
L24.2304 42.0549
" />
<path d="M25.2304 41.2454
L25.2780 41.1977
" />
<path d="M25.2780 41.1977
L25.3732 41.1501
" />
<path d="M25.3732 41.1501
L25.6113 41.1501
" />
<path d="M25.6113 41.1501
L25.7065 41.1977
" />
<path d="M25.7065 41.1977
L25.7542 41.2454
" />
<path d="M25.7542 41.2454
L25.8018 41.3406
" />
<path d="M25.8018 41.3406
L25.8018 41.4358
" />
<path d="M25.8018 41.4358
L25.7542 41.5787
" />
<path d="M25.7542 41.5787
L25.1827 42.1501
" />
<path d="M25.1827 42.1501
L25.8018 42.1501
" />
<path d="M26.9923 42.1501
L26.9923 41.4835
" />
<path d="M26.9923 41.5787
L27.0399 41.5311
" />
<path d="M27.0399 41.5311
L27.1351 41.4835
" />
<path d="M27.1351 41.4835
L27.2780 41.4835
" />
<path d="M27.2780 41.4835
L27.3732 41.5311
" />
<path d="M27.3732 41.5311
L27.4208 41.6263
" />
<path d="M27.4208 41.6263
L27.4208 42.1501
" />
<path d="M27.4208 41.6263
L27.4685 41.5311
" />
<path d="M27.4685 41.5311
L27.5637 41.4835
" />
<path d="M27.5637 41.4835
L27.7065 41.4835
" />
<path d="M27.7065 41.4835
L27.8018 41.5311
" />
<path d="M27.8018 41.5311
L27.8494 41.6263
" />
<path d="M27.8494 41.6263
L27.8494 42.1501
" />
<path d="M28.3256 42.1501
L28.3256 41.4835
" />
<path d="M28.3256 41.5787
L28.3732 41.5311
" />
<path d="M28.3732 41.5311
L28.4685 41.4835
" />
<path d="M28.4685 41.4835
L28.6113 41.4835
" />
<path d="M28.6113 41.4835
L28.7065 41.5311
" />
<path d="M28.7065 41.5311
L28.7542 41.6263
" />
<path d="M28.7542 41.6263
L28.7542 42.1501
" />
<path d="M28.7542 41.6263
L28.8018 41.5311
" />
<path d="M28.8018 41.5311
L28.8970 41.4835
" />
<path d="M28.8970 41.4835
L29.0399 41.4835
" />
<path d="M29.0399 41.4835
L29.1351 41.5311
" />
<path d="M29.1351 41.5311
L29.1827 41.6263
" />
<path d="M29.1827 41.6263
L29.1827 42.1501
" />
</g><path d="M42.7542 29.3375
L42.7542 43.4239
" />
<path d="M10.7542 43.4239
L10.7542 29.3375
" />
<path d="M42.7542 42.8375
L10.7542 42.8375
" />
<path d="M42.7542 42.8375
L10.7542 42.8375
" />
<path d="M42.7542 42.8375
L41.6454 43.4147
" />
<path d="M42.7542 42.8375
L41.6454 42.2603
" />
<path d="M10.7542 42.8375
L11.8629 42.2603
" />
<path d="M10.7542 42.8375
L11.8629 43.4147
" />
<g transform="rotate(-90.000000 2.7542 21.8375)">
<text x="2.7542" y="22.3375"
textLength="5.5083" font-size="1.3333" lengthAdjust="spacingAndGlyphs"
text-anchor="middle" opacity="0">18 mm</text>
</g>
<g class="stroked-text"><desc>18 mm</desc>
<path d="M3.2168 23.7423
L3.2168 24.3137
" />
<path d="M3.2168 24.0280
L2.2168 24.0280
" />
<path d="M2.2168 24.0280
L2.3596 24.1232
" />
<path d="M2.3596 24.1232
L2.4549 24.2185
" />
<path d="M2.4549 24.2185
L2.5025 24.3137
" />
<path d="M2.6454 23.1708
L2.5977 23.2661
" />
<path d="M2.5977 23.2661
L2.5501 23.3137
" />
<path d="M2.5501 23.3137
L2.4549 23.3613
" />
<path d="M2.4549 23.3613
L2.4073 23.3613
" />
<path d="M2.4073 23.3613
L2.3120 23.3137
" />
<path d="M2.3120 23.3137
L2.2644 23.2661
" />
<path d="M2.2644 23.2661
L2.2168 23.1708
" />
<path d="M2.2168 23.1708
L2.2168 22.9804
" />
<path d="M2.2168 22.9804
L2.2644 22.8851
" />
<path d="M2.2644 22.8851
L2.3120 22.8375
" />
<path d="M2.3120 22.8375
L2.4073 22.7899
" />
<path d="M2.4073 22.7899
L2.4549 22.7899
" />
<path d="M2.4549 22.7899
L2.5501 22.8375
" />
<path d="M2.5501 22.8375
L2.5977 22.8851
" />
<path d="M2.5977 22.8851
L2.6454 22.9804
" />
<path d="M2.6454 22.9804
L2.6454 23.1708
" />
<path d="M2.6454 23.1708
L2.6930 23.2661
" />
<path d="M2.6930 23.2661
L2.7406 23.3137
" />
<path d="M2.7406 23.3137
L2.8358 23.3613
" />
<path d="M2.8358 23.3613
L3.0263 23.3613
" />
<path d="M3.0263 23.3613
L3.1215 23.3137
" />
<path d="M3.1215 23.3137
L3.1692 23.2661
" />
<path d="M3.1692 23.2661
L3.2168 23.1708
" />
<path d="M3.2168 23.1708
L3.2168 22.9804
" />
<path d="M3.2168 22.9804
L3.1692 22.8851
" />
<path d="M3.1692 22.8851
L3.1215 22.8375
" />
<path d="M3.1215 22.8375
L3.0263 22.7899
" />
<path d="M3.0263 22.7899
L2.8358 22.7899
" />
<path d="M2.8358 22.7899
L2.7406 22.8375
" />
<path d="M2.7406 22.8375
L2.6930 22.8851
" />
<path d="M2.6930 22.8851
L2.6454 22.9804
" />
<path d="M3.2168 21.5994
L2.5501 21.5994
" />
<path d="M2.6454 21.5994
L2.5977 21.5518
" />
<path d="M2.5977 21.5518
L2.5501 21.4565
" />
<path d="M2.5501 21.4565
L2.5501 21.3137
" />
<path d="M2.5501 21.3137
L2.5977 21.2185
" />
<path d="M2.5977 21.2185
L2.6930 21.1708
" />
<path d="M2.6930 21.1708
L3.2168 21.1708
" />
<path d="M2.6930 21.1708
L2.5977 21.1232
" />
<path d="M2.5977 21.1232
L2.5501 21.0280
" />
<path d="M2.5501 21.0280
L2.5501 20.8851
" />
<path d="M2.5501 20.8851
L2.5977 20.7899
" />
<path d="M2.5977 20.7899
L2.6930 20.7423
" />
<path d="M2.6930 20.7423
L3.2168 20.7423
" />
<path d="M3.2168 20.2661
L2.5501 20.2661
" />
<path d="M2.6454 20.2661
L2.5977 20.2185
" />
<path d="M2.5977 20.2185
L2.5501 20.1232
" />
<path d="M2.5501 20.1232
L2.5501 19.9804
" />
<path d="M2.5501 19.9804
L2.5977 19.8851
" />
<path d="M2.5977 19.8851
L2.6930 19.8375
" />
<path d="M2.6930 19.8375
L3.2168 19.8375
" />
<path d="M2.6930 19.8375
L2.5977 19.7899
" />
<path d="M2.5977 19.7899
L2.5501 19.6946
" />
<path d="M2.5501 19.6946
L2.5501 19.5518
" />
<path d="M2.5501 19.5518
L2.5977 19.4565
" />
<path d="M2.5977 19.4565
L2.6930 19.4089
" />
<path d="M2.6930 19.4089
L3.2168 19.4089
" />
</g><path d="M39.2592 12.8375
L3.1677 12.8375
" />
<path d="M3.1677 30.8375
L38.2592 30.8375
" />
<path d="M3.7542 12.8375
L3.7542 30.8375
" />
<path d="M3.7542 12.8375
L3.7542 30.8375
" />
<path d="M3.7542 12.8375
L4.3314 13.9463
" />
<path d="M3.7542 12.8375
L3.1770 13.9463
" />
<path d="M3.7542 30.8375
L3.1770 29.7287
" />
<path d="M3.7542 30.8375
L4.3314 29.7287
" />
<g transform="rotate(-90.000000 5.4661 18.3375)">
<text x="5.4661" y="18.8375"
textLength="4.5560" font-size="1.3333" lengthAdjust="spacingAndGlyphs"
text-anchor="middle" opacity="0">7 mm</text>
</g>
<g class="stroked-text"><desc>7 mm</desc>
<path d="M4.9287 20.3851
L4.9287 19.7185
" />
<path d="M4.9287 19.7185
L5.9287 20.1470
" />
<path d="M5.9287 18.5756
L5.2621 18.5756
" />
<path d="M5.3573 18.5756
L5.3097 18.5280
" />
<path d="M5.3097 18.5280
L5.2621 18.4327
" />
<path d="M5.2621 18.4327
L5.2621 18.2899
" />
<path d="M5.2621 18.2899
L5.3097 18.1946
" />
<path d="M5.3097 18.1946
L5.4049 18.1470
" />
<path d="M5.4049 18.1470
L5.9287 18.1470
" />
<path d="M5.4049 18.1470
L5.3097 18.0994
" />
<path d="M5.3097 18.0994
L5.2621 18.0042
" />
<path d="M5.2621 18.0042
L5.2621 17.8613
" />
<path d="M5.2621 17.8613
L5.3097 17.7661
" />
<path d="M5.3097 17.7661
L5.4049 17.7185
" />
<path d="M5.4049 17.7185
L5.9287 17.7185
" />
<path d="M5.9287 17.2423
L5.2621 17.2423
" />
<path d="M5.3573 17.2423
L5.3097 17.1946
" />
<path d="M5.3097 17.1946
L5.2621 17.0994
" />
<path d="M5.2621 17.0994
L5.2621 16.9565
" />
<path d="M5.2621 16.9565
L5.3097 16.8613
" />
<path d="M5.3097 16.8613
L5.4049 16.8137
" />
<path d="M5.4049 16.8137
L5.9287 16.8137
" />
<path d="M5.4049 16.8137
L5.3097 16.7661
" />
<path d="M5.3097 16.7661
L5.2621 16.6708
" />
<path d="M5.2621 16.6708
L5.2621 16.5280
" />
<path d="M5.2621 16.5280
L5.3097 16.4327
" />
<path d="M5.3097 16.4327
L5.4049 16.3851
" />
<path d="M5.4049 16.3851
L5.9287 16.3851
" />
</g><path d="M26.2542 21.8375
L6.0297 21.8375
" />
<path d="M6.0297 14.8375
L42.2542 14.8375
" />
<path d="M6.6161 21.8375
L6.6161 14.8375
" />
<path d="M6.6161 21.8375
L6.6161 14.8375
" />
<path d="M6.6161 21.8375
L6.0389 20.7287
" />
<path d="M6.6161 21.8375
L7.1933 20.7287
" />
<path d="M6.6161 14.8375
L7.1933 15.9463
" />
<path d="M6.6161 14.8375
L6.0389 15.9463
" />
<g transform="rotate(-90.000000 5.4765 26.3375)">
<text x="5.4765" y="26.8375"
textLength="4.5560" font-size="1.3333" lengthAdjust="spacingAndGlyphs"
text-anchor="middle" opacity="0">9 mm</text>
</g>
<g class="stroked-text"><desc>9 mm</desc>
<path d="M5.9391 28.2423
L5.9391 28.0518
" />
<path d="M5.9391 28.0518
L5.8915 27.9565
" />
<path d="M5.8915 27.9565
L5.8439 27.9089
" />
<path d="M5.8439 27.9089
L5.7010 27.8137
" />
<path d="M5.7010 27.8137
L5.5105 27.7661
" />
<path d="M5.5105 27.7661
L5.1296 27.7661
" />
<path d="M5.1296 27.7661
L5.0343 27.8137
" />
<path d="M5.0343 27.8137
L4.9867 27.8613
" />
<path d="M4.9867 27.8613
L4.9391 27.9565
" />
<path d="M4.9391 27.9565
L4.9391 28.1470
" />
<path d="M4.9391 28.1470
L4.9867 28.2423
" />
<path d="M4.9867 28.2423
L5.0343 28.2899
" />
<path d="M5.0343 28.2899
L5.1296 28.3375
" />
<path d="M5.1296 28.3375
L5.3677 28.3375
" />
<path d="M5.3677 28.3375
L5.4629 28.2899
" />
<path d="M5.4629 28.2899
L5.5105 28.2423
" />
<path d="M5.5105 28.2423
L5.5581 28.1470
" />
<path d="M5.5581 28.1470
L5.5581 27.9565
" />
<path d="M5.5581 27.9565
L5.5105 27.8613
" />
<path d="M5.5105 27.8613
L5.4629 27.8137
" />
<path d="M5.4629 27.8137
L5.3677 27.7661
" />
<path d="M5.9391 26.5756
L5.2724 26.5756
" />
<path d="M5.3677 26.5756
L5.3201 26.5280
" />
<path d="M5.3201 26.5280
L5.2724 26.4327
" />
<path d="M5.2724 26.4327
L5.2724 26.2899
" />
<path d="M5.2724 26.2899
L5.3201 26.1946
" />
<path d="M5.3201 26.1946
L5.4153 26.1470
" />
<path d="M5.4153 26.1470
L5.9391 26.1470
" />
<path d="M5.4153 26.1470
L5.3201 26.0994
" />
<path d="M5.3201 26.0994
L5.2724 26.0042
" />
<path d="M5.2724 26.0042
L5.2724 25.8613
" />
<path d="M5.2724 25.8613
L5.3201 25.7661
" />
<path d="M5.3201 25.7661
L5.4153 25.7185
" />
<path d="M5.4153 25.7185
L5.9391 25.7185
" />
<path d="M5.9391 25.2423
L5.2724 25.2423
" />
<path d="M5.3677 25.2423
L5.3201 25.1946
" />
<path d="M5.3201 25.1946
L5.2724 25.0994
" />
<path d="M5.2724 25.0994
L5.2724 24.9565
" />
<path d="M5.2724 24.9565
L5.3201 24.8613
" />
<path d="M5.3201 24.8613
L5.4153 24.8137
" />
<path d="M5.4153 24.8137
L5.9391 24.8137
" />
<path d="M5.4153 24.8137
L5.3201 24.7661
" />
<path d="M5.3201 24.7661
L5.2724 24.6708
" />
<path d="M5.2724 24.6708
L5.2724 24.5280
" />
<path d="M5.2724 24.5280
L5.3201 24.4327
" />
<path d="M5.3201 24.4327
L5.4153 24.3851
" />
<path d="M5.4153 24.3851
L5.9391 24.3851
" />
</g><path d="M26.2542 21.8375
L6.0401 21.8375
" />
<path d="M6.0401 30.8375
L24.2542 30.8375
" />
<path d="M6.6265 21.8375
L6.6265 30.8375
" />
<path d="M6.6265 21.8375
L6.6265 30.8375
" />
<path d="M6.6265 21.8375
L7.2037 22.9463
" />
<path d="M6.6265 21.8375
L6.0493 22.9463
" />
<path d="M6.6265 30.8375
L6.0493 29.7287
" />
<path d="M6.6265 30.8375
L7.2037 29.7287
" />
<g transform="rotate(-90.000000 47.6042 21.8375)">
<text x="47.6042" y="22.3375"
textLength="5.5083" font-size="1.3333" lengthAdjust="spacingAndGlyphs"
text-anchor="middle" opacity="0">14 mm</text>
</g>
<g class="stroked-text"><desc>14 mm</desc>
<path d="M48.0668 23.7423
L48.0668 24.3137
" />
<path d="M48.0668 24.0280
L47.0668 24.0280
" />
<path d="M47.0668 24.0280
L47.2096 24.1232
" />
<path d="M47.2096 24.1232
L47.3049 24.2185
" />
<path d="M47.3049 24.2185
L47.3525 24.3137
" />
<path d="M47.4001 22.8851
L48.0668 22.8851
" />
<path d="M47.0192 23.1232
L47.7335 23.3613
" />
<path d="M47.7335 23.3613
L47.7335 22.7423
" />
<path d="M48.0668 21.5994
L47.4001 21.5994
" />
<path d="M47.4954 21.5994
L47.4477 21.5518
" />
<path d="M47.4477 21.5518
L47.4001 21.4565
" />
<path d="M47.4001 21.4565
L47.4001 21.3137
" />
<path d="M47.4001 21.3137
L47.4477 21.2185
" />
<path d="M47.4477 21.2185
L47.5430 21.1708
" />
<path d="M47.5430 21.1708
L48.0668 21.1708
" />
<path d="M47.5430 21.1708
L47.4477 21.1232
" />
<path d="M47.4477 21.1232
L47.4001 21.0280
" />
<path d="M47.4001 21.0280
L47.4001 20.8851
" />
<path d="M47.4001 20.8851
L47.4477 20.7899
" />
<path d="M47.4477 20.7899
L47.5430 20.7423
" />
<path d="M47.5430 20.7423
L48.0668 20.7423
" />
<path d="M48.0668 20.2661
L47.4001 20.2661
" />
<path d="M47.4954 20.2661
L47.4477 20.2185
" />
<path d="M47.4477 20.2185
L47.4001 20.1232
" />
<path d="M47.4001 20.1232
L47.4001 19.9804
" />
<path d="M47.4001 19.9804
L47.4477 19.8851
" />
<path d="M47.4477 19.8851
L47.5430 19.8375
" />
<path d="M47.5430 19.8375
L48.0668 19.8375
" />
<path d="M47.5430 19.8375
L47.4477 19.7899
" />
<path d="M47.4477 19.7899
L47.4001 19.6946
" />
<path d="M47.4001 19.6946
L47.4001 19.5518
" />
<path d="M47.4001 19.5518
L47.4477 19.4565
" />
<path d="M47.4477 19.4565
L47.5430 19.4089
" />
<path d="M47.5430 19.4089
L48.0668 19.4089
" />
</g><path d="M43.2542 28.8375
L49.3406 28.8375
" />
<path d="M49.3406 14.8375
L43.2542 14.8375
" />
<path d="M48.7542 28.8375
L48.7542 14.8375
" />
<path d="M48.7542 28.8375
L48.7542 14.8375
" />
<path d="M48.7542 28.8375
L48.1770 27.7287
" />
<path d="M48.7542 28.8375
L49.3314 27.7287
" />
<path d="M48.7542 14.8375
L49.3314 15.9463
" />
<path d="M48.7542 14.8375
L48.1770 15.9463
" />
</g>
<g style="fill:#000000; fill-opacity:0.0; 
stroke:#000000; stroke-width:0.3000; stroke-opacity:1; 
stroke-linecap:round; stroke-linejoin:round;">
<circle cx="42.7542" cy="14.8375" r="1.1300" /> 
<circle cx="10.7542" cy="28.8375" r="1.1300" /> 
<circle cx="42.7542" cy="28.8375" r="1.1300" /> 
<circle cx="10.7542" cy="14.8375" r="1.1300" /> 
<g >
</g>
<g >
</g>
<g >
</g>
<g >
</g>
<g >
</g>
<g >
</g>
<g >
</g>
<g >
</g>
<g >
</g>
<g >
</g>
<g >
</g>
<g >
</g>
<g >
</g>
<g >
</g>
<g >
</g>
<g >
</g>
<g >
</g>
<g >
</g>
<g >
</g>
<g >
</g>
<g >
</g>
<g >
</g>
<g >
</g>
<g >
</g>
<g >
</g>
<g >
</g>
<g >
</g>
<g >
</g>
<g >
</g>
<g >
</g>
<g >
</g>
<g >
</g>
<g >
</g>
<g >
</g>
<g >
</g>
<g >
</g>
<g >
</g>
<g >
</g>
<g >
</g>
<g >
</g>
<g >
</g>
<g >
</g>
<g >
</g>
<g >
</g>
<g >
</g>
<g >
</g>
<g >
</g>
<g >
</g>
<g >
</g>
<g >
</g>
<g >
</g>
<g >
</g>
<g >
</g>
<g >
</g>
<g >
</g>
<g >
</g>
<g >
</g>
</g>
<g style="fill:#000000; fill-opacity:0.0; 
stroke:#000000; stroke-width:0.3000; stroke-opacity:1; 
stroke-linecap:round; stroke-linejoin:round;">
</g>
<g style="fill:#000000; fill-opacity:0.0; 
stroke:#000000; stroke-width:0.1000; stroke-opacity:1; 
stroke-linecap:round; stroke-linejoin:round;">
<path d="M8.7542 14.8375
L8.7542 28.8375
" />
<path d="M42.7542 30.8375 A2.0000 2.0000 0.0 0 0 44.7542 28.8375" />
<path d="M44.7542 14.8375 A2.0000 2.0000 0.0 0 0 42.7542 12.8375" />
<path d="M10.7542 12.8375
L42.7542 12.8375
" />
<path d="M10.7542 12.8375 A2.0000 2.0000 0.0 0 0 8.7542 14.8375" />
<path d="M44.7542 28.8375
L44.7542 14.8375
" />
<path d="M10.7542 30.8375
L42.7542 30.8375
" />
<path d="M8.7542 28.8375 A2.0000 2.0000 0.0 0 0 10.7542 30.8375" />
<g >
</g>
<g >
</g>
<g >
</g>
<g >
</g>
<g >
</g>
<g >
</g>
<g >
</g>
<g >
</g>
<g >
</g>
<g >
</g>
<g >
</g>
<g >
</g>
<g >
</g>
<g >
</g>
<g >
</g>
<g >
</g>
<g >
</g>
<g >
</g>
<g >
</g>
<g >
</g>
<g >
</g>
<g >
</g>
<g >
</g>
<g >
</g>
<g >
</g>
<g >
</g>
<g >
</g>
<g >
</g>
<g >
</g>
<g >
</g>
<g >
</g>
<g >
</g>
<g >
</g>
<g >
</g>
<g >
</g>
<g >
</g>
<g >
</g>
<g >
</g>
<g >
</g>
<g >
</g>
<g >
</g>
<g >
</g>
<g >
</g>
<g >
</g>
<g >
</g>
<g >
</g>
<g >
</g>
<g >
</g>
<g >
</g>
<g >
</g>
<g >
</g>
<g >
</g>
<g >
</g>
<g >
</g>
<g >
</g>
<g >
</g>
<g >
</g>
</g> 
</svg>
