<?xml version="1.0" standalone="no"?>
 <!DOCTYPE svg PUBLIC "-//W3C//DTD SVG 1.1//EN" 
 "http://www.w3.org/Graphics/SVG/1.1/DTD/svg11.dtd"> 
<svg
  xmlns:svg="http://www.w3.org/2000/svg"
  xmlns="http://www.w3.org/2000/svg"
  xmlns:xlink="http://www.w3.org/1999/xlink"
  version="1.1"
  width="62.5094mm" height="43.4848mm" viewBox="0.0000 0.0000 62.5094 43.4848">
<title>SVG Image created as wingbeat_detector-B_Silkscreen.svg date 2023/03/31 10:36:46 </title>
  <desc>Image generated by PCBNEW </desc>
<g style="fill:#000000; fill-opacity:1.0000;stroke:#000000; stroke-opacity:1.0000;
stroke-linecap:round; stroke-linejoin:round;"
 transform="translate(0 0) scale(1 1)">
</g>
<g style="fill:#000000; fill-opacity:0.0; 
stroke:#000000; stroke-width:0.0000; stroke-opacity:1; 
stroke-linecap:round; stroke-linejoin:round;">
</g>
<g style="fill:#000000; fill-opacity:0.0; 
stroke:#000000; stroke-width:0.1000; stroke-opacity:1; 
stroke-linecap:round; stroke-linejoin:round;">
<g transform="rotate(-90.000000 26.0322 29.3375)">
<text x="26.0322" y="29.5375"
transform="scale(-1 1) translate(-52.064332 0)"
textLength="1.7510" font-size="0.5333" lengthAdjust="spacingAndGlyphs"
text-anchor="middle" opacity="0">JUMP</text>
</g>
<g class="stroked-text"><desc>JUMP</desc>
<path d="M25.8172 28.7565
L26.1029 28.7565
" />
<path d="M26.1029 28.7565
L26.1601 28.7375
" />
<path d="M26.1601 28.7375
L26.1982 28.6994
" />
<path d="M26.1982 28.6994
L26.2172 28.6423
" />
<path d="M26.2172 28.6423
L26.2172 28.6042
" />
<path d="M25.8172 28.9470
L26.1410 28.9470
" />
<path d="M26.1410 28.9470
L26.1791 28.9661
" />
<path d="M26.1791 28.9661
L26.1982 28.9851
" />
<path d="M26.1982 28.9851
L26.2172 29.0232
" />
<path d="M26.2172 29.0232
L26.2172 29.0994
" />
<path d="M26.2172 29.0994
L26.1982 29.1375
" />
<path d="M26.1982 29.1375
L26.1791 29.1565
" />
<path d="M26.1791 29.1565
L26.1410 29.1756
" />
<path d="M26.1410 29.1756
L25.8172 29.1756
" />
<path d="M26.2172 29.3661
L25.8172 29.3661
" />
<path d="M25.8172 29.3661
L26.1029 29.4994
" />
<path d="M26.1029 29.4994
L25.8172 29.6327
" />
<path d="M25.8172 29.6327
L26.2172 29.6327
" />
<path d="M26.2172 29.8232
L25.8172 29.8232
" />
<path d="M25.8172 29.8232
L25.8172 29.9756
" />
<path d="M25.8172 29.9756
L25.8363 30.0137
" />
<path d="M25.8363 30.0137
L25.8553 30.0327
" />
<path d="M25.8553 30.0327
L25.8934 30.0518
" />
<path d="M25.8934 30.0518
L25.9505 30.0518
" />
<path d="M25.9505 30.0518
L25.9886 30.0327
" />
<path d="M25.9886 30.0327
L26.0077 30.0137
" />
<path d="M26.0077 30.0137
L26.0267 29.9756
" />
<path d="M26.0267 29.9756
L26.0267 29.8232
" />
</g><g transform="rotate(-90.000000 26.6802 29.3375)">
<text x="26.6802" y="29.5375"
transform="scale(-1 1) translate(-53.360332 0)"
textLength="1.2557" font-size="0.5333" lengthAdjust="spacingAndGlyphs"
text-anchor="middle" opacity="0">LED</text>
</g>
<g class="stroked-text"><desc>LED</desc>
<path d="M26.8652 29.0804
L26.8652 28.8899
" />
<path d="M26.8652 28.8899
L26.4652 28.8899
" />
<path d="M26.6557 29.2137
L26.6557 29.3470
" />
<path d="M26.8652 29.4042
L26.8652 29.2137
" />
<path d="M26.8652 29.2137
L26.4652 29.2137
" />
<path d="M26.4652 29.2137
L26.4652 29.4042
" />
<path d="M26.8652 29.5756
L26.4652 29.5756
" />
<path d="M26.4652 29.5756
L26.4652 29.6708
" />
<path d="M26.4652 29.6708
L26.4843 29.7280
" />
<path d="M26.4843 29.7280
L26.5224 29.7661
" />
<path d="M26.5224 29.7661
L26.5605 29.7851
" />
<path d="M26.5605 29.7851
L26.6366 29.8042
" />
<path d="M26.6366 29.8042
L26.6938 29.8042
" />
<path d="M26.6938 29.8042
L26.7700 29.7851
" />
<path d="M26.7700 29.7851
L26.8081 29.7661
" />
<path d="M26.8081 29.7661
L26.8462 29.7280
" />
<path d="M26.8462 29.7280
L26.8652 29.6708
" />
<path d="M26.8652 29.6708
L26.8652 29.5756
" />
</g><g transform="rotate(-90.000000 27.3282 29.3375)">
<text x="27.3282" y="29.5375"
transform="scale(-1 1) translate(-54.656332 0)"
textLength="2.6652" font-size="0.5333" lengthAdjust="spacingAndGlyphs"
text-anchor="middle" opacity="0">DEFAULT</text>
</g>
<g class="stroked-text"><desc>DEFAULT</desc>
<path d="M27.5132 28.1851
L27.1132 28.1851
" />
<path d="M27.1132 28.1851
L27.1132 28.2804
" />
<path d="M27.1132 28.2804
L27.1323 28.3375
" />
<path d="M27.1323 28.3375
L27.1704 28.3756
" />
<path d="M27.1704 28.3756
L27.2085 28.3946
" />
<path d="M27.2085 28.3946
L27.2846 28.4137
" />
<path d="M27.2846 28.4137
L27.3418 28.4137
" />
<path d="M27.3418 28.4137
L27.4180 28.3946
" />
<path d="M27.4180 28.3946
L27.4561 28.3756
" />
<path d="M27.4561 28.3756
L27.4942 28.3375
" />
<path d="M27.4942 28.3375
L27.5132 28.2804
" />
<path d="M27.5132 28.2804
L27.5132 28.1851
" />
<path d="M27.3037 28.5851
L27.3037 28.7185
" />
<path d="M27.5132 28.7756
L27.5132 28.5851
" />
<path d="M27.5132 28.5851
L27.1132 28.5851
" />
<path d="M27.1132 28.5851
L27.1132 28.7756
" />
<path d="M27.3037 29.0804
L27.3037 28.9470
" />
<path d="M27.5132 28.9470
L27.1132 28.9470
" />
<path d="M27.1132 28.9470
L27.1132 29.1375
" />
<path d="M27.3989 29.2708
L27.3989 29.4613
" />
<path d="M27.5132 29.2327
L27.1132 29.3661
" />
<path d="M27.1132 29.3661
L27.5132 29.4994
" />
<path d="M27.1132 29.6327
L27.4370 29.6327
" />
<path d="M27.4370 29.6327
L27.4751 29.6518
" />
<path d="M27.4751 29.6518
L27.4942 29.6708
" />
<path d="M27.4942 29.6708
L27.5132 29.7089
" />
<path d="M27.5132 29.7089
L27.5132 29.7851
" />
<path d="M27.5132 29.7851
L27.4942 29.8232
" />
<path d="M27.4942 29.8232
L27.4751 29.8423
" />
<path d="M27.4751 29.8423
L27.4370 29.8613
" />
<path d="M27.4370 29.8613
L27.1132 29.8613
" />
<path d="M27.5132 30.2423
L27.5132 30.0518
" />
<path d="M27.5132 30.0518
L27.1132 30.0518
" />
<path d="M27.1132 30.3185
L27.1132 30.5470
" />
<path d="M27.5132 30.4327
L27.1132 30.4327
" />
</g><g transform="rotate(-90.000000 27.9762 29.3375)">
<text x="27.9762" y="29.5375"
transform="scale(-1 1) translate(-55.952332 0)"
textLength="2.9700" font-size="0.5333" lengthAdjust="spacingAndGlyphs"
text-anchor="middle" opacity="0">DISABLED</text>
</g>
<g class="stroked-text"><desc>DISABLED</desc>
<path d="M28.1612 28.0327
L27.7612 28.0327
" />
<path d="M27.7612 28.0327
L27.7612 28.1280
" />
<path d="M27.7612 28.1280
L27.7803 28.1851
" />
<path d="M27.7803 28.1851
L27.8184 28.2232
" />
<path d="M27.8184 28.2232
L27.8565 28.2423
" />
<path d="M27.8565 28.2423
L27.9326 28.2613
" />
<path d="M27.9326 28.2613
L27.9898 28.2613
" />
<path d="M27.9898 28.2613
L28.0660 28.2423
" />
<path d="M28.0660 28.2423
L28.1041 28.2232
" />
<path d="M28.1041 28.2232
L28.1422 28.1851
" />
<path d="M28.1422 28.1851
L28.1612 28.1280
" />
<path d="M28.1612 28.1280
L28.1612 28.0327
" />
<path d="M28.1612 28.4327
L27.7612 28.4327
" />
<path d="M28.1422 28.6042
L28.1612 28.6613
" />
<path d="M28.1612 28.6613
L28.1612 28.7565
" />
<path d="M28.1612 28.7565
L28.1422 28.7946
" />
<path d="M28.1422 28.7946
L28.1231 28.8137
" />
<path d="M28.1231 28.8137
L28.0850 28.8327
" />
<path d="M28.0850 28.8327
L28.0469 28.8327
" />
<path d="M28.0469 28.8327
L28.0088 28.8137
" />
<path d="M28.0088 28.8137
L27.9898 28.7946
" />
<path d="M27.9898 28.7946
L27.9707 28.7565
" />
<path d="M27.9707 28.7565
L27.9517 28.6804
" />
<path d="M27.9517 28.6804
L27.9326 28.6423
" />
<path d="M27.9326 28.6423
L27.9136 28.6232
" />
<path d="M27.9136 28.6232
L27.8755 28.6042
" />
<path d="M27.8755 28.6042
L27.8374 28.6042
" />
<path d="M27.8374 28.6042
L27.7993 28.6232
" />
<path d="M27.7993 28.6232
L27.7803 28.6423
" />
<path d="M27.7803 28.6423
L27.7612 28.6804
" />
<path d="M27.7612 28.6804
L27.7612 28.7756
" />
<path d="M27.7612 28.7756
L27.7803 28.8327
" />
<path d="M28.0469 28.9851
L28.0469 29.1756
" />
<path d="M28.1612 28.9470
L27.7612 29.0804
" />
<path d="M27.7612 29.0804
L28.1612 29.2137
" />
<path d="M27.9517 29.4804
L27.9707 29.5375
" />
<path d="M27.9707 29.5375
L27.9898 29.5565
" />
<path d="M27.9898 29.5565
L28.0279 29.5756
" />
<path d="M28.0279 29.5756
L28.0850 29.5756
" />
<path d="M28.0850 29.5756
L28.1231 29.5565
" />
<path d="M28.1231 29.5565
L28.1422 29.5375
" />
<path d="M28.1422 29.5375
L28.1612 29.4994
" />
<path d="M28.1612 29.4994
L28.1612 29.3470
" />
<path d="M28.1612 29.3470
L27.7612 29.3470
" />
<path d="M27.7612 29.3470
L27.7612 29.4804
" />
<path d="M27.7612 29.4804
L27.7803 29.5185
" />
<path d="M27.7803 29.5185
L27.7993 29.5375
" />
<path d="M27.7993 29.5375
L27.8374 29.5565
" />
<path d="M27.8374 29.5565
L27.8755 29.5565
" />
<path d="M27.8755 29.5565
L27.9136 29.5375
" />
<path d="M27.9136 29.5375
L27.9326 29.5185
" />
<path d="M27.9326 29.5185
L27.9517 29.4804
" />
<path d="M27.9517 29.4804
L27.9517 29.3470
" />
<path d="M28.1612 29.9375
L28.1612 29.7470
" />
<path d="M28.1612 29.7470
L27.7612 29.7470
" />
<path d="M27.9517 30.0708
L27.9517 30.2042
" />
<path d="M28.1612 30.2613
L28.1612 30.0708
" />
<path d="M28.1612 30.0708
L27.7612 30.0708
" />
<path d="M27.7612 30.0708
L27.7612 30.2613
" />
<path d="M28.1612 30.4327
L27.7612 30.4327
" />
<path d="M27.7612 30.4327
L27.7612 30.5280
" />
<path d="M27.7612 30.5280
L27.7803 30.5851
" />
<path d="M27.7803 30.5851
L27.8184 30.6232
" />
<path d="M27.8184 30.6232
L27.8565 30.6423
" />
<path d="M27.8565 30.6423
L27.9326 30.6613
" />
<path d="M27.9326 30.6613
L27.9898 30.6613
" />
<path d="M27.9898 30.6613
L28.0660 30.6423
" />
<path d="M28.0660 30.6423
L28.1041 30.6232
" />
<path d="M28.1041 30.6232
L28.1422 30.5851
" />
<path d="M28.1422 30.5851
L28.1612 30.5280
" />
<path d="M28.1612 30.5280
L28.1612 30.4327
" />
</g></g>
<g style="fill:#000000; fill-opacity:0.0; 
stroke:#000000; stroke-width:0.1250; stroke-opacity:1; 
stroke-linecap:round; stroke-linejoin:round;">
<g transform="rotate(-90.000000 17.2542 28.3375)">
<text x="17.2542" y="28.5875"
transform="scale(-1 1) translate(-34.508332 0)"
textLength="4.7125" font-size="0.6667" lengthAdjust="spacingAndGlyphs"
text-anchor="middle" opacity="0">LED ENABLE</text>
</g>
<g class="stroked-text"><desc>LED ENABLE</desc>
<path d="M17.4855 26.4446
L17.4855 26.2065
" />
<path d="M17.4855 26.2065
L16.9855 26.2065
" />
<path d="M17.2236 26.6113
L17.2236 26.7780
" />
<path d="M17.4855 26.8494
L17.4855 26.6113
" />
<path d="M17.4855 26.6113
L16.9855 26.6113
" />
<path d="M16.9855 26.6113
L16.9855 26.8494
" />
<path d="M17.4855 27.0637
L16.9855 27.0637
" />
<path d="M16.9855 27.0637
L16.9855 27.1827
" />
<path d="M16.9855 27.1827
L17.0093 27.2542
" />
<path d="M17.0093 27.2542
L17.0569 27.3018
" />
<path d="M17.0569 27.3018
L17.1045 27.3256
" />
<path d="M17.1045 27.3256
L17.1998 27.3494
" />
<path d="M17.1998 27.3494
L17.2712 27.3494
" />
<path d="M17.2712 27.3494
L17.3664 27.3256
" />
<path d="M17.3664 27.3256
L17.4140 27.3018
" />
<path d="M17.4140 27.3018
L17.4617 27.2542
" />
<path d="M17.4617 27.2542
L17.4855 27.1827
" />
<path d="M17.4855 27.1827
L17.4855 27.0637
" />
<path d="M17.2236 27.9446
L17.2236 28.1113
" />
<path d="M17.4855 28.1827
L17.4855 27.9446
" />
<path d="M17.4855 27.9446
L16.9855 27.9446
" />
<path d="M16.9855 27.9446
L16.9855 28.1827
" />
<path d="M17.4855 28.3970
L16.9855 28.3970
" />
<path d="M16.9855 28.3970
L17.4855 28.6827
" />
<path d="M17.4855 28.6827
L16.9855 28.6827
" />
<path d="M17.3426 28.8970
L17.3426 29.1351
" />
<path d="M17.4855 28.8494
L16.9855 29.0161
" />
<path d="M16.9855 29.0161
L17.4855 29.1827
" />
<path d="M17.2236 29.5161
L17.2474 29.5875
" />
<path d="M17.2474 29.5875
L17.2712 29.6113
" />
<path d="M17.2712 29.6113
L17.3188 29.6351
" />
<path d="M17.3188 29.6351
L17.3902 29.6351
" />
<path d="M17.3902 29.6351
L17.4379 29.6113
" />
<path d="M17.4379 29.6113
L17.4617 29.5875
" />
<path d="M17.4617 29.5875
L17.4855 29.5399
" />
<path d="M17.4855 29.5399
L17.4855 29.3494
" />
<path d="M17.4855 29.3494
L16.9855 29.3494
" />
<path d="M16.9855 29.3494
L16.9855 29.5161
" />
<path d="M16.9855 29.5161
L17.0093 29.5637
" />
<path d="M17.0093 29.5637
L17.0331 29.5875
" />
<path d="M17.0331 29.5875
L17.0807 29.6113
" />
<path d="M17.0807 29.6113
L17.1283 29.6113
" />
<path d="M17.1283 29.6113
L17.1760 29.5875
" />
<path d="M17.1760 29.5875
L17.1998 29.5637
" />
<path d="M17.1998 29.5637
L17.2236 29.5161
" />
<path d="M17.2236 29.5161
L17.2236 29.3494
" />
<path d="M17.4855 30.0875
L17.4855 29.8494
" />
<path d="M17.4855 29.8494
L16.9855 29.8494
" />
<path d="M17.2236 30.2542
L17.2236 30.4208
" />
<path d="M17.4855 30.4923
L17.4855 30.2542
" />
<path d="M17.4855 30.2542
L16.9855 30.2542
" />
<path d="M16.9855 30.2542
L16.9855 30.4923
" />
</g><text x="42.2542" y="24.6825"
transform="scale(-1 1) translate(-84.508332 0)"
textLength="2.6173" font-size="0.6667" lengthAdjust="spacingAndGlyphs"
text-anchor="middle" opacity="0">FILTER</text>
<g class="stroked-text"><desc>FILTER</desc>
<path d="M43.1708 24.4019
L43.3375 24.4019
" />
<path d="M43.3375 24.6638
L43.3375 24.1638
" />
<path d="M43.3375 24.1638
L43.0994 24.1638
" />
<path d="M42.9089 24.6638
L42.9089 24.1638
" />
<path d="M42.4327 24.6638
L42.6708 24.6638
" />
<path d="M42.6708 24.6638
L42.6708 24.1638
" />
<path d="M42.3375 24.1638
L42.0518 24.1638
" />
<path d="M42.1946 24.6638
L42.1946 24.1638
" />
<path d="M41.8851 24.4019
L41.7185 24.4019
" />
<path d="M41.6470 24.6638
L41.8851 24.6638
" />
<path d="M41.8851 24.6638
L41.8851 24.1638
" />
<path d="M41.8851 24.1638
L41.6470 24.1638
" />
<path d="M41.1470 24.6638
L41.3137 24.4257
" />
<path d="M41.4327 24.6638
L41.4327 24.1638
" />
<path d="M41.4327 24.1638
L41.2423 24.1638
" />
<path d="M41.2423 24.1638
L41.1946 24.1876
" />
<path d="M41.1946 24.1876
L41.1708 24.2114
" />
<path d="M41.1708 24.2114
L41.1470 24.2590
" />
<path d="M41.1470 24.2590
L41.1470 24.3305
" />
<path d="M41.1470 24.3305
L41.1708 24.3781
" />
<path d="M41.1708 24.3781
L41.1946 24.4019
" />
<path d="M41.1946 24.4019
L41.2423 24.4257
" />
<path d="M41.2423 24.4257
L41.4327 24.4257
" />
</g><text x="42.2542" y="25.4925"
transform="scale(-1 1) translate(-84.508332 0)"
textLength="3.0458" font-size="0.6667" lengthAdjust="spacingAndGlyphs"
text-anchor="middle" opacity="0">OUTPUT</text>
<g class="stroked-text"><desc>OUTPUT</desc>
<path d="M43.4565 24.9738
L43.3613 24.9738
" />
<path d="M43.3613 24.9738
L43.3137 24.9976
" />
<path d="M43.3137 24.9976
L43.2661 25.0452
" />
<path d="M43.2661 25.0452
L43.2423 25.1405
" />
<path d="M43.2423 25.1405
L43.2423 25.3071
" />
<path d="M43.2423 25.3071
L43.2661 25.4024
" />
<path d="M43.2661 25.4024
L43.3137 25.4500
" />
<path d="M43.3137 25.4500
L43.3613 25.4738
" />
<path d="M43.3613 25.4738
L43.4565 25.4738
" />
<path d="M43.4565 25.4738
L43.5042 25.4500
" />
<path d="M43.5042 25.4500
L43.5518 25.4024
" />
<path d="M43.5518 25.4024
L43.5756 25.3071
" />
<path d="M43.5756 25.3071
L43.5756 25.1405
" />
<path d="M43.5756 25.1405
L43.5518 25.0452
" />
<path d="M43.5518 25.0452
L43.5042 24.9976
" />
<path d="M43.5042 24.9976
L43.4565 24.9738
" />
<path d="M43.0280 24.9738
L43.0280 25.3786
" />
<path d="M43.0280 25.3786
L43.0042 25.4262
" />
<path d="M43.0042 25.4262
L42.9804 25.4500
" />
<path d="M42.9804 25.4500
L42.9327 25.4738
" />
<path d="M42.9327 25.4738
L42.8375 25.4738
" />
<path d="M42.8375 25.4738
L42.7899 25.4500
" />
<path d="M42.7899 25.4500
L42.7661 25.4262
" />
<path d="M42.7661 25.4262
L42.7423 25.3786
" />
<path d="M42.7423 25.3786
L42.7423 24.9738
" />
<path d="M42.5756 24.9738
L42.2899 24.9738
" />
<path d="M42.4327 25.4738
L42.4327 24.9738
" />
<path d="M42.1232 25.4738
L42.1232 24.9738
" />
<path d="M42.1232 24.9738
L41.9327 24.9738
" />
<path d="M41.9327 24.9738
L41.8851 24.9976
" />
<path d="M41.8851 24.9976
L41.8613 25.0214
" />
<path d="M41.8613 25.0214
L41.8375 25.0690
" />
<path d="M41.8375 25.0690
L41.8375 25.1405
" />
<path d="M41.8375 25.1405
L41.8613 25.1881
" />
<path d="M41.8613 25.1881
L41.8851 25.2119
" />
<path d="M41.8851 25.2119
L41.9327 25.2357
" />
<path d="M41.9327 25.2357
L42.1232 25.2357
" />
<path d="M41.6232 24.9738
L41.6232 25.3786
" />
<path d="M41.6232 25.3786
L41.5994 25.4262
" />
<path d="M41.5994 25.4262
L41.5756 25.4500
" />
<path d="M41.5756 25.4500
L41.5280 25.4738
" />
<path d="M41.5280 25.4738
L41.4327 25.4738
" />
<path d="M41.4327 25.4738
L41.3851 25.4500
" />
<path d="M41.3851 25.4500
L41.3613 25.4262
" />
<path d="M41.3613 25.4262
L41.3375 25.3786
" />
<path d="M41.3375 25.3786
L41.3375 24.9738
" />
<path d="M41.1708 24.9738
L40.8851 24.9738
" />
<path d="M41.0280 25.4738
L41.0280 24.9738
" />
</g><g transform="rotate(-90.000000 15.0992 15.3375)">
<text x="15.0992" y="15.5875"
transform="scale(-1 1) translate(-30.198332 0)"
textLength="1.7125" font-size="0.6667" lengthAdjust="spacingAndGlyphs"
text-anchor="middle" opacity="0">RAW</text>
</g>
<g class="stroked-text"><desc>RAW</desc>
<path d="M15.3305 14.9923
L15.0924 14.8256
" />
<path d="M15.3305 14.7065
L14.8305 14.7065
" />
<path d="M14.8305 14.7065
L14.8305 14.8970
" />
<path d="M14.8305 14.8970
L14.8543 14.9446
" />
<path d="M14.8543 14.9446
L14.8781 14.9685
" />
<path d="M14.8781 14.9685
L14.9257 14.9923
" />
<path d="M14.9257 14.9923
L14.9971 14.9923
" />
<path d="M14.9971 14.9923
L15.0448 14.9685
" />
<path d="M15.0448 14.9685
L15.0686 14.9446
" />
<path d="M15.0686 14.9446
L15.0924 14.8970
" />
<path d="M15.0924 14.8970
L15.0924 14.7065
" />
<path d="M15.1876 15.1827
L15.1876 15.4208
" />
<path d="M15.3305 15.1351
L14.8305 15.3018
" />
<path d="M14.8305 15.3018
L15.3305 15.4685
" />
<path d="M14.8305 15.5875
L15.3305 15.7065
" />
<path d="M15.3305 15.7065
L14.9733 15.8018
" />
<path d="M14.9733 15.8018
L15.3305 15.8970
" />
<path d="M15.3305 15.8970
L14.8305 16.0161
" />
</g><g transform="rotate(-90.000000 15.9092 15.3375)">
<text x="15.9092" y="15.5875"
transform="scale(-1 1) translate(-31.818332 0)"
textLength="3.0458" font-size="0.6667" lengthAdjust="spacingAndGlyphs"
text-anchor="middle" opacity="0">OUTPUT</text>
</g>
<g class="stroked-text"><desc>OUTPUT</desc>
<path d="M15.6405 14.1351
L15.6405 14.2304
" />
<path d="M15.6405 14.2304
L15.6643 14.2780
" />
<path d="M15.6643 14.2780
L15.7119 14.3256
" />
<path d="M15.7119 14.3256
L15.8071 14.3494
" />
<path d="M15.8071 14.3494
L15.9738 14.3494
" />
<path d="M15.9738 14.3494
L16.0690 14.3256
" />
<path d="M16.0690 14.3256
L16.1167 14.2780
" />
<path d="M16.1167 14.2780
L16.1405 14.2304
" />
<path d="M16.1405 14.2304
L16.1405 14.1351
" />
<path d="M16.1405 14.1351
L16.1167 14.0875
" />
<path d="M16.1167 14.0875
L16.0690 14.0399
" />
<path d="M16.0690 14.0399
L15.9738 14.0161
" />
<path d="M15.9738 14.0161
L15.8071 14.0161
" />
<path d="M15.8071 14.0161
L15.7119 14.0399
" />
<path d="M15.7119 14.0399
L15.6643 14.0875
" />
<path d="M15.6643 14.0875
L15.6405 14.1351
" />
<path d="M15.6405 14.5637
L16.0452 14.5637
" />
<path d="M16.0452 14.5637
L16.0929 14.5875
" />
<path d="M16.0929 14.5875
L16.1167 14.6113
" />
<path d="M16.1167 14.6113
L16.1405 14.6589
" />
<path d="M16.1405 14.6589
L16.1405 14.7542
" />
<path d="M16.1405 14.7542
L16.1167 14.8018
" />
<path d="M16.1167 14.8018
L16.0929 14.8256
" />
<path d="M16.0929 14.8256
L16.0452 14.8494
" />
<path d="M16.0452 14.8494
L15.6405 14.8494
" />
<path d="M15.6405 15.0161
L15.6405 15.3018
" />
<path d="M16.1405 15.1589
L15.6405 15.1589
" />
<path d="M16.1405 15.4685
L15.6405 15.4685
" />
<path d="M15.6405 15.4685
L15.6405 15.6589
" />
<path d="M15.6405 15.6589
L15.6643 15.7065
" />
<path d="M15.6643 15.7065
L15.6881 15.7304
" />
<path d="M15.6881 15.7304
L15.7357 15.7542
" />
<path d="M15.7357 15.7542
L15.8071 15.7542
" />
<path d="M15.8071 15.7542
L15.8548 15.7304
" />
<path d="M15.8548 15.7304
L15.8786 15.7065
" />
<path d="M15.8786 15.7065
L15.9024 15.6589
" />
<path d="M15.9024 15.6589
L15.9024 15.4685
" />
<path d="M15.6405 15.9685
L16.0452 15.9685
" />
<path d="M16.0452 15.9685
L16.0929 15.9923
" />
<path d="M16.0929 15.9923
L16.1167 16.0161
" />
<path d="M16.1167 16.0161
L16.1405 16.0637
" />
<path d="M16.1405 16.0637
L16.1405 16.1589
" />
<path d="M16.1405 16.1589
L16.1167 16.2065
" />
<path d="M16.1167 16.2065
L16.0929 16.2304
" />
<path d="M16.0929 16.2304
L16.0452 16.2542
" />
<path d="M16.0452 16.2542
L15.6405 16.2542
" />
<path d="M15.6405 16.4208
L15.6405 16.7065
" />
<path d="M16.1405 16.5637
L15.6405 16.5637
" />
</g><text x="11.5042" y="18.1825"
transform="scale(-1 1) translate(-23.008332 0)"
textLength="1.5696" font-size="0.6667" lengthAdjust="spacingAndGlyphs"
text-anchor="middle" opacity="0">LED</text>
<g class="stroked-text"><desc>LED</desc>
<path d="M11.8256 18.1638
L12.0637 18.1638
" />
<path d="M12.0637 18.1638
L12.0637 17.6638
" />
<path d="M11.6589 17.9019
L11.4923 17.9019
" />
<path d="M11.4208 18.1638
L11.6589 18.1638
" />
<path d="M11.6589 18.1638
L11.6589 17.6638
" />
<path d="M11.6589 17.6638
L11.4208 17.6638
" />
<path d="M11.2065 18.1638
L11.2065 17.6638
" />
<path d="M11.2065 17.6638
L11.0875 17.6638
" />
<path d="M11.0875 17.6638
L11.0161 17.6876
" />
<path d="M11.0161 17.6876
L10.9685 17.7352
" />
<path d="M10.9685 17.7352
L10.9446 17.7829
" />
<path d="M10.9446 17.7829
L10.9208 17.8781
" />
<path d="M10.9208 17.8781
L10.9208 17.9495
" />
<path d="M10.9208 17.9495
L10.9446 18.0448
" />
<path d="M10.9446 18.0448
L10.9685 18.0924
" />
<path d="M10.9685 18.0924
L11.0161 18.1400
" />
<path d="M11.0161 18.1400
L11.0875 18.1638
" />
<path d="M11.0875 18.1638
L11.2065 18.1638
" />
</g><text x="11.5042" y="18.9925"
transform="scale(-1 1) translate(-23.008332 0)"
textLength="3.1411" font-size="0.6667" lengthAdjust="spacingAndGlyphs"
text-anchor="middle" opacity="0">940 nm</text>
<g class="stroked-text"><desc>940 nm</desc>
<path d="M12.8256 18.9738
L12.7304 18.9738
" />
<path d="M12.7304 18.9738
L12.6827 18.9500
" />
<path d="M12.6827 18.9500
L12.6589 18.9262
" />
<path d="M12.6589 18.9262
L12.6113 18.8548
" />
<path d="M12.6113 18.8548
L12.5875 18.7595
" />
<path d="M12.5875 18.7595
L12.5875 18.5690
" />
<path d="M12.5875 18.5690
L12.6113 18.5214
" />
<path d="M12.6113 18.5214
L12.6351 18.4976
" />
<path d="M12.6351 18.4976
L12.6827 18.4738
" />
<path d="M12.6827 18.4738
L12.7780 18.4738
" />
<path d="M12.7780 18.4738
L12.8256 18.4976
" />
<path d="M12.8256 18.4976
L12.8494 18.5214
" />
<path d="M12.8494 18.5214
L12.8732 18.5690
" />
<path d="M12.8732 18.5690
L12.8732 18.6881
" />
<path d="M12.8732 18.6881
L12.8494 18.7357
" />
<path d="M12.8494 18.7357
L12.8256 18.7595
" />
<path d="M12.8256 18.7595
L12.7780 18.7833
" />
<path d="M12.7780 18.7833
L12.6827 18.7833
" />
<path d="M12.6827 18.7833
L12.6351 18.7595
" />
<path d="M12.6351 18.7595
L12.6113 18.7357
" />
<path d="M12.6113 18.7357
L12.5875 18.6881
" />
<path d="M12.1589 18.6405
L12.1589 18.9738
" />
<path d="M12.2780 18.4500
L12.3970 18.8071
" />
<path d="M12.3970 18.8071
L12.0875 18.8071
" />
<path d="M11.8018 18.4738
L11.7542 18.4738
" />
<path d="M11.7542 18.4738
L11.7065 18.4976
" />
<path d="M11.7065 18.4976
L11.6827 18.5214
" />
<path d="M11.6827 18.5214
L11.6589 18.5690
" />
<path d="M11.6589 18.5690
L11.6351 18.6643
" />
<path d="M11.6351 18.6643
L11.6351 18.7833
" />
<path d="M11.6351 18.7833
L11.6589 18.8786
" />
<path d="M11.6589 18.8786
L11.6827 18.9262
" />
<path d="M11.6827 18.9262
L11.7065 18.9500
" />
<path d="M11.7065 18.9500
L11.7542 18.9738
" />
<path d="M11.7542 18.9738
L11.8018 18.9738
" />
<path d="M11.8018 18.9738
L11.8494 18.9500
" />
<path d="M11.8494 18.9500
L11.8732 18.9262
" />
<path d="M11.8732 18.9262
L11.8970 18.8786
" />
<path d="M11.8970 18.8786
L11.9208 18.7833
" />
<path d="M11.9208 18.7833
L11.9208 18.6643
" />
<path d="M11.9208 18.6643
L11.8970 18.5690
" />
<path d="M11.8970 18.5690
L11.8732 18.5214
" />
<path d="M11.8732 18.5214
L11.8494 18.4976
" />
<path d="M11.8494 18.4976
L11.8018 18.4738
" />
<path d="M11.0399 18.6405
L11.0399 18.9738
" />
<path d="M11.0399 18.6881
L11.0161 18.6643
" />
<path d="M11.0161 18.6643
L10.9685 18.6405
" />
<path d="M10.9685 18.6405
L10.8970 18.6405
" />
<path d="M10.8970 18.6405
L10.8494 18.6643
" />
<path d="M10.8494 18.6643
L10.8256 18.7119
" />
<path d="M10.8256 18.7119
L10.8256 18.9738
" />
<path d="M10.5875 18.9738
L10.5875 18.6405
" />
<path d="M10.5875 18.6881
L10.5637 18.6643
" />
<path d="M10.5637 18.6643
L10.5161 18.6405
" />
<path d="M10.5161 18.6405
L10.4446 18.6405
" />
<path d="M10.4446 18.6405
L10.3970 18.6643
" />
<path d="M10.3970 18.6643
L10.3732 18.7119
" />
<path d="M10.3732 18.7119
L10.3732 18.9738
" />
<path d="M10.3732 18.7119
L10.3494 18.6643
" />
<path d="M10.3494 18.6643
L10.3018 18.6405
" />
<path d="M10.3018 18.6405
L10.2304 18.6405
" />
<path d="M10.2304 18.6405
L10.1827 18.6643
" />
<path d="M10.1827 18.6643
L10.1589 18.7119
" />
<path d="M10.1589 18.7119
L10.1589 18.9738
" />
</g><g transform="rotate(-90.000000 15.5042 26.3375)">
<text x="15.5042" y="26.5875"
transform="scale(-1 1) translate(-31.008332 0)"
textLength="1.2125" font-size="0.6667" lengthAdjust="spacingAndGlyphs"
text-anchor="middle" opacity="0">Q1</text>
</g>
<g class="stroked-text"><desc>Q1</desc>
<path d="M15.7831 26.2899
L15.7593 26.2423
" />
<path d="M15.7593 26.2423
L15.7117 26.1946
" />
<path d="M15.7117 26.1946
L15.6402 26.1232
" />
<path d="M15.6402 26.1232
L15.6164 26.0756
" />
<path d="M15.6164 26.0756
L15.6164 26.0280
" />
<path d="M15.7355 26.0518
L15.7117 26.0042
" />
<path d="M15.7117 26.0042
L15.6640 25.9565
" />
<path d="M15.6640 25.9565
L15.5688 25.9327
" />
<path d="M15.5688 25.9327
L15.4021 25.9327
" />
<path d="M15.4021 25.9327
L15.3069 25.9565
" />
<path d="M15.3069 25.9565
L15.2593 26.0042
" />
<path d="M15.2593 26.0042
L15.2355 26.0518
" />
<path d="M15.2355 26.0518
L15.2355 26.1470
" />
<path d="M15.2355 26.1470
L15.2593 26.1946
" />
<path d="M15.2593 26.1946
L15.3069 26.2423
" />
<path d="M15.3069 26.2423
L15.4021 26.2661
" />
<path d="M15.4021 26.2661
L15.5688 26.2661
" />
<path d="M15.5688 26.2661
L15.6640 26.2423
" />
<path d="M15.6640 26.2423
L15.7117 26.1946
" />
<path d="M15.7117 26.1946
L15.7355 26.1470
" />
<path d="M15.7355 26.1470
L15.7355 26.0518
" />
<path d="M15.7355 26.7423
L15.7355 26.4565
" />
<path d="M15.7355 26.5994
L15.2355 26.5994
" />
<path d="M15.2355 26.5994
L15.3069 26.5518
" />
<path d="M15.3069 26.5518
L15.3545 26.5042
" />
<path d="M15.3545 26.5042
L15.3783 26.4565
" />
</g><g transform="rotate(-90.000000 26.0042 14.3375)">
<text x="26.0042" y="14.5875"
transform="scale(-1 1) translate(-52.008332 0)"
textLength="1.1887" font-size="0.6667" lengthAdjust="spacingAndGlyphs"
text-anchor="middle" opacity="0">C7</text>
</g>
<g class="stroked-text"><desc>C7</desc>
<path d="M26.1879 14.2542
L26.2117 14.2304
" />
<path d="M26.2117 14.2304
L26.2355 14.1589
" />
<path d="M26.2355 14.1589
L26.2355 14.1113
" />
<path d="M26.2355 14.1113
L26.2117 14.0399
" />
<path d="M26.2117 14.0399
L26.1640 13.9923
" />
<path d="M26.1640 13.9923
L26.1164 13.9685
" />
<path d="M26.1164 13.9685
L26.0212 13.9446
" />
<path d="M26.0212 13.9446
L25.9498 13.9446
" />
<path d="M25.9498 13.9446
L25.8545 13.9685
" />
<path d="M25.8545 13.9685
L25.8069 13.9923
" />
<path d="M25.8069 13.9923
L25.7593 14.0399
" />
<path d="M25.7593 14.0399
L25.7355 14.1113
" />
<path d="M25.7355 14.1113
L25.7355 14.1589
" />
<path d="M25.7355 14.1589
L25.7593 14.2304
" />
<path d="M25.7593 14.2304
L25.7831 14.2542
" />
<path d="M25.7355 14.4208
L25.7355 14.7542
" />
<path d="M25.7355 14.7542
L26.2355 14.5399
" />
</g><text x="14.7542" y="30.5875"
transform="scale(-1 1) translate(-29.508332 0)"
textLength="1.6649" font-size="0.6667" lengthAdjust="spacingAndGlyphs"
text-anchor="middle" opacity="0">C13</text>
<g class="stroked-text"><desc>C13</desc>
<path d="M15.0756 30.5212
L15.0994 30.5450
" />
<path d="M15.0994 30.5450
L15.1708 30.5688
" />
<path d="M15.1708 30.5688
L15.2185 30.5688
" />
<path d="M15.2185 30.5688
L15.2899 30.5450
" />
<path d="M15.2899 30.5450
L15.3375 30.4974
" />
<path d="M15.3375 30.4974
L15.3613 30.4498
" />
<path d="M15.3613 30.4498
L15.3851 30.3545
" />
<path d="M15.3851 30.3545
L15.3851 30.2831
" />
<path d="M15.3851 30.2831
L15.3613 30.1879
" />
<path d="M15.3613 30.1879
L15.3375 30.1402
" />
<path d="M15.3375 30.1402
L15.2899 30.0926
" />
<path d="M15.2899 30.0926
L15.2185 30.0688
" />
<path d="M15.2185 30.0688
L15.1708 30.0688
" />
<path d="M15.1708 30.0688
L15.0994 30.0926
" />
<path d="M15.0994 30.0926
L15.0756 30.1164
" />
<path d="M14.5994 30.5688
L14.8851 30.5688
" />
<path d="M14.7423 30.5688
L14.7423 30.0688
" />
<path d="M14.7423 30.0688
L14.7899 30.1402
" />
<path d="M14.7899 30.1402
L14.8375 30.1879
" />
<path d="M14.8375 30.1879
L14.8851 30.2117
" />
<path d="M14.4327 30.0688
L14.1232 30.0688
" />
<path d="M14.1232 30.0688
L14.2899 30.2593
" />
<path d="M14.2899 30.2593
L14.2185 30.2593
" />
<path d="M14.2185 30.2593
L14.1708 30.2831
" />
<path d="M14.1708 30.2831
L14.1470 30.3069
" />
<path d="M14.1470 30.3069
L14.1232 30.3545
" />
<path d="M14.1232 30.3545
L14.1232 30.4736
" />
<path d="M14.1232 30.4736
L14.1470 30.5212
" />
<path d="M14.1470 30.5212
L14.1708 30.5450
" />
<path d="M14.1708 30.5450
L14.2185 30.5688
" />
<path d="M14.2185 30.5688
L14.3613 30.5688
" />
<path d="M14.3613 30.5688
L14.4089 30.5450
" />
<path d="M14.4089 30.5450
L14.4327 30.5212
" />
</g><g transform="rotate(-90.000000 28.5042 14.3375)">
<text x="28.5042" y="14.5875"
transform="scale(-1 1) translate(-57.008332 0)"
textLength="1.1887" font-size="0.6667" lengthAdjust="spacingAndGlyphs"
text-anchor="middle" opacity="0">R3</text>
</g>
<g class="stroked-text"><desc>R3</desc>
<path d="M28.7355 14.2542
L28.4974 14.0875
" />
<path d="M28.7355 13.9685
L28.2355 13.9685
" />
<path d="M28.2355 13.9685
L28.2355 14.1589
" />
<path d="M28.2355 14.1589
L28.2593 14.2065
" />
<path d="M28.2593 14.2065
L28.2831 14.2304
" />
<path d="M28.2831 14.2304
L28.3307 14.2542
" />
<path d="M28.3307 14.2542
L28.4021 14.2542
" />
<path d="M28.4021 14.2542
L28.4498 14.2304
" />
<path d="M28.4498 14.2304
L28.4736 14.2065
" />
<path d="M28.4736 14.2065
L28.4974 14.1589
" />
<path d="M28.4974 14.1589
L28.4974 13.9685
" />
<path d="M28.2355 14.4208
L28.2355 14.7304
" />
<path d="M28.2355 14.7304
L28.4260 14.5637
" />
<path d="M28.4260 14.5637
L28.4260 14.6351
" />
<path d="M28.4260 14.6351
L28.4498 14.6827
" />
<path d="M28.4498 14.6827
L28.4736 14.7065
" />
<path d="M28.4736 14.7065
L28.5212 14.7304
" />
<path d="M28.5212 14.7304
L28.6402 14.7304
" />
<path d="M28.6402 14.7304
L28.6879 14.7065
" />
<path d="M28.6879 14.7065
L28.7117 14.6827
" />
<path d="M28.7117 14.6827
L28.7355 14.6351
" />
<path d="M28.7355 14.6351
L28.7355 14.4923
" />
<path d="M28.7355 14.4923
L28.7117 14.4446
" />
<path d="M28.7117 14.4446
L28.6879 14.4208
" />
</g><g transform="rotate(-90.000000 38.2542 15.3375)">
<text x="38.2542" y="15.5875"
transform="scale(-1 1) translate(-76.508332 0)"
textLength="1.1887" font-size="0.6667" lengthAdjust="spacingAndGlyphs"
text-anchor="middle" opacity="0">C4</text>
</g>
<g class="stroked-text"><desc>C4</desc>
<path d="M38.4379 15.2542
L38.4617 15.2304
" />
<path d="M38.4617 15.2304
L38.4855 15.1589
" />
<path d="M38.4855 15.1589
L38.4855 15.1113
" />
<path d="M38.4855 15.1113
L38.4617 15.0399
" />
<path d="M38.4617 15.0399
L38.4140 14.9923
" />
<path d="M38.4140 14.9923
L38.3664 14.9685
" />
<path d="M38.3664 14.9685
L38.2712 14.9446
" />
<path d="M38.2712 14.9446
L38.1998 14.9446
" />
<path d="M38.1998 14.9446
L38.1045 14.9685
" />
<path d="M38.1045 14.9685
L38.0569 14.9923
" />
<path d="M38.0569 14.9923
L38.0093 15.0399
" />
<path d="M38.0093 15.0399
L37.9855 15.1113
" />
<path d="M37.9855 15.1113
L37.9855 15.1589
" />
<path d="M37.9855 15.1589
L38.0093 15.2304
" />
<path d="M38.0093 15.2304
L38.0331 15.2542
" />
<path d="M38.1521 15.6827
L38.4855 15.6827
" />
<path d="M37.9617 15.5637
L38.3188 15.4446
" />
<path d="M38.3188 15.4446
L38.3188 15.7542
" />
</g><g transform="rotate(-90.000000 32.7542 28.3375)">
<text x="32.7542" y="28.5875"
transform="scale(-1 1) translate(-65.508332 0)"
textLength="1.1887" font-size="0.6667" lengthAdjust="spacingAndGlyphs"
text-anchor="middle" opacity="0">C5</text>
</g>
<g class="stroked-text"><desc>C5</desc>
<path d="M32.9379 28.2542
L32.9617 28.2304
" />
<path d="M32.9617 28.2304
L32.9855 28.1589
" />
<path d="M32.9855 28.1589
L32.9855 28.1113
" />
<path d="M32.9855 28.1113
L32.9617 28.0399
" />
<path d="M32.9617 28.0399
L32.9140 27.9923
" />
<path d="M32.9140 27.9923
L32.8664 27.9685
" />
<path d="M32.8664 27.9685
L32.7712 27.9446
" />
<path d="M32.7712 27.9446
L32.6998 27.9446
" />
<path d="M32.6998 27.9446
L32.6045 27.9685
" />
<path d="M32.6045 27.9685
L32.5569 27.9923
" />
<path d="M32.5569 27.9923
L32.5093 28.0399
" />
<path d="M32.5093 28.0399
L32.4855 28.1113
" />
<path d="M32.4855 28.1113
L32.4855 28.1589
" />
<path d="M32.4855 28.1589
L32.5093 28.2304
" />
<path d="M32.5093 28.2304
L32.5331 28.2542
" />
<path d="M32.4855 28.7065
L32.4855 28.4685
" />
<path d="M32.4855 28.4685
L32.7236 28.4446
" />
<path d="M32.7236 28.4446
L32.6998 28.4685
" />
<path d="M32.6998 28.4685
L32.6760 28.5161
" />
<path d="M32.6760 28.5161
L32.6760 28.6351
" />
<path d="M32.6760 28.6351
L32.6998 28.6827
" />
<path d="M32.6998 28.6827
L32.7236 28.7065
" />
<path d="M32.7236 28.7065
L32.7712 28.7304
" />
<path d="M32.7712 28.7304
L32.8902 28.7304
" />
<path d="M32.8902 28.7304
L32.9379 28.7065
" />
<path d="M32.9379 28.7065
L32.9617 28.6827
" />
<path d="M32.9617 28.6827
L32.9855 28.6351
" />
<path d="M32.9855 28.6351
L32.9855 28.5161
" />
<path d="M32.9855 28.5161
L32.9617 28.4685
" />
<path d="M32.9617 28.4685
L32.9379 28.4446
" />
</g><g transform="rotate(-90.000000 33.7542 15.3375)">
<text x="33.7542" y="15.5875"
transform="scale(-1 1) translate(-67.508332 0)"
textLength="1.1887" font-size="0.6667" lengthAdjust="spacingAndGlyphs"
text-anchor="middle" opacity="0">C1</text>
</g>
<g class="stroked-text"><desc>C1</desc>
<path d="M33.9379 15.2542
L33.9617 15.2304
" />
<path d="M33.9617 15.2304
L33.9855 15.1589
" />
<path d="M33.9855 15.1589
L33.9855 15.1113
" />
<path d="M33.9855 15.1113
L33.9617 15.0399
" />
<path d="M33.9617 15.0399
L33.9140 14.9923
" />
<path d="M33.9140 14.9923
L33.8664 14.9685
" />
<path d="M33.8664 14.9685
L33.7712 14.9446
" />
<path d="M33.7712 14.9446
L33.6998 14.9446
" />
<path d="M33.6998 14.9446
L33.6045 14.9685
" />
<path d="M33.6045 14.9685
L33.5569 14.9923
" />
<path d="M33.5569 14.9923
L33.5093 15.0399
" />
<path d="M33.5093 15.0399
L33.4855 15.1113
" />
<path d="M33.4855 15.1113
L33.4855 15.1589
" />
<path d="M33.4855 15.1589
L33.5093 15.2304
" />
<path d="M33.5093 15.2304
L33.5331 15.2542
" />
<path d="M33.9855 15.7304
L33.9855 15.4446
" />
<path d="M33.9855 15.5875
L33.4855 15.5875
" />
<path d="M33.4855 15.5875
L33.5569 15.5399
" />
<path d="M33.5569 15.5399
L33.6045 15.4923
" />
<path d="M33.6045 15.4923
L33.6283 15.4446
" />
</g><g transform="rotate(-90.000000 30.5042 14.3375)">
<text x="30.5042" y="14.5875"
transform="scale(-1 1) translate(-61.008332 0)"
textLength="1.1887" font-size="0.6667" lengthAdjust="spacingAndGlyphs"
text-anchor="middle" opacity="0">R6</text>
</g>
<g class="stroked-text"><desc>R6</desc>
<path d="M30.7355 14.2542
L30.4974 14.0875
" />
<path d="M30.7355 13.9685
L30.2355 13.9685
" />
<path d="M30.2355 13.9685
L30.2355 14.1589
" />
<path d="M30.2355 14.1589
L30.2593 14.2065
" />
<path d="M30.2593 14.2065
L30.2831 14.2304
" />
<path d="M30.2831 14.2304
L30.3307 14.2542
" />
<path d="M30.3307 14.2542
L30.4021 14.2542
" />
<path d="M30.4021 14.2542
L30.4498 14.2304
" />
<path d="M30.4498 14.2304
L30.4736 14.2065
" />
<path d="M30.4736 14.2065
L30.4974 14.1589
" />
<path d="M30.4974 14.1589
L30.4974 13.9685
" />
<path d="M30.2355 14.6827
L30.2355 14.5875
" />
<path d="M30.2355 14.5875
L30.2593 14.5399
" />
<path d="M30.2593 14.5399
L30.2831 14.5161
" />
<path d="M30.2831 14.5161
L30.3545 14.4685
" />
<path d="M30.3545 14.4685
L30.4498 14.4446
" />
<path d="M30.4498 14.4446
L30.6402 14.4446
" />
<path d="M30.6402 14.4446
L30.6879 14.4685
" />
<path d="M30.6879 14.4685
L30.7117 14.4923
" />
<path d="M30.7117 14.4923
L30.7355 14.5399
" />
<path d="M30.7355 14.5399
L30.7355 14.6351
" />
<path d="M30.7355 14.6351
L30.7117 14.6827
" />
<path d="M30.7117 14.6827
L30.6879 14.7065
" />
<path d="M30.6879 14.7065
L30.6402 14.7304
" />
<path d="M30.6402 14.7304
L30.5212 14.7304
" />
<path d="M30.5212 14.7304
L30.4736 14.7065
" />
<path d="M30.4736 14.7065
L30.4498 14.6827
" />
<path d="M30.4498 14.6827
L30.4260 14.6351
" />
<path d="M30.4260 14.6351
L30.4260 14.5399
" />
<path d="M30.4260 14.5399
L30.4498 14.4923
" />
<path d="M30.4498 14.4923
L30.4736 14.4685
" />
<path d="M30.4736 14.4685
L30.5212 14.4446
" />
</g><text x="29.2542" y="29.8375"
transform="scale(-1 1) translate(-58.508332 0)"
textLength="1.1887" font-size="0.6667" lengthAdjust="spacingAndGlyphs"
text-anchor="middle" opacity="0">R4</text>
<g class="stroked-text"><desc>R4</desc>
<path d="M29.3375 29.8188
L29.5042 29.5807
" />
<path d="M29.6232 29.8188
L29.6232 29.3188
" />
<path d="M29.6232 29.3188
L29.4327 29.3188
" />
<path d="M29.4327 29.3188
L29.3851 29.3426
" />
<path d="M29.3851 29.3426
L29.3613 29.3664
" />
<path d="M29.3613 29.3664
L29.3375 29.4140
" />
<path d="M29.3375 29.4140
L29.3375 29.4855
" />
<path d="M29.3375 29.4855
L29.3613 29.5331
" />
<path d="M29.3613 29.5331
L29.3851 29.5569
" />
<path d="M29.3851 29.5569
L29.4327 29.5807
" />
<path d="M29.4327 29.5807
L29.6232 29.5807
" />
<path d="M28.9089 29.4855
L28.9089 29.8188
" />
<path d="M29.0280 29.2950
L29.1470 29.6521
" />
<path d="M29.1470 29.6521
L28.8375 29.6521
" />
</g><text x="14.2542" y="24.5875"
transform="scale(-1 1) translate(-28.508332 0)"
textLength="1.2125" font-size="0.6667" lengthAdjust="spacingAndGlyphs"
text-anchor="middle" opacity="0">U6</text>
<g class="stroked-text"><desc>U6</desc>
<path d="M14.6351 24.0688
L14.6351 24.4736
" />
<path d="M14.6351 24.4736
L14.6113 24.5212
" />
<path d="M14.6113 24.5212
L14.5875 24.5450
" />
<path d="M14.5875 24.5450
L14.5399 24.5688
" />
<path d="M14.5399 24.5688
L14.4446 24.5688
" />
<path d="M14.4446 24.5688
L14.3970 24.5450
" />
<path d="M14.3970 24.5450
L14.3732 24.5212
" />
<path d="M14.3732 24.5212
L14.3494 24.4736
" />
<path d="M14.3494 24.4736
L14.3494 24.0688
" />
<path d="M13.8970 24.0688
L13.9923 24.0688
" />
<path d="M13.9923 24.0688
L14.0399 24.0926
" />
<path d="M14.0399 24.0926
L14.0637 24.1164
" />
<path d="M14.0637 24.1164
L14.1113 24.1879
" />
<path d="M14.1113 24.1879
L14.1351 24.2831
" />
<path d="M14.1351 24.2831
L14.1351 24.4736
" />
<path d="M14.1351 24.4736
L14.1113 24.5212
" />
<path d="M14.1113 24.5212
L14.0875 24.5450
" />
<path d="M14.0875 24.5450
L14.0399 24.5688
" />
<path d="M14.0399 24.5688
L13.9446 24.5688
" />
<path d="M13.9446 24.5688
L13.8970 24.5450
" />
<path d="M13.8970 24.5450
L13.8732 24.5212
" />
<path d="M13.8732 24.5212
L13.8494 24.4736
" />
<path d="M13.8494 24.4736
L13.8494 24.3545
" />
<path d="M13.8494 24.3545
L13.8732 24.3069
" />
<path d="M13.8732 24.3069
L13.8970 24.2831
" />
<path d="M13.8970 24.2831
L13.9446 24.2593
" />
<path d="M13.9446 24.2593
L14.0399 24.2593
" />
<path d="M14.0399 24.2593
L14.0875 24.2831
" />
<path d="M14.0875 24.2831
L14.1113 24.3069
" />
<path d="M14.1113 24.3069
L14.1351 24.3545
" />
</g><text x="19.7542" y="18.0875"
transform="scale(-1 1) translate(-39.508332 0)"
textLength="1.0696" font-size="0.6667" lengthAdjust="spacingAndGlyphs"
text-anchor="middle" opacity="0">J3</text>
<g class="stroked-text"><desc>J3</desc>
<path d="M19.9208 17.5688
L19.9208 17.9260
" />
<path d="M19.9208 17.9260
L19.9446 17.9974
" />
<path d="M19.9446 17.9974
L19.9923 18.0450
" />
<path d="M19.9923 18.0450
L20.0637 18.0688
" />
<path d="M20.0637 18.0688
L20.1113 18.0688
" />
<path d="M19.7304 17.5688
L19.4208 17.5688
" />
<path d="M19.4208 17.5688
L19.5875 17.7593
" />
<path d="M19.5875 17.7593
L19.5161 17.7593
" />
<path d="M19.5161 17.7593
L19.4685 17.7831
" />
<path d="M19.4685 17.7831
L19.4446 17.8069
" />
<path d="M19.4446 17.8069
L19.4208 17.8545
" />
<path d="M19.4208 17.8545
L19.4208 17.9736
" />
<path d="M19.4208 17.9736
L19.4446 18.0212
" />
<path d="M19.4446 18.0212
L19.4685 18.0450
" />
<path d="M19.4685 18.0450
L19.5161 18.0688
" />
<path d="M19.5161 18.0688
L19.6589 18.0688
" />
<path d="M19.6589 18.0688
L19.7065 18.0450
" />
<path d="M19.7065 18.0450
L19.7304 18.0212
" />
</g><text x="19.7542" y="24.3375"
transform="scale(-1 1) translate(-39.508332 0)"
textLength="1.6649" font-size="0.6667" lengthAdjust="spacingAndGlyphs"
text-anchor="middle" opacity="0">R17</text>
<g class="stroked-text"><desc>R17</desc>
<path d="M20.0756 24.3188
L20.2423 24.0807
" />
<path d="M20.3613 24.3188
L20.3613 23.8188
" />
<path d="M20.3613 23.8188
L20.1708 23.8188
" />
<path d="M20.1708 23.8188
L20.1232 23.8426
" />
<path d="M20.1232 23.8426
L20.0994 23.8664
" />
<path d="M20.0994 23.8664
L20.0756 23.9140
" />
<path d="M20.0756 23.9140
L20.0756 23.9855
" />
<path d="M20.0756 23.9855
L20.0994 24.0331
" />
<path d="M20.0994 24.0331
L20.1232 24.0569
" />
<path d="M20.1232 24.0569
L20.1708 24.0807
" />
<path d="M20.1708 24.0807
L20.3613 24.0807
" />
<path d="M19.5994 24.3188
L19.8851 24.3188
" />
<path d="M19.7423 24.3188
L19.7423 23.8188
" />
<path d="M19.7423 23.8188
L19.7899 23.8902
" />
<path d="M19.7899 23.8902
L19.8375 23.9379
" />
<path d="M19.8375 23.9379
L19.8851 23.9617
" />
<path d="M19.4327 23.8188
L19.0994 23.8188
" />
<path d="M19.0994 23.8188
L19.3137 24.3188
" />
</g><text x="16.0042" y="22.0875"
transform="scale(-1 1) translate(-32.008332 0)"
textLength="1.1887" font-size="0.6667" lengthAdjust="spacingAndGlyphs"
text-anchor="middle" opacity="0">D2</text>
<g class="stroked-text"><desc>D2</desc>
<path d="M16.3732 22.0688
L16.3732 21.5688
" />
<path d="M16.3732 21.5688
L16.2542 21.5688
" />
<path d="M16.2542 21.5688
L16.1827 21.5926
" />
<path d="M16.1827 21.5926
L16.1351 21.6402
" />
<path d="M16.1351 21.6402
L16.1113 21.6879
" />
<path d="M16.1113 21.6879
L16.0875 21.7831
" />
<path d="M16.0875 21.7831
L16.0875 21.8545
" />
<path d="M16.0875 21.8545
L16.1113 21.9498
" />
<path d="M16.1113 21.9498
L16.1351 21.9974
" />
<path d="M16.1351 21.9974
L16.1827 22.0450
" />
<path d="M16.1827 22.0450
L16.2542 22.0688
" />
<path d="M16.2542 22.0688
L16.3732 22.0688
" />
<path d="M15.8970 21.6164
L15.8732 21.5926
" />
<path d="M15.8732 21.5926
L15.8256 21.5688
" />
<path d="M15.8256 21.5688
L15.7065 21.5688
" />
<path d="M15.7065 21.5688
L15.6589 21.5926
" />
<path d="M15.6589 21.5926
L15.6351 21.6164
" />
<path d="M15.6351 21.6164
L15.6113 21.6640
" />
<path d="M15.6113 21.6640
L15.6113 21.7117
" />
<path d="M15.6113 21.7117
L15.6351 21.7831
" />
<path d="M15.6351 21.7831
L15.9208 22.0688
" />
<path d="M15.9208 22.0688
L15.6113 22.0688
" />
</g><text x="24.2542" y="28.0875"
transform="scale(-1 1) translate(-48.508332 0)"
textLength="1.5696" font-size="0.6667" lengthAdjust="spacingAndGlyphs"
text-anchor="middle" opacity="0">JP1</text>
<g class="stroked-text"><desc>JP1</desc>
<path d="M24.6708 27.5688
L24.6708 27.9260
" />
<path d="M24.6708 27.9260
L24.6946 27.9974
" />
<path d="M24.6946 27.9974
L24.7423 28.0450
" />
<path d="M24.7423 28.0450
L24.8137 28.0688
" />
<path d="M24.8137 28.0688
L24.8613 28.0688
" />
<path d="M24.4327 28.0688
L24.4327 27.5688
" />
<path d="M24.4327 27.5688
L24.2423 27.5688
" />
<path d="M24.2423 27.5688
L24.1946 27.5926
" />
<path d="M24.1946 27.5926
L24.1708 27.6164
" />
<path d="M24.1708 27.6164
L24.1470 27.6640
" />
<path d="M24.1470 27.6640
L24.1470 27.7355
" />
<path d="M24.1470 27.7355
L24.1708 27.7831
" />
<path d="M24.1708 27.7831
L24.1946 27.8069
" />
<path d="M24.1946 27.8069
L24.2423 27.8307
" />
<path d="M24.2423 27.8307
L24.4327 27.8307
" />
<path d="M23.6708 28.0688
L23.9565 28.0688
" />
<path d="M23.8137 28.0688
L23.8137 27.5688
" />
<path d="M23.8137 27.5688
L23.8613 27.6402
" />
<path d="M23.8613 27.6402
L23.9089 27.6879
" />
<path d="M23.9089 27.6879
L23.9565 27.7117
" />
</g><g transform="rotate(-90.000000 36.7542 21.8375)">
<text x="36.7542" y="22.0875"
transform="scale(-1 1) translate(-73.508332 0)"
textLength="1.2125" font-size="0.6667" lengthAdjust="spacingAndGlyphs"
text-anchor="middle" opacity="0">U1</text>
</g>
<g class="stroked-text"><desc>U1</desc>
<path d="M36.4855 21.4565
L36.8902 21.4565
" />
<path d="M36.8902 21.4565
L36.9379 21.4804
" />
<path d="M36.9379 21.4804
L36.9617 21.5042
" />
<path d="M36.9617 21.5042
L36.9855 21.5518
" />
<path d="M36.9855 21.5518
L36.9855 21.6470
" />
<path d="M36.9855 21.6470
L36.9617 21.6946
" />
<path d="M36.9617 21.6946
L36.9379 21.7185
" />
<path d="M36.9379 21.7185
L36.8902 21.7423
" />
<path d="M36.8902 21.7423
L36.4855 21.7423
" />
<path d="M36.9855 22.2423
L36.9855 21.9565
" />
<path d="M36.9855 22.0994
L36.4855 22.0994
" />
<path d="M36.4855 22.0994
L36.5569 22.0518
" />
<path d="M36.5569 22.0518
L36.6045 22.0042
" />
<path d="M36.6045 22.0042
L36.6283 21.9565
" />
</g><g transform="rotate(-90.000000 33.2542 25.5875)">
<text x="33.2542" y="25.8375"
transform="scale(-1 1) translate(-66.508332 0)"
textLength="1.2125" font-size="0.6667" lengthAdjust="spacingAndGlyphs"
text-anchor="middle" opacity="0">U3</text>
</g>
<g class="stroked-text"><desc>U3</desc>
<path d="M32.9855 25.2065
L33.3902 25.2065
" />
<path d="M33.3902 25.2065
L33.4379 25.2304
" />
<path d="M33.4379 25.2304
L33.4617 25.2542
" />
<path d="M33.4617 25.2542
L33.4855 25.3018
" />
<path d="M33.4855 25.3018
L33.4855 25.3970
" />
<path d="M33.4855 25.3970
L33.4617 25.4446
" />
<path d="M33.4617 25.4446
L33.4379 25.4685
" />
<path d="M33.4379 25.4685
L33.3902 25.4923
" />
<path d="M33.3902 25.4923
L32.9855 25.4923
" />
<path d="M32.9855 25.6827
L32.9855 25.9923
" />
<path d="M32.9855 25.9923
L33.1760 25.8256
" />
<path d="M33.1760 25.8256
L33.1760 25.8970
" />
<path d="M33.1760 25.8970
L33.1998 25.9446
" />
<path d="M33.1998 25.9446
L33.2236 25.9685
" />
<path d="M33.2236 25.9685
L33.2712 25.9923
" />
<path d="M33.2712 25.9923
L33.3902 25.9923
" />
<path d="M33.3902 25.9923
L33.4379 25.9685
" />
<path d="M33.4379 25.9685
L33.4617 25.9446
" />
<path d="M33.4617 25.9446
L33.4855 25.8970
" />
<path d="M33.4855 25.8970
L33.4855 25.7542
" />
<path d="M33.4855 25.7542
L33.4617 25.7065
" />
<path d="M33.4617 25.7065
L33.4379 25.6827
" />
</g><text x="19.7542" y="26.0875"
transform="scale(-1 1) translate(-39.508332 0)"
textLength="1.0696" font-size="0.6667" lengthAdjust="spacingAndGlyphs"
text-anchor="middle" opacity="0">J4</text>
<g class="stroked-text"><desc>J4</desc>
<path d="M19.9208 25.5688
L19.9208 25.9260
" />
<path d="M19.9208 25.9260
L19.9446 25.9974
" />
<path d="M19.9446 25.9974
L19.9923 26.0450
" />
<path d="M19.9923 26.0450
L20.0637 26.0688
" />
<path d="M20.0637 26.0688
L20.1113 26.0688
" />
<path d="M19.4685 25.7355
L19.4685 26.0688
" />
<path d="M19.5875 25.5450
L19.7065 25.9021
" />
<path d="M19.7065 25.9021
L19.3970 25.9021
" />
</g><text x="42.2542" y="19.5875"
transform="scale(-1 1) translate(-84.508332 0)"
textLength="1.0696" font-size="0.6667" lengthAdjust="spacingAndGlyphs"
text-anchor="middle" opacity="0">J2</text>
<g class="stroked-text"><desc>J2</desc>
<path d="M42.4208 19.0688
L42.4208 19.4260
" />
<path d="M42.4208 19.4260
L42.4446 19.4974
" />
<path d="M42.4446 19.4974
L42.4923 19.5450
" />
<path d="M42.4923 19.5450
L42.5637 19.5688
" />
<path d="M42.5637 19.5688
L42.6113 19.5688
" />
<path d="M42.2065 19.1164
L42.1827 19.0926
" />
<path d="M42.1827 19.0926
L42.1351 19.0688
" />
<path d="M42.1351 19.0688
L42.0161 19.0688
" />
<path d="M42.0161 19.0688
L41.9685 19.0926
" />
<path d="M41.9685 19.0926
L41.9446 19.1164
" />
<path d="M41.9446 19.1164
L41.9208 19.1640
" />
<path d="M41.9208 19.1640
L41.9208 19.2117
" />
<path d="M41.9208 19.2117
L41.9446 19.2831
" />
<path d="M41.9446 19.2831
L42.2304 19.5688
" />
<path d="M42.2304 19.5688
L41.9208 19.5688
" />
</g><text x="15.7542" y="25.0875"
transform="scale(-1 1) translate(-31.508332 0)"
textLength="1.6649" font-size="0.6667" lengthAdjust="spacingAndGlyphs"
text-anchor="middle" opacity="0">R16</text>
<g class="stroked-text"><desc>R16</desc>
<path d="M16.0756 25.0688
L16.2423 24.8307
" />
<path d="M16.3613 25.0688
L16.3613 24.5688
" />
<path d="M16.3613 24.5688
L16.1708 24.5688
" />
<path d="M16.1708 24.5688
L16.1232 24.5926
" />
<path d="M16.1232 24.5926
L16.0994 24.6164
" />
<path d="M16.0994 24.6164
L16.0756 24.6640
" />
<path d="M16.0756 24.6640
L16.0756 24.7355
" />
<path d="M16.0756 24.7355
L16.0994 24.7831
" />
<path d="M16.0994 24.7831
L16.1232 24.8069
" />
<path d="M16.1232 24.8069
L16.1708 24.8307
" />
<path d="M16.1708 24.8307
L16.3613 24.8307
" />
<path d="M15.5994 25.0688
L15.8851 25.0688
" />
<path d="M15.7423 25.0688
L15.7423 24.5688
" />
<path d="M15.7423 24.5688
L15.7899 24.6402
" />
<path d="M15.7899 24.6402
L15.8375 24.6879
" />
<path d="M15.8375 24.6879
L15.8851 24.7117
" />
<path d="M15.1708 24.5688
L15.2661 24.5688
" />
<path d="M15.2661 24.5688
L15.3137 24.5926
" />
<path d="M15.3137 24.5926
L15.3375 24.6164
" />
<path d="M15.3375 24.6164
L15.3851 24.6879
" />
<path d="M15.3851 24.6879
L15.4089 24.7831
" />
<path d="M15.4089 24.7831
L15.4089 24.9736
" />
<path d="M15.4089 24.9736
L15.3851 25.0212
" />
<path d="M15.3851 25.0212
L15.3613 25.0450
" />
<path d="M15.3613 25.0450
L15.3137 25.0688
" />
<path d="M15.3137 25.0688
L15.2185 25.0688
" />
<path d="M15.2185 25.0688
L15.1708 25.0450
" />
<path d="M15.1708 25.0450
L15.1470 25.0212
" />
<path d="M15.1470 25.0212
L15.1232 24.9736
" />
<path d="M15.1232 24.9736
L15.1232 24.8545
" />
<path d="M15.1232 24.8545
L15.1470 24.8069
" />
<path d="M15.1470 24.8069
L15.1708 24.7831
" />
<path d="M15.1708 24.7831
L15.2185 24.7593
" />
<path d="M15.2185 24.7593
L15.3137 24.7593
" />
<path d="M15.3137 24.7593
L15.3613 24.7831
" />
<path d="M15.3613 24.7831
L15.3851 24.8069
" />
<path d="M15.3851 24.8069
L15.4089 24.8545
" />
</g><text x="15.7542" y="28.8375"
transform="scale(-1 1) translate(-31.508332 0)"
textLength="1.6649" font-size="0.6667" lengthAdjust="spacingAndGlyphs"
text-anchor="middle" opacity="0">R15</text>
<g class="stroked-text"><desc>R15</desc>
<path d="M16.0756 28.8188
L16.2423 28.5807
" />
<path d="M16.3613 28.8188
L16.3613 28.3188
" />
<path d="M16.3613 28.3188
L16.1708 28.3188
" />
<path d="M16.1708 28.3188
L16.1232 28.3426
" />
<path d="M16.1232 28.3426
L16.0994 28.3664
" />
<path d="M16.0994 28.3664
L16.0756 28.4140
" />
<path d="M16.0756 28.4140
L16.0756 28.4855
" />
<path d="M16.0756 28.4855
L16.0994 28.5331
" />
<path d="M16.0994 28.5331
L16.1232 28.5569
" />
<path d="M16.1232 28.5569
L16.1708 28.5807
" />
<path d="M16.1708 28.5807
L16.3613 28.5807
" />
<path d="M15.5994 28.8188
L15.8851 28.8188
" />
<path d="M15.7423 28.8188
L15.7423 28.3188
" />
<path d="M15.7423 28.3188
L15.7899 28.3902
" />
<path d="M15.7899 28.3902
L15.8375 28.4379
" />
<path d="M15.8375 28.4379
L15.8851 28.4617
" />
<path d="M15.1470 28.3188
L15.3851 28.3188
" />
<path d="M15.3851 28.3188
L15.4089 28.5569
" />
<path d="M15.4089 28.5569
L15.3851 28.5331
" />
<path d="M15.3851 28.5331
L15.3375 28.5093
" />
<path d="M15.3375 28.5093
L15.2185 28.5093
" />
<path d="M15.2185 28.5093
L15.1708 28.5331
" />
<path d="M15.1708 28.5331
L15.1470 28.5569
" />
<path d="M15.1470 28.5569
L15.1232 28.6045
" />
<path d="M15.1232 28.6045
L15.1232 28.7236
" />
<path d="M15.1232 28.7236
L15.1470 28.7712
" />
<path d="M15.1470 28.7712
L15.1708 28.7950
" />
<path d="M15.1708 28.7950
L15.2185 28.8188
" />
<path d="M15.2185 28.8188
L15.3375 28.8188
" />
<path d="M15.3375 28.8188
L15.3851 28.7950
" />
<path d="M15.3851 28.7950
L15.4089 28.7712
" />
</g><g transform="rotate(-90.000000 24.5042 14.3375)">
<text x="24.5042" y="14.5875"
transform="scale(-1 1) translate(-49.008332 0)"
textLength="1.1887" font-size="0.6667" lengthAdjust="spacingAndGlyphs"
text-anchor="middle" opacity="0">C9</text>
</g>
<g class="stroked-text"><desc>C9</desc>
<path d="M24.6879 14.2542
L24.7117 14.2304
" />
<path d="M24.7117 14.2304
L24.7355 14.1589
" />
<path d="M24.7355 14.1589
L24.7355 14.1113
" />
<path d="M24.7355 14.1113
L24.7117 14.0399
" />
<path d="M24.7117 14.0399
L24.6640 13.9923
" />
<path d="M24.6640 13.9923
L24.6164 13.9685
" />
<path d="M24.6164 13.9685
L24.5212 13.9446
" />
<path d="M24.5212 13.9446
L24.4498 13.9446
" />
<path d="M24.4498 13.9446
L24.3545 13.9685
" />
<path d="M24.3545 13.9685
L24.3069 13.9923
" />
<path d="M24.3069 13.9923
L24.2593 14.0399
" />
<path d="M24.2593 14.0399
L24.2355 14.1113
" />
<path d="M24.2355 14.1113
L24.2355 14.1589
" />
<path d="M24.2355 14.1589
L24.2593 14.2304
" />
<path d="M24.2593 14.2304
L24.2831 14.2542
" />
<path d="M24.7355 14.4923
L24.7355 14.5875
" />
<path d="M24.7355 14.5875
L24.7117 14.6351
" />
<path d="M24.7117 14.6351
L24.6879 14.6589
" />
<path d="M24.6879 14.6589
L24.6164 14.7065
" />
<path d="M24.6164 14.7065
L24.5212 14.7304
" />
<path d="M24.5212 14.7304
L24.3307 14.7304
" />
<path d="M24.3307 14.7304
L24.2831 14.7065
" />
<path d="M24.2831 14.7065
L24.2593 14.6827
" />
<path d="M24.2593 14.6827
L24.2355 14.6351
" />
<path d="M24.2355 14.6351
L24.2355 14.5399
" />
<path d="M24.2355 14.5399
L24.2593 14.4923
" />
<path d="M24.2593 14.4923
L24.2831 14.4685
" />
<path d="M24.2831 14.4685
L24.3307 14.4446
" />
<path d="M24.3307 14.4446
L24.4498 14.4446
" />
<path d="M24.4498 14.4446
L24.4974 14.4685
" />
<path d="M24.4974 14.4685
L24.5212 14.4923
" />
<path d="M24.5212 14.4923
L24.5450 14.5399
" />
<path d="M24.5450 14.5399
L24.5450 14.6351
" />
<path d="M24.5450 14.6351
L24.5212 14.6827
" />
<path d="M24.5212 14.6827
L24.4974 14.7065
" />
<path d="M24.4974 14.7065
L24.4498 14.7304
" />
</g><g transform="rotate(-90.000000 20.7542 20.3375)">
<text x="20.7542" y="20.5875"
transform="scale(-1 1) translate(-41.508332 0)"
textLength="1.1887" font-size="0.6667" lengthAdjust="spacingAndGlyphs"
text-anchor="middle" opacity="0">R8</text>
</g>
<g class="stroked-text"><desc>R8</desc>
<path d="M20.9855 20.2542
L20.7474 20.0875
" />
<path d="M20.9855 19.9685
L20.4855 19.9685
" />
<path d="M20.4855 19.9685
L20.4855 20.1589
" />
<path d="M20.4855 20.1589
L20.5093 20.2065
" />
<path d="M20.5093 20.2065
L20.5331 20.2304
" />
<path d="M20.5331 20.2304
L20.5807 20.2542
" />
<path d="M20.5807 20.2542
L20.6521 20.2542
" />
<path d="M20.6521 20.2542
L20.6998 20.2304
" />
<path d="M20.6998 20.2304
L20.7236 20.2065
" />
<path d="M20.7236 20.2065
L20.7474 20.1589
" />
<path d="M20.7474 20.1589
L20.7474 19.9685
" />
<path d="M20.6998 20.5399
L20.6760 20.4923
" />
<path d="M20.6760 20.4923
L20.6521 20.4685
" />
<path d="M20.6521 20.4685
L20.6045 20.4446
" />
<path d="M20.6045 20.4446
L20.5807 20.4446
" />
<path d="M20.5807 20.4446
L20.5331 20.4685
" />
<path d="M20.5331 20.4685
L20.5093 20.4923
" />
<path d="M20.5093 20.4923
L20.4855 20.5399
" />
<path d="M20.4855 20.5399
L20.4855 20.6351
" />
<path d="M20.4855 20.6351
L20.5093 20.6827
" />
<path d="M20.5093 20.6827
L20.5331 20.7065
" />
<path d="M20.5331 20.7065
L20.5807 20.7304
" />
<path d="M20.5807 20.7304
L20.6045 20.7304
" />
<path d="M20.6045 20.7304
L20.6521 20.7065
" />
<path d="M20.6521 20.7065
L20.6760 20.6827
" />
<path d="M20.6760 20.6827
L20.6998 20.6351
" />
<path d="M20.6998 20.6351
L20.6998 20.5399
" />
<path d="M20.6998 20.5399
L20.7236 20.4923
" />
<path d="M20.7236 20.4923
L20.7474 20.4685
" />
<path d="M20.7474 20.4685
L20.7950 20.4446
" />
<path d="M20.7950 20.4446
L20.8902 20.4446
" />
<path d="M20.8902 20.4446
L20.9379 20.4685
" />
<path d="M20.9379 20.4685
L20.9617 20.4923
" />
<path d="M20.9617 20.4923
L20.9855 20.5399
" />
<path d="M20.9855 20.5399
L20.9855 20.6351
" />
<path d="M20.9855 20.6351
L20.9617 20.6827
" />
<path d="M20.9617 20.6827
L20.9379 20.7065
" />
<path d="M20.9379 20.7065
L20.8902 20.7304
" />
<path d="M20.8902 20.7304
L20.7950 20.7304
" />
<path d="M20.7950 20.7304
L20.7474 20.7065
" />
<path d="M20.7474 20.7065
L20.7236 20.6827
" />
<path d="M20.7236 20.6827
L20.6998 20.6351
" />
</g><g transform="rotate(-90.000000 37.7542 28.3375)">
<text x="37.7542" y="28.5875"
transform="scale(-1 1) translate(-75.508332 0)"
textLength="1.1887" font-size="0.6667" lengthAdjust="spacingAndGlyphs"
text-anchor="middle" opacity="0">C2</text>
</g>
<g class="stroked-text"><desc>C2</desc>
<path d="M37.9379 28.2542
L37.9617 28.2304
" />
<path d="M37.9617 28.2304
L37.9855 28.1589
" />
<path d="M37.9855 28.1589
L37.9855 28.1113
" />
<path d="M37.9855 28.1113
L37.9617 28.0399
" />
<path d="M37.9617 28.0399
L37.9140 27.9923
" />
<path d="M37.9140 27.9923
L37.8664 27.9685
" />
<path d="M37.8664 27.9685
L37.7712 27.9446
" />
<path d="M37.7712 27.9446
L37.6998 27.9446
" />
<path d="M37.6998 27.9446
L37.6045 27.9685
" />
<path d="M37.6045 27.9685
L37.5569 27.9923
" />
<path d="M37.5569 27.9923
L37.5093 28.0399
" />
<path d="M37.5093 28.0399
L37.4855 28.1113
" />
<path d="M37.4855 28.1113
L37.4855 28.1589
" />
<path d="M37.4855 28.1589
L37.5093 28.2304
" />
<path d="M37.5093 28.2304
L37.5331 28.2542
" />
<path d="M37.5331 28.4446
L37.5093 28.4685
" />
<path d="M37.5093 28.4685
L37.4855 28.5161
" />
<path d="M37.4855 28.5161
L37.4855 28.6351
" />
<path d="M37.4855 28.6351
L37.5093 28.6827
" />
<path d="M37.5093 28.6827
L37.5331 28.7065
" />
<path d="M37.5331 28.7065
L37.5807 28.7304
" />
<path d="M37.5807 28.7304
L37.6283 28.7304
" />
<path d="M37.6283 28.7304
L37.6998 28.7065
" />
<path d="M37.6998 28.7065
L37.9855 28.4208
" />
<path d="M37.9855 28.4208
L37.9855 28.7304
" />
</g><g transform="rotate(-90.000000 35.2542 28.3375)">
<text x="35.2542" y="28.5875"
transform="scale(-1 1) translate(-70.508332 0)"
textLength="1.1887" font-size="0.6667" lengthAdjust="spacingAndGlyphs"
text-anchor="middle" opacity="0">C3</text>
</g>
<g class="stroked-text"><desc>C3</desc>
<path d="M35.4379 28.2542
L35.4617 28.2304
" />
<path d="M35.4617 28.2304
L35.4855 28.1589
" />
<path d="M35.4855 28.1589
L35.4855 28.1113
" />
<path d="M35.4855 28.1113
L35.4617 28.0399
" />
<path d="M35.4617 28.0399
L35.4140 27.9923
" />
<path d="M35.4140 27.9923
L35.3664 27.9685
" />
<path d="M35.3664 27.9685
L35.2712 27.9446
" />
<path d="M35.2712 27.9446
L35.1998 27.9446
" />
<path d="M35.1998 27.9446
L35.1045 27.9685
" />
<path d="M35.1045 27.9685
L35.0569 27.9923
" />
<path d="M35.0569 27.9923
L35.0093 28.0399
" />
<path d="M35.0093 28.0399
L34.9855 28.1113
" />
<path d="M34.9855 28.1113
L34.9855 28.1589
" />
<path d="M34.9855 28.1589
L35.0093 28.2304
" />
<path d="M35.0093 28.2304
L35.0331 28.2542
" />
<path d="M34.9855 28.4208
L34.9855 28.7304
" />
<path d="M34.9855 28.7304
L35.1760 28.5637
" />
<path d="M35.1760 28.5637
L35.1760 28.6351
" />
<path d="M35.1760 28.6351
L35.1998 28.6827
" />
<path d="M35.1998 28.6827
L35.2236 28.7065
" />
<path d="M35.2236 28.7065
L35.2712 28.7304
" />
<path d="M35.2712 28.7304
L35.3902 28.7304
" />
<path d="M35.3902 28.7304
L35.4379 28.7065
" />
<path d="M35.4379 28.7065
L35.4617 28.6827
" />
<path d="M35.4617 28.6827
L35.4855 28.6351
" />
<path d="M35.4855 28.6351
L35.4855 28.4923
" />
<path d="M35.4855 28.4923
L35.4617 28.4446
" />
<path d="M35.4617 28.4446
L35.4379 28.4208
" />
</g></g>
<g style="fill:#000000; fill-opacity:0.0; 
stroke:#000000; stroke-width:0.0500; stroke-opacity:1; 
stroke-linecap:round; stroke-linejoin:round;">
<path d="M15.9342 26.8575
L15.9342 25.8175
" />
<path d="M15.9342 25.8175
L16.5742 25.8175
" />
<path d="M16.5742 26.8575
L15.9342 26.8575
" />
<path d="M16.5742 25.8175
L16.5742 26.8575
" />
</g>
<g style="fill:#000000; fill-opacity:0.0; 
stroke:#000000; stroke-width:0.2500; stroke-opacity:1; 
stroke-linecap:round; stroke-linejoin:round;">
</g>
<g style="fill:#000000; fill-opacity:1.0000; 
stroke:#000000; stroke-width:0.0000; stroke-opacity:1; 
stroke-linecap:round; stroke-linejoin:round;">
<circle cx="16.7042" cy="26.9875" r="0.1250" /> 
</g>
<g style="fill:#000000; fill-opacity:1.0000; 
stroke:#000000; stroke-width:0.1500; stroke-opacity:1; 
stroke-linecap:round; stroke-linejoin:round;">
</g>
<g style="fill:#000000; fill-opacity:0.0; 
stroke:#000000; stroke-width:0.1500; stroke-opacity:1; 
stroke-linecap:round; stroke-linejoin:round;">
<path d="M25.0042 14.4453
L25.0042 14.2297
" />
<path d="M25.5042 14.4453
L25.5042 14.2297
" />
<path d="M14.6136 28.9375
L14.8947 28.9375
" />
<path d="M14.6136 29.7375
L14.8947 29.7375
" />
<path d="M27.4792 14.4911
L27.4792 14.1839
" />
<path d="M28.0292 14.4911
L28.0292 14.1839
" />
<path d="M36.8542 15.4781
L36.8542 15.1969
" />
<path d="M37.6542 15.4781
L37.6542 15.1969
" />
<path d="M33.3542 28.4781
L33.3542 28.1969
" />
<path d="M34.1542 28.4781
L34.1542 28.1969
" />
<path d="M34.3542 15.4781
L34.3542 15.1969
" />
<path d="M35.1542 15.4781
L35.1542 15.1969
" />
<path d="M29.4792 14.4911
L29.4792 14.1839
" />
<path d="M30.0292 14.4911
L30.0292 14.1839
" />
<path d="M29.1005 28.5625
L29.4078 28.5625
" />
<path d="M29.1005 29.1125
L29.4078 29.1125
" />
</g>
<g style="fill:#000000; fill-opacity:0.0; 
stroke:#000000; stroke-width:0.3500; stroke-opacity:1; 
stroke-linecap:round; stroke-linejoin:round;">
</g>
<g style="fill:#000000; fill-opacity:1.0000; 
stroke:#000000; stroke-width:0.0000; stroke-opacity:1; 
stroke-linecap:round; stroke-linejoin:round;">
<circle cx="12.7042" cy="26.8875" r="0.1750" /> 
</g>
<g style="fill:#000000; fill-opacity:1.0000; 
stroke:#000000; stroke-width:0.1500; stroke-opacity:1; 
stroke-linecap:round; stroke-linejoin:round;">
</g>
<g style="fill:#000000; fill-opacity:0.0; 
stroke:#000000; stroke-width:0.1500; stroke-opacity:1; 
stroke-linecap:round; stroke-linejoin:round;">
<path d="M13.7542 26.9375
L14.7542 26.9375
" />
<path d="M12.7542 24.7375
L14.7542 24.7375
" />
</g>
<g style="fill:#000000; fill-opacity:0.0; 
stroke:#000000; stroke-width:0.5000; stroke-opacity:1; 
stroke-linecap:round; stroke-linejoin:round;">
<path d="M21.0542 14.0375
L21.0542 16.6375
" />
<path d="M18.9542 14.0375
L21.0542 14.0375
" />
<path d="M18.4542 14.5375
L18.9542 14.0375
" />
<path d="M18.4542 14.5375
L18.4542 16.1375
" />
<path d="M18.4542 16.1375
L18.9542 16.6375
" />
<path d="M18.9542 16.6375
L21.0542 16.6375
" />
</g>
<g style="fill:#000000; fill-opacity:0.0; 
stroke:#000000; stroke-width:0.1500; stroke-opacity:1; 
stroke-linecap:round; stroke-linejoin:round;">
<path d="M19.9078 25.1125
L19.6005 25.1125
" />
<path d="M19.9078 24.5625
L19.6005 24.5625
" />
</g>
<g style="fill:#000000; fill-opacity:0.0; 
stroke:#000000; stroke-width:0.5000; stroke-opacity:1; 
stroke-linecap:round; stroke-linejoin:round;">
<path d="M13.1792 23.1075
L15.0842 23.1075
" />
</g>
<g style="fill:#000000; fill-opacity:0.0; 
stroke:#000000; stroke-width:0.3000; stroke-opacity:1; 
stroke-linecap:round; stroke-linejoin:round;">
<path d="M13.8142 22.2185
L15.0842 22.2185
" />
<path d="M14.4492 22.2185
L14.4492 23.1075
" />
<path d="M14.4492 22.2185
L13.8142 21.5835
" />
<path d="M13.8142 21.5835
L15.0842 21.5835
" />
<path d="M14.4492 21.5835
L14.4492 20.5675
" />
<path d="M15.0842 21.5835
L14.4492 22.2185
" />
</g>
<g style="fill:#000000; fill-opacity:0.0; 
stroke:#000000; stroke-width:0.5000; stroke-opacity:1; 
stroke-linecap:round; stroke-linejoin:round;">
<path d="M13.1792 20.5675
L15.0842 20.5675
" />
<path d="M9.5792 24.2375
L13.1792 24.2375
" />
<path d="M13.1792 24.2375
L13.1792 19.4375
" />
<path d="M13.1792 19.4375
L9.5792 19.4375
" />
<path d="M9.5792 19.4375
L9.5792 24.2375
" />
</g>
<g style="fill:#000000; fill-opacity:0.0; 
stroke:#000000; stroke-width:0.3000; stroke-opacity:1; 
stroke-linecap:round; stroke-linejoin:round;">
<circle cx="15.0842" cy="23.1075" r="0.3500" /> 
</g>
<g style="fill:#000000; fill-opacity:0.0; 
stroke:#000000; stroke-width:0.1200; stroke-opacity:1; 
stroke-linecap:round; stroke-linejoin:round;">
<path d="M25.6542 29.6375
L25.6542 29.0375
" />
<path d="M24.9542 28.3375
L23.5542 28.3375
" />
<path d="M23.5542 30.3375
L24.9542 30.3375
" />
<path d="M22.8542 29.0375
L22.8542 29.6375
" />
<path d="M24.9542 30.3375 A0.7000 0.7000 0.0 0 0 25.6542 29.6375" />
<path d="M25.6542 29.0375 A0.7000 0.7000 0.0 0 0 24.9542 28.3375" />
<path d="M22.8542 29.6375 A0.7000 0.7000 0.0 0 0 23.5542 30.3375" />
<path d="M23.5542 28.3375 A0.7000 0.7000 0.0 0 0 22.8542 29.0375" />
</g>
<g style="fill:#000000; fill-opacity:0.0; 
stroke:#000000; stroke-width:0.1270; stroke-opacity:1; 
stroke-linecap:round; stroke-linejoin:round;">
<path d="M33.2042 23.3875
L33.2042 20.2875
" />
<path d="M36.3042 23.3875
L36.3042 20.2875
" />
</g>
<g style="fill:#000000; fill-opacity:0.0; 
stroke:#000000; stroke-width:0.2000; stroke-opacity:1; 
stroke-linecap:round; stroke-linejoin:round;">
<circle cx="36.1992" cy="23.8375" r="0.1000" /> 
</g>
<g style="fill:#000000; fill-opacity:0.0; 
stroke:#000000; stroke-width:0.1200; stroke-opacity:1; 
stroke-linecap:round; stroke-linejoin:round;">
<path d="M21.9942 25.6975
L22.2492 25.6975
" />
<path d="M32.2592 25.6975
L32.2592 27.5125
" />
<path d="M32.5142 25.6975
L32.2592 25.6975
" />
<path d="M21.9942 21.8375
L21.9942 25.6975
" />
<path d="M21.9942 21.8375
L21.9942 17.9775
" />
<path d="M32.5142 21.8375
L32.5142 25.6975
" />
<path d="M32.5142 21.8375
L32.5142 17.9775
" />
<path d="M21.9942 17.9775
L22.2492 17.9775
" />
<path d="M32.5142 17.9775
L32.2592 17.9775
" />
</g>
<g style="fill:#000000; fill-opacity:1.0000; 
stroke:#000000; stroke-width:0.0000; stroke-opacity:1; 
stroke-linecap:round; stroke-linejoin:round;">
<circle cx="32.7542" cy="26.5875" r="0.3000" /> 
</g>
<g style="fill:#000000; fill-opacity:1.0000; 
stroke:#000000; stroke-width:0.5000; stroke-opacity:1; 
stroke-linecap:round; stroke-linejoin:round;">
</g>
<g style="fill:#000000; fill-opacity:0.0; 
stroke:#000000; stroke-width:0.5000; stroke-opacity:1; 
stroke-linecap:round; stroke-linejoin:round;">
<path d="M21.0542 27.0375
L21.0542 29.6375
" />
<path d="M18.9542 27.0375
L21.0542 27.0375
" />
<path d="M18.4542 27.5375
L18.9542 27.0375
" />
<path d="M18.4542 27.5375
L18.4542 29.1375
" />
<path d="M18.4542 29.1375
L18.9542 29.6375
" />
<path d="M18.9542 29.6375
L21.0542 29.6375
" />
<path d="M43.5542 20.5375
L43.5542 23.1375
" />
<path d="M41.4542 20.5375
L43.5542 20.5375
" />
<path d="M40.9542 21.0375
L41.4542 20.5375
" />
<path d="M40.9542 21.0375
L40.9542 22.6375
" />
<path d="M40.9542 22.6375
L41.4542 23.1375
" />
<path d="M41.4542 23.1375
L43.5542 23.1375
" />
</g>
<g style="fill:#000000; fill-opacity:0.0; 
stroke:#000000; stroke-width:0.1500; stroke-opacity:1; 
stroke-linecap:round; stroke-linejoin:round;">
<path d="M17.1005 24.5625
L17.4078 24.5625
" />
<path d="M17.1005 25.1125
L17.4078 25.1125
" />
<path d="M15.6005 27.5625
L15.9078 27.5625
" />
<path d="M15.6005 28.1125
L15.9078 28.1125
" />
<path d="M24.0042 14.2297
L24.0042 14.4453
" />
<path d="M23.5042 14.2297
L23.5042 14.4453
" />
<path d="M20.4792 21.9911
L20.4792 21.6839
" />
<path d="M21.0292 21.9911
L21.0292 21.6839
" />
<path d="M39.1542 28.1969
L39.1542 28.4781
" />
<path d="M38.3542 28.1969
L38.3542 28.4781
" />
<path d="M36.6542 28.1969
L36.6542 28.4781
" />
<path d="M35.8542 28.1969
L35.8542 28.4781
" />
<g >
</g>
<g >
</g>
<g >
</g>
<g >
</g>
<g >
</g>
<g >
</g>
<g >
</g>
<g >
</g>
<g >
</g>
<g >
</g>
<g >
</g>
<g >
</g>
<g >
</g>
<g >
</g>
<g >
</g>
<g >
</g>
<g >
</g>
<g >
</g>
<g >
</g>
<g >
</g>
<g >
</g>
<g >
</g>
<g >
</g>
<g >
</g>
<g >
</g>
<g >
</g>
<g >
</g>
<g >
</g>
<g >
</g>
<g >
</g>
<g >
</g>
<g >
</g>
<g >
</g>
<g >
</g>
<g >
</g>
<g >
</g>
<g >
</g>
<g >
</g>
<g >
</g>
<g >
</g>
<g >
</g>
<g >
</g>
<g >
</g>
<g >
</g>
<g >
</g>
<g >
</g>
<g >
</g>
<g >
</g>
<g >
</g>
<g >
</g>
<g >
</g>
<g >
</g>
<g >
</g>
<g >
</g>
<g >
</g>
<g >
</g>
<g >
</g>
</g>
<g style="fill:#000000; fill-opacity:0.0; 
stroke:#000000; stroke-width:0.1500; stroke-opacity:1; 
stroke-linecap:round; stroke-linejoin:round;">
</g>
<g style="fill:#000000; fill-opacity:0.0; 
stroke:#000000; stroke-width:0.1000; stroke-opacity:1; 
stroke-linecap:round; stroke-linejoin:round;">
<path d="M8.7542 14.8375
L8.7542 28.8375
" />
<path d="M42.7542 30.8375 A2.0000 2.0000 0.0 0 0 44.7542 28.8375" />
<path d="M44.7542 14.8375 A2.0000 2.0000 0.0 0 0 42.7542 12.8375" />
<path d="M10.7542 12.8375
L42.7542 12.8375
" />
<path d="M10.7542 12.8375 A2.0000 2.0000 0.0 0 0 8.7542 14.8375" />
<path d="M44.7542 28.8375
L44.7542 14.8375
" />
<path d="M10.7542 30.8375
L42.7542 30.8375
" />
<path d="M8.7542 28.8375 A2.0000 2.0000 0.0 0 0 10.7542 30.8375" />
<g >
</g>
<g >
</g>
<g >
</g>
<g >
</g>
<g >
</g>
<g >
</g>
<g >
</g>
<g >
</g>
<g >
</g>
<g >
</g>
<g >
</g>
<g >
</g>
<g >
</g>
<g >
</g>
<g >
</g>
<g >
</g>
<g >
</g>
<g >
</g>
<g >
</g>
<g >
</g>
<g >
</g>
<g >
</g>
<g >
</g>
<g >
</g>
<g >
</g>
<g >
</g>
<g >
</g>
<g >
</g>
<g >
</g>
<g >
</g>
<g >
</g>
<g >
</g>
<g >
</g>
<g >
</g>
<g >
</g>
<g >
</g>
<g >
</g>
<g >
</g>
<g >
</g>
<g >
</g>
<g >
</g>
<g >
</g>
<g >
</g>
<g >
</g>
<g >
</g>
<g >
</g>
<g >
</g>
<g >
</g>
<g >
</g>
<g >
</g>
<g >
</g>
<g >
</g>
<g >
</g>
<g >
</g>
<g >
</g>
<g >
</g>
<g >
</g>
</g> 
</svg>
