%TF.GenerationSoftware,KiCad,Pcbnew,7.0.10*%
%TF.CreationDate,2024-02-15T14:25:29-05:00*%
%TF.ProjectId,wingbeat_detector,77696e67-6265-4617-945f-646574656374,4.0*%
%TF.SameCoordinates,Original*%
%TF.FileFunction,Legend,Top*%
%TF.FilePolarity,Positive*%
%FSLAX46Y46*%
G04 Gerber Fmt 4.6, Leading zero omitted, Abs format (unit mm)*
G04 Created by KiCad (PCBNEW 7.0.10) date 2024-02-15 14:25:29*
%MOMM*%
%LPD*%
G01*
G04 APERTURE LIST*
G04 Aperture macros list*
%AMRoundRect*
0 Rectangle with rounded corners*
0 $1 Rounding radius*
0 $2 $3 $4 $5 $6 $7 $8 $9 X,Y pos of 4 corners*
0 Add a 4 corners polygon primitive as box body*
4,1,4,$2,$3,$4,$5,$6,$7,$8,$9,$2,$3,0*
0 Add four circle primitives for the rounded corners*
1,1,$1+$1,$2,$3*
1,1,$1+$1,$4,$5*
1,1,$1+$1,$6,$7*
1,1,$1+$1,$8,$9*
0 Add four rect primitives between the rounded corners*
20,1,$1+$1,$2,$3,$4,$5,0*
20,1,$1+$1,$4,$5,$6,$7,0*
20,1,$1+$1,$6,$7,$8,$9,0*
20,1,$1+$1,$8,$9,$2,$3,0*%
%AMFreePoly0*
4,1,18,-0.475000,0.910000,-0.460537,0.982710,-0.419350,1.044350,-0.357710,1.085537,-0.285000,1.100000,0.237500,1.100000,0.475000,0.862500,0.475000,-0.910000,0.460537,-0.982710,0.419350,-1.044350,0.357710,-1.085537,0.285000,-1.100000,-0.285000,-1.100000,-0.357710,-1.085537,-0.419350,-1.044350,-0.460537,-0.982710,-0.475000,-0.910000,-0.475000,0.910000,-0.475000,0.910000,$1*%
%AMFreePoly1*
4,1,18,-0.475000,0.862500,-0.237500,1.100000,0.285000,1.100000,0.357710,1.085537,0.419350,1.044350,0.460537,0.982710,0.475000,0.910000,0.475000,-0.910000,0.460537,-0.982710,0.419350,-1.044350,0.357710,-1.085537,0.285000,-1.100000,-0.285000,-1.100000,-0.357710,-1.085537,-0.419350,-1.044350,-0.460537,-0.982710,-0.475000,-0.910000,-0.475000,0.862500,-0.475000,0.862500,$1*%
G04 Aperture macros list end*
%ADD10C,0.125000*%
%ADD11C,0.150000*%
%ADD12C,0.137500*%
%ADD13C,0.250000*%
%ADD14C,0.127000*%
%ADD15C,0.120000*%
%ADD16C,0.300000*%
%ADD17C,0.500000*%
%ADD18C,2.660000*%
%ADD19C,0.650000*%
%ADD20O,0.650000X0.900000*%
%ADD21R,0.900000X0.300000*%
%ADD22C,0.600000*%
%ADD23O,1.300000X0.800000*%
%ADD24RoundRect,0.135000X-0.135000X-0.185000X0.135000X-0.185000X0.135000X0.185000X-0.135000X0.185000X0*%
%ADD25C,1.000000*%
%ADD26RoundRect,0.150000X-0.150000X0.875000X-0.150000X-0.875000X0.150000X-0.875000X0.150000X0.875000X0*%
%ADD27RoundRect,0.250000X-0.312500X-0.625000X0.312500X-0.625000X0.312500X0.625000X-0.312500X0.625000X0*%
%ADD28RoundRect,0.135000X0.185000X-0.135000X0.185000X0.135000X-0.185000X0.135000X-0.185000X-0.135000X0*%
%ADD29RoundRect,0.200000X0.200000X0.275000X-0.200000X0.275000X-0.200000X-0.275000X0.200000X-0.275000X0*%
%ADD30RoundRect,0.200000X-0.200000X-0.275000X0.200000X-0.275000X0.200000X0.275000X-0.200000X0.275000X0*%
%ADD31RoundRect,0.140000X0.170000X-0.140000X0.170000X0.140000X-0.170000X0.140000X-0.170000X-0.140000X0*%
%ADD32RoundRect,0.250000X-1.500000X-0.250000X1.500000X-0.250000X1.500000X0.250000X-1.500000X0.250000X0*%
%ADD33RoundRect,0.237500X0.237500X-0.262500X0.237500X0.262500X-0.237500X0.262500X-0.237500X-0.262500X0*%
%ADD34FreePoly0,90.000000*%
%ADD35FreePoly1,90.000000*%
%ADD36RoundRect,0.140000X-0.170000X0.140000X-0.170000X-0.140000X0.170000X-0.140000X0.170000X0.140000X0*%
%TA.AperFunction,Profile*%
%ADD37C,0.100000*%
%TD*%
G04 APERTURE END LIST*
D10*
X141011904Y-107822309D02*
X141011904Y-107322309D01*
X141011904Y-107322309D02*
X141130952Y-107322309D01*
X141130952Y-107322309D02*
X141202380Y-107346119D01*
X141202380Y-107346119D02*
X141249999Y-107393738D01*
X141249999Y-107393738D02*
X141273809Y-107441357D01*
X141273809Y-107441357D02*
X141297618Y-107536595D01*
X141297618Y-107536595D02*
X141297618Y-107608023D01*
X141297618Y-107608023D02*
X141273809Y-107703261D01*
X141273809Y-107703261D02*
X141249999Y-107750880D01*
X141249999Y-107750880D02*
X141202380Y-107798500D01*
X141202380Y-107798500D02*
X141130952Y-107822309D01*
X141130952Y-107822309D02*
X141011904Y-107822309D01*
X141511904Y-107822309D02*
X141511904Y-107322309D01*
X141845237Y-107322309D02*
X141940475Y-107322309D01*
X141940475Y-107322309D02*
X141988094Y-107346119D01*
X141988094Y-107346119D02*
X142035713Y-107393738D01*
X142035713Y-107393738D02*
X142059523Y-107488976D01*
X142059523Y-107488976D02*
X142059523Y-107655642D01*
X142059523Y-107655642D02*
X142035713Y-107750880D01*
X142035713Y-107750880D02*
X141988094Y-107798500D01*
X141988094Y-107798500D02*
X141940475Y-107822309D01*
X141940475Y-107822309D02*
X141845237Y-107822309D01*
X141845237Y-107822309D02*
X141797618Y-107798500D01*
X141797618Y-107798500D02*
X141749999Y-107750880D01*
X141749999Y-107750880D02*
X141726190Y-107655642D01*
X141726190Y-107655642D02*
X141726190Y-107488976D01*
X141726190Y-107488976D02*
X141749999Y-107393738D01*
X141749999Y-107393738D02*
X141797618Y-107346119D01*
X141797618Y-107346119D02*
X141845237Y-107322309D01*
X142273809Y-107822309D02*
X142273809Y-107322309D01*
X142273809Y-107322309D02*
X142392857Y-107322309D01*
X142392857Y-107322309D02*
X142464285Y-107346119D01*
X142464285Y-107346119D02*
X142511904Y-107393738D01*
X142511904Y-107393738D02*
X142535714Y-107441357D01*
X142535714Y-107441357D02*
X142559523Y-107536595D01*
X142559523Y-107536595D02*
X142559523Y-107608023D01*
X142559523Y-107608023D02*
X142535714Y-107703261D01*
X142535714Y-107703261D02*
X142511904Y-107750880D01*
X142511904Y-107750880D02*
X142464285Y-107798500D01*
X142464285Y-107798500D02*
X142392857Y-107822309D01*
X142392857Y-107822309D02*
X142273809Y-107822309D01*
X142773809Y-107560404D02*
X142940476Y-107560404D01*
X143011904Y-107822309D02*
X142773809Y-107822309D01*
X142773809Y-107822309D02*
X142773809Y-107322309D01*
X142773809Y-107322309D02*
X143011904Y-107322309D01*
X139928572Y-108127309D02*
X140214286Y-108127309D01*
X140071429Y-108627309D02*
X140071429Y-108127309D01*
X140380952Y-108365404D02*
X140547619Y-108365404D01*
X140619047Y-108627309D02*
X140380952Y-108627309D01*
X140380952Y-108627309D02*
X140380952Y-108127309D01*
X140380952Y-108127309D02*
X140619047Y-108127309D01*
X140809524Y-108603500D02*
X140880952Y-108627309D01*
X140880952Y-108627309D02*
X141000000Y-108627309D01*
X141000000Y-108627309D02*
X141047619Y-108603500D01*
X141047619Y-108603500D02*
X141071428Y-108579690D01*
X141071428Y-108579690D02*
X141095238Y-108532071D01*
X141095238Y-108532071D02*
X141095238Y-108484452D01*
X141095238Y-108484452D02*
X141071428Y-108436833D01*
X141071428Y-108436833D02*
X141047619Y-108413023D01*
X141047619Y-108413023D02*
X141000000Y-108389214D01*
X141000000Y-108389214D02*
X140904762Y-108365404D01*
X140904762Y-108365404D02*
X140857143Y-108341595D01*
X140857143Y-108341595D02*
X140833333Y-108317785D01*
X140833333Y-108317785D02*
X140809524Y-108270166D01*
X140809524Y-108270166D02*
X140809524Y-108222547D01*
X140809524Y-108222547D02*
X140833333Y-108174928D01*
X140833333Y-108174928D02*
X140857143Y-108151119D01*
X140857143Y-108151119D02*
X140904762Y-108127309D01*
X140904762Y-108127309D02*
X141023809Y-108127309D01*
X141023809Y-108127309D02*
X141095238Y-108151119D01*
X141238095Y-108127309D02*
X141523809Y-108127309D01*
X141380952Y-108627309D02*
X141380952Y-108127309D01*
X142071427Y-108627309D02*
X142071427Y-108127309D01*
X142071427Y-108127309D02*
X142261903Y-108127309D01*
X142261903Y-108127309D02*
X142309522Y-108151119D01*
X142309522Y-108151119D02*
X142333332Y-108174928D01*
X142333332Y-108174928D02*
X142357141Y-108222547D01*
X142357141Y-108222547D02*
X142357141Y-108293976D01*
X142357141Y-108293976D02*
X142333332Y-108341595D01*
X142333332Y-108341595D02*
X142309522Y-108365404D01*
X142309522Y-108365404D02*
X142261903Y-108389214D01*
X142261903Y-108389214D02*
X142071427Y-108389214D01*
X142666665Y-108127309D02*
X142761903Y-108127309D01*
X142761903Y-108127309D02*
X142809522Y-108151119D01*
X142809522Y-108151119D02*
X142857141Y-108198738D01*
X142857141Y-108198738D02*
X142880951Y-108293976D01*
X142880951Y-108293976D02*
X142880951Y-108460642D01*
X142880951Y-108460642D02*
X142857141Y-108555880D01*
X142857141Y-108555880D02*
X142809522Y-108603500D01*
X142809522Y-108603500D02*
X142761903Y-108627309D01*
X142761903Y-108627309D02*
X142666665Y-108627309D01*
X142666665Y-108627309D02*
X142619046Y-108603500D01*
X142619046Y-108603500D02*
X142571427Y-108555880D01*
X142571427Y-108555880D02*
X142547618Y-108460642D01*
X142547618Y-108460642D02*
X142547618Y-108293976D01*
X142547618Y-108293976D02*
X142571427Y-108198738D01*
X142571427Y-108198738D02*
X142619046Y-108151119D01*
X142619046Y-108151119D02*
X142666665Y-108127309D01*
X143095237Y-108627309D02*
X143095237Y-108127309D01*
X143333332Y-108627309D02*
X143333332Y-108127309D01*
X143333332Y-108127309D02*
X143619046Y-108627309D01*
X143619046Y-108627309D02*
X143619046Y-108127309D01*
X143785714Y-108127309D02*
X144071428Y-108127309D01*
X143928571Y-108627309D02*
X143928571Y-108127309D01*
X140047620Y-92962904D02*
X139880953Y-92962904D01*
X139880953Y-93224809D02*
X139880953Y-92724809D01*
X139880953Y-92724809D02*
X140119048Y-92724809D01*
X140309524Y-93224809D02*
X140309524Y-92724809D01*
X140785714Y-93224809D02*
X140547619Y-93224809D01*
X140547619Y-93224809D02*
X140547619Y-92724809D01*
X140880953Y-92724809D02*
X141166667Y-92724809D01*
X141023810Y-93224809D02*
X141023810Y-92724809D01*
X141333333Y-92962904D02*
X141500000Y-92962904D01*
X141571428Y-93224809D02*
X141333333Y-93224809D01*
X141333333Y-93224809D02*
X141333333Y-92724809D01*
X141333333Y-92724809D02*
X141571428Y-92724809D01*
X142071428Y-93224809D02*
X141904762Y-92986714D01*
X141785714Y-93224809D02*
X141785714Y-92724809D01*
X141785714Y-92724809D02*
X141976190Y-92724809D01*
X141976190Y-92724809D02*
X142023809Y-92748619D01*
X142023809Y-92748619D02*
X142047619Y-92772428D01*
X142047619Y-92772428D02*
X142071428Y-92820047D01*
X142071428Y-92820047D02*
X142071428Y-92891476D01*
X142071428Y-92891476D02*
X142047619Y-92939095D01*
X142047619Y-92939095D02*
X142023809Y-92962904D01*
X142023809Y-92962904D02*
X141976190Y-92986714D01*
X141976190Y-92986714D02*
X141785714Y-92986714D01*
X142928571Y-92748619D02*
X142880952Y-92724809D01*
X142880952Y-92724809D02*
X142809523Y-92724809D01*
X142809523Y-92724809D02*
X142738095Y-92748619D01*
X142738095Y-92748619D02*
X142690476Y-92796238D01*
X142690476Y-92796238D02*
X142666666Y-92843857D01*
X142666666Y-92843857D02*
X142642857Y-92939095D01*
X142642857Y-92939095D02*
X142642857Y-93010523D01*
X142642857Y-93010523D02*
X142666666Y-93105761D01*
X142666666Y-93105761D02*
X142690476Y-93153380D01*
X142690476Y-93153380D02*
X142738095Y-93201000D01*
X142738095Y-93201000D02*
X142809523Y-93224809D01*
X142809523Y-93224809D02*
X142857142Y-93224809D01*
X142857142Y-93224809D02*
X142928571Y-93201000D01*
X142928571Y-93201000D02*
X142952380Y-93177190D01*
X142952380Y-93177190D02*
X142952380Y-93010523D01*
X142952380Y-93010523D02*
X142857142Y-93010523D01*
X143142857Y-93081952D02*
X143380952Y-93081952D01*
X143095238Y-93224809D02*
X143261904Y-92724809D01*
X143261904Y-92724809D02*
X143428571Y-93224809D01*
X143595237Y-93224809D02*
X143595237Y-92724809D01*
X143833332Y-93224809D02*
X143833332Y-92724809D01*
X143833332Y-92724809D02*
X144119046Y-93224809D01*
X144119046Y-93224809D02*
X144119046Y-92724809D01*
D11*
X138114288Y-92019771D02*
X138114288Y-91419771D01*
X138371431Y-92019771D02*
X138371431Y-91705485D01*
X138371431Y-91705485D02*
X138342859Y-91648342D01*
X138342859Y-91648342D02*
X138285716Y-91619771D01*
X138285716Y-91619771D02*
X138200002Y-91619771D01*
X138200002Y-91619771D02*
X138142859Y-91648342D01*
X138142859Y-91648342D02*
X138114288Y-91676914D01*
X138571430Y-91619771D02*
X138800002Y-91619771D01*
X138657145Y-91419771D02*
X138657145Y-91934057D01*
X138657145Y-91934057D02*
X138685716Y-91991200D01*
X138685716Y-91991200D02*
X138742859Y-92019771D01*
X138742859Y-92019771D02*
X138800002Y-92019771D01*
X138914287Y-91619771D02*
X139142859Y-91619771D01*
X139000002Y-91419771D02*
X139000002Y-91934057D01*
X139000002Y-91934057D02*
X139028573Y-91991200D01*
X139028573Y-91991200D02*
X139085716Y-92019771D01*
X139085716Y-92019771D02*
X139142859Y-92019771D01*
X139342859Y-91619771D02*
X139342859Y-92219771D01*
X139342859Y-91648342D02*
X139400002Y-91619771D01*
X139400002Y-91619771D02*
X139514287Y-91619771D01*
X139514287Y-91619771D02*
X139571430Y-91648342D01*
X139571430Y-91648342D02*
X139600002Y-91676914D01*
X139600002Y-91676914D02*
X139628573Y-91734057D01*
X139628573Y-91734057D02*
X139628573Y-91905485D01*
X139628573Y-91905485D02*
X139600002Y-91962628D01*
X139600002Y-91962628D02*
X139571430Y-91991200D01*
X139571430Y-91991200D02*
X139514287Y-92019771D01*
X139514287Y-92019771D02*
X139400002Y-92019771D01*
X139400002Y-92019771D02*
X139342859Y-91991200D01*
X139857144Y-91991200D02*
X139914287Y-92019771D01*
X139914287Y-92019771D02*
X140028573Y-92019771D01*
X140028573Y-92019771D02*
X140085716Y-91991200D01*
X140085716Y-91991200D02*
X140114287Y-91934057D01*
X140114287Y-91934057D02*
X140114287Y-91905485D01*
X140114287Y-91905485D02*
X140085716Y-91848342D01*
X140085716Y-91848342D02*
X140028573Y-91819771D01*
X140028573Y-91819771D02*
X139942859Y-91819771D01*
X139942859Y-91819771D02*
X139885716Y-91791200D01*
X139885716Y-91791200D02*
X139857144Y-91734057D01*
X139857144Y-91734057D02*
X139857144Y-91705485D01*
X139857144Y-91705485D02*
X139885716Y-91648342D01*
X139885716Y-91648342D02*
X139942859Y-91619771D01*
X139942859Y-91619771D02*
X140028573Y-91619771D01*
X140028573Y-91619771D02*
X140085716Y-91648342D01*
X140371430Y-91962628D02*
X140400001Y-91991200D01*
X140400001Y-91991200D02*
X140371430Y-92019771D01*
X140371430Y-92019771D02*
X140342858Y-91991200D01*
X140342858Y-91991200D02*
X140371430Y-91962628D01*
X140371430Y-91962628D02*
X140371430Y-92019771D01*
X140371430Y-91648342D02*
X140400001Y-91676914D01*
X140400001Y-91676914D02*
X140371430Y-91705485D01*
X140371430Y-91705485D02*
X140342858Y-91676914D01*
X140342858Y-91676914D02*
X140371430Y-91648342D01*
X140371430Y-91648342D02*
X140371430Y-91705485D01*
X141085715Y-91391200D02*
X140571429Y-92162628D01*
X141714286Y-91391200D02*
X141200000Y-92162628D01*
X142171429Y-91619771D02*
X142171429Y-92105485D01*
X142171429Y-92105485D02*
X142142857Y-92162628D01*
X142142857Y-92162628D02*
X142114286Y-92191200D01*
X142114286Y-92191200D02*
X142057143Y-92219771D01*
X142057143Y-92219771D02*
X141971429Y-92219771D01*
X141971429Y-92219771D02*
X141914286Y-92191200D01*
X142171429Y-91991200D02*
X142114286Y-92019771D01*
X142114286Y-92019771D02*
X142000000Y-92019771D01*
X142000000Y-92019771D02*
X141942857Y-91991200D01*
X141942857Y-91991200D02*
X141914286Y-91962628D01*
X141914286Y-91962628D02*
X141885714Y-91905485D01*
X141885714Y-91905485D02*
X141885714Y-91734057D01*
X141885714Y-91734057D02*
X141914286Y-91676914D01*
X141914286Y-91676914D02*
X141942857Y-91648342D01*
X141942857Y-91648342D02*
X142000000Y-91619771D01*
X142000000Y-91619771D02*
X142114286Y-91619771D01*
X142114286Y-91619771D02*
X142171429Y-91648342D01*
X142457143Y-92019771D02*
X142457143Y-91619771D01*
X142457143Y-91419771D02*
X142428571Y-91448342D01*
X142428571Y-91448342D02*
X142457143Y-91476914D01*
X142457143Y-91476914D02*
X142485714Y-91448342D01*
X142485714Y-91448342D02*
X142457143Y-91419771D01*
X142457143Y-91419771D02*
X142457143Y-91476914D01*
X142657142Y-91619771D02*
X142885714Y-91619771D01*
X142742857Y-91419771D02*
X142742857Y-91934057D01*
X142742857Y-91934057D02*
X142771428Y-91991200D01*
X142771428Y-91991200D02*
X142828571Y-92019771D01*
X142828571Y-92019771D02*
X142885714Y-92019771D01*
X143085714Y-92019771D02*
X143085714Y-91419771D01*
X143342857Y-92019771D02*
X143342857Y-91705485D01*
X143342857Y-91705485D02*
X143314285Y-91648342D01*
X143314285Y-91648342D02*
X143257142Y-91619771D01*
X143257142Y-91619771D02*
X143171428Y-91619771D01*
X143171428Y-91619771D02*
X143114285Y-91648342D01*
X143114285Y-91648342D02*
X143085714Y-91676914D01*
X143885714Y-91619771D02*
X143885714Y-92019771D01*
X143628571Y-91619771D02*
X143628571Y-91934057D01*
X143628571Y-91934057D02*
X143657142Y-91991200D01*
X143657142Y-91991200D02*
X143714285Y-92019771D01*
X143714285Y-92019771D02*
X143799999Y-92019771D01*
X143799999Y-92019771D02*
X143857142Y-91991200D01*
X143857142Y-91991200D02*
X143885714Y-91962628D01*
X144171428Y-92019771D02*
X144171428Y-91419771D01*
X144171428Y-91648342D02*
X144228571Y-91619771D01*
X144228571Y-91619771D02*
X144342856Y-91619771D01*
X144342856Y-91619771D02*
X144399999Y-91648342D01*
X144399999Y-91648342D02*
X144428571Y-91676914D01*
X144428571Y-91676914D02*
X144457142Y-91734057D01*
X144457142Y-91734057D02*
X144457142Y-91905485D01*
X144457142Y-91905485D02*
X144428571Y-91962628D01*
X144428571Y-91962628D02*
X144399999Y-91991200D01*
X144399999Y-91991200D02*
X144342856Y-92019771D01*
X144342856Y-92019771D02*
X144228571Y-92019771D01*
X144228571Y-92019771D02*
X144171428Y-91991200D01*
X144714285Y-91962628D02*
X144742856Y-91991200D01*
X144742856Y-91991200D02*
X144714285Y-92019771D01*
X144714285Y-92019771D02*
X144685713Y-91991200D01*
X144685713Y-91991200D02*
X144714285Y-91962628D01*
X144714285Y-91962628D02*
X144714285Y-92019771D01*
X145257142Y-91991200D02*
X145199999Y-92019771D01*
X145199999Y-92019771D02*
X145085713Y-92019771D01*
X145085713Y-92019771D02*
X145028570Y-91991200D01*
X145028570Y-91991200D02*
X144999999Y-91962628D01*
X144999999Y-91962628D02*
X144971427Y-91905485D01*
X144971427Y-91905485D02*
X144971427Y-91734057D01*
X144971427Y-91734057D02*
X144999999Y-91676914D01*
X144999999Y-91676914D02*
X145028570Y-91648342D01*
X145028570Y-91648342D02*
X145085713Y-91619771D01*
X145085713Y-91619771D02*
X145199999Y-91619771D01*
X145199999Y-91619771D02*
X145257142Y-91648342D01*
X145599999Y-92019771D02*
X145542856Y-91991200D01*
X145542856Y-91991200D02*
X145514285Y-91962628D01*
X145514285Y-91962628D02*
X145485713Y-91905485D01*
X145485713Y-91905485D02*
X145485713Y-91734057D01*
X145485713Y-91734057D02*
X145514285Y-91676914D01*
X145514285Y-91676914D02*
X145542856Y-91648342D01*
X145542856Y-91648342D02*
X145599999Y-91619771D01*
X145599999Y-91619771D02*
X145685713Y-91619771D01*
X145685713Y-91619771D02*
X145742856Y-91648342D01*
X145742856Y-91648342D02*
X145771428Y-91676914D01*
X145771428Y-91676914D02*
X145799999Y-91734057D01*
X145799999Y-91734057D02*
X145799999Y-91905485D01*
X145799999Y-91905485D02*
X145771428Y-91962628D01*
X145771428Y-91962628D02*
X145742856Y-91991200D01*
X145742856Y-91991200D02*
X145685713Y-92019771D01*
X145685713Y-92019771D02*
X145599999Y-92019771D01*
X146057142Y-92019771D02*
X146057142Y-91619771D01*
X146057142Y-91676914D02*
X146085713Y-91648342D01*
X146085713Y-91648342D02*
X146142856Y-91619771D01*
X146142856Y-91619771D02*
X146228570Y-91619771D01*
X146228570Y-91619771D02*
X146285713Y-91648342D01*
X146285713Y-91648342D02*
X146314285Y-91705485D01*
X146314285Y-91705485D02*
X146314285Y-92019771D01*
X146314285Y-91705485D02*
X146342856Y-91648342D01*
X146342856Y-91648342D02*
X146399999Y-91619771D01*
X146399999Y-91619771D02*
X146485713Y-91619771D01*
X146485713Y-91619771D02*
X146542856Y-91648342D01*
X146542856Y-91648342D02*
X146571427Y-91705485D01*
X146571427Y-91705485D02*
X146571427Y-92019771D01*
X147285713Y-91391200D02*
X146771427Y-92162628D01*
X147485713Y-91619771D02*
X147485713Y-92219771D01*
X147485713Y-91648342D02*
X147542856Y-91619771D01*
X147542856Y-91619771D02*
X147657141Y-91619771D01*
X147657141Y-91619771D02*
X147714284Y-91648342D01*
X147714284Y-91648342D02*
X147742856Y-91676914D01*
X147742856Y-91676914D02*
X147771427Y-91734057D01*
X147771427Y-91734057D02*
X147771427Y-91905485D01*
X147771427Y-91905485D02*
X147742856Y-91962628D01*
X147742856Y-91962628D02*
X147714284Y-91991200D01*
X147714284Y-91991200D02*
X147657141Y-92019771D01*
X147657141Y-92019771D02*
X147542856Y-92019771D01*
X147542856Y-92019771D02*
X147485713Y-91991200D01*
X148257141Y-91991200D02*
X148199998Y-92019771D01*
X148199998Y-92019771D02*
X148085713Y-92019771D01*
X148085713Y-92019771D02*
X148028570Y-91991200D01*
X148028570Y-91991200D02*
X147999998Y-91934057D01*
X147999998Y-91934057D02*
X147999998Y-91705485D01*
X147999998Y-91705485D02*
X148028570Y-91648342D01*
X148028570Y-91648342D02*
X148085713Y-91619771D01*
X148085713Y-91619771D02*
X148199998Y-91619771D01*
X148199998Y-91619771D02*
X148257141Y-91648342D01*
X148257141Y-91648342D02*
X148285713Y-91705485D01*
X148285713Y-91705485D02*
X148285713Y-91762628D01*
X148285713Y-91762628D02*
X147999998Y-91819771D01*
X148457141Y-91619771D02*
X148685713Y-91619771D01*
X148542856Y-91419771D02*
X148542856Y-91934057D01*
X148542856Y-91934057D02*
X148571427Y-91991200D01*
X148571427Y-91991200D02*
X148628570Y-92019771D01*
X148628570Y-92019771D02*
X148685713Y-92019771D01*
X149114284Y-91991200D02*
X149057141Y-92019771D01*
X149057141Y-92019771D02*
X148942856Y-92019771D01*
X148942856Y-92019771D02*
X148885713Y-91991200D01*
X148885713Y-91991200D02*
X148857141Y-91934057D01*
X148857141Y-91934057D02*
X148857141Y-91705485D01*
X148857141Y-91705485D02*
X148885713Y-91648342D01*
X148885713Y-91648342D02*
X148942856Y-91619771D01*
X148942856Y-91619771D02*
X149057141Y-91619771D01*
X149057141Y-91619771D02*
X149114284Y-91648342D01*
X149114284Y-91648342D02*
X149142856Y-91705485D01*
X149142856Y-91705485D02*
X149142856Y-91762628D01*
X149142856Y-91762628D02*
X148857141Y-91819771D01*
X149399999Y-92019771D02*
X149399999Y-91619771D01*
X149399999Y-91734057D02*
X149428570Y-91676914D01*
X149428570Y-91676914D02*
X149457142Y-91648342D01*
X149457142Y-91648342D02*
X149514284Y-91619771D01*
X149514284Y-91619771D02*
X149571427Y-91619771D01*
X149771428Y-91619771D02*
X149771428Y-92219771D01*
X149771428Y-91648342D02*
X149828571Y-91619771D01*
X149828571Y-91619771D02*
X149942856Y-91619771D01*
X149942856Y-91619771D02*
X149999999Y-91648342D01*
X149999999Y-91648342D02*
X150028571Y-91676914D01*
X150028571Y-91676914D02*
X150057142Y-91734057D01*
X150057142Y-91734057D02*
X150057142Y-91905485D01*
X150057142Y-91905485D02*
X150028571Y-91962628D01*
X150028571Y-91962628D02*
X149999999Y-91991200D01*
X149999999Y-91991200D02*
X149942856Y-92019771D01*
X149942856Y-92019771D02*
X149828571Y-92019771D01*
X149828571Y-92019771D02*
X149771428Y-91991200D01*
X150399999Y-92019771D02*
X150342856Y-91991200D01*
X150342856Y-91991200D02*
X150314285Y-91962628D01*
X150314285Y-91962628D02*
X150285713Y-91905485D01*
X150285713Y-91905485D02*
X150285713Y-91734057D01*
X150285713Y-91734057D02*
X150314285Y-91676914D01*
X150314285Y-91676914D02*
X150342856Y-91648342D01*
X150342856Y-91648342D02*
X150399999Y-91619771D01*
X150399999Y-91619771D02*
X150485713Y-91619771D01*
X150485713Y-91619771D02*
X150542856Y-91648342D01*
X150542856Y-91648342D02*
X150571428Y-91676914D01*
X150571428Y-91676914D02*
X150599999Y-91734057D01*
X150599999Y-91734057D02*
X150599999Y-91905485D01*
X150599999Y-91905485D02*
X150571428Y-91962628D01*
X150571428Y-91962628D02*
X150542856Y-91991200D01*
X150542856Y-91991200D02*
X150485713Y-92019771D01*
X150485713Y-92019771D02*
X150399999Y-92019771D01*
X150942856Y-92019771D02*
X150885713Y-91991200D01*
X150885713Y-91991200D02*
X150857142Y-91934057D01*
X150857142Y-91934057D02*
X150857142Y-91419771D01*
X151171428Y-92019771D02*
X151171428Y-91619771D01*
X151171428Y-91419771D02*
X151142856Y-91448342D01*
X151142856Y-91448342D02*
X151171428Y-91476914D01*
X151171428Y-91476914D02*
X151199999Y-91448342D01*
X151199999Y-91448342D02*
X151171428Y-91419771D01*
X151171428Y-91419771D02*
X151171428Y-91476914D01*
X151714285Y-92019771D02*
X151714285Y-91419771D01*
X151714285Y-91991200D02*
X151657142Y-92019771D01*
X151657142Y-92019771D02*
X151542856Y-92019771D01*
X151542856Y-92019771D02*
X151485713Y-91991200D01*
X151485713Y-91991200D02*
X151457142Y-91962628D01*
X151457142Y-91962628D02*
X151428570Y-91905485D01*
X151428570Y-91905485D02*
X151428570Y-91734057D01*
X151428570Y-91734057D02*
X151457142Y-91676914D01*
X151457142Y-91676914D02*
X151485713Y-91648342D01*
X151485713Y-91648342D02*
X151542856Y-91619771D01*
X151542856Y-91619771D02*
X151657142Y-91619771D01*
X151657142Y-91619771D02*
X151714285Y-91648342D01*
X152085713Y-92019771D02*
X152028570Y-91991200D01*
X152028570Y-91991200D02*
X151999999Y-91962628D01*
X151999999Y-91962628D02*
X151971427Y-91905485D01*
X151971427Y-91905485D02*
X151971427Y-91734057D01*
X151971427Y-91734057D02*
X151999999Y-91676914D01*
X151999999Y-91676914D02*
X152028570Y-91648342D01*
X152028570Y-91648342D02*
X152085713Y-91619771D01*
X152085713Y-91619771D02*
X152171427Y-91619771D01*
X152171427Y-91619771D02*
X152228570Y-91648342D01*
X152228570Y-91648342D02*
X152257142Y-91676914D01*
X152257142Y-91676914D02*
X152285713Y-91734057D01*
X152285713Y-91734057D02*
X152285713Y-91905485D01*
X152285713Y-91905485D02*
X152257142Y-91962628D01*
X152257142Y-91962628D02*
X152228570Y-91991200D01*
X152228570Y-91991200D02*
X152171427Y-92019771D01*
X152171427Y-92019771D02*
X152085713Y-92019771D01*
X152542856Y-92019771D02*
X152542856Y-91619771D01*
X152542856Y-91734057D02*
X152571427Y-91676914D01*
X152571427Y-91676914D02*
X152599999Y-91648342D01*
X152599999Y-91648342D02*
X152657141Y-91619771D01*
X152657141Y-91619771D02*
X152714284Y-91619771D01*
X152999999Y-92019771D02*
X152942856Y-91991200D01*
X152942856Y-91991200D02*
X152914285Y-91962628D01*
X152914285Y-91962628D02*
X152885713Y-91905485D01*
X152885713Y-91905485D02*
X152885713Y-91734057D01*
X152885713Y-91734057D02*
X152914285Y-91676914D01*
X152914285Y-91676914D02*
X152942856Y-91648342D01*
X152942856Y-91648342D02*
X152999999Y-91619771D01*
X152999999Y-91619771D02*
X153085713Y-91619771D01*
X153085713Y-91619771D02*
X153142856Y-91648342D01*
X153142856Y-91648342D02*
X153171428Y-91676914D01*
X153171428Y-91676914D02*
X153199999Y-91734057D01*
X153199999Y-91734057D02*
X153199999Y-91905485D01*
X153199999Y-91905485D02*
X153171428Y-91962628D01*
X153171428Y-91962628D02*
X153142856Y-91991200D01*
X153142856Y-91991200D02*
X153085713Y-92019771D01*
X153085713Y-92019771D02*
X152999999Y-92019771D01*
X153885713Y-91391200D02*
X153371427Y-92162628D01*
X154028570Y-91619771D02*
X154142856Y-92019771D01*
X154142856Y-92019771D02*
X154257141Y-91734057D01*
X154257141Y-91734057D02*
X154371427Y-92019771D01*
X154371427Y-92019771D02*
X154485713Y-91619771D01*
X154714284Y-92019771D02*
X154714284Y-91619771D01*
X154714284Y-91419771D02*
X154685712Y-91448342D01*
X154685712Y-91448342D02*
X154714284Y-91476914D01*
X154714284Y-91476914D02*
X154742855Y-91448342D01*
X154742855Y-91448342D02*
X154714284Y-91419771D01*
X154714284Y-91419771D02*
X154714284Y-91476914D01*
X154999998Y-91619771D02*
X154999998Y-92019771D01*
X154999998Y-91676914D02*
X155028569Y-91648342D01*
X155028569Y-91648342D02*
X155085712Y-91619771D01*
X155085712Y-91619771D02*
X155171426Y-91619771D01*
X155171426Y-91619771D02*
X155228569Y-91648342D01*
X155228569Y-91648342D02*
X155257141Y-91705485D01*
X155257141Y-91705485D02*
X155257141Y-92019771D01*
X155799998Y-91619771D02*
X155799998Y-92105485D01*
X155799998Y-92105485D02*
X155771426Y-92162628D01*
X155771426Y-92162628D02*
X155742855Y-92191200D01*
X155742855Y-92191200D02*
X155685712Y-92219771D01*
X155685712Y-92219771D02*
X155599998Y-92219771D01*
X155599998Y-92219771D02*
X155542855Y-92191200D01*
X155799998Y-91991200D02*
X155742855Y-92019771D01*
X155742855Y-92019771D02*
X155628569Y-92019771D01*
X155628569Y-92019771D02*
X155571426Y-91991200D01*
X155571426Y-91991200D02*
X155542855Y-91962628D01*
X155542855Y-91962628D02*
X155514283Y-91905485D01*
X155514283Y-91905485D02*
X155514283Y-91734057D01*
X155514283Y-91734057D02*
X155542855Y-91676914D01*
X155542855Y-91676914D02*
X155571426Y-91648342D01*
X155571426Y-91648342D02*
X155628569Y-91619771D01*
X155628569Y-91619771D02*
X155742855Y-91619771D01*
X155742855Y-91619771D02*
X155799998Y-91648342D01*
X156085712Y-92019771D02*
X156085712Y-91419771D01*
X156085712Y-91648342D02*
X156142855Y-91619771D01*
X156142855Y-91619771D02*
X156257140Y-91619771D01*
X156257140Y-91619771D02*
X156314283Y-91648342D01*
X156314283Y-91648342D02*
X156342855Y-91676914D01*
X156342855Y-91676914D02*
X156371426Y-91734057D01*
X156371426Y-91734057D02*
X156371426Y-91905485D01*
X156371426Y-91905485D02*
X156342855Y-91962628D01*
X156342855Y-91962628D02*
X156314283Y-91991200D01*
X156314283Y-91991200D02*
X156257140Y-92019771D01*
X156257140Y-92019771D02*
X156142855Y-92019771D01*
X156142855Y-92019771D02*
X156085712Y-91991200D01*
X156857140Y-91991200D02*
X156799997Y-92019771D01*
X156799997Y-92019771D02*
X156685712Y-92019771D01*
X156685712Y-92019771D02*
X156628569Y-91991200D01*
X156628569Y-91991200D02*
X156599997Y-91934057D01*
X156599997Y-91934057D02*
X156599997Y-91705485D01*
X156599997Y-91705485D02*
X156628569Y-91648342D01*
X156628569Y-91648342D02*
X156685712Y-91619771D01*
X156685712Y-91619771D02*
X156799997Y-91619771D01*
X156799997Y-91619771D02*
X156857140Y-91648342D01*
X156857140Y-91648342D02*
X156885712Y-91705485D01*
X156885712Y-91705485D02*
X156885712Y-91762628D01*
X156885712Y-91762628D02*
X156599997Y-91819771D01*
X157399998Y-92019771D02*
X157399998Y-91705485D01*
X157399998Y-91705485D02*
X157371426Y-91648342D01*
X157371426Y-91648342D02*
X157314283Y-91619771D01*
X157314283Y-91619771D02*
X157199998Y-91619771D01*
X157199998Y-91619771D02*
X157142855Y-91648342D01*
X157399998Y-91991200D02*
X157342855Y-92019771D01*
X157342855Y-92019771D02*
X157199998Y-92019771D01*
X157199998Y-92019771D02*
X157142855Y-91991200D01*
X157142855Y-91991200D02*
X157114283Y-91934057D01*
X157114283Y-91934057D02*
X157114283Y-91876914D01*
X157114283Y-91876914D02*
X157142855Y-91819771D01*
X157142855Y-91819771D02*
X157199998Y-91791200D01*
X157199998Y-91791200D02*
X157342855Y-91791200D01*
X157342855Y-91791200D02*
X157399998Y-91762628D01*
X157599997Y-91619771D02*
X157828569Y-91619771D01*
X157685712Y-91419771D02*
X157685712Y-91934057D01*
X157685712Y-91934057D02*
X157714283Y-91991200D01*
X157714283Y-91991200D02*
X157771426Y-92019771D01*
X157771426Y-92019771D02*
X157828569Y-92019771D01*
X157885712Y-92076914D02*
X158342854Y-92076914D01*
X158742855Y-92019771D02*
X158742855Y-91419771D01*
X158742855Y-91991200D02*
X158685712Y-92019771D01*
X158685712Y-92019771D02*
X158571426Y-92019771D01*
X158571426Y-92019771D02*
X158514283Y-91991200D01*
X158514283Y-91991200D02*
X158485712Y-91962628D01*
X158485712Y-91962628D02*
X158457140Y-91905485D01*
X158457140Y-91905485D02*
X158457140Y-91734057D01*
X158457140Y-91734057D02*
X158485712Y-91676914D01*
X158485712Y-91676914D02*
X158514283Y-91648342D01*
X158514283Y-91648342D02*
X158571426Y-91619771D01*
X158571426Y-91619771D02*
X158685712Y-91619771D01*
X158685712Y-91619771D02*
X158742855Y-91648342D01*
X159257140Y-91991200D02*
X159199997Y-92019771D01*
X159199997Y-92019771D02*
X159085712Y-92019771D01*
X159085712Y-92019771D02*
X159028569Y-91991200D01*
X159028569Y-91991200D02*
X158999997Y-91934057D01*
X158999997Y-91934057D02*
X158999997Y-91705485D01*
X158999997Y-91705485D02*
X159028569Y-91648342D01*
X159028569Y-91648342D02*
X159085712Y-91619771D01*
X159085712Y-91619771D02*
X159199997Y-91619771D01*
X159199997Y-91619771D02*
X159257140Y-91648342D01*
X159257140Y-91648342D02*
X159285712Y-91705485D01*
X159285712Y-91705485D02*
X159285712Y-91762628D01*
X159285712Y-91762628D02*
X158999997Y-91819771D01*
X159457140Y-91619771D02*
X159685712Y-91619771D01*
X159542855Y-91419771D02*
X159542855Y-91934057D01*
X159542855Y-91934057D02*
X159571426Y-91991200D01*
X159571426Y-91991200D02*
X159628569Y-92019771D01*
X159628569Y-92019771D02*
X159685712Y-92019771D01*
X160114283Y-91991200D02*
X160057140Y-92019771D01*
X160057140Y-92019771D02*
X159942855Y-92019771D01*
X159942855Y-92019771D02*
X159885712Y-91991200D01*
X159885712Y-91991200D02*
X159857140Y-91934057D01*
X159857140Y-91934057D02*
X159857140Y-91705485D01*
X159857140Y-91705485D02*
X159885712Y-91648342D01*
X159885712Y-91648342D02*
X159942855Y-91619771D01*
X159942855Y-91619771D02*
X160057140Y-91619771D01*
X160057140Y-91619771D02*
X160114283Y-91648342D01*
X160114283Y-91648342D02*
X160142855Y-91705485D01*
X160142855Y-91705485D02*
X160142855Y-91762628D01*
X160142855Y-91762628D02*
X159857140Y-91819771D01*
X160657141Y-91991200D02*
X160599998Y-92019771D01*
X160599998Y-92019771D02*
X160485712Y-92019771D01*
X160485712Y-92019771D02*
X160428569Y-91991200D01*
X160428569Y-91991200D02*
X160399998Y-91962628D01*
X160399998Y-91962628D02*
X160371426Y-91905485D01*
X160371426Y-91905485D02*
X160371426Y-91734057D01*
X160371426Y-91734057D02*
X160399998Y-91676914D01*
X160399998Y-91676914D02*
X160428569Y-91648342D01*
X160428569Y-91648342D02*
X160485712Y-91619771D01*
X160485712Y-91619771D02*
X160599998Y-91619771D01*
X160599998Y-91619771D02*
X160657141Y-91648342D01*
X160828569Y-91619771D02*
X161057141Y-91619771D01*
X160914284Y-91419771D02*
X160914284Y-91934057D01*
X160914284Y-91934057D02*
X160942855Y-91991200D01*
X160942855Y-91991200D02*
X160999998Y-92019771D01*
X160999998Y-92019771D02*
X161057141Y-92019771D01*
X161342855Y-92019771D02*
X161285712Y-91991200D01*
X161285712Y-91991200D02*
X161257141Y-91962628D01*
X161257141Y-91962628D02*
X161228569Y-91905485D01*
X161228569Y-91905485D02*
X161228569Y-91734057D01*
X161228569Y-91734057D02*
X161257141Y-91676914D01*
X161257141Y-91676914D02*
X161285712Y-91648342D01*
X161285712Y-91648342D02*
X161342855Y-91619771D01*
X161342855Y-91619771D02*
X161428569Y-91619771D01*
X161428569Y-91619771D02*
X161485712Y-91648342D01*
X161485712Y-91648342D02*
X161514284Y-91676914D01*
X161514284Y-91676914D02*
X161542855Y-91734057D01*
X161542855Y-91734057D02*
X161542855Y-91905485D01*
X161542855Y-91905485D02*
X161514284Y-91962628D01*
X161514284Y-91962628D02*
X161485712Y-91991200D01*
X161485712Y-91991200D02*
X161428569Y-92019771D01*
X161428569Y-92019771D02*
X161342855Y-92019771D01*
X161799998Y-92019771D02*
X161799998Y-91619771D01*
X161799998Y-91734057D02*
X161828569Y-91676914D01*
X161828569Y-91676914D02*
X161857141Y-91648342D01*
X161857141Y-91648342D02*
X161914283Y-91619771D01*
X161914283Y-91619771D02*
X161971426Y-91619771D01*
D12*
X154872618Y-105995123D02*
X154977380Y-106361790D01*
X154977380Y-106361790D02*
X155082142Y-106099885D01*
X155082142Y-106099885D02*
X155186904Y-106361790D01*
X155186904Y-106361790D02*
X155291666Y-105995123D01*
X155501189Y-106361790D02*
X155501189Y-105995123D01*
X155501189Y-105811790D02*
X155474998Y-105837980D01*
X155474998Y-105837980D02*
X155501189Y-105864171D01*
X155501189Y-105864171D02*
X155527379Y-105837980D01*
X155527379Y-105837980D02*
X155501189Y-105811790D01*
X155501189Y-105811790D02*
X155501189Y-105864171D01*
X155763094Y-105995123D02*
X155763094Y-106361790D01*
X155763094Y-106047504D02*
X155789284Y-106021314D01*
X155789284Y-106021314D02*
X155841665Y-105995123D01*
X155841665Y-105995123D02*
X155920237Y-105995123D01*
X155920237Y-105995123D02*
X155972618Y-106021314D01*
X155972618Y-106021314D02*
X155998808Y-106073695D01*
X155998808Y-106073695D02*
X155998808Y-106361790D01*
X156496427Y-105995123D02*
X156496427Y-106440361D01*
X156496427Y-106440361D02*
X156470237Y-106492742D01*
X156470237Y-106492742D02*
X156444046Y-106518933D01*
X156444046Y-106518933D02*
X156391665Y-106545123D01*
X156391665Y-106545123D02*
X156313094Y-106545123D01*
X156313094Y-106545123D02*
X156260713Y-106518933D01*
X156496427Y-106335600D02*
X156444046Y-106361790D01*
X156444046Y-106361790D02*
X156339284Y-106361790D01*
X156339284Y-106361790D02*
X156286903Y-106335600D01*
X156286903Y-106335600D02*
X156260713Y-106309409D01*
X156260713Y-106309409D02*
X156234522Y-106257028D01*
X156234522Y-106257028D02*
X156234522Y-106099885D01*
X156234522Y-106099885D02*
X156260713Y-106047504D01*
X156260713Y-106047504D02*
X156286903Y-106021314D01*
X156286903Y-106021314D02*
X156339284Y-105995123D01*
X156339284Y-105995123D02*
X156444046Y-105995123D01*
X156444046Y-105995123D02*
X156496427Y-106021314D01*
X156758332Y-106361790D02*
X156758332Y-105811790D01*
X156758332Y-106021314D02*
X156810713Y-105995123D01*
X156810713Y-105995123D02*
X156915475Y-105995123D01*
X156915475Y-105995123D02*
X156967856Y-106021314D01*
X156967856Y-106021314D02*
X156994046Y-106047504D01*
X156994046Y-106047504D02*
X157020237Y-106099885D01*
X157020237Y-106099885D02*
X157020237Y-106257028D01*
X157020237Y-106257028D02*
X156994046Y-106309409D01*
X156994046Y-106309409D02*
X156967856Y-106335600D01*
X156967856Y-106335600D02*
X156915475Y-106361790D01*
X156915475Y-106361790D02*
X156810713Y-106361790D01*
X156810713Y-106361790D02*
X156758332Y-106335600D01*
X157465475Y-106335600D02*
X157413094Y-106361790D01*
X157413094Y-106361790D02*
X157308332Y-106361790D01*
X157308332Y-106361790D02*
X157255951Y-106335600D01*
X157255951Y-106335600D02*
X157229760Y-106283219D01*
X157229760Y-106283219D02*
X157229760Y-106073695D01*
X157229760Y-106073695D02*
X157255951Y-106021314D01*
X157255951Y-106021314D02*
X157308332Y-105995123D01*
X157308332Y-105995123D02*
X157413094Y-105995123D01*
X157413094Y-105995123D02*
X157465475Y-106021314D01*
X157465475Y-106021314D02*
X157491665Y-106073695D01*
X157491665Y-106073695D02*
X157491665Y-106126076D01*
X157491665Y-106126076D02*
X157229760Y-106178457D01*
X157963094Y-106361790D02*
X157963094Y-106073695D01*
X157963094Y-106073695D02*
X157936904Y-106021314D01*
X157936904Y-106021314D02*
X157884523Y-105995123D01*
X157884523Y-105995123D02*
X157779761Y-105995123D01*
X157779761Y-105995123D02*
X157727380Y-106021314D01*
X157963094Y-106335600D02*
X157910713Y-106361790D01*
X157910713Y-106361790D02*
X157779761Y-106361790D01*
X157779761Y-106361790D02*
X157727380Y-106335600D01*
X157727380Y-106335600D02*
X157701189Y-106283219D01*
X157701189Y-106283219D02*
X157701189Y-106230838D01*
X157701189Y-106230838D02*
X157727380Y-106178457D01*
X157727380Y-106178457D02*
X157779761Y-106152266D01*
X157779761Y-106152266D02*
X157910713Y-106152266D01*
X157910713Y-106152266D02*
X157963094Y-106126076D01*
X158146427Y-105995123D02*
X158355951Y-105995123D01*
X158224999Y-105811790D02*
X158224999Y-106283219D01*
X158224999Y-106283219D02*
X158251189Y-106335600D01*
X158251189Y-106335600D02*
X158303570Y-106361790D01*
X158303570Y-106361790D02*
X158355951Y-106361790D01*
X159194047Y-106361790D02*
X159194047Y-105811790D01*
X159194047Y-106335600D02*
X159141666Y-106361790D01*
X159141666Y-106361790D02*
X159036904Y-106361790D01*
X159036904Y-106361790D02*
X158984523Y-106335600D01*
X158984523Y-106335600D02*
X158958333Y-106309409D01*
X158958333Y-106309409D02*
X158932142Y-106257028D01*
X158932142Y-106257028D02*
X158932142Y-106099885D01*
X158932142Y-106099885D02*
X158958333Y-106047504D01*
X158958333Y-106047504D02*
X158984523Y-106021314D01*
X158984523Y-106021314D02*
X159036904Y-105995123D01*
X159036904Y-105995123D02*
X159141666Y-105995123D01*
X159141666Y-105995123D02*
X159194047Y-106021314D01*
X159665476Y-106335600D02*
X159613095Y-106361790D01*
X159613095Y-106361790D02*
X159508333Y-106361790D01*
X159508333Y-106361790D02*
X159455952Y-106335600D01*
X159455952Y-106335600D02*
X159429761Y-106283219D01*
X159429761Y-106283219D02*
X159429761Y-106073695D01*
X159429761Y-106073695D02*
X159455952Y-106021314D01*
X159455952Y-106021314D02*
X159508333Y-105995123D01*
X159508333Y-105995123D02*
X159613095Y-105995123D01*
X159613095Y-105995123D02*
X159665476Y-106021314D01*
X159665476Y-106021314D02*
X159691666Y-106073695D01*
X159691666Y-106073695D02*
X159691666Y-106126076D01*
X159691666Y-106126076D02*
X159429761Y-106178457D01*
X159848809Y-105995123D02*
X160058333Y-105995123D01*
X159927381Y-105811790D02*
X159927381Y-106283219D01*
X159927381Y-106283219D02*
X159953571Y-106335600D01*
X159953571Y-106335600D02*
X160005952Y-106361790D01*
X160005952Y-106361790D02*
X160058333Y-106361790D01*
X160451191Y-106335600D02*
X160398810Y-106361790D01*
X160398810Y-106361790D02*
X160294048Y-106361790D01*
X160294048Y-106361790D02*
X160241667Y-106335600D01*
X160241667Y-106335600D02*
X160215476Y-106283219D01*
X160215476Y-106283219D02*
X160215476Y-106073695D01*
X160215476Y-106073695D02*
X160241667Y-106021314D01*
X160241667Y-106021314D02*
X160294048Y-105995123D01*
X160294048Y-105995123D02*
X160398810Y-105995123D01*
X160398810Y-105995123D02*
X160451191Y-106021314D01*
X160451191Y-106021314D02*
X160477381Y-106073695D01*
X160477381Y-106073695D02*
X160477381Y-106126076D01*
X160477381Y-106126076D02*
X160215476Y-106178457D01*
X160948810Y-106335600D02*
X160896429Y-106361790D01*
X160896429Y-106361790D02*
X160791667Y-106361790D01*
X160791667Y-106361790D02*
X160739286Y-106335600D01*
X160739286Y-106335600D02*
X160713096Y-106309409D01*
X160713096Y-106309409D02*
X160686905Y-106257028D01*
X160686905Y-106257028D02*
X160686905Y-106099885D01*
X160686905Y-106099885D02*
X160713096Y-106047504D01*
X160713096Y-106047504D02*
X160739286Y-106021314D01*
X160739286Y-106021314D02*
X160791667Y-105995123D01*
X160791667Y-105995123D02*
X160896429Y-105995123D01*
X160896429Y-105995123D02*
X160948810Y-106021314D01*
X161105953Y-105995123D02*
X161315477Y-105995123D01*
X161184525Y-105811790D02*
X161184525Y-106283219D01*
X161184525Y-106283219D02*
X161210715Y-106335600D01*
X161210715Y-106335600D02*
X161263096Y-106361790D01*
X161263096Y-106361790D02*
X161315477Y-106361790D01*
X161577382Y-106361790D02*
X161525001Y-106335600D01*
X161525001Y-106335600D02*
X161498811Y-106309409D01*
X161498811Y-106309409D02*
X161472620Y-106257028D01*
X161472620Y-106257028D02*
X161472620Y-106099885D01*
X161472620Y-106099885D02*
X161498811Y-106047504D01*
X161498811Y-106047504D02*
X161525001Y-106021314D01*
X161525001Y-106021314D02*
X161577382Y-105995123D01*
X161577382Y-105995123D02*
X161655954Y-105995123D01*
X161655954Y-105995123D02*
X161708335Y-106021314D01*
X161708335Y-106021314D02*
X161734525Y-106047504D01*
X161734525Y-106047504D02*
X161760716Y-106099885D01*
X161760716Y-106099885D02*
X161760716Y-106257028D01*
X161760716Y-106257028D02*
X161734525Y-106309409D01*
X161734525Y-106309409D02*
X161708335Y-106335600D01*
X161708335Y-106335600D02*
X161655954Y-106361790D01*
X161655954Y-106361790D02*
X161577382Y-106361790D01*
X161996430Y-106361790D02*
X161996430Y-105995123D01*
X161996430Y-106099885D02*
X162022620Y-106047504D01*
X162022620Y-106047504D02*
X162048811Y-106021314D01*
X162048811Y-106021314D02*
X162101192Y-105995123D01*
X162101192Y-105995123D02*
X162153573Y-105995123D01*
X155645236Y-106880623D02*
X155776188Y-107247290D01*
X155776188Y-107247290D02*
X155907141Y-106880623D01*
X156352379Y-106880623D02*
X156352379Y-107247290D01*
X156221427Y-106671100D02*
X156090474Y-107063957D01*
X156090474Y-107063957D02*
X156430951Y-107063957D01*
X156640475Y-107194909D02*
X156666665Y-107221100D01*
X156666665Y-107221100D02*
X156640475Y-107247290D01*
X156640475Y-107247290D02*
X156614284Y-107221100D01*
X156614284Y-107221100D02*
X156640475Y-107194909D01*
X156640475Y-107194909D02*
X156640475Y-107247290D01*
X157007142Y-106697290D02*
X157059523Y-106697290D01*
X157059523Y-106697290D02*
X157111904Y-106723480D01*
X157111904Y-106723480D02*
X157138094Y-106749671D01*
X157138094Y-106749671D02*
X157164285Y-106802052D01*
X157164285Y-106802052D02*
X157190475Y-106906814D01*
X157190475Y-106906814D02*
X157190475Y-107037766D01*
X157190475Y-107037766D02*
X157164285Y-107142528D01*
X157164285Y-107142528D02*
X157138094Y-107194909D01*
X157138094Y-107194909D02*
X157111904Y-107221100D01*
X157111904Y-107221100D02*
X157059523Y-107247290D01*
X157059523Y-107247290D02*
X157007142Y-107247290D01*
X157007142Y-107247290D02*
X156954761Y-107221100D01*
X156954761Y-107221100D02*
X156928570Y-107194909D01*
X156928570Y-107194909D02*
X156902380Y-107142528D01*
X156902380Y-107142528D02*
X156876189Y-107037766D01*
X156876189Y-107037766D02*
X156876189Y-106906814D01*
X156876189Y-106906814D02*
X156902380Y-106802052D01*
X156902380Y-106802052D02*
X156928570Y-106749671D01*
X156928570Y-106749671D02*
X156954761Y-106723480D01*
X156954761Y-106723480D02*
X157007142Y-106697290D01*
X158133333Y-107247290D02*
X157819047Y-107247290D01*
X157976190Y-107247290D02*
X157976190Y-106697290D01*
X157976190Y-106697290D02*
X157923809Y-106775861D01*
X157923809Y-106775861D02*
X157871428Y-106828242D01*
X157871428Y-106828242D02*
X157819047Y-106854433D01*
X158342857Y-106749671D02*
X158369048Y-106723480D01*
X158369048Y-106723480D02*
X158421429Y-106697290D01*
X158421429Y-106697290D02*
X158552381Y-106697290D01*
X158552381Y-106697290D02*
X158604762Y-106723480D01*
X158604762Y-106723480D02*
X158630953Y-106749671D01*
X158630953Y-106749671D02*
X158657143Y-106802052D01*
X158657143Y-106802052D02*
X158657143Y-106854433D01*
X158657143Y-106854433D02*
X158630953Y-106933004D01*
X158630953Y-106933004D02*
X158316667Y-107247290D01*
X158316667Y-107247290D02*
X158657143Y-107247290D01*
X159285715Y-106671100D02*
X158814286Y-107378242D01*
X159442857Y-106749671D02*
X159469048Y-106723480D01*
X159469048Y-106723480D02*
X159521429Y-106697290D01*
X159521429Y-106697290D02*
X159652381Y-106697290D01*
X159652381Y-106697290D02*
X159704762Y-106723480D01*
X159704762Y-106723480D02*
X159730953Y-106749671D01*
X159730953Y-106749671D02*
X159757143Y-106802052D01*
X159757143Y-106802052D02*
X159757143Y-106854433D01*
X159757143Y-106854433D02*
X159730953Y-106933004D01*
X159730953Y-106933004D02*
X159416667Y-107247290D01*
X159416667Y-107247290D02*
X159757143Y-107247290D01*
X160097620Y-106697290D02*
X160150001Y-106697290D01*
X160150001Y-106697290D02*
X160202382Y-106723480D01*
X160202382Y-106723480D02*
X160228572Y-106749671D01*
X160228572Y-106749671D02*
X160254763Y-106802052D01*
X160254763Y-106802052D02*
X160280953Y-106906814D01*
X160280953Y-106906814D02*
X160280953Y-107037766D01*
X160280953Y-107037766D02*
X160254763Y-107142528D01*
X160254763Y-107142528D02*
X160228572Y-107194909D01*
X160228572Y-107194909D02*
X160202382Y-107221100D01*
X160202382Y-107221100D02*
X160150001Y-107247290D01*
X160150001Y-107247290D02*
X160097620Y-107247290D01*
X160097620Y-107247290D02*
X160045239Y-107221100D01*
X160045239Y-107221100D02*
X160019048Y-107194909D01*
X160019048Y-107194909D02*
X159992858Y-107142528D01*
X159992858Y-107142528D02*
X159966667Y-107037766D01*
X159966667Y-107037766D02*
X159966667Y-106906814D01*
X159966667Y-106906814D02*
X159992858Y-106802052D01*
X159992858Y-106802052D02*
X160019048Y-106749671D01*
X160019048Y-106749671D02*
X160045239Y-106723480D01*
X160045239Y-106723480D02*
X160097620Y-106697290D01*
X160490477Y-106749671D02*
X160516668Y-106723480D01*
X160516668Y-106723480D02*
X160569049Y-106697290D01*
X160569049Y-106697290D02*
X160700001Y-106697290D01*
X160700001Y-106697290D02*
X160752382Y-106723480D01*
X160752382Y-106723480D02*
X160778573Y-106749671D01*
X160778573Y-106749671D02*
X160804763Y-106802052D01*
X160804763Y-106802052D02*
X160804763Y-106854433D01*
X160804763Y-106854433D02*
X160778573Y-106933004D01*
X160778573Y-106933004D02*
X160464287Y-107247290D01*
X160464287Y-107247290D02*
X160804763Y-107247290D01*
X160988097Y-106697290D02*
X161328573Y-106697290D01*
X161328573Y-106697290D02*
X161145240Y-106906814D01*
X161145240Y-106906814D02*
X161223811Y-106906814D01*
X161223811Y-106906814D02*
X161276192Y-106933004D01*
X161276192Y-106933004D02*
X161302383Y-106959195D01*
X161302383Y-106959195D02*
X161328573Y-107011576D01*
X161328573Y-107011576D02*
X161328573Y-107142528D01*
X161328573Y-107142528D02*
X161302383Y-107194909D01*
X161302383Y-107194909D02*
X161276192Y-107221100D01*
X161276192Y-107221100D02*
X161223811Y-107247290D01*
X161223811Y-107247290D02*
X161066668Y-107247290D01*
X161066668Y-107247290D02*
X161014287Y-107221100D01*
X161014287Y-107221100D02*
X160988097Y-107194909D01*
X155029761Y-107766123D02*
X155029761Y-108316123D01*
X155029761Y-107792314D02*
X155082142Y-107766123D01*
X155082142Y-107766123D02*
X155186904Y-107766123D01*
X155186904Y-107766123D02*
X155239285Y-107792314D01*
X155239285Y-107792314D02*
X155265475Y-107818504D01*
X155265475Y-107818504D02*
X155291666Y-107870885D01*
X155291666Y-107870885D02*
X155291666Y-108028028D01*
X155291666Y-108028028D02*
X155265475Y-108080409D01*
X155265475Y-108080409D02*
X155239285Y-108106600D01*
X155239285Y-108106600D02*
X155186904Y-108132790D01*
X155186904Y-108132790D02*
X155082142Y-108132790D01*
X155082142Y-108132790D02*
X155029761Y-108106600D01*
X155736904Y-108106600D02*
X155684523Y-108132790D01*
X155684523Y-108132790D02*
X155579761Y-108132790D01*
X155579761Y-108132790D02*
X155527380Y-108106600D01*
X155527380Y-108106600D02*
X155501189Y-108054219D01*
X155501189Y-108054219D02*
X155501189Y-107844695D01*
X155501189Y-107844695D02*
X155527380Y-107792314D01*
X155527380Y-107792314D02*
X155579761Y-107766123D01*
X155579761Y-107766123D02*
X155684523Y-107766123D01*
X155684523Y-107766123D02*
X155736904Y-107792314D01*
X155736904Y-107792314D02*
X155763094Y-107844695D01*
X155763094Y-107844695D02*
X155763094Y-107897076D01*
X155763094Y-107897076D02*
X155501189Y-107949457D01*
X155920237Y-107766123D02*
X156129761Y-107766123D01*
X155998809Y-107582790D02*
X155998809Y-108054219D01*
X155998809Y-108054219D02*
X156024999Y-108106600D01*
X156024999Y-108106600D02*
X156077380Y-108132790D01*
X156077380Y-108132790D02*
X156129761Y-108132790D01*
X156522619Y-108106600D02*
X156470238Y-108132790D01*
X156470238Y-108132790D02*
X156365476Y-108132790D01*
X156365476Y-108132790D02*
X156313095Y-108106600D01*
X156313095Y-108106600D02*
X156286904Y-108054219D01*
X156286904Y-108054219D02*
X156286904Y-107844695D01*
X156286904Y-107844695D02*
X156313095Y-107792314D01*
X156313095Y-107792314D02*
X156365476Y-107766123D01*
X156365476Y-107766123D02*
X156470238Y-107766123D01*
X156470238Y-107766123D02*
X156522619Y-107792314D01*
X156522619Y-107792314D02*
X156548809Y-107844695D01*
X156548809Y-107844695D02*
X156548809Y-107897076D01*
X156548809Y-107897076D02*
X156286904Y-107949457D01*
X156784524Y-108132790D02*
X156784524Y-107766123D01*
X156784524Y-107870885D02*
X156810714Y-107818504D01*
X156810714Y-107818504D02*
X156836905Y-107792314D01*
X156836905Y-107792314D02*
X156889286Y-107766123D01*
X156889286Y-107766123D02*
X156941667Y-107766123D01*
X157465476Y-107870885D02*
X157439286Y-107844695D01*
X157439286Y-107844695D02*
X157386905Y-107818504D01*
X157386905Y-107818504D02*
X157334524Y-107818504D01*
X157334524Y-107818504D02*
X157282143Y-107844695D01*
X157282143Y-107844695D02*
X157255952Y-107870885D01*
X157255952Y-107870885D02*
X157229762Y-107923266D01*
X157229762Y-107923266D02*
X157229762Y-107975647D01*
X157229762Y-107975647D02*
X157255952Y-108028028D01*
X157255952Y-108028028D02*
X157282143Y-108054219D01*
X157282143Y-108054219D02*
X157334524Y-108080409D01*
X157334524Y-108080409D02*
X157386905Y-108080409D01*
X157386905Y-108080409D02*
X157439286Y-108054219D01*
X157439286Y-108054219D02*
X157465476Y-108028028D01*
X157465476Y-107818504D02*
X157465476Y-108028028D01*
X157465476Y-108028028D02*
X157491667Y-108054219D01*
X157491667Y-108054219D02*
X157517857Y-108054219D01*
X157517857Y-108054219D02*
X157570238Y-108028028D01*
X157570238Y-108028028D02*
X157596428Y-107975647D01*
X157596428Y-107975647D02*
X157596428Y-107844695D01*
X157596428Y-107844695D02*
X157544048Y-107766123D01*
X157544048Y-107766123D02*
X157465476Y-107713742D01*
X157465476Y-107713742D02*
X157360714Y-107687552D01*
X157360714Y-107687552D02*
X157255952Y-107713742D01*
X157255952Y-107713742D02*
X157177381Y-107766123D01*
X157177381Y-107766123D02*
X157125000Y-107844695D01*
X157125000Y-107844695D02*
X157098809Y-107949457D01*
X157098809Y-107949457D02*
X157125000Y-108054219D01*
X157125000Y-108054219D02*
X157177381Y-108132790D01*
X157177381Y-108132790D02*
X157255952Y-108185171D01*
X157255952Y-108185171D02*
X157360714Y-108211361D01*
X157360714Y-108211361D02*
X157465476Y-108185171D01*
X157465476Y-108185171D02*
X157544048Y-108132790D01*
X157832143Y-107766123D02*
X157832143Y-108316123D01*
X157832143Y-107792314D02*
X157884524Y-107766123D01*
X157884524Y-107766123D02*
X157989286Y-107766123D01*
X157989286Y-107766123D02*
X158041667Y-107792314D01*
X158041667Y-107792314D02*
X158067857Y-107818504D01*
X158067857Y-107818504D02*
X158094048Y-107870885D01*
X158094048Y-107870885D02*
X158094048Y-108028028D01*
X158094048Y-108028028D02*
X158067857Y-108080409D01*
X158067857Y-108080409D02*
X158041667Y-108106600D01*
X158041667Y-108106600D02*
X157989286Y-108132790D01*
X157989286Y-108132790D02*
X157884524Y-108132790D01*
X157884524Y-108132790D02*
X157832143Y-108106600D01*
X158408333Y-108132790D02*
X158355952Y-108106600D01*
X158355952Y-108106600D02*
X158329762Y-108080409D01*
X158329762Y-108080409D02*
X158303571Y-108028028D01*
X158303571Y-108028028D02*
X158303571Y-107870885D01*
X158303571Y-107870885D02*
X158329762Y-107818504D01*
X158329762Y-107818504D02*
X158355952Y-107792314D01*
X158355952Y-107792314D02*
X158408333Y-107766123D01*
X158408333Y-107766123D02*
X158486905Y-107766123D01*
X158486905Y-107766123D02*
X158539286Y-107792314D01*
X158539286Y-107792314D02*
X158565476Y-107818504D01*
X158565476Y-107818504D02*
X158591667Y-107870885D01*
X158591667Y-107870885D02*
X158591667Y-108028028D01*
X158591667Y-108028028D02*
X158565476Y-108080409D01*
X158565476Y-108080409D02*
X158539286Y-108106600D01*
X158539286Y-108106600D02*
X158486905Y-108132790D01*
X158486905Y-108132790D02*
X158408333Y-108132790D01*
X158905952Y-108132790D02*
X158853571Y-108106600D01*
X158853571Y-108106600D02*
X158827381Y-108054219D01*
X158827381Y-108054219D02*
X158827381Y-107582790D01*
X159115476Y-108132790D02*
X159115476Y-107766123D01*
X159115476Y-107582790D02*
X159089285Y-107608980D01*
X159089285Y-107608980D02*
X159115476Y-107635171D01*
X159115476Y-107635171D02*
X159141666Y-107608980D01*
X159141666Y-107608980D02*
X159115476Y-107582790D01*
X159115476Y-107582790D02*
X159115476Y-107635171D01*
X159613095Y-108132790D02*
X159613095Y-107582790D01*
X159613095Y-108106600D02*
X159560714Y-108132790D01*
X159560714Y-108132790D02*
X159455952Y-108132790D01*
X159455952Y-108132790D02*
X159403571Y-108106600D01*
X159403571Y-108106600D02*
X159377381Y-108080409D01*
X159377381Y-108080409D02*
X159351190Y-108028028D01*
X159351190Y-108028028D02*
X159351190Y-107870885D01*
X159351190Y-107870885D02*
X159377381Y-107818504D01*
X159377381Y-107818504D02*
X159403571Y-107792314D01*
X159403571Y-107792314D02*
X159455952Y-107766123D01*
X159455952Y-107766123D02*
X159560714Y-107766123D01*
X159560714Y-107766123D02*
X159613095Y-107792314D01*
X159953571Y-108132790D02*
X159901190Y-108106600D01*
X159901190Y-108106600D02*
X159875000Y-108080409D01*
X159875000Y-108080409D02*
X159848809Y-108028028D01*
X159848809Y-108028028D02*
X159848809Y-107870885D01*
X159848809Y-107870885D02*
X159875000Y-107818504D01*
X159875000Y-107818504D02*
X159901190Y-107792314D01*
X159901190Y-107792314D02*
X159953571Y-107766123D01*
X159953571Y-107766123D02*
X160032143Y-107766123D01*
X160032143Y-107766123D02*
X160084524Y-107792314D01*
X160084524Y-107792314D02*
X160110714Y-107818504D01*
X160110714Y-107818504D02*
X160136905Y-107870885D01*
X160136905Y-107870885D02*
X160136905Y-108028028D01*
X160136905Y-108028028D02*
X160110714Y-108080409D01*
X160110714Y-108080409D02*
X160084524Y-108106600D01*
X160084524Y-108106600D02*
X160032143Y-108132790D01*
X160032143Y-108132790D02*
X159953571Y-108132790D01*
X160372619Y-108132790D02*
X160372619Y-107766123D01*
X160372619Y-107870885D02*
X160398809Y-107818504D01*
X160398809Y-107818504D02*
X160425000Y-107792314D01*
X160425000Y-107792314D02*
X160477381Y-107766123D01*
X160477381Y-107766123D02*
X160529762Y-107766123D01*
X160791666Y-108132790D02*
X160739285Y-108106600D01*
X160739285Y-108106600D02*
X160713095Y-108080409D01*
X160713095Y-108080409D02*
X160686904Y-108028028D01*
X160686904Y-108028028D02*
X160686904Y-107870885D01*
X160686904Y-107870885D02*
X160713095Y-107818504D01*
X160713095Y-107818504D02*
X160739285Y-107792314D01*
X160739285Y-107792314D02*
X160791666Y-107766123D01*
X160791666Y-107766123D02*
X160870238Y-107766123D01*
X160870238Y-107766123D02*
X160922619Y-107792314D01*
X160922619Y-107792314D02*
X160948809Y-107818504D01*
X160948809Y-107818504D02*
X160975000Y-107870885D01*
X160975000Y-107870885D02*
X160975000Y-108028028D01*
X160975000Y-108028028D02*
X160948809Y-108080409D01*
X160948809Y-108080409D02*
X160922619Y-108106600D01*
X160922619Y-108106600D02*
X160870238Y-108132790D01*
X160870238Y-108132790D02*
X160791666Y-108132790D01*
X161210714Y-108080409D02*
X161236904Y-108106600D01*
X161236904Y-108106600D02*
X161210714Y-108132790D01*
X161210714Y-108132790D02*
X161184523Y-108106600D01*
X161184523Y-108106600D02*
X161210714Y-108080409D01*
X161210714Y-108080409D02*
X161210714Y-108132790D01*
X161472619Y-108132790D02*
X161472619Y-107766123D01*
X161472619Y-107582790D02*
X161446428Y-107608980D01*
X161446428Y-107608980D02*
X161472619Y-107635171D01*
X161472619Y-107635171D02*
X161498809Y-107608980D01*
X161498809Y-107608980D02*
X161472619Y-107582790D01*
X161472619Y-107582790D02*
X161472619Y-107635171D01*
X161813095Y-108132790D02*
X161760714Y-108106600D01*
X161760714Y-108106600D02*
X161734524Y-108080409D01*
X161734524Y-108080409D02*
X161708333Y-108028028D01*
X161708333Y-108028028D02*
X161708333Y-107870885D01*
X161708333Y-107870885D02*
X161734524Y-107818504D01*
X161734524Y-107818504D02*
X161760714Y-107792314D01*
X161760714Y-107792314D02*
X161813095Y-107766123D01*
X161813095Y-107766123D02*
X161891667Y-107766123D01*
X161891667Y-107766123D02*
X161944048Y-107792314D01*
X161944048Y-107792314D02*
X161970238Y-107818504D01*
X161970238Y-107818504D02*
X161996429Y-107870885D01*
X161996429Y-107870885D02*
X161996429Y-108028028D01*
X161996429Y-108028028D02*
X161970238Y-108080409D01*
X161970238Y-108080409D02*
X161944048Y-108106600D01*
X161944048Y-108106600D02*
X161891667Y-108132790D01*
X161891667Y-108132790D02*
X161813095Y-108132790D01*
D10*
X134809524Y-102988976D02*
X134809524Y-103488976D01*
X134809524Y-103012785D02*
X134857143Y-102988976D01*
X134857143Y-102988976D02*
X134952381Y-102988976D01*
X134952381Y-102988976D02*
X135000000Y-103012785D01*
X135000000Y-103012785D02*
X135023810Y-103036595D01*
X135023810Y-103036595D02*
X135047619Y-103084214D01*
X135047619Y-103084214D02*
X135047619Y-103227071D01*
X135047619Y-103227071D02*
X135023810Y-103274690D01*
X135023810Y-103274690D02*
X135000000Y-103298500D01*
X135000000Y-103298500D02*
X134952381Y-103322309D01*
X134952381Y-103322309D02*
X134857143Y-103322309D01*
X134857143Y-103322309D02*
X134809524Y-103298500D01*
X135261905Y-103322309D02*
X135261905Y-102822309D01*
X135476191Y-103322309D02*
X135476191Y-103060404D01*
X135476191Y-103060404D02*
X135452381Y-103012785D01*
X135452381Y-103012785D02*
X135404762Y-102988976D01*
X135404762Y-102988976D02*
X135333334Y-102988976D01*
X135333334Y-102988976D02*
X135285715Y-103012785D01*
X135285715Y-103012785D02*
X135261905Y-103036595D01*
X135785715Y-103322309D02*
X135738096Y-103298500D01*
X135738096Y-103298500D02*
X135714286Y-103274690D01*
X135714286Y-103274690D02*
X135690477Y-103227071D01*
X135690477Y-103227071D02*
X135690477Y-103084214D01*
X135690477Y-103084214D02*
X135714286Y-103036595D01*
X135714286Y-103036595D02*
X135738096Y-103012785D01*
X135738096Y-103012785D02*
X135785715Y-102988976D01*
X135785715Y-102988976D02*
X135857143Y-102988976D01*
X135857143Y-102988976D02*
X135904762Y-103012785D01*
X135904762Y-103012785D02*
X135928572Y-103036595D01*
X135928572Y-103036595D02*
X135952381Y-103084214D01*
X135952381Y-103084214D02*
X135952381Y-103227071D01*
X135952381Y-103227071D02*
X135928572Y-103274690D01*
X135928572Y-103274690D02*
X135904762Y-103298500D01*
X135904762Y-103298500D02*
X135857143Y-103322309D01*
X135857143Y-103322309D02*
X135785715Y-103322309D01*
X136095239Y-102988976D02*
X136285715Y-102988976D01*
X136166667Y-102822309D02*
X136166667Y-103250880D01*
X136166667Y-103250880D02*
X136190477Y-103298500D01*
X136190477Y-103298500D02*
X136238096Y-103322309D01*
X136238096Y-103322309D02*
X136285715Y-103322309D01*
X136523810Y-103322309D02*
X136476191Y-103298500D01*
X136476191Y-103298500D02*
X136452381Y-103274690D01*
X136452381Y-103274690D02*
X136428572Y-103227071D01*
X136428572Y-103227071D02*
X136428572Y-103084214D01*
X136428572Y-103084214D02*
X136452381Y-103036595D01*
X136452381Y-103036595D02*
X136476191Y-103012785D01*
X136476191Y-103012785D02*
X136523810Y-102988976D01*
X136523810Y-102988976D02*
X136595238Y-102988976D01*
X136595238Y-102988976D02*
X136642857Y-103012785D01*
X136642857Y-103012785D02*
X136666667Y-103036595D01*
X136666667Y-103036595D02*
X136690476Y-103084214D01*
X136690476Y-103084214D02*
X136690476Y-103227071D01*
X136690476Y-103227071D02*
X136666667Y-103274690D01*
X136666667Y-103274690D02*
X136642857Y-103298500D01*
X136642857Y-103298500D02*
X136595238Y-103322309D01*
X136595238Y-103322309D02*
X136523810Y-103322309D01*
X137119048Y-103322309D02*
X137119048Y-102822309D01*
X137119048Y-103298500D02*
X137071429Y-103322309D01*
X137071429Y-103322309D02*
X136976191Y-103322309D01*
X136976191Y-103322309D02*
X136928572Y-103298500D01*
X136928572Y-103298500D02*
X136904762Y-103274690D01*
X136904762Y-103274690D02*
X136880953Y-103227071D01*
X136880953Y-103227071D02*
X136880953Y-103084214D01*
X136880953Y-103084214D02*
X136904762Y-103036595D01*
X136904762Y-103036595D02*
X136928572Y-103012785D01*
X136928572Y-103012785D02*
X136976191Y-102988976D01*
X136976191Y-102988976D02*
X137071429Y-102988976D01*
X137071429Y-102988976D02*
X137119048Y-103012785D01*
X137357143Y-103322309D02*
X137357143Y-102988976D01*
X137357143Y-102822309D02*
X137333334Y-102846119D01*
X137333334Y-102846119D02*
X137357143Y-102869928D01*
X137357143Y-102869928D02*
X137380953Y-102846119D01*
X137380953Y-102846119D02*
X137357143Y-102822309D01*
X137357143Y-102822309D02*
X137357143Y-102869928D01*
X137666667Y-103322309D02*
X137619048Y-103298500D01*
X137619048Y-103298500D02*
X137595238Y-103274690D01*
X137595238Y-103274690D02*
X137571429Y-103227071D01*
X137571429Y-103227071D02*
X137571429Y-103084214D01*
X137571429Y-103084214D02*
X137595238Y-103036595D01*
X137595238Y-103036595D02*
X137619048Y-103012785D01*
X137619048Y-103012785D02*
X137666667Y-102988976D01*
X137666667Y-102988976D02*
X137738095Y-102988976D01*
X137738095Y-102988976D02*
X137785714Y-103012785D01*
X137785714Y-103012785D02*
X137809524Y-103036595D01*
X137809524Y-103036595D02*
X137833333Y-103084214D01*
X137833333Y-103084214D02*
X137833333Y-103227071D01*
X137833333Y-103227071D02*
X137809524Y-103274690D01*
X137809524Y-103274690D02*
X137785714Y-103298500D01*
X137785714Y-103298500D02*
X137738095Y-103322309D01*
X137738095Y-103322309D02*
X137666667Y-103322309D01*
X138261905Y-103322309D02*
X138261905Y-102822309D01*
X138261905Y-103298500D02*
X138214286Y-103322309D01*
X138214286Y-103322309D02*
X138119048Y-103322309D01*
X138119048Y-103322309D02*
X138071429Y-103298500D01*
X138071429Y-103298500D02*
X138047619Y-103274690D01*
X138047619Y-103274690D02*
X138023810Y-103227071D01*
X138023810Y-103227071D02*
X138023810Y-103084214D01*
X138023810Y-103084214D02*
X138047619Y-103036595D01*
X138047619Y-103036595D02*
X138071429Y-103012785D01*
X138071429Y-103012785D02*
X138119048Y-102988976D01*
X138119048Y-102988976D02*
X138214286Y-102988976D01*
X138214286Y-102988976D02*
X138261905Y-103012785D01*
X138690476Y-103298500D02*
X138642857Y-103322309D01*
X138642857Y-103322309D02*
X138547619Y-103322309D01*
X138547619Y-103322309D02*
X138500000Y-103298500D01*
X138500000Y-103298500D02*
X138476191Y-103250880D01*
X138476191Y-103250880D02*
X138476191Y-103060404D01*
X138476191Y-103060404D02*
X138500000Y-103012785D01*
X138500000Y-103012785D02*
X138547619Y-102988976D01*
X138547619Y-102988976D02*
X138642857Y-102988976D01*
X138642857Y-102988976D02*
X138690476Y-103012785D01*
X138690476Y-103012785D02*
X138714286Y-103060404D01*
X138714286Y-103060404D02*
X138714286Y-103108023D01*
X138714286Y-103108023D02*
X138476191Y-103155642D01*
X135428572Y-104127309D02*
X135523810Y-104127309D01*
X135523810Y-104127309D02*
X135571429Y-104103500D01*
X135571429Y-104103500D02*
X135595238Y-104079690D01*
X135595238Y-104079690D02*
X135642857Y-104008261D01*
X135642857Y-104008261D02*
X135666667Y-103913023D01*
X135666667Y-103913023D02*
X135666667Y-103722547D01*
X135666667Y-103722547D02*
X135642857Y-103674928D01*
X135642857Y-103674928D02*
X135619048Y-103651119D01*
X135619048Y-103651119D02*
X135571429Y-103627309D01*
X135571429Y-103627309D02*
X135476191Y-103627309D01*
X135476191Y-103627309D02*
X135428572Y-103651119D01*
X135428572Y-103651119D02*
X135404762Y-103674928D01*
X135404762Y-103674928D02*
X135380953Y-103722547D01*
X135380953Y-103722547D02*
X135380953Y-103841595D01*
X135380953Y-103841595D02*
X135404762Y-103889214D01*
X135404762Y-103889214D02*
X135428572Y-103913023D01*
X135428572Y-103913023D02*
X135476191Y-103936833D01*
X135476191Y-103936833D02*
X135571429Y-103936833D01*
X135571429Y-103936833D02*
X135619048Y-103913023D01*
X135619048Y-103913023D02*
X135642857Y-103889214D01*
X135642857Y-103889214D02*
X135666667Y-103841595D01*
X136095238Y-103793976D02*
X136095238Y-104127309D01*
X135976190Y-103603500D02*
X135857143Y-103960642D01*
X135857143Y-103960642D02*
X136166666Y-103960642D01*
X136452380Y-103627309D02*
X136499999Y-103627309D01*
X136499999Y-103627309D02*
X136547618Y-103651119D01*
X136547618Y-103651119D02*
X136571428Y-103674928D01*
X136571428Y-103674928D02*
X136595237Y-103722547D01*
X136595237Y-103722547D02*
X136619047Y-103817785D01*
X136619047Y-103817785D02*
X136619047Y-103936833D01*
X136619047Y-103936833D02*
X136595237Y-104032071D01*
X136595237Y-104032071D02*
X136571428Y-104079690D01*
X136571428Y-104079690D02*
X136547618Y-104103500D01*
X136547618Y-104103500D02*
X136499999Y-104127309D01*
X136499999Y-104127309D02*
X136452380Y-104127309D01*
X136452380Y-104127309D02*
X136404761Y-104103500D01*
X136404761Y-104103500D02*
X136380952Y-104079690D01*
X136380952Y-104079690D02*
X136357142Y-104032071D01*
X136357142Y-104032071D02*
X136333333Y-103936833D01*
X136333333Y-103936833D02*
X136333333Y-103817785D01*
X136333333Y-103817785D02*
X136357142Y-103722547D01*
X136357142Y-103722547D02*
X136380952Y-103674928D01*
X136380952Y-103674928D02*
X136404761Y-103651119D01*
X136404761Y-103651119D02*
X136452380Y-103627309D01*
X137214284Y-103793976D02*
X137214284Y-104127309D01*
X137214284Y-103841595D02*
X137238094Y-103817785D01*
X137238094Y-103817785D02*
X137285713Y-103793976D01*
X137285713Y-103793976D02*
X137357141Y-103793976D01*
X137357141Y-103793976D02*
X137404760Y-103817785D01*
X137404760Y-103817785D02*
X137428570Y-103865404D01*
X137428570Y-103865404D02*
X137428570Y-104127309D01*
X137666665Y-104127309D02*
X137666665Y-103793976D01*
X137666665Y-103841595D02*
X137690475Y-103817785D01*
X137690475Y-103817785D02*
X137738094Y-103793976D01*
X137738094Y-103793976D02*
X137809522Y-103793976D01*
X137809522Y-103793976D02*
X137857141Y-103817785D01*
X137857141Y-103817785D02*
X137880951Y-103865404D01*
X137880951Y-103865404D02*
X137880951Y-104127309D01*
X137880951Y-103865404D02*
X137904760Y-103817785D01*
X137904760Y-103817785D02*
X137952379Y-103793976D01*
X137952379Y-103793976D02*
X138023808Y-103793976D01*
X138023808Y-103793976D02*
X138071427Y-103817785D01*
X138071427Y-103817785D02*
X138095237Y-103865404D01*
X138095237Y-103865404D02*
X138095237Y-104127309D01*
X156724809Y-100166666D02*
X157081952Y-100166666D01*
X157081952Y-100166666D02*
X157153380Y-100190475D01*
X157153380Y-100190475D02*
X157201000Y-100238094D01*
X157201000Y-100238094D02*
X157224809Y-100309523D01*
X157224809Y-100309523D02*
X157224809Y-100357142D01*
X157224809Y-99666666D02*
X157224809Y-99952380D01*
X157224809Y-99809523D02*
X156724809Y-99809523D01*
X156724809Y-99809523D02*
X156796238Y-99857142D01*
X156796238Y-99857142D02*
X156843857Y-99904761D01*
X156843857Y-99904761D02*
X156867666Y-99952380D01*
X140724809Y-96583333D02*
X140486714Y-96749999D01*
X140724809Y-96869047D02*
X140224809Y-96869047D01*
X140224809Y-96869047D02*
X140224809Y-96678571D01*
X140224809Y-96678571D02*
X140248619Y-96630952D01*
X140248619Y-96630952D02*
X140272428Y-96607142D01*
X140272428Y-96607142D02*
X140320047Y-96583333D01*
X140320047Y-96583333D02*
X140391476Y-96583333D01*
X140391476Y-96583333D02*
X140439095Y-96607142D01*
X140439095Y-96607142D02*
X140462904Y-96630952D01*
X140462904Y-96630952D02*
X140486714Y-96678571D01*
X140486714Y-96678571D02*
X140486714Y-96869047D01*
X140724809Y-96345237D02*
X140724809Y-96249999D01*
X140724809Y-96249999D02*
X140701000Y-96202380D01*
X140701000Y-96202380D02*
X140677190Y-96178571D01*
X140677190Y-96178571D02*
X140605761Y-96130952D01*
X140605761Y-96130952D02*
X140510523Y-96107142D01*
X140510523Y-96107142D02*
X140320047Y-96107142D01*
X140320047Y-96107142D02*
X140272428Y-96130952D01*
X140272428Y-96130952D02*
X140248619Y-96154761D01*
X140248619Y-96154761D02*
X140224809Y-96202380D01*
X140224809Y-96202380D02*
X140224809Y-96297618D01*
X140224809Y-96297618D02*
X140248619Y-96345237D01*
X140248619Y-96345237D02*
X140272428Y-96369047D01*
X140272428Y-96369047D02*
X140320047Y-96392856D01*
X140320047Y-96392856D02*
X140439095Y-96392856D01*
X140439095Y-96392856D02*
X140486714Y-96369047D01*
X140486714Y-96369047D02*
X140510523Y-96345237D01*
X140510523Y-96345237D02*
X140534333Y-96297618D01*
X140534333Y-96297618D02*
X140534333Y-96202380D01*
X140534333Y-96202380D02*
X140510523Y-96154761D01*
X140510523Y-96154761D02*
X140486714Y-96130952D01*
X140486714Y-96130952D02*
X140439095Y-96107142D01*
X144974809Y-100380952D02*
X145379571Y-100380952D01*
X145379571Y-100380952D02*
X145427190Y-100357142D01*
X145427190Y-100357142D02*
X145451000Y-100333333D01*
X145451000Y-100333333D02*
X145474809Y-100285714D01*
X145474809Y-100285714D02*
X145474809Y-100190476D01*
X145474809Y-100190476D02*
X145451000Y-100142857D01*
X145451000Y-100142857D02*
X145427190Y-100119047D01*
X145427190Y-100119047D02*
X145379571Y-100095238D01*
X145379571Y-100095238D02*
X144974809Y-100095238D01*
X145022428Y-99880951D02*
X144998619Y-99857142D01*
X144998619Y-99857142D02*
X144974809Y-99809523D01*
X144974809Y-99809523D02*
X144974809Y-99690475D01*
X144974809Y-99690475D02*
X144998619Y-99642856D01*
X144998619Y-99642856D02*
X145022428Y-99619047D01*
X145022428Y-99619047D02*
X145070047Y-99595237D01*
X145070047Y-99595237D02*
X145117666Y-99595237D01*
X145117666Y-99595237D02*
X145189095Y-99619047D01*
X145189095Y-99619047D02*
X145474809Y-99904761D01*
X145474809Y-99904761D02*
X145474809Y-99595237D01*
X139724809Y-94821428D02*
X139486714Y-94988094D01*
X139724809Y-95107142D02*
X139224809Y-95107142D01*
X139224809Y-95107142D02*
X139224809Y-94916666D01*
X139224809Y-94916666D02*
X139248619Y-94869047D01*
X139248619Y-94869047D02*
X139272428Y-94845237D01*
X139272428Y-94845237D02*
X139320047Y-94821428D01*
X139320047Y-94821428D02*
X139391476Y-94821428D01*
X139391476Y-94821428D02*
X139439095Y-94845237D01*
X139439095Y-94845237D02*
X139462904Y-94869047D01*
X139462904Y-94869047D02*
X139486714Y-94916666D01*
X139486714Y-94916666D02*
X139486714Y-95107142D01*
X139724809Y-94345237D02*
X139724809Y-94630951D01*
X139724809Y-94488094D02*
X139224809Y-94488094D01*
X139224809Y-94488094D02*
X139296238Y-94535713D01*
X139296238Y-94535713D02*
X139343857Y-94583332D01*
X139343857Y-94583332D02*
X139367666Y-94630951D01*
X139224809Y-94035714D02*
X139224809Y-93988095D01*
X139224809Y-93988095D02*
X139248619Y-93940476D01*
X139248619Y-93940476D02*
X139272428Y-93916666D01*
X139272428Y-93916666D02*
X139320047Y-93892857D01*
X139320047Y-93892857D02*
X139415285Y-93869047D01*
X139415285Y-93869047D02*
X139534333Y-93869047D01*
X139534333Y-93869047D02*
X139629571Y-93892857D01*
X139629571Y-93892857D02*
X139677190Y-93916666D01*
X139677190Y-93916666D02*
X139701000Y-93940476D01*
X139701000Y-93940476D02*
X139724809Y-93988095D01*
X139724809Y-93988095D02*
X139724809Y-94035714D01*
X139724809Y-94035714D02*
X139701000Y-94083333D01*
X139701000Y-94083333D02*
X139677190Y-94107142D01*
X139677190Y-94107142D02*
X139629571Y-94130952D01*
X139629571Y-94130952D02*
X139534333Y-94154761D01*
X139534333Y-94154761D02*
X139415285Y-94154761D01*
X139415285Y-94154761D02*
X139320047Y-94130952D01*
X139320047Y-94130952D02*
X139272428Y-94107142D01*
X139272428Y-94107142D02*
X139248619Y-94083333D01*
X139248619Y-94083333D02*
X139224809Y-94035714D01*
X150916666Y-108474809D02*
X150750000Y-108236714D01*
X150630952Y-108474809D02*
X150630952Y-107974809D01*
X150630952Y-107974809D02*
X150821428Y-107974809D01*
X150821428Y-107974809D02*
X150869047Y-107998619D01*
X150869047Y-107998619D02*
X150892857Y-108022428D01*
X150892857Y-108022428D02*
X150916666Y-108070047D01*
X150916666Y-108070047D02*
X150916666Y-108141476D01*
X150916666Y-108141476D02*
X150892857Y-108189095D01*
X150892857Y-108189095D02*
X150869047Y-108212904D01*
X150869047Y-108212904D02*
X150821428Y-108236714D01*
X150821428Y-108236714D02*
X150630952Y-108236714D01*
X151392857Y-108474809D02*
X151107143Y-108474809D01*
X151250000Y-108474809D02*
X151250000Y-107974809D01*
X151250000Y-107974809D02*
X151202381Y-108046238D01*
X151202381Y-108046238D02*
X151154762Y-108093857D01*
X151154762Y-108093857D02*
X151107143Y-108117666D01*
X153416666Y-108224809D02*
X153250000Y-107986714D01*
X153130952Y-108224809D02*
X153130952Y-107724809D01*
X153130952Y-107724809D02*
X153321428Y-107724809D01*
X153321428Y-107724809D02*
X153369047Y-107748619D01*
X153369047Y-107748619D02*
X153392857Y-107772428D01*
X153392857Y-107772428D02*
X153416666Y-107820047D01*
X153416666Y-107820047D02*
X153416666Y-107891476D01*
X153416666Y-107891476D02*
X153392857Y-107939095D01*
X153392857Y-107939095D02*
X153369047Y-107962904D01*
X153369047Y-107962904D02*
X153321428Y-107986714D01*
X153321428Y-107986714D02*
X153130952Y-107986714D01*
X153869047Y-107724809D02*
X153630952Y-107724809D01*
X153630952Y-107724809D02*
X153607143Y-107962904D01*
X153607143Y-107962904D02*
X153630952Y-107939095D01*
X153630952Y-107939095D02*
X153678571Y-107915285D01*
X153678571Y-107915285D02*
X153797619Y-107915285D01*
X153797619Y-107915285D02*
X153845238Y-107939095D01*
X153845238Y-107939095D02*
X153869047Y-107962904D01*
X153869047Y-107962904D02*
X153892857Y-108010523D01*
X153892857Y-108010523D02*
X153892857Y-108129571D01*
X153892857Y-108129571D02*
X153869047Y-108177190D01*
X153869047Y-108177190D02*
X153845238Y-108201000D01*
X153845238Y-108201000D02*
X153797619Y-108224809D01*
X153797619Y-108224809D02*
X153678571Y-108224809D01*
X153678571Y-108224809D02*
X153630952Y-108201000D01*
X153630952Y-108201000D02*
X153607143Y-108177190D01*
X148316666Y-93224809D02*
X148150000Y-92986714D01*
X148030952Y-93224809D02*
X148030952Y-92724809D01*
X148030952Y-92724809D02*
X148221428Y-92724809D01*
X148221428Y-92724809D02*
X148269047Y-92748619D01*
X148269047Y-92748619D02*
X148292857Y-92772428D01*
X148292857Y-92772428D02*
X148316666Y-92820047D01*
X148316666Y-92820047D02*
X148316666Y-92891476D01*
X148316666Y-92891476D02*
X148292857Y-92939095D01*
X148292857Y-92939095D02*
X148269047Y-92962904D01*
X148269047Y-92962904D02*
X148221428Y-92986714D01*
X148221428Y-92986714D02*
X148030952Y-92986714D01*
X148483333Y-92724809D02*
X148816666Y-92724809D01*
X148816666Y-92724809D02*
X148602381Y-93224809D01*
X146416666Y-108427190D02*
X146392857Y-108451000D01*
X146392857Y-108451000D02*
X146321428Y-108474809D01*
X146321428Y-108474809D02*
X146273809Y-108474809D01*
X146273809Y-108474809D02*
X146202381Y-108451000D01*
X146202381Y-108451000D02*
X146154762Y-108403380D01*
X146154762Y-108403380D02*
X146130952Y-108355761D01*
X146130952Y-108355761D02*
X146107143Y-108260523D01*
X146107143Y-108260523D02*
X146107143Y-108189095D01*
X146107143Y-108189095D02*
X146130952Y-108093857D01*
X146130952Y-108093857D02*
X146154762Y-108046238D01*
X146154762Y-108046238D02*
X146202381Y-107998619D01*
X146202381Y-107998619D02*
X146273809Y-107974809D01*
X146273809Y-107974809D02*
X146321428Y-107974809D01*
X146321428Y-107974809D02*
X146392857Y-107998619D01*
X146392857Y-107998619D02*
X146416666Y-108022428D01*
X146702381Y-108189095D02*
X146654762Y-108165285D01*
X146654762Y-108165285D02*
X146630952Y-108141476D01*
X146630952Y-108141476D02*
X146607143Y-108093857D01*
X146607143Y-108093857D02*
X146607143Y-108070047D01*
X146607143Y-108070047D02*
X146630952Y-108022428D01*
X146630952Y-108022428D02*
X146654762Y-107998619D01*
X146654762Y-107998619D02*
X146702381Y-107974809D01*
X146702381Y-107974809D02*
X146797619Y-107974809D01*
X146797619Y-107974809D02*
X146845238Y-107998619D01*
X146845238Y-107998619D02*
X146869047Y-108022428D01*
X146869047Y-108022428D02*
X146892857Y-108070047D01*
X146892857Y-108070047D02*
X146892857Y-108093857D01*
X146892857Y-108093857D02*
X146869047Y-108141476D01*
X146869047Y-108141476D02*
X146845238Y-108165285D01*
X146845238Y-108165285D02*
X146797619Y-108189095D01*
X146797619Y-108189095D02*
X146702381Y-108189095D01*
X146702381Y-108189095D02*
X146654762Y-108212904D01*
X146654762Y-108212904D02*
X146630952Y-108236714D01*
X146630952Y-108236714D02*
X146607143Y-108284333D01*
X146607143Y-108284333D02*
X146607143Y-108379571D01*
X146607143Y-108379571D02*
X146630952Y-108427190D01*
X146630952Y-108427190D02*
X146654762Y-108451000D01*
X146654762Y-108451000D02*
X146702381Y-108474809D01*
X146702381Y-108474809D02*
X146797619Y-108474809D01*
X146797619Y-108474809D02*
X146845238Y-108451000D01*
X146845238Y-108451000D02*
X146869047Y-108427190D01*
X146869047Y-108427190D02*
X146892857Y-108379571D01*
X146892857Y-108379571D02*
X146892857Y-108284333D01*
X146892857Y-108284333D02*
X146869047Y-108236714D01*
X146869047Y-108236714D02*
X146845238Y-108212904D01*
X146845238Y-108212904D02*
X146797619Y-108189095D01*
X140880952Y-100224809D02*
X140880952Y-99724809D01*
X140880952Y-99724809D02*
X141000000Y-99724809D01*
X141000000Y-99724809D02*
X141071428Y-99748619D01*
X141071428Y-99748619D02*
X141119047Y-99796238D01*
X141119047Y-99796238D02*
X141142857Y-99843857D01*
X141142857Y-99843857D02*
X141166666Y-99939095D01*
X141166666Y-99939095D02*
X141166666Y-100010523D01*
X141166666Y-100010523D02*
X141142857Y-100105761D01*
X141142857Y-100105761D02*
X141119047Y-100153380D01*
X141119047Y-100153380D02*
X141071428Y-100201000D01*
X141071428Y-100201000D02*
X141000000Y-100224809D01*
X141000000Y-100224809D02*
X140880952Y-100224809D01*
X141642857Y-100224809D02*
X141357143Y-100224809D01*
X141500000Y-100224809D02*
X141500000Y-99724809D01*
X141500000Y-99724809D02*
X141452381Y-99796238D01*
X141452381Y-99796238D02*
X141404762Y-99843857D01*
X141404762Y-99843857D02*
X141357143Y-99867666D01*
X144224809Y-105166666D02*
X144581952Y-105166666D01*
X144581952Y-105166666D02*
X144653380Y-105190475D01*
X144653380Y-105190475D02*
X144701000Y-105238094D01*
X144701000Y-105238094D02*
X144724809Y-105309523D01*
X144724809Y-105309523D02*
X144724809Y-105357142D01*
X144224809Y-104976190D02*
X144224809Y-104666666D01*
X144224809Y-104666666D02*
X144415285Y-104833333D01*
X144415285Y-104833333D02*
X144415285Y-104761904D01*
X144415285Y-104761904D02*
X144439095Y-104714285D01*
X144439095Y-104714285D02*
X144462904Y-104690476D01*
X144462904Y-104690476D02*
X144510523Y-104666666D01*
X144510523Y-104666666D02*
X144629571Y-104666666D01*
X144629571Y-104666666D02*
X144677190Y-104690476D01*
X144677190Y-104690476D02*
X144701000Y-104714285D01*
X144701000Y-104714285D02*
X144724809Y-104761904D01*
X144724809Y-104761904D02*
X144724809Y-104904761D01*
X144724809Y-104904761D02*
X144701000Y-104952380D01*
X144701000Y-104952380D02*
X144677190Y-104976190D01*
X147916666Y-108427190D02*
X147892857Y-108451000D01*
X147892857Y-108451000D02*
X147821428Y-108474809D01*
X147821428Y-108474809D02*
X147773809Y-108474809D01*
X147773809Y-108474809D02*
X147702381Y-108451000D01*
X147702381Y-108451000D02*
X147654762Y-108403380D01*
X147654762Y-108403380D02*
X147630952Y-108355761D01*
X147630952Y-108355761D02*
X147607143Y-108260523D01*
X147607143Y-108260523D02*
X147607143Y-108189095D01*
X147607143Y-108189095D02*
X147630952Y-108093857D01*
X147630952Y-108093857D02*
X147654762Y-108046238D01*
X147654762Y-108046238D02*
X147702381Y-107998619D01*
X147702381Y-107998619D02*
X147773809Y-107974809D01*
X147773809Y-107974809D02*
X147821428Y-107974809D01*
X147821428Y-107974809D02*
X147892857Y-107998619D01*
X147892857Y-107998619D02*
X147916666Y-108022428D01*
X148345238Y-107974809D02*
X148250000Y-107974809D01*
X148250000Y-107974809D02*
X148202381Y-107998619D01*
X148202381Y-107998619D02*
X148178571Y-108022428D01*
X148178571Y-108022428D02*
X148130952Y-108093857D01*
X148130952Y-108093857D02*
X148107143Y-108189095D01*
X148107143Y-108189095D02*
X148107143Y-108379571D01*
X148107143Y-108379571D02*
X148130952Y-108427190D01*
X148130952Y-108427190D02*
X148154762Y-108451000D01*
X148154762Y-108451000D02*
X148202381Y-108474809D01*
X148202381Y-108474809D02*
X148297619Y-108474809D01*
X148297619Y-108474809D02*
X148345238Y-108451000D01*
X148345238Y-108451000D02*
X148369047Y-108427190D01*
X148369047Y-108427190D02*
X148392857Y-108379571D01*
X148392857Y-108379571D02*
X148392857Y-108260523D01*
X148392857Y-108260523D02*
X148369047Y-108212904D01*
X148369047Y-108212904D02*
X148345238Y-108189095D01*
X148345238Y-108189095D02*
X148297619Y-108165285D01*
X148297619Y-108165285D02*
X148202381Y-108165285D01*
X148202381Y-108165285D02*
X148154762Y-108189095D01*
X148154762Y-108189095D02*
X148130952Y-108212904D01*
X148130952Y-108212904D02*
X148107143Y-108260523D01*
X151416666Y-93224809D02*
X151250000Y-92986714D01*
X151130952Y-93224809D02*
X151130952Y-92724809D01*
X151130952Y-92724809D02*
X151321428Y-92724809D01*
X151321428Y-92724809D02*
X151369047Y-92748619D01*
X151369047Y-92748619D02*
X151392857Y-92772428D01*
X151392857Y-92772428D02*
X151416666Y-92820047D01*
X151416666Y-92820047D02*
X151416666Y-92891476D01*
X151416666Y-92891476D02*
X151392857Y-92939095D01*
X151392857Y-92939095D02*
X151369047Y-92962904D01*
X151369047Y-92962904D02*
X151321428Y-92986714D01*
X151321428Y-92986714D02*
X151130952Y-92986714D01*
X151607143Y-92772428D02*
X151630952Y-92748619D01*
X151630952Y-92748619D02*
X151678571Y-92724809D01*
X151678571Y-92724809D02*
X151797619Y-92724809D01*
X151797619Y-92724809D02*
X151845238Y-92748619D01*
X151845238Y-92748619D02*
X151869047Y-92772428D01*
X151869047Y-92772428D02*
X151892857Y-92820047D01*
X151892857Y-92820047D02*
X151892857Y-92867666D01*
X151892857Y-92867666D02*
X151869047Y-92939095D01*
X151869047Y-92939095D02*
X151583333Y-93224809D01*
X151583333Y-93224809D02*
X151892857Y-93224809D01*
D13*
%TO.C,H2*%
X165850000Y-93000000D02*
G75*
G03*
X162150000Y-93000000I-1850000J0D01*
G01*
X162150000Y-93000000D02*
G75*
G03*
X165850000Y-93000000I1850000J0D01*
G01*
D14*
%TO.C,J1*%
X157450000Y-104825000D02*
X163500000Y-104825000D01*
X157450000Y-104825000D02*
X157450000Y-95175000D01*
X157450000Y-95175000D02*
X163500000Y-95175000D01*
X165600000Y-95175000D02*
X165600000Y-104825000D01*
D11*
%TO.C,R9*%
X141846359Y-96225000D02*
X142153641Y-96225000D01*
X141846359Y-96775000D02*
X142153641Y-96775000D01*
D15*
%TO.C,U2*%
X156260000Y-96140000D02*
X156005000Y-96140000D01*
X156005000Y-96140000D02*
X156005000Y-94325000D01*
X145740000Y-96140000D02*
X145995000Y-96140000D01*
X156260000Y-100000000D02*
X156260000Y-96140000D01*
X156260000Y-100000000D02*
X156260000Y-103860000D01*
X145740000Y-100000000D02*
X145740000Y-96140000D01*
X145740000Y-100000000D02*
X145740000Y-103860000D01*
X156260000Y-103860000D02*
X156005000Y-103860000D01*
X145740000Y-103860000D02*
X145995000Y-103860000D01*
D16*
X156650000Y-95250000D02*
G75*
G03*
X156350000Y-95250000I-150000J0D01*
G01*
X156350000Y-95250000D02*
G75*
G03*
X156650000Y-95250000I150000J0D01*
G01*
D13*
%TO.C,H4*%
X137850000Y-107000000D02*
G75*
G03*
X134150000Y-107000000I-1850000J0D01*
G01*
X134150000Y-107000000D02*
G75*
G03*
X137850000Y-107000000I1850000J0D01*
G01*
D15*
%TO.C,R10*%
X141272936Y-93590000D02*
X142727064Y-93590000D01*
X141272936Y-95410000D02*
X142727064Y-95410000D01*
D11*
%TO.C,R1*%
X150725000Y-107153641D02*
X150725000Y-106846359D01*
X151275000Y-107153641D02*
X151275000Y-106846359D01*
%TO.C,R5*%
X153737258Y-107425000D02*
X153262742Y-107425000D01*
X153737258Y-106575000D02*
X153262742Y-106575000D01*
%TO.C,R7*%
X146262742Y-92575000D02*
X146737258Y-92575000D01*
X146262742Y-93425000D02*
X146737258Y-93425000D01*
D13*
%TO.C,H3*%
X165850000Y-107000000D02*
G75*
G03*
X162150000Y-107000000I-1850000J0D01*
G01*
X162150000Y-107000000D02*
G75*
G03*
X165850000Y-107000000I1850000J0D01*
G01*
D11*
%TO.C,C8*%
X146250000Y-107107836D02*
X146250000Y-106892164D01*
X146750000Y-107107836D02*
X146750000Y-106892164D01*
D17*
%TO.C,D1*%
X138425000Y-98730000D02*
X140330000Y-98730000D01*
D16*
X140330000Y-99746000D02*
X139060000Y-99746000D01*
X139695000Y-99746000D02*
X139695000Y-98730000D01*
X139060000Y-99746000D02*
X139695000Y-100381000D01*
X140330000Y-100381000D02*
X139060000Y-100381000D01*
X139695000Y-100381000D02*
X140330000Y-99746000D01*
X139695000Y-100381000D02*
X139695000Y-101270000D01*
D17*
X138425000Y-101270000D02*
X140330000Y-101270000D01*
X134825000Y-97600000D02*
X138425000Y-97600000D01*
X138425000Y-97600000D02*
X138425000Y-102400000D01*
X138425000Y-102400000D02*
X134825000Y-102400000D01*
X134825000Y-102400000D02*
X134825000Y-97600000D01*
D16*
X140680000Y-101270000D02*
G75*
G03*
X139980000Y-101270000I-350000J0D01*
G01*
X139980000Y-101270000D02*
G75*
G03*
X140680000Y-101270000I350000J0D01*
G01*
D17*
%TO.C,J3*%
X143500000Y-106750000D02*
X143500000Y-105750000D01*
X140500000Y-106500000D02*
X140000000Y-106000000D01*
X143500000Y-104250000D02*
X143500000Y-103250000D01*
X140000000Y-104000000D02*
X140500000Y-103500000D01*
D11*
%TO.C,C6*%
X148250000Y-106892164D02*
X148250000Y-107107836D01*
X147750000Y-106892164D02*
X147750000Y-107107836D01*
%TO.C,R2*%
X152846359Y-92725000D02*
X153153641Y-92725000D01*
X152846359Y-93275000D02*
X153153641Y-93275000D01*
D13*
%TO.C,H1*%
X137850000Y-93000000D02*
G75*
G03*
X134150000Y-93000000I-1850000J0D01*
G01*
X134150000Y-93000000D02*
G75*
G03*
X137850000Y-93000000I1850000J0D01*
G01*
%TD*%
%LPC*%
D18*
%TO.C,H2*%
X164000000Y-93000000D03*
%TD*%
D19*
%TO.C,J1*%
X159000000Y-103550000D03*
D20*
X159000000Y-96350000D03*
D21*
X158440000Y-102750000D03*
X158440000Y-102250000D03*
X158440000Y-101750000D03*
X158440000Y-101250000D03*
X158440000Y-100750000D03*
X158440000Y-100250000D03*
X158440000Y-99750000D03*
X158440000Y-99250000D03*
X158440000Y-98750000D03*
X158440000Y-98250000D03*
X158440000Y-97750000D03*
X158440000Y-97250000D03*
D22*
X159650000Y-97150000D03*
X160350000Y-97550000D03*
X160350000Y-98350000D03*
X159650000Y-98750000D03*
X160350000Y-99150000D03*
X159650000Y-99550000D03*
X159650000Y-100350000D03*
X160350000Y-100750000D03*
X159650000Y-101150000D03*
X160350000Y-101550000D03*
X160350000Y-102350000D03*
X159650000Y-102750000D03*
D23*
X160250000Y-104080000D03*
X160250000Y-95820000D03*
X164700000Y-104490000D03*
X164700000Y-95510000D03*
%TD*%
D24*
%TO.C,R9*%
X141490000Y-96500000D03*
X142510000Y-96500000D03*
%TD*%
D25*
%TO.C,FID1*%
X139000000Y-107000000D03*
%TD*%
D26*
%TO.C,U2*%
X155445000Y-95350000D03*
X154175000Y-95350000D03*
X152905000Y-95350000D03*
X151635000Y-95350000D03*
X150365000Y-95350000D03*
X149095000Y-95350000D03*
X147825000Y-95350000D03*
X146555000Y-95350000D03*
X146555000Y-104650000D03*
X147825000Y-104650000D03*
X149095000Y-104650000D03*
X150365000Y-104650000D03*
X151635000Y-104650000D03*
X152905000Y-104650000D03*
X154175000Y-104650000D03*
X155445000Y-104650000D03*
%TD*%
D18*
%TO.C,H4*%
X136000000Y-107000000D03*
%TD*%
D27*
%TO.C,R10*%
X140537500Y-94500000D03*
X143462500Y-94500000D03*
%TD*%
D28*
%TO.C,R1*%
X151000000Y-107510000D03*
X151000000Y-106490000D03*
%TD*%
D29*
%TO.C,R5*%
X154325000Y-107000000D03*
X152675000Y-107000000D03*
%TD*%
D30*
%TO.C,R7*%
X145675000Y-93000000D03*
X147325000Y-93000000D03*
%TD*%
D18*
%TO.C,H3*%
X164000000Y-107000000D03*
%TD*%
D31*
%TO.C,C8*%
X146500000Y-107480000D03*
X146500000Y-106520000D03*
%TD*%
D32*
%TO.C,D1*%
X142675000Y-101270000D03*
X142675000Y-98730000D03*
%TD*%
D33*
%TO.C,J3*%
X140525000Y-105000000D03*
D34*
X142000000Y-106425000D03*
D33*
X143475000Y-105000000D03*
D35*
X142000000Y-103575000D03*
%TD*%
D36*
%TO.C,C6*%
X148000000Y-106520000D03*
X148000000Y-107480000D03*
%TD*%
D25*
%TO.C,FID3*%
X161250000Y-93000000D03*
%TD*%
D24*
%TO.C,R2*%
X152490000Y-93000000D03*
X153510000Y-93000000D03*
%TD*%
D18*
%TO.C,H1*%
X136000000Y-93000000D03*
%TD*%
%LPD*%
D37*
X134000000Y-93000000D02*
X134000000Y-107000000D01*
X164000000Y-109000000D02*
G75*
G03*
X166000000Y-107000000I0J2000000D01*
G01*
X166000000Y-93000000D02*
G75*
G03*
X164000000Y-91000000I-2000000J0D01*
G01*
X136000000Y-91000000D02*
X164000000Y-91000000D01*
X136000000Y-91000000D02*
G75*
G03*
X134000000Y-93000000I0J-2000000D01*
G01*
X166000000Y-107000000D02*
X166000000Y-93000000D01*
X136000000Y-109000000D02*
X164000000Y-109000000D01*
X134000000Y-107000000D02*
G75*
G03*
X136000000Y-109000000I2000000J0D01*
G01*
M02*
