%TF.GenerationSoftware,KiCad,Pcbnew,7.0.10*%
%TF.CreationDate,2024-02-15T14:25:30-05:00*%
%TF.ProjectId,wingbeat_detector,77696e67-6265-4617-945f-646574656374,4.0*%
%TF.SameCoordinates,Original*%
%TF.FileFunction,AssemblyDrawing,Top*%
%FSLAX46Y46*%
G04 Gerber Fmt 4.6, Leading zero omitted, Abs format (unit mm)*
G04 Created by KiCad (PCBNEW 7.0.10) date 2024-02-15 14:25:30*
%MOMM*%
%LPD*%
G01*
G04 APERTURE LIST*
%ADD10C,0.100000*%
%ADD11C,0.125000*%
%ADD12C,0.040000*%
%ADD13C,0.200000*%
%ADD14C,0.060000*%
%ADD15C,0.300000*%
%ADD16C,0.127000*%
%ADD17C,0.500000*%
%TA.AperFunction,Profile*%
%ADD18C,0.100000*%
%TD*%
G04 APERTURE END LIST*
D10*
X136000000Y-91000000D02*
X164000000Y-91000000D01*
X166000000Y-107000000D02*
X166000000Y-93000000D01*
X134000000Y-107000000D02*
G75*
G03*
X136000000Y-109000000I2000000J0D01*
G01*
X166000000Y-93000000D02*
G75*
G03*
X164000000Y-91000000I-2000000J0D01*
G01*
X136000000Y-109000000D02*
X164000000Y-109000000D01*
X134000000Y-93000000D02*
X134000000Y-107000000D01*
X136000000Y-91000000D02*
G75*
G03*
X134000000Y-93000000I0J-2000000D01*
G01*
X164000000Y-109000000D02*
G75*
G03*
X166000000Y-107000000I0J2000000D01*
G01*
D11*
X166474809Y-105083329D02*
X166879571Y-105083329D01*
X166879571Y-105083329D02*
X166927190Y-105059519D01*
X166927190Y-105059519D02*
X166951000Y-105035710D01*
X166951000Y-105035710D02*
X166974809Y-104988091D01*
X166974809Y-104988091D02*
X166974809Y-104892853D01*
X166974809Y-104892853D02*
X166951000Y-104845234D01*
X166951000Y-104845234D02*
X166927190Y-104821424D01*
X166927190Y-104821424D02*
X166879571Y-104797615D01*
X166879571Y-104797615D02*
X166474809Y-104797615D01*
X166951000Y-104583328D02*
X166974809Y-104511900D01*
X166974809Y-104511900D02*
X166974809Y-104392852D01*
X166974809Y-104392852D02*
X166951000Y-104345233D01*
X166951000Y-104345233D02*
X166927190Y-104321424D01*
X166927190Y-104321424D02*
X166879571Y-104297614D01*
X166879571Y-104297614D02*
X166831952Y-104297614D01*
X166831952Y-104297614D02*
X166784333Y-104321424D01*
X166784333Y-104321424D02*
X166760523Y-104345233D01*
X166760523Y-104345233D02*
X166736714Y-104392852D01*
X166736714Y-104392852D02*
X166712904Y-104488090D01*
X166712904Y-104488090D02*
X166689095Y-104535709D01*
X166689095Y-104535709D02*
X166665285Y-104559519D01*
X166665285Y-104559519D02*
X166617666Y-104583328D01*
X166617666Y-104583328D02*
X166570047Y-104583328D01*
X166570047Y-104583328D02*
X166522428Y-104559519D01*
X166522428Y-104559519D02*
X166498619Y-104535709D01*
X166498619Y-104535709D02*
X166474809Y-104488090D01*
X166474809Y-104488090D02*
X166474809Y-104369043D01*
X166474809Y-104369043D02*
X166498619Y-104297614D01*
X166712904Y-103916662D02*
X166736714Y-103845234D01*
X166736714Y-103845234D02*
X166760523Y-103821424D01*
X166760523Y-103821424D02*
X166808142Y-103797615D01*
X166808142Y-103797615D02*
X166879571Y-103797615D01*
X166879571Y-103797615D02*
X166927190Y-103821424D01*
X166927190Y-103821424D02*
X166951000Y-103845234D01*
X166951000Y-103845234D02*
X166974809Y-103892853D01*
X166974809Y-103892853D02*
X166974809Y-104083329D01*
X166974809Y-104083329D02*
X166474809Y-104083329D01*
X166474809Y-104083329D02*
X166474809Y-103916662D01*
X166474809Y-103916662D02*
X166498619Y-103869043D01*
X166498619Y-103869043D02*
X166522428Y-103845234D01*
X166522428Y-103845234D02*
X166570047Y-103821424D01*
X166570047Y-103821424D02*
X166617666Y-103821424D01*
X166617666Y-103821424D02*
X166665285Y-103845234D01*
X166665285Y-103845234D02*
X166689095Y-103869043D01*
X166689095Y-103869043D02*
X166712904Y-103916662D01*
X166712904Y-103916662D02*
X166712904Y-104083329D01*
X167022428Y-103702377D02*
X167022428Y-103321424D01*
X166927190Y-102916663D02*
X166951000Y-102940472D01*
X166951000Y-102940472D02*
X166974809Y-103011901D01*
X166974809Y-103011901D02*
X166974809Y-103059520D01*
X166974809Y-103059520D02*
X166951000Y-103130948D01*
X166951000Y-103130948D02*
X166903380Y-103178567D01*
X166903380Y-103178567D02*
X166855761Y-103202377D01*
X166855761Y-103202377D02*
X166760523Y-103226186D01*
X166760523Y-103226186D02*
X166689095Y-103226186D01*
X166689095Y-103226186D02*
X166593857Y-103202377D01*
X166593857Y-103202377D02*
X166546238Y-103178567D01*
X166546238Y-103178567D02*
X166498619Y-103130948D01*
X166498619Y-103130948D02*
X166474809Y-103059520D01*
X166474809Y-103059520D02*
X166474809Y-103011901D01*
X166474809Y-103011901D02*
X166498619Y-102940472D01*
X166498619Y-102940472D02*
X166522428Y-102916663D01*
X167022428Y-102821425D02*
X167022428Y-102440472D01*
X166974809Y-102059520D02*
X166974809Y-102345234D01*
X166974809Y-102202377D02*
X166474809Y-102202377D01*
X166474809Y-102202377D02*
X166546238Y-102249996D01*
X166546238Y-102249996D02*
X166593857Y-102297615D01*
X166593857Y-102297615D02*
X166617666Y-102345234D01*
X166474809Y-101749997D02*
X166474809Y-101702378D01*
X166474809Y-101702378D02*
X166498619Y-101654759D01*
X166498619Y-101654759D02*
X166522428Y-101630949D01*
X166522428Y-101630949D02*
X166570047Y-101607140D01*
X166570047Y-101607140D02*
X166665285Y-101583330D01*
X166665285Y-101583330D02*
X166784333Y-101583330D01*
X166784333Y-101583330D02*
X166879571Y-101607140D01*
X166879571Y-101607140D02*
X166927190Y-101630949D01*
X166927190Y-101630949D02*
X166951000Y-101654759D01*
X166951000Y-101654759D02*
X166974809Y-101702378D01*
X166974809Y-101702378D02*
X166974809Y-101749997D01*
X166974809Y-101749997D02*
X166951000Y-101797616D01*
X166951000Y-101797616D02*
X166927190Y-101821425D01*
X166927190Y-101821425D02*
X166879571Y-101845235D01*
X166879571Y-101845235D02*
X166784333Y-101869044D01*
X166784333Y-101869044D02*
X166665285Y-101869044D01*
X166665285Y-101869044D02*
X166570047Y-101845235D01*
X166570047Y-101845235D02*
X166522428Y-101821425D01*
X166522428Y-101821425D02*
X166498619Y-101797616D01*
X166498619Y-101797616D02*
X166474809Y-101749997D01*
X166974809Y-101107140D02*
X166974809Y-101392854D01*
X166974809Y-101249997D02*
X166474809Y-101249997D01*
X166474809Y-101249997D02*
X166546238Y-101297616D01*
X166546238Y-101297616D02*
X166593857Y-101345235D01*
X166593857Y-101345235D02*
X166617666Y-101392854D01*
X166474809Y-100940474D02*
X166474809Y-100630950D01*
X166474809Y-100630950D02*
X166665285Y-100797617D01*
X166665285Y-100797617D02*
X166665285Y-100726188D01*
X166665285Y-100726188D02*
X166689095Y-100678569D01*
X166689095Y-100678569D02*
X166712904Y-100654760D01*
X166712904Y-100654760D02*
X166760523Y-100630950D01*
X166760523Y-100630950D02*
X166879571Y-100630950D01*
X166879571Y-100630950D02*
X166927190Y-100654760D01*
X166927190Y-100654760D02*
X166951000Y-100678569D01*
X166951000Y-100678569D02*
X166974809Y-100726188D01*
X166974809Y-100726188D02*
X166974809Y-100869045D01*
X166974809Y-100869045D02*
X166951000Y-100916664D01*
X166951000Y-100916664D02*
X166927190Y-100940474D01*
X166474809Y-100464284D02*
X166474809Y-100130951D01*
X166474809Y-100130951D02*
X166974809Y-100345236D01*
X166474809Y-99845237D02*
X166474809Y-99797618D01*
X166474809Y-99797618D02*
X166498619Y-99749999D01*
X166498619Y-99749999D02*
X166522428Y-99726189D01*
X166522428Y-99726189D02*
X166570047Y-99702380D01*
X166570047Y-99702380D02*
X166665285Y-99678570D01*
X166665285Y-99678570D02*
X166784333Y-99678570D01*
X166784333Y-99678570D02*
X166879571Y-99702380D01*
X166879571Y-99702380D02*
X166927190Y-99726189D01*
X166927190Y-99726189D02*
X166951000Y-99749999D01*
X166951000Y-99749999D02*
X166974809Y-99797618D01*
X166974809Y-99797618D02*
X166974809Y-99845237D01*
X166974809Y-99845237D02*
X166951000Y-99892856D01*
X166951000Y-99892856D02*
X166927190Y-99916665D01*
X166927190Y-99916665D02*
X166879571Y-99940475D01*
X166879571Y-99940475D02*
X166784333Y-99964284D01*
X166784333Y-99964284D02*
X166665285Y-99964284D01*
X166665285Y-99964284D02*
X166570047Y-99940475D01*
X166570047Y-99940475D02*
X166522428Y-99916665D01*
X166522428Y-99916665D02*
X166498619Y-99892856D01*
X166498619Y-99892856D02*
X166474809Y-99845237D01*
X166474809Y-99249999D02*
X166474809Y-99345237D01*
X166474809Y-99345237D02*
X166498619Y-99392856D01*
X166498619Y-99392856D02*
X166522428Y-99416666D01*
X166522428Y-99416666D02*
X166593857Y-99464285D01*
X166593857Y-99464285D02*
X166689095Y-99488094D01*
X166689095Y-99488094D02*
X166879571Y-99488094D01*
X166879571Y-99488094D02*
X166927190Y-99464285D01*
X166927190Y-99464285D02*
X166951000Y-99440475D01*
X166951000Y-99440475D02*
X166974809Y-99392856D01*
X166974809Y-99392856D02*
X166974809Y-99297618D01*
X166974809Y-99297618D02*
X166951000Y-99249999D01*
X166951000Y-99249999D02*
X166927190Y-99226190D01*
X166927190Y-99226190D02*
X166879571Y-99202380D01*
X166879571Y-99202380D02*
X166760523Y-99202380D01*
X166760523Y-99202380D02*
X166712904Y-99226190D01*
X166712904Y-99226190D02*
X166689095Y-99249999D01*
X166689095Y-99249999D02*
X166665285Y-99297618D01*
X166665285Y-99297618D02*
X166665285Y-99392856D01*
X166665285Y-99392856D02*
X166689095Y-99440475D01*
X166689095Y-99440475D02*
X166712904Y-99464285D01*
X166712904Y-99464285D02*
X166760523Y-99488094D01*
X166522428Y-99011904D02*
X166498619Y-98988095D01*
X166498619Y-98988095D02*
X166474809Y-98940476D01*
X166474809Y-98940476D02*
X166474809Y-98821428D01*
X166474809Y-98821428D02*
X166498619Y-98773809D01*
X166498619Y-98773809D02*
X166522428Y-98750000D01*
X166522428Y-98750000D02*
X166570047Y-98726190D01*
X166570047Y-98726190D02*
X166617666Y-98726190D01*
X166617666Y-98726190D02*
X166689095Y-98750000D01*
X166689095Y-98750000D02*
X166974809Y-99035714D01*
X166974809Y-99035714D02*
X166974809Y-98726190D01*
X166784333Y-98511905D02*
X166784333Y-98130953D01*
X166474809Y-97797619D02*
X166474809Y-97750000D01*
X166474809Y-97750000D02*
X166498619Y-97702381D01*
X166498619Y-97702381D02*
X166522428Y-97678571D01*
X166522428Y-97678571D02*
X166570047Y-97654762D01*
X166570047Y-97654762D02*
X166665285Y-97630952D01*
X166665285Y-97630952D02*
X166784333Y-97630952D01*
X166784333Y-97630952D02*
X166879571Y-97654762D01*
X166879571Y-97654762D02*
X166927190Y-97678571D01*
X166927190Y-97678571D02*
X166951000Y-97702381D01*
X166951000Y-97702381D02*
X166974809Y-97750000D01*
X166974809Y-97750000D02*
X166974809Y-97797619D01*
X166974809Y-97797619D02*
X166951000Y-97845238D01*
X166951000Y-97845238D02*
X166927190Y-97869047D01*
X166927190Y-97869047D02*
X166879571Y-97892857D01*
X166879571Y-97892857D02*
X166784333Y-97916666D01*
X166784333Y-97916666D02*
X166665285Y-97916666D01*
X166665285Y-97916666D02*
X166570047Y-97892857D01*
X166570047Y-97892857D02*
X166522428Y-97869047D01*
X166522428Y-97869047D02*
X166498619Y-97845238D01*
X166498619Y-97845238D02*
X166474809Y-97797619D01*
X166474809Y-97321429D02*
X166474809Y-97273810D01*
X166474809Y-97273810D02*
X166498619Y-97226191D01*
X166498619Y-97226191D02*
X166522428Y-97202381D01*
X166522428Y-97202381D02*
X166570047Y-97178572D01*
X166570047Y-97178572D02*
X166665285Y-97154762D01*
X166665285Y-97154762D02*
X166784333Y-97154762D01*
X166784333Y-97154762D02*
X166879571Y-97178572D01*
X166879571Y-97178572D02*
X166927190Y-97202381D01*
X166927190Y-97202381D02*
X166951000Y-97226191D01*
X166951000Y-97226191D02*
X166974809Y-97273810D01*
X166974809Y-97273810D02*
X166974809Y-97321429D01*
X166974809Y-97321429D02*
X166951000Y-97369048D01*
X166951000Y-97369048D02*
X166927190Y-97392857D01*
X166927190Y-97392857D02*
X166879571Y-97416667D01*
X166879571Y-97416667D02*
X166784333Y-97440476D01*
X166784333Y-97440476D02*
X166665285Y-97440476D01*
X166665285Y-97440476D02*
X166570047Y-97416667D01*
X166570047Y-97416667D02*
X166522428Y-97392857D01*
X166522428Y-97392857D02*
X166498619Y-97369048D01*
X166498619Y-97369048D02*
X166474809Y-97321429D01*
X166474809Y-96845239D02*
X166474809Y-96797620D01*
X166474809Y-96797620D02*
X166498619Y-96750001D01*
X166498619Y-96750001D02*
X166522428Y-96726191D01*
X166522428Y-96726191D02*
X166570047Y-96702382D01*
X166570047Y-96702382D02*
X166665285Y-96678572D01*
X166665285Y-96678572D02*
X166784333Y-96678572D01*
X166784333Y-96678572D02*
X166879571Y-96702382D01*
X166879571Y-96702382D02*
X166927190Y-96726191D01*
X166927190Y-96726191D02*
X166951000Y-96750001D01*
X166951000Y-96750001D02*
X166974809Y-96797620D01*
X166974809Y-96797620D02*
X166974809Y-96845239D01*
X166974809Y-96845239D02*
X166951000Y-96892858D01*
X166951000Y-96892858D02*
X166927190Y-96916667D01*
X166927190Y-96916667D02*
X166879571Y-96940477D01*
X166879571Y-96940477D02*
X166784333Y-96964286D01*
X166784333Y-96964286D02*
X166665285Y-96964286D01*
X166665285Y-96964286D02*
X166570047Y-96940477D01*
X166570047Y-96940477D02*
X166522428Y-96916667D01*
X166522428Y-96916667D02*
X166498619Y-96892858D01*
X166498619Y-96892858D02*
X166474809Y-96845239D01*
X166522428Y-96488096D02*
X166498619Y-96464287D01*
X166498619Y-96464287D02*
X166474809Y-96416668D01*
X166474809Y-96416668D02*
X166474809Y-96297620D01*
X166474809Y-96297620D02*
X166498619Y-96250001D01*
X166498619Y-96250001D02*
X166522428Y-96226192D01*
X166522428Y-96226192D02*
X166570047Y-96202382D01*
X166570047Y-96202382D02*
X166617666Y-96202382D01*
X166617666Y-96202382D02*
X166689095Y-96226192D01*
X166689095Y-96226192D02*
X166974809Y-96511906D01*
X166974809Y-96511906D02*
X166974809Y-96202382D01*
X166974809Y-95726192D02*
X166974809Y-96011906D01*
X166974809Y-95869049D02*
X166474809Y-95869049D01*
X166474809Y-95869049D02*
X166546238Y-95916668D01*
X166546238Y-95916668D02*
X166593857Y-95964287D01*
X166593857Y-95964287D02*
X166617666Y-96011906D01*
X166974809Y-95273812D02*
X166974809Y-95511907D01*
X166974809Y-95511907D02*
X166474809Y-95511907D01*
X166712904Y-94940478D02*
X166712904Y-95107145D01*
X166974809Y-95107145D02*
X166474809Y-95107145D01*
X166474809Y-95107145D02*
X166474809Y-94869050D01*
X161524809Y-100166666D02*
X161881952Y-100166666D01*
X161881952Y-100166666D02*
X161953380Y-100190475D01*
X161953380Y-100190475D02*
X162001000Y-100238094D01*
X162001000Y-100238094D02*
X162024809Y-100309523D01*
X162024809Y-100309523D02*
X162024809Y-100357142D01*
X162024809Y-99666666D02*
X162024809Y-99952380D01*
X162024809Y-99809523D02*
X161524809Y-99809523D01*
X161524809Y-99809523D02*
X161596238Y-99857142D01*
X161596238Y-99857142D02*
X161643857Y-99904761D01*
X161643857Y-99904761D02*
X161667666Y-99952380D01*
X158331952Y-103857141D02*
X158331952Y-103619046D01*
X158474809Y-103904760D02*
X157974809Y-103738094D01*
X157974809Y-103738094D02*
X158474809Y-103571427D01*
X158474809Y-103142856D02*
X158474809Y-103428570D01*
X158474809Y-103285713D02*
X157974809Y-103285713D01*
X157974809Y-103285713D02*
X158046238Y-103333332D01*
X158046238Y-103333332D02*
X158093857Y-103380951D01*
X158093857Y-103380951D02*
X158117666Y-103428570D01*
X160212904Y-96952380D02*
X160236714Y-96880952D01*
X160236714Y-96880952D02*
X160260523Y-96857142D01*
X160260523Y-96857142D02*
X160308142Y-96833333D01*
X160308142Y-96833333D02*
X160379571Y-96833333D01*
X160379571Y-96833333D02*
X160427190Y-96857142D01*
X160427190Y-96857142D02*
X160451000Y-96880952D01*
X160451000Y-96880952D02*
X160474809Y-96928571D01*
X160474809Y-96928571D02*
X160474809Y-97119047D01*
X160474809Y-97119047D02*
X159974809Y-97119047D01*
X159974809Y-97119047D02*
X159974809Y-96952380D01*
X159974809Y-96952380D02*
X159998619Y-96904761D01*
X159998619Y-96904761D02*
X160022428Y-96880952D01*
X160022428Y-96880952D02*
X160070047Y-96857142D01*
X160070047Y-96857142D02*
X160117666Y-96857142D01*
X160117666Y-96857142D02*
X160165285Y-96880952D01*
X160165285Y-96880952D02*
X160189095Y-96904761D01*
X160189095Y-96904761D02*
X160212904Y-96952380D01*
X160212904Y-96952380D02*
X160212904Y-97119047D01*
X160474809Y-96357142D02*
X160474809Y-96642856D01*
X160474809Y-96499999D02*
X159974809Y-96499999D01*
X159974809Y-96499999D02*
X160046238Y-96547618D01*
X160046238Y-96547618D02*
X160093857Y-96595237D01*
X160093857Y-96595237D02*
X160117666Y-96642856D01*
X141380953Y-97022428D02*
X141404762Y-96998619D01*
X141404762Y-96998619D02*
X141452381Y-96974809D01*
X141452381Y-96974809D02*
X141571429Y-96974809D01*
X141571429Y-96974809D02*
X141619048Y-96998619D01*
X141619048Y-96998619D02*
X141642857Y-97022428D01*
X141642857Y-97022428D02*
X141666667Y-97070047D01*
X141666667Y-97070047D02*
X141666667Y-97117666D01*
X141666667Y-97117666D02*
X141642857Y-97189095D01*
X141642857Y-97189095D02*
X141357143Y-97474809D01*
X141357143Y-97474809D02*
X141666667Y-97474809D01*
X142095238Y-97141476D02*
X142095238Y-97474809D01*
X141976190Y-96951000D02*
X141857143Y-97308142D01*
X141857143Y-97308142D02*
X142166666Y-97308142D01*
X142380952Y-97474809D02*
X142476190Y-97474809D01*
X142476190Y-97474809D02*
X142523809Y-97451000D01*
X142523809Y-97451000D02*
X142547618Y-97427190D01*
X142547618Y-97427190D02*
X142595237Y-97355761D01*
X142595237Y-97355761D02*
X142619047Y-97260523D01*
X142619047Y-97260523D02*
X142619047Y-97070047D01*
X142619047Y-97070047D02*
X142595237Y-97022428D01*
X142595237Y-97022428D02*
X142571428Y-96998619D01*
X142571428Y-96998619D02*
X142523809Y-96974809D01*
X142523809Y-96974809D02*
X142428571Y-96974809D01*
X142428571Y-96974809D02*
X142380952Y-96998619D01*
X142380952Y-96998619D02*
X142357142Y-97022428D01*
X142357142Y-97022428D02*
X142333333Y-97070047D01*
X142333333Y-97070047D02*
X142333333Y-97189095D01*
X142333333Y-97189095D02*
X142357142Y-97236714D01*
X142357142Y-97236714D02*
X142380952Y-97260523D01*
X142380952Y-97260523D02*
X142428571Y-97284333D01*
X142428571Y-97284333D02*
X142523809Y-97284333D01*
X142523809Y-97284333D02*
X142571428Y-97260523D01*
X142571428Y-97260523D02*
X142595237Y-97236714D01*
X142595237Y-97236714D02*
X142619047Y-97189095D01*
D12*
X141956667Y-96618200D02*
X141870000Y-96494391D01*
X141808095Y-96618200D02*
X141808095Y-96358200D01*
X141808095Y-96358200D02*
X141907143Y-96358200D01*
X141907143Y-96358200D02*
X141931905Y-96370581D01*
X141931905Y-96370581D02*
X141944286Y-96382962D01*
X141944286Y-96382962D02*
X141956667Y-96407724D01*
X141956667Y-96407724D02*
X141956667Y-96444867D01*
X141956667Y-96444867D02*
X141944286Y-96469629D01*
X141944286Y-96469629D02*
X141931905Y-96482010D01*
X141931905Y-96482010D02*
X141907143Y-96494391D01*
X141907143Y-96494391D02*
X141808095Y-96494391D01*
X142080476Y-96618200D02*
X142130000Y-96618200D01*
X142130000Y-96618200D02*
X142154762Y-96605820D01*
X142154762Y-96605820D02*
X142167143Y-96593439D01*
X142167143Y-96593439D02*
X142191905Y-96556296D01*
X142191905Y-96556296D02*
X142204286Y-96506772D01*
X142204286Y-96506772D02*
X142204286Y-96407724D01*
X142204286Y-96407724D02*
X142191905Y-96382962D01*
X142191905Y-96382962D02*
X142179524Y-96370581D01*
X142179524Y-96370581D02*
X142154762Y-96358200D01*
X142154762Y-96358200D02*
X142105238Y-96358200D01*
X142105238Y-96358200D02*
X142080476Y-96370581D01*
X142080476Y-96370581D02*
X142068095Y-96382962D01*
X142068095Y-96382962D02*
X142055714Y-96407724D01*
X142055714Y-96407724D02*
X142055714Y-96469629D01*
X142055714Y-96469629D02*
X142068095Y-96494391D01*
X142068095Y-96494391D02*
X142080476Y-96506772D01*
X142080476Y-96506772D02*
X142105238Y-96519153D01*
X142105238Y-96519153D02*
X142154762Y-96519153D01*
X142154762Y-96519153D02*
X142179524Y-96506772D01*
X142179524Y-96506772D02*
X142191905Y-96494391D01*
X142191905Y-96494391D02*
X142204286Y-96469629D01*
D11*
X138464286Y-106062904D02*
X138297619Y-106062904D01*
X138297619Y-106324809D02*
X138297619Y-105824809D01*
X138297619Y-105824809D02*
X138535714Y-105824809D01*
X138726190Y-106324809D02*
X138726190Y-105824809D01*
X138964285Y-106324809D02*
X138964285Y-105824809D01*
X138964285Y-105824809D02*
X139083333Y-105824809D01*
X139083333Y-105824809D02*
X139154761Y-105848619D01*
X139154761Y-105848619D02*
X139202380Y-105896238D01*
X139202380Y-105896238D02*
X139226190Y-105943857D01*
X139226190Y-105943857D02*
X139249999Y-106039095D01*
X139249999Y-106039095D02*
X139249999Y-106110523D01*
X139249999Y-106110523D02*
X139226190Y-106205761D01*
X139226190Y-106205761D02*
X139202380Y-106253380D01*
X139202380Y-106253380D02*
X139154761Y-106301000D01*
X139154761Y-106301000D02*
X139083333Y-106324809D01*
X139083333Y-106324809D02*
X138964285Y-106324809D01*
X139726190Y-106324809D02*
X139440476Y-106324809D01*
X139583333Y-106324809D02*
X139583333Y-105824809D01*
X139583333Y-105824809D02*
X139535714Y-105896238D01*
X139535714Y-105896238D02*
X139488095Y-105943857D01*
X139488095Y-105943857D02*
X139440476Y-105967666D01*
D12*
X138785714Y-106985681D02*
X138719048Y-106985681D01*
X138719048Y-107090443D02*
X138719048Y-106890443D01*
X138719048Y-106890443D02*
X138814286Y-106890443D01*
X138890477Y-107090443D02*
X138890477Y-106890443D01*
X138985715Y-107090443D02*
X138985715Y-106890443D01*
X138985715Y-106890443D02*
X139033334Y-106890443D01*
X139033334Y-106890443D02*
X139061905Y-106899967D01*
X139061905Y-106899967D02*
X139080953Y-106919015D01*
X139080953Y-106919015D02*
X139090476Y-106938062D01*
X139090476Y-106938062D02*
X139100000Y-106976158D01*
X139100000Y-106976158D02*
X139100000Y-107004729D01*
X139100000Y-107004729D02*
X139090476Y-107042824D01*
X139090476Y-107042824D02*
X139080953Y-107061872D01*
X139080953Y-107061872D02*
X139061905Y-107080920D01*
X139061905Y-107080920D02*
X139033334Y-107090443D01*
X139033334Y-107090443D02*
X138985715Y-107090443D01*
X139290476Y-107090443D02*
X139176191Y-107090443D01*
X139233334Y-107090443D02*
X139233334Y-106890443D01*
X139233334Y-106890443D02*
X139214286Y-106919015D01*
X139214286Y-106919015D02*
X139195238Y-106938062D01*
X139195238Y-106938062D02*
X139176191Y-106947586D01*
D11*
X149824809Y-101976189D02*
X150229571Y-101976189D01*
X150229571Y-101976189D02*
X150277190Y-101952379D01*
X150277190Y-101952379D02*
X150301000Y-101928570D01*
X150301000Y-101928570D02*
X150324809Y-101880951D01*
X150324809Y-101880951D02*
X150324809Y-101785713D01*
X150324809Y-101785713D02*
X150301000Y-101738094D01*
X150301000Y-101738094D02*
X150277190Y-101714284D01*
X150277190Y-101714284D02*
X150229571Y-101690475D01*
X150229571Y-101690475D02*
X149824809Y-101690475D01*
X150181952Y-101476188D02*
X150181952Y-101238093D01*
X150324809Y-101523807D02*
X149824809Y-101357141D01*
X149824809Y-101357141D02*
X150324809Y-101190474D01*
X150062904Y-100857141D02*
X150062904Y-101023808D01*
X150324809Y-101023808D02*
X149824809Y-101023808D01*
X149824809Y-101023808D02*
X149824809Y-100785713D01*
X149991476Y-100380951D02*
X150324809Y-100380951D01*
X149801000Y-100499999D02*
X150158142Y-100619046D01*
X150158142Y-100619046D02*
X150158142Y-100309523D01*
X149872428Y-100142856D02*
X149848619Y-100119047D01*
X149848619Y-100119047D02*
X149824809Y-100071428D01*
X149824809Y-100071428D02*
X149824809Y-99952380D01*
X149824809Y-99952380D02*
X149848619Y-99904761D01*
X149848619Y-99904761D02*
X149872428Y-99880952D01*
X149872428Y-99880952D02*
X149920047Y-99857142D01*
X149920047Y-99857142D02*
X149967666Y-99857142D01*
X149967666Y-99857142D02*
X150039095Y-99880952D01*
X150039095Y-99880952D02*
X150324809Y-100166666D01*
X150324809Y-100166666D02*
X150324809Y-99857142D01*
X150372428Y-99761905D02*
X150372428Y-99380952D01*
X150301000Y-99285714D02*
X150324809Y-99214286D01*
X150324809Y-99214286D02*
X150324809Y-99095238D01*
X150324809Y-99095238D02*
X150301000Y-99047619D01*
X150301000Y-99047619D02*
X150277190Y-99023810D01*
X150277190Y-99023810D02*
X150229571Y-99000000D01*
X150229571Y-99000000D02*
X150181952Y-99000000D01*
X150181952Y-99000000D02*
X150134333Y-99023810D01*
X150134333Y-99023810D02*
X150110523Y-99047619D01*
X150110523Y-99047619D02*
X150086714Y-99095238D01*
X150086714Y-99095238D02*
X150062904Y-99190476D01*
X150062904Y-99190476D02*
X150039095Y-99238095D01*
X150039095Y-99238095D02*
X150015285Y-99261905D01*
X150015285Y-99261905D02*
X149967666Y-99285714D01*
X149967666Y-99285714D02*
X149920047Y-99285714D01*
X149920047Y-99285714D02*
X149872428Y-99261905D01*
X149872428Y-99261905D02*
X149848619Y-99238095D01*
X149848619Y-99238095D02*
X149824809Y-99190476D01*
X149824809Y-99190476D02*
X149824809Y-99071429D01*
X149824809Y-99071429D02*
X149848619Y-99000000D01*
X150324809Y-98785715D02*
X149824809Y-98785715D01*
X149824809Y-98785715D02*
X150181952Y-98619048D01*
X150181952Y-98619048D02*
X149824809Y-98452382D01*
X149824809Y-98452382D02*
X150324809Y-98452382D01*
X150181952Y-98238095D02*
X150181952Y-98000000D01*
X150324809Y-98285714D02*
X149824809Y-98119048D01*
X149824809Y-98119048D02*
X150324809Y-97952381D01*
X150724809Y-100380952D02*
X151129571Y-100380952D01*
X151129571Y-100380952D02*
X151177190Y-100357142D01*
X151177190Y-100357142D02*
X151201000Y-100333333D01*
X151201000Y-100333333D02*
X151224809Y-100285714D01*
X151224809Y-100285714D02*
X151224809Y-100190476D01*
X151224809Y-100190476D02*
X151201000Y-100142857D01*
X151201000Y-100142857D02*
X151177190Y-100119047D01*
X151177190Y-100119047D02*
X151129571Y-100095238D01*
X151129571Y-100095238D02*
X150724809Y-100095238D01*
X150772428Y-99880951D02*
X150748619Y-99857142D01*
X150748619Y-99857142D02*
X150724809Y-99809523D01*
X150724809Y-99809523D02*
X150724809Y-99690475D01*
X150724809Y-99690475D02*
X150748619Y-99642856D01*
X150748619Y-99642856D02*
X150772428Y-99619047D01*
X150772428Y-99619047D02*
X150820047Y-99595237D01*
X150820047Y-99595237D02*
X150867666Y-99595237D01*
X150867666Y-99595237D02*
X150939095Y-99619047D01*
X150939095Y-99619047D02*
X151224809Y-99904761D01*
X151224809Y-99904761D02*
X151224809Y-99595237D01*
X141464286Y-93474809D02*
X141178572Y-93474809D01*
X141321429Y-93474809D02*
X141321429Y-92974809D01*
X141321429Y-92974809D02*
X141273810Y-93046238D01*
X141273810Y-93046238D02*
X141226191Y-93093857D01*
X141226191Y-93093857D02*
X141178572Y-93117666D01*
X141916666Y-92974809D02*
X141678571Y-92974809D01*
X141678571Y-92974809D02*
X141654762Y-93212904D01*
X141654762Y-93212904D02*
X141678571Y-93189095D01*
X141678571Y-93189095D02*
X141726190Y-93165285D01*
X141726190Y-93165285D02*
X141845238Y-93165285D01*
X141845238Y-93165285D02*
X141892857Y-93189095D01*
X141892857Y-93189095D02*
X141916666Y-93212904D01*
X141916666Y-93212904D02*
X141940476Y-93260523D01*
X141940476Y-93260523D02*
X141940476Y-93379571D01*
X141940476Y-93379571D02*
X141916666Y-93427190D01*
X141916666Y-93427190D02*
X141892857Y-93451000D01*
X141892857Y-93451000D02*
X141845238Y-93474809D01*
X141845238Y-93474809D02*
X141726190Y-93474809D01*
X141726190Y-93474809D02*
X141678571Y-93451000D01*
X141678571Y-93451000D02*
X141654762Y-93427190D01*
X142249999Y-92974809D02*
X142297618Y-92974809D01*
X142297618Y-92974809D02*
X142345237Y-92998619D01*
X142345237Y-92998619D02*
X142369047Y-93022428D01*
X142369047Y-93022428D02*
X142392856Y-93070047D01*
X142392856Y-93070047D02*
X142416666Y-93165285D01*
X142416666Y-93165285D02*
X142416666Y-93284333D01*
X142416666Y-93284333D02*
X142392856Y-93379571D01*
X142392856Y-93379571D02*
X142369047Y-93427190D01*
X142369047Y-93427190D02*
X142345237Y-93451000D01*
X142345237Y-93451000D02*
X142297618Y-93474809D01*
X142297618Y-93474809D02*
X142249999Y-93474809D01*
X142249999Y-93474809D02*
X142202380Y-93451000D01*
X142202380Y-93451000D02*
X142178571Y-93427190D01*
X142178571Y-93427190D02*
X142154761Y-93379571D01*
X142154761Y-93379571D02*
X142130952Y-93284333D01*
X142130952Y-93284333D02*
X142130952Y-93165285D01*
X142130952Y-93165285D02*
X142154761Y-93070047D01*
X142154761Y-93070047D02*
X142178571Y-93022428D01*
X142178571Y-93022428D02*
X142202380Y-92998619D01*
X142202380Y-92998619D02*
X142249999Y-92974809D01*
X142630951Y-93474809D02*
X142630951Y-92974809D01*
X142678570Y-93284333D02*
X142821427Y-93474809D01*
X142821427Y-93141476D02*
X142630951Y-93331952D01*
D13*
X141485714Y-94859695D02*
X141219047Y-94478742D01*
X141028571Y-94859695D02*
X141028571Y-94059695D01*
X141028571Y-94059695D02*
X141333333Y-94059695D01*
X141333333Y-94059695D02*
X141409523Y-94097790D01*
X141409523Y-94097790D02*
X141447618Y-94135885D01*
X141447618Y-94135885D02*
X141485714Y-94212076D01*
X141485714Y-94212076D02*
X141485714Y-94326361D01*
X141485714Y-94326361D02*
X141447618Y-94402552D01*
X141447618Y-94402552D02*
X141409523Y-94440647D01*
X141409523Y-94440647D02*
X141333333Y-94478742D01*
X141333333Y-94478742D02*
X141028571Y-94478742D01*
X142247618Y-94859695D02*
X141790475Y-94859695D01*
X142019047Y-94859695D02*
X142019047Y-94059695D01*
X142019047Y-94059695D02*
X141942856Y-94173980D01*
X141942856Y-94173980D02*
X141866666Y-94250171D01*
X141866666Y-94250171D02*
X141790475Y-94288266D01*
X142742857Y-94059695D02*
X142819047Y-94059695D01*
X142819047Y-94059695D02*
X142895238Y-94097790D01*
X142895238Y-94097790D02*
X142933333Y-94135885D01*
X142933333Y-94135885D02*
X142971428Y-94212076D01*
X142971428Y-94212076D02*
X143009523Y-94364457D01*
X143009523Y-94364457D02*
X143009523Y-94554933D01*
X143009523Y-94554933D02*
X142971428Y-94707314D01*
X142971428Y-94707314D02*
X142933333Y-94783504D01*
X142933333Y-94783504D02*
X142895238Y-94821600D01*
X142895238Y-94821600D02*
X142819047Y-94859695D01*
X142819047Y-94859695D02*
X142742857Y-94859695D01*
X142742857Y-94859695D02*
X142666666Y-94821600D01*
X142666666Y-94821600D02*
X142628571Y-94783504D01*
X142628571Y-94783504D02*
X142590476Y-94707314D01*
X142590476Y-94707314D02*
X142552380Y-94554933D01*
X142552380Y-94554933D02*
X142552380Y-94364457D01*
X142552380Y-94364457D02*
X142590476Y-94212076D01*
X142590476Y-94212076D02*
X142628571Y-94135885D01*
X142628571Y-94135885D02*
X142666666Y-94097790D01*
X142666666Y-94097790D02*
X142742857Y-94059695D01*
D11*
X150891476Y-105952379D02*
X151224809Y-105952379D01*
X150701000Y-106071427D02*
X151058142Y-106190474D01*
X151058142Y-106190474D02*
X151058142Y-105880951D01*
X151224809Y-105666665D02*
X151224809Y-105571427D01*
X151224809Y-105571427D02*
X151201000Y-105523808D01*
X151201000Y-105523808D02*
X151177190Y-105499999D01*
X151177190Y-105499999D02*
X151105761Y-105452380D01*
X151105761Y-105452380D02*
X151010523Y-105428570D01*
X151010523Y-105428570D02*
X150820047Y-105428570D01*
X150820047Y-105428570D02*
X150772428Y-105452380D01*
X150772428Y-105452380D02*
X150748619Y-105476189D01*
X150748619Y-105476189D02*
X150724809Y-105523808D01*
X150724809Y-105523808D02*
X150724809Y-105619046D01*
X150724809Y-105619046D02*
X150748619Y-105666665D01*
X150748619Y-105666665D02*
X150772428Y-105690475D01*
X150772428Y-105690475D02*
X150820047Y-105714284D01*
X150820047Y-105714284D02*
X150939095Y-105714284D01*
X150939095Y-105714284D02*
X150986714Y-105690475D01*
X150986714Y-105690475D02*
X151010523Y-105666665D01*
X151010523Y-105666665D02*
X151034333Y-105619046D01*
X151034333Y-105619046D02*
X151034333Y-105523808D01*
X151034333Y-105523808D02*
X151010523Y-105476189D01*
X151010523Y-105476189D02*
X150986714Y-105452380D01*
X150986714Y-105452380D02*
X150939095Y-105428570D01*
X151177190Y-105214285D02*
X151201000Y-105190475D01*
X151201000Y-105190475D02*
X151224809Y-105214285D01*
X151224809Y-105214285D02*
X151201000Y-105238094D01*
X151201000Y-105238094D02*
X151177190Y-105214285D01*
X151177190Y-105214285D02*
X151224809Y-105214285D01*
X151224809Y-104952380D02*
X151224809Y-104857142D01*
X151224809Y-104857142D02*
X151201000Y-104809523D01*
X151201000Y-104809523D02*
X151177190Y-104785714D01*
X151177190Y-104785714D02*
X151105761Y-104738095D01*
X151105761Y-104738095D02*
X151010523Y-104714285D01*
X151010523Y-104714285D02*
X150820047Y-104714285D01*
X150820047Y-104714285D02*
X150772428Y-104738095D01*
X150772428Y-104738095D02*
X150748619Y-104761904D01*
X150748619Y-104761904D02*
X150724809Y-104809523D01*
X150724809Y-104809523D02*
X150724809Y-104904761D01*
X150724809Y-104904761D02*
X150748619Y-104952380D01*
X150748619Y-104952380D02*
X150772428Y-104976190D01*
X150772428Y-104976190D02*
X150820047Y-104999999D01*
X150820047Y-104999999D02*
X150939095Y-104999999D01*
X150939095Y-104999999D02*
X150986714Y-104976190D01*
X150986714Y-104976190D02*
X151010523Y-104952380D01*
X151010523Y-104952380D02*
X151034333Y-104904761D01*
X151034333Y-104904761D02*
X151034333Y-104809523D01*
X151034333Y-104809523D02*
X151010523Y-104761904D01*
X151010523Y-104761904D02*
X150986714Y-104738095D01*
X150986714Y-104738095D02*
X150939095Y-104714285D01*
X151224809Y-104500000D02*
X150724809Y-104500000D01*
X151034333Y-104452381D02*
X151224809Y-104309524D01*
X150891476Y-104309524D02*
X151081952Y-104500000D01*
D12*
X151118200Y-107043332D02*
X150994391Y-107129999D01*
X151118200Y-107191904D02*
X150858200Y-107191904D01*
X150858200Y-107191904D02*
X150858200Y-107092856D01*
X150858200Y-107092856D02*
X150870581Y-107068094D01*
X150870581Y-107068094D02*
X150882962Y-107055713D01*
X150882962Y-107055713D02*
X150907724Y-107043332D01*
X150907724Y-107043332D02*
X150944867Y-107043332D01*
X150944867Y-107043332D02*
X150969629Y-107055713D01*
X150969629Y-107055713D02*
X150982010Y-107068094D01*
X150982010Y-107068094D02*
X150994391Y-107092856D01*
X150994391Y-107092856D02*
X150994391Y-107191904D01*
X151118200Y-106795713D02*
X151118200Y-106944285D01*
X151118200Y-106869999D02*
X150858200Y-106869999D01*
X150858200Y-106869999D02*
X150895343Y-106894761D01*
X150895343Y-106894761D02*
X150920105Y-106919523D01*
X150920105Y-106919523D02*
X150932486Y-106944285D01*
D11*
X152452381Y-105724809D02*
X152761905Y-105724809D01*
X152761905Y-105724809D02*
X152595238Y-105915285D01*
X152595238Y-105915285D02*
X152666667Y-105915285D01*
X152666667Y-105915285D02*
X152714286Y-105939095D01*
X152714286Y-105939095D02*
X152738095Y-105962904D01*
X152738095Y-105962904D02*
X152761905Y-106010523D01*
X152761905Y-106010523D02*
X152761905Y-106129571D01*
X152761905Y-106129571D02*
X152738095Y-106177190D01*
X152738095Y-106177190D02*
X152714286Y-106201000D01*
X152714286Y-106201000D02*
X152666667Y-106224809D01*
X152666667Y-106224809D02*
X152523810Y-106224809D01*
X152523810Y-106224809D02*
X152476191Y-106201000D01*
X152476191Y-106201000D02*
X152452381Y-106177190D01*
X152976190Y-106177190D02*
X153000000Y-106201000D01*
X153000000Y-106201000D02*
X152976190Y-106224809D01*
X152976190Y-106224809D02*
X152952381Y-106201000D01*
X152952381Y-106201000D02*
X152976190Y-106177190D01*
X152976190Y-106177190D02*
X152976190Y-106224809D01*
X153428571Y-105724809D02*
X153333333Y-105724809D01*
X153333333Y-105724809D02*
X153285714Y-105748619D01*
X153285714Y-105748619D02*
X153261904Y-105772428D01*
X153261904Y-105772428D02*
X153214285Y-105843857D01*
X153214285Y-105843857D02*
X153190476Y-105939095D01*
X153190476Y-105939095D02*
X153190476Y-106129571D01*
X153190476Y-106129571D02*
X153214285Y-106177190D01*
X153214285Y-106177190D02*
X153238095Y-106201000D01*
X153238095Y-106201000D02*
X153285714Y-106224809D01*
X153285714Y-106224809D02*
X153380952Y-106224809D01*
X153380952Y-106224809D02*
X153428571Y-106201000D01*
X153428571Y-106201000D02*
X153452380Y-106177190D01*
X153452380Y-106177190D02*
X153476190Y-106129571D01*
X153476190Y-106129571D02*
X153476190Y-106010523D01*
X153476190Y-106010523D02*
X153452380Y-105962904D01*
X153452380Y-105962904D02*
X153428571Y-105939095D01*
X153428571Y-105939095D02*
X153380952Y-105915285D01*
X153380952Y-105915285D02*
X153285714Y-105915285D01*
X153285714Y-105915285D02*
X153238095Y-105939095D01*
X153238095Y-105939095D02*
X153214285Y-105962904D01*
X153214285Y-105962904D02*
X153190476Y-106010523D01*
X153928570Y-105724809D02*
X153690475Y-105724809D01*
X153690475Y-105724809D02*
X153666666Y-105962904D01*
X153666666Y-105962904D02*
X153690475Y-105939095D01*
X153690475Y-105939095D02*
X153738094Y-105915285D01*
X153738094Y-105915285D02*
X153857142Y-105915285D01*
X153857142Y-105915285D02*
X153904761Y-105939095D01*
X153904761Y-105939095D02*
X153928570Y-105962904D01*
X153928570Y-105962904D02*
X153952380Y-106010523D01*
X153952380Y-106010523D02*
X153952380Y-106129571D01*
X153952380Y-106129571D02*
X153928570Y-106177190D01*
X153928570Y-106177190D02*
X153904761Y-106201000D01*
X153904761Y-106201000D02*
X153857142Y-106224809D01*
X153857142Y-106224809D02*
X153738094Y-106224809D01*
X153738094Y-106224809D02*
X153690475Y-106201000D01*
X153690475Y-106201000D02*
X153666666Y-106177190D01*
X154166665Y-106224809D02*
X154166665Y-105724809D01*
X154166665Y-105724809D02*
X154333332Y-106081952D01*
X154333332Y-106081952D02*
X154499998Y-105724809D01*
X154499998Y-105724809D02*
X154499998Y-106224809D01*
D14*
X153433333Y-107181927D02*
X153300000Y-106991451D01*
X153204762Y-107181927D02*
X153204762Y-106781927D01*
X153204762Y-106781927D02*
X153357143Y-106781927D01*
X153357143Y-106781927D02*
X153395238Y-106800975D01*
X153395238Y-106800975D02*
X153414285Y-106820022D01*
X153414285Y-106820022D02*
X153433333Y-106858118D01*
X153433333Y-106858118D02*
X153433333Y-106915260D01*
X153433333Y-106915260D02*
X153414285Y-106953356D01*
X153414285Y-106953356D02*
X153395238Y-106972403D01*
X153395238Y-106972403D02*
X153357143Y-106991451D01*
X153357143Y-106991451D02*
X153204762Y-106991451D01*
X153795238Y-106781927D02*
X153604762Y-106781927D01*
X153604762Y-106781927D02*
X153585714Y-106972403D01*
X153585714Y-106972403D02*
X153604762Y-106953356D01*
X153604762Y-106953356D02*
X153642857Y-106934308D01*
X153642857Y-106934308D02*
X153738095Y-106934308D01*
X153738095Y-106934308D02*
X153776190Y-106953356D01*
X153776190Y-106953356D02*
X153795238Y-106972403D01*
X153795238Y-106972403D02*
X153814285Y-107010499D01*
X153814285Y-107010499D02*
X153814285Y-107105737D01*
X153814285Y-107105737D02*
X153795238Y-107143832D01*
X153795238Y-107143832D02*
X153776190Y-107162880D01*
X153776190Y-107162880D02*
X153738095Y-107181927D01*
X153738095Y-107181927D02*
X153642857Y-107181927D01*
X153642857Y-107181927D02*
X153604762Y-107162880D01*
X153604762Y-107162880D02*
X153585714Y-107143832D01*
D11*
X145452381Y-93724809D02*
X145761905Y-93724809D01*
X145761905Y-93724809D02*
X145595238Y-93915285D01*
X145595238Y-93915285D02*
X145666667Y-93915285D01*
X145666667Y-93915285D02*
X145714286Y-93939095D01*
X145714286Y-93939095D02*
X145738095Y-93962904D01*
X145738095Y-93962904D02*
X145761905Y-94010523D01*
X145761905Y-94010523D02*
X145761905Y-94129571D01*
X145761905Y-94129571D02*
X145738095Y-94177190D01*
X145738095Y-94177190D02*
X145714286Y-94201000D01*
X145714286Y-94201000D02*
X145666667Y-94224809D01*
X145666667Y-94224809D02*
X145523810Y-94224809D01*
X145523810Y-94224809D02*
X145476191Y-94201000D01*
X145476191Y-94201000D02*
X145452381Y-94177190D01*
X145976190Y-94177190D02*
X146000000Y-94201000D01*
X146000000Y-94201000D02*
X145976190Y-94224809D01*
X145976190Y-94224809D02*
X145952381Y-94201000D01*
X145952381Y-94201000D02*
X145976190Y-94177190D01*
X145976190Y-94177190D02*
X145976190Y-94224809D01*
X146428571Y-93724809D02*
X146333333Y-93724809D01*
X146333333Y-93724809D02*
X146285714Y-93748619D01*
X146285714Y-93748619D02*
X146261904Y-93772428D01*
X146261904Y-93772428D02*
X146214285Y-93843857D01*
X146214285Y-93843857D02*
X146190476Y-93939095D01*
X146190476Y-93939095D02*
X146190476Y-94129571D01*
X146190476Y-94129571D02*
X146214285Y-94177190D01*
X146214285Y-94177190D02*
X146238095Y-94201000D01*
X146238095Y-94201000D02*
X146285714Y-94224809D01*
X146285714Y-94224809D02*
X146380952Y-94224809D01*
X146380952Y-94224809D02*
X146428571Y-94201000D01*
X146428571Y-94201000D02*
X146452380Y-94177190D01*
X146452380Y-94177190D02*
X146476190Y-94129571D01*
X146476190Y-94129571D02*
X146476190Y-94010523D01*
X146476190Y-94010523D02*
X146452380Y-93962904D01*
X146452380Y-93962904D02*
X146428571Y-93939095D01*
X146428571Y-93939095D02*
X146380952Y-93915285D01*
X146380952Y-93915285D02*
X146285714Y-93915285D01*
X146285714Y-93915285D02*
X146238095Y-93939095D01*
X146238095Y-93939095D02*
X146214285Y-93962904D01*
X146214285Y-93962904D02*
X146190476Y-94010523D01*
X146928570Y-93724809D02*
X146690475Y-93724809D01*
X146690475Y-93724809D02*
X146666666Y-93962904D01*
X146666666Y-93962904D02*
X146690475Y-93939095D01*
X146690475Y-93939095D02*
X146738094Y-93915285D01*
X146738094Y-93915285D02*
X146857142Y-93915285D01*
X146857142Y-93915285D02*
X146904761Y-93939095D01*
X146904761Y-93939095D02*
X146928570Y-93962904D01*
X146928570Y-93962904D02*
X146952380Y-94010523D01*
X146952380Y-94010523D02*
X146952380Y-94129571D01*
X146952380Y-94129571D02*
X146928570Y-94177190D01*
X146928570Y-94177190D02*
X146904761Y-94201000D01*
X146904761Y-94201000D02*
X146857142Y-94224809D01*
X146857142Y-94224809D02*
X146738094Y-94224809D01*
X146738094Y-94224809D02*
X146690475Y-94201000D01*
X146690475Y-94201000D02*
X146666666Y-94177190D01*
X147166665Y-94224809D02*
X147166665Y-93724809D01*
X147166665Y-93724809D02*
X147333332Y-94081952D01*
X147333332Y-94081952D02*
X147499998Y-93724809D01*
X147499998Y-93724809D02*
X147499998Y-94224809D01*
D14*
X146433333Y-93181927D02*
X146300000Y-92991451D01*
X146204762Y-93181927D02*
X146204762Y-92781927D01*
X146204762Y-92781927D02*
X146357143Y-92781927D01*
X146357143Y-92781927D02*
X146395238Y-92800975D01*
X146395238Y-92800975D02*
X146414285Y-92820022D01*
X146414285Y-92820022D02*
X146433333Y-92858118D01*
X146433333Y-92858118D02*
X146433333Y-92915260D01*
X146433333Y-92915260D02*
X146414285Y-92953356D01*
X146414285Y-92953356D02*
X146395238Y-92972403D01*
X146395238Y-92972403D02*
X146357143Y-92991451D01*
X146357143Y-92991451D02*
X146204762Y-92991451D01*
X146566666Y-92781927D02*
X146833333Y-92781927D01*
X146833333Y-92781927D02*
X146661904Y-93181927D01*
D11*
X146224809Y-106071427D02*
X146224809Y-106023808D01*
X146224809Y-106023808D02*
X146248619Y-105976189D01*
X146248619Y-105976189D02*
X146272428Y-105952379D01*
X146272428Y-105952379D02*
X146320047Y-105928570D01*
X146320047Y-105928570D02*
X146415285Y-105904760D01*
X146415285Y-105904760D02*
X146534333Y-105904760D01*
X146534333Y-105904760D02*
X146629571Y-105928570D01*
X146629571Y-105928570D02*
X146677190Y-105952379D01*
X146677190Y-105952379D02*
X146701000Y-105976189D01*
X146701000Y-105976189D02*
X146724809Y-106023808D01*
X146724809Y-106023808D02*
X146724809Y-106071427D01*
X146724809Y-106071427D02*
X146701000Y-106119046D01*
X146701000Y-106119046D02*
X146677190Y-106142855D01*
X146677190Y-106142855D02*
X146629571Y-106166665D01*
X146629571Y-106166665D02*
X146534333Y-106190474D01*
X146534333Y-106190474D02*
X146415285Y-106190474D01*
X146415285Y-106190474D02*
X146320047Y-106166665D01*
X146320047Y-106166665D02*
X146272428Y-106142855D01*
X146272428Y-106142855D02*
X146248619Y-106119046D01*
X146248619Y-106119046D02*
X146224809Y-106071427D01*
X146677190Y-105690475D02*
X146701000Y-105666665D01*
X146701000Y-105666665D02*
X146724809Y-105690475D01*
X146724809Y-105690475D02*
X146701000Y-105714284D01*
X146701000Y-105714284D02*
X146677190Y-105690475D01*
X146677190Y-105690475D02*
X146724809Y-105690475D01*
X146724809Y-105190475D02*
X146724809Y-105476189D01*
X146724809Y-105333332D02*
X146224809Y-105333332D01*
X146224809Y-105333332D02*
X146296238Y-105380951D01*
X146296238Y-105380951D02*
X146343857Y-105428570D01*
X146343857Y-105428570D02*
X146367666Y-105476189D01*
X146391476Y-104761904D02*
X146724809Y-104761904D01*
X146391476Y-104976190D02*
X146653380Y-104976190D01*
X146653380Y-104976190D02*
X146701000Y-104952380D01*
X146701000Y-104952380D02*
X146724809Y-104904761D01*
X146724809Y-104904761D02*
X146724809Y-104833333D01*
X146724809Y-104833333D02*
X146701000Y-104785714D01*
X146701000Y-104785714D02*
X146677190Y-104761904D01*
X146462904Y-104357142D02*
X146462904Y-104523809D01*
X146724809Y-104523809D02*
X146224809Y-104523809D01*
X146224809Y-104523809D02*
X146224809Y-104285714D01*
D12*
X146589765Y-107041666D02*
X146601670Y-107053570D01*
X146601670Y-107053570D02*
X146613574Y-107089285D01*
X146613574Y-107089285D02*
X146613574Y-107113094D01*
X146613574Y-107113094D02*
X146601670Y-107148808D01*
X146601670Y-107148808D02*
X146577860Y-107172618D01*
X146577860Y-107172618D02*
X146554050Y-107184523D01*
X146554050Y-107184523D02*
X146506431Y-107196427D01*
X146506431Y-107196427D02*
X146470717Y-107196427D01*
X146470717Y-107196427D02*
X146423098Y-107184523D01*
X146423098Y-107184523D02*
X146399289Y-107172618D01*
X146399289Y-107172618D02*
X146375479Y-107148808D01*
X146375479Y-107148808D02*
X146363574Y-107113094D01*
X146363574Y-107113094D02*
X146363574Y-107089285D01*
X146363574Y-107089285D02*
X146375479Y-107053570D01*
X146375479Y-107053570D02*
X146387384Y-107041666D01*
X146470717Y-106898808D02*
X146458812Y-106922618D01*
X146458812Y-106922618D02*
X146446908Y-106934523D01*
X146446908Y-106934523D02*
X146423098Y-106946427D01*
X146423098Y-106946427D02*
X146411193Y-106946427D01*
X146411193Y-106946427D02*
X146387384Y-106934523D01*
X146387384Y-106934523D02*
X146375479Y-106922618D01*
X146375479Y-106922618D02*
X146363574Y-106898808D01*
X146363574Y-106898808D02*
X146363574Y-106851189D01*
X146363574Y-106851189D02*
X146375479Y-106827380D01*
X146375479Y-106827380D02*
X146387384Y-106815475D01*
X146387384Y-106815475D02*
X146411193Y-106803570D01*
X146411193Y-106803570D02*
X146423098Y-106803570D01*
X146423098Y-106803570D02*
X146446908Y-106815475D01*
X146446908Y-106815475D02*
X146458812Y-106827380D01*
X146458812Y-106827380D02*
X146470717Y-106851189D01*
X146470717Y-106851189D02*
X146470717Y-106898808D01*
X146470717Y-106898808D02*
X146482622Y-106922618D01*
X146482622Y-106922618D02*
X146494527Y-106934523D01*
X146494527Y-106934523D02*
X146518336Y-106946427D01*
X146518336Y-106946427D02*
X146565955Y-106946427D01*
X146565955Y-106946427D02*
X146589765Y-106934523D01*
X146589765Y-106934523D02*
X146601670Y-106922618D01*
X146601670Y-106922618D02*
X146613574Y-106898808D01*
X146613574Y-106898808D02*
X146613574Y-106851189D01*
X146613574Y-106851189D02*
X146601670Y-106827380D01*
X146601670Y-106827380D02*
X146589765Y-106815475D01*
X146589765Y-106815475D02*
X146565955Y-106803570D01*
X146565955Y-106803570D02*
X146518336Y-106803570D01*
X146518336Y-106803570D02*
X146494527Y-106815475D01*
X146494527Y-106815475D02*
X146482622Y-106827380D01*
X146482622Y-106827380D02*
X146470717Y-106851189D01*
D11*
X140775190Y-97785713D02*
X141275190Y-97785713D01*
X141275190Y-97785713D02*
X141275190Y-97976189D01*
X141275190Y-97976189D02*
X141251380Y-98023808D01*
X141251380Y-98023808D02*
X141227571Y-98047618D01*
X141227571Y-98047618D02*
X141179952Y-98071427D01*
X141179952Y-98071427D02*
X141108523Y-98071427D01*
X141108523Y-98071427D02*
X141060904Y-98047618D01*
X141060904Y-98047618D02*
X141037095Y-98023808D01*
X141037095Y-98023808D02*
X141013285Y-97976189D01*
X141013285Y-97976189D02*
X141013285Y-97785713D01*
X140775190Y-98285713D02*
X141275190Y-98285713D01*
X141037095Y-98285713D02*
X141037095Y-98571427D01*
X140775190Y-98571427D02*
X141275190Y-98571427D01*
X141275190Y-98904761D02*
X141275190Y-98999999D01*
X141275190Y-98999999D02*
X141251380Y-99047618D01*
X141251380Y-99047618D02*
X141203761Y-99095237D01*
X141203761Y-99095237D02*
X141108523Y-99119047D01*
X141108523Y-99119047D02*
X140941857Y-99119047D01*
X140941857Y-99119047D02*
X140846619Y-99095237D01*
X140846619Y-99095237D02*
X140799000Y-99047618D01*
X140799000Y-99047618D02*
X140775190Y-98999999D01*
X140775190Y-98999999D02*
X140775190Y-98904761D01*
X140775190Y-98904761D02*
X140799000Y-98857142D01*
X140799000Y-98857142D02*
X140846619Y-98809523D01*
X140846619Y-98809523D02*
X140941857Y-98785714D01*
X140941857Y-98785714D02*
X141108523Y-98785714D01*
X141108523Y-98785714D02*
X141203761Y-98809523D01*
X141203761Y-98809523D02*
X141251380Y-98857142D01*
X141251380Y-98857142D02*
X141275190Y-98904761D01*
X141275190Y-99261905D02*
X141275190Y-99547619D01*
X140775190Y-99404762D02*
X141275190Y-99404762D01*
X141275190Y-99809523D02*
X141275190Y-99904761D01*
X141275190Y-99904761D02*
X141251380Y-99952380D01*
X141251380Y-99952380D02*
X141203761Y-99999999D01*
X141203761Y-99999999D02*
X141108523Y-100023809D01*
X141108523Y-100023809D02*
X140941857Y-100023809D01*
X140941857Y-100023809D02*
X140846619Y-99999999D01*
X140846619Y-99999999D02*
X140799000Y-99952380D01*
X140799000Y-99952380D02*
X140775190Y-99904761D01*
X140775190Y-99904761D02*
X140775190Y-99809523D01*
X140775190Y-99809523D02*
X140799000Y-99761904D01*
X140799000Y-99761904D02*
X140846619Y-99714285D01*
X140846619Y-99714285D02*
X140941857Y-99690476D01*
X140941857Y-99690476D02*
X141108523Y-99690476D01*
X141108523Y-99690476D02*
X141203761Y-99714285D01*
X141203761Y-99714285D02*
X141251380Y-99761904D01*
X141251380Y-99761904D02*
X141275190Y-99809523D01*
X140775190Y-100238095D02*
X141275190Y-100238095D01*
X141275190Y-100238095D02*
X141275190Y-100357143D01*
X141275190Y-100357143D02*
X141251380Y-100428571D01*
X141251380Y-100428571D02*
X141203761Y-100476190D01*
X141203761Y-100476190D02*
X141156142Y-100500000D01*
X141156142Y-100500000D02*
X141060904Y-100523809D01*
X141060904Y-100523809D02*
X140989476Y-100523809D01*
X140989476Y-100523809D02*
X140894238Y-100500000D01*
X140894238Y-100500000D02*
X140846619Y-100476190D01*
X140846619Y-100476190D02*
X140799000Y-100428571D01*
X140799000Y-100428571D02*
X140775190Y-100357143D01*
X140775190Y-100357143D02*
X140775190Y-100238095D01*
X140775190Y-100738095D02*
X141275190Y-100738095D01*
X141275190Y-101071428D02*
X141275190Y-101166666D01*
X141275190Y-101166666D02*
X141251380Y-101214285D01*
X141251380Y-101214285D02*
X141203761Y-101261904D01*
X141203761Y-101261904D02*
X141108523Y-101285714D01*
X141108523Y-101285714D02*
X140941857Y-101285714D01*
X140941857Y-101285714D02*
X140846619Y-101261904D01*
X140846619Y-101261904D02*
X140799000Y-101214285D01*
X140799000Y-101214285D02*
X140775190Y-101166666D01*
X140775190Y-101166666D02*
X140775190Y-101071428D01*
X140775190Y-101071428D02*
X140799000Y-101023809D01*
X140799000Y-101023809D02*
X140846619Y-100976190D01*
X140846619Y-100976190D02*
X140941857Y-100952381D01*
X140941857Y-100952381D02*
X141108523Y-100952381D01*
X141108523Y-100952381D02*
X141203761Y-100976190D01*
X141203761Y-100976190D02*
X141251380Y-101023809D01*
X141251380Y-101023809D02*
X141275190Y-101071428D01*
X140775190Y-101500000D02*
X141275190Y-101500000D01*
X141275190Y-101500000D02*
X141275190Y-101619048D01*
X141275190Y-101619048D02*
X141251380Y-101690476D01*
X141251380Y-101690476D02*
X141203761Y-101738095D01*
X141203761Y-101738095D02*
X141156142Y-101761905D01*
X141156142Y-101761905D02*
X141060904Y-101785714D01*
X141060904Y-101785714D02*
X140989476Y-101785714D01*
X140989476Y-101785714D02*
X140894238Y-101761905D01*
X140894238Y-101761905D02*
X140846619Y-101738095D01*
X140846619Y-101738095D02*
X140799000Y-101690476D01*
X140799000Y-101690476D02*
X140775190Y-101619048D01*
X140775190Y-101619048D02*
X140775190Y-101500000D01*
X141037095Y-102000000D02*
X141037095Y-102166667D01*
X140775190Y-102238095D02*
X140775190Y-102000000D01*
X140775190Y-102000000D02*
X141275190Y-102000000D01*
X141275190Y-102000000D02*
X141275190Y-102238095D01*
X136200190Y-99630952D02*
X136700190Y-99630952D01*
X136700190Y-99630952D02*
X136700190Y-99750000D01*
X136700190Y-99750000D02*
X136676380Y-99821428D01*
X136676380Y-99821428D02*
X136628761Y-99869047D01*
X136628761Y-99869047D02*
X136581142Y-99892857D01*
X136581142Y-99892857D02*
X136485904Y-99916666D01*
X136485904Y-99916666D02*
X136414476Y-99916666D01*
X136414476Y-99916666D02*
X136319238Y-99892857D01*
X136319238Y-99892857D02*
X136271619Y-99869047D01*
X136271619Y-99869047D02*
X136224000Y-99821428D01*
X136224000Y-99821428D02*
X136200190Y-99750000D01*
X136200190Y-99750000D02*
X136200190Y-99630952D01*
X136200190Y-100392857D02*
X136200190Y-100107143D01*
X136200190Y-100250000D02*
X136700190Y-100250000D01*
X136700190Y-100250000D02*
X136628761Y-100202381D01*
X136628761Y-100202381D02*
X136581142Y-100154762D01*
X136581142Y-100154762D02*
X136557333Y-100107143D01*
X139261905Y-102924809D02*
X139261905Y-103329571D01*
X139261905Y-103329571D02*
X139285715Y-103377190D01*
X139285715Y-103377190D02*
X139309524Y-103401000D01*
X139309524Y-103401000D02*
X139357143Y-103424809D01*
X139357143Y-103424809D02*
X139452381Y-103424809D01*
X139452381Y-103424809D02*
X139500000Y-103401000D01*
X139500000Y-103401000D02*
X139523810Y-103377190D01*
X139523810Y-103377190D02*
X139547619Y-103329571D01*
X139547619Y-103329571D02*
X139547619Y-102924809D01*
X139785715Y-103424809D02*
X139785715Y-102924809D01*
X139785715Y-102924809D02*
X139952382Y-103281952D01*
X139952382Y-103281952D02*
X140119048Y-102924809D01*
X140119048Y-102924809D02*
X140119048Y-103424809D01*
X140642858Y-103377190D02*
X140619049Y-103401000D01*
X140619049Y-103401000D02*
X140547620Y-103424809D01*
X140547620Y-103424809D02*
X140500001Y-103424809D01*
X140500001Y-103424809D02*
X140428573Y-103401000D01*
X140428573Y-103401000D02*
X140380954Y-103353380D01*
X140380954Y-103353380D02*
X140357144Y-103305761D01*
X140357144Y-103305761D02*
X140333335Y-103210523D01*
X140333335Y-103210523D02*
X140333335Y-103139095D01*
X140333335Y-103139095D02*
X140357144Y-103043857D01*
X140357144Y-103043857D02*
X140380954Y-102996238D01*
X140380954Y-102996238D02*
X140428573Y-102948619D01*
X140428573Y-102948619D02*
X140500001Y-102924809D01*
X140500001Y-102924809D02*
X140547620Y-102924809D01*
X140547620Y-102924809D02*
X140619049Y-102948619D01*
X140619049Y-102948619D02*
X140642858Y-102972428D01*
X140738097Y-103472428D02*
X141119049Y-103472428D01*
X141380953Y-102924809D02*
X141380953Y-103281952D01*
X141380953Y-103281952D02*
X141357144Y-103353380D01*
X141357144Y-103353380D02*
X141309525Y-103401000D01*
X141309525Y-103401000D02*
X141238096Y-103424809D01*
X141238096Y-103424809D02*
X141190477Y-103424809D01*
X141595239Y-103281952D02*
X141833334Y-103281952D01*
X141547620Y-103424809D02*
X141714286Y-102924809D01*
X141714286Y-102924809D02*
X141880953Y-103424809D01*
X142333333Y-103377190D02*
X142309524Y-103401000D01*
X142309524Y-103401000D02*
X142238095Y-103424809D01*
X142238095Y-103424809D02*
X142190476Y-103424809D01*
X142190476Y-103424809D02*
X142119048Y-103401000D01*
X142119048Y-103401000D02*
X142071429Y-103353380D01*
X142071429Y-103353380D02*
X142047619Y-103305761D01*
X142047619Y-103305761D02*
X142023810Y-103210523D01*
X142023810Y-103210523D02*
X142023810Y-103139095D01*
X142023810Y-103139095D02*
X142047619Y-103043857D01*
X142047619Y-103043857D02*
X142071429Y-102996238D01*
X142071429Y-102996238D02*
X142119048Y-102948619D01*
X142119048Y-102948619D02*
X142190476Y-102924809D01*
X142190476Y-102924809D02*
X142238095Y-102924809D01*
X142238095Y-102924809D02*
X142309524Y-102948619D01*
X142309524Y-102948619D02*
X142333333Y-102972428D01*
X142547619Y-103424809D02*
X142547619Y-102924809D01*
X142833333Y-103424809D02*
X142619048Y-103139095D01*
X142833333Y-102924809D02*
X142547619Y-103210523D01*
X142928572Y-103472428D02*
X143309524Y-103472428D01*
X143404762Y-103401000D02*
X143476190Y-103424809D01*
X143476190Y-103424809D02*
X143595238Y-103424809D01*
X143595238Y-103424809D02*
X143642857Y-103401000D01*
X143642857Y-103401000D02*
X143666666Y-103377190D01*
X143666666Y-103377190D02*
X143690476Y-103329571D01*
X143690476Y-103329571D02*
X143690476Y-103281952D01*
X143690476Y-103281952D02*
X143666666Y-103234333D01*
X143666666Y-103234333D02*
X143642857Y-103210523D01*
X143642857Y-103210523D02*
X143595238Y-103186714D01*
X143595238Y-103186714D02*
X143500000Y-103162904D01*
X143500000Y-103162904D02*
X143452381Y-103139095D01*
X143452381Y-103139095D02*
X143428571Y-103115285D01*
X143428571Y-103115285D02*
X143404762Y-103067666D01*
X143404762Y-103067666D02*
X143404762Y-103020047D01*
X143404762Y-103020047D02*
X143428571Y-102972428D01*
X143428571Y-102972428D02*
X143452381Y-102948619D01*
X143452381Y-102948619D02*
X143500000Y-102924809D01*
X143500000Y-102924809D02*
X143619047Y-102924809D01*
X143619047Y-102924809D02*
X143690476Y-102948619D01*
X143904761Y-103424809D02*
X143904761Y-102924809D01*
X143904761Y-102924809D02*
X144071428Y-103281952D01*
X144071428Y-103281952D02*
X144238094Y-102924809D01*
X144238094Y-102924809D02*
X144238094Y-103424809D01*
X144476190Y-103424809D02*
X144476190Y-102924809D01*
X144476190Y-102924809D02*
X144595238Y-102924809D01*
X144595238Y-102924809D02*
X144666666Y-102948619D01*
X144666666Y-102948619D02*
X144714285Y-102996238D01*
X144714285Y-102996238D02*
X144738095Y-103043857D01*
X144738095Y-103043857D02*
X144761904Y-103139095D01*
X144761904Y-103139095D02*
X144761904Y-103210523D01*
X144761904Y-103210523D02*
X144738095Y-103305761D01*
X144738095Y-103305761D02*
X144714285Y-103353380D01*
X144714285Y-103353380D02*
X144666666Y-103401000D01*
X144666666Y-103401000D02*
X144595238Y-103424809D01*
X144595238Y-103424809D02*
X144476190Y-103424809D01*
X147724809Y-106071427D02*
X147724809Y-106023808D01*
X147724809Y-106023808D02*
X147748619Y-105976189D01*
X147748619Y-105976189D02*
X147772428Y-105952379D01*
X147772428Y-105952379D02*
X147820047Y-105928570D01*
X147820047Y-105928570D02*
X147915285Y-105904760D01*
X147915285Y-105904760D02*
X148034333Y-105904760D01*
X148034333Y-105904760D02*
X148129571Y-105928570D01*
X148129571Y-105928570D02*
X148177190Y-105952379D01*
X148177190Y-105952379D02*
X148201000Y-105976189D01*
X148201000Y-105976189D02*
X148224809Y-106023808D01*
X148224809Y-106023808D02*
X148224809Y-106071427D01*
X148224809Y-106071427D02*
X148201000Y-106119046D01*
X148201000Y-106119046D02*
X148177190Y-106142855D01*
X148177190Y-106142855D02*
X148129571Y-106166665D01*
X148129571Y-106166665D02*
X148034333Y-106190474D01*
X148034333Y-106190474D02*
X147915285Y-106190474D01*
X147915285Y-106190474D02*
X147820047Y-106166665D01*
X147820047Y-106166665D02*
X147772428Y-106142855D01*
X147772428Y-106142855D02*
X147748619Y-106119046D01*
X147748619Y-106119046D02*
X147724809Y-106071427D01*
X148177190Y-105690475D02*
X148201000Y-105666665D01*
X148201000Y-105666665D02*
X148224809Y-105690475D01*
X148224809Y-105690475D02*
X148201000Y-105714284D01*
X148201000Y-105714284D02*
X148177190Y-105690475D01*
X148177190Y-105690475D02*
X148224809Y-105690475D01*
X148224809Y-105190475D02*
X148224809Y-105476189D01*
X148224809Y-105333332D02*
X147724809Y-105333332D01*
X147724809Y-105333332D02*
X147796238Y-105380951D01*
X147796238Y-105380951D02*
X147843857Y-105428570D01*
X147843857Y-105428570D02*
X147867666Y-105476189D01*
X147891476Y-104761904D02*
X148224809Y-104761904D01*
X147891476Y-104976190D02*
X148153380Y-104976190D01*
X148153380Y-104976190D02*
X148201000Y-104952380D01*
X148201000Y-104952380D02*
X148224809Y-104904761D01*
X148224809Y-104904761D02*
X148224809Y-104833333D01*
X148224809Y-104833333D02*
X148201000Y-104785714D01*
X148201000Y-104785714D02*
X148177190Y-104761904D01*
X147962904Y-104357142D02*
X147962904Y-104523809D01*
X148224809Y-104523809D02*
X147724809Y-104523809D01*
X147724809Y-104523809D02*
X147724809Y-104285714D01*
D12*
X148089765Y-107041666D02*
X148101670Y-107053570D01*
X148101670Y-107053570D02*
X148113574Y-107089285D01*
X148113574Y-107089285D02*
X148113574Y-107113094D01*
X148113574Y-107113094D02*
X148101670Y-107148808D01*
X148101670Y-107148808D02*
X148077860Y-107172618D01*
X148077860Y-107172618D02*
X148054050Y-107184523D01*
X148054050Y-107184523D02*
X148006431Y-107196427D01*
X148006431Y-107196427D02*
X147970717Y-107196427D01*
X147970717Y-107196427D02*
X147923098Y-107184523D01*
X147923098Y-107184523D02*
X147899289Y-107172618D01*
X147899289Y-107172618D02*
X147875479Y-107148808D01*
X147875479Y-107148808D02*
X147863574Y-107113094D01*
X147863574Y-107113094D02*
X147863574Y-107089285D01*
X147863574Y-107089285D02*
X147875479Y-107053570D01*
X147875479Y-107053570D02*
X147887384Y-107041666D01*
X147863574Y-106827380D02*
X147863574Y-106874999D01*
X147863574Y-106874999D02*
X147875479Y-106898808D01*
X147875479Y-106898808D02*
X147887384Y-106910713D01*
X147887384Y-106910713D02*
X147923098Y-106934523D01*
X147923098Y-106934523D02*
X147970717Y-106946427D01*
X147970717Y-106946427D02*
X148065955Y-106946427D01*
X148065955Y-106946427D02*
X148089765Y-106934523D01*
X148089765Y-106934523D02*
X148101670Y-106922618D01*
X148101670Y-106922618D02*
X148113574Y-106898808D01*
X148113574Y-106898808D02*
X148113574Y-106851189D01*
X148113574Y-106851189D02*
X148101670Y-106827380D01*
X148101670Y-106827380D02*
X148089765Y-106815475D01*
X148089765Y-106815475D02*
X148065955Y-106803570D01*
X148065955Y-106803570D02*
X148006431Y-106803570D01*
X148006431Y-106803570D02*
X147982622Y-106815475D01*
X147982622Y-106815475D02*
X147970717Y-106827380D01*
X147970717Y-106827380D02*
X147958812Y-106851189D01*
X147958812Y-106851189D02*
X147958812Y-106898808D01*
X147958812Y-106898808D02*
X147970717Y-106922618D01*
X147970717Y-106922618D02*
X147982622Y-106934523D01*
X147982622Y-106934523D02*
X148006431Y-106946427D01*
D11*
X160714286Y-92062904D02*
X160547619Y-92062904D01*
X160547619Y-92324809D02*
X160547619Y-91824809D01*
X160547619Y-91824809D02*
X160785714Y-91824809D01*
X160976190Y-92324809D02*
X160976190Y-91824809D01*
X161214285Y-92324809D02*
X161214285Y-91824809D01*
X161214285Y-91824809D02*
X161333333Y-91824809D01*
X161333333Y-91824809D02*
X161404761Y-91848619D01*
X161404761Y-91848619D02*
X161452380Y-91896238D01*
X161452380Y-91896238D02*
X161476190Y-91943857D01*
X161476190Y-91943857D02*
X161499999Y-92039095D01*
X161499999Y-92039095D02*
X161499999Y-92110523D01*
X161499999Y-92110523D02*
X161476190Y-92205761D01*
X161476190Y-92205761D02*
X161452380Y-92253380D01*
X161452380Y-92253380D02*
X161404761Y-92301000D01*
X161404761Y-92301000D02*
X161333333Y-92324809D01*
X161333333Y-92324809D02*
X161214285Y-92324809D01*
X161666666Y-91824809D02*
X161976190Y-91824809D01*
X161976190Y-91824809D02*
X161809523Y-92015285D01*
X161809523Y-92015285D02*
X161880952Y-92015285D01*
X161880952Y-92015285D02*
X161928571Y-92039095D01*
X161928571Y-92039095D02*
X161952380Y-92062904D01*
X161952380Y-92062904D02*
X161976190Y-92110523D01*
X161976190Y-92110523D02*
X161976190Y-92229571D01*
X161976190Y-92229571D02*
X161952380Y-92277190D01*
X161952380Y-92277190D02*
X161928571Y-92301000D01*
X161928571Y-92301000D02*
X161880952Y-92324809D01*
X161880952Y-92324809D02*
X161738095Y-92324809D01*
X161738095Y-92324809D02*
X161690476Y-92301000D01*
X161690476Y-92301000D02*
X161666666Y-92277190D01*
D12*
X161035714Y-92985681D02*
X160969048Y-92985681D01*
X160969048Y-93090443D02*
X160969048Y-92890443D01*
X160969048Y-92890443D02*
X161064286Y-92890443D01*
X161140477Y-93090443D02*
X161140477Y-92890443D01*
X161235715Y-93090443D02*
X161235715Y-92890443D01*
X161235715Y-92890443D02*
X161283334Y-92890443D01*
X161283334Y-92890443D02*
X161311905Y-92899967D01*
X161311905Y-92899967D02*
X161330953Y-92919015D01*
X161330953Y-92919015D02*
X161340476Y-92938062D01*
X161340476Y-92938062D02*
X161350000Y-92976158D01*
X161350000Y-92976158D02*
X161350000Y-93004729D01*
X161350000Y-93004729D02*
X161340476Y-93042824D01*
X161340476Y-93042824D02*
X161330953Y-93061872D01*
X161330953Y-93061872D02*
X161311905Y-93080920D01*
X161311905Y-93080920D02*
X161283334Y-93090443D01*
X161283334Y-93090443D02*
X161235715Y-93090443D01*
X161416667Y-92890443D02*
X161540476Y-92890443D01*
X161540476Y-92890443D02*
X161473810Y-92966634D01*
X161473810Y-92966634D02*
X161502381Y-92966634D01*
X161502381Y-92966634D02*
X161521429Y-92976158D01*
X161521429Y-92976158D02*
X161530953Y-92985681D01*
X161530953Y-92985681D02*
X161540476Y-93004729D01*
X161540476Y-93004729D02*
X161540476Y-93052348D01*
X161540476Y-93052348D02*
X161530953Y-93071396D01*
X161530953Y-93071396D02*
X161521429Y-93080920D01*
X161521429Y-93080920D02*
X161502381Y-93090443D01*
X161502381Y-93090443D02*
X161445238Y-93090443D01*
X161445238Y-93090443D02*
X161426191Y-93080920D01*
X161426191Y-93080920D02*
X161416667Y-93071396D01*
D11*
X152297620Y-93474809D02*
X152202382Y-93474809D01*
X152202382Y-93474809D02*
X152154763Y-93498619D01*
X152154763Y-93498619D02*
X152130953Y-93522428D01*
X152130953Y-93522428D02*
X152083334Y-93593857D01*
X152083334Y-93593857D02*
X152059525Y-93689095D01*
X152059525Y-93689095D02*
X152059525Y-93879571D01*
X152059525Y-93879571D02*
X152083334Y-93927190D01*
X152083334Y-93927190D02*
X152107144Y-93951000D01*
X152107144Y-93951000D02*
X152154763Y-93974809D01*
X152154763Y-93974809D02*
X152250001Y-93974809D01*
X152250001Y-93974809D02*
X152297620Y-93951000D01*
X152297620Y-93951000D02*
X152321429Y-93927190D01*
X152321429Y-93927190D02*
X152345239Y-93879571D01*
X152345239Y-93879571D02*
X152345239Y-93760523D01*
X152345239Y-93760523D02*
X152321429Y-93712904D01*
X152321429Y-93712904D02*
X152297620Y-93689095D01*
X152297620Y-93689095D02*
X152250001Y-93665285D01*
X152250001Y-93665285D02*
X152154763Y-93665285D01*
X152154763Y-93665285D02*
X152107144Y-93689095D01*
X152107144Y-93689095D02*
X152083334Y-93712904D01*
X152083334Y-93712904D02*
X152059525Y-93760523D01*
X152630953Y-93689095D02*
X152583334Y-93665285D01*
X152583334Y-93665285D02*
X152559524Y-93641476D01*
X152559524Y-93641476D02*
X152535715Y-93593857D01*
X152535715Y-93593857D02*
X152535715Y-93570047D01*
X152535715Y-93570047D02*
X152559524Y-93522428D01*
X152559524Y-93522428D02*
X152583334Y-93498619D01*
X152583334Y-93498619D02*
X152630953Y-93474809D01*
X152630953Y-93474809D02*
X152726191Y-93474809D01*
X152726191Y-93474809D02*
X152773810Y-93498619D01*
X152773810Y-93498619D02*
X152797619Y-93522428D01*
X152797619Y-93522428D02*
X152821429Y-93570047D01*
X152821429Y-93570047D02*
X152821429Y-93593857D01*
X152821429Y-93593857D02*
X152797619Y-93641476D01*
X152797619Y-93641476D02*
X152773810Y-93665285D01*
X152773810Y-93665285D02*
X152726191Y-93689095D01*
X152726191Y-93689095D02*
X152630953Y-93689095D01*
X152630953Y-93689095D02*
X152583334Y-93712904D01*
X152583334Y-93712904D02*
X152559524Y-93736714D01*
X152559524Y-93736714D02*
X152535715Y-93784333D01*
X152535715Y-93784333D02*
X152535715Y-93879571D01*
X152535715Y-93879571D02*
X152559524Y-93927190D01*
X152559524Y-93927190D02*
X152583334Y-93951000D01*
X152583334Y-93951000D02*
X152630953Y-93974809D01*
X152630953Y-93974809D02*
X152726191Y-93974809D01*
X152726191Y-93974809D02*
X152773810Y-93951000D01*
X152773810Y-93951000D02*
X152797619Y-93927190D01*
X152797619Y-93927190D02*
X152821429Y-93879571D01*
X152821429Y-93879571D02*
X152821429Y-93784333D01*
X152821429Y-93784333D02*
X152797619Y-93736714D01*
X152797619Y-93736714D02*
X152773810Y-93712904D01*
X152773810Y-93712904D02*
X152726191Y-93689095D01*
X153035714Y-93927190D02*
X153059524Y-93951000D01*
X153059524Y-93951000D02*
X153035714Y-93974809D01*
X153035714Y-93974809D02*
X153011905Y-93951000D01*
X153011905Y-93951000D02*
X153035714Y-93927190D01*
X153035714Y-93927190D02*
X153035714Y-93974809D01*
X153535714Y-93974809D02*
X153250000Y-93974809D01*
X153392857Y-93974809D02*
X153392857Y-93474809D01*
X153392857Y-93474809D02*
X153345238Y-93546238D01*
X153345238Y-93546238D02*
X153297619Y-93593857D01*
X153297619Y-93593857D02*
X153250000Y-93617666D01*
X153749999Y-93974809D02*
X153749999Y-93474809D01*
X153797618Y-93784333D02*
X153940475Y-93974809D01*
X153940475Y-93641476D02*
X153749999Y-93831952D01*
D12*
X152956667Y-93118200D02*
X152870000Y-92994391D01*
X152808095Y-93118200D02*
X152808095Y-92858200D01*
X152808095Y-92858200D02*
X152907143Y-92858200D01*
X152907143Y-92858200D02*
X152931905Y-92870581D01*
X152931905Y-92870581D02*
X152944286Y-92882962D01*
X152944286Y-92882962D02*
X152956667Y-92907724D01*
X152956667Y-92907724D02*
X152956667Y-92944867D01*
X152956667Y-92944867D02*
X152944286Y-92969629D01*
X152944286Y-92969629D02*
X152931905Y-92982010D01*
X152931905Y-92982010D02*
X152907143Y-92994391D01*
X152907143Y-92994391D02*
X152808095Y-92994391D01*
X153055714Y-92882962D02*
X153068095Y-92870581D01*
X153068095Y-92870581D02*
X153092857Y-92858200D01*
X153092857Y-92858200D02*
X153154762Y-92858200D01*
X153154762Y-92858200D02*
X153179524Y-92870581D01*
X153179524Y-92870581D02*
X153191905Y-92882962D01*
X153191905Y-92882962D02*
X153204286Y-92907724D01*
X153204286Y-92907724D02*
X153204286Y-92932486D01*
X153204286Y-92932486D02*
X153191905Y-92969629D01*
X153191905Y-92969629D02*
X153043333Y-93118200D01*
X153043333Y-93118200D02*
X153204286Y-93118200D01*
D15*
%TO.C,H2*%
X165130000Y-93000000D02*
G75*
G03*
X162870000Y-93000000I-1130000J0D01*
G01*
X162870000Y-93000000D02*
G75*
G03*
X165130000Y-93000000I1130000J0D01*
G01*
D16*
%TO.C,J1*%
X157450000Y-104825000D02*
X157450000Y-95175000D01*
X166050000Y-104825000D02*
X157450000Y-104825000D01*
X157450000Y-95175000D02*
X166050000Y-95175000D01*
X166050000Y-95175000D02*
X166050000Y-104825000D01*
D10*
%TO.C,R9*%
X141475000Y-96230000D02*
X142525000Y-96230000D01*
X141475000Y-96770000D02*
X141475000Y-96230000D01*
X142525000Y-96230000D02*
X142525000Y-96770000D01*
X142525000Y-96770000D02*
X141475000Y-96770000D01*
%TO.C,FID1*%
X139500000Y-107000000D02*
G75*
G03*
X138500000Y-107000000I-500000J0D01*
G01*
X138500000Y-107000000D02*
G75*
G03*
X139500000Y-107000000I500000J0D01*
G01*
%TO.C,U2*%
X155150000Y-96250000D02*
X156150000Y-97250000D01*
X145850000Y-96250000D02*
X155150000Y-96250000D01*
X156150000Y-97250000D02*
X156150000Y-103750000D01*
X156150000Y-103750000D02*
X145850000Y-103750000D01*
X145850000Y-103750000D02*
X145850000Y-96250000D01*
D15*
X156650000Y-95250000D02*
G75*
G03*
X156350000Y-95250000I-150000J0D01*
G01*
X156350000Y-95250000D02*
G75*
G03*
X156650000Y-95250000I150000J0D01*
G01*
%TO.C,H4*%
X137130000Y-107000000D02*
G75*
G03*
X134870000Y-107000000I-1130000J0D01*
G01*
X134870000Y-107000000D02*
G75*
G03*
X137130000Y-107000000I1130000J0D01*
G01*
D10*
%TO.C,R10*%
X140400000Y-93700000D02*
X143600000Y-93700000D01*
X140400000Y-95300000D02*
X140400000Y-93700000D01*
X143600000Y-93700000D02*
X143600000Y-95300000D01*
X143600000Y-95300000D02*
X140400000Y-95300000D01*
%TO.C,R1*%
X150730000Y-107525000D02*
X150730000Y-106475000D01*
X151270000Y-107525000D02*
X150730000Y-107525000D01*
X150730000Y-106475000D02*
X151270000Y-106475000D01*
X151270000Y-106475000D02*
X151270000Y-107525000D01*
%TO.C,R5*%
X154300000Y-107412500D02*
X152700000Y-107412500D01*
X154300000Y-106587500D02*
X154300000Y-107412500D01*
X152700000Y-107412500D02*
X152700000Y-106587500D01*
X152700000Y-106587500D02*
X154300000Y-106587500D01*
%TO.C,R7*%
X145700000Y-92587500D02*
X147300000Y-92587500D01*
X145700000Y-93412500D02*
X145700000Y-92587500D01*
X147300000Y-92587500D02*
X147300000Y-93412500D01*
X147300000Y-93412500D02*
X145700000Y-93412500D01*
D15*
%TO.C,H3*%
X165130000Y-107000000D02*
G75*
G03*
X162870000Y-107000000I-1130000J0D01*
G01*
X162870000Y-107000000D02*
G75*
G03*
X165130000Y-107000000I1130000J0D01*
G01*
D10*
%TO.C,C8*%
X146250000Y-107500000D02*
X146250000Y-106500000D01*
X146750000Y-107500000D02*
X146250000Y-107500000D01*
X146250000Y-106500000D02*
X146750000Y-106500000D01*
X146750000Y-106500000D02*
X146750000Y-107500000D01*
D17*
%TO.C,D1*%
X138425000Y-98700000D02*
X140325000Y-98700000D01*
X138425000Y-101300000D02*
X140325000Y-101300000D01*
X138425000Y-97600000D02*
X134825000Y-97600000D01*
X134825000Y-97600000D02*
X134825000Y-102400000D01*
X134825000Y-102400000D02*
X138425000Y-102400000D01*
X138425000Y-102400000D02*
X138425000Y-97600000D01*
X132225000Y-97600000D02*
X134825000Y-97600000D01*
X134825000Y-97600000D02*
X134825000Y-102400000D01*
X134825000Y-102400000D02*
X132225000Y-102400000D01*
X132225000Y-102400000D02*
X132225000Y-97600000D01*
X134625000Y-100000000D02*
G75*
G03*
X129825000Y-100000000I-2400000J0D01*
G01*
X129825000Y-100000000D02*
G75*
G03*
X134625000Y-100000000I2400000J0D01*
G01*
D15*
%TO.C,J3*%
X141200000Y-106300000D02*
X143300000Y-106300000D01*
X143300000Y-106300000D02*
X143300000Y-103700000D01*
X140700000Y-105800000D02*
X141200000Y-106300000D01*
X140700000Y-105800000D02*
X140700000Y-104200000D01*
X140700000Y-104200000D02*
X141200000Y-103700000D01*
X141200000Y-103700000D02*
X143300000Y-103700000D01*
D16*
X143000000Y-105000000D02*
G75*
G03*
X141000000Y-105000000I-1000000J0D01*
G01*
X141000000Y-105000000D02*
G75*
G03*
X143000000Y-105000000I1000000J0D01*
G01*
X142176775Y-105000000D02*
G75*
G03*
X141823225Y-105000000I-176775J0D01*
G01*
X141823225Y-105000000D02*
G75*
G03*
X142176775Y-105000000I176775J0D01*
G01*
D10*
%TO.C,C6*%
X148250000Y-106500000D02*
X148250000Y-107500000D01*
X147750000Y-106500000D02*
X148250000Y-106500000D01*
X148250000Y-107500000D02*
X147750000Y-107500000D01*
X147750000Y-107500000D02*
X147750000Y-106500000D01*
%TO.C,FID3*%
X161750000Y-93000000D02*
G75*
G03*
X160750000Y-93000000I-500000J0D01*
G01*
X160750000Y-93000000D02*
G75*
G03*
X161750000Y-93000000I500000J0D01*
G01*
%TO.C,R2*%
X152475000Y-92730000D02*
X153525000Y-92730000D01*
X152475000Y-93270000D02*
X152475000Y-92730000D01*
X153525000Y-92730000D02*
X153525000Y-93270000D01*
X153525000Y-93270000D02*
X152475000Y-93270000D01*
D15*
%TO.C,H1*%
X137130000Y-93000000D02*
G75*
G03*
X134870000Y-93000000I-1130000J0D01*
G01*
X134870000Y-93000000D02*
G75*
G03*
X137130000Y-93000000I1130000J0D01*
G01*
%TD*%
D18*
X134000000Y-93000000D02*
X134000000Y-107000000D01*
X164000000Y-109000000D02*
G75*
G03*
X166000000Y-107000000I0J2000000D01*
G01*
X166000000Y-93000000D02*
G75*
G03*
X164000000Y-91000000I-2000000J0D01*
G01*
X136000000Y-91000000D02*
X164000000Y-91000000D01*
X136000000Y-91000000D02*
G75*
G03*
X134000000Y-93000000I0J-2000000D01*
G01*
X166000000Y-107000000D02*
X166000000Y-93000000D01*
X136000000Y-109000000D02*
X164000000Y-109000000D01*
X134000000Y-107000000D02*
G75*
G03*
X136000000Y-109000000I2000000J0D01*
G01*
M02*
