%TF.GenerationSoftware,KiCad,Pcbnew,7.0.10*%
%TF.CreationDate,2024-02-15T14:25:29-05:00*%
%TF.ProjectId,wingbeat_detector,77696e67-6265-4617-945f-646574656374,4.0*%
%TF.SameCoordinates,Original*%
%TF.FileFunction,Copper,L1,Top*%
%TF.FilePolarity,Positive*%
%FSLAX46Y46*%
G04 Gerber Fmt 4.6, Leading zero omitted, Abs format (unit mm)*
G04 Created by KiCad (PCBNEW 7.0.10) date 2024-02-15 14:25:29*
%MOMM*%
%LPD*%
G01*
G04 APERTURE LIST*
G04 Aperture macros list*
%AMRoundRect*
0 Rectangle with rounded corners*
0 $1 Rounding radius*
0 $2 $3 $4 $5 $6 $7 $8 $9 X,Y pos of 4 corners*
0 Add a 4 corners polygon primitive as box body*
4,1,4,$2,$3,$4,$5,$6,$7,$8,$9,$2,$3,0*
0 Add four circle primitives for the rounded corners*
1,1,$1+$1,$2,$3*
1,1,$1+$1,$4,$5*
1,1,$1+$1,$6,$7*
1,1,$1+$1,$8,$9*
0 Add four rect primitives between the rounded corners*
20,1,$1+$1,$2,$3,$4,$5,0*
20,1,$1+$1,$4,$5,$6,$7,0*
20,1,$1+$1,$6,$7,$8,$9,0*
20,1,$1+$1,$8,$9,$2,$3,0*%
%AMFreePoly0*
4,1,18,-0.475000,0.910000,-0.460537,0.982710,-0.419350,1.044350,-0.357710,1.085537,-0.285000,1.100000,0.237500,1.100000,0.475000,0.862500,0.475000,-0.910000,0.460537,-0.982710,0.419350,-1.044350,0.357710,-1.085537,0.285000,-1.100000,-0.285000,-1.100000,-0.357710,-1.085537,-0.419350,-1.044350,-0.460537,-0.982710,-0.475000,-0.910000,-0.475000,0.910000,-0.475000,0.910000,$1*%
%AMFreePoly1*
4,1,18,-0.475000,0.862500,-0.237500,1.100000,0.285000,1.100000,0.357710,1.085537,0.419350,1.044350,0.460537,0.982710,0.475000,0.910000,0.475000,-0.910000,0.460537,-0.982710,0.419350,-1.044350,0.357710,-1.085537,0.285000,-1.100000,-0.285000,-1.100000,-0.357710,-1.085537,-0.419350,-1.044350,-0.460537,-0.982710,-0.475000,-0.910000,-0.475000,0.862500,-0.475000,0.862500,$1*%
G04 Aperture macros list end*
%TA.AperFunction,ComponentPad*%
%ADD10C,2.660000*%
%TD*%
%TA.AperFunction,SMDPad,CuDef*%
%ADD11R,0.900000X0.300000*%
%TD*%
%TA.AperFunction,ComponentPad*%
%ADD12C,0.600000*%
%TD*%
%TA.AperFunction,ComponentPad*%
%ADD13O,1.300000X0.800000*%
%TD*%
%TA.AperFunction,SMDPad,CuDef*%
%ADD14RoundRect,0.135000X-0.135000X-0.185000X0.135000X-0.185000X0.135000X0.185000X-0.135000X0.185000X0*%
%TD*%
%TA.AperFunction,SMDPad,CuDef*%
%ADD15C,0.500000*%
%TD*%
%TA.AperFunction,SMDPad,CuDef*%
%ADD16RoundRect,0.150000X-0.150000X0.875000X-0.150000X-0.875000X0.150000X-0.875000X0.150000X0.875000X0*%
%TD*%
%TA.AperFunction,SMDPad,CuDef*%
%ADD17RoundRect,0.250000X-0.312500X-0.625000X0.312500X-0.625000X0.312500X0.625000X-0.312500X0.625000X0*%
%TD*%
%TA.AperFunction,SMDPad,CuDef*%
%ADD18RoundRect,0.135000X0.185000X-0.135000X0.185000X0.135000X-0.185000X0.135000X-0.185000X-0.135000X0*%
%TD*%
%TA.AperFunction,SMDPad,CuDef*%
%ADD19RoundRect,0.200000X0.200000X0.275000X-0.200000X0.275000X-0.200000X-0.275000X0.200000X-0.275000X0*%
%TD*%
%TA.AperFunction,SMDPad,CuDef*%
%ADD20RoundRect,0.200000X-0.200000X-0.275000X0.200000X-0.275000X0.200000X0.275000X-0.200000X0.275000X0*%
%TD*%
%TA.AperFunction,SMDPad,CuDef*%
%ADD21RoundRect,0.140000X0.170000X-0.140000X0.170000X0.140000X-0.170000X0.140000X-0.170000X-0.140000X0*%
%TD*%
%TA.AperFunction,SMDPad,CuDef*%
%ADD22RoundRect,0.250000X-1.500000X-0.250000X1.500000X-0.250000X1.500000X0.250000X-1.500000X0.250000X0*%
%TD*%
%TA.AperFunction,SMDPad,CuDef*%
%ADD23RoundRect,0.237500X0.237500X-0.262500X0.237500X0.262500X-0.237500X0.262500X-0.237500X-0.262500X0*%
%TD*%
%TA.AperFunction,SMDPad,CuDef*%
%ADD24FreePoly0,90.000000*%
%TD*%
%TA.AperFunction,SMDPad,CuDef*%
%ADD25FreePoly1,90.000000*%
%TD*%
%TA.AperFunction,SMDPad,CuDef*%
%ADD26RoundRect,0.140000X-0.170000X0.140000X-0.170000X-0.140000X0.170000X-0.140000X0.170000X0.140000X0*%
%TD*%
%TA.AperFunction,ViaPad*%
%ADD27C,0.800000*%
%TD*%
%TA.AperFunction,Conductor*%
%ADD28C,0.150000*%
%TD*%
%TA.AperFunction,Profile*%
%ADD29C,0.100000*%
%TD*%
G04 APERTURE END LIST*
D10*
%TO.P,H2,1,1*%
%TO.N,/GND*%
X164000000Y-93000000D03*
%TD*%
D11*
%TO.P,J1,A1,GND*%
%TO.N,/GND*%
X158440000Y-102750000D03*
%TO.P,J1,A2,SSTXP1*%
%TO.N,unconnected-(J1-SSTXP1-PadA2)*%
X158440000Y-102250000D03*
%TO.P,J1,A3,SSTXN1*%
%TO.N,unconnected-(J1-SSTXN1-PadA3)*%
X158440000Y-101750000D03*
%TO.P,J1,A4,VBUS_A*%
%TO.N,/V5+*%
X158440000Y-101250000D03*
%TO.P,J1,A5,CC1*%
%TO.N,unconnected-(J1-CC1-PadA5)*%
X158440000Y-100750000D03*
%TO.P,J1,A6,DP1*%
%TO.N,unconnected-(J1-DP1-PadA6)*%
X158440000Y-100250000D03*
%TO.P,J1,A7,DN1*%
%TO.N,unconnected-(J1-DN1-PadA7)*%
X158440000Y-99750000D03*
%TO.P,J1,A8,SBU1*%
%TO.N,unconnected-(J1-SBU1-PadA8)*%
X158440000Y-99250000D03*
%TO.P,J1,A9,VBUS_A*%
%TO.N,/V5+*%
X158440000Y-98750000D03*
%TO.P,J1,A10,SSRXN2*%
%TO.N,unconnected-(J1-SSRXN2-PadA10)*%
X158440000Y-98250000D03*
%TO.P,J1,A11,SSRXP2*%
%TO.N,unconnected-(J1-SSRXP2-PadA11)*%
X158440000Y-97750000D03*
%TO.P,J1,A12,GND*%
%TO.N,/GND*%
X158440000Y-97250000D03*
D12*
%TO.P,J1,B1,GND*%
X159650000Y-97150000D03*
%TO.P,J1,B2,SSTXP2*%
%TO.N,unconnected-(J1-SSTXP2-PadB2)*%
X160350000Y-97550000D03*
%TO.P,J1,B3,SSTXN2*%
%TO.N,unconnected-(J1-SSTXN2-PadB3)*%
X160350000Y-98350000D03*
%TO.P,J1,B4,VBUS_B*%
%TO.N,/V5+*%
X159650000Y-98750000D03*
%TO.P,J1,B5,CC2*%
%TO.N,unconnected-(J1-CC2-PadB5)*%
X160350000Y-99150000D03*
%TO.P,J1,B6,DP2*%
%TO.N,unconnected-(J1-DP2-PadB6)*%
X159650000Y-99550000D03*
%TO.P,J1,B7,DN2*%
%TO.N,unconnected-(J1-DN2-PadB7)*%
X159650000Y-100350000D03*
%TO.P,J1,B8,SBU2*%
%TO.N,unconnected-(J1-SBU2-PadB8)*%
X160350000Y-100750000D03*
%TO.P,J1,B9,VBUS_B*%
%TO.N,/V5+*%
X159650000Y-101150000D03*
%TO.P,J1,B10,SSRXN1*%
%TO.N,unconnected-(J1-SSRXN1-PadB10)*%
X160350000Y-101550000D03*
%TO.P,J1,B11,SSRXP1*%
%TO.N,unconnected-(J1-SSRXP1-PadB11)*%
X160350000Y-102350000D03*
%TO.P,J1,B12,GND*%
%TO.N,/GND*%
X159650000Y-102750000D03*
D13*
%TO.P,J1,S1,SHIELD*%
%TO.N,unconnected-(J1-SHIELD-PadS1)*%
X160250000Y-104080000D03*
%TO.P,J1,S2,SHIELD*%
%TO.N,unconnected-(J1-SHIELD-PadS2)*%
X160250000Y-95820000D03*
%TO.P,J1,S3,SHIELD*%
%TO.N,unconnected-(J1-SHIELD-PadS3)*%
X164700000Y-104490000D03*
%TO.P,J1,S4,SHIELD*%
%TO.N,unconnected-(J1-SHIELD-PadS4)*%
X164700000Y-95510000D03*
%TD*%
D14*
%TO.P,R9,1*%
%TO.N,Net-(U2-AAin-)*%
X141490000Y-96500000D03*
%TO.P,R9,2*%
%TO.N,/GND*%
X142510000Y-96500000D03*
%TD*%
D15*
%TO.P,FID1,*%
%TO.N,*%
X139000000Y-107000000D03*
%TD*%
D16*
%TO.P,U2,1,LPVo*%
%TO.N,unconnected-(U2-LPVo-Pad1)*%
X155445000Y-95350000D03*
%TO.P,U2,2,NC1*%
%TO.N,/GND*%
X154175000Y-95350000D03*
%TO.P,U2,3,Vin3*%
%TO.N,unconnected-(U2-Vin3-Pad3)*%
X152905000Y-95350000D03*
%TO.P,U2,4,Vin2*%
%TO.N,Net-(U2-Vin2)*%
X151635000Y-95350000D03*
%TO.P,U2,5,AAin+*%
%TO.N,/filter/HIGHPASS*%
X150365000Y-95350000D03*
%TO.P,U2,6,AAin-*%
%TO.N,Net-(U2-AAin-)*%
X149095000Y-95350000D03*
%TO.P,U2,7,AAVo*%
%TO.N,/filter/HIGHPASS_AMPLIFIED*%
X147825000Y-95350000D03*
%TO.P,U2,8,BPVo*%
%TO.N,Net-(U2-BPVo)*%
X146555000Y-95350000D03*
%TO.P,U2,9,Fadj1*%
%TO.N,Net-(U2-Fadj1)*%
X146555000Y-104650000D03*
%TO.P,U2,10,V-*%
%TO.N,/V10-*%
X147825000Y-104650000D03*
%TO.P,U2,11,V+*%
%TO.N,/V10+*%
X149095000Y-104650000D03*
%TO.P,U2,12,GND*%
%TO.N,/GND*%
X150365000Y-104650000D03*
%TO.P,U2,13,Vin1*%
%TO.N,Net-(U2-Vin1)*%
X151635000Y-104650000D03*
%TO.P,U2,14,HPVo*%
%TO.N,/filter/HIGHPASS*%
X152905000Y-104650000D03*
%TO.P,U2,15,NC2*%
%TO.N,/GND*%
X154175000Y-104650000D03*
%TO.P,U2,16,Fadj2*%
%TO.N,Net-(U2-Fadj2)*%
X155445000Y-104650000D03*
%TD*%
D10*
%TO.P,H4,1,1*%
%TO.N,/GND*%
X136000000Y-107000000D03*
%TD*%
D17*
%TO.P,R10,1*%
%TO.N,Net-(U2-AAin-)*%
X140537500Y-94500000D03*
%TO.P,R10,2*%
%TO.N,/filter/HIGHPASS_AMPLIFIED*%
X143462500Y-94500000D03*
%TD*%
D18*
%TO.P,R1,1*%
%TO.N,/PHOTODIODE_SIG*%
X151000000Y-107510000D03*
%TO.P,R1,2*%
%TO.N,Net-(U2-Vin1)*%
X151000000Y-106490000D03*
%TD*%
D19*
%TO.P,R5,1*%
%TO.N,/filter/HIGHPASS*%
X154325000Y-107000000D03*
%TO.P,R5,2*%
%TO.N,Net-(U2-Fadj1)*%
X152675000Y-107000000D03*
%TD*%
D20*
%TO.P,R7,1*%
%TO.N,Net-(U2-BPVo)*%
X145675000Y-93000000D03*
%TO.P,R7,2*%
%TO.N,Net-(U2-Fadj2)*%
X147325000Y-93000000D03*
%TD*%
D10*
%TO.P,H3,1,1*%
%TO.N,/GND*%
X164000000Y-107000000D03*
%TD*%
D21*
%TO.P,C8,1*%
%TO.N,/GND*%
X146500000Y-107480000D03*
%TO.P,C8,2*%
%TO.N,/V10-*%
X146500000Y-106520000D03*
%TD*%
D22*
%TO.P,D1,1,K*%
%TO.N,Net-(D1-K)*%
X142675000Y-101270000D03*
%TO.P,D1,2,A*%
%TO.N,/GND*%
X142675000Y-98730000D03*
%TD*%
D23*
%TO.P,J3,1,In*%
%TO.N,/PHOTODIODE_SIG*%
X140525000Y-105000000D03*
D24*
%TO.P,J3,2,Ext*%
%TO.N,/GND*%
X142000000Y-106425000D03*
D23*
X143475000Y-105000000D03*
D25*
X142000000Y-103575000D03*
%TD*%
D26*
%TO.P,C6,1*%
%TO.N,/V10+*%
X148000000Y-106520000D03*
%TO.P,C6,2*%
%TO.N,/GND*%
X148000000Y-107480000D03*
%TD*%
D15*
%TO.P,FID3,*%
%TO.N,*%
X161250000Y-93000000D03*
%TD*%
D14*
%TO.P,R2,1*%
%TO.N,Net-(U2-Vin2)*%
X152490000Y-93000000D03*
%TO.P,R2,2*%
%TO.N,/GND*%
X153510000Y-93000000D03*
%TD*%
D10*
%TO.P,H1,1,1*%
%TO.N,/GND*%
X136000000Y-93000000D03*
%TD*%
D27*
%TO.N,/filter/HIGHPASS_AMPLIFIED*%
X146667000Y-92098500D03*
%TO.N,/V5+*%
X140536000Y-97740200D03*
%TO.N,/V10+*%
X149397400Y-102199800D03*
%TO.N,/V10-*%
X148494700Y-102757700D03*
%TO.N,Net-(D1-K)*%
X141341700Y-102367800D03*
%TO.N,/PHOTODIODE_SIG*%
X139250000Y-104750000D03*
%TD*%
D28*
%TO.N,/GND*%
X140697200Y-100542800D02*
X142510000Y-98730000D01*
X155140900Y-105955200D02*
X154175000Y-104989300D01*
X143425000Y-105000000D02*
X142000000Y-106425000D01*
X150608200Y-107000000D02*
X150365000Y-106756800D01*
X143475000Y-105000000D02*
X143425000Y-105000000D01*
X154175000Y-95672900D02*
X154175000Y-95350000D01*
X136000000Y-106931400D02*
X140227300Y-102704100D01*
X154175000Y-104989300D02*
X154175000Y-104650000D01*
X145955000Y-107480000D02*
X143475000Y-105000000D01*
X140697200Y-102704100D02*
X140697200Y-100542800D01*
X142510000Y-98730000D02*
X142510000Y-96500000D01*
X158440000Y-97250000D02*
X155752100Y-97250000D01*
X154731300Y-107728900D02*
X152138400Y-107728900D01*
X140227300Y-102704100D02*
X140697200Y-102704100D01*
X151409500Y-107000000D02*
X150608200Y-107000000D01*
X141568100Y-103575000D02*
X140697200Y-102704100D01*
X157763300Y-103918600D02*
X155726700Y-105955200D01*
X154175000Y-93665000D02*
X154175000Y-95350000D01*
X148000000Y-107480000D02*
X146500000Y-107480000D01*
X159650000Y-97150000D02*
X159216700Y-97150000D01*
X158440000Y-102750000D02*
X157763300Y-102750000D01*
X158440000Y-97250000D02*
X159116700Y-97250000D01*
X153510000Y-93000000D02*
X154175000Y-93665000D01*
X157763300Y-102750000D02*
X157763300Y-103918600D01*
X159216700Y-97150000D02*
X159116700Y-97250000D01*
X146500000Y-107480000D02*
X145955000Y-107480000D01*
X155726700Y-105955200D02*
X155140900Y-105955200D01*
X142675000Y-98730000D02*
X142510000Y-98730000D01*
X148000000Y-107480000D02*
X148723200Y-106756800D01*
X152138400Y-107728900D02*
X151409500Y-107000000D01*
X148723200Y-106756800D02*
X150365000Y-106756800D01*
X143425000Y-105000000D02*
X142000000Y-103575000D01*
X142000000Y-103575000D02*
X141568100Y-103575000D01*
X155752100Y-97250000D02*
X154175000Y-95672900D01*
X159650000Y-102750000D02*
X158440000Y-102750000D01*
X155140900Y-107319300D02*
X154731300Y-107728900D01*
X155140900Y-105955200D02*
X155140900Y-107319300D01*
X150365000Y-106756800D02*
X150365000Y-104650000D01*
X136000000Y-107000000D02*
X136000000Y-106931400D01*
%TO.N,Net-(U2-Vin1)*%
X151635000Y-105855000D02*
X151000000Y-106490000D01*
X151635000Y-104650000D02*
X151635000Y-105855000D01*
%TO.N,Net-(U2-Vin2)*%
X151635000Y-93855000D02*
X152490000Y-93000000D01*
X151635000Y-95350000D02*
X151635000Y-93855000D01*
%TO.N,/filter/HIGHPASS_AMPLIFIED*%
X145284300Y-92292400D02*
X143462500Y-94114200D01*
X147825000Y-95350000D02*
X147825000Y-94700300D01*
X143462500Y-94114200D02*
X143462500Y-94500000D01*
X147825000Y-94700300D02*
X146667000Y-93542300D01*
X146667000Y-92292400D02*
X146667000Y-92098500D01*
X146667000Y-92292400D02*
X145284300Y-92292400D01*
X146667000Y-93542300D02*
X146667000Y-92292400D01*
%TO.N,/filter/HIGHPASS*%
X154325000Y-107000000D02*
X152905000Y-105580000D01*
X152905000Y-102040500D02*
X152905000Y-104650000D01*
X152905000Y-105580000D02*
X152905000Y-104650000D01*
X150365000Y-95350000D02*
X150365000Y-99500500D01*
X150365000Y-99500500D02*
X152905000Y-102040500D01*
%TO.N,Net-(U2-Fadj1)*%
X150107200Y-101559000D02*
X148691200Y-101559000D01*
X152270000Y-103721800D02*
X150107200Y-101559000D01*
X148691200Y-101559000D02*
X146555000Y-103695200D01*
X152270000Y-106595000D02*
X152270000Y-103721800D01*
X146555000Y-103695200D02*
X146555000Y-104650000D01*
X152675000Y-107000000D02*
X152270000Y-106595000D01*
%TO.N,Net-(U2-BPVo)*%
X145675000Y-93000000D02*
X146555000Y-93880000D01*
X146555000Y-93880000D02*
X146555000Y-95350000D01*
%TO.N,Net-(U2-Fadj2)*%
X151000000Y-94415600D02*
X151000000Y-97402000D01*
X151000000Y-97402000D02*
X155445000Y-101847000D01*
X149584400Y-93000000D02*
X151000000Y-94415600D01*
X147325000Y-93000000D02*
X149584400Y-93000000D01*
X155445000Y-101847000D02*
X155445000Y-104650000D01*
%TO.N,Net-(U2-AAin-)*%
X141490000Y-95452500D02*
X141490000Y-95917800D01*
X149095000Y-95662700D02*
X148153600Y-96604100D01*
X140537500Y-94500000D02*
X141490000Y-95452500D01*
X141490000Y-95917800D02*
X141490000Y-96500000D01*
X143477800Y-96604100D02*
X142791500Y-95917800D01*
X149095000Y-95350000D02*
X149095000Y-95662700D01*
X148153600Y-96604100D02*
X143477800Y-96604100D01*
X142791500Y-95917800D02*
X141490000Y-95917800D01*
%TO.N,/V5+*%
X158440000Y-101250000D02*
X159116700Y-101250000D01*
X159650000Y-101150000D02*
X159216700Y-101150000D01*
X159216700Y-101150000D02*
X159116700Y-101250000D01*
X159650000Y-98750000D02*
X158440000Y-98750000D01*
%TO.N,/V10+*%
X149095000Y-105425000D02*
X148000000Y-106520000D01*
X149397400Y-102199800D02*
X149397400Y-104347600D01*
X149397400Y-104347600D02*
X149095000Y-104650000D01*
X149095000Y-104650000D02*
X149095000Y-105425000D01*
%TO.N,/V10-*%
X147825000Y-103427400D02*
X148494700Y-102757700D01*
X147825000Y-105195000D02*
X147825000Y-104650000D01*
X146500000Y-106520000D02*
X147825000Y-105195000D01*
X147825000Y-104650000D02*
X147825000Y-103427400D01*
%TO.N,Net-(D1-K)*%
X141577200Y-102367800D02*
X141341700Y-102367800D01*
X142675000Y-101270000D02*
X141577200Y-102367800D01*
%TO.N,/PHOTODIODE_SIG*%
X140525000Y-105000000D02*
X140525000Y-106760500D01*
X150487700Y-108022300D02*
X151000000Y-107510000D01*
X139250000Y-104750000D02*
X139500000Y-105000000D01*
X140525000Y-106760500D02*
X141786800Y-108022300D01*
X139500000Y-105000000D02*
X140525000Y-105000000D01*
X141786800Y-108022300D02*
X150487700Y-108022300D01*
%TD*%
%TA.AperFunction,Conductor*%
%TO.N,/GND*%
G36*
X159340261Y-101482158D02*
G01*
X159351890Y-101493897D01*
X159351949Y-101493966D01*
X159368703Y-101504733D01*
X159460931Y-101564004D01*
X159585225Y-101600499D01*
X159585227Y-101600500D01*
X159585228Y-101600500D01*
X159714771Y-101600500D01*
X159714772Y-101600500D01*
X159757558Y-101587936D01*
X159827424Y-101587936D01*
X159886203Y-101625710D01*
X159911466Y-101671972D01*
X159913302Y-101678223D01*
X159913302Y-101678224D01*
X159913303Y-101678226D01*
X159956682Y-101773211D01*
X159965203Y-101791871D01*
X159967118Y-101796063D01*
X159999453Y-101833380D01*
X160030142Y-101868798D01*
X160059166Y-101932354D01*
X160049222Y-102001513D01*
X160030142Y-102031202D01*
X159967118Y-102103937D01*
X159967116Y-102103939D01*
X159946886Y-102148236D01*
X159901131Y-102201039D01*
X159834091Y-102220722D01*
X159801941Y-102214339D01*
X159801427Y-102216260D01*
X159793580Y-102214157D01*
X159650001Y-102195254D01*
X159649999Y-102195254D01*
X159506421Y-102214157D01*
X159506417Y-102214158D01*
X159372626Y-102269575D01*
X159357758Y-102280982D01*
X159626905Y-102550128D01*
X159560992Y-102565173D01*
X159489613Y-102622095D01*
X159450000Y-102704351D01*
X159450000Y-102726775D01*
X159180983Y-102457758D01*
X159172613Y-102458307D01*
X159104429Y-102443051D01*
X159055318Y-102393354D01*
X159040500Y-102334573D01*
X159040500Y-102085177D01*
X159029385Y-102029300D01*
X159032311Y-102028717D01*
X159026855Y-101977987D01*
X159030203Y-101966583D01*
X159040500Y-101914822D01*
X159040500Y-101601386D01*
X159060185Y-101534347D01*
X159112989Y-101488592D01*
X159145105Y-101478912D01*
X159152755Y-101477699D01*
X159152764Y-101477700D01*
X159171838Y-101470377D01*
X159190489Y-101464853D01*
X159210468Y-101460607D01*
X159210467Y-101460607D01*
X159223220Y-101457897D01*
X159223602Y-101459695D01*
X159276983Y-101452534D01*
X159340261Y-101482158D01*
G37*
%TD.AperFunction*%
%TA.AperFunction,Conductor*%
G36*
X159450000Y-97195649D02*
G01*
X159489613Y-97277905D01*
X159560992Y-97334827D01*
X159626903Y-97349871D01*
X159357758Y-97619015D01*
X159372627Y-97630424D01*
X159372630Y-97630425D01*
X159506417Y-97685841D01*
X159506421Y-97685842D01*
X159649999Y-97704746D01*
X159650001Y-97704746D01*
X159793578Y-97685842D01*
X159801430Y-97683739D01*
X159802318Y-97687056D01*
X159855946Y-97681218D01*
X159918467Y-97712409D01*
X159946887Y-97751764D01*
X159967118Y-97796063D01*
X160030142Y-97868798D01*
X160059166Y-97932354D01*
X160049222Y-98001513D01*
X160030142Y-98031202D01*
X159967118Y-98103937D01*
X159967117Y-98103938D01*
X159913300Y-98221779D01*
X159911465Y-98228029D01*
X159873686Y-98286804D01*
X159810128Y-98315824D01*
X159757557Y-98312062D01*
X159714774Y-98299500D01*
X159714772Y-98299500D01*
X159585228Y-98299500D01*
X159585226Y-98299500D01*
X159460935Y-98335994D01*
X159460932Y-98335995D01*
X159460931Y-98335996D01*
X159409677Y-98368934D01*
X159351950Y-98406033D01*
X159312111Y-98452011D01*
X159286383Y-98481702D01*
X159227607Y-98519477D01*
X159192671Y-98524500D01*
X159164500Y-98524500D01*
X159097461Y-98504815D01*
X159051706Y-98452011D01*
X159040500Y-98400500D01*
X159040500Y-98085177D01*
X159029385Y-98029300D01*
X159032311Y-98028717D01*
X159026855Y-97977987D01*
X159030203Y-97966583D01*
X159040500Y-97914822D01*
X159040500Y-97661342D01*
X159060185Y-97594303D01*
X159064039Y-97589520D01*
X159123450Y-97500604D01*
X159143299Y-97484014D01*
X159141254Y-97481969D01*
X159450000Y-97173222D01*
X159450000Y-97195649D01*
G37*
%TD.AperFunction*%
%TA.AperFunction,Conductor*%
G36*
X146668308Y-91314979D02*
G01*
X146695898Y-91301981D01*
X146715004Y-91300500D01*
X163952405Y-91300500D01*
X163997786Y-91300500D01*
X164002208Y-91300657D01*
X164233020Y-91317165D01*
X164250529Y-91319683D01*
X164470144Y-91367458D01*
X164487103Y-91372437D01*
X164697694Y-91450983D01*
X164713777Y-91458327D01*
X164911036Y-91566040D01*
X164925919Y-91575605D01*
X165105836Y-91710289D01*
X165119207Y-91721875D01*
X165278124Y-91880792D01*
X165289710Y-91894163D01*
X165424394Y-92074080D01*
X165433959Y-92088963D01*
X165541669Y-92286217D01*
X165549019Y-92302311D01*
X165627559Y-92512887D01*
X165632543Y-92529862D01*
X165680316Y-92749470D01*
X165682834Y-92766982D01*
X165699342Y-92997789D01*
X165699500Y-93002213D01*
X165699500Y-95251061D01*
X165679815Y-95318100D01*
X165627011Y-95363855D01*
X165557853Y-95373799D01*
X165494297Y-95344774D01*
X165465403Y-95308110D01*
X165422338Y-95225000D01*
X165403971Y-95189553D01*
X165403968Y-95189550D01*
X165403967Y-95189548D01*
X165300681Y-95078956D01*
X165222053Y-95031141D01*
X165171382Y-95000328D01*
X165025665Y-94959500D01*
X164412342Y-94959500D01*
X164412341Y-94959500D01*
X164300082Y-94974929D01*
X164300079Y-94974930D01*
X164161283Y-95035217D01*
X164043889Y-95130724D01*
X163956623Y-95254352D01*
X163956621Y-95254355D01*
X163905946Y-95396939D01*
X163905946Y-95396942D01*
X163895619Y-95547918D01*
X163895619Y-95547921D01*
X163926405Y-95696078D01*
X163926407Y-95696083D01*
X163926408Y-95696085D01*
X163996029Y-95830447D01*
X163996031Y-95830449D01*
X163996032Y-95830451D01*
X164099318Y-95941043D01*
X164119829Y-95953516D01*
X164228618Y-96019672D01*
X164374335Y-96060500D01*
X164374336Y-96060500D01*
X164987659Y-96060500D01*
X165015723Y-96056642D01*
X165099920Y-96045070D01*
X165237986Y-95985099D01*
X165238716Y-95984782D01*
X165238716Y-95984781D01*
X165238720Y-95984780D01*
X165356108Y-95889278D01*
X165443377Y-95765647D01*
X165458660Y-95722646D01*
X165499658Y-95666069D01*
X165564735Y-95640639D01*
X165633231Y-95654430D01*
X165683397Y-95703062D01*
X165699500Y-95764171D01*
X165699500Y-104231061D01*
X165679815Y-104298100D01*
X165627011Y-104343855D01*
X165557853Y-104353799D01*
X165494297Y-104324774D01*
X165465403Y-104288110D01*
X165416149Y-104193056D01*
X165403971Y-104169553D01*
X165403968Y-104169550D01*
X165403967Y-104169548D01*
X165300681Y-104058956D01*
X165216609Y-104007831D01*
X165171382Y-103980328D01*
X165025665Y-103939500D01*
X164412342Y-103939500D01*
X164412341Y-103939500D01*
X164300082Y-103954929D01*
X164300079Y-103954930D01*
X164161283Y-104015217D01*
X164043889Y-104110724D01*
X163956623Y-104234352D01*
X163956621Y-104234355D01*
X163905946Y-104376939D01*
X163905946Y-104376942D01*
X163895619Y-104527918D01*
X163895619Y-104527921D01*
X163926405Y-104676078D01*
X163926407Y-104676083D01*
X163926408Y-104676085D01*
X163996029Y-104810447D01*
X163996031Y-104810449D01*
X163996032Y-104810451D01*
X164099318Y-104921043D01*
X164099320Y-104921044D01*
X164228618Y-104999672D01*
X164374335Y-105040500D01*
X164374336Y-105040500D01*
X164987659Y-105040500D01*
X165015723Y-105036642D01*
X165099920Y-105025070D01*
X165209854Y-104977318D01*
X165238716Y-104964782D01*
X165238716Y-104964781D01*
X165238720Y-104964780D01*
X165356108Y-104869278D01*
X165443377Y-104745647D01*
X165458660Y-104702646D01*
X165499658Y-104646069D01*
X165564735Y-104620639D01*
X165633231Y-104634430D01*
X165683397Y-104683062D01*
X165699500Y-104744171D01*
X165699500Y-106997786D01*
X165699342Y-107002210D01*
X165682834Y-107233017D01*
X165680316Y-107250529D01*
X165632543Y-107470137D01*
X165627559Y-107487112D01*
X165549019Y-107697688D01*
X165541669Y-107713782D01*
X165433959Y-107911036D01*
X165424394Y-107925919D01*
X165289710Y-108105836D01*
X165278124Y-108119207D01*
X165119207Y-108278124D01*
X165105836Y-108289710D01*
X164925919Y-108424394D01*
X164911036Y-108433959D01*
X164713782Y-108541669D01*
X164697688Y-108549019D01*
X164487112Y-108627559D01*
X164470137Y-108632543D01*
X164250529Y-108680316D01*
X164233017Y-108682834D01*
X164019172Y-108698128D01*
X164002208Y-108699342D01*
X163997786Y-108699500D01*
X136002214Y-108699500D01*
X135997791Y-108699342D01*
X135979142Y-108698008D01*
X135766982Y-108682834D01*
X135749470Y-108680316D01*
X135529862Y-108632543D01*
X135512887Y-108627559D01*
X135302311Y-108549019D01*
X135286217Y-108541669D01*
X135088963Y-108433959D01*
X135074080Y-108424394D01*
X134894163Y-108289710D01*
X134880792Y-108278124D01*
X134721875Y-108119207D01*
X134710289Y-108105836D01*
X134575605Y-107925919D01*
X134566040Y-107911036D01*
X134551615Y-107884619D01*
X134458327Y-107713777D01*
X134450983Y-107697694D01*
X134372437Y-107487103D01*
X134367458Y-107470144D01*
X134319683Y-107250529D01*
X134317165Y-107233017D01*
X134315580Y-107210859D01*
X134300657Y-107002208D01*
X134300579Y-107000000D01*
X138494353Y-107000000D01*
X138514834Y-107142456D01*
X138556193Y-107233017D01*
X138574623Y-107273373D01*
X138668872Y-107382143D01*
X138789947Y-107459953D01*
X138789950Y-107459954D01*
X138789949Y-107459954D01*
X138928036Y-107500499D01*
X138928038Y-107500500D01*
X138928039Y-107500500D01*
X139071962Y-107500500D01*
X139071962Y-107500499D01*
X139210053Y-107459953D01*
X139331128Y-107382143D01*
X139425377Y-107273373D01*
X139485165Y-107142457D01*
X139505647Y-107000000D01*
X139485165Y-106857543D01*
X139425377Y-106726627D01*
X139331128Y-106617857D01*
X139210053Y-106540047D01*
X139210051Y-106540046D01*
X139210049Y-106540045D01*
X139210050Y-106540045D01*
X139071963Y-106499500D01*
X139071961Y-106499500D01*
X138928039Y-106499500D01*
X138928036Y-106499500D01*
X138789949Y-106540045D01*
X138668873Y-106617856D01*
X138574623Y-106726626D01*
X138574622Y-106726628D01*
X138514834Y-106857543D01*
X138494353Y-107000000D01*
X134300579Y-107000000D01*
X134300500Y-106997786D01*
X134300500Y-104750000D01*
X138694750Y-104750000D01*
X138713670Y-104893708D01*
X138713671Y-104893712D01*
X138769137Y-105027622D01*
X138769138Y-105027624D01*
X138769139Y-105027625D01*
X138857379Y-105142621D01*
X138972375Y-105230861D01*
X139106291Y-105286330D01*
X139233280Y-105303048D01*
X139249999Y-105305250D01*
X139250000Y-105305250D01*
X139250001Y-105305250D01*
X139264977Y-105303278D01*
X139393709Y-105286330D01*
X139517780Y-105234938D01*
X139565231Y-105225500D01*
X139782898Y-105225500D01*
X139849937Y-105245185D01*
X139895692Y-105297989D01*
X139905371Y-105330102D01*
X139913889Y-105383889D01*
X139913890Y-105383892D01*
X139913891Y-105383893D01*
X139958040Y-105470541D01*
X139969690Y-105493404D01*
X139969693Y-105493408D01*
X140056591Y-105580306D01*
X140056595Y-105580309D01*
X140056597Y-105580311D01*
X140166107Y-105636109D01*
X140194898Y-105640669D01*
X140258031Y-105670597D01*
X140294963Y-105729907D01*
X140299500Y-105763142D01*
X140299500Y-106752961D01*
X140299415Y-106756206D01*
X140297300Y-106796562D01*
X140297300Y-106796566D01*
X140304620Y-106815635D01*
X140310144Y-106834285D01*
X140314392Y-106854267D01*
X140314393Y-106854269D01*
X140315521Y-106855822D01*
X140330964Y-106884263D01*
X140331654Y-106886060D01*
X140346097Y-106900503D01*
X140358737Y-106915302D01*
X140370615Y-106931652D01*
X140370740Y-106931823D01*
X140372398Y-106932780D01*
X140398082Y-106952488D01*
X141622023Y-108176429D01*
X141624258Y-108178784D01*
X141651292Y-108208808D01*
X141651293Y-108208809D01*
X141669953Y-108217117D01*
X141687047Y-108226398D01*
X141704183Y-108237526D01*
X141706071Y-108237824D01*
X141737117Y-108247021D01*
X141738867Y-108247800D01*
X141738868Y-108247800D01*
X141759295Y-108247800D01*
X141778693Y-108249327D01*
X141798865Y-108252522D01*
X141798865Y-108252521D01*
X141798866Y-108252522D01*
X141800174Y-108252171D01*
X141800722Y-108252025D01*
X141832814Y-108247800D01*
X150480162Y-108247800D01*
X150483406Y-108247884D01*
X150523764Y-108250000D01*
X150542838Y-108242677D01*
X150561489Y-108237153D01*
X150581468Y-108232907D01*
X150583013Y-108231784D01*
X150611467Y-108216334D01*
X150613260Y-108215646D01*
X150627713Y-108201191D01*
X150642496Y-108188566D01*
X150659023Y-108176560D01*
X150659981Y-108174899D01*
X150679685Y-108149219D01*
X150862086Y-107966817D01*
X150923409Y-107933333D01*
X150949767Y-107930499D01*
X151227616Y-107930499D01*
X151227622Y-107930499D01*
X151251498Y-107927730D01*
X151349135Y-107884619D01*
X151349136Y-107884618D01*
X151349141Y-107884616D01*
X151424616Y-107809141D01*
X151467730Y-107711498D01*
X151470500Y-107687623D01*
X151470499Y-107332378D01*
X151467730Y-107308502D01*
X151467729Y-107308499D01*
X151424619Y-107210864D01*
X151424617Y-107210861D01*
X151424616Y-107210859D01*
X151349141Y-107135384D01*
X151325587Y-107124984D01*
X151299428Y-107113433D01*
X151246053Y-107068346D01*
X151225526Y-107001560D01*
X151244365Y-106934278D01*
X151296589Y-106887862D01*
X151299344Y-106886603D01*
X151349141Y-106864616D01*
X151424616Y-106789141D01*
X151467730Y-106691498D01*
X151470500Y-106667623D01*
X151470499Y-106389766D01*
X151490183Y-106322728D01*
X151506814Y-106302090D01*
X151789158Y-106019745D01*
X151791456Y-106017565D01*
X151821509Y-105990507D01*
X151821509Y-105990506D01*
X151831197Y-105981784D01*
X151832289Y-105982997D01*
X151875506Y-105949669D01*
X151945119Y-105943686D01*
X152006915Y-105976289D01*
X152041276Y-106037126D01*
X152044500Y-106065218D01*
X152044500Y-106587461D01*
X152044415Y-106590706D01*
X152042300Y-106631062D01*
X152042300Y-106631066D01*
X152049620Y-106650135D01*
X152055144Y-106668785D01*
X152059392Y-106688767D01*
X152059393Y-106688769D01*
X152060521Y-106690322D01*
X152075964Y-106718763D01*
X152076654Y-106720560D01*
X152088179Y-106732085D01*
X152121666Y-106793407D01*
X152124500Y-106819768D01*
X152124500Y-107308260D01*
X152134426Y-107376391D01*
X152185803Y-107481485D01*
X152268514Y-107564196D01*
X152268515Y-107564196D01*
X152268517Y-107564198D01*
X152373607Y-107615573D01*
X152407673Y-107620536D01*
X152441739Y-107625500D01*
X152441740Y-107625500D01*
X152908261Y-107625500D01*
X152930971Y-107622191D01*
X152976393Y-107615573D01*
X153081483Y-107564198D01*
X153164198Y-107481483D01*
X153215573Y-107376393D01*
X153225500Y-107308260D01*
X153225500Y-106691740D01*
X153225293Y-106690322D01*
X153215573Y-106623608D01*
X153212762Y-106617857D01*
X153164198Y-106518517D01*
X153164196Y-106518515D01*
X153164196Y-106518514D01*
X153081485Y-106435803D01*
X152976391Y-106384426D01*
X152908261Y-106374500D01*
X152908260Y-106374500D01*
X152619500Y-106374500D01*
X152552461Y-106354815D01*
X152506706Y-106302011D01*
X152495500Y-106250500D01*
X152495500Y-105929209D01*
X152515185Y-105862170D01*
X152567989Y-105816415D01*
X152637147Y-105806471D01*
X152669584Y-105815774D01*
X152685009Y-105822585D01*
X152710135Y-105825500D01*
X152780230Y-105825499D01*
X152847269Y-105845183D01*
X152867912Y-105861818D01*
X153738181Y-106732086D01*
X153771666Y-106793409D01*
X153774500Y-106819767D01*
X153774500Y-107308260D01*
X153784426Y-107376391D01*
X153835803Y-107481485D01*
X153918514Y-107564196D01*
X153918515Y-107564196D01*
X153918517Y-107564198D01*
X154023607Y-107615573D01*
X154057673Y-107620536D01*
X154091739Y-107625500D01*
X154091740Y-107625500D01*
X154558261Y-107625500D01*
X154580971Y-107622191D01*
X154626393Y-107615573D01*
X154731483Y-107564198D01*
X154814198Y-107481483D01*
X154865573Y-107376393D01*
X154875500Y-107308260D01*
X154875500Y-106691740D01*
X154875293Y-106690322D01*
X154865573Y-106623608D01*
X154862762Y-106617857D01*
X154814198Y-106518517D01*
X154814196Y-106518515D01*
X154814196Y-106518514D01*
X154731485Y-106435803D01*
X154626391Y-106384426D01*
X154558261Y-106374500D01*
X154558260Y-106374500D01*
X154091740Y-106374500D01*
X154091739Y-106374500D01*
X154089279Y-106374858D01*
X154088441Y-106374739D01*
X154087269Y-106374824D01*
X154087250Y-106374569D01*
X154020103Y-106365035D01*
X153983737Y-106339832D01*
X153748452Y-106104547D01*
X153714967Y-106043224D01*
X153719951Y-105973532D01*
X153761823Y-105917599D01*
X153827287Y-105893182D01*
X153892430Y-105906382D01*
X153899857Y-105910166D01*
X153899855Y-105910166D01*
X153993514Y-105924999D01*
X154049999Y-105924998D01*
X154050000Y-105924998D01*
X154050000Y-104775000D01*
X154300000Y-104775000D01*
X154300000Y-105924999D01*
X154356479Y-105924999D01*
X154450149Y-105910164D01*
X154450155Y-105910162D01*
X154563041Y-105852643D01*
X154563050Y-105852636D01*
X154652636Y-105763050D01*
X154652639Y-105763046D01*
X154710166Y-105650144D01*
X154725000Y-105556486D01*
X154725000Y-104775000D01*
X154300000Y-104775000D01*
X154050000Y-104775000D01*
X153625001Y-104775000D01*
X153625001Y-105556479D01*
X153639835Y-105650149D01*
X153639835Y-105650150D01*
X153643616Y-105657569D01*
X153656512Y-105726239D01*
X153630236Y-105790979D01*
X153573129Y-105831236D01*
X153503323Y-105834228D01*
X153445450Y-105801545D01*
X153377825Y-105733920D01*
X153344340Y-105672597D01*
X153349324Y-105602905D01*
X153352075Y-105596146D01*
X153352585Y-105594991D01*
X153355500Y-105569865D01*
X153355499Y-104525000D01*
X153625000Y-104525000D01*
X154050000Y-104525000D01*
X154050000Y-103375000D01*
X154300000Y-103375000D01*
X154300000Y-104525000D01*
X154724999Y-104525000D01*
X154724999Y-103743520D01*
X154710164Y-103649850D01*
X154710162Y-103649844D01*
X154652643Y-103536958D01*
X154652636Y-103536949D01*
X154563050Y-103447363D01*
X154563046Y-103447360D01*
X154450144Y-103389833D01*
X154356486Y-103375000D01*
X154300000Y-103375000D01*
X154050000Y-103375000D01*
X154049999Y-103374999D01*
X153993521Y-103375000D01*
X153899849Y-103389835D01*
X153899844Y-103389837D01*
X153786958Y-103447356D01*
X153786949Y-103447363D01*
X153697363Y-103536949D01*
X153697360Y-103536953D01*
X153639833Y-103649855D01*
X153625000Y-103743513D01*
X153625000Y-104525000D01*
X153355499Y-104525000D01*
X153355499Y-103730136D01*
X153355497Y-103730117D01*
X153352586Y-103705012D01*
X153352585Y-103705010D01*
X153352585Y-103705009D01*
X153307206Y-103602235D01*
X153227765Y-103522794D01*
X153227763Y-103522793D01*
X153227759Y-103522790D01*
X153204414Y-103512483D01*
X153151037Y-103467397D01*
X153130510Y-103400611D01*
X153130500Y-103399049D01*
X153130500Y-102048018D01*
X153130585Y-102044773D01*
X153130768Y-102041278D01*
X153132699Y-102004436D01*
X153125378Y-101985365D01*
X153119853Y-101966711D01*
X153119826Y-101966583D01*
X153115607Y-101946732D01*
X153115605Y-101946729D01*
X153114478Y-101945177D01*
X153099031Y-101916726D01*
X153098345Y-101914940D01*
X153098345Y-101914939D01*
X153083904Y-101900499D01*
X153071268Y-101885705D01*
X153059260Y-101869177D01*
X153059259Y-101869176D01*
X153058310Y-101868628D01*
X153057593Y-101868214D01*
X153031915Y-101848510D01*
X150626819Y-99443414D01*
X150593334Y-99382091D01*
X150590500Y-99355733D01*
X150590500Y-97610768D01*
X150610185Y-97543729D01*
X150662989Y-97497974D01*
X150732147Y-97488030D01*
X150795703Y-97517055D01*
X150802181Y-97523087D01*
X150821099Y-97542005D01*
X150833735Y-97556800D01*
X150845740Y-97573323D01*
X150847398Y-97574280D01*
X150873082Y-97593988D01*
X153032043Y-99752949D01*
X155183181Y-101904086D01*
X155216666Y-101965409D01*
X155219500Y-101991767D01*
X155219500Y-103399049D01*
X155199815Y-103466088D01*
X155147011Y-103511843D01*
X155145586Y-103512483D01*
X155122240Y-103522790D01*
X155122232Y-103522796D01*
X155042794Y-103602234D01*
X154997415Y-103705006D01*
X154997415Y-103705008D01*
X154994500Y-103730131D01*
X154994500Y-105569856D01*
X154994502Y-105569882D01*
X154997413Y-105594987D01*
X154997415Y-105594991D01*
X155042793Y-105697764D01*
X155042794Y-105697765D01*
X155122235Y-105777206D01*
X155225009Y-105822585D01*
X155250135Y-105825500D01*
X155639864Y-105825499D01*
X155639879Y-105825497D01*
X155639882Y-105825497D01*
X155664987Y-105822586D01*
X155664988Y-105822585D01*
X155664991Y-105822585D01*
X155767765Y-105777206D01*
X155847206Y-105697765D01*
X155892585Y-105594991D01*
X155895500Y-105569865D01*
X155895499Y-103730136D01*
X155895497Y-103730117D01*
X155892586Y-103705012D01*
X155892585Y-103705010D01*
X155892585Y-103705009D01*
X155847206Y-103602235D01*
X155767765Y-103522794D01*
X155767763Y-103522793D01*
X155767759Y-103522790D01*
X155744414Y-103512483D01*
X155691037Y-103467397D01*
X155670510Y-103400611D01*
X155670500Y-103399049D01*
X155670500Y-102875000D01*
X157740000Y-102875000D01*
X157740000Y-102924628D01*
X157754503Y-102997540D01*
X157754505Y-102997544D01*
X157809760Y-103080239D01*
X157892455Y-103135494D01*
X157892459Y-103135496D01*
X157965371Y-103149999D01*
X157965374Y-103150000D01*
X158315000Y-103150000D01*
X158315000Y-102875000D01*
X157740000Y-102875000D01*
X155670500Y-102875000D01*
X155670500Y-102625000D01*
X157740000Y-102625000D01*
X158441000Y-102625000D01*
X158508039Y-102644685D01*
X158553794Y-102697489D01*
X158565000Y-102749000D01*
X158565000Y-103150000D01*
X158571555Y-103156555D01*
X158605040Y-103217878D01*
X158600056Y-103287570D01*
X158588192Y-103311272D01*
X158563020Y-103350442D01*
X158524500Y-103481632D01*
X158524500Y-103618367D01*
X158563021Y-103749559D01*
X158563020Y-103749559D01*
X158636942Y-103864586D01*
X158636946Y-103864590D01*
X158740278Y-103954127D01*
X158740285Y-103954132D01*
X158797647Y-103980328D01*
X158864658Y-104010931D01*
X158965989Y-104025500D01*
X158965992Y-104025500D01*
X159034008Y-104025500D01*
X159034011Y-104025500D01*
X159135342Y-104010931D01*
X159220873Y-103971870D01*
X159267786Y-103950446D01*
X159268516Y-103952045D01*
X159325316Y-103935359D01*
X159392358Y-103955034D01*
X159438121Y-104007831D01*
X159449045Y-104067819D01*
X159445618Y-104117916D01*
X159445619Y-104117921D01*
X159476405Y-104266078D01*
X159476407Y-104266083D01*
X159476408Y-104266085D01*
X159546029Y-104400447D01*
X159546031Y-104400449D01*
X159546032Y-104400451D01*
X159649318Y-104511043D01*
X159661712Y-104518580D01*
X159778618Y-104589672D01*
X159924335Y-104630500D01*
X159924336Y-104630500D01*
X160537659Y-104630500D01*
X160565723Y-104626642D01*
X160649920Y-104615070D01*
X160759854Y-104567318D01*
X160788716Y-104554782D01*
X160788716Y-104554781D01*
X160788720Y-104554780D01*
X160906108Y-104459278D01*
X160993377Y-104335647D01*
X161017123Y-104268833D01*
X161044053Y-104193060D01*
X161044053Y-104193058D01*
X161044054Y-104193056D01*
X161054381Y-104042079D01*
X161048799Y-104015217D01*
X161023594Y-103893921D01*
X161023592Y-103893918D01*
X161023592Y-103893915D01*
X160953971Y-103759553D01*
X160953967Y-103759549D01*
X160953967Y-103759548D01*
X160850681Y-103648956D01*
X160747352Y-103586121D01*
X160721382Y-103570328D01*
X160575665Y-103529500D01*
X159962342Y-103529500D01*
X159962341Y-103529500D01*
X159850082Y-103544929D01*
X159850079Y-103544930D01*
X159711282Y-103605218D01*
X159711280Y-103605219D01*
X159677754Y-103632495D01*
X159613327Y-103659533D01*
X159544511Y-103647446D01*
X159493153Y-103600074D01*
X159475500Y-103536306D01*
X159475500Y-103481632D01*
X159468111Y-103456468D01*
X159468111Y-103386599D01*
X159505885Y-103327820D01*
X159569441Y-103298795D01*
X159603274Y-103298594D01*
X159650000Y-103304746D01*
X159650001Y-103304746D01*
X159793578Y-103285842D01*
X159793582Y-103285841D01*
X159927368Y-103230426D01*
X159927369Y-103230426D01*
X159942239Y-103219015D01*
X159942239Y-103219014D01*
X159673095Y-102949871D01*
X159739008Y-102934827D01*
X159810387Y-102877905D01*
X159850000Y-102795649D01*
X159850000Y-102773223D01*
X160119014Y-103042239D01*
X160119015Y-103042239D01*
X160130426Y-103027369D01*
X160130426Y-103027368D01*
X160185842Y-102893580D01*
X160186158Y-102892403D01*
X160186695Y-102891521D01*
X160188953Y-102886071D01*
X160189803Y-102886423D01*
X160222525Y-102832743D01*
X160285373Y-102802216D01*
X160305932Y-102800500D01*
X160414773Y-102800500D01*
X160414773Y-102800499D01*
X160539069Y-102764004D01*
X160648049Y-102693967D01*
X160732882Y-102596063D01*
X160786697Y-102478226D01*
X160805133Y-102350000D01*
X160786697Y-102221774D01*
X160732882Y-102103937D01*
X160732880Y-102103935D01*
X160732879Y-102103932D01*
X160669858Y-102031202D01*
X160640833Y-101967647D01*
X160650777Y-101898488D01*
X160669858Y-101868798D01*
X160732879Y-101796067D01*
X160732879Y-101796065D01*
X160732882Y-101796063D01*
X160786697Y-101678226D01*
X160805133Y-101550000D01*
X160786697Y-101421774D01*
X160732882Y-101303937D01*
X160732880Y-101303935D01*
X160732879Y-101303932D01*
X160669858Y-101231202D01*
X160640833Y-101167647D01*
X160650777Y-101098488D01*
X160669858Y-101068798D01*
X160732879Y-100996067D01*
X160732879Y-100996065D01*
X160732882Y-100996063D01*
X160786697Y-100878226D01*
X160805133Y-100750000D01*
X160786697Y-100621774D01*
X160732882Y-100503937D01*
X160648049Y-100406033D01*
X160539069Y-100335996D01*
X160539065Y-100335994D01*
X160539064Y-100335994D01*
X160414774Y-100299500D01*
X160414772Y-100299500D01*
X160285228Y-100299500D01*
X160285226Y-100299500D01*
X160242442Y-100312062D01*
X160172572Y-100312062D01*
X160113794Y-100274287D01*
X160088531Y-100228022D01*
X160086697Y-100221779D01*
X160086697Y-100221774D01*
X160032882Y-100103937D01*
X160032880Y-100103935D01*
X160032879Y-100103932D01*
X159969858Y-100031202D01*
X159940833Y-99967647D01*
X159950777Y-99898488D01*
X159969858Y-99868798D01*
X160032879Y-99796067D01*
X160032879Y-99796065D01*
X160032882Y-99796063D01*
X160086697Y-99678226D01*
X160086697Y-99678224D01*
X160088531Y-99671980D01*
X160126305Y-99613201D01*
X160189861Y-99584176D01*
X160242440Y-99587936D01*
X160285228Y-99600500D01*
X160414773Y-99600500D01*
X160414773Y-99600499D01*
X160539069Y-99564004D01*
X160648049Y-99493967D01*
X160732882Y-99396063D01*
X160786697Y-99278226D01*
X160805133Y-99150000D01*
X160786697Y-99021774D01*
X160732882Y-98903937D01*
X160732880Y-98903935D01*
X160732879Y-98903932D01*
X160669858Y-98831202D01*
X160640833Y-98767647D01*
X160650777Y-98698488D01*
X160669858Y-98668798D01*
X160732879Y-98596067D01*
X160732879Y-98596065D01*
X160732882Y-98596063D01*
X160786697Y-98478226D01*
X160805133Y-98350000D01*
X160786697Y-98221774D01*
X160732882Y-98103937D01*
X160732880Y-98103935D01*
X160732879Y-98103932D01*
X160669858Y-98031202D01*
X160640833Y-97967647D01*
X160650777Y-97898488D01*
X160669858Y-97868798D01*
X160732879Y-97796067D01*
X160732879Y-97796065D01*
X160732882Y-97796063D01*
X160786697Y-97678226D01*
X160805133Y-97550000D01*
X160786697Y-97421774D01*
X160732882Y-97303937D01*
X160648049Y-97206033D01*
X160539069Y-97135996D01*
X160539065Y-97135994D01*
X160539064Y-97135994D01*
X160414774Y-97099500D01*
X160414772Y-97099500D01*
X160305932Y-97099500D01*
X160238893Y-97079815D01*
X160193138Y-97027011D01*
X160186158Y-97007597D01*
X160185842Y-97006419D01*
X160130425Y-96872630D01*
X160130424Y-96872627D01*
X160119015Y-96857758D01*
X159850000Y-97126773D01*
X159850000Y-97104351D01*
X159810387Y-97022095D01*
X159739008Y-96965173D01*
X159673094Y-96950128D01*
X159942240Y-96680982D01*
X159927378Y-96669580D01*
X159927370Y-96669575D01*
X159793578Y-96614157D01*
X159650001Y-96595254D01*
X159649996Y-96595254D01*
X159615684Y-96599771D01*
X159546649Y-96589005D01*
X159494394Y-96542624D01*
X159475500Y-96476832D01*
X159475500Y-96365875D01*
X159495185Y-96298836D01*
X159547989Y-96253081D01*
X159617147Y-96243137D01*
X159663925Y-96259925D01*
X159778618Y-96329672D01*
X159924335Y-96370500D01*
X159924336Y-96370500D01*
X160537659Y-96370500D01*
X160571307Y-96365875D01*
X160649920Y-96355070D01*
X160762634Y-96306111D01*
X160788716Y-96294782D01*
X160788716Y-96294781D01*
X160788720Y-96294780D01*
X160906108Y-96199278D01*
X160993377Y-96075647D01*
X161013572Y-96018823D01*
X161044053Y-95933060D01*
X161044053Y-95933058D01*
X161044054Y-95933056D01*
X161054381Y-95782079D01*
X161050660Y-95764171D01*
X161023594Y-95633921D01*
X161023592Y-95633918D01*
X161023592Y-95633915D01*
X160953971Y-95499553D01*
X160953967Y-95499549D01*
X160953967Y-95499548D01*
X160850681Y-95388956D01*
X160748699Y-95326940D01*
X160721382Y-95310328D01*
X160575665Y-95269500D01*
X159962342Y-95269500D01*
X159962341Y-95269500D01*
X159850082Y-95284929D01*
X159850079Y-95284930D01*
X159711283Y-95345217D01*
X159593889Y-95440724D01*
X159506623Y-95564352D01*
X159506621Y-95564355D01*
X159455946Y-95706939D01*
X159455946Y-95706942D01*
X159454150Y-95733197D01*
X159429935Y-95798737D01*
X159374131Y-95840780D01*
X159304455Y-95845980D01*
X159263403Y-95829050D01*
X159199561Y-95788022D01*
X159199559Y-95788021D01*
X159199557Y-95788020D01*
X159068368Y-95749500D01*
X159068367Y-95749500D01*
X158931633Y-95749500D01*
X158931632Y-95749500D01*
X158800440Y-95788021D01*
X158685413Y-95861942D01*
X158685409Y-95861946D01*
X158595872Y-95965278D01*
X158595867Y-95965285D01*
X158539070Y-96089654D01*
X158539068Y-96089663D01*
X158524500Y-96190988D01*
X158524500Y-96509011D01*
X158539068Y-96610336D01*
X158539068Y-96610339D01*
X158539068Y-96610340D01*
X158539069Y-96610342D01*
X158557146Y-96649925D01*
X158586569Y-96714352D01*
X158596512Y-96783511D01*
X158567486Y-96847066D01*
X158565000Y-96849736D01*
X158565000Y-97251000D01*
X158545315Y-97318039D01*
X158492511Y-97363794D01*
X158441000Y-97375000D01*
X157740000Y-97375000D01*
X157740000Y-97424628D01*
X157754503Y-97497540D01*
X157754504Y-97497543D01*
X157816546Y-97590396D01*
X157813446Y-97592466D01*
X157836660Y-97634954D01*
X157839500Y-97661342D01*
X157839500Y-97914820D01*
X157839500Y-97914822D01*
X157839499Y-97914822D01*
X157850615Y-97970700D01*
X157847690Y-97971281D01*
X157853140Y-98022033D01*
X157849794Y-98033427D01*
X157839500Y-98085177D01*
X157839500Y-98085180D01*
X157839500Y-98414820D01*
X157839500Y-98414822D01*
X157839499Y-98414822D01*
X157850615Y-98470700D01*
X157847690Y-98471281D01*
X157853140Y-98522033D01*
X157849794Y-98533427D01*
X157839500Y-98585177D01*
X157839500Y-98585180D01*
X157839500Y-98914820D01*
X157839500Y-98914822D01*
X157839499Y-98914822D01*
X157850615Y-98970700D01*
X157847690Y-98971281D01*
X157853140Y-99022033D01*
X157849794Y-99033427D01*
X157839500Y-99085177D01*
X157839500Y-99085180D01*
X157839500Y-99414820D01*
X157839500Y-99414822D01*
X157839499Y-99414822D01*
X157850615Y-99470700D01*
X157847690Y-99471281D01*
X157853140Y-99522033D01*
X157849794Y-99533427D01*
X157839500Y-99585177D01*
X157839500Y-99585180D01*
X157839500Y-99914820D01*
X157839500Y-99914822D01*
X157839499Y-99914822D01*
X157850615Y-99970700D01*
X157847690Y-99971281D01*
X157853140Y-100022033D01*
X157849794Y-100033427D01*
X157839500Y-100085177D01*
X157839500Y-100085180D01*
X157839500Y-100414820D01*
X157839500Y-100414822D01*
X157839499Y-100414822D01*
X157850615Y-100470700D01*
X157847690Y-100471281D01*
X157853140Y-100522033D01*
X157849794Y-100533427D01*
X157839500Y-100585177D01*
X157839500Y-100585180D01*
X157839500Y-100914820D01*
X157839500Y-100914822D01*
X157839499Y-100914822D01*
X157850615Y-100970700D01*
X157847690Y-100971281D01*
X157853140Y-101022033D01*
X157849794Y-101033427D01*
X157839500Y-101085177D01*
X157839500Y-101085180D01*
X157839500Y-101414820D01*
X157839500Y-101414822D01*
X157839499Y-101414822D01*
X157850615Y-101470700D01*
X157847690Y-101471281D01*
X157853140Y-101522033D01*
X157849794Y-101533427D01*
X157839500Y-101585177D01*
X157839500Y-101585180D01*
X157839500Y-101914820D01*
X157839500Y-101914822D01*
X157839499Y-101914822D01*
X157850615Y-101970700D01*
X157847690Y-101971281D01*
X157853140Y-102022033D01*
X157849794Y-102033427D01*
X157839500Y-102085177D01*
X157839500Y-102338657D01*
X157819815Y-102405696D01*
X157815960Y-102410480D01*
X157754505Y-102502455D01*
X157754503Y-102502459D01*
X157740000Y-102575371D01*
X157740000Y-102625000D01*
X155670500Y-102625000D01*
X155670500Y-101854524D01*
X155670585Y-101851279D01*
X155670754Y-101848048D01*
X155672699Y-101810936D01*
X155665378Y-101791865D01*
X155659853Y-101773211D01*
X155655607Y-101753232D01*
X155655605Y-101753229D01*
X155654478Y-101751677D01*
X155639031Y-101723226D01*
X155638345Y-101721440D01*
X155638345Y-101721439D01*
X155623904Y-101706999D01*
X155611268Y-101692205D01*
X155599260Y-101675677D01*
X155599259Y-101675676D01*
X155598310Y-101675128D01*
X155597593Y-101674714D01*
X155571915Y-101655010D01*
X151261819Y-97344914D01*
X151228334Y-97283591D01*
X151225500Y-97257233D01*
X151225500Y-97125000D01*
X157740000Y-97125000D01*
X158315000Y-97125000D01*
X158315000Y-96850000D01*
X157965373Y-96850000D01*
X157892459Y-96864503D01*
X157892455Y-96864505D01*
X157809760Y-96919760D01*
X157754505Y-97002455D01*
X157754503Y-97002459D01*
X157740000Y-97075371D01*
X157740000Y-97125000D01*
X151225500Y-97125000D01*
X151225500Y-96629209D01*
X151245185Y-96562170D01*
X151297989Y-96516415D01*
X151367147Y-96506471D01*
X151399584Y-96515774D01*
X151415009Y-96522585D01*
X151440135Y-96525500D01*
X151829864Y-96525499D01*
X151829879Y-96525497D01*
X151829882Y-96525497D01*
X151854987Y-96522586D01*
X151854988Y-96522585D01*
X151854991Y-96522585D01*
X151957765Y-96477206D01*
X152037206Y-96397765D01*
X152082585Y-96294991D01*
X152085500Y-96269865D01*
X152085500Y-96269856D01*
X152454500Y-96269856D01*
X152454502Y-96269882D01*
X152457413Y-96294987D01*
X152457415Y-96294991D01*
X152502793Y-96397764D01*
X152502794Y-96397765D01*
X152582235Y-96477206D01*
X152685009Y-96522585D01*
X152710135Y-96525500D01*
X153099864Y-96525499D01*
X153099879Y-96525497D01*
X153099882Y-96525497D01*
X153124987Y-96522586D01*
X153124988Y-96522585D01*
X153124991Y-96522585D01*
X153227765Y-96477206D01*
X153307206Y-96397765D01*
X153352585Y-96294991D01*
X153355500Y-96269865D01*
X153355499Y-95475000D01*
X153625001Y-95475000D01*
X153625001Y-96256479D01*
X153639835Y-96350149D01*
X153639837Y-96350155D01*
X153697356Y-96463041D01*
X153697363Y-96463050D01*
X153786949Y-96552636D01*
X153786953Y-96552639D01*
X153899855Y-96610166D01*
X153993514Y-96624999D01*
X154049999Y-96624998D01*
X154050000Y-96624998D01*
X154050000Y-95475000D01*
X154300000Y-95475000D01*
X154300000Y-96624999D01*
X154356479Y-96624999D01*
X154450149Y-96610164D01*
X154450155Y-96610162D01*
X154563041Y-96552643D01*
X154563050Y-96552636D01*
X154652636Y-96463050D01*
X154652639Y-96463046D01*
X154710166Y-96350144D01*
X154722882Y-96269856D01*
X154994500Y-96269856D01*
X154994502Y-96269882D01*
X154997413Y-96294987D01*
X154997415Y-96294991D01*
X155042793Y-96397764D01*
X155042794Y-96397765D01*
X155122235Y-96477206D01*
X155225009Y-96522585D01*
X155250135Y-96525500D01*
X155639864Y-96525499D01*
X155639879Y-96525497D01*
X155639882Y-96525497D01*
X155664987Y-96522586D01*
X155664988Y-96522585D01*
X155664991Y-96522585D01*
X155767765Y-96477206D01*
X155847206Y-96397765D01*
X155892585Y-96294991D01*
X155895500Y-96269865D01*
X155895499Y-94430136D01*
X155895497Y-94430117D01*
X155892586Y-94405012D01*
X155892585Y-94405010D01*
X155892585Y-94405009D01*
X155847206Y-94302235D01*
X155767765Y-94222794D01*
X155744413Y-94212483D01*
X155664992Y-94177415D01*
X155639865Y-94174500D01*
X155250143Y-94174500D01*
X155250117Y-94174502D01*
X155225012Y-94177413D01*
X155225008Y-94177415D01*
X155122235Y-94222793D01*
X155042794Y-94302234D01*
X154997415Y-94405006D01*
X154997415Y-94405008D01*
X154994500Y-94430131D01*
X154994500Y-96269856D01*
X154722882Y-96269856D01*
X154725000Y-96256486D01*
X154725000Y-95475000D01*
X154300000Y-95475000D01*
X154050000Y-95475000D01*
X153625001Y-95475000D01*
X153355499Y-95475000D01*
X153355499Y-95225000D01*
X153625000Y-95225000D01*
X154050000Y-95225000D01*
X154050000Y-94075000D01*
X154300000Y-94075000D01*
X154300000Y-95225000D01*
X154724999Y-95225000D01*
X154724999Y-94443520D01*
X154710164Y-94349850D01*
X154710162Y-94349844D01*
X154652643Y-94236958D01*
X154652636Y-94236949D01*
X154563050Y-94147363D01*
X154563046Y-94147360D01*
X154450144Y-94089833D01*
X154356486Y-94075000D01*
X154300000Y-94075000D01*
X154050000Y-94075000D01*
X154049999Y-94074999D01*
X153993521Y-94075000D01*
X153899849Y-94089835D01*
X153899844Y-94089837D01*
X153786958Y-94147356D01*
X153786949Y-94147363D01*
X153697363Y-94236949D01*
X153697360Y-94236953D01*
X153639833Y-94349855D01*
X153625000Y-94443513D01*
X153625000Y-95225000D01*
X153355499Y-95225000D01*
X153355499Y-94430136D01*
X153355497Y-94430117D01*
X153352586Y-94405012D01*
X153352585Y-94405010D01*
X153352585Y-94405009D01*
X153307206Y-94302235D01*
X153227765Y-94222794D01*
X153204413Y-94212483D01*
X153124992Y-94177415D01*
X153099865Y-94174500D01*
X152710143Y-94174500D01*
X152710117Y-94174502D01*
X152685012Y-94177413D01*
X152685008Y-94177415D01*
X152582235Y-94222793D01*
X152502794Y-94302234D01*
X152457415Y-94405006D01*
X152457415Y-94405008D01*
X152454500Y-94430131D01*
X152454500Y-96269856D01*
X152085500Y-96269856D01*
X152085499Y-94430136D01*
X152085497Y-94430117D01*
X152082586Y-94405012D01*
X152082585Y-94405010D01*
X152082585Y-94405009D01*
X152037206Y-94302235D01*
X151957765Y-94222794D01*
X151957763Y-94222793D01*
X151957759Y-94222790D01*
X151934414Y-94212483D01*
X151881037Y-94167397D01*
X151860510Y-94100611D01*
X151860500Y-94099049D01*
X151860500Y-93999766D01*
X151880185Y-93932727D01*
X151896815Y-93912089D01*
X152302086Y-93506817D01*
X152363409Y-93473333D01*
X152389767Y-93470499D01*
X152667616Y-93470499D01*
X152667622Y-93470499D01*
X152691498Y-93467730D01*
X152789135Y-93424619D01*
X152789135Y-93424618D01*
X152789141Y-93424616D01*
X152850676Y-93363080D01*
X152911995Y-93329598D01*
X152981687Y-93334582D01*
X153037621Y-93376453D01*
X153049753Y-93396301D01*
X153057334Y-93411807D01*
X153057335Y-93411809D01*
X153148189Y-93502663D01*
X153263625Y-93559096D01*
X153338464Y-93569999D01*
X153384999Y-93569999D01*
X153385000Y-93569998D01*
X153385000Y-93125000D01*
X153635000Y-93125000D01*
X153635000Y-93569999D01*
X153681540Y-93569999D01*
X153756374Y-93559096D01*
X153871810Y-93502663D01*
X153962663Y-93411810D01*
X154019096Y-93296374D01*
X154030000Y-93221535D01*
X154030000Y-93125000D01*
X153635000Y-93125000D01*
X153385000Y-93125000D01*
X153385000Y-93000000D01*
X160744353Y-93000000D01*
X160764834Y-93142456D01*
X160800949Y-93221535D01*
X160824623Y-93273373D01*
X160918872Y-93382143D01*
X161039947Y-93459953D01*
X161039950Y-93459954D01*
X161039949Y-93459954D01*
X161178036Y-93500499D01*
X161178038Y-93500500D01*
X161178039Y-93500500D01*
X161321962Y-93500500D01*
X161321962Y-93500499D01*
X161460053Y-93459953D01*
X161581128Y-93382143D01*
X161675377Y-93273373D01*
X161735165Y-93142457D01*
X161755647Y-93000000D01*
X161735165Y-92857543D01*
X161675377Y-92726627D01*
X161581128Y-92617857D01*
X161460053Y-92540047D01*
X161460051Y-92540046D01*
X161460049Y-92540045D01*
X161460050Y-92540045D01*
X161321963Y-92499500D01*
X161321961Y-92499500D01*
X161178039Y-92499500D01*
X161178036Y-92499500D01*
X161039949Y-92540045D01*
X160918873Y-92617856D01*
X160824623Y-92726626D01*
X160824622Y-92726628D01*
X160764834Y-92857543D01*
X160744353Y-93000000D01*
X153385000Y-93000000D01*
X153385000Y-92430000D01*
X153635000Y-92430000D01*
X153635000Y-92875000D01*
X154029999Y-92875000D01*
X154029999Y-92778460D01*
X154019096Y-92703625D01*
X153962663Y-92588189D01*
X153871810Y-92497336D01*
X153756374Y-92440903D01*
X153681536Y-92430000D01*
X153635000Y-92430000D01*
X153385000Y-92430000D01*
X153338465Y-92430000D01*
X153263626Y-92440903D01*
X153148189Y-92497336D01*
X153057333Y-92588192D01*
X153049752Y-92603700D01*
X153002622Y-92655280D01*
X152935087Y-92673192D01*
X152868590Y-92651748D01*
X152850673Y-92636916D01*
X152789143Y-92575386D01*
X152789141Y-92575384D01*
X152789138Y-92575383D01*
X152789136Y-92575381D01*
X152691500Y-92532270D01*
X152691501Y-92532270D01*
X152667623Y-92529500D01*
X152312384Y-92529500D01*
X152312361Y-92529502D01*
X152288504Y-92532269D01*
X152288501Y-92532269D01*
X152190864Y-92575380D01*
X152190856Y-92575386D01*
X152115386Y-92650856D01*
X152115381Y-92650863D01*
X152072270Y-92748499D01*
X152069500Y-92772375D01*
X152069500Y-93050232D01*
X152049815Y-93117271D01*
X152033181Y-93137913D01*
X151480877Y-93690216D01*
X151478524Y-93692450D01*
X151448490Y-93719493D01*
X151448489Y-93719495D01*
X151440179Y-93738158D01*
X151430899Y-93755249D01*
X151419775Y-93772378D01*
X151419772Y-93772387D01*
X151419471Y-93774289D01*
X151410286Y-93805300D01*
X151409501Y-93807063D01*
X151409500Y-93807068D01*
X151409500Y-93827489D01*
X151407974Y-93846884D01*
X151404778Y-93867065D01*
X151405274Y-93868917D01*
X151409500Y-93901012D01*
X151409500Y-94099049D01*
X151389815Y-94166088D01*
X151337011Y-94211843D01*
X151335586Y-94212483D01*
X151312240Y-94222790D01*
X151312233Y-94222796D01*
X151308069Y-94226960D01*
X151246744Y-94260442D01*
X151177053Y-94255455D01*
X151158387Y-94246660D01*
X151152592Y-94243314D01*
X151126915Y-94223610D01*
X150450255Y-93546950D01*
X149749164Y-92845859D01*
X149746949Y-92843524D01*
X149744503Y-92840808D01*
X149719907Y-92813491D01*
X149719903Y-92813489D01*
X149701249Y-92805183D01*
X149684154Y-92795901D01*
X149667020Y-92784775D01*
X149667018Y-92784774D01*
X149665112Y-92784472D01*
X149634083Y-92775279D01*
X149632332Y-92774500D01*
X149632331Y-92774500D01*
X149611906Y-92774500D01*
X149592508Y-92772973D01*
X149572335Y-92769777D01*
X149572333Y-92769778D01*
X149570479Y-92770275D01*
X149538387Y-92774500D01*
X147994800Y-92774500D01*
X147927761Y-92754815D01*
X147882006Y-92702011D01*
X147872096Y-92668383D01*
X147865573Y-92623607D01*
X147814198Y-92518517D01*
X147814196Y-92518515D01*
X147814196Y-92518514D01*
X147731485Y-92435803D01*
X147626391Y-92384426D01*
X147558261Y-92374500D01*
X147558260Y-92374500D01*
X147327308Y-92374500D01*
X147260269Y-92354815D01*
X147214514Y-92302011D01*
X147204369Y-92234314D01*
X147217032Y-92138137D01*
X147222250Y-92098500D01*
X147203330Y-91954791D01*
X147147861Y-91820875D01*
X147059621Y-91705879D01*
X146944625Y-91617639D01*
X146944624Y-91617638D01*
X146944622Y-91617637D01*
X146810712Y-91562171D01*
X146810710Y-91562170D01*
X146810709Y-91562170D01*
X146698817Y-91547438D01*
X146668580Y-91534062D01*
X146653931Y-91543477D01*
X146635182Y-91547439D01*
X146523291Y-91562170D01*
X146523287Y-91562171D01*
X146389377Y-91617637D01*
X146274379Y-91705879D01*
X146186137Y-91820877D01*
X146130671Y-91954787D01*
X146130669Y-91954792D01*
X146130105Y-91959084D01*
X146128621Y-91962437D01*
X146128567Y-91962641D01*
X146128535Y-91962632D01*
X146101840Y-92022981D01*
X146043516Y-92061452D01*
X146007166Y-92066900D01*
X145291838Y-92066900D01*
X145288593Y-92066815D01*
X145248236Y-92064700D01*
X145248232Y-92064700D01*
X145229164Y-92072020D01*
X145210516Y-92077544D01*
X145190532Y-92081792D01*
X145188971Y-92082927D01*
X145160535Y-92098365D01*
X145158743Y-92099052D01*
X145158740Y-92099055D01*
X145144295Y-92113499D01*
X145129506Y-92126129D01*
X145112978Y-92138137D01*
X145112974Y-92138142D01*
X145112012Y-92139809D01*
X145092311Y-92165482D01*
X143819612Y-93438181D01*
X143758289Y-93471666D01*
X143731931Y-93474500D01*
X143118482Y-93474500D01*
X143037519Y-93487323D01*
X143024696Y-93489354D01*
X142911658Y-93546950D01*
X142911657Y-93546951D01*
X142911652Y-93546954D01*
X142821954Y-93636652D01*
X142821951Y-93636657D01*
X142764352Y-93749698D01*
X142749500Y-93843475D01*
X142749500Y-95156517D01*
X142754733Y-95189554D01*
X142764354Y-95250304D01*
X142821950Y-95363342D01*
X142821952Y-95363344D01*
X142821954Y-95363347D01*
X142911652Y-95453045D01*
X142911656Y-95453048D01*
X142911658Y-95453050D01*
X142929777Y-95462282D01*
X142980572Y-95510254D01*
X142980905Y-95511601D01*
X143021560Y-95510150D01*
X143118475Y-95525499D01*
X143118481Y-95525500D01*
X143806518Y-95525499D01*
X143900304Y-95510646D01*
X144013342Y-95453050D01*
X144103050Y-95363342D01*
X144160646Y-95250304D01*
X144160646Y-95250302D01*
X144160647Y-95250301D01*
X144175499Y-95156524D01*
X144175500Y-95156519D01*
X144175499Y-93843482D01*
X144175499Y-93843481D01*
X144175499Y-93843477D01*
X144168514Y-93799376D01*
X144177469Y-93730082D01*
X144203303Y-93692300D01*
X144912820Y-92982784D01*
X144974142Y-92949300D01*
X145043834Y-92954284D01*
X145099767Y-92996156D01*
X145124184Y-93061620D01*
X145124500Y-93070466D01*
X145124500Y-93308260D01*
X145134426Y-93376391D01*
X145185803Y-93481485D01*
X145268514Y-93564196D01*
X145268515Y-93564196D01*
X145268517Y-93564198D01*
X145373607Y-93615573D01*
X145407673Y-93620536D01*
X145441739Y-93625500D01*
X145441740Y-93625500D01*
X145908255Y-93625500D01*
X145908260Y-93625500D01*
X145910700Y-93625144D01*
X145911535Y-93625262D01*
X145912732Y-93625176D01*
X145912750Y-93625435D01*
X145979875Y-93634955D01*
X146016262Y-93660167D01*
X146293181Y-93937086D01*
X146326666Y-93998409D01*
X146329500Y-94024767D01*
X146329500Y-94099049D01*
X146309815Y-94166088D01*
X146257011Y-94211843D01*
X146255586Y-94212483D01*
X146232240Y-94222790D01*
X146232232Y-94222796D01*
X146152794Y-94302234D01*
X146107415Y-94405006D01*
X146107415Y-94405008D01*
X146107415Y-94405009D01*
X146104500Y-94430135D01*
X146104500Y-95345220D01*
X146104501Y-96254600D01*
X146084816Y-96321639D01*
X146032013Y-96367394D01*
X145980501Y-96378600D01*
X143622567Y-96378600D01*
X143555528Y-96358915D01*
X143534886Y-96342281D01*
X143253105Y-96060500D01*
X142956264Y-95763659D01*
X142954049Y-95761324D01*
X142948253Y-95754887D01*
X142927007Y-95731291D01*
X142927006Y-95731290D01*
X142918287Y-95721607D01*
X142919615Y-95720410D01*
X142896209Y-95690060D01*
X142850596Y-95694636D01*
X142847709Y-95694058D01*
X142839435Y-95692300D01*
X142839432Y-95692300D01*
X142819006Y-95692300D01*
X142799608Y-95690773D01*
X142779435Y-95687577D01*
X142779433Y-95687578D01*
X142777579Y-95688075D01*
X142745487Y-95692300D01*
X141839500Y-95692300D01*
X141772461Y-95672615D01*
X141726706Y-95619811D01*
X141715500Y-95568300D01*
X141715500Y-95460018D01*
X141715585Y-95456773D01*
X141716426Y-95440722D01*
X141717699Y-95416436D01*
X141710378Y-95397365D01*
X141704853Y-95378711D01*
X141703809Y-95373799D01*
X141700607Y-95358732D01*
X141700605Y-95358729D01*
X141699478Y-95357177D01*
X141684031Y-95328726D01*
X141683345Y-95326940D01*
X141683345Y-95326939D01*
X141668904Y-95312499D01*
X141656268Y-95297705D01*
X141644260Y-95281177D01*
X141644259Y-95281176D01*
X141643310Y-95280628D01*
X141642593Y-95280214D01*
X141616915Y-95260510D01*
X141286818Y-94930413D01*
X141253333Y-94869090D01*
X141250499Y-94842732D01*
X141250499Y-93843482D01*
X141244452Y-93805300D01*
X141235646Y-93749696D01*
X141178050Y-93636658D01*
X141178046Y-93636654D01*
X141178045Y-93636652D01*
X141088347Y-93546954D01*
X141088344Y-93546952D01*
X141088342Y-93546950D01*
X141009579Y-93506818D01*
X140975301Y-93489352D01*
X140881524Y-93474500D01*
X140193482Y-93474500D01*
X140112519Y-93487323D01*
X140099696Y-93489354D01*
X139986658Y-93546950D01*
X139986657Y-93546951D01*
X139986652Y-93546954D01*
X139896954Y-93636652D01*
X139896951Y-93636657D01*
X139839352Y-93749698D01*
X139824500Y-93843475D01*
X139824500Y-95156517D01*
X139829733Y-95189554D01*
X139839354Y-95250304D01*
X139896950Y-95363342D01*
X139896952Y-95363344D01*
X139896954Y-95363347D01*
X139986652Y-95453045D01*
X139986654Y-95453046D01*
X139986658Y-95453050D01*
X140077923Y-95499552D01*
X140099698Y-95510647D01*
X140193475Y-95525499D01*
X140193481Y-95525500D01*
X140881518Y-95525499D01*
X140975304Y-95510646D01*
X141063256Y-95465831D01*
X141131924Y-95452936D01*
X141196665Y-95479212D01*
X141207231Y-95488636D01*
X141228181Y-95509586D01*
X141261666Y-95570909D01*
X141264500Y-95597267D01*
X141264500Y-95902726D01*
X141264160Y-95909210D01*
X141260725Y-95941895D01*
X141261587Y-95950093D01*
X141249018Y-96018823D01*
X141201287Y-96069847D01*
X141191918Y-96074659D01*
X141190856Y-96075386D01*
X141115386Y-96150856D01*
X141115381Y-96150863D01*
X141072270Y-96248499D01*
X141069500Y-96272375D01*
X141069500Y-96727615D01*
X141069502Y-96727638D01*
X141072269Y-96751495D01*
X141072269Y-96751498D01*
X141115380Y-96849135D01*
X141115383Y-96849139D01*
X141115384Y-96849141D01*
X141190859Y-96924616D01*
X141190862Y-96924617D01*
X141190863Y-96924618D01*
X141288499Y-96967729D01*
X141288500Y-96967729D01*
X141288502Y-96967730D01*
X141312377Y-96970500D01*
X141667622Y-96970499D01*
X141691498Y-96967730D01*
X141789135Y-96924619D01*
X141789135Y-96924618D01*
X141789141Y-96924616D01*
X141850676Y-96863080D01*
X141911995Y-96829598D01*
X141981687Y-96834582D01*
X142037621Y-96876453D01*
X142049753Y-96896301D01*
X142057334Y-96911807D01*
X142057335Y-96911809D01*
X142148189Y-97002663D01*
X142263625Y-97059096D01*
X142338464Y-97069999D01*
X142384999Y-97069999D01*
X142385000Y-97069998D01*
X142385000Y-96499000D01*
X142404685Y-96431961D01*
X142457489Y-96386206D01*
X142509000Y-96375000D01*
X142511000Y-96375000D01*
X142578039Y-96394685D01*
X142623794Y-96447489D01*
X142635000Y-96499000D01*
X142635000Y-97069999D01*
X142681540Y-97069999D01*
X142756374Y-97059096D01*
X142871810Y-97002663D01*
X142962663Y-96911810D01*
X143019096Y-96796375D01*
X143025694Y-96751090D01*
X143054838Y-96687589D01*
X143113687Y-96649925D01*
X143183557Y-96650056D01*
X143236080Y-96681286D01*
X143313023Y-96758229D01*
X143315258Y-96760584D01*
X143342292Y-96790608D01*
X143342293Y-96790609D01*
X143360953Y-96798917D01*
X143378047Y-96808198D01*
X143395183Y-96819326D01*
X143397071Y-96819624D01*
X143428117Y-96828821D01*
X143429867Y-96829600D01*
X143429868Y-96829600D01*
X143450295Y-96829600D01*
X143469693Y-96831127D01*
X143489865Y-96834322D01*
X143489865Y-96834321D01*
X143489866Y-96834322D01*
X143491174Y-96833971D01*
X143491722Y-96833825D01*
X143523814Y-96829600D01*
X148146062Y-96829600D01*
X148149306Y-96829684D01*
X148189664Y-96831800D01*
X148208738Y-96824477D01*
X148227389Y-96818953D01*
X148247368Y-96814707D01*
X148248913Y-96813584D01*
X148277367Y-96798134D01*
X148279160Y-96797446D01*
X148293613Y-96782991D01*
X148308396Y-96770366D01*
X148324923Y-96758360D01*
X148325881Y-96756699D01*
X148345585Y-96731019D01*
X148598136Y-96478469D01*
X148659459Y-96444984D01*
X148729151Y-96449968D01*
X148762349Y-96471304D01*
X148762755Y-96470712D01*
X148772233Y-96477204D01*
X148772235Y-96477206D01*
X148875009Y-96522585D01*
X148900135Y-96525500D01*
X149289864Y-96525499D01*
X149289879Y-96525497D01*
X149289882Y-96525497D01*
X149314987Y-96522586D01*
X149314988Y-96522585D01*
X149314991Y-96522585D01*
X149417765Y-96477206D01*
X149497206Y-96397765D01*
X149542585Y-96294991D01*
X149545500Y-96269865D01*
X149545499Y-94430136D01*
X149545497Y-94430117D01*
X149542586Y-94405012D01*
X149542585Y-94405010D01*
X149542585Y-94405009D01*
X149497206Y-94302235D01*
X149417765Y-94222794D01*
X149394413Y-94212483D01*
X149314992Y-94177415D01*
X149289865Y-94174500D01*
X148900143Y-94174500D01*
X148900117Y-94174502D01*
X148875012Y-94177413D01*
X148875008Y-94177415D01*
X148772235Y-94222793D01*
X148692794Y-94302234D01*
X148647415Y-94405006D01*
X148647415Y-94405008D01*
X148644500Y-94430131D01*
X148644500Y-95742932D01*
X148624815Y-95809971D01*
X148608181Y-95830613D01*
X148487180Y-95951614D01*
X148425857Y-95985099D01*
X148356165Y-95980115D01*
X148300232Y-95938243D01*
X148275815Y-95872779D01*
X148275499Y-95863933D01*
X148275499Y-94430143D01*
X148275499Y-94430137D01*
X148275499Y-94430136D01*
X148275497Y-94430117D01*
X148272586Y-94405012D01*
X148272585Y-94405010D01*
X148272585Y-94405009D01*
X148227206Y-94302235D01*
X148147765Y-94222794D01*
X148124413Y-94212483D01*
X148044992Y-94177415D01*
X148019868Y-94174500D01*
X147669467Y-94174500D01*
X147602428Y-94154815D01*
X147581786Y-94138181D01*
X147280786Y-93837181D01*
X147247301Y-93775858D01*
X147252285Y-93706166D01*
X147294157Y-93650233D01*
X147359621Y-93625816D01*
X147368467Y-93625500D01*
X147558261Y-93625500D01*
X147580971Y-93622191D01*
X147626393Y-93615573D01*
X147731483Y-93564198D01*
X147814198Y-93481483D01*
X147865573Y-93376393D01*
X147872096Y-93331619D01*
X147901239Y-93268122D01*
X147960088Y-93230458D01*
X147994800Y-93225500D01*
X149439632Y-93225500D01*
X149506671Y-93245185D01*
X149527313Y-93261819D01*
X150230635Y-93965141D01*
X150264120Y-94026464D01*
X150259136Y-94096156D01*
X150217264Y-94152089D01*
X150157239Y-94175996D01*
X150145011Y-94177414D01*
X150145008Y-94177415D01*
X150042235Y-94222793D01*
X149962794Y-94302234D01*
X149917415Y-94405006D01*
X149917415Y-94405008D01*
X149914500Y-94430131D01*
X149914500Y-96269856D01*
X149914502Y-96269882D01*
X149917413Y-96294987D01*
X149917415Y-96294991D01*
X149962793Y-96397764D01*
X149962794Y-96397765D01*
X150042235Y-96477206D01*
X150058757Y-96484501D01*
X150065585Y-96487516D01*
X150118962Y-96532601D01*
X150139490Y-96599387D01*
X150139500Y-96600951D01*
X150139500Y-99492961D01*
X150139415Y-99496206D01*
X150137300Y-99536562D01*
X150137300Y-99536566D01*
X150144620Y-99555635D01*
X150150144Y-99574285D01*
X150154392Y-99594267D01*
X150154393Y-99594269D01*
X150155521Y-99595822D01*
X150170964Y-99624263D01*
X150171654Y-99626060D01*
X150186097Y-99640503D01*
X150198735Y-99655300D01*
X150210740Y-99671823D01*
X150212398Y-99672780D01*
X150238082Y-99692488D01*
X151449531Y-100903937D01*
X152643181Y-102097586D01*
X152676666Y-102158909D01*
X152679500Y-102185267D01*
X152679500Y-103399049D01*
X152659815Y-103466088D01*
X152607011Y-103511843D01*
X152605586Y-103512483D01*
X152582240Y-103522790D01*
X152582232Y-103522796D01*
X152574136Y-103530892D01*
X152512811Y-103564373D01*
X152443119Y-103559384D01*
X152424461Y-103550593D01*
X152422599Y-103549518D01*
X152396917Y-103529811D01*
X151876893Y-103009787D01*
X150271964Y-101404859D01*
X150269749Y-101402524D01*
X150249558Y-101380100D01*
X150242707Y-101372491D01*
X150242703Y-101372489D01*
X150224049Y-101364183D01*
X150206954Y-101354901D01*
X150189820Y-101343775D01*
X150189818Y-101343774D01*
X150187912Y-101343472D01*
X150156883Y-101334279D01*
X150155132Y-101333500D01*
X150155131Y-101333500D01*
X150134706Y-101333500D01*
X150115308Y-101331973D01*
X150095135Y-101328777D01*
X150095133Y-101328778D01*
X150093279Y-101329275D01*
X150061187Y-101333500D01*
X148698738Y-101333500D01*
X148695494Y-101333415D01*
X148684780Y-101332853D01*
X148655139Y-101331300D01*
X148655138Y-101331300D01*
X148655136Y-101331300D01*
X148655134Y-101331300D01*
X148655132Y-101331301D01*
X148636064Y-101338620D01*
X148617420Y-101344143D01*
X148597434Y-101348392D01*
X148597429Y-101348394D01*
X148595872Y-101349526D01*
X148567447Y-101364959D01*
X148565646Y-101365650D01*
X148565637Y-101365656D01*
X148551193Y-101380100D01*
X148536403Y-101392733D01*
X148519875Y-101404741D01*
X148518914Y-101406407D01*
X148499213Y-101432079D01*
X146493112Y-103438181D01*
X146431789Y-103471666D01*
X146405434Y-103474500D01*
X146360143Y-103474500D01*
X146360118Y-103474502D01*
X146335011Y-103477414D01*
X146335008Y-103477415D01*
X146232235Y-103522793D01*
X146152794Y-103602234D01*
X146107415Y-103705006D01*
X146107415Y-103705008D01*
X146104500Y-103730131D01*
X146104500Y-105569856D01*
X146104502Y-105569882D01*
X146107413Y-105594987D01*
X146107415Y-105594991D01*
X146152793Y-105697764D01*
X146152794Y-105697765D01*
X146232235Y-105777206D01*
X146335009Y-105822585D01*
X146360135Y-105825500D01*
X146576232Y-105825499D01*
X146643271Y-105845183D01*
X146689026Y-105897987D01*
X146698970Y-105967145D01*
X146669945Y-106030701D01*
X146663913Y-106037180D01*
X146647912Y-106053181D01*
X146586589Y-106086666D01*
X146560231Y-106089500D01*
X146286634Y-106089500D01*
X146286611Y-106089502D01*
X146262340Y-106092317D01*
X146262337Y-106092318D01*
X146162984Y-106136186D01*
X146086187Y-106212983D01*
X146042318Y-106312335D01*
X146042318Y-106312337D01*
X146039500Y-106336625D01*
X146039500Y-106703365D01*
X146039502Y-106703388D01*
X146042317Y-106727659D01*
X146042318Y-106727662D01*
X146086186Y-106827015D01*
X146101133Y-106841962D01*
X146134618Y-106903285D01*
X146129634Y-106972977D01*
X146101133Y-107017324D01*
X146010555Y-107107901D01*
X146010551Y-107107906D01*
X145954463Y-107217984D01*
X145940000Y-107309308D01*
X145940000Y-107355000D01*
X147059999Y-107355000D01*
X147059999Y-107309310D01*
X147045534Y-107217982D01*
X146989447Y-107107906D01*
X146989444Y-107107901D01*
X146898867Y-107017324D01*
X146865382Y-106956001D01*
X146870366Y-106886309D01*
X146898867Y-106841962D01*
X146913813Y-106827016D01*
X146957682Y-106727662D01*
X146960500Y-106703373D01*
X146960499Y-106429766D01*
X146980183Y-106362728D01*
X146996814Y-106342090D01*
X147484442Y-105854461D01*
X147545763Y-105820978D01*
X147595657Y-105822263D01*
X147595745Y-105821510D01*
X147604117Y-105822481D01*
X147604684Y-105822496D01*
X147605005Y-105822583D01*
X147605009Y-105822585D01*
X147630135Y-105825500D01*
X148019864Y-105825499D01*
X148019879Y-105825497D01*
X148019882Y-105825497D01*
X148025927Y-105824795D01*
X148044991Y-105822585D01*
X148045002Y-105822579D01*
X148053160Y-105820361D01*
X148123016Y-105821752D01*
X148181031Y-105860688D01*
X148208786Y-105924809D01*
X148197468Y-105993756D01*
X148173402Y-106027691D01*
X148147912Y-106053181D01*
X148086589Y-106086666D01*
X148060231Y-106089500D01*
X147786634Y-106089500D01*
X147786611Y-106089502D01*
X147762340Y-106092317D01*
X147762337Y-106092318D01*
X147662984Y-106136186D01*
X147586187Y-106212983D01*
X147542318Y-106312335D01*
X147542318Y-106312337D01*
X147539500Y-106336625D01*
X147539500Y-106703365D01*
X147539502Y-106703388D01*
X147542317Y-106727659D01*
X147542318Y-106727662D01*
X147586186Y-106827015D01*
X147601133Y-106841962D01*
X147634618Y-106903285D01*
X147629634Y-106972977D01*
X147601133Y-107017324D01*
X147510555Y-107107901D01*
X147510551Y-107107906D01*
X147454463Y-107217984D01*
X147440000Y-107309308D01*
X147440000Y-107355000D01*
X148559999Y-107355000D01*
X148559999Y-107309310D01*
X148545534Y-107217982D01*
X148489447Y-107107906D01*
X148489444Y-107107901D01*
X148398867Y-107017324D01*
X148365382Y-106956001D01*
X148370366Y-106886309D01*
X148398867Y-106841962D01*
X148413813Y-106827016D01*
X148457682Y-106727662D01*
X148460500Y-106703373D01*
X148460499Y-106429766D01*
X148480183Y-106362728D01*
X148496813Y-106342091D01*
X148977087Y-105861818D01*
X149038410Y-105828333D01*
X149064768Y-105825499D01*
X149289856Y-105825499D01*
X149289864Y-105825499D01*
X149289879Y-105825497D01*
X149289882Y-105825497D01*
X149314987Y-105822586D01*
X149314988Y-105822585D01*
X149314991Y-105822585D01*
X149417765Y-105777206D01*
X149497206Y-105697765D01*
X149542585Y-105594991D01*
X149545500Y-105569865D01*
X149545499Y-104775000D01*
X149815001Y-104775000D01*
X149815001Y-105556479D01*
X149829835Y-105650149D01*
X149829837Y-105650155D01*
X149887356Y-105763041D01*
X149887363Y-105763050D01*
X149976949Y-105852636D01*
X149976953Y-105852639D01*
X150089855Y-105910166D01*
X150183514Y-105924999D01*
X150239999Y-105924998D01*
X150240000Y-105924998D01*
X150240000Y-104775000D01*
X149815001Y-104775000D01*
X149545499Y-104775000D01*
X149545499Y-104572898D01*
X149565183Y-104505860D01*
X149580290Y-104488088D01*
X149590680Y-104473787D01*
X149646008Y-104431119D01*
X149715621Y-104425138D01*
X149777417Y-104457742D01*
X149811777Y-104518580D01*
X149812191Y-104522191D01*
X149815000Y-104525000D01*
X150240000Y-104525000D01*
X150240000Y-103375000D01*
X150490000Y-103375000D01*
X150490000Y-104525000D01*
X150914999Y-104525000D01*
X150914999Y-103743520D01*
X150900164Y-103649850D01*
X150900162Y-103649844D01*
X150842643Y-103536958D01*
X150842636Y-103536949D01*
X150753050Y-103447363D01*
X150753046Y-103447360D01*
X150640144Y-103389833D01*
X150546486Y-103375000D01*
X150490000Y-103375000D01*
X150240000Y-103375000D01*
X150239999Y-103374999D01*
X150183521Y-103375000D01*
X150089849Y-103389835D01*
X150089844Y-103389837D01*
X149976958Y-103447356D01*
X149976949Y-103447363D01*
X149887363Y-103536949D01*
X149887360Y-103536954D01*
X149857385Y-103595783D01*
X149809410Y-103646579D01*
X149741589Y-103663374D01*
X149675454Y-103640836D01*
X149632003Y-103586121D01*
X149622900Y-103539488D01*
X149622900Y-102781808D01*
X149642585Y-102714769D01*
X149671413Y-102683433D01*
X149714314Y-102650513D01*
X149790021Y-102592421D01*
X149878261Y-102477425D01*
X149933730Y-102343509D01*
X149952650Y-102199800D01*
X149952051Y-102195254D01*
X149945861Y-102148236D01*
X149933730Y-102056091D01*
X149923631Y-102031711D01*
X149916165Y-101962242D01*
X149947440Y-101899764D01*
X150007530Y-101864112D01*
X150077355Y-101866607D01*
X150125872Y-101896578D01*
X150873980Y-102644685D01*
X151495080Y-103265785D01*
X151528565Y-103327108D01*
X151523581Y-103396800D01*
X151481709Y-103452733D01*
X151421686Y-103476640D01*
X151415011Y-103477414D01*
X151415008Y-103477415D01*
X151312235Y-103522793D01*
X151232794Y-103602234D01*
X151187415Y-103705006D01*
X151187415Y-103705008D01*
X151184500Y-103730131D01*
X151184500Y-105569856D01*
X151184502Y-105569882D01*
X151187413Y-105594987D01*
X151187415Y-105594991D01*
X151232793Y-105697764D01*
X151265380Y-105730351D01*
X151298865Y-105791674D01*
X151293881Y-105861366D01*
X151265380Y-105905713D01*
X151137912Y-106033181D01*
X151076589Y-106066666D01*
X151050231Y-106069500D01*
X150835548Y-106069500D01*
X150768509Y-106049815D01*
X150722754Y-105997011D01*
X150712810Y-105927853D01*
X150741835Y-105864297D01*
X150747867Y-105857818D01*
X150842639Y-105763046D01*
X150900166Y-105650144D01*
X150915000Y-105556486D01*
X150915000Y-104775000D01*
X150490000Y-104775000D01*
X150490000Y-105924999D01*
X150541882Y-105924999D01*
X150608921Y-105944684D01*
X150654676Y-105997488D01*
X150664620Y-106066646D01*
X150635595Y-106130202D01*
X150629563Y-106136680D01*
X150575386Y-106190856D01*
X150575381Y-106190863D01*
X150532270Y-106288499D01*
X150529500Y-106312375D01*
X150529500Y-106667615D01*
X150529502Y-106667638D01*
X150532269Y-106691495D01*
X150532269Y-106691498D01*
X150575380Y-106789135D01*
X150575383Y-106789139D01*
X150575384Y-106789141D01*
X150650859Y-106864616D01*
X150688574Y-106881269D01*
X150700570Y-106886566D01*
X150753946Y-106931652D01*
X150774473Y-106998438D01*
X150755634Y-107065720D01*
X150703411Y-107112137D01*
X150700570Y-107113434D01*
X150650863Y-107135382D01*
X150650861Y-107135383D01*
X150650859Y-107135384D01*
X150650858Y-107135384D01*
X150650856Y-107135386D01*
X150575386Y-107210856D01*
X150575381Y-107210863D01*
X150532270Y-107308499D01*
X150529500Y-107332375D01*
X150529500Y-107610231D01*
X150509815Y-107677270D01*
X150493182Y-107697912D01*
X150430614Y-107760481D01*
X150369291Y-107793966D01*
X150342932Y-107796800D01*
X148682044Y-107796800D01*
X148615005Y-107777115D01*
X148569250Y-107724311D01*
X148559306Y-107655153D01*
X148559569Y-107653410D01*
X148560000Y-107650687D01*
X148560000Y-107605000D01*
X147440001Y-107605000D01*
X147440001Y-107650691D01*
X147440430Y-107653400D01*
X147440295Y-107654440D01*
X147440383Y-107655552D01*
X147440149Y-107655570D01*
X147431476Y-107722693D01*
X147386481Y-107776146D01*
X147319730Y-107796787D01*
X147317957Y-107796800D01*
X147182044Y-107796800D01*
X147115005Y-107777115D01*
X147069250Y-107724311D01*
X147059306Y-107655153D01*
X147059569Y-107653410D01*
X147060000Y-107650687D01*
X147060000Y-107605000D01*
X145940001Y-107605000D01*
X145940001Y-107650691D01*
X145940430Y-107653400D01*
X145940295Y-107654440D01*
X145940383Y-107655552D01*
X145940149Y-107655570D01*
X145931476Y-107722693D01*
X145886481Y-107776146D01*
X145819730Y-107796787D01*
X145817957Y-107796800D01*
X141931567Y-107796800D01*
X141864528Y-107777115D01*
X141843886Y-107760481D01*
X141445085Y-107361680D01*
X141411600Y-107300357D01*
X141416584Y-107230665D01*
X141458456Y-107174732D01*
X141523920Y-107150315D01*
X141532766Y-107149999D01*
X141875000Y-107149999D01*
X141875000Y-106550000D01*
X142125000Y-106550000D01*
X142125000Y-107149999D01*
X142963000Y-107149999D01*
X142992720Y-107147213D01*
X143117922Y-107103403D01*
X143224641Y-107024641D01*
X143303405Y-106917919D01*
X143347211Y-106792732D01*
X143347213Y-106792720D01*
X143350000Y-106763007D01*
X143350000Y-106550000D01*
X142125000Y-106550000D01*
X141875000Y-106550000D01*
X141875000Y-106300000D01*
X142125000Y-106300000D01*
X143349999Y-106300000D01*
X143349999Y-106086999D01*
X143347213Y-106057279D01*
X143303403Y-105932077D01*
X143299320Y-105924351D01*
X143285399Y-105855882D01*
X143310704Y-105790756D01*
X143321270Y-105778728D01*
X143350000Y-105749998D01*
X143350000Y-105125000D01*
X143600000Y-105125000D01*
X143600000Y-105750000D01*
X143759130Y-105750000D01*
X143759146Y-105749999D01*
X143817187Y-105743758D01*
X143948537Y-105694767D01*
X144060758Y-105610758D01*
X144144767Y-105498537D01*
X144193758Y-105367187D01*
X144199999Y-105309146D01*
X144200000Y-105309129D01*
X144200000Y-105125000D01*
X143600000Y-105125000D01*
X143350000Y-105125000D01*
X142750000Y-105125000D01*
X142750000Y-105309146D01*
X142756241Y-105367187D01*
X142805233Y-105498537D01*
X142807590Y-105501686D01*
X142808965Y-105505372D01*
X142809483Y-105506321D01*
X142809346Y-105506395D01*
X142832009Y-105567149D01*
X142817159Y-105635423D01*
X142767755Y-105684830D01*
X142708325Y-105699999D01*
X142125000Y-105699999D01*
X142125000Y-106300000D01*
X141875000Y-106300000D01*
X141875000Y-105699999D01*
X141173078Y-105699999D01*
X141106039Y-105680314D01*
X141060284Y-105627510D01*
X141050340Y-105558352D01*
X141075939Y-105502295D01*
X141074572Y-105501302D01*
X141080306Y-105493407D01*
X141080311Y-105493403D01*
X141136109Y-105383893D01*
X141150500Y-105293033D01*
X141150499Y-104706968D01*
X141150499Y-104706967D01*
X141150499Y-104706962D01*
X141136110Y-104616111D01*
X141136110Y-104616110D01*
X141136109Y-104616108D01*
X141136109Y-104616107D01*
X141080311Y-104506597D01*
X141080309Y-104506595D01*
X141074572Y-104498698D01*
X141077245Y-104496755D01*
X141051910Y-104450357D01*
X141056894Y-104380665D01*
X141098766Y-104324732D01*
X141164230Y-104300315D01*
X141173076Y-104299999D01*
X141874999Y-104299999D01*
X141875000Y-104299998D01*
X141875000Y-103700000D01*
X142125000Y-103700000D01*
X142125000Y-104299999D01*
X142708326Y-104299999D01*
X142775365Y-104319684D01*
X142821120Y-104372488D01*
X142831064Y-104441646D01*
X142807593Y-104498309D01*
X142805234Y-104501459D01*
X142805233Y-104501462D01*
X142756241Y-104632812D01*
X142750000Y-104690853D01*
X142750000Y-104875000D01*
X143350000Y-104875000D01*
X143350000Y-104250000D01*
X143600000Y-104250000D01*
X143600000Y-104875000D01*
X144200000Y-104875000D01*
X144200000Y-104690870D01*
X144199999Y-104690853D01*
X144193758Y-104632812D01*
X144144767Y-104501462D01*
X144060758Y-104389241D01*
X143948537Y-104305232D01*
X143817187Y-104256241D01*
X143759146Y-104250000D01*
X143600000Y-104250000D01*
X143350000Y-104250000D01*
X143321270Y-104221270D01*
X143287785Y-104159947D01*
X143292769Y-104090255D01*
X143299322Y-104075646D01*
X143303405Y-104067920D01*
X143347211Y-103942732D01*
X143347213Y-103942720D01*
X143350000Y-103913007D01*
X143350000Y-103700000D01*
X142125000Y-103700000D01*
X141875000Y-103700000D01*
X140649999Y-103700000D01*
X140649999Y-103837123D01*
X140664505Y-103910044D01*
X140705814Y-103971869D01*
X140705815Y-103971870D01*
X140871765Y-104137819D01*
X140905250Y-104199142D01*
X140900266Y-104268833D01*
X140858395Y-104324767D01*
X140792930Y-104349184D01*
X140784084Y-104349500D01*
X140256962Y-104349500D01*
X140256962Y-104349501D01*
X140166111Y-104363889D01*
X140166110Y-104363889D01*
X140056595Y-104419690D01*
X140056591Y-104419693D01*
X139969693Y-104506591D01*
X139969686Y-104506601D01*
X139967881Y-104510144D01*
X139964552Y-104513667D01*
X139963956Y-104514489D01*
X139963849Y-104514411D01*
X139919904Y-104560937D01*
X139852082Y-104577728D01*
X139785948Y-104555186D01*
X139742839Y-104501293D01*
X139730861Y-104472375D01*
X139642621Y-104357379D01*
X139527625Y-104269139D01*
X139527624Y-104269138D01*
X139527622Y-104269137D01*
X139393712Y-104213671D01*
X139393710Y-104213670D01*
X139393709Y-104213670D01*
X139283360Y-104199142D01*
X139250001Y-104194750D01*
X139249999Y-104194750D01*
X139106291Y-104213670D01*
X139106287Y-104213671D01*
X138972377Y-104269137D01*
X138857379Y-104357379D01*
X138769137Y-104472377D01*
X138713671Y-104606287D01*
X138713670Y-104606291D01*
X138694750Y-104749999D01*
X138694750Y-104750000D01*
X134300500Y-104750000D01*
X134300500Y-103450000D01*
X140650000Y-103450000D01*
X141875000Y-103450000D01*
X141875000Y-102850000D01*
X142125000Y-102850000D01*
X142125000Y-103450000D01*
X143349999Y-103450000D01*
X143349999Y-103236999D01*
X143347213Y-103207279D01*
X143303403Y-103082077D01*
X143224641Y-102975358D01*
X143117919Y-102896594D01*
X142992732Y-102852788D01*
X142992720Y-102852786D01*
X142963007Y-102850000D01*
X142125000Y-102850000D01*
X141875000Y-102850000D01*
X141857527Y-102832527D01*
X141849993Y-102830315D01*
X141804238Y-102777511D01*
X141794294Y-102708353D01*
X141818657Y-102650513D01*
X141822560Y-102645426D01*
X141822559Y-102645426D01*
X141822561Y-102645425D01*
X141878030Y-102511509D01*
X141891584Y-102408556D01*
X141919849Y-102344663D01*
X141926830Y-102337074D01*
X142307086Y-101956817D01*
X142368409Y-101923333D01*
X142394767Y-101920499D01*
X144206517Y-101920499D01*
X144206518Y-101920499D01*
X144300304Y-101905646D01*
X144413342Y-101848050D01*
X144503050Y-101758342D01*
X144560646Y-101645304D01*
X144560646Y-101645302D01*
X144560647Y-101645301D01*
X144573522Y-101564005D01*
X144575500Y-101551519D01*
X144575499Y-100988482D01*
X144560646Y-100894696D01*
X144503050Y-100781658D01*
X144503046Y-100781654D01*
X144503045Y-100781652D01*
X144413347Y-100691954D01*
X144413344Y-100691952D01*
X144413342Y-100691950D01*
X144336517Y-100652805D01*
X144300301Y-100634352D01*
X144206524Y-100619500D01*
X141143482Y-100619500D01*
X141062519Y-100632323D01*
X141049696Y-100634354D01*
X140936658Y-100691950D01*
X140936657Y-100691951D01*
X140936652Y-100691954D01*
X140846954Y-100781652D01*
X140846951Y-100781657D01*
X140846950Y-100781658D01*
X140834530Y-100806033D01*
X140789352Y-100894698D01*
X140774500Y-100988475D01*
X140774500Y-101551517D01*
X140785292Y-101619657D01*
X140789354Y-101645304D01*
X140846950Y-101758342D01*
X140846952Y-101758344D01*
X140846954Y-101758347D01*
X140921987Y-101833380D01*
X140955472Y-101894703D01*
X140950488Y-101964395D01*
X140932682Y-101996547D01*
X140860839Y-102090174D01*
X140860838Y-102090176D01*
X140805371Y-102224087D01*
X140805370Y-102224091D01*
X140786450Y-102367800D01*
X140804974Y-102508504D01*
X140805370Y-102511508D01*
X140805371Y-102511512D01*
X140860837Y-102645422D01*
X140860838Y-102645423D01*
X140860839Y-102645425D01*
X140914695Y-102715612D01*
X140939889Y-102780779D01*
X140925851Y-102849224D01*
X140887587Y-102888409D01*
X140889556Y-102891077D01*
X140775358Y-102975358D01*
X140696594Y-103082080D01*
X140652788Y-103207267D01*
X140652786Y-103207279D01*
X140650000Y-103236992D01*
X140650000Y-103450000D01*
X134300500Y-103450000D01*
X134300500Y-97740200D01*
X139980750Y-97740200D01*
X139999670Y-97883908D01*
X139999671Y-97883912D01*
X140055137Y-98017822D01*
X140055138Y-98017824D01*
X140055139Y-98017825D01*
X140143379Y-98132821D01*
X140258375Y-98221061D01*
X140392291Y-98276530D01*
X140519280Y-98293248D01*
X140535999Y-98295450D01*
X140544128Y-98295450D01*
X140544128Y-98296840D01*
X140604607Y-98306270D01*
X140656864Y-98352649D01*
X140675751Y-98419917D01*
X140675052Y-98431676D01*
X140675001Y-98432148D01*
X140675000Y-98432172D01*
X140675000Y-99027844D01*
X140681401Y-99087372D01*
X140681403Y-99087379D01*
X140731645Y-99222086D01*
X140731649Y-99222093D01*
X140817809Y-99337187D01*
X140817812Y-99337190D01*
X140932906Y-99423350D01*
X140932913Y-99423354D01*
X141067620Y-99473596D01*
X141067627Y-99473598D01*
X141127155Y-99479999D01*
X141127172Y-99480000D01*
X141748223Y-99480000D01*
X141748223Y-99479999D01*
X142101776Y-99479999D01*
X142101777Y-99480000D01*
X143248223Y-99480000D01*
X143248223Y-99479999D01*
X142675000Y-98906777D01*
X142101776Y-99479999D01*
X141748223Y-99479999D01*
X142498223Y-98730000D01*
X142851777Y-98730000D01*
X143601777Y-99480000D01*
X144222828Y-99480000D01*
X144222844Y-99479999D01*
X144282372Y-99473598D01*
X144282379Y-99473596D01*
X144417086Y-99423354D01*
X144417093Y-99423350D01*
X144532187Y-99337190D01*
X144532190Y-99337187D01*
X144618350Y-99222093D01*
X144618354Y-99222086D01*
X144668596Y-99087379D01*
X144668598Y-99087372D01*
X144674999Y-99027844D01*
X144675000Y-99027827D01*
X144675000Y-98432172D01*
X144674999Y-98432155D01*
X144668598Y-98372627D01*
X144668596Y-98372620D01*
X144618354Y-98237913D01*
X144618350Y-98237906D01*
X144532190Y-98122812D01*
X144532187Y-98122809D01*
X144417093Y-98036649D01*
X144417086Y-98036645D01*
X144282379Y-97986403D01*
X144282372Y-97986401D01*
X144222844Y-97980000D01*
X143601776Y-97980000D01*
X142851777Y-98730000D01*
X142498223Y-98730000D01*
X141748223Y-97980000D01*
X142101776Y-97980000D01*
X142675000Y-98553223D01*
X143248223Y-97980000D01*
X142101776Y-97980000D01*
X141748223Y-97980000D01*
X141201074Y-97980000D01*
X141134035Y-97960315D01*
X141088280Y-97907511D01*
X141078135Y-97839814D01*
X141083896Y-97796061D01*
X141091250Y-97740200D01*
X141072330Y-97596491D01*
X141016861Y-97462575D01*
X140928621Y-97347579D01*
X140813625Y-97259339D01*
X140813624Y-97259338D01*
X140813622Y-97259337D01*
X140679712Y-97203871D01*
X140679710Y-97203870D01*
X140679709Y-97203870D01*
X140607854Y-97194410D01*
X140536001Y-97184950D01*
X140535999Y-97184950D01*
X140392291Y-97203870D01*
X140392287Y-97203871D01*
X140258377Y-97259337D01*
X140143379Y-97347579D01*
X140055137Y-97462577D01*
X139999671Y-97596487D01*
X139999670Y-97596491D01*
X139980750Y-97740199D01*
X139980750Y-97740200D01*
X134300500Y-97740200D01*
X134300500Y-93002213D01*
X134300658Y-92997789D01*
X134302491Y-92972156D01*
X134317165Y-92766977D01*
X134319683Y-92749470D01*
X134324652Y-92726627D01*
X134367459Y-92529851D01*
X134372436Y-92512900D01*
X134450985Y-92302299D01*
X134458325Y-92286227D01*
X134566044Y-92088956D01*
X134575600Y-92074086D01*
X134710294Y-91894156D01*
X134721868Y-91880799D01*
X134880799Y-91721868D01*
X134894156Y-91710294D01*
X135074086Y-91575600D01*
X135088956Y-91566044D01*
X135286227Y-91458325D01*
X135302299Y-91450985D01*
X135512900Y-91372436D01*
X135529851Y-91367459D01*
X135749472Y-91319682D01*
X135766977Y-91317165D01*
X135997791Y-91300657D01*
X136002214Y-91300500D01*
X136047595Y-91300500D01*
X146618996Y-91300500D01*
X146668308Y-91314979D01*
G37*
%TD.AperFunction*%
%TD*%
D29*
X134000000Y-93000000D02*
X134000000Y-107000000D01*
X164000000Y-109000000D02*
G75*
G03*
X166000000Y-107000000I0J2000000D01*
G01*
X166000000Y-93000000D02*
G75*
G03*
X164000000Y-91000000I-2000000J0D01*
G01*
X136000000Y-91000000D02*
X164000000Y-91000000D01*
X136000000Y-91000000D02*
G75*
G03*
X134000000Y-93000000I0J-2000000D01*
G01*
X166000000Y-107000000D02*
X166000000Y-93000000D01*
X136000000Y-109000000D02*
X164000000Y-109000000D01*
X134000000Y-107000000D02*
G75*
G03*
X136000000Y-109000000I2000000J0D01*
G01*
M02*
