%TF.GenerationSoftware,KiCad,Pcbnew,7.0.10*%
%TF.CreationDate,2024-02-15T14:25:29-05:00*%
%TF.ProjectId,wingbeat_detector,77696e67-6265-4617-945f-646574656374,4.0*%
%TF.SameCoordinates,Original*%
%TF.FileFunction,Paste,Top*%
%TF.FilePolarity,Positive*%
%FSLAX46Y46*%
G04 Gerber Fmt 4.6, Leading zero omitted, Abs format (unit mm)*
G04 Created by KiCad (PCBNEW 7.0.10) date 2024-02-15 14:25:29*
%MOMM*%
%LPD*%
G01*
G04 APERTURE LIST*
G04 Aperture macros list*
%AMRoundRect*
0 Rectangle with rounded corners*
0 $1 Rounding radius*
0 $2 $3 $4 $5 $6 $7 $8 $9 X,Y pos of 4 corners*
0 Add a 4 corners polygon primitive as box body*
4,1,4,$2,$3,$4,$5,$6,$7,$8,$9,$2,$3,0*
0 Add four circle primitives for the rounded corners*
1,1,$1+$1,$2,$3*
1,1,$1+$1,$4,$5*
1,1,$1+$1,$6,$7*
1,1,$1+$1,$8,$9*
0 Add four rect primitives between the rounded corners*
20,1,$1+$1,$2,$3,$4,$5,0*
20,1,$1+$1,$4,$5,$6,$7,0*
20,1,$1+$1,$6,$7,$8,$9,0*
20,1,$1+$1,$8,$9,$2,$3,0*%
%AMFreePoly0*
4,1,18,-0.475000,0.910000,-0.460537,0.982710,-0.419350,1.044350,-0.357710,1.085537,-0.285000,1.100000,0.237500,1.100000,0.475000,0.862500,0.475000,-0.910000,0.460537,-0.982710,0.419350,-1.044350,0.357710,-1.085537,0.285000,-1.100000,-0.285000,-1.100000,-0.357710,-1.085537,-0.419350,-1.044350,-0.460537,-0.982710,-0.475000,-0.910000,-0.475000,0.910000,-0.475000,0.910000,$1*%
%AMFreePoly1*
4,1,18,-0.475000,0.862500,-0.237500,1.100000,0.285000,1.100000,0.357710,1.085537,0.419350,1.044350,0.460537,0.982710,0.475000,0.910000,0.475000,-0.910000,0.460537,-0.982710,0.419350,-1.044350,0.357710,-1.085537,0.285000,-1.100000,-0.285000,-1.100000,-0.357710,-1.085537,-0.419350,-1.044350,-0.460537,-0.982710,-0.475000,-0.910000,-0.475000,0.862500,-0.475000,0.862500,$1*%
G04 Aperture macros list end*
%ADD10R,0.900000X0.300000*%
%ADD11RoundRect,0.135000X-0.135000X-0.185000X0.135000X-0.185000X0.135000X0.185000X-0.135000X0.185000X0*%
%ADD12RoundRect,0.150000X-0.150000X0.875000X-0.150000X-0.875000X0.150000X-0.875000X0.150000X0.875000X0*%
%ADD13RoundRect,0.250000X-0.312500X-0.625000X0.312500X-0.625000X0.312500X0.625000X-0.312500X0.625000X0*%
%ADD14RoundRect,0.135000X0.185000X-0.135000X0.185000X0.135000X-0.185000X0.135000X-0.185000X-0.135000X0*%
%ADD15RoundRect,0.200000X0.200000X0.275000X-0.200000X0.275000X-0.200000X-0.275000X0.200000X-0.275000X0*%
%ADD16RoundRect,0.200000X-0.200000X-0.275000X0.200000X-0.275000X0.200000X0.275000X-0.200000X0.275000X0*%
%ADD17RoundRect,0.140000X0.170000X-0.140000X0.170000X0.140000X-0.170000X0.140000X-0.170000X-0.140000X0*%
%ADD18RoundRect,0.250000X-1.500000X-0.250000X1.500000X-0.250000X1.500000X0.250000X-1.500000X0.250000X0*%
%ADD19RoundRect,0.237500X0.237500X-0.262500X0.237500X0.262500X-0.237500X0.262500X-0.237500X-0.262500X0*%
%ADD20FreePoly0,90.000000*%
%ADD21FreePoly1,90.000000*%
%ADD22RoundRect,0.140000X-0.170000X0.140000X-0.170000X-0.140000X0.170000X-0.140000X0.170000X0.140000X0*%
%TA.AperFunction,Profile*%
%ADD23C,0.100000*%
%TD*%
G04 APERTURE END LIST*
D10*
%TO.C,J1*%
X158440000Y-102750000D03*
X158440000Y-102250000D03*
X158440000Y-101750000D03*
X158440000Y-101250000D03*
X158440000Y-100750000D03*
X158440000Y-100250000D03*
X158440000Y-99750000D03*
X158440000Y-99250000D03*
X158440000Y-98750000D03*
X158440000Y-98250000D03*
X158440000Y-97750000D03*
X158440000Y-97250000D03*
%TD*%
D11*
%TO.C,R9*%
X141490000Y-96500000D03*
X142510000Y-96500000D03*
%TD*%
D12*
%TO.C,U2*%
X155445000Y-95350000D03*
X154175000Y-95350000D03*
X152905000Y-95350000D03*
X151635000Y-95350000D03*
X150365000Y-95350000D03*
X149095000Y-95350000D03*
X147825000Y-95350000D03*
X146555000Y-95350000D03*
X146555000Y-104650000D03*
X147825000Y-104650000D03*
X149095000Y-104650000D03*
X150365000Y-104650000D03*
X151635000Y-104650000D03*
X152905000Y-104650000D03*
X154175000Y-104650000D03*
X155445000Y-104650000D03*
%TD*%
D13*
%TO.C,R10*%
X140537500Y-94500000D03*
X143462500Y-94500000D03*
%TD*%
D14*
%TO.C,R1*%
X151000000Y-107510000D03*
X151000000Y-106490000D03*
%TD*%
D15*
%TO.C,R5*%
X154325000Y-107000000D03*
X152675000Y-107000000D03*
%TD*%
D16*
%TO.C,R7*%
X145675000Y-93000000D03*
X147325000Y-93000000D03*
%TD*%
D17*
%TO.C,C8*%
X146500000Y-107480000D03*
X146500000Y-106520000D03*
%TD*%
D18*
%TO.C,D1*%
X142675000Y-101270000D03*
X142675000Y-98730000D03*
%TD*%
D19*
%TO.C,J3*%
X140525000Y-105000000D03*
D20*
X142000000Y-106425000D03*
D19*
X143475000Y-105000000D03*
D21*
X142000000Y-103575000D03*
%TD*%
D22*
%TO.C,C6*%
X148000000Y-106520000D03*
X148000000Y-107480000D03*
%TD*%
D11*
%TO.C,R2*%
X152490000Y-93000000D03*
X153510000Y-93000000D03*
%TD*%
D23*
X134000000Y-93000000D02*
X134000000Y-107000000D01*
X164000000Y-109000000D02*
G75*
G03*
X166000000Y-107000000I0J2000000D01*
G01*
X166000000Y-93000000D02*
G75*
G03*
X164000000Y-91000000I-2000000J0D01*
G01*
X136000000Y-91000000D02*
X164000000Y-91000000D01*
X136000000Y-91000000D02*
G75*
G03*
X134000000Y-93000000I0J-2000000D01*
G01*
X166000000Y-107000000D02*
X166000000Y-93000000D01*
X136000000Y-109000000D02*
X164000000Y-109000000D01*
X134000000Y-107000000D02*
G75*
G03*
X136000000Y-109000000I2000000J0D01*
G01*
M02*
