%TF.GenerationSoftware,KiCad,Pcbnew,7.0.10*%
%TF.CreationDate,2024-02-15T14:25:29-05:00*%
%TF.ProjectId,wingbeat_detector,77696e67-6265-4617-945f-646574656374,4.0*%
%TF.SameCoordinates,Original*%
%TF.FileFunction,Paste,Bot*%
%TF.FilePolarity,Positive*%
%FSLAX46Y46*%
G04 Gerber Fmt 4.6, Leading zero omitted, Abs format (unit mm)*
G04 Created by KiCad (PCBNEW 7.0.10) date 2024-02-15 14:25:29*
%MOMM*%
%LPD*%
G01*
G04 APERTURE LIST*
G04 Aperture macros list*
%AMRoundRect*
0 Rectangle with rounded corners*
0 $1 Rounding radius*
0 $2 $3 $4 $5 $6 $7 $8 $9 X,Y pos of 4 corners*
0 Add a 4 corners polygon primitive as box body*
4,1,4,$2,$3,$4,$5,$6,$7,$8,$9,$2,$3,0*
0 Add four circle primitives for the rounded corners*
1,1,$1+$1,$2,$3*
1,1,$1+$1,$4,$5*
1,1,$1+$1,$6,$7*
1,1,$1+$1,$8,$9*
0 Add four rect primitives between the rounded corners*
20,1,$1+$1,$2,$3,$4,$5,0*
20,1,$1+$1,$4,$5,$6,$7,0*
20,1,$1+$1,$6,$7,$8,$9,0*
20,1,$1+$1,$8,$9,$2,$3,0*%
%AMFreePoly0*
4,1,18,-0.735000,0.477000,-0.730966,0.497282,-0.719477,0.514477,-0.702282,0.525966,-0.682000,0.530000,0.682000,0.530000,0.702282,0.525966,0.719477,0.514477,0.730966,0.497282,0.735000,0.477000,0.735000,-0.477000,0.730966,-0.497282,0.719477,-0.514477,0.702282,-0.525966,0.682000,-0.530000,-0.417000,-0.530000,-0.735000,-0.212000,-0.735000,0.477000,-0.735000,0.477000,$1*%
%AMFreePoly1*
4,1,18,-0.475000,0.910000,-0.460537,0.982710,-0.419350,1.044350,-0.357710,1.085537,-0.285000,1.100000,0.285000,1.100000,0.357710,1.085537,0.419350,1.044350,0.460537,0.982710,0.475000,0.910000,0.475000,-0.862500,0.237500,-1.100000,-0.285000,-1.100000,-0.357710,-1.085537,-0.419350,-1.044350,-0.460537,-0.982710,-0.475000,-0.910000,-0.475000,0.910000,-0.475000,0.910000,$1*%
%AMFreePoly2*
4,1,18,-0.475000,0.910000,-0.460537,0.982710,-0.419350,1.044350,-0.357710,1.085537,-0.285000,1.100000,0.285000,1.100000,0.357710,1.085537,0.419350,1.044350,0.460537,0.982710,0.475000,0.910000,0.475000,-0.910000,0.460537,-0.982710,0.419350,-1.044350,0.357710,-1.085537,0.285000,-1.100000,-0.237500,-1.100000,-0.475000,-0.862500,-0.475000,0.910000,-0.475000,0.910000,$1*%
G04 Aperture macros list end*
%ADD10RoundRect,0.140000X0.170000X-0.140000X0.170000X0.140000X-0.170000X0.140000X-0.170000X-0.140000X0*%
%ADD11RoundRect,0.135000X-0.185000X0.135000X-0.185000X-0.135000X0.185000X-0.135000X0.185000X0.135000X0*%
%ADD12RoundRect,0.225000X0.250000X-0.225000X0.250000X0.225000X-0.250000X0.225000X-0.250000X-0.225000X0*%
%ADD13RoundRect,0.135000X0.185000X-0.135000X0.185000X0.135000X-0.185000X0.135000X-0.185000X-0.135000X0*%
%ADD14RoundRect,0.053000X0.477000X-0.682000X0.477000X0.682000X-0.477000X0.682000X-0.477000X-0.682000X0*%
%ADD15FreePoly0,90.000000*%
%ADD16RoundRect,0.030000X0.120000X-0.270000X0.120000X0.270000X-0.120000X0.270000X-0.120000X-0.270000X0*%
%ADD17RoundRect,0.250000X0.625000X-0.312500X0.625000X0.312500X-0.625000X0.312500X-0.625000X-0.312500X0*%
%ADD18RoundRect,0.028200X0.206800X-0.681800X0.206800X0.681800X-0.206800X0.681800X-0.206800X-0.681800X0*%
%ADD19RoundRect,0.150000X0.150000X-0.875000X0.150000X0.875000X-0.150000X0.875000X-0.150000X-0.875000X0*%
%ADD20RoundRect,0.237500X-0.237500X0.262500X-0.237500X-0.262500X0.237500X-0.262500X0.237500X0.262500X0*%
%ADD21FreePoly1,270.000000*%
%ADD22FreePoly2,270.000000*%
%ADD23RoundRect,0.140000X0.140000X0.170000X-0.140000X0.170000X-0.140000X-0.170000X0.140000X-0.170000X0*%
%ADD24RoundRect,0.140000X-0.170000X0.140000X-0.170000X-0.140000X0.170000X-0.140000X0.170000X0.140000X0*%
%ADD25RoundRect,0.225000X-0.250000X0.225000X-0.250000X-0.225000X0.250000X-0.225000X0.250000X0.225000X0*%
%TA.AperFunction,Profile*%
%ADD26C,0.100000*%
%TD*%
G04 APERTURE END LIST*
D10*
%TO.C,C7*%
X145250000Y-93480000D03*
X145250000Y-92520000D03*
%TD*%
D11*
%TO.C,R3*%
X148250000Y-92490000D03*
X148250000Y-93510000D03*
%TD*%
D12*
%TO.C,C4*%
X156500000Y-95525000D03*
X156500000Y-93975000D03*
%TD*%
%TO.C,C5*%
X154500000Y-106025000D03*
X154500000Y-104475000D03*
%TD*%
%TO.C,C1*%
X154500000Y-95525000D03*
X154500000Y-93975000D03*
%TD*%
D13*
%TO.C,R6*%
X149750000Y-93510000D03*
X149750000Y-92490000D03*
%TD*%
D14*
%TO.C,U4*%
X138870000Y-100000000D03*
D15*
X140130000Y-100000000D03*
D16*
X140475000Y-101400000D03*
X139825000Y-101400000D03*
X139175000Y-101400000D03*
X138525000Y-101400000D03*
X138525000Y-98600000D03*
X139175000Y-98600000D03*
X139825000Y-98600000D03*
X140475000Y-98600000D03*
%TD*%
D11*
%TO.C,R4*%
X148250000Y-106490000D03*
X148250000Y-107510000D03*
%TD*%
D17*
%TO.C,R11*%
X136250000Y-101462500D03*
X136250000Y-98537500D03*
%TD*%
D18*
%TO.C,U1*%
X156475000Y-102165000D03*
X155825000Y-102165000D03*
X155175000Y-102165000D03*
X154525000Y-102165000D03*
X154525000Y-97835000D03*
X155175000Y-97835000D03*
X155825000Y-97835000D03*
X156475000Y-97835000D03*
%TD*%
D19*
%TO.C,U3*%
X151945000Y-104650000D03*
X150675000Y-104650000D03*
X149405000Y-104650000D03*
X148135000Y-104650000D03*
X146865000Y-104650000D03*
X145595000Y-104650000D03*
X144325000Y-104650000D03*
X143055000Y-104650000D03*
X143055000Y-95350000D03*
X144325000Y-95350000D03*
X145595000Y-95350000D03*
X146865000Y-95350000D03*
X148135000Y-95350000D03*
X149405000Y-95350000D03*
X150675000Y-95350000D03*
X151945000Y-95350000D03*
%TD*%
D20*
%TO.C,J2*%
X162025000Y-100000000D03*
D21*
X163500000Y-98575000D03*
D20*
X164975000Y-100000000D03*
D22*
X163500000Y-101425000D03*
%TD*%
D23*
%TO.C,C10*%
X139980000Y-97000000D03*
X139020000Y-97000000D03*
%TD*%
D24*
%TO.C,C9*%
X143750000Y-92520000D03*
X143750000Y-93480000D03*
%TD*%
D11*
%TO.C,R8*%
X152750000Y-92490000D03*
X152750000Y-93510000D03*
%TD*%
D25*
%TO.C,C2*%
X158500000Y-99225000D03*
X158500000Y-100775000D03*
%TD*%
%TO.C,C3*%
X156500000Y-104475000D03*
X156500000Y-106025000D03*
%TD*%
D23*
%TO.C,C11*%
X139980000Y-103000000D03*
X139020000Y-103000000D03*
%TD*%
D26*
X134000000Y-93000000D02*
X134000000Y-107000000D01*
X164000000Y-109000000D02*
G75*
G03*
X166000000Y-107000000I0J2000000D01*
G01*
X166000000Y-93000000D02*
G75*
G03*
X164000000Y-91000000I-2000000J0D01*
G01*
X136000000Y-91000000D02*
X164000000Y-91000000D01*
X136000000Y-91000000D02*
G75*
G03*
X134000000Y-93000000I0J-2000000D01*
G01*
X166000000Y-107000000D02*
X166000000Y-93000000D01*
X136000000Y-109000000D02*
X164000000Y-109000000D01*
X134000000Y-107000000D02*
G75*
G03*
X136000000Y-109000000I2000000J0D01*
G01*
M02*
