M48
; DRILL file {KiCad 7.0.10} date Thu 15 Feb 2024 02:26:10 PM EST
; FORMAT={-:-/ absolute / metric / decimal}
; #@! TF.CreationDate,2024-02-15T14:26:10-05:00
; #@! TF.GenerationSoftware,Kicad,Pcbnew,7.0.10
; #@! TF.FileFunction,Plated,1,4,PTH
FMAT,2
METRIC
; #@! TA.AperFunction,Plated,PTH,ViaDrill
T1C0.400
; #@! TA.AperFunction,Plated,PTH,ComponentDrill
T2C0.400
; #@! TA.AperFunction,Plated,PTH,ComponentDrill
T3C0.500
; #@! TA.AperFunction,Plated,PTH,ComponentDrill
T4C2.260
%
G90
G05
T1
X139.25Y-104.75
X140.536Y-97.74
X141.342Y-102.368
X146.667Y-92.099
X148.495Y-102.758
X149.397Y-102.2
T2
X159.65Y-97.15
X159.65Y-98.75
X159.65Y-99.55
X159.65Y-100.35
X159.65Y-101.15
X159.65Y-102.75
X160.35Y-97.55
X160.35Y-98.35
X160.35Y-99.15
X160.35Y-100.75
X160.35Y-101.55
X160.35Y-102.35
T4
X136.0Y-93.0
X136.0Y-107.0
X164.0Y-93.0
X164.0Y-107.0
T3
G00X160.0Y-95.82
M15
G01X160.5Y-95.82
M16
G05
G00X160.0Y-104.08
M15
G01X160.5Y-104.08
M16
G05
G00X164.45Y-95.51
M15
G01X164.95Y-95.51
M16
G05
G00X164.45Y-104.49
M15
G01X164.95Y-104.49
M16
G05
M30
