%TF.GenerationSoftware,KiCad,Pcbnew,7.0.10*%
%TF.CreationDate,2024-02-15T14:26:12-05:00*%
%TF.ProjectId,wingbeat_detector,77696e67-6265-4617-945f-646574656374,4.0*%
%TF.SameCoordinates,Original*%
%TF.FileFunction,Drillmap*%
%TF.FilePolarity,Positive*%
%FSLAX45Y45*%
G04 Gerber Fmt 4.5, Leading zero omitted, Abs format (unit mm)*
G04 Created by KiCad (PCBNEW 7.0.10) date 2024-02-15 14:26:12*
%MOMM*%
%LPD*%
G01*
G04 APERTURE LIST*
%ADD10C,0.100000*%
%ADD11C,0.200000*%
%ADD12C,0.226000*%
G04 APERTURE END LIST*
D10*
X13400000Y-9300000D02*
X13400000Y-10700000D01*
X16400000Y-10900000D02*
G75*
G03*
X16600000Y-10700000I0J200000D01*
G01*
X16600000Y-9300000D02*
G75*
G03*
X16400000Y-9100000I-200000J0D01*
G01*
X13600000Y-9100000D02*
X16400000Y-9100000D01*
X13600000Y-9100000D02*
G75*
G03*
X13400000Y-9300000I0J-200000D01*
G01*
X16600000Y-10700000D02*
X16600000Y-9300000D01*
X13600000Y-10900000D02*
X16400000Y-10900000D01*
X13400000Y-10700000D02*
G75*
G03*
X13600000Y-10900000I200000J0D01*
G01*
D11*
D10*
X13905000Y-10455000D02*
X13945000Y-10495000D01*
X13945000Y-10455000D02*
X13905000Y-10495000D01*
X14033600Y-9754020D02*
X14073600Y-9794020D01*
X14073600Y-9754020D02*
X14033600Y-9794020D01*
X14114170Y-10216780D02*
X14154170Y-10256780D01*
X14154170Y-10216780D02*
X14114170Y-10256780D01*
X14646700Y-9189850D02*
X14686700Y-9229850D01*
X14686700Y-9189850D02*
X14646700Y-9229850D01*
X14829470Y-10255770D02*
X14869470Y-10295770D01*
X14869470Y-10255770D02*
X14829470Y-10295770D01*
X14919740Y-10199980D02*
X14959740Y-10239980D01*
X14959740Y-10199980D02*
X14919740Y-10239980D01*
X15985000Y-9715000D02*
G75*
G03*
X15945000Y-9715000I-20000J0D01*
G01*
X15945000Y-9715000D02*
G75*
G03*
X15985000Y-9715000I20000J0D01*
G01*
X15985000Y-9875000D02*
G75*
G03*
X15945000Y-9875000I-20000J0D01*
G01*
X15945000Y-9875000D02*
G75*
G03*
X15985000Y-9875000I20000J0D01*
G01*
X15985000Y-9955000D02*
G75*
G03*
X15945000Y-9955000I-20000J0D01*
G01*
X15945000Y-9955000D02*
G75*
G03*
X15985000Y-9955000I20000J0D01*
G01*
X15985000Y-10035000D02*
G75*
G03*
X15945000Y-10035000I-20000J0D01*
G01*
X15945000Y-10035000D02*
G75*
G03*
X15985000Y-10035000I20000J0D01*
G01*
X15985000Y-10115000D02*
G75*
G03*
X15945000Y-10115000I-20000J0D01*
G01*
X15945000Y-10115000D02*
G75*
G03*
X15985000Y-10115000I20000J0D01*
G01*
X15985000Y-10275000D02*
G75*
G03*
X15945000Y-10275000I-20000J0D01*
G01*
X15945000Y-10275000D02*
G75*
G03*
X15985000Y-10275000I20000J0D01*
G01*
X16055000Y-9755000D02*
G75*
G03*
X16015000Y-9755000I-20000J0D01*
G01*
X16015000Y-9755000D02*
G75*
G03*
X16055000Y-9755000I20000J0D01*
G01*
X16055000Y-9835000D02*
G75*
G03*
X16015000Y-9835000I-20000J0D01*
G01*
X16015000Y-9835000D02*
G75*
G03*
X16055000Y-9835000I20000J0D01*
G01*
X16055000Y-9915000D02*
G75*
G03*
X16015000Y-9915000I-20000J0D01*
G01*
X16015000Y-9915000D02*
G75*
G03*
X16055000Y-9915000I20000J0D01*
G01*
X16055000Y-10075000D02*
G75*
G03*
X16015000Y-10075000I-20000J0D01*
G01*
X16015000Y-10075000D02*
G75*
G03*
X16055000Y-10075000I20000J0D01*
G01*
X16055000Y-10155000D02*
G75*
G03*
X16015000Y-10155000I-20000J0D01*
G01*
X16015000Y-10155000D02*
G75*
G03*
X16055000Y-10155000I20000J0D01*
G01*
X16055000Y-10235000D02*
G75*
G03*
X16015000Y-10235000I-20000J0D01*
G01*
X16015000Y-10235000D02*
G75*
G03*
X16055000Y-10235000I20000J0D01*
G01*
X16025000Y-9557000D02*
X16025000Y-9607000D01*
X16000000Y-9582000D02*
X16050000Y-9582000D01*
X16000000Y-9607000D02*
X16050000Y-9607000D01*
X16050000Y-9607000D02*
G75*
G03*
X16050000Y-9557000I0J25000D01*
G01*
X16050000Y-9557000D02*
X16000000Y-9557000D01*
X16000000Y-9557000D02*
G75*
G03*
X16000000Y-9607000I0J-25000D01*
G01*
X16025000Y-10383000D02*
X16025000Y-10433000D01*
X16000000Y-10408000D02*
X16050000Y-10408000D01*
X16000000Y-10433000D02*
X16050000Y-10433000D01*
X16050000Y-10433000D02*
G75*
G03*
X16050000Y-10383000I0J25000D01*
G01*
X16050000Y-10383000D02*
X16000000Y-10383000D01*
X16000000Y-10383000D02*
G75*
G03*
X16000000Y-10433000I0J-25000D01*
G01*
X16470000Y-9526000D02*
X16470000Y-9576000D01*
X16445000Y-9551000D02*
X16495000Y-9551000D01*
X16445000Y-9576000D02*
X16495000Y-9576000D01*
X16495000Y-9576000D02*
G75*
G03*
X16495000Y-9526000I0J25000D01*
G01*
X16495000Y-9526000D02*
X16445000Y-9526000D01*
X16445000Y-9526000D02*
G75*
G03*
X16445000Y-9576000I0J-25000D01*
G01*
X16470000Y-10424000D02*
X16470000Y-10474000D01*
X16445000Y-10449000D02*
X16495000Y-10449000D01*
X16445000Y-10474000D02*
X16495000Y-10474000D01*
X16495000Y-10474000D02*
G75*
G03*
X16495000Y-10424000I0J25000D01*
G01*
X16495000Y-10424000D02*
X16445000Y-10424000D01*
X16445000Y-10424000D02*
G75*
G03*
X16445000Y-10474000I0J-25000D01*
G01*
D12*
X13679904Y-9379904D02*
X13679904Y-9220096D01*
X13520096Y-9220096D01*
X13520096Y-9379904D01*
X13679904Y-9379904D01*
X13679904Y-10779904D02*
X13679904Y-10620096D01*
X13520096Y-10620096D01*
X13520096Y-10779904D01*
X13679904Y-10779904D01*
X16479904Y-9379904D02*
X16479904Y-9220096D01*
X16320096Y-9220096D01*
X16320096Y-9379904D01*
X16479904Y-9379904D01*
X16479904Y-10779904D02*
X16479904Y-10620096D01*
X16320096Y-10620096D01*
X16320096Y-10779904D01*
X16479904Y-10779904D01*
D11*
X13655777Y-11216484D02*
X13655777Y-11016484D01*
X13655777Y-11016484D02*
X13703396Y-11016484D01*
X13703396Y-11016484D02*
X13731967Y-11026008D01*
X13731967Y-11026008D02*
X13751015Y-11045055D01*
X13751015Y-11045055D02*
X13760539Y-11064103D01*
X13760539Y-11064103D02*
X13770062Y-11102198D01*
X13770062Y-11102198D02*
X13770062Y-11130770D01*
X13770062Y-11130770D02*
X13760539Y-11168865D01*
X13760539Y-11168865D02*
X13751015Y-11187912D01*
X13751015Y-11187912D02*
X13731967Y-11206960D01*
X13731967Y-11206960D02*
X13703396Y-11216484D01*
X13703396Y-11216484D02*
X13655777Y-11216484D01*
X13855777Y-11216484D02*
X13855777Y-11083150D01*
X13855777Y-11121246D02*
X13865301Y-11102198D01*
X13865301Y-11102198D02*
X13874824Y-11092674D01*
X13874824Y-11092674D02*
X13893872Y-11083150D01*
X13893872Y-11083150D02*
X13912920Y-11083150D01*
X13979586Y-11216484D02*
X13979586Y-11083150D01*
X13979586Y-11016484D02*
X13970062Y-11026008D01*
X13970062Y-11026008D02*
X13979586Y-11035531D01*
X13979586Y-11035531D02*
X13989110Y-11026008D01*
X13989110Y-11026008D02*
X13979586Y-11016484D01*
X13979586Y-11016484D02*
X13979586Y-11035531D01*
X14103396Y-11216484D02*
X14084348Y-11206960D01*
X14084348Y-11206960D02*
X14074824Y-11187912D01*
X14074824Y-11187912D02*
X14074824Y-11016484D01*
X14208158Y-11216484D02*
X14189110Y-11206960D01*
X14189110Y-11206960D02*
X14179586Y-11187912D01*
X14179586Y-11187912D02*
X14179586Y-11016484D01*
X14436729Y-11216484D02*
X14436729Y-11016484D01*
X14436729Y-11016484D02*
X14503396Y-11159341D01*
X14503396Y-11159341D02*
X14570062Y-11016484D01*
X14570062Y-11016484D02*
X14570062Y-11216484D01*
X14751015Y-11216484D02*
X14751015Y-11111722D01*
X14751015Y-11111722D02*
X14741491Y-11092674D01*
X14741491Y-11092674D02*
X14722443Y-11083150D01*
X14722443Y-11083150D02*
X14684348Y-11083150D01*
X14684348Y-11083150D02*
X14665301Y-11092674D01*
X14751015Y-11206960D02*
X14731967Y-11216484D01*
X14731967Y-11216484D02*
X14684348Y-11216484D01*
X14684348Y-11216484D02*
X14665301Y-11206960D01*
X14665301Y-11206960D02*
X14655777Y-11187912D01*
X14655777Y-11187912D02*
X14655777Y-11168865D01*
X14655777Y-11168865D02*
X14665301Y-11149817D01*
X14665301Y-11149817D02*
X14684348Y-11140293D01*
X14684348Y-11140293D02*
X14731967Y-11140293D01*
X14731967Y-11140293D02*
X14751015Y-11130770D01*
X14846253Y-11083150D02*
X14846253Y-11283150D01*
X14846253Y-11092674D02*
X14865301Y-11083150D01*
X14865301Y-11083150D02*
X14903396Y-11083150D01*
X14903396Y-11083150D02*
X14922443Y-11092674D01*
X14922443Y-11092674D02*
X14931967Y-11102198D01*
X14931967Y-11102198D02*
X14941491Y-11121246D01*
X14941491Y-11121246D02*
X14941491Y-11178389D01*
X14941491Y-11178389D02*
X14931967Y-11197436D01*
X14931967Y-11197436D02*
X14922443Y-11206960D01*
X14922443Y-11206960D02*
X14903396Y-11216484D01*
X14903396Y-11216484D02*
X14865301Y-11216484D01*
X14865301Y-11216484D02*
X14846253Y-11206960D01*
X15027205Y-11197436D02*
X15036729Y-11206960D01*
X15036729Y-11206960D02*
X15027205Y-11216484D01*
X15027205Y-11216484D02*
X15017682Y-11206960D01*
X15017682Y-11206960D02*
X15027205Y-11197436D01*
X15027205Y-11197436D02*
X15027205Y-11216484D01*
X15027205Y-11092674D02*
X15036729Y-11102198D01*
X15036729Y-11102198D02*
X15027205Y-11111722D01*
X15027205Y-11111722D02*
X15017682Y-11102198D01*
X15017682Y-11102198D02*
X15027205Y-11092674D01*
X15027205Y-11092674D02*
X15027205Y-11111722D01*
D10*
X13355000Y-11525000D02*
X13395000Y-11565000D01*
X13395000Y-11525000D02*
X13355000Y-11565000D01*
D11*
X13693872Y-11436484D02*
X13712920Y-11436484D01*
X13712920Y-11436484D02*
X13731967Y-11446008D01*
X13731967Y-11446008D02*
X13741491Y-11455531D01*
X13741491Y-11455531D02*
X13751015Y-11474579D01*
X13751015Y-11474579D02*
X13760539Y-11512674D01*
X13760539Y-11512674D02*
X13760539Y-11560293D01*
X13760539Y-11560293D02*
X13751015Y-11598388D01*
X13751015Y-11598388D02*
X13741491Y-11617436D01*
X13741491Y-11617436D02*
X13731967Y-11626960D01*
X13731967Y-11626960D02*
X13712920Y-11636484D01*
X13712920Y-11636484D02*
X13693872Y-11636484D01*
X13693872Y-11636484D02*
X13674824Y-11626960D01*
X13674824Y-11626960D02*
X13665301Y-11617436D01*
X13665301Y-11617436D02*
X13655777Y-11598388D01*
X13655777Y-11598388D02*
X13646253Y-11560293D01*
X13646253Y-11560293D02*
X13646253Y-11512674D01*
X13646253Y-11512674D02*
X13655777Y-11474579D01*
X13655777Y-11474579D02*
X13665301Y-11455531D01*
X13665301Y-11455531D02*
X13674824Y-11446008D01*
X13674824Y-11446008D02*
X13693872Y-11436484D01*
X13846253Y-11617436D02*
X13855777Y-11626960D01*
X13855777Y-11626960D02*
X13846253Y-11636484D01*
X13846253Y-11636484D02*
X13836729Y-11626960D01*
X13836729Y-11626960D02*
X13846253Y-11617436D01*
X13846253Y-11617436D02*
X13846253Y-11636484D01*
X14027205Y-11503150D02*
X14027205Y-11636484D01*
X13979586Y-11426960D02*
X13931967Y-11569817D01*
X13931967Y-11569817D02*
X14055777Y-11569817D01*
X14170062Y-11436484D02*
X14189110Y-11436484D01*
X14189110Y-11436484D02*
X14208158Y-11446008D01*
X14208158Y-11446008D02*
X14217682Y-11455531D01*
X14217682Y-11455531D02*
X14227205Y-11474579D01*
X14227205Y-11474579D02*
X14236729Y-11512674D01*
X14236729Y-11512674D02*
X14236729Y-11560293D01*
X14236729Y-11560293D02*
X14227205Y-11598388D01*
X14227205Y-11598388D02*
X14217682Y-11617436D01*
X14217682Y-11617436D02*
X14208158Y-11626960D01*
X14208158Y-11626960D02*
X14189110Y-11636484D01*
X14189110Y-11636484D02*
X14170062Y-11636484D01*
X14170062Y-11636484D02*
X14151015Y-11626960D01*
X14151015Y-11626960D02*
X14141491Y-11617436D01*
X14141491Y-11617436D02*
X14131967Y-11598388D01*
X14131967Y-11598388D02*
X14122443Y-11560293D01*
X14122443Y-11560293D02*
X14122443Y-11512674D01*
X14122443Y-11512674D02*
X14131967Y-11474579D01*
X14131967Y-11474579D02*
X14141491Y-11455531D01*
X14141491Y-11455531D02*
X14151015Y-11446008D01*
X14151015Y-11446008D02*
X14170062Y-11436484D01*
X14360539Y-11436484D02*
X14379586Y-11436484D01*
X14379586Y-11436484D02*
X14398634Y-11446008D01*
X14398634Y-11446008D02*
X14408158Y-11455531D01*
X14408158Y-11455531D02*
X14417682Y-11474579D01*
X14417682Y-11474579D02*
X14427205Y-11512674D01*
X14427205Y-11512674D02*
X14427205Y-11560293D01*
X14427205Y-11560293D02*
X14417682Y-11598388D01*
X14417682Y-11598388D02*
X14408158Y-11617436D01*
X14408158Y-11617436D02*
X14398634Y-11626960D01*
X14398634Y-11626960D02*
X14379586Y-11636484D01*
X14379586Y-11636484D02*
X14360539Y-11636484D01*
X14360539Y-11636484D02*
X14341491Y-11626960D01*
X14341491Y-11626960D02*
X14331967Y-11617436D01*
X14331967Y-11617436D02*
X14322443Y-11598388D01*
X14322443Y-11598388D02*
X14312920Y-11560293D01*
X14312920Y-11560293D02*
X14312920Y-11512674D01*
X14312920Y-11512674D02*
X14322443Y-11474579D01*
X14322443Y-11474579D02*
X14331967Y-11455531D01*
X14331967Y-11455531D02*
X14341491Y-11446008D01*
X14341491Y-11446008D02*
X14360539Y-11436484D01*
X14512920Y-11636484D02*
X14512920Y-11503150D01*
X14512920Y-11522198D02*
X14522443Y-11512674D01*
X14522443Y-11512674D02*
X14541491Y-11503150D01*
X14541491Y-11503150D02*
X14570063Y-11503150D01*
X14570063Y-11503150D02*
X14589110Y-11512674D01*
X14589110Y-11512674D02*
X14598634Y-11531722D01*
X14598634Y-11531722D02*
X14598634Y-11636484D01*
X14598634Y-11531722D02*
X14608158Y-11512674D01*
X14608158Y-11512674D02*
X14627205Y-11503150D01*
X14627205Y-11503150D02*
X14655777Y-11503150D01*
X14655777Y-11503150D02*
X14674824Y-11512674D01*
X14674824Y-11512674D02*
X14684348Y-11531722D01*
X14684348Y-11531722D02*
X14684348Y-11636484D01*
X14779586Y-11636484D02*
X14779586Y-11503150D01*
X14779586Y-11522198D02*
X14789110Y-11512674D01*
X14789110Y-11512674D02*
X14808158Y-11503150D01*
X14808158Y-11503150D02*
X14836729Y-11503150D01*
X14836729Y-11503150D02*
X14855777Y-11512674D01*
X14855777Y-11512674D02*
X14865301Y-11531722D01*
X14865301Y-11531722D02*
X14865301Y-11636484D01*
X14865301Y-11531722D02*
X14874824Y-11512674D01*
X14874824Y-11512674D02*
X14893872Y-11503150D01*
X14893872Y-11503150D02*
X14922443Y-11503150D01*
X14922443Y-11503150D02*
X14941491Y-11512674D01*
X14941491Y-11512674D02*
X14951015Y-11531722D01*
X14951015Y-11531722D02*
X14951015Y-11636484D01*
X15341491Y-11426960D02*
X15170063Y-11684103D01*
X15598634Y-11436484D02*
X15617682Y-11436484D01*
X15617682Y-11436484D02*
X15636729Y-11446008D01*
X15636729Y-11446008D02*
X15646253Y-11455531D01*
X15646253Y-11455531D02*
X15655777Y-11474579D01*
X15655777Y-11474579D02*
X15665301Y-11512674D01*
X15665301Y-11512674D02*
X15665301Y-11560293D01*
X15665301Y-11560293D02*
X15655777Y-11598388D01*
X15655777Y-11598388D02*
X15646253Y-11617436D01*
X15646253Y-11617436D02*
X15636729Y-11626960D01*
X15636729Y-11626960D02*
X15617682Y-11636484D01*
X15617682Y-11636484D02*
X15598634Y-11636484D01*
X15598634Y-11636484D02*
X15579586Y-11626960D01*
X15579586Y-11626960D02*
X15570063Y-11617436D01*
X15570063Y-11617436D02*
X15560539Y-11598388D01*
X15560539Y-11598388D02*
X15551015Y-11560293D01*
X15551015Y-11560293D02*
X15551015Y-11512674D01*
X15551015Y-11512674D02*
X15560539Y-11474579D01*
X15560539Y-11474579D02*
X15570063Y-11455531D01*
X15570063Y-11455531D02*
X15579586Y-11446008D01*
X15579586Y-11446008D02*
X15598634Y-11436484D01*
X15751015Y-11617436D02*
X15760539Y-11626960D01*
X15760539Y-11626960D02*
X15751015Y-11636484D01*
X15751015Y-11636484D02*
X15741491Y-11626960D01*
X15741491Y-11626960D02*
X15751015Y-11617436D01*
X15751015Y-11617436D02*
X15751015Y-11636484D01*
X15884348Y-11436484D02*
X15903396Y-11436484D01*
X15903396Y-11436484D02*
X15922444Y-11446008D01*
X15922444Y-11446008D02*
X15931967Y-11455531D01*
X15931967Y-11455531D02*
X15941491Y-11474579D01*
X15941491Y-11474579D02*
X15951015Y-11512674D01*
X15951015Y-11512674D02*
X15951015Y-11560293D01*
X15951015Y-11560293D02*
X15941491Y-11598388D01*
X15941491Y-11598388D02*
X15931967Y-11617436D01*
X15931967Y-11617436D02*
X15922444Y-11626960D01*
X15922444Y-11626960D02*
X15903396Y-11636484D01*
X15903396Y-11636484D02*
X15884348Y-11636484D01*
X15884348Y-11636484D02*
X15865301Y-11626960D01*
X15865301Y-11626960D02*
X15855777Y-11617436D01*
X15855777Y-11617436D02*
X15846253Y-11598388D01*
X15846253Y-11598388D02*
X15836729Y-11560293D01*
X15836729Y-11560293D02*
X15836729Y-11512674D01*
X15836729Y-11512674D02*
X15846253Y-11474579D01*
X15846253Y-11474579D02*
X15855777Y-11455531D01*
X15855777Y-11455531D02*
X15865301Y-11446008D01*
X15865301Y-11446008D02*
X15884348Y-11436484D01*
X16141491Y-11636484D02*
X16027206Y-11636484D01*
X16084348Y-11636484D02*
X16084348Y-11436484D01*
X16084348Y-11436484D02*
X16065301Y-11465055D01*
X16065301Y-11465055D02*
X16046253Y-11484103D01*
X16046253Y-11484103D02*
X16027206Y-11493627D01*
X16322444Y-11436484D02*
X16227206Y-11436484D01*
X16227206Y-11436484D02*
X16217682Y-11531722D01*
X16217682Y-11531722D02*
X16227206Y-11522198D01*
X16227206Y-11522198D02*
X16246253Y-11512674D01*
X16246253Y-11512674D02*
X16293872Y-11512674D01*
X16293872Y-11512674D02*
X16312920Y-11522198D01*
X16312920Y-11522198D02*
X16322444Y-11531722D01*
X16322444Y-11531722D02*
X16331967Y-11550769D01*
X16331967Y-11550769D02*
X16331967Y-11598388D01*
X16331967Y-11598388D02*
X16322444Y-11617436D01*
X16322444Y-11617436D02*
X16312920Y-11626960D01*
X16312920Y-11626960D02*
X16293872Y-11636484D01*
X16293872Y-11636484D02*
X16246253Y-11636484D01*
X16246253Y-11636484D02*
X16227206Y-11626960D01*
X16227206Y-11626960D02*
X16217682Y-11617436D01*
X16398634Y-11436484D02*
X16531967Y-11436484D01*
X16531967Y-11436484D02*
X16446253Y-11636484D01*
X16598634Y-11436484D02*
X16598634Y-11474579D01*
X16674825Y-11436484D02*
X16674825Y-11474579D01*
X16970063Y-11712674D02*
X16960539Y-11703150D01*
X16960539Y-11703150D02*
X16941491Y-11674579D01*
X16941491Y-11674579D02*
X16931968Y-11655531D01*
X16931968Y-11655531D02*
X16922444Y-11626960D01*
X16922444Y-11626960D02*
X16912920Y-11579341D01*
X16912920Y-11579341D02*
X16912920Y-11541246D01*
X16912920Y-11541246D02*
X16922444Y-11493627D01*
X16922444Y-11493627D02*
X16931968Y-11465055D01*
X16931968Y-11465055D02*
X16941491Y-11446008D01*
X16941491Y-11446008D02*
X16960539Y-11417436D01*
X16960539Y-11417436D02*
X16970063Y-11407912D01*
X17131968Y-11436484D02*
X17093872Y-11436484D01*
X17093872Y-11436484D02*
X17074825Y-11446008D01*
X17074825Y-11446008D02*
X17065301Y-11455531D01*
X17065301Y-11455531D02*
X17046253Y-11484103D01*
X17046253Y-11484103D02*
X17036730Y-11522198D01*
X17036730Y-11522198D02*
X17036730Y-11598388D01*
X17036730Y-11598388D02*
X17046253Y-11617436D01*
X17046253Y-11617436D02*
X17055777Y-11626960D01*
X17055777Y-11626960D02*
X17074825Y-11636484D01*
X17074825Y-11636484D02*
X17112920Y-11636484D01*
X17112920Y-11636484D02*
X17131968Y-11626960D01*
X17131968Y-11626960D02*
X17141491Y-11617436D01*
X17141491Y-11617436D02*
X17151015Y-11598388D01*
X17151015Y-11598388D02*
X17151015Y-11550769D01*
X17151015Y-11550769D02*
X17141491Y-11531722D01*
X17141491Y-11531722D02*
X17131968Y-11522198D01*
X17131968Y-11522198D02*
X17112920Y-11512674D01*
X17112920Y-11512674D02*
X17074825Y-11512674D01*
X17074825Y-11512674D02*
X17055777Y-11522198D01*
X17055777Y-11522198D02*
X17046253Y-11531722D01*
X17046253Y-11531722D02*
X17036730Y-11550769D01*
X17389111Y-11636484D02*
X17389111Y-11436484D01*
X17474825Y-11636484D02*
X17474825Y-11531722D01*
X17474825Y-11531722D02*
X17465301Y-11512674D01*
X17465301Y-11512674D02*
X17446253Y-11503150D01*
X17446253Y-11503150D02*
X17417682Y-11503150D01*
X17417682Y-11503150D02*
X17398634Y-11512674D01*
X17398634Y-11512674D02*
X17389111Y-11522198D01*
X17598634Y-11636484D02*
X17579587Y-11626960D01*
X17579587Y-11626960D02*
X17570063Y-11617436D01*
X17570063Y-11617436D02*
X17560539Y-11598388D01*
X17560539Y-11598388D02*
X17560539Y-11541246D01*
X17560539Y-11541246D02*
X17570063Y-11522198D01*
X17570063Y-11522198D02*
X17579587Y-11512674D01*
X17579587Y-11512674D02*
X17598634Y-11503150D01*
X17598634Y-11503150D02*
X17627206Y-11503150D01*
X17627206Y-11503150D02*
X17646253Y-11512674D01*
X17646253Y-11512674D02*
X17655777Y-11522198D01*
X17655777Y-11522198D02*
X17665301Y-11541246D01*
X17665301Y-11541246D02*
X17665301Y-11598388D01*
X17665301Y-11598388D02*
X17655777Y-11617436D01*
X17655777Y-11617436D02*
X17646253Y-11626960D01*
X17646253Y-11626960D02*
X17627206Y-11636484D01*
X17627206Y-11636484D02*
X17598634Y-11636484D01*
X17779587Y-11636484D02*
X17760539Y-11626960D01*
X17760539Y-11626960D02*
X17751015Y-11607912D01*
X17751015Y-11607912D02*
X17751015Y-11436484D01*
X17931968Y-11626960D02*
X17912920Y-11636484D01*
X17912920Y-11636484D02*
X17874825Y-11636484D01*
X17874825Y-11636484D02*
X17855777Y-11626960D01*
X17855777Y-11626960D02*
X17846253Y-11607912D01*
X17846253Y-11607912D02*
X17846253Y-11531722D01*
X17846253Y-11531722D02*
X17855777Y-11512674D01*
X17855777Y-11512674D02*
X17874825Y-11503150D01*
X17874825Y-11503150D02*
X17912920Y-11503150D01*
X17912920Y-11503150D02*
X17931968Y-11512674D01*
X17931968Y-11512674D02*
X17941492Y-11531722D01*
X17941492Y-11531722D02*
X17941492Y-11550769D01*
X17941492Y-11550769D02*
X17846253Y-11569817D01*
X18017682Y-11626960D02*
X18036730Y-11636484D01*
X18036730Y-11636484D02*
X18074825Y-11636484D01*
X18074825Y-11636484D02*
X18093873Y-11626960D01*
X18093873Y-11626960D02*
X18103396Y-11607912D01*
X18103396Y-11607912D02*
X18103396Y-11598388D01*
X18103396Y-11598388D02*
X18093873Y-11579341D01*
X18093873Y-11579341D02*
X18074825Y-11569817D01*
X18074825Y-11569817D02*
X18046253Y-11569817D01*
X18046253Y-11569817D02*
X18027206Y-11560293D01*
X18027206Y-11560293D02*
X18017682Y-11541246D01*
X18017682Y-11541246D02*
X18017682Y-11531722D01*
X18017682Y-11531722D02*
X18027206Y-11512674D01*
X18027206Y-11512674D02*
X18046253Y-11503150D01*
X18046253Y-11503150D02*
X18074825Y-11503150D01*
X18074825Y-11503150D02*
X18093873Y-11512674D01*
X18170063Y-11712674D02*
X18179587Y-11703150D01*
X18179587Y-11703150D02*
X18198634Y-11674579D01*
X18198634Y-11674579D02*
X18208158Y-11655531D01*
X18208158Y-11655531D02*
X18217682Y-11626960D01*
X18217682Y-11626960D02*
X18227206Y-11579341D01*
X18227206Y-11579341D02*
X18227206Y-11541246D01*
X18227206Y-11541246D02*
X18217682Y-11493627D01*
X18217682Y-11493627D02*
X18208158Y-11465055D01*
X18208158Y-11465055D02*
X18198634Y-11446008D01*
X18198634Y-11446008D02*
X18179587Y-11417436D01*
X18179587Y-11417436D02*
X18170063Y-11407912D01*
D10*
X13395000Y-11809000D02*
G75*
G03*
X13355000Y-11809000I-20000J0D01*
G01*
X13355000Y-11809000D02*
G75*
G03*
X13395000Y-11809000I20000J0D01*
G01*
D11*
X13693872Y-11700484D02*
X13712920Y-11700484D01*
X13712920Y-11700484D02*
X13731967Y-11710008D01*
X13731967Y-11710008D02*
X13741491Y-11719531D01*
X13741491Y-11719531D02*
X13751015Y-11738579D01*
X13751015Y-11738579D02*
X13760539Y-11776674D01*
X13760539Y-11776674D02*
X13760539Y-11824293D01*
X13760539Y-11824293D02*
X13751015Y-11862388D01*
X13751015Y-11862388D02*
X13741491Y-11881436D01*
X13741491Y-11881436D02*
X13731967Y-11890960D01*
X13731967Y-11890960D02*
X13712920Y-11900484D01*
X13712920Y-11900484D02*
X13693872Y-11900484D01*
X13693872Y-11900484D02*
X13674824Y-11890960D01*
X13674824Y-11890960D02*
X13665301Y-11881436D01*
X13665301Y-11881436D02*
X13655777Y-11862388D01*
X13655777Y-11862388D02*
X13646253Y-11824293D01*
X13646253Y-11824293D02*
X13646253Y-11776674D01*
X13646253Y-11776674D02*
X13655777Y-11738579D01*
X13655777Y-11738579D02*
X13665301Y-11719531D01*
X13665301Y-11719531D02*
X13674824Y-11710008D01*
X13674824Y-11710008D02*
X13693872Y-11700484D01*
X13846253Y-11881436D02*
X13855777Y-11890960D01*
X13855777Y-11890960D02*
X13846253Y-11900484D01*
X13846253Y-11900484D02*
X13836729Y-11890960D01*
X13836729Y-11890960D02*
X13846253Y-11881436D01*
X13846253Y-11881436D02*
X13846253Y-11900484D01*
X14027205Y-11767150D02*
X14027205Y-11900484D01*
X13979586Y-11690960D02*
X13931967Y-11833817D01*
X13931967Y-11833817D02*
X14055777Y-11833817D01*
X14170062Y-11700484D02*
X14189110Y-11700484D01*
X14189110Y-11700484D02*
X14208158Y-11710008D01*
X14208158Y-11710008D02*
X14217682Y-11719531D01*
X14217682Y-11719531D02*
X14227205Y-11738579D01*
X14227205Y-11738579D02*
X14236729Y-11776674D01*
X14236729Y-11776674D02*
X14236729Y-11824293D01*
X14236729Y-11824293D02*
X14227205Y-11862388D01*
X14227205Y-11862388D02*
X14217682Y-11881436D01*
X14217682Y-11881436D02*
X14208158Y-11890960D01*
X14208158Y-11890960D02*
X14189110Y-11900484D01*
X14189110Y-11900484D02*
X14170062Y-11900484D01*
X14170062Y-11900484D02*
X14151015Y-11890960D01*
X14151015Y-11890960D02*
X14141491Y-11881436D01*
X14141491Y-11881436D02*
X14131967Y-11862388D01*
X14131967Y-11862388D02*
X14122443Y-11824293D01*
X14122443Y-11824293D02*
X14122443Y-11776674D01*
X14122443Y-11776674D02*
X14131967Y-11738579D01*
X14131967Y-11738579D02*
X14141491Y-11719531D01*
X14141491Y-11719531D02*
X14151015Y-11710008D01*
X14151015Y-11710008D02*
X14170062Y-11700484D01*
X14360539Y-11700484D02*
X14379586Y-11700484D01*
X14379586Y-11700484D02*
X14398634Y-11710008D01*
X14398634Y-11710008D02*
X14408158Y-11719531D01*
X14408158Y-11719531D02*
X14417682Y-11738579D01*
X14417682Y-11738579D02*
X14427205Y-11776674D01*
X14427205Y-11776674D02*
X14427205Y-11824293D01*
X14427205Y-11824293D02*
X14417682Y-11862388D01*
X14417682Y-11862388D02*
X14408158Y-11881436D01*
X14408158Y-11881436D02*
X14398634Y-11890960D01*
X14398634Y-11890960D02*
X14379586Y-11900484D01*
X14379586Y-11900484D02*
X14360539Y-11900484D01*
X14360539Y-11900484D02*
X14341491Y-11890960D01*
X14341491Y-11890960D02*
X14331967Y-11881436D01*
X14331967Y-11881436D02*
X14322443Y-11862388D01*
X14322443Y-11862388D02*
X14312920Y-11824293D01*
X14312920Y-11824293D02*
X14312920Y-11776674D01*
X14312920Y-11776674D02*
X14322443Y-11738579D01*
X14322443Y-11738579D02*
X14331967Y-11719531D01*
X14331967Y-11719531D02*
X14341491Y-11710008D01*
X14341491Y-11710008D02*
X14360539Y-11700484D01*
X14512920Y-11900484D02*
X14512920Y-11767150D01*
X14512920Y-11786198D02*
X14522443Y-11776674D01*
X14522443Y-11776674D02*
X14541491Y-11767150D01*
X14541491Y-11767150D02*
X14570063Y-11767150D01*
X14570063Y-11767150D02*
X14589110Y-11776674D01*
X14589110Y-11776674D02*
X14598634Y-11795722D01*
X14598634Y-11795722D02*
X14598634Y-11900484D01*
X14598634Y-11795722D02*
X14608158Y-11776674D01*
X14608158Y-11776674D02*
X14627205Y-11767150D01*
X14627205Y-11767150D02*
X14655777Y-11767150D01*
X14655777Y-11767150D02*
X14674824Y-11776674D01*
X14674824Y-11776674D02*
X14684348Y-11795722D01*
X14684348Y-11795722D02*
X14684348Y-11900484D01*
X14779586Y-11900484D02*
X14779586Y-11767150D01*
X14779586Y-11786198D02*
X14789110Y-11776674D01*
X14789110Y-11776674D02*
X14808158Y-11767150D01*
X14808158Y-11767150D02*
X14836729Y-11767150D01*
X14836729Y-11767150D02*
X14855777Y-11776674D01*
X14855777Y-11776674D02*
X14865301Y-11795722D01*
X14865301Y-11795722D02*
X14865301Y-11900484D01*
X14865301Y-11795722D02*
X14874824Y-11776674D01*
X14874824Y-11776674D02*
X14893872Y-11767150D01*
X14893872Y-11767150D02*
X14922443Y-11767150D01*
X14922443Y-11767150D02*
X14941491Y-11776674D01*
X14941491Y-11776674D02*
X14951015Y-11795722D01*
X14951015Y-11795722D02*
X14951015Y-11900484D01*
X15341491Y-11690960D02*
X15170063Y-11948103D01*
X15598634Y-11700484D02*
X15617682Y-11700484D01*
X15617682Y-11700484D02*
X15636729Y-11710008D01*
X15636729Y-11710008D02*
X15646253Y-11719531D01*
X15646253Y-11719531D02*
X15655777Y-11738579D01*
X15655777Y-11738579D02*
X15665301Y-11776674D01*
X15665301Y-11776674D02*
X15665301Y-11824293D01*
X15665301Y-11824293D02*
X15655777Y-11862388D01*
X15655777Y-11862388D02*
X15646253Y-11881436D01*
X15646253Y-11881436D02*
X15636729Y-11890960D01*
X15636729Y-11890960D02*
X15617682Y-11900484D01*
X15617682Y-11900484D02*
X15598634Y-11900484D01*
X15598634Y-11900484D02*
X15579586Y-11890960D01*
X15579586Y-11890960D02*
X15570063Y-11881436D01*
X15570063Y-11881436D02*
X15560539Y-11862388D01*
X15560539Y-11862388D02*
X15551015Y-11824293D01*
X15551015Y-11824293D02*
X15551015Y-11776674D01*
X15551015Y-11776674D02*
X15560539Y-11738579D01*
X15560539Y-11738579D02*
X15570063Y-11719531D01*
X15570063Y-11719531D02*
X15579586Y-11710008D01*
X15579586Y-11710008D02*
X15598634Y-11700484D01*
X15751015Y-11881436D02*
X15760539Y-11890960D01*
X15760539Y-11890960D02*
X15751015Y-11900484D01*
X15751015Y-11900484D02*
X15741491Y-11890960D01*
X15741491Y-11890960D02*
X15751015Y-11881436D01*
X15751015Y-11881436D02*
X15751015Y-11900484D01*
X15884348Y-11700484D02*
X15903396Y-11700484D01*
X15903396Y-11700484D02*
X15922444Y-11710008D01*
X15922444Y-11710008D02*
X15931967Y-11719531D01*
X15931967Y-11719531D02*
X15941491Y-11738579D01*
X15941491Y-11738579D02*
X15951015Y-11776674D01*
X15951015Y-11776674D02*
X15951015Y-11824293D01*
X15951015Y-11824293D02*
X15941491Y-11862388D01*
X15941491Y-11862388D02*
X15931967Y-11881436D01*
X15931967Y-11881436D02*
X15922444Y-11890960D01*
X15922444Y-11890960D02*
X15903396Y-11900484D01*
X15903396Y-11900484D02*
X15884348Y-11900484D01*
X15884348Y-11900484D02*
X15865301Y-11890960D01*
X15865301Y-11890960D02*
X15855777Y-11881436D01*
X15855777Y-11881436D02*
X15846253Y-11862388D01*
X15846253Y-11862388D02*
X15836729Y-11824293D01*
X15836729Y-11824293D02*
X15836729Y-11776674D01*
X15836729Y-11776674D02*
X15846253Y-11738579D01*
X15846253Y-11738579D02*
X15855777Y-11719531D01*
X15855777Y-11719531D02*
X15865301Y-11710008D01*
X15865301Y-11710008D02*
X15884348Y-11700484D01*
X16141491Y-11900484D02*
X16027206Y-11900484D01*
X16084348Y-11900484D02*
X16084348Y-11700484D01*
X16084348Y-11700484D02*
X16065301Y-11729055D01*
X16065301Y-11729055D02*
X16046253Y-11748103D01*
X16046253Y-11748103D02*
X16027206Y-11757627D01*
X16322444Y-11700484D02*
X16227206Y-11700484D01*
X16227206Y-11700484D02*
X16217682Y-11795722D01*
X16217682Y-11795722D02*
X16227206Y-11786198D01*
X16227206Y-11786198D02*
X16246253Y-11776674D01*
X16246253Y-11776674D02*
X16293872Y-11776674D01*
X16293872Y-11776674D02*
X16312920Y-11786198D01*
X16312920Y-11786198D02*
X16322444Y-11795722D01*
X16322444Y-11795722D02*
X16331967Y-11814769D01*
X16331967Y-11814769D02*
X16331967Y-11862388D01*
X16331967Y-11862388D02*
X16322444Y-11881436D01*
X16322444Y-11881436D02*
X16312920Y-11890960D01*
X16312920Y-11890960D02*
X16293872Y-11900484D01*
X16293872Y-11900484D02*
X16246253Y-11900484D01*
X16246253Y-11900484D02*
X16227206Y-11890960D01*
X16227206Y-11890960D02*
X16217682Y-11881436D01*
X16398634Y-11700484D02*
X16531967Y-11700484D01*
X16531967Y-11700484D02*
X16446253Y-11900484D01*
X16598634Y-11700484D02*
X16598634Y-11738579D01*
X16674825Y-11700484D02*
X16674825Y-11738579D01*
X16970063Y-11976674D02*
X16960539Y-11967150D01*
X16960539Y-11967150D02*
X16941491Y-11938579D01*
X16941491Y-11938579D02*
X16931968Y-11919531D01*
X16931968Y-11919531D02*
X16922444Y-11890960D01*
X16922444Y-11890960D02*
X16912920Y-11843341D01*
X16912920Y-11843341D02*
X16912920Y-11805246D01*
X16912920Y-11805246D02*
X16922444Y-11757627D01*
X16922444Y-11757627D02*
X16931968Y-11729055D01*
X16931968Y-11729055D02*
X16941491Y-11710008D01*
X16941491Y-11710008D02*
X16960539Y-11681436D01*
X16960539Y-11681436D02*
X16970063Y-11671912D01*
X17151015Y-11900484D02*
X17036730Y-11900484D01*
X17093872Y-11900484D02*
X17093872Y-11700484D01*
X17093872Y-11700484D02*
X17074825Y-11729055D01*
X17074825Y-11729055D02*
X17055777Y-11748103D01*
X17055777Y-11748103D02*
X17036730Y-11757627D01*
X17227206Y-11719531D02*
X17236730Y-11710008D01*
X17236730Y-11710008D02*
X17255777Y-11700484D01*
X17255777Y-11700484D02*
X17303396Y-11700484D01*
X17303396Y-11700484D02*
X17322444Y-11710008D01*
X17322444Y-11710008D02*
X17331968Y-11719531D01*
X17331968Y-11719531D02*
X17341491Y-11738579D01*
X17341491Y-11738579D02*
X17341491Y-11757627D01*
X17341491Y-11757627D02*
X17331968Y-11786198D01*
X17331968Y-11786198D02*
X17217682Y-11900484D01*
X17217682Y-11900484D02*
X17341491Y-11900484D01*
X17579587Y-11900484D02*
X17579587Y-11700484D01*
X17665301Y-11900484D02*
X17665301Y-11795722D01*
X17665301Y-11795722D02*
X17655777Y-11776674D01*
X17655777Y-11776674D02*
X17636730Y-11767150D01*
X17636730Y-11767150D02*
X17608158Y-11767150D01*
X17608158Y-11767150D02*
X17589111Y-11776674D01*
X17589111Y-11776674D02*
X17579587Y-11786198D01*
X17789111Y-11900484D02*
X17770063Y-11890960D01*
X17770063Y-11890960D02*
X17760539Y-11881436D01*
X17760539Y-11881436D02*
X17751015Y-11862388D01*
X17751015Y-11862388D02*
X17751015Y-11805246D01*
X17751015Y-11805246D02*
X17760539Y-11786198D01*
X17760539Y-11786198D02*
X17770063Y-11776674D01*
X17770063Y-11776674D02*
X17789111Y-11767150D01*
X17789111Y-11767150D02*
X17817682Y-11767150D01*
X17817682Y-11767150D02*
X17836730Y-11776674D01*
X17836730Y-11776674D02*
X17846253Y-11786198D01*
X17846253Y-11786198D02*
X17855777Y-11805246D01*
X17855777Y-11805246D02*
X17855777Y-11862388D01*
X17855777Y-11862388D02*
X17846253Y-11881436D01*
X17846253Y-11881436D02*
X17836730Y-11890960D01*
X17836730Y-11890960D02*
X17817682Y-11900484D01*
X17817682Y-11900484D02*
X17789111Y-11900484D01*
X17970063Y-11900484D02*
X17951015Y-11890960D01*
X17951015Y-11890960D02*
X17941492Y-11871912D01*
X17941492Y-11871912D02*
X17941492Y-11700484D01*
X18122444Y-11890960D02*
X18103396Y-11900484D01*
X18103396Y-11900484D02*
X18065301Y-11900484D01*
X18065301Y-11900484D02*
X18046253Y-11890960D01*
X18046253Y-11890960D02*
X18036730Y-11871912D01*
X18036730Y-11871912D02*
X18036730Y-11795722D01*
X18036730Y-11795722D02*
X18046253Y-11776674D01*
X18046253Y-11776674D02*
X18065301Y-11767150D01*
X18065301Y-11767150D02*
X18103396Y-11767150D01*
X18103396Y-11767150D02*
X18122444Y-11776674D01*
X18122444Y-11776674D02*
X18131968Y-11795722D01*
X18131968Y-11795722D02*
X18131968Y-11814769D01*
X18131968Y-11814769D02*
X18036730Y-11833817D01*
X18208158Y-11890960D02*
X18227206Y-11900484D01*
X18227206Y-11900484D02*
X18265301Y-11900484D01*
X18265301Y-11900484D02*
X18284349Y-11890960D01*
X18284349Y-11890960D02*
X18293873Y-11871912D01*
X18293873Y-11871912D02*
X18293873Y-11862388D01*
X18293873Y-11862388D02*
X18284349Y-11843341D01*
X18284349Y-11843341D02*
X18265301Y-11833817D01*
X18265301Y-11833817D02*
X18236730Y-11833817D01*
X18236730Y-11833817D02*
X18217682Y-11824293D01*
X18217682Y-11824293D02*
X18208158Y-11805246D01*
X18208158Y-11805246D02*
X18208158Y-11795722D01*
X18208158Y-11795722D02*
X18217682Y-11776674D01*
X18217682Y-11776674D02*
X18236730Y-11767150D01*
X18236730Y-11767150D02*
X18265301Y-11767150D01*
X18265301Y-11767150D02*
X18284349Y-11776674D01*
X18360539Y-11976674D02*
X18370063Y-11967150D01*
X18370063Y-11967150D02*
X18389111Y-11938579D01*
X18389111Y-11938579D02*
X18398634Y-11919531D01*
X18398634Y-11919531D02*
X18408158Y-11890960D01*
X18408158Y-11890960D02*
X18417682Y-11843341D01*
X18417682Y-11843341D02*
X18417682Y-11805246D01*
X18417682Y-11805246D02*
X18408158Y-11757627D01*
X18408158Y-11757627D02*
X18398634Y-11729055D01*
X18398634Y-11729055D02*
X18389111Y-11710008D01*
X18389111Y-11710008D02*
X18370063Y-11681436D01*
X18370063Y-11681436D02*
X18360539Y-11671912D01*
D10*
X13370000Y-12048000D02*
X13370000Y-12098000D01*
X13345000Y-12073000D02*
X13395000Y-12073000D01*
D11*
X13693872Y-11964484D02*
X13712920Y-11964484D01*
X13712920Y-11964484D02*
X13731967Y-11974008D01*
X13731967Y-11974008D02*
X13741491Y-11983531D01*
X13741491Y-11983531D02*
X13751015Y-12002579D01*
X13751015Y-12002579D02*
X13760539Y-12040674D01*
X13760539Y-12040674D02*
X13760539Y-12088293D01*
X13760539Y-12088293D02*
X13751015Y-12126388D01*
X13751015Y-12126388D02*
X13741491Y-12145436D01*
X13741491Y-12145436D02*
X13731967Y-12154960D01*
X13731967Y-12154960D02*
X13712920Y-12164484D01*
X13712920Y-12164484D02*
X13693872Y-12164484D01*
X13693872Y-12164484D02*
X13674824Y-12154960D01*
X13674824Y-12154960D02*
X13665301Y-12145436D01*
X13665301Y-12145436D02*
X13655777Y-12126388D01*
X13655777Y-12126388D02*
X13646253Y-12088293D01*
X13646253Y-12088293D02*
X13646253Y-12040674D01*
X13646253Y-12040674D02*
X13655777Y-12002579D01*
X13655777Y-12002579D02*
X13665301Y-11983531D01*
X13665301Y-11983531D02*
X13674824Y-11974008D01*
X13674824Y-11974008D02*
X13693872Y-11964484D01*
X13846253Y-12145436D02*
X13855777Y-12154960D01*
X13855777Y-12154960D02*
X13846253Y-12164484D01*
X13846253Y-12164484D02*
X13836729Y-12154960D01*
X13836729Y-12154960D02*
X13846253Y-12145436D01*
X13846253Y-12145436D02*
X13846253Y-12164484D01*
X14036729Y-11964484D02*
X13941491Y-11964484D01*
X13941491Y-11964484D02*
X13931967Y-12059722D01*
X13931967Y-12059722D02*
X13941491Y-12050198D01*
X13941491Y-12050198D02*
X13960539Y-12040674D01*
X13960539Y-12040674D02*
X14008158Y-12040674D01*
X14008158Y-12040674D02*
X14027205Y-12050198D01*
X14027205Y-12050198D02*
X14036729Y-12059722D01*
X14036729Y-12059722D02*
X14046253Y-12078769D01*
X14046253Y-12078769D02*
X14046253Y-12126388D01*
X14046253Y-12126388D02*
X14036729Y-12145436D01*
X14036729Y-12145436D02*
X14027205Y-12154960D01*
X14027205Y-12154960D02*
X14008158Y-12164484D01*
X14008158Y-12164484D02*
X13960539Y-12164484D01*
X13960539Y-12164484D02*
X13941491Y-12154960D01*
X13941491Y-12154960D02*
X13931967Y-12145436D01*
X14170062Y-11964484D02*
X14189110Y-11964484D01*
X14189110Y-11964484D02*
X14208158Y-11974008D01*
X14208158Y-11974008D02*
X14217682Y-11983531D01*
X14217682Y-11983531D02*
X14227205Y-12002579D01*
X14227205Y-12002579D02*
X14236729Y-12040674D01*
X14236729Y-12040674D02*
X14236729Y-12088293D01*
X14236729Y-12088293D02*
X14227205Y-12126388D01*
X14227205Y-12126388D02*
X14217682Y-12145436D01*
X14217682Y-12145436D02*
X14208158Y-12154960D01*
X14208158Y-12154960D02*
X14189110Y-12164484D01*
X14189110Y-12164484D02*
X14170062Y-12164484D01*
X14170062Y-12164484D02*
X14151015Y-12154960D01*
X14151015Y-12154960D02*
X14141491Y-12145436D01*
X14141491Y-12145436D02*
X14131967Y-12126388D01*
X14131967Y-12126388D02*
X14122443Y-12088293D01*
X14122443Y-12088293D02*
X14122443Y-12040674D01*
X14122443Y-12040674D02*
X14131967Y-12002579D01*
X14131967Y-12002579D02*
X14141491Y-11983531D01*
X14141491Y-11983531D02*
X14151015Y-11974008D01*
X14151015Y-11974008D02*
X14170062Y-11964484D01*
X14360539Y-11964484D02*
X14379586Y-11964484D01*
X14379586Y-11964484D02*
X14398634Y-11974008D01*
X14398634Y-11974008D02*
X14408158Y-11983531D01*
X14408158Y-11983531D02*
X14417682Y-12002579D01*
X14417682Y-12002579D02*
X14427205Y-12040674D01*
X14427205Y-12040674D02*
X14427205Y-12088293D01*
X14427205Y-12088293D02*
X14417682Y-12126388D01*
X14417682Y-12126388D02*
X14408158Y-12145436D01*
X14408158Y-12145436D02*
X14398634Y-12154960D01*
X14398634Y-12154960D02*
X14379586Y-12164484D01*
X14379586Y-12164484D02*
X14360539Y-12164484D01*
X14360539Y-12164484D02*
X14341491Y-12154960D01*
X14341491Y-12154960D02*
X14331967Y-12145436D01*
X14331967Y-12145436D02*
X14322443Y-12126388D01*
X14322443Y-12126388D02*
X14312920Y-12088293D01*
X14312920Y-12088293D02*
X14312920Y-12040674D01*
X14312920Y-12040674D02*
X14322443Y-12002579D01*
X14322443Y-12002579D02*
X14331967Y-11983531D01*
X14331967Y-11983531D02*
X14341491Y-11974008D01*
X14341491Y-11974008D02*
X14360539Y-11964484D01*
X14512920Y-12164484D02*
X14512920Y-12031150D01*
X14512920Y-12050198D02*
X14522443Y-12040674D01*
X14522443Y-12040674D02*
X14541491Y-12031150D01*
X14541491Y-12031150D02*
X14570063Y-12031150D01*
X14570063Y-12031150D02*
X14589110Y-12040674D01*
X14589110Y-12040674D02*
X14598634Y-12059722D01*
X14598634Y-12059722D02*
X14598634Y-12164484D01*
X14598634Y-12059722D02*
X14608158Y-12040674D01*
X14608158Y-12040674D02*
X14627205Y-12031150D01*
X14627205Y-12031150D02*
X14655777Y-12031150D01*
X14655777Y-12031150D02*
X14674824Y-12040674D01*
X14674824Y-12040674D02*
X14684348Y-12059722D01*
X14684348Y-12059722D02*
X14684348Y-12164484D01*
X14779586Y-12164484D02*
X14779586Y-12031150D01*
X14779586Y-12050198D02*
X14789110Y-12040674D01*
X14789110Y-12040674D02*
X14808158Y-12031150D01*
X14808158Y-12031150D02*
X14836729Y-12031150D01*
X14836729Y-12031150D02*
X14855777Y-12040674D01*
X14855777Y-12040674D02*
X14865301Y-12059722D01*
X14865301Y-12059722D02*
X14865301Y-12164484D01*
X14865301Y-12059722D02*
X14874824Y-12040674D01*
X14874824Y-12040674D02*
X14893872Y-12031150D01*
X14893872Y-12031150D02*
X14922443Y-12031150D01*
X14922443Y-12031150D02*
X14941491Y-12040674D01*
X14941491Y-12040674D02*
X14951015Y-12059722D01*
X14951015Y-12059722D02*
X14951015Y-12164484D01*
X15341491Y-11954960D02*
X15170063Y-12212103D01*
X15598634Y-11964484D02*
X15617682Y-11964484D01*
X15617682Y-11964484D02*
X15636729Y-11974008D01*
X15636729Y-11974008D02*
X15646253Y-11983531D01*
X15646253Y-11983531D02*
X15655777Y-12002579D01*
X15655777Y-12002579D02*
X15665301Y-12040674D01*
X15665301Y-12040674D02*
X15665301Y-12088293D01*
X15665301Y-12088293D02*
X15655777Y-12126388D01*
X15655777Y-12126388D02*
X15646253Y-12145436D01*
X15646253Y-12145436D02*
X15636729Y-12154960D01*
X15636729Y-12154960D02*
X15617682Y-12164484D01*
X15617682Y-12164484D02*
X15598634Y-12164484D01*
X15598634Y-12164484D02*
X15579586Y-12154960D01*
X15579586Y-12154960D02*
X15570063Y-12145436D01*
X15570063Y-12145436D02*
X15560539Y-12126388D01*
X15560539Y-12126388D02*
X15551015Y-12088293D01*
X15551015Y-12088293D02*
X15551015Y-12040674D01*
X15551015Y-12040674D02*
X15560539Y-12002579D01*
X15560539Y-12002579D02*
X15570063Y-11983531D01*
X15570063Y-11983531D02*
X15579586Y-11974008D01*
X15579586Y-11974008D02*
X15598634Y-11964484D01*
X15751015Y-12145436D02*
X15760539Y-12154960D01*
X15760539Y-12154960D02*
X15751015Y-12164484D01*
X15751015Y-12164484D02*
X15741491Y-12154960D01*
X15741491Y-12154960D02*
X15751015Y-12145436D01*
X15751015Y-12145436D02*
X15751015Y-12164484D01*
X15884348Y-11964484D02*
X15903396Y-11964484D01*
X15903396Y-11964484D02*
X15922444Y-11974008D01*
X15922444Y-11974008D02*
X15931967Y-11983531D01*
X15931967Y-11983531D02*
X15941491Y-12002579D01*
X15941491Y-12002579D02*
X15951015Y-12040674D01*
X15951015Y-12040674D02*
X15951015Y-12088293D01*
X15951015Y-12088293D02*
X15941491Y-12126388D01*
X15941491Y-12126388D02*
X15931967Y-12145436D01*
X15931967Y-12145436D02*
X15922444Y-12154960D01*
X15922444Y-12154960D02*
X15903396Y-12164484D01*
X15903396Y-12164484D02*
X15884348Y-12164484D01*
X15884348Y-12164484D02*
X15865301Y-12154960D01*
X15865301Y-12154960D02*
X15855777Y-12145436D01*
X15855777Y-12145436D02*
X15846253Y-12126388D01*
X15846253Y-12126388D02*
X15836729Y-12088293D01*
X15836729Y-12088293D02*
X15836729Y-12040674D01*
X15836729Y-12040674D02*
X15846253Y-12002579D01*
X15846253Y-12002579D02*
X15855777Y-11983531D01*
X15855777Y-11983531D02*
X15865301Y-11974008D01*
X15865301Y-11974008D02*
X15884348Y-11964484D01*
X16141491Y-12164484D02*
X16027206Y-12164484D01*
X16084348Y-12164484D02*
X16084348Y-11964484D01*
X16084348Y-11964484D02*
X16065301Y-11993055D01*
X16065301Y-11993055D02*
X16046253Y-12012103D01*
X16046253Y-12012103D02*
X16027206Y-12021627D01*
X16236729Y-12164484D02*
X16274825Y-12164484D01*
X16274825Y-12164484D02*
X16293872Y-12154960D01*
X16293872Y-12154960D02*
X16303396Y-12145436D01*
X16303396Y-12145436D02*
X16322444Y-12116865D01*
X16322444Y-12116865D02*
X16331967Y-12078769D01*
X16331967Y-12078769D02*
X16331967Y-12002579D01*
X16331967Y-12002579D02*
X16322444Y-11983531D01*
X16322444Y-11983531D02*
X16312920Y-11974008D01*
X16312920Y-11974008D02*
X16293872Y-11964484D01*
X16293872Y-11964484D02*
X16255777Y-11964484D01*
X16255777Y-11964484D02*
X16236729Y-11974008D01*
X16236729Y-11974008D02*
X16227206Y-11983531D01*
X16227206Y-11983531D02*
X16217682Y-12002579D01*
X16217682Y-12002579D02*
X16217682Y-12050198D01*
X16217682Y-12050198D02*
X16227206Y-12069246D01*
X16227206Y-12069246D02*
X16236729Y-12078769D01*
X16236729Y-12078769D02*
X16255777Y-12088293D01*
X16255777Y-12088293D02*
X16293872Y-12088293D01*
X16293872Y-12088293D02*
X16312920Y-12078769D01*
X16312920Y-12078769D02*
X16322444Y-12069246D01*
X16322444Y-12069246D02*
X16331967Y-12050198D01*
X16398634Y-11964484D02*
X16531967Y-11964484D01*
X16531967Y-11964484D02*
X16446253Y-12164484D01*
X16598634Y-11964484D02*
X16598634Y-12002579D01*
X16674825Y-11964484D02*
X16674825Y-12002579D01*
X16970063Y-12240674D02*
X16960539Y-12231150D01*
X16960539Y-12231150D02*
X16941491Y-12202579D01*
X16941491Y-12202579D02*
X16931968Y-12183531D01*
X16931968Y-12183531D02*
X16922444Y-12154960D01*
X16922444Y-12154960D02*
X16912920Y-12107341D01*
X16912920Y-12107341D02*
X16912920Y-12069246D01*
X16912920Y-12069246D02*
X16922444Y-12021627D01*
X16922444Y-12021627D02*
X16931968Y-11993055D01*
X16931968Y-11993055D02*
X16941491Y-11974008D01*
X16941491Y-11974008D02*
X16960539Y-11945436D01*
X16960539Y-11945436D02*
X16970063Y-11935912D01*
X17084349Y-11964484D02*
X17103396Y-11964484D01*
X17103396Y-11964484D02*
X17122444Y-11974008D01*
X17122444Y-11974008D02*
X17131968Y-11983531D01*
X17131968Y-11983531D02*
X17141491Y-12002579D01*
X17141491Y-12002579D02*
X17151015Y-12040674D01*
X17151015Y-12040674D02*
X17151015Y-12088293D01*
X17151015Y-12088293D02*
X17141491Y-12126388D01*
X17141491Y-12126388D02*
X17131968Y-12145436D01*
X17131968Y-12145436D02*
X17122444Y-12154960D01*
X17122444Y-12154960D02*
X17103396Y-12164484D01*
X17103396Y-12164484D02*
X17084349Y-12164484D01*
X17084349Y-12164484D02*
X17065301Y-12154960D01*
X17065301Y-12154960D02*
X17055777Y-12145436D01*
X17055777Y-12145436D02*
X17046253Y-12126388D01*
X17046253Y-12126388D02*
X17036730Y-12088293D01*
X17036730Y-12088293D02*
X17036730Y-12040674D01*
X17036730Y-12040674D02*
X17046253Y-12002579D01*
X17046253Y-12002579D02*
X17055777Y-11983531D01*
X17055777Y-11983531D02*
X17065301Y-11974008D01*
X17065301Y-11974008D02*
X17084349Y-11964484D01*
X17389111Y-12164484D02*
X17389111Y-11964484D01*
X17474825Y-12164484D02*
X17474825Y-12059722D01*
X17474825Y-12059722D02*
X17465301Y-12040674D01*
X17465301Y-12040674D02*
X17446253Y-12031150D01*
X17446253Y-12031150D02*
X17417682Y-12031150D01*
X17417682Y-12031150D02*
X17398634Y-12040674D01*
X17398634Y-12040674D02*
X17389111Y-12050198D01*
X17598634Y-12164484D02*
X17579587Y-12154960D01*
X17579587Y-12154960D02*
X17570063Y-12145436D01*
X17570063Y-12145436D02*
X17560539Y-12126388D01*
X17560539Y-12126388D02*
X17560539Y-12069246D01*
X17560539Y-12069246D02*
X17570063Y-12050198D01*
X17570063Y-12050198D02*
X17579587Y-12040674D01*
X17579587Y-12040674D02*
X17598634Y-12031150D01*
X17598634Y-12031150D02*
X17627206Y-12031150D01*
X17627206Y-12031150D02*
X17646253Y-12040674D01*
X17646253Y-12040674D02*
X17655777Y-12050198D01*
X17655777Y-12050198D02*
X17665301Y-12069246D01*
X17665301Y-12069246D02*
X17665301Y-12126388D01*
X17665301Y-12126388D02*
X17655777Y-12145436D01*
X17655777Y-12145436D02*
X17646253Y-12154960D01*
X17646253Y-12154960D02*
X17627206Y-12164484D01*
X17627206Y-12164484D02*
X17598634Y-12164484D01*
X17779587Y-12164484D02*
X17760539Y-12154960D01*
X17760539Y-12154960D02*
X17751015Y-12135912D01*
X17751015Y-12135912D02*
X17751015Y-11964484D01*
X17931968Y-12154960D02*
X17912920Y-12164484D01*
X17912920Y-12164484D02*
X17874825Y-12164484D01*
X17874825Y-12164484D02*
X17855777Y-12154960D01*
X17855777Y-12154960D02*
X17846253Y-12135912D01*
X17846253Y-12135912D02*
X17846253Y-12059722D01*
X17846253Y-12059722D02*
X17855777Y-12040674D01*
X17855777Y-12040674D02*
X17874825Y-12031150D01*
X17874825Y-12031150D02*
X17912920Y-12031150D01*
X17912920Y-12031150D02*
X17931968Y-12040674D01*
X17931968Y-12040674D02*
X17941492Y-12059722D01*
X17941492Y-12059722D02*
X17941492Y-12078769D01*
X17941492Y-12078769D02*
X17846253Y-12097817D01*
X18017682Y-12154960D02*
X18036730Y-12164484D01*
X18036730Y-12164484D02*
X18074825Y-12164484D01*
X18074825Y-12164484D02*
X18093873Y-12154960D01*
X18093873Y-12154960D02*
X18103396Y-12135912D01*
X18103396Y-12135912D02*
X18103396Y-12126388D01*
X18103396Y-12126388D02*
X18093873Y-12107341D01*
X18093873Y-12107341D02*
X18074825Y-12097817D01*
X18074825Y-12097817D02*
X18046253Y-12097817D01*
X18046253Y-12097817D02*
X18027206Y-12088293D01*
X18027206Y-12088293D02*
X18017682Y-12069246D01*
X18017682Y-12069246D02*
X18017682Y-12059722D01*
X18017682Y-12059722D02*
X18027206Y-12040674D01*
X18027206Y-12040674D02*
X18046253Y-12031150D01*
X18046253Y-12031150D02*
X18074825Y-12031150D01*
X18074825Y-12031150D02*
X18093873Y-12040674D01*
X18341492Y-12088293D02*
X18493873Y-12088293D01*
X18417682Y-12164484D02*
X18417682Y-12012103D01*
X18827206Y-12031150D02*
X18827206Y-12164484D01*
X18779587Y-11954960D02*
X18731968Y-12097817D01*
X18731968Y-12097817D02*
X18855777Y-12097817D01*
X19074825Y-12154960D02*
X19093873Y-12164484D01*
X19093873Y-12164484D02*
X19131968Y-12164484D01*
X19131968Y-12164484D02*
X19151016Y-12154960D01*
X19151016Y-12154960D02*
X19160539Y-12135912D01*
X19160539Y-12135912D02*
X19160539Y-12126388D01*
X19160539Y-12126388D02*
X19151016Y-12107341D01*
X19151016Y-12107341D02*
X19131968Y-12097817D01*
X19131968Y-12097817D02*
X19103396Y-12097817D01*
X19103396Y-12097817D02*
X19084349Y-12088293D01*
X19084349Y-12088293D02*
X19074825Y-12069246D01*
X19074825Y-12069246D02*
X19074825Y-12059722D01*
X19074825Y-12059722D02*
X19084349Y-12040674D01*
X19084349Y-12040674D02*
X19103396Y-12031150D01*
X19103396Y-12031150D02*
X19131968Y-12031150D01*
X19131968Y-12031150D02*
X19151016Y-12040674D01*
X19274825Y-12164484D02*
X19255777Y-12154960D01*
X19255777Y-12154960D02*
X19246254Y-12135912D01*
X19246254Y-12135912D02*
X19246254Y-11964484D01*
X19379587Y-12164484D02*
X19360539Y-12154960D01*
X19360539Y-12154960D02*
X19351016Y-12145436D01*
X19351016Y-12145436D02*
X19341492Y-12126388D01*
X19341492Y-12126388D02*
X19341492Y-12069246D01*
X19341492Y-12069246D02*
X19351016Y-12050198D01*
X19351016Y-12050198D02*
X19360539Y-12040674D01*
X19360539Y-12040674D02*
X19379587Y-12031150D01*
X19379587Y-12031150D02*
X19408158Y-12031150D01*
X19408158Y-12031150D02*
X19427206Y-12040674D01*
X19427206Y-12040674D02*
X19436730Y-12050198D01*
X19436730Y-12050198D02*
X19446254Y-12069246D01*
X19446254Y-12069246D02*
X19446254Y-12126388D01*
X19446254Y-12126388D02*
X19436730Y-12145436D01*
X19436730Y-12145436D02*
X19427206Y-12154960D01*
X19427206Y-12154960D02*
X19408158Y-12164484D01*
X19408158Y-12164484D02*
X19379587Y-12164484D01*
X19503397Y-12031150D02*
X19579587Y-12031150D01*
X19531968Y-11964484D02*
X19531968Y-12135912D01*
X19531968Y-12135912D02*
X19541492Y-12154960D01*
X19541492Y-12154960D02*
X19560539Y-12164484D01*
X19560539Y-12164484D02*
X19579587Y-12164484D01*
X19636730Y-12154960D02*
X19655777Y-12164484D01*
X19655777Y-12164484D02*
X19693873Y-12164484D01*
X19693873Y-12164484D02*
X19712920Y-12154960D01*
X19712920Y-12154960D02*
X19722444Y-12135912D01*
X19722444Y-12135912D02*
X19722444Y-12126388D01*
X19722444Y-12126388D02*
X19712920Y-12107341D01*
X19712920Y-12107341D02*
X19693873Y-12097817D01*
X19693873Y-12097817D02*
X19665301Y-12097817D01*
X19665301Y-12097817D02*
X19646254Y-12088293D01*
X19646254Y-12088293D02*
X19636730Y-12069246D01*
X19636730Y-12069246D02*
X19636730Y-12059722D01*
X19636730Y-12059722D02*
X19646254Y-12040674D01*
X19646254Y-12040674D02*
X19665301Y-12031150D01*
X19665301Y-12031150D02*
X19693873Y-12031150D01*
X19693873Y-12031150D02*
X19712920Y-12040674D01*
X19789111Y-12240674D02*
X19798635Y-12231150D01*
X19798635Y-12231150D02*
X19817682Y-12202579D01*
X19817682Y-12202579D02*
X19827206Y-12183531D01*
X19827206Y-12183531D02*
X19836730Y-12154960D01*
X19836730Y-12154960D02*
X19846254Y-12107341D01*
X19846254Y-12107341D02*
X19846254Y-12069246D01*
X19846254Y-12069246D02*
X19836730Y-12021627D01*
X19836730Y-12021627D02*
X19827206Y-11993055D01*
X19827206Y-11993055D02*
X19817682Y-11974008D01*
X19817682Y-11974008D02*
X19798635Y-11945436D01*
X19798635Y-11945436D02*
X19789111Y-11935912D01*
X13365711Y-12407711D02*
X13365711Y-12266289D01*
X13224289Y-12266289D01*
X13224289Y-12407711D01*
X13365711Y-12407711D01*
X13646253Y-12247531D02*
X13655777Y-12238008D01*
X13655777Y-12238008D02*
X13674824Y-12228484D01*
X13674824Y-12228484D02*
X13722443Y-12228484D01*
X13722443Y-12228484D02*
X13741491Y-12238008D01*
X13741491Y-12238008D02*
X13751015Y-12247531D01*
X13751015Y-12247531D02*
X13760539Y-12266579D01*
X13760539Y-12266579D02*
X13760539Y-12285627D01*
X13760539Y-12285627D02*
X13751015Y-12314198D01*
X13751015Y-12314198D02*
X13636729Y-12428484D01*
X13636729Y-12428484D02*
X13760539Y-12428484D01*
X13846253Y-12409436D02*
X13855777Y-12418960D01*
X13855777Y-12418960D02*
X13846253Y-12428484D01*
X13846253Y-12428484D02*
X13836729Y-12418960D01*
X13836729Y-12418960D02*
X13846253Y-12409436D01*
X13846253Y-12409436D02*
X13846253Y-12428484D01*
X13931967Y-12247531D02*
X13941491Y-12238008D01*
X13941491Y-12238008D02*
X13960539Y-12228484D01*
X13960539Y-12228484D02*
X14008158Y-12228484D01*
X14008158Y-12228484D02*
X14027205Y-12238008D01*
X14027205Y-12238008D02*
X14036729Y-12247531D01*
X14036729Y-12247531D02*
X14046253Y-12266579D01*
X14046253Y-12266579D02*
X14046253Y-12285627D01*
X14046253Y-12285627D02*
X14036729Y-12314198D01*
X14036729Y-12314198D02*
X13922443Y-12428484D01*
X13922443Y-12428484D02*
X14046253Y-12428484D01*
X14217682Y-12228484D02*
X14179586Y-12228484D01*
X14179586Y-12228484D02*
X14160539Y-12238008D01*
X14160539Y-12238008D02*
X14151015Y-12247531D01*
X14151015Y-12247531D02*
X14131967Y-12276103D01*
X14131967Y-12276103D02*
X14122443Y-12314198D01*
X14122443Y-12314198D02*
X14122443Y-12390388D01*
X14122443Y-12390388D02*
X14131967Y-12409436D01*
X14131967Y-12409436D02*
X14141491Y-12418960D01*
X14141491Y-12418960D02*
X14160539Y-12428484D01*
X14160539Y-12428484D02*
X14198634Y-12428484D01*
X14198634Y-12428484D02*
X14217682Y-12418960D01*
X14217682Y-12418960D02*
X14227205Y-12409436D01*
X14227205Y-12409436D02*
X14236729Y-12390388D01*
X14236729Y-12390388D02*
X14236729Y-12342769D01*
X14236729Y-12342769D02*
X14227205Y-12323722D01*
X14227205Y-12323722D02*
X14217682Y-12314198D01*
X14217682Y-12314198D02*
X14198634Y-12304674D01*
X14198634Y-12304674D02*
X14160539Y-12304674D01*
X14160539Y-12304674D02*
X14141491Y-12314198D01*
X14141491Y-12314198D02*
X14131967Y-12323722D01*
X14131967Y-12323722D02*
X14122443Y-12342769D01*
X14360539Y-12228484D02*
X14379586Y-12228484D01*
X14379586Y-12228484D02*
X14398634Y-12238008D01*
X14398634Y-12238008D02*
X14408158Y-12247531D01*
X14408158Y-12247531D02*
X14417682Y-12266579D01*
X14417682Y-12266579D02*
X14427205Y-12304674D01*
X14427205Y-12304674D02*
X14427205Y-12352293D01*
X14427205Y-12352293D02*
X14417682Y-12390388D01*
X14417682Y-12390388D02*
X14408158Y-12409436D01*
X14408158Y-12409436D02*
X14398634Y-12418960D01*
X14398634Y-12418960D02*
X14379586Y-12428484D01*
X14379586Y-12428484D02*
X14360539Y-12428484D01*
X14360539Y-12428484D02*
X14341491Y-12418960D01*
X14341491Y-12418960D02*
X14331967Y-12409436D01*
X14331967Y-12409436D02*
X14322443Y-12390388D01*
X14322443Y-12390388D02*
X14312920Y-12352293D01*
X14312920Y-12352293D02*
X14312920Y-12304674D01*
X14312920Y-12304674D02*
X14322443Y-12266579D01*
X14322443Y-12266579D02*
X14331967Y-12247531D01*
X14331967Y-12247531D02*
X14341491Y-12238008D01*
X14341491Y-12238008D02*
X14360539Y-12228484D01*
X14512920Y-12428484D02*
X14512920Y-12295150D01*
X14512920Y-12314198D02*
X14522443Y-12304674D01*
X14522443Y-12304674D02*
X14541491Y-12295150D01*
X14541491Y-12295150D02*
X14570063Y-12295150D01*
X14570063Y-12295150D02*
X14589110Y-12304674D01*
X14589110Y-12304674D02*
X14598634Y-12323722D01*
X14598634Y-12323722D02*
X14598634Y-12428484D01*
X14598634Y-12323722D02*
X14608158Y-12304674D01*
X14608158Y-12304674D02*
X14627205Y-12295150D01*
X14627205Y-12295150D02*
X14655777Y-12295150D01*
X14655777Y-12295150D02*
X14674824Y-12304674D01*
X14674824Y-12304674D02*
X14684348Y-12323722D01*
X14684348Y-12323722D02*
X14684348Y-12428484D01*
X14779586Y-12428484D02*
X14779586Y-12295150D01*
X14779586Y-12314198D02*
X14789110Y-12304674D01*
X14789110Y-12304674D02*
X14808158Y-12295150D01*
X14808158Y-12295150D02*
X14836729Y-12295150D01*
X14836729Y-12295150D02*
X14855777Y-12304674D01*
X14855777Y-12304674D02*
X14865301Y-12323722D01*
X14865301Y-12323722D02*
X14865301Y-12428484D01*
X14865301Y-12323722D02*
X14874824Y-12304674D01*
X14874824Y-12304674D02*
X14893872Y-12295150D01*
X14893872Y-12295150D02*
X14922443Y-12295150D01*
X14922443Y-12295150D02*
X14941491Y-12304674D01*
X14941491Y-12304674D02*
X14951015Y-12323722D01*
X14951015Y-12323722D02*
X14951015Y-12428484D01*
X15341491Y-12218960D02*
X15170063Y-12476103D01*
X15598634Y-12228484D02*
X15617682Y-12228484D01*
X15617682Y-12228484D02*
X15636729Y-12238008D01*
X15636729Y-12238008D02*
X15646253Y-12247531D01*
X15646253Y-12247531D02*
X15655777Y-12266579D01*
X15655777Y-12266579D02*
X15665301Y-12304674D01*
X15665301Y-12304674D02*
X15665301Y-12352293D01*
X15665301Y-12352293D02*
X15655777Y-12390388D01*
X15655777Y-12390388D02*
X15646253Y-12409436D01*
X15646253Y-12409436D02*
X15636729Y-12418960D01*
X15636729Y-12418960D02*
X15617682Y-12428484D01*
X15617682Y-12428484D02*
X15598634Y-12428484D01*
X15598634Y-12428484D02*
X15579586Y-12418960D01*
X15579586Y-12418960D02*
X15570063Y-12409436D01*
X15570063Y-12409436D02*
X15560539Y-12390388D01*
X15560539Y-12390388D02*
X15551015Y-12352293D01*
X15551015Y-12352293D02*
X15551015Y-12304674D01*
X15551015Y-12304674D02*
X15560539Y-12266579D01*
X15560539Y-12266579D02*
X15570063Y-12247531D01*
X15570063Y-12247531D02*
X15579586Y-12238008D01*
X15579586Y-12238008D02*
X15598634Y-12228484D01*
X15751015Y-12409436D02*
X15760539Y-12418960D01*
X15760539Y-12418960D02*
X15751015Y-12428484D01*
X15751015Y-12428484D02*
X15741491Y-12418960D01*
X15741491Y-12418960D02*
X15751015Y-12409436D01*
X15751015Y-12409436D02*
X15751015Y-12428484D01*
X15884348Y-12228484D02*
X15903396Y-12228484D01*
X15903396Y-12228484D02*
X15922444Y-12238008D01*
X15922444Y-12238008D02*
X15931967Y-12247531D01*
X15931967Y-12247531D02*
X15941491Y-12266579D01*
X15941491Y-12266579D02*
X15951015Y-12304674D01*
X15951015Y-12304674D02*
X15951015Y-12352293D01*
X15951015Y-12352293D02*
X15941491Y-12390388D01*
X15941491Y-12390388D02*
X15931967Y-12409436D01*
X15931967Y-12409436D02*
X15922444Y-12418960D01*
X15922444Y-12418960D02*
X15903396Y-12428484D01*
X15903396Y-12428484D02*
X15884348Y-12428484D01*
X15884348Y-12428484D02*
X15865301Y-12418960D01*
X15865301Y-12418960D02*
X15855777Y-12409436D01*
X15855777Y-12409436D02*
X15846253Y-12390388D01*
X15846253Y-12390388D02*
X15836729Y-12352293D01*
X15836729Y-12352293D02*
X15836729Y-12304674D01*
X15836729Y-12304674D02*
X15846253Y-12266579D01*
X15846253Y-12266579D02*
X15855777Y-12247531D01*
X15855777Y-12247531D02*
X15865301Y-12238008D01*
X15865301Y-12238008D02*
X15884348Y-12228484D01*
X16065301Y-12314198D02*
X16046253Y-12304674D01*
X16046253Y-12304674D02*
X16036729Y-12295150D01*
X16036729Y-12295150D02*
X16027206Y-12276103D01*
X16027206Y-12276103D02*
X16027206Y-12266579D01*
X16027206Y-12266579D02*
X16036729Y-12247531D01*
X16036729Y-12247531D02*
X16046253Y-12238008D01*
X16046253Y-12238008D02*
X16065301Y-12228484D01*
X16065301Y-12228484D02*
X16103396Y-12228484D01*
X16103396Y-12228484D02*
X16122444Y-12238008D01*
X16122444Y-12238008D02*
X16131967Y-12247531D01*
X16131967Y-12247531D02*
X16141491Y-12266579D01*
X16141491Y-12266579D02*
X16141491Y-12276103D01*
X16141491Y-12276103D02*
X16131967Y-12295150D01*
X16131967Y-12295150D02*
X16122444Y-12304674D01*
X16122444Y-12304674D02*
X16103396Y-12314198D01*
X16103396Y-12314198D02*
X16065301Y-12314198D01*
X16065301Y-12314198D02*
X16046253Y-12323722D01*
X16046253Y-12323722D02*
X16036729Y-12333246D01*
X16036729Y-12333246D02*
X16027206Y-12352293D01*
X16027206Y-12352293D02*
X16027206Y-12390388D01*
X16027206Y-12390388D02*
X16036729Y-12409436D01*
X16036729Y-12409436D02*
X16046253Y-12418960D01*
X16046253Y-12418960D02*
X16065301Y-12428484D01*
X16065301Y-12428484D02*
X16103396Y-12428484D01*
X16103396Y-12428484D02*
X16122444Y-12418960D01*
X16122444Y-12418960D02*
X16131967Y-12409436D01*
X16131967Y-12409436D02*
X16141491Y-12390388D01*
X16141491Y-12390388D02*
X16141491Y-12352293D01*
X16141491Y-12352293D02*
X16131967Y-12333246D01*
X16131967Y-12333246D02*
X16122444Y-12323722D01*
X16122444Y-12323722D02*
X16103396Y-12314198D01*
X16236729Y-12428484D02*
X16274825Y-12428484D01*
X16274825Y-12428484D02*
X16293872Y-12418960D01*
X16293872Y-12418960D02*
X16303396Y-12409436D01*
X16303396Y-12409436D02*
X16322444Y-12380865D01*
X16322444Y-12380865D02*
X16331967Y-12342769D01*
X16331967Y-12342769D02*
X16331967Y-12266579D01*
X16331967Y-12266579D02*
X16322444Y-12247531D01*
X16322444Y-12247531D02*
X16312920Y-12238008D01*
X16312920Y-12238008D02*
X16293872Y-12228484D01*
X16293872Y-12228484D02*
X16255777Y-12228484D01*
X16255777Y-12228484D02*
X16236729Y-12238008D01*
X16236729Y-12238008D02*
X16227206Y-12247531D01*
X16227206Y-12247531D02*
X16217682Y-12266579D01*
X16217682Y-12266579D02*
X16217682Y-12314198D01*
X16217682Y-12314198D02*
X16227206Y-12333246D01*
X16227206Y-12333246D02*
X16236729Y-12342769D01*
X16236729Y-12342769D02*
X16255777Y-12352293D01*
X16255777Y-12352293D02*
X16293872Y-12352293D01*
X16293872Y-12352293D02*
X16312920Y-12342769D01*
X16312920Y-12342769D02*
X16322444Y-12333246D01*
X16322444Y-12333246D02*
X16331967Y-12314198D01*
X16455777Y-12228484D02*
X16474825Y-12228484D01*
X16474825Y-12228484D02*
X16493872Y-12238008D01*
X16493872Y-12238008D02*
X16503396Y-12247531D01*
X16503396Y-12247531D02*
X16512920Y-12266579D01*
X16512920Y-12266579D02*
X16522444Y-12304674D01*
X16522444Y-12304674D02*
X16522444Y-12352293D01*
X16522444Y-12352293D02*
X16512920Y-12390388D01*
X16512920Y-12390388D02*
X16503396Y-12409436D01*
X16503396Y-12409436D02*
X16493872Y-12418960D01*
X16493872Y-12418960D02*
X16474825Y-12428484D01*
X16474825Y-12428484D02*
X16455777Y-12428484D01*
X16455777Y-12428484D02*
X16436729Y-12418960D01*
X16436729Y-12418960D02*
X16427206Y-12409436D01*
X16427206Y-12409436D02*
X16417682Y-12390388D01*
X16417682Y-12390388D02*
X16408158Y-12352293D01*
X16408158Y-12352293D02*
X16408158Y-12304674D01*
X16408158Y-12304674D02*
X16417682Y-12266579D01*
X16417682Y-12266579D02*
X16427206Y-12247531D01*
X16427206Y-12247531D02*
X16436729Y-12238008D01*
X16436729Y-12238008D02*
X16455777Y-12228484D01*
X16598634Y-12228484D02*
X16598634Y-12266579D01*
X16674825Y-12228484D02*
X16674825Y-12266579D01*
X16970063Y-12504674D02*
X16960539Y-12495150D01*
X16960539Y-12495150D02*
X16941491Y-12466579D01*
X16941491Y-12466579D02*
X16931968Y-12447531D01*
X16931968Y-12447531D02*
X16922444Y-12418960D01*
X16922444Y-12418960D02*
X16912920Y-12371341D01*
X16912920Y-12371341D02*
X16912920Y-12333246D01*
X16912920Y-12333246D02*
X16922444Y-12285627D01*
X16922444Y-12285627D02*
X16931968Y-12257055D01*
X16931968Y-12257055D02*
X16941491Y-12238008D01*
X16941491Y-12238008D02*
X16960539Y-12209436D01*
X16960539Y-12209436D02*
X16970063Y-12199912D01*
X17131968Y-12295150D02*
X17131968Y-12428484D01*
X17084349Y-12218960D02*
X17036730Y-12361817D01*
X17036730Y-12361817D02*
X17160539Y-12361817D01*
X17389111Y-12428484D02*
X17389111Y-12228484D01*
X17474825Y-12428484D02*
X17474825Y-12323722D01*
X17474825Y-12323722D02*
X17465301Y-12304674D01*
X17465301Y-12304674D02*
X17446253Y-12295150D01*
X17446253Y-12295150D02*
X17417682Y-12295150D01*
X17417682Y-12295150D02*
X17398634Y-12304674D01*
X17398634Y-12304674D02*
X17389111Y-12314198D01*
X17598634Y-12428484D02*
X17579587Y-12418960D01*
X17579587Y-12418960D02*
X17570063Y-12409436D01*
X17570063Y-12409436D02*
X17560539Y-12390388D01*
X17560539Y-12390388D02*
X17560539Y-12333246D01*
X17560539Y-12333246D02*
X17570063Y-12314198D01*
X17570063Y-12314198D02*
X17579587Y-12304674D01*
X17579587Y-12304674D02*
X17598634Y-12295150D01*
X17598634Y-12295150D02*
X17627206Y-12295150D01*
X17627206Y-12295150D02*
X17646253Y-12304674D01*
X17646253Y-12304674D02*
X17655777Y-12314198D01*
X17655777Y-12314198D02*
X17665301Y-12333246D01*
X17665301Y-12333246D02*
X17665301Y-12390388D01*
X17665301Y-12390388D02*
X17655777Y-12409436D01*
X17655777Y-12409436D02*
X17646253Y-12418960D01*
X17646253Y-12418960D02*
X17627206Y-12428484D01*
X17627206Y-12428484D02*
X17598634Y-12428484D01*
X17779587Y-12428484D02*
X17760539Y-12418960D01*
X17760539Y-12418960D02*
X17751015Y-12399912D01*
X17751015Y-12399912D02*
X17751015Y-12228484D01*
X17931968Y-12418960D02*
X17912920Y-12428484D01*
X17912920Y-12428484D02*
X17874825Y-12428484D01*
X17874825Y-12428484D02*
X17855777Y-12418960D01*
X17855777Y-12418960D02*
X17846253Y-12399912D01*
X17846253Y-12399912D02*
X17846253Y-12323722D01*
X17846253Y-12323722D02*
X17855777Y-12304674D01*
X17855777Y-12304674D02*
X17874825Y-12295150D01*
X17874825Y-12295150D02*
X17912920Y-12295150D01*
X17912920Y-12295150D02*
X17931968Y-12304674D01*
X17931968Y-12304674D02*
X17941492Y-12323722D01*
X17941492Y-12323722D02*
X17941492Y-12342769D01*
X17941492Y-12342769D02*
X17846253Y-12361817D01*
X18017682Y-12418960D02*
X18036730Y-12428484D01*
X18036730Y-12428484D02*
X18074825Y-12428484D01*
X18074825Y-12428484D02*
X18093873Y-12418960D01*
X18093873Y-12418960D02*
X18103396Y-12399912D01*
X18103396Y-12399912D02*
X18103396Y-12390388D01*
X18103396Y-12390388D02*
X18093873Y-12371341D01*
X18093873Y-12371341D02*
X18074825Y-12361817D01*
X18074825Y-12361817D02*
X18046253Y-12361817D01*
X18046253Y-12361817D02*
X18027206Y-12352293D01*
X18027206Y-12352293D02*
X18017682Y-12333246D01*
X18017682Y-12333246D02*
X18017682Y-12323722D01*
X18017682Y-12323722D02*
X18027206Y-12304674D01*
X18027206Y-12304674D02*
X18046253Y-12295150D01*
X18046253Y-12295150D02*
X18074825Y-12295150D01*
X18074825Y-12295150D02*
X18093873Y-12304674D01*
X18170063Y-12504674D02*
X18179587Y-12495150D01*
X18179587Y-12495150D02*
X18198634Y-12466579D01*
X18198634Y-12466579D02*
X18208158Y-12447531D01*
X18208158Y-12447531D02*
X18217682Y-12418960D01*
X18217682Y-12418960D02*
X18227206Y-12371341D01*
X18227206Y-12371341D02*
X18227206Y-12333246D01*
X18227206Y-12333246D02*
X18217682Y-12285627D01*
X18217682Y-12285627D02*
X18208158Y-12257055D01*
X18208158Y-12257055D02*
X18198634Y-12238008D01*
X18198634Y-12238008D02*
X18179587Y-12209436D01*
X18179587Y-12209436D02*
X18170063Y-12199912D01*
M02*
