%TF.GenerationSoftware,KiCad,Pcbnew,7.0.10*%
%TF.CreationDate,2024-02-15T14:25:30-05:00*%
%TF.ProjectId,wingbeat_detector,77696e67-6265-4617-945f-646574656374,4.0*%
%TF.SameCoordinates,Original*%
%TF.FileFunction,AssemblyDrawing,Bot*%
%FSLAX46Y46*%
G04 Gerber Fmt 4.6, Leading zero omitted, Abs format (unit mm)*
G04 Created by KiCad (PCBNEW 7.0.10) date 2024-02-15 14:25:30*
%MOMM*%
%LPD*%
G01*
G04 APERTURE LIST*
%ADD10C,0.100000*%
%ADD11C,0.125000*%
%ADD12C,0.040000*%
%ADD13C,0.060000*%
%ADD14C,0.200000*%
%ADD15C,0.300000*%
%ADD16C,0.127000*%
%TA.AperFunction,Profile*%
%ADD17C,0.100000*%
%TD*%
G04 APERTURE END LIST*
D10*
X136000000Y-91000000D02*
X164000000Y-91000000D01*
X136000000Y-91000000D02*
G75*
G03*
X134000000Y-93000000I0J-2000000D01*
G01*
X134000000Y-93000000D02*
X134000000Y-107000000D01*
X164000000Y-109000000D02*
G75*
G03*
X166000000Y-107000000I0J2000000D01*
G01*
X136000000Y-109000000D02*
X164000000Y-109000000D01*
X134000000Y-107000000D02*
G75*
G03*
X136000000Y-109000000I2000000J0D01*
G01*
X166000000Y-107000000D02*
X166000000Y-93000000D01*
X166000000Y-93000000D02*
G75*
G03*
X164000000Y-91000000I-2000000J0D01*
G01*
D11*
X144224809Y-92178572D02*
X144224809Y-92226191D01*
X144224809Y-92226191D02*
X144248619Y-92273810D01*
X144248619Y-92273810D02*
X144272428Y-92297620D01*
X144272428Y-92297620D02*
X144320047Y-92321429D01*
X144320047Y-92321429D02*
X144415285Y-92345239D01*
X144415285Y-92345239D02*
X144534333Y-92345239D01*
X144534333Y-92345239D02*
X144629571Y-92321429D01*
X144629571Y-92321429D02*
X144677190Y-92297620D01*
X144677190Y-92297620D02*
X144701000Y-92273810D01*
X144701000Y-92273810D02*
X144724809Y-92226191D01*
X144724809Y-92226191D02*
X144724809Y-92178572D01*
X144724809Y-92178572D02*
X144701000Y-92130953D01*
X144701000Y-92130953D02*
X144677190Y-92107144D01*
X144677190Y-92107144D02*
X144629571Y-92083334D01*
X144629571Y-92083334D02*
X144534333Y-92059525D01*
X144534333Y-92059525D02*
X144415285Y-92059525D01*
X144415285Y-92059525D02*
X144320047Y-92083334D01*
X144320047Y-92083334D02*
X144272428Y-92107144D01*
X144272428Y-92107144D02*
X144248619Y-92130953D01*
X144248619Y-92130953D02*
X144224809Y-92178572D01*
X144677190Y-92559524D02*
X144701000Y-92583334D01*
X144701000Y-92583334D02*
X144724809Y-92559524D01*
X144724809Y-92559524D02*
X144701000Y-92535715D01*
X144701000Y-92535715D02*
X144677190Y-92559524D01*
X144677190Y-92559524D02*
X144724809Y-92559524D01*
X144724809Y-93059524D02*
X144724809Y-92773810D01*
X144724809Y-92916667D02*
X144224809Y-92916667D01*
X144224809Y-92916667D02*
X144296238Y-92869048D01*
X144296238Y-92869048D02*
X144343857Y-92821429D01*
X144343857Y-92821429D02*
X144367666Y-92773810D01*
X144391476Y-93488095D02*
X144724809Y-93488095D01*
X144391476Y-93273809D02*
X144653380Y-93273809D01*
X144653380Y-93273809D02*
X144701000Y-93297619D01*
X144701000Y-93297619D02*
X144724809Y-93345238D01*
X144724809Y-93345238D02*
X144724809Y-93416666D01*
X144724809Y-93416666D02*
X144701000Y-93464285D01*
X144701000Y-93464285D02*
X144677190Y-93488095D01*
X144462904Y-93892857D02*
X144462904Y-93726190D01*
X144724809Y-93726190D02*
X144224809Y-93726190D01*
X144224809Y-93726190D02*
X144224809Y-93964285D01*
D12*
X145339765Y-92958333D02*
X145351670Y-92946429D01*
X145351670Y-92946429D02*
X145363574Y-92910714D01*
X145363574Y-92910714D02*
X145363574Y-92886905D01*
X145363574Y-92886905D02*
X145351670Y-92851191D01*
X145351670Y-92851191D02*
X145327860Y-92827381D01*
X145327860Y-92827381D02*
X145304050Y-92815476D01*
X145304050Y-92815476D02*
X145256431Y-92803572D01*
X145256431Y-92803572D02*
X145220717Y-92803572D01*
X145220717Y-92803572D02*
X145173098Y-92815476D01*
X145173098Y-92815476D02*
X145149289Y-92827381D01*
X145149289Y-92827381D02*
X145125479Y-92851191D01*
X145125479Y-92851191D02*
X145113574Y-92886905D01*
X145113574Y-92886905D02*
X145113574Y-92910714D01*
X145113574Y-92910714D02*
X145125479Y-92946429D01*
X145125479Y-92946429D02*
X145137384Y-92958333D01*
X145113574Y-93041667D02*
X145113574Y-93208333D01*
X145113574Y-93208333D02*
X145363574Y-93101191D01*
D11*
X147391476Y-92297620D02*
X147724809Y-92297620D01*
X147201000Y-92178572D02*
X147558142Y-92059525D01*
X147558142Y-92059525D02*
X147558142Y-92369048D01*
X147724809Y-92583334D02*
X147724809Y-92678572D01*
X147724809Y-92678572D02*
X147701000Y-92726191D01*
X147701000Y-92726191D02*
X147677190Y-92750000D01*
X147677190Y-92750000D02*
X147605761Y-92797619D01*
X147605761Y-92797619D02*
X147510523Y-92821429D01*
X147510523Y-92821429D02*
X147320047Y-92821429D01*
X147320047Y-92821429D02*
X147272428Y-92797619D01*
X147272428Y-92797619D02*
X147248619Y-92773810D01*
X147248619Y-92773810D02*
X147224809Y-92726191D01*
X147224809Y-92726191D02*
X147224809Y-92630953D01*
X147224809Y-92630953D02*
X147248619Y-92583334D01*
X147248619Y-92583334D02*
X147272428Y-92559524D01*
X147272428Y-92559524D02*
X147320047Y-92535715D01*
X147320047Y-92535715D02*
X147439095Y-92535715D01*
X147439095Y-92535715D02*
X147486714Y-92559524D01*
X147486714Y-92559524D02*
X147510523Y-92583334D01*
X147510523Y-92583334D02*
X147534333Y-92630953D01*
X147534333Y-92630953D02*
X147534333Y-92726191D01*
X147534333Y-92726191D02*
X147510523Y-92773810D01*
X147510523Y-92773810D02*
X147486714Y-92797619D01*
X147486714Y-92797619D02*
X147439095Y-92821429D01*
X147677190Y-93035714D02*
X147701000Y-93059524D01*
X147701000Y-93059524D02*
X147724809Y-93035714D01*
X147724809Y-93035714D02*
X147701000Y-93011905D01*
X147701000Y-93011905D02*
X147677190Y-93035714D01*
X147677190Y-93035714D02*
X147724809Y-93035714D01*
X147724809Y-93297619D02*
X147724809Y-93392857D01*
X147724809Y-93392857D02*
X147701000Y-93440476D01*
X147701000Y-93440476D02*
X147677190Y-93464285D01*
X147677190Y-93464285D02*
X147605761Y-93511904D01*
X147605761Y-93511904D02*
X147510523Y-93535714D01*
X147510523Y-93535714D02*
X147320047Y-93535714D01*
X147320047Y-93535714D02*
X147272428Y-93511904D01*
X147272428Y-93511904D02*
X147248619Y-93488095D01*
X147248619Y-93488095D02*
X147224809Y-93440476D01*
X147224809Y-93440476D02*
X147224809Y-93345238D01*
X147224809Y-93345238D02*
X147248619Y-93297619D01*
X147248619Y-93297619D02*
X147272428Y-93273809D01*
X147272428Y-93273809D02*
X147320047Y-93250000D01*
X147320047Y-93250000D02*
X147439095Y-93250000D01*
X147439095Y-93250000D02*
X147486714Y-93273809D01*
X147486714Y-93273809D02*
X147510523Y-93297619D01*
X147510523Y-93297619D02*
X147534333Y-93345238D01*
X147534333Y-93345238D02*
X147534333Y-93440476D01*
X147534333Y-93440476D02*
X147510523Y-93488095D01*
X147510523Y-93488095D02*
X147486714Y-93511904D01*
X147486714Y-93511904D02*
X147439095Y-93535714D01*
X147724809Y-93749999D02*
X147224809Y-93749999D01*
X147534333Y-93797618D02*
X147724809Y-93940475D01*
X147391476Y-93940475D02*
X147581952Y-93749999D01*
D12*
X148368200Y-92956667D02*
X148244391Y-92870000D01*
X148368200Y-92808095D02*
X148108200Y-92808095D01*
X148108200Y-92808095D02*
X148108200Y-92907143D01*
X148108200Y-92907143D02*
X148120581Y-92931905D01*
X148120581Y-92931905D02*
X148132962Y-92944286D01*
X148132962Y-92944286D02*
X148157724Y-92956667D01*
X148157724Y-92956667D02*
X148194867Y-92956667D01*
X148194867Y-92956667D02*
X148219629Y-92944286D01*
X148219629Y-92944286D02*
X148232010Y-92931905D01*
X148232010Y-92931905D02*
X148244391Y-92907143D01*
X148244391Y-92907143D02*
X148244391Y-92808095D01*
X148108200Y-93043333D02*
X148108200Y-93204286D01*
X148108200Y-93204286D02*
X148207248Y-93117619D01*
X148207248Y-93117619D02*
X148207248Y-93154762D01*
X148207248Y-93154762D02*
X148219629Y-93179524D01*
X148219629Y-93179524D02*
X148232010Y-93191905D01*
X148232010Y-93191905D02*
X148256772Y-93204286D01*
X148256772Y-93204286D02*
X148318677Y-93204286D01*
X148318677Y-93204286D02*
X148343439Y-93191905D01*
X148343439Y-93191905D02*
X148355820Y-93179524D01*
X148355820Y-93179524D02*
X148368200Y-93154762D01*
X148368200Y-93154762D02*
X148368200Y-93080476D01*
X148368200Y-93080476D02*
X148355820Y-93055714D01*
X148355820Y-93055714D02*
X148343439Y-93043333D01*
D11*
X155641476Y-94047620D02*
X155974809Y-94047620D01*
X155451000Y-93928572D02*
X155808142Y-93809525D01*
X155808142Y-93809525D02*
X155808142Y-94119048D01*
X155927190Y-94309524D02*
X155951000Y-94333334D01*
X155951000Y-94333334D02*
X155974809Y-94309524D01*
X155974809Y-94309524D02*
X155951000Y-94285715D01*
X155951000Y-94285715D02*
X155927190Y-94309524D01*
X155927190Y-94309524D02*
X155974809Y-94309524D01*
X155474809Y-94500000D02*
X155474809Y-94833333D01*
X155474809Y-94833333D02*
X155974809Y-94619048D01*
X155641476Y-95238095D02*
X155974809Y-95238095D01*
X155641476Y-95023809D02*
X155903380Y-95023809D01*
X155903380Y-95023809D02*
X155951000Y-95047619D01*
X155951000Y-95047619D02*
X155974809Y-95095238D01*
X155974809Y-95095238D02*
X155974809Y-95166666D01*
X155974809Y-95166666D02*
X155951000Y-95214285D01*
X155951000Y-95214285D02*
X155927190Y-95238095D01*
X155712904Y-95642857D02*
X155712904Y-95476190D01*
X155974809Y-95476190D02*
X155474809Y-95476190D01*
X155474809Y-95476190D02*
X155474809Y-95714285D01*
D13*
X156643832Y-94683333D02*
X156662880Y-94664285D01*
X156662880Y-94664285D02*
X156681927Y-94607143D01*
X156681927Y-94607143D02*
X156681927Y-94569047D01*
X156681927Y-94569047D02*
X156662880Y-94511904D01*
X156662880Y-94511904D02*
X156624784Y-94473809D01*
X156624784Y-94473809D02*
X156586689Y-94454762D01*
X156586689Y-94454762D02*
X156510499Y-94435714D01*
X156510499Y-94435714D02*
X156453356Y-94435714D01*
X156453356Y-94435714D02*
X156377165Y-94454762D01*
X156377165Y-94454762D02*
X156339070Y-94473809D01*
X156339070Y-94473809D02*
X156300975Y-94511904D01*
X156300975Y-94511904D02*
X156281927Y-94569047D01*
X156281927Y-94569047D02*
X156281927Y-94607143D01*
X156281927Y-94607143D02*
X156300975Y-94664285D01*
X156300975Y-94664285D02*
X156320022Y-94683333D01*
X156415260Y-95026190D02*
X156681927Y-95026190D01*
X156262880Y-94930952D02*
X156548594Y-94835714D01*
X156548594Y-94835714D02*
X156548594Y-95083333D01*
D11*
X153641476Y-104547620D02*
X153974809Y-104547620D01*
X153451000Y-104428572D02*
X153808142Y-104309525D01*
X153808142Y-104309525D02*
X153808142Y-104619048D01*
X153927190Y-104809524D02*
X153951000Y-104833334D01*
X153951000Y-104833334D02*
X153974809Y-104809524D01*
X153974809Y-104809524D02*
X153951000Y-104785715D01*
X153951000Y-104785715D02*
X153927190Y-104809524D01*
X153927190Y-104809524D02*
X153974809Y-104809524D01*
X153474809Y-105000000D02*
X153474809Y-105333333D01*
X153474809Y-105333333D02*
X153974809Y-105119048D01*
X153641476Y-105738095D02*
X153974809Y-105738095D01*
X153641476Y-105523809D02*
X153903380Y-105523809D01*
X153903380Y-105523809D02*
X153951000Y-105547619D01*
X153951000Y-105547619D02*
X153974809Y-105595238D01*
X153974809Y-105595238D02*
X153974809Y-105666666D01*
X153974809Y-105666666D02*
X153951000Y-105714285D01*
X153951000Y-105714285D02*
X153927190Y-105738095D01*
X153712904Y-106142857D02*
X153712904Y-105976190D01*
X153974809Y-105976190D02*
X153474809Y-105976190D01*
X153474809Y-105976190D02*
X153474809Y-106214285D01*
D13*
X154643832Y-105183333D02*
X154662880Y-105164285D01*
X154662880Y-105164285D02*
X154681927Y-105107143D01*
X154681927Y-105107143D02*
X154681927Y-105069047D01*
X154681927Y-105069047D02*
X154662880Y-105011904D01*
X154662880Y-105011904D02*
X154624784Y-104973809D01*
X154624784Y-104973809D02*
X154586689Y-104954762D01*
X154586689Y-104954762D02*
X154510499Y-104935714D01*
X154510499Y-104935714D02*
X154453356Y-104935714D01*
X154453356Y-104935714D02*
X154377165Y-104954762D01*
X154377165Y-104954762D02*
X154339070Y-104973809D01*
X154339070Y-104973809D02*
X154300975Y-105011904D01*
X154300975Y-105011904D02*
X154281927Y-105069047D01*
X154281927Y-105069047D02*
X154281927Y-105107143D01*
X154281927Y-105107143D02*
X154300975Y-105164285D01*
X154300975Y-105164285D02*
X154320022Y-105183333D01*
X154281927Y-105545238D02*
X154281927Y-105354762D01*
X154281927Y-105354762D02*
X154472403Y-105335714D01*
X154472403Y-105335714D02*
X154453356Y-105354762D01*
X154453356Y-105354762D02*
X154434308Y-105392857D01*
X154434308Y-105392857D02*
X154434308Y-105488095D01*
X154434308Y-105488095D02*
X154453356Y-105526190D01*
X154453356Y-105526190D02*
X154472403Y-105545238D01*
X154472403Y-105545238D02*
X154510499Y-105564285D01*
X154510499Y-105564285D02*
X154605737Y-105564285D01*
X154605737Y-105564285D02*
X154643832Y-105545238D01*
X154643832Y-105545238D02*
X154662880Y-105526190D01*
X154662880Y-105526190D02*
X154681927Y-105488095D01*
X154681927Y-105488095D02*
X154681927Y-105392857D01*
X154681927Y-105392857D02*
X154662880Y-105354762D01*
X154662880Y-105354762D02*
X154643832Y-105335714D01*
D11*
X153641476Y-94047620D02*
X153974809Y-94047620D01*
X153451000Y-93928572D02*
X153808142Y-93809525D01*
X153808142Y-93809525D02*
X153808142Y-94119048D01*
X153927190Y-94309524D02*
X153951000Y-94333334D01*
X153951000Y-94333334D02*
X153974809Y-94309524D01*
X153974809Y-94309524D02*
X153951000Y-94285715D01*
X153951000Y-94285715D02*
X153927190Y-94309524D01*
X153927190Y-94309524D02*
X153974809Y-94309524D01*
X153474809Y-94500000D02*
X153474809Y-94833333D01*
X153474809Y-94833333D02*
X153974809Y-94619048D01*
X153641476Y-95238095D02*
X153974809Y-95238095D01*
X153641476Y-95023809D02*
X153903380Y-95023809D01*
X153903380Y-95023809D02*
X153951000Y-95047619D01*
X153951000Y-95047619D02*
X153974809Y-95095238D01*
X153974809Y-95095238D02*
X153974809Y-95166666D01*
X153974809Y-95166666D02*
X153951000Y-95214285D01*
X153951000Y-95214285D02*
X153927190Y-95238095D01*
X153712904Y-95642857D02*
X153712904Y-95476190D01*
X153974809Y-95476190D02*
X153474809Y-95476190D01*
X153474809Y-95476190D02*
X153474809Y-95714285D01*
D13*
X154643832Y-94683333D02*
X154662880Y-94664285D01*
X154662880Y-94664285D02*
X154681927Y-94607143D01*
X154681927Y-94607143D02*
X154681927Y-94569047D01*
X154681927Y-94569047D02*
X154662880Y-94511904D01*
X154662880Y-94511904D02*
X154624784Y-94473809D01*
X154624784Y-94473809D02*
X154586689Y-94454762D01*
X154586689Y-94454762D02*
X154510499Y-94435714D01*
X154510499Y-94435714D02*
X154453356Y-94435714D01*
X154453356Y-94435714D02*
X154377165Y-94454762D01*
X154377165Y-94454762D02*
X154339070Y-94473809D01*
X154339070Y-94473809D02*
X154300975Y-94511904D01*
X154300975Y-94511904D02*
X154281927Y-94569047D01*
X154281927Y-94569047D02*
X154281927Y-94607143D01*
X154281927Y-94607143D02*
X154300975Y-94664285D01*
X154300975Y-94664285D02*
X154320022Y-94683333D01*
X154681927Y-95064285D02*
X154681927Y-94835714D01*
X154681927Y-94950000D02*
X154281927Y-94950000D01*
X154281927Y-94950000D02*
X154339070Y-94911904D01*
X154339070Y-94911904D02*
X154377165Y-94873809D01*
X154377165Y-94873809D02*
X154396213Y-94835714D01*
D11*
X148891476Y-92297620D02*
X149224809Y-92297620D01*
X148701000Y-92178572D02*
X149058142Y-92059525D01*
X149058142Y-92059525D02*
X149058142Y-92369048D01*
X149224809Y-92583334D02*
X149224809Y-92678572D01*
X149224809Y-92678572D02*
X149201000Y-92726191D01*
X149201000Y-92726191D02*
X149177190Y-92750000D01*
X149177190Y-92750000D02*
X149105761Y-92797619D01*
X149105761Y-92797619D02*
X149010523Y-92821429D01*
X149010523Y-92821429D02*
X148820047Y-92821429D01*
X148820047Y-92821429D02*
X148772428Y-92797619D01*
X148772428Y-92797619D02*
X148748619Y-92773810D01*
X148748619Y-92773810D02*
X148724809Y-92726191D01*
X148724809Y-92726191D02*
X148724809Y-92630953D01*
X148724809Y-92630953D02*
X148748619Y-92583334D01*
X148748619Y-92583334D02*
X148772428Y-92559524D01*
X148772428Y-92559524D02*
X148820047Y-92535715D01*
X148820047Y-92535715D02*
X148939095Y-92535715D01*
X148939095Y-92535715D02*
X148986714Y-92559524D01*
X148986714Y-92559524D02*
X149010523Y-92583334D01*
X149010523Y-92583334D02*
X149034333Y-92630953D01*
X149034333Y-92630953D02*
X149034333Y-92726191D01*
X149034333Y-92726191D02*
X149010523Y-92773810D01*
X149010523Y-92773810D02*
X148986714Y-92797619D01*
X148986714Y-92797619D02*
X148939095Y-92821429D01*
X149177190Y-93035714D02*
X149201000Y-93059524D01*
X149201000Y-93059524D02*
X149224809Y-93035714D01*
X149224809Y-93035714D02*
X149201000Y-93011905D01*
X149201000Y-93011905D02*
X149177190Y-93035714D01*
X149177190Y-93035714D02*
X149224809Y-93035714D01*
X149224809Y-93297619D02*
X149224809Y-93392857D01*
X149224809Y-93392857D02*
X149201000Y-93440476D01*
X149201000Y-93440476D02*
X149177190Y-93464285D01*
X149177190Y-93464285D02*
X149105761Y-93511904D01*
X149105761Y-93511904D02*
X149010523Y-93535714D01*
X149010523Y-93535714D02*
X148820047Y-93535714D01*
X148820047Y-93535714D02*
X148772428Y-93511904D01*
X148772428Y-93511904D02*
X148748619Y-93488095D01*
X148748619Y-93488095D02*
X148724809Y-93440476D01*
X148724809Y-93440476D02*
X148724809Y-93345238D01*
X148724809Y-93345238D02*
X148748619Y-93297619D01*
X148748619Y-93297619D02*
X148772428Y-93273809D01*
X148772428Y-93273809D02*
X148820047Y-93250000D01*
X148820047Y-93250000D02*
X148939095Y-93250000D01*
X148939095Y-93250000D02*
X148986714Y-93273809D01*
X148986714Y-93273809D02*
X149010523Y-93297619D01*
X149010523Y-93297619D02*
X149034333Y-93345238D01*
X149034333Y-93345238D02*
X149034333Y-93440476D01*
X149034333Y-93440476D02*
X149010523Y-93488095D01*
X149010523Y-93488095D02*
X148986714Y-93511904D01*
X148986714Y-93511904D02*
X148939095Y-93535714D01*
X149224809Y-93749999D02*
X148724809Y-93749999D01*
X149034333Y-93797618D02*
X149224809Y-93940475D01*
X148891476Y-93940475D02*
X149081952Y-93749999D01*
D12*
X149868200Y-92956667D02*
X149744391Y-92870000D01*
X149868200Y-92808095D02*
X149608200Y-92808095D01*
X149608200Y-92808095D02*
X149608200Y-92907143D01*
X149608200Y-92907143D02*
X149620581Y-92931905D01*
X149620581Y-92931905D02*
X149632962Y-92944286D01*
X149632962Y-92944286D02*
X149657724Y-92956667D01*
X149657724Y-92956667D02*
X149694867Y-92956667D01*
X149694867Y-92956667D02*
X149719629Y-92944286D01*
X149719629Y-92944286D02*
X149732010Y-92931905D01*
X149732010Y-92931905D02*
X149744391Y-92907143D01*
X149744391Y-92907143D02*
X149744391Y-92808095D01*
X149608200Y-93179524D02*
X149608200Y-93130000D01*
X149608200Y-93130000D02*
X149620581Y-93105238D01*
X149620581Y-93105238D02*
X149632962Y-93092857D01*
X149632962Y-93092857D02*
X149670105Y-93068095D01*
X149670105Y-93068095D02*
X149719629Y-93055714D01*
X149719629Y-93055714D02*
X149818677Y-93055714D01*
X149818677Y-93055714D02*
X149843439Y-93068095D01*
X149843439Y-93068095D02*
X149855820Y-93080476D01*
X149855820Y-93080476D02*
X149868200Y-93105238D01*
X149868200Y-93105238D02*
X149868200Y-93154762D01*
X149868200Y-93154762D02*
X149855820Y-93179524D01*
X149855820Y-93179524D02*
X149843439Y-93191905D01*
X149843439Y-93191905D02*
X149818677Y-93204286D01*
X149818677Y-93204286D02*
X149756772Y-93204286D01*
X149756772Y-93204286D02*
X149732010Y-93191905D01*
X149732010Y-93191905D02*
X149719629Y-93179524D01*
X149719629Y-93179524D02*
X149707248Y-93154762D01*
X149707248Y-93154762D02*
X149707248Y-93105238D01*
X149707248Y-93105238D02*
X149719629Y-93080476D01*
X149719629Y-93080476D02*
X149732010Y-93068095D01*
X149732010Y-93068095D02*
X149756772Y-93055714D01*
D11*
X141224809Y-98773810D02*
X141224809Y-98869048D01*
X141224809Y-98869048D02*
X141248619Y-98916667D01*
X141248619Y-98916667D02*
X141296238Y-98964286D01*
X141296238Y-98964286D02*
X141391476Y-98988096D01*
X141391476Y-98988096D02*
X141558142Y-98988096D01*
X141558142Y-98988096D02*
X141653380Y-98964286D01*
X141653380Y-98964286D02*
X141701000Y-98916667D01*
X141701000Y-98916667D02*
X141724809Y-98869048D01*
X141724809Y-98869048D02*
X141724809Y-98773810D01*
X141724809Y-98773810D02*
X141701000Y-98726191D01*
X141701000Y-98726191D02*
X141653380Y-98678572D01*
X141653380Y-98678572D02*
X141558142Y-98654763D01*
X141558142Y-98654763D02*
X141391476Y-98654763D01*
X141391476Y-98654763D02*
X141296238Y-98678572D01*
X141296238Y-98678572D02*
X141248619Y-98726191D01*
X141248619Y-98726191D02*
X141224809Y-98773810D01*
X141724809Y-99202382D02*
X141224809Y-99202382D01*
X141224809Y-99202382D02*
X141224809Y-99392858D01*
X141224809Y-99392858D02*
X141248619Y-99440477D01*
X141248619Y-99440477D02*
X141272428Y-99464287D01*
X141272428Y-99464287D02*
X141320047Y-99488096D01*
X141320047Y-99488096D02*
X141391476Y-99488096D01*
X141391476Y-99488096D02*
X141439095Y-99464287D01*
X141439095Y-99464287D02*
X141462904Y-99440477D01*
X141462904Y-99440477D02*
X141486714Y-99392858D01*
X141486714Y-99392858D02*
X141486714Y-99202382D01*
X141581952Y-99678573D02*
X141581952Y-99916668D01*
X141724809Y-99630954D02*
X141224809Y-99797620D01*
X141224809Y-99797620D02*
X141724809Y-99964287D01*
X141224809Y-100083334D02*
X141224809Y-100392858D01*
X141224809Y-100392858D02*
X141415285Y-100226191D01*
X141415285Y-100226191D02*
X141415285Y-100297620D01*
X141415285Y-100297620D02*
X141439095Y-100345239D01*
X141439095Y-100345239D02*
X141462904Y-100369048D01*
X141462904Y-100369048D02*
X141510523Y-100392858D01*
X141510523Y-100392858D02*
X141629571Y-100392858D01*
X141629571Y-100392858D02*
X141677190Y-100369048D01*
X141677190Y-100369048D02*
X141701000Y-100345239D01*
X141701000Y-100345239D02*
X141724809Y-100297620D01*
X141724809Y-100297620D02*
X141724809Y-100154763D01*
X141724809Y-100154763D02*
X141701000Y-100107144D01*
X141701000Y-100107144D02*
X141677190Y-100083334D01*
X141439095Y-100678572D02*
X141415285Y-100630953D01*
X141415285Y-100630953D02*
X141391476Y-100607143D01*
X141391476Y-100607143D02*
X141343857Y-100583334D01*
X141343857Y-100583334D02*
X141320047Y-100583334D01*
X141320047Y-100583334D02*
X141272428Y-100607143D01*
X141272428Y-100607143D02*
X141248619Y-100630953D01*
X141248619Y-100630953D02*
X141224809Y-100678572D01*
X141224809Y-100678572D02*
X141224809Y-100773810D01*
X141224809Y-100773810D02*
X141248619Y-100821429D01*
X141248619Y-100821429D02*
X141272428Y-100845238D01*
X141272428Y-100845238D02*
X141320047Y-100869048D01*
X141320047Y-100869048D02*
X141343857Y-100869048D01*
X141343857Y-100869048D02*
X141391476Y-100845238D01*
X141391476Y-100845238D02*
X141415285Y-100821429D01*
X141415285Y-100821429D02*
X141439095Y-100773810D01*
X141439095Y-100773810D02*
X141439095Y-100678572D01*
X141439095Y-100678572D02*
X141462904Y-100630953D01*
X141462904Y-100630953D02*
X141486714Y-100607143D01*
X141486714Y-100607143D02*
X141534333Y-100583334D01*
X141534333Y-100583334D02*
X141629571Y-100583334D01*
X141629571Y-100583334D02*
X141677190Y-100607143D01*
X141677190Y-100607143D02*
X141701000Y-100630953D01*
X141701000Y-100630953D02*
X141724809Y-100678572D01*
X141724809Y-100678572D02*
X141724809Y-100773810D01*
X141724809Y-100773810D02*
X141701000Y-100821429D01*
X141701000Y-100821429D02*
X141677190Y-100845238D01*
X141677190Y-100845238D02*
X141629571Y-100869048D01*
X141629571Y-100869048D02*
X141534333Y-100869048D01*
X141534333Y-100869048D02*
X141486714Y-100845238D01*
X141486714Y-100845238D02*
X141462904Y-100821429D01*
X141462904Y-100821429D02*
X141439095Y-100773810D01*
X141724809Y-101345238D02*
X141724809Y-101059524D01*
X141724809Y-101202381D02*
X141224809Y-101202381D01*
X141224809Y-101202381D02*
X141296238Y-101154762D01*
X141296238Y-101154762D02*
X141343857Y-101107143D01*
X141343857Y-101107143D02*
X141367666Y-101059524D01*
X139224809Y-99619047D02*
X139629571Y-99619047D01*
X139629571Y-99619047D02*
X139677190Y-99642857D01*
X139677190Y-99642857D02*
X139701000Y-99666666D01*
X139701000Y-99666666D02*
X139724809Y-99714285D01*
X139724809Y-99714285D02*
X139724809Y-99809523D01*
X139724809Y-99809523D02*
X139701000Y-99857142D01*
X139701000Y-99857142D02*
X139677190Y-99880952D01*
X139677190Y-99880952D02*
X139629571Y-99904761D01*
X139629571Y-99904761D02*
X139224809Y-99904761D01*
X139391476Y-100357143D02*
X139724809Y-100357143D01*
X139201000Y-100238095D02*
X139558142Y-100119048D01*
X139558142Y-100119048D02*
X139558142Y-100428571D01*
X147224809Y-106297620D02*
X147224809Y-106202382D01*
X147224809Y-106202382D02*
X147248619Y-106154763D01*
X147248619Y-106154763D02*
X147272428Y-106130953D01*
X147272428Y-106130953D02*
X147343857Y-106083334D01*
X147343857Y-106083334D02*
X147439095Y-106059525D01*
X147439095Y-106059525D02*
X147629571Y-106059525D01*
X147629571Y-106059525D02*
X147677190Y-106083334D01*
X147677190Y-106083334D02*
X147701000Y-106107144D01*
X147701000Y-106107144D02*
X147724809Y-106154763D01*
X147724809Y-106154763D02*
X147724809Y-106250001D01*
X147724809Y-106250001D02*
X147701000Y-106297620D01*
X147701000Y-106297620D02*
X147677190Y-106321429D01*
X147677190Y-106321429D02*
X147629571Y-106345239D01*
X147629571Y-106345239D02*
X147510523Y-106345239D01*
X147510523Y-106345239D02*
X147462904Y-106321429D01*
X147462904Y-106321429D02*
X147439095Y-106297620D01*
X147439095Y-106297620D02*
X147415285Y-106250001D01*
X147415285Y-106250001D02*
X147415285Y-106154763D01*
X147415285Y-106154763D02*
X147439095Y-106107144D01*
X147439095Y-106107144D02*
X147462904Y-106083334D01*
X147462904Y-106083334D02*
X147510523Y-106059525D01*
X147439095Y-106630953D02*
X147415285Y-106583334D01*
X147415285Y-106583334D02*
X147391476Y-106559524D01*
X147391476Y-106559524D02*
X147343857Y-106535715D01*
X147343857Y-106535715D02*
X147320047Y-106535715D01*
X147320047Y-106535715D02*
X147272428Y-106559524D01*
X147272428Y-106559524D02*
X147248619Y-106583334D01*
X147248619Y-106583334D02*
X147224809Y-106630953D01*
X147224809Y-106630953D02*
X147224809Y-106726191D01*
X147224809Y-106726191D02*
X147248619Y-106773810D01*
X147248619Y-106773810D02*
X147272428Y-106797619D01*
X147272428Y-106797619D02*
X147320047Y-106821429D01*
X147320047Y-106821429D02*
X147343857Y-106821429D01*
X147343857Y-106821429D02*
X147391476Y-106797619D01*
X147391476Y-106797619D02*
X147415285Y-106773810D01*
X147415285Y-106773810D02*
X147439095Y-106726191D01*
X147439095Y-106726191D02*
X147439095Y-106630953D01*
X147439095Y-106630953D02*
X147462904Y-106583334D01*
X147462904Y-106583334D02*
X147486714Y-106559524D01*
X147486714Y-106559524D02*
X147534333Y-106535715D01*
X147534333Y-106535715D02*
X147629571Y-106535715D01*
X147629571Y-106535715D02*
X147677190Y-106559524D01*
X147677190Y-106559524D02*
X147701000Y-106583334D01*
X147701000Y-106583334D02*
X147724809Y-106630953D01*
X147724809Y-106630953D02*
X147724809Y-106726191D01*
X147724809Y-106726191D02*
X147701000Y-106773810D01*
X147701000Y-106773810D02*
X147677190Y-106797619D01*
X147677190Y-106797619D02*
X147629571Y-106821429D01*
X147629571Y-106821429D02*
X147534333Y-106821429D01*
X147534333Y-106821429D02*
X147486714Y-106797619D01*
X147486714Y-106797619D02*
X147462904Y-106773810D01*
X147462904Y-106773810D02*
X147439095Y-106726191D01*
X147677190Y-107035714D02*
X147701000Y-107059524D01*
X147701000Y-107059524D02*
X147724809Y-107035714D01*
X147724809Y-107035714D02*
X147701000Y-107011905D01*
X147701000Y-107011905D02*
X147677190Y-107035714D01*
X147677190Y-107035714D02*
X147724809Y-107035714D01*
X147724809Y-107535714D02*
X147724809Y-107250000D01*
X147724809Y-107392857D02*
X147224809Y-107392857D01*
X147224809Y-107392857D02*
X147296238Y-107345238D01*
X147296238Y-107345238D02*
X147343857Y-107297619D01*
X147343857Y-107297619D02*
X147367666Y-107250000D01*
X147724809Y-107749999D02*
X147224809Y-107749999D01*
X147534333Y-107797618D02*
X147724809Y-107940475D01*
X147391476Y-107940475D02*
X147581952Y-107749999D01*
D12*
X148368200Y-106956667D02*
X148244391Y-106870000D01*
X148368200Y-106808095D02*
X148108200Y-106808095D01*
X148108200Y-106808095D02*
X148108200Y-106907143D01*
X148108200Y-106907143D02*
X148120581Y-106931905D01*
X148120581Y-106931905D02*
X148132962Y-106944286D01*
X148132962Y-106944286D02*
X148157724Y-106956667D01*
X148157724Y-106956667D02*
X148194867Y-106956667D01*
X148194867Y-106956667D02*
X148219629Y-106944286D01*
X148219629Y-106944286D02*
X148232010Y-106931905D01*
X148232010Y-106931905D02*
X148244391Y-106907143D01*
X148244391Y-106907143D02*
X148244391Y-106808095D01*
X148194867Y-107179524D02*
X148368200Y-107179524D01*
X148095820Y-107117619D02*
X148281534Y-107055714D01*
X148281534Y-107055714D02*
X148281534Y-107216667D01*
D11*
X160535713Y-106062904D02*
X160702380Y-106062904D01*
X160702380Y-106324809D02*
X160702380Y-105824809D01*
X160702380Y-105824809D02*
X160464285Y-105824809D01*
X160273809Y-106324809D02*
X160273809Y-105824809D01*
X160035714Y-106324809D02*
X160035714Y-105824809D01*
X160035714Y-105824809D02*
X159916666Y-105824809D01*
X159916666Y-105824809D02*
X159845238Y-105848619D01*
X159845238Y-105848619D02*
X159797619Y-105896238D01*
X159797619Y-105896238D02*
X159773809Y-105943857D01*
X159773809Y-105943857D02*
X159750000Y-106039095D01*
X159750000Y-106039095D02*
X159750000Y-106110523D01*
X159750000Y-106110523D02*
X159773809Y-106205761D01*
X159773809Y-106205761D02*
X159797619Y-106253380D01*
X159797619Y-106253380D02*
X159845238Y-106301000D01*
X159845238Y-106301000D02*
X159916666Y-106324809D01*
X159916666Y-106324809D02*
X160035714Y-106324809D01*
X159559523Y-105872428D02*
X159535714Y-105848619D01*
X159535714Y-105848619D02*
X159488095Y-105824809D01*
X159488095Y-105824809D02*
X159369047Y-105824809D01*
X159369047Y-105824809D02*
X159321428Y-105848619D01*
X159321428Y-105848619D02*
X159297619Y-105872428D01*
X159297619Y-105872428D02*
X159273809Y-105920047D01*
X159273809Y-105920047D02*
X159273809Y-105967666D01*
X159273809Y-105967666D02*
X159297619Y-106039095D01*
X159297619Y-106039095D02*
X159583333Y-106324809D01*
X159583333Y-106324809D02*
X159273809Y-106324809D01*
D12*
X160214285Y-106985681D02*
X160280951Y-106985681D01*
X160280951Y-107090443D02*
X160280951Y-106890443D01*
X160280951Y-106890443D02*
X160185713Y-106890443D01*
X160109522Y-107090443D02*
X160109522Y-106890443D01*
X160014284Y-107090443D02*
X160014284Y-106890443D01*
X160014284Y-106890443D02*
X159966665Y-106890443D01*
X159966665Y-106890443D02*
X159938094Y-106899967D01*
X159938094Y-106899967D02*
X159919046Y-106919015D01*
X159919046Y-106919015D02*
X159909523Y-106938062D01*
X159909523Y-106938062D02*
X159899999Y-106976158D01*
X159899999Y-106976158D02*
X159899999Y-107004729D01*
X159899999Y-107004729D02*
X159909523Y-107042824D01*
X159909523Y-107042824D02*
X159919046Y-107061872D01*
X159919046Y-107061872D02*
X159938094Y-107080920D01*
X159938094Y-107080920D02*
X159966665Y-107090443D01*
X159966665Y-107090443D02*
X160014284Y-107090443D01*
X159823808Y-106909491D02*
X159814284Y-106899967D01*
X159814284Y-106899967D02*
X159795237Y-106890443D01*
X159795237Y-106890443D02*
X159747618Y-106890443D01*
X159747618Y-106890443D02*
X159728570Y-106899967D01*
X159728570Y-106899967D02*
X159719046Y-106909491D01*
X159719046Y-106909491D02*
X159709523Y-106928539D01*
X159709523Y-106928539D02*
X159709523Y-106947586D01*
X159709523Y-106947586D02*
X159719046Y-106976158D01*
X159719046Y-106976158D02*
X159833332Y-107090443D01*
X159833332Y-107090443D02*
X159709523Y-107090443D01*
D11*
X134772428Y-99571429D02*
X134748619Y-99595238D01*
X134748619Y-99595238D02*
X134724809Y-99642857D01*
X134724809Y-99642857D02*
X134724809Y-99761905D01*
X134724809Y-99761905D02*
X134748619Y-99809524D01*
X134748619Y-99809524D02*
X134772428Y-99833333D01*
X134772428Y-99833333D02*
X134820047Y-99857143D01*
X134820047Y-99857143D02*
X134867666Y-99857143D01*
X134867666Y-99857143D02*
X134939095Y-99833333D01*
X134939095Y-99833333D02*
X135224809Y-99547619D01*
X135224809Y-99547619D02*
X135224809Y-99857143D01*
X135224809Y-100071428D02*
X134724809Y-100071428D01*
X134724809Y-100071428D02*
X135081952Y-100238095D01*
X135081952Y-100238095D02*
X134724809Y-100404761D01*
X134724809Y-100404761D02*
X135224809Y-100404761D01*
D14*
X136609695Y-99485714D02*
X136228742Y-99219047D01*
X136609695Y-99028571D02*
X135809695Y-99028571D01*
X135809695Y-99028571D02*
X135809695Y-99333333D01*
X135809695Y-99333333D02*
X135847790Y-99409523D01*
X135847790Y-99409523D02*
X135885885Y-99447618D01*
X135885885Y-99447618D02*
X135962076Y-99485714D01*
X135962076Y-99485714D02*
X136076361Y-99485714D01*
X136076361Y-99485714D02*
X136152552Y-99447618D01*
X136152552Y-99447618D02*
X136190647Y-99409523D01*
X136190647Y-99409523D02*
X136228742Y-99333333D01*
X136228742Y-99333333D02*
X136228742Y-99028571D01*
X136609695Y-100247618D02*
X136609695Y-99790475D01*
X136609695Y-100019047D02*
X135809695Y-100019047D01*
X135809695Y-100019047D02*
X135923980Y-99942856D01*
X135923980Y-99942856D02*
X136000171Y-99866666D01*
X136000171Y-99866666D02*
X136038266Y-99790475D01*
X136609695Y-101009523D02*
X136609695Y-100552380D01*
X136609695Y-100780952D02*
X135809695Y-100780952D01*
X135809695Y-100780952D02*
X135923980Y-100704761D01*
X135923980Y-100704761D02*
X136000171Y-100628571D01*
X136000171Y-100628571D02*
X136038266Y-100552380D01*
D11*
X153724809Y-97654762D02*
X153224809Y-97654762D01*
X153224809Y-97654762D02*
X153581952Y-97821429D01*
X153581952Y-97821429D02*
X153224809Y-97988095D01*
X153224809Y-97988095D02*
X153724809Y-97988095D01*
X153581952Y-98202382D02*
X153581952Y-98440477D01*
X153724809Y-98154763D02*
X153224809Y-98321429D01*
X153224809Y-98321429D02*
X153724809Y-98488096D01*
X153224809Y-98607143D02*
X153724809Y-98940476D01*
X153224809Y-98940476D02*
X153724809Y-98607143D01*
X153439095Y-99202381D02*
X153415285Y-99154762D01*
X153415285Y-99154762D02*
X153391476Y-99130952D01*
X153391476Y-99130952D02*
X153343857Y-99107143D01*
X153343857Y-99107143D02*
X153320047Y-99107143D01*
X153320047Y-99107143D02*
X153272428Y-99130952D01*
X153272428Y-99130952D02*
X153248619Y-99154762D01*
X153248619Y-99154762D02*
X153224809Y-99202381D01*
X153224809Y-99202381D02*
X153224809Y-99297619D01*
X153224809Y-99297619D02*
X153248619Y-99345238D01*
X153248619Y-99345238D02*
X153272428Y-99369047D01*
X153272428Y-99369047D02*
X153320047Y-99392857D01*
X153320047Y-99392857D02*
X153343857Y-99392857D01*
X153343857Y-99392857D02*
X153391476Y-99369047D01*
X153391476Y-99369047D02*
X153415285Y-99345238D01*
X153415285Y-99345238D02*
X153439095Y-99297619D01*
X153439095Y-99297619D02*
X153439095Y-99202381D01*
X153439095Y-99202381D02*
X153462904Y-99154762D01*
X153462904Y-99154762D02*
X153486714Y-99130952D01*
X153486714Y-99130952D02*
X153534333Y-99107143D01*
X153534333Y-99107143D02*
X153629571Y-99107143D01*
X153629571Y-99107143D02*
X153677190Y-99130952D01*
X153677190Y-99130952D02*
X153701000Y-99154762D01*
X153701000Y-99154762D02*
X153724809Y-99202381D01*
X153724809Y-99202381D02*
X153724809Y-99297619D01*
X153724809Y-99297619D02*
X153701000Y-99345238D01*
X153701000Y-99345238D02*
X153677190Y-99369047D01*
X153677190Y-99369047D02*
X153629571Y-99392857D01*
X153629571Y-99392857D02*
X153534333Y-99392857D01*
X153534333Y-99392857D02*
X153486714Y-99369047D01*
X153486714Y-99369047D02*
X153462904Y-99345238D01*
X153462904Y-99345238D02*
X153439095Y-99297619D01*
X153224809Y-99821428D02*
X153224809Y-99726190D01*
X153224809Y-99726190D02*
X153248619Y-99678571D01*
X153248619Y-99678571D02*
X153272428Y-99654761D01*
X153272428Y-99654761D02*
X153343857Y-99607142D01*
X153343857Y-99607142D02*
X153439095Y-99583333D01*
X153439095Y-99583333D02*
X153629571Y-99583333D01*
X153629571Y-99583333D02*
X153677190Y-99607142D01*
X153677190Y-99607142D02*
X153701000Y-99630952D01*
X153701000Y-99630952D02*
X153724809Y-99678571D01*
X153724809Y-99678571D02*
X153724809Y-99773809D01*
X153724809Y-99773809D02*
X153701000Y-99821428D01*
X153701000Y-99821428D02*
X153677190Y-99845237D01*
X153677190Y-99845237D02*
X153629571Y-99869047D01*
X153629571Y-99869047D02*
X153510523Y-99869047D01*
X153510523Y-99869047D02*
X153462904Y-99845237D01*
X153462904Y-99845237D02*
X153439095Y-99821428D01*
X153439095Y-99821428D02*
X153415285Y-99773809D01*
X153415285Y-99773809D02*
X153415285Y-99678571D01*
X153415285Y-99678571D02*
X153439095Y-99630952D01*
X153439095Y-99630952D02*
X153462904Y-99607142D01*
X153462904Y-99607142D02*
X153510523Y-99583333D01*
X153224809Y-100321427D02*
X153224809Y-100083332D01*
X153224809Y-100083332D02*
X153462904Y-100059523D01*
X153462904Y-100059523D02*
X153439095Y-100083332D01*
X153439095Y-100083332D02*
X153415285Y-100130951D01*
X153415285Y-100130951D02*
X153415285Y-100249999D01*
X153415285Y-100249999D02*
X153439095Y-100297618D01*
X153439095Y-100297618D02*
X153462904Y-100321427D01*
X153462904Y-100321427D02*
X153510523Y-100345237D01*
X153510523Y-100345237D02*
X153629571Y-100345237D01*
X153629571Y-100345237D02*
X153677190Y-100321427D01*
X153677190Y-100321427D02*
X153701000Y-100297618D01*
X153701000Y-100297618D02*
X153724809Y-100249999D01*
X153724809Y-100249999D02*
X153724809Y-100130951D01*
X153724809Y-100130951D02*
X153701000Y-100083332D01*
X153701000Y-100083332D02*
X153677190Y-100059523D01*
X153462904Y-100559522D02*
X153462904Y-100726189D01*
X153724809Y-100797617D02*
X153724809Y-100559522D01*
X153724809Y-100559522D02*
X153224809Y-100559522D01*
X153224809Y-100559522D02*
X153224809Y-100797617D01*
X153224809Y-101011903D02*
X153629571Y-101011903D01*
X153629571Y-101011903D02*
X153677190Y-101035713D01*
X153677190Y-101035713D02*
X153701000Y-101059522D01*
X153701000Y-101059522D02*
X153724809Y-101107141D01*
X153724809Y-101107141D02*
X153724809Y-101202379D01*
X153724809Y-101202379D02*
X153701000Y-101249998D01*
X153701000Y-101249998D02*
X153677190Y-101273808D01*
X153677190Y-101273808D02*
X153629571Y-101297617D01*
X153629571Y-101297617D02*
X153224809Y-101297617D01*
X153581952Y-101511904D02*
X153581952Y-101749999D01*
X153724809Y-101464285D02*
X153224809Y-101630951D01*
X153224809Y-101630951D02*
X153724809Y-101797618D01*
X153534333Y-101964284D02*
X153534333Y-102345237D01*
X153724809Y-102154760D02*
X153343857Y-102154760D01*
X146324809Y-98023810D02*
X146729571Y-98023810D01*
X146729571Y-98023810D02*
X146777190Y-98047620D01*
X146777190Y-98047620D02*
X146801000Y-98071429D01*
X146801000Y-98071429D02*
X146824809Y-98119048D01*
X146824809Y-98119048D02*
X146824809Y-98214286D01*
X146824809Y-98214286D02*
X146801000Y-98261905D01*
X146801000Y-98261905D02*
X146777190Y-98285715D01*
X146777190Y-98285715D02*
X146729571Y-98309524D01*
X146729571Y-98309524D02*
X146324809Y-98309524D01*
X146681952Y-98523811D02*
X146681952Y-98761906D01*
X146824809Y-98476192D02*
X146324809Y-98642858D01*
X146324809Y-98642858D02*
X146824809Y-98809525D01*
X146562904Y-99142858D02*
X146562904Y-98976191D01*
X146824809Y-98976191D02*
X146324809Y-98976191D01*
X146324809Y-98976191D02*
X146324809Y-99214286D01*
X146491476Y-99619048D02*
X146824809Y-99619048D01*
X146301000Y-99500000D02*
X146658142Y-99380953D01*
X146658142Y-99380953D02*
X146658142Y-99690476D01*
X146372428Y-99857143D02*
X146348619Y-99880952D01*
X146348619Y-99880952D02*
X146324809Y-99928571D01*
X146324809Y-99928571D02*
X146324809Y-100047619D01*
X146324809Y-100047619D02*
X146348619Y-100095238D01*
X146348619Y-100095238D02*
X146372428Y-100119047D01*
X146372428Y-100119047D02*
X146420047Y-100142857D01*
X146420047Y-100142857D02*
X146467666Y-100142857D01*
X146467666Y-100142857D02*
X146539095Y-100119047D01*
X146539095Y-100119047D02*
X146824809Y-99833333D01*
X146824809Y-99833333D02*
X146824809Y-100142857D01*
X146872428Y-100238095D02*
X146872428Y-100619047D01*
X146801000Y-100714285D02*
X146824809Y-100785713D01*
X146824809Y-100785713D02*
X146824809Y-100904761D01*
X146824809Y-100904761D02*
X146801000Y-100952380D01*
X146801000Y-100952380D02*
X146777190Y-100976189D01*
X146777190Y-100976189D02*
X146729571Y-100999999D01*
X146729571Y-100999999D02*
X146681952Y-100999999D01*
X146681952Y-100999999D02*
X146634333Y-100976189D01*
X146634333Y-100976189D02*
X146610523Y-100952380D01*
X146610523Y-100952380D02*
X146586714Y-100904761D01*
X146586714Y-100904761D02*
X146562904Y-100809523D01*
X146562904Y-100809523D02*
X146539095Y-100761904D01*
X146539095Y-100761904D02*
X146515285Y-100738094D01*
X146515285Y-100738094D02*
X146467666Y-100714285D01*
X146467666Y-100714285D02*
X146420047Y-100714285D01*
X146420047Y-100714285D02*
X146372428Y-100738094D01*
X146372428Y-100738094D02*
X146348619Y-100761904D01*
X146348619Y-100761904D02*
X146324809Y-100809523D01*
X146324809Y-100809523D02*
X146324809Y-100928570D01*
X146324809Y-100928570D02*
X146348619Y-100999999D01*
X146824809Y-101214284D02*
X146324809Y-101214284D01*
X146324809Y-101214284D02*
X146681952Y-101380951D01*
X146681952Y-101380951D02*
X146324809Y-101547617D01*
X146324809Y-101547617D02*
X146824809Y-101547617D01*
X146681952Y-101761904D02*
X146681952Y-101999999D01*
X146824809Y-101714285D02*
X146324809Y-101880951D01*
X146324809Y-101880951D02*
X146824809Y-102047618D01*
X147224809Y-99619047D02*
X147629571Y-99619047D01*
X147629571Y-99619047D02*
X147677190Y-99642857D01*
X147677190Y-99642857D02*
X147701000Y-99666666D01*
X147701000Y-99666666D02*
X147724809Y-99714285D01*
X147724809Y-99714285D02*
X147724809Y-99809523D01*
X147724809Y-99809523D02*
X147701000Y-99857142D01*
X147701000Y-99857142D02*
X147677190Y-99880952D01*
X147677190Y-99880952D02*
X147629571Y-99904761D01*
X147629571Y-99904761D02*
X147224809Y-99904761D01*
X147224809Y-100095238D02*
X147224809Y-100404762D01*
X147224809Y-100404762D02*
X147415285Y-100238095D01*
X147415285Y-100238095D02*
X147415285Y-100309524D01*
X147415285Y-100309524D02*
X147439095Y-100357143D01*
X147439095Y-100357143D02*
X147462904Y-100380952D01*
X147462904Y-100380952D02*
X147510523Y-100404762D01*
X147510523Y-100404762D02*
X147629571Y-100404762D01*
X147629571Y-100404762D02*
X147677190Y-100380952D01*
X147677190Y-100380952D02*
X147701000Y-100357143D01*
X147701000Y-100357143D02*
X147724809Y-100309524D01*
X147724809Y-100309524D02*
X147724809Y-100166667D01*
X147724809Y-100166667D02*
X147701000Y-100119048D01*
X147701000Y-100119048D02*
X147677190Y-100095238D01*
X165224809Y-97261905D02*
X165629571Y-97261905D01*
X165629571Y-97261905D02*
X165677190Y-97285715D01*
X165677190Y-97285715D02*
X165701000Y-97309524D01*
X165701000Y-97309524D02*
X165724809Y-97357143D01*
X165724809Y-97357143D02*
X165724809Y-97452381D01*
X165724809Y-97452381D02*
X165701000Y-97500000D01*
X165701000Y-97500000D02*
X165677190Y-97523810D01*
X165677190Y-97523810D02*
X165629571Y-97547619D01*
X165629571Y-97547619D02*
X165224809Y-97547619D01*
X165724809Y-97785715D02*
X165224809Y-97785715D01*
X165224809Y-97785715D02*
X165581952Y-97952382D01*
X165581952Y-97952382D02*
X165224809Y-98119048D01*
X165224809Y-98119048D02*
X165724809Y-98119048D01*
X165677190Y-98642858D02*
X165701000Y-98619049D01*
X165701000Y-98619049D02*
X165724809Y-98547620D01*
X165724809Y-98547620D02*
X165724809Y-98500001D01*
X165724809Y-98500001D02*
X165701000Y-98428573D01*
X165701000Y-98428573D02*
X165653380Y-98380954D01*
X165653380Y-98380954D02*
X165605761Y-98357144D01*
X165605761Y-98357144D02*
X165510523Y-98333335D01*
X165510523Y-98333335D02*
X165439095Y-98333335D01*
X165439095Y-98333335D02*
X165343857Y-98357144D01*
X165343857Y-98357144D02*
X165296238Y-98380954D01*
X165296238Y-98380954D02*
X165248619Y-98428573D01*
X165248619Y-98428573D02*
X165224809Y-98500001D01*
X165224809Y-98500001D02*
X165224809Y-98547620D01*
X165224809Y-98547620D02*
X165248619Y-98619049D01*
X165248619Y-98619049D02*
X165272428Y-98642858D01*
X165772428Y-98738097D02*
X165772428Y-99119049D01*
X165224809Y-99380953D02*
X165581952Y-99380953D01*
X165581952Y-99380953D02*
X165653380Y-99357144D01*
X165653380Y-99357144D02*
X165701000Y-99309525D01*
X165701000Y-99309525D02*
X165724809Y-99238096D01*
X165724809Y-99238096D02*
X165724809Y-99190477D01*
X165581952Y-99595239D02*
X165581952Y-99833334D01*
X165724809Y-99547620D02*
X165224809Y-99714286D01*
X165224809Y-99714286D02*
X165724809Y-99880953D01*
X165677190Y-100333333D02*
X165701000Y-100309524D01*
X165701000Y-100309524D02*
X165724809Y-100238095D01*
X165724809Y-100238095D02*
X165724809Y-100190476D01*
X165724809Y-100190476D02*
X165701000Y-100119048D01*
X165701000Y-100119048D02*
X165653380Y-100071429D01*
X165653380Y-100071429D02*
X165605761Y-100047619D01*
X165605761Y-100047619D02*
X165510523Y-100023810D01*
X165510523Y-100023810D02*
X165439095Y-100023810D01*
X165439095Y-100023810D02*
X165343857Y-100047619D01*
X165343857Y-100047619D02*
X165296238Y-100071429D01*
X165296238Y-100071429D02*
X165248619Y-100119048D01*
X165248619Y-100119048D02*
X165224809Y-100190476D01*
X165224809Y-100190476D02*
X165224809Y-100238095D01*
X165224809Y-100238095D02*
X165248619Y-100309524D01*
X165248619Y-100309524D02*
X165272428Y-100333333D01*
X165724809Y-100547619D02*
X165224809Y-100547619D01*
X165724809Y-100833333D02*
X165439095Y-100619048D01*
X165224809Y-100833333D02*
X165510523Y-100547619D01*
X165772428Y-100928572D02*
X165772428Y-101309524D01*
X165701000Y-101404762D02*
X165724809Y-101476190D01*
X165724809Y-101476190D02*
X165724809Y-101595238D01*
X165724809Y-101595238D02*
X165701000Y-101642857D01*
X165701000Y-101642857D02*
X165677190Y-101666666D01*
X165677190Y-101666666D02*
X165629571Y-101690476D01*
X165629571Y-101690476D02*
X165581952Y-101690476D01*
X165581952Y-101690476D02*
X165534333Y-101666666D01*
X165534333Y-101666666D02*
X165510523Y-101642857D01*
X165510523Y-101642857D02*
X165486714Y-101595238D01*
X165486714Y-101595238D02*
X165462904Y-101500000D01*
X165462904Y-101500000D02*
X165439095Y-101452381D01*
X165439095Y-101452381D02*
X165415285Y-101428571D01*
X165415285Y-101428571D02*
X165367666Y-101404762D01*
X165367666Y-101404762D02*
X165320047Y-101404762D01*
X165320047Y-101404762D02*
X165272428Y-101428571D01*
X165272428Y-101428571D02*
X165248619Y-101452381D01*
X165248619Y-101452381D02*
X165224809Y-101500000D01*
X165224809Y-101500000D02*
X165224809Y-101619047D01*
X165224809Y-101619047D02*
X165248619Y-101690476D01*
X165724809Y-101904761D02*
X165224809Y-101904761D01*
X165224809Y-101904761D02*
X165581952Y-102071428D01*
X165581952Y-102071428D02*
X165224809Y-102238094D01*
X165224809Y-102238094D02*
X165724809Y-102238094D01*
X165724809Y-102476190D02*
X165224809Y-102476190D01*
X165224809Y-102476190D02*
X165224809Y-102595238D01*
X165224809Y-102595238D02*
X165248619Y-102666666D01*
X165248619Y-102666666D02*
X165296238Y-102714285D01*
X165296238Y-102714285D02*
X165343857Y-102738095D01*
X165343857Y-102738095D02*
X165439095Y-102761904D01*
X165439095Y-102761904D02*
X165510523Y-102761904D01*
X165510523Y-102761904D02*
X165605761Y-102738095D01*
X165605761Y-102738095D02*
X165653380Y-102714285D01*
X165653380Y-102714285D02*
X165701000Y-102666666D01*
X165701000Y-102666666D02*
X165724809Y-102595238D01*
X165724809Y-102595238D02*
X165724809Y-102476190D01*
X139797618Y-97974809D02*
X140083332Y-97974809D01*
X139940475Y-97974809D02*
X139940475Y-97474809D01*
X139940475Y-97474809D02*
X139988094Y-97546238D01*
X139988094Y-97546238D02*
X140035713Y-97593857D01*
X140035713Y-97593857D02*
X140083332Y-97617666D01*
X139369047Y-97641476D02*
X139369047Y-97974809D01*
X139583333Y-97641476D02*
X139583333Y-97903380D01*
X139583333Y-97903380D02*
X139559523Y-97951000D01*
X139559523Y-97951000D02*
X139511904Y-97974809D01*
X139511904Y-97974809D02*
X139440476Y-97974809D01*
X139440476Y-97974809D02*
X139392857Y-97951000D01*
X139392857Y-97951000D02*
X139369047Y-97927190D01*
X138964285Y-97712904D02*
X139130952Y-97712904D01*
X139130952Y-97974809D02*
X139130952Y-97474809D01*
X139130952Y-97474809D02*
X138892857Y-97474809D01*
D12*
X139660714Y-97089765D02*
X139672618Y-97101670D01*
X139672618Y-97101670D02*
X139708333Y-97113574D01*
X139708333Y-97113574D02*
X139732142Y-97113574D01*
X139732142Y-97113574D02*
X139767856Y-97101670D01*
X139767856Y-97101670D02*
X139791666Y-97077860D01*
X139791666Y-97077860D02*
X139803571Y-97054050D01*
X139803571Y-97054050D02*
X139815475Y-97006431D01*
X139815475Y-97006431D02*
X139815475Y-96970717D01*
X139815475Y-96970717D02*
X139803571Y-96923098D01*
X139803571Y-96923098D02*
X139791666Y-96899289D01*
X139791666Y-96899289D02*
X139767856Y-96875479D01*
X139767856Y-96875479D02*
X139732142Y-96863574D01*
X139732142Y-96863574D02*
X139708333Y-96863574D01*
X139708333Y-96863574D02*
X139672618Y-96875479D01*
X139672618Y-96875479D02*
X139660714Y-96887384D01*
X139422618Y-97113574D02*
X139565475Y-97113574D01*
X139494047Y-97113574D02*
X139494047Y-96863574D01*
X139494047Y-96863574D02*
X139517856Y-96899289D01*
X139517856Y-96899289D02*
X139541666Y-96923098D01*
X139541666Y-96923098D02*
X139565475Y-96935003D01*
X139267857Y-96863574D02*
X139244047Y-96863574D01*
X139244047Y-96863574D02*
X139220238Y-96875479D01*
X139220238Y-96875479D02*
X139208333Y-96887384D01*
X139208333Y-96887384D02*
X139196428Y-96911193D01*
X139196428Y-96911193D02*
X139184523Y-96958812D01*
X139184523Y-96958812D02*
X139184523Y-97018336D01*
X139184523Y-97018336D02*
X139196428Y-97065955D01*
X139196428Y-97065955D02*
X139208333Y-97089765D01*
X139208333Y-97089765D02*
X139220238Y-97101670D01*
X139220238Y-97101670D02*
X139244047Y-97113574D01*
X139244047Y-97113574D02*
X139267857Y-97113574D01*
X139267857Y-97113574D02*
X139291666Y-97101670D01*
X139291666Y-97101670D02*
X139303571Y-97089765D01*
X139303571Y-97089765D02*
X139315476Y-97065955D01*
X139315476Y-97065955D02*
X139327380Y-97018336D01*
X139327380Y-97018336D02*
X139327380Y-96958812D01*
X139327380Y-96958812D02*
X139315476Y-96911193D01*
X139315476Y-96911193D02*
X139303571Y-96887384D01*
X139303571Y-96887384D02*
X139291666Y-96875479D01*
X139291666Y-96875479D02*
X139267857Y-96863574D01*
D11*
X142724809Y-92178572D02*
X142724809Y-92226191D01*
X142724809Y-92226191D02*
X142748619Y-92273810D01*
X142748619Y-92273810D02*
X142772428Y-92297620D01*
X142772428Y-92297620D02*
X142820047Y-92321429D01*
X142820047Y-92321429D02*
X142915285Y-92345239D01*
X142915285Y-92345239D02*
X143034333Y-92345239D01*
X143034333Y-92345239D02*
X143129571Y-92321429D01*
X143129571Y-92321429D02*
X143177190Y-92297620D01*
X143177190Y-92297620D02*
X143201000Y-92273810D01*
X143201000Y-92273810D02*
X143224809Y-92226191D01*
X143224809Y-92226191D02*
X143224809Y-92178572D01*
X143224809Y-92178572D02*
X143201000Y-92130953D01*
X143201000Y-92130953D02*
X143177190Y-92107144D01*
X143177190Y-92107144D02*
X143129571Y-92083334D01*
X143129571Y-92083334D02*
X143034333Y-92059525D01*
X143034333Y-92059525D02*
X142915285Y-92059525D01*
X142915285Y-92059525D02*
X142820047Y-92083334D01*
X142820047Y-92083334D02*
X142772428Y-92107144D01*
X142772428Y-92107144D02*
X142748619Y-92130953D01*
X142748619Y-92130953D02*
X142724809Y-92178572D01*
X143177190Y-92559524D02*
X143201000Y-92583334D01*
X143201000Y-92583334D02*
X143224809Y-92559524D01*
X143224809Y-92559524D02*
X143201000Y-92535715D01*
X143201000Y-92535715D02*
X143177190Y-92559524D01*
X143177190Y-92559524D02*
X143224809Y-92559524D01*
X143224809Y-93059524D02*
X143224809Y-92773810D01*
X143224809Y-92916667D02*
X142724809Y-92916667D01*
X142724809Y-92916667D02*
X142796238Y-92869048D01*
X142796238Y-92869048D02*
X142843857Y-92821429D01*
X142843857Y-92821429D02*
X142867666Y-92773810D01*
X142891476Y-93488095D02*
X143224809Y-93488095D01*
X142891476Y-93273809D02*
X143153380Y-93273809D01*
X143153380Y-93273809D02*
X143201000Y-93297619D01*
X143201000Y-93297619D02*
X143224809Y-93345238D01*
X143224809Y-93345238D02*
X143224809Y-93416666D01*
X143224809Y-93416666D02*
X143201000Y-93464285D01*
X143201000Y-93464285D02*
X143177190Y-93488095D01*
X142962904Y-93892857D02*
X142962904Y-93726190D01*
X143224809Y-93726190D02*
X142724809Y-93726190D01*
X142724809Y-93726190D02*
X142724809Y-93964285D01*
D12*
X143839765Y-92958333D02*
X143851670Y-92946429D01*
X143851670Y-92946429D02*
X143863574Y-92910714D01*
X143863574Y-92910714D02*
X143863574Y-92886905D01*
X143863574Y-92886905D02*
X143851670Y-92851191D01*
X143851670Y-92851191D02*
X143827860Y-92827381D01*
X143827860Y-92827381D02*
X143804050Y-92815476D01*
X143804050Y-92815476D02*
X143756431Y-92803572D01*
X143756431Y-92803572D02*
X143720717Y-92803572D01*
X143720717Y-92803572D02*
X143673098Y-92815476D01*
X143673098Y-92815476D02*
X143649289Y-92827381D01*
X143649289Y-92827381D02*
X143625479Y-92851191D01*
X143625479Y-92851191D02*
X143613574Y-92886905D01*
X143613574Y-92886905D02*
X143613574Y-92910714D01*
X143613574Y-92910714D02*
X143625479Y-92946429D01*
X143625479Y-92946429D02*
X143637384Y-92958333D01*
X143863574Y-93077381D02*
X143863574Y-93125000D01*
X143863574Y-93125000D02*
X143851670Y-93148810D01*
X143851670Y-93148810D02*
X143839765Y-93160714D01*
X143839765Y-93160714D02*
X143804050Y-93184524D01*
X143804050Y-93184524D02*
X143756431Y-93196429D01*
X143756431Y-93196429D02*
X143661193Y-93196429D01*
X143661193Y-93196429D02*
X143637384Y-93184524D01*
X143637384Y-93184524D02*
X143625479Y-93172619D01*
X143625479Y-93172619D02*
X143613574Y-93148810D01*
X143613574Y-93148810D02*
X143613574Y-93101191D01*
X143613574Y-93101191D02*
X143625479Y-93077381D01*
X143625479Y-93077381D02*
X143637384Y-93065476D01*
X143637384Y-93065476D02*
X143661193Y-93053572D01*
X143661193Y-93053572D02*
X143720717Y-93053572D01*
X143720717Y-93053572D02*
X143744527Y-93065476D01*
X143744527Y-93065476D02*
X143756431Y-93077381D01*
X143756431Y-93077381D02*
X143768336Y-93101191D01*
X143768336Y-93101191D02*
X143768336Y-93148810D01*
X143768336Y-93148810D02*
X143756431Y-93172619D01*
X143756431Y-93172619D02*
X143744527Y-93184524D01*
X143744527Y-93184524D02*
X143720717Y-93196429D01*
D11*
X151891476Y-92297620D02*
X152224809Y-92297620D01*
X151701000Y-92178572D02*
X152058142Y-92059525D01*
X152058142Y-92059525D02*
X152058142Y-92369048D01*
X152224809Y-92583334D02*
X152224809Y-92678572D01*
X152224809Y-92678572D02*
X152201000Y-92726191D01*
X152201000Y-92726191D02*
X152177190Y-92750000D01*
X152177190Y-92750000D02*
X152105761Y-92797619D01*
X152105761Y-92797619D02*
X152010523Y-92821429D01*
X152010523Y-92821429D02*
X151820047Y-92821429D01*
X151820047Y-92821429D02*
X151772428Y-92797619D01*
X151772428Y-92797619D02*
X151748619Y-92773810D01*
X151748619Y-92773810D02*
X151724809Y-92726191D01*
X151724809Y-92726191D02*
X151724809Y-92630953D01*
X151724809Y-92630953D02*
X151748619Y-92583334D01*
X151748619Y-92583334D02*
X151772428Y-92559524D01*
X151772428Y-92559524D02*
X151820047Y-92535715D01*
X151820047Y-92535715D02*
X151939095Y-92535715D01*
X151939095Y-92535715D02*
X151986714Y-92559524D01*
X151986714Y-92559524D02*
X152010523Y-92583334D01*
X152010523Y-92583334D02*
X152034333Y-92630953D01*
X152034333Y-92630953D02*
X152034333Y-92726191D01*
X152034333Y-92726191D02*
X152010523Y-92773810D01*
X152010523Y-92773810D02*
X151986714Y-92797619D01*
X151986714Y-92797619D02*
X151939095Y-92821429D01*
X152177190Y-93035714D02*
X152201000Y-93059524D01*
X152201000Y-93059524D02*
X152224809Y-93035714D01*
X152224809Y-93035714D02*
X152201000Y-93011905D01*
X152201000Y-93011905D02*
X152177190Y-93035714D01*
X152177190Y-93035714D02*
X152224809Y-93035714D01*
X152224809Y-93297619D02*
X152224809Y-93392857D01*
X152224809Y-93392857D02*
X152201000Y-93440476D01*
X152201000Y-93440476D02*
X152177190Y-93464285D01*
X152177190Y-93464285D02*
X152105761Y-93511904D01*
X152105761Y-93511904D02*
X152010523Y-93535714D01*
X152010523Y-93535714D02*
X151820047Y-93535714D01*
X151820047Y-93535714D02*
X151772428Y-93511904D01*
X151772428Y-93511904D02*
X151748619Y-93488095D01*
X151748619Y-93488095D02*
X151724809Y-93440476D01*
X151724809Y-93440476D02*
X151724809Y-93345238D01*
X151724809Y-93345238D02*
X151748619Y-93297619D01*
X151748619Y-93297619D02*
X151772428Y-93273809D01*
X151772428Y-93273809D02*
X151820047Y-93250000D01*
X151820047Y-93250000D02*
X151939095Y-93250000D01*
X151939095Y-93250000D02*
X151986714Y-93273809D01*
X151986714Y-93273809D02*
X152010523Y-93297619D01*
X152010523Y-93297619D02*
X152034333Y-93345238D01*
X152034333Y-93345238D02*
X152034333Y-93440476D01*
X152034333Y-93440476D02*
X152010523Y-93488095D01*
X152010523Y-93488095D02*
X151986714Y-93511904D01*
X151986714Y-93511904D02*
X151939095Y-93535714D01*
X152224809Y-93749999D02*
X151724809Y-93749999D01*
X152034333Y-93797618D02*
X152224809Y-93940475D01*
X151891476Y-93940475D02*
X152081952Y-93749999D01*
D12*
X152868200Y-92956667D02*
X152744391Y-92870000D01*
X152868200Y-92808095D02*
X152608200Y-92808095D01*
X152608200Y-92808095D02*
X152608200Y-92907143D01*
X152608200Y-92907143D02*
X152620581Y-92931905D01*
X152620581Y-92931905D02*
X152632962Y-92944286D01*
X152632962Y-92944286D02*
X152657724Y-92956667D01*
X152657724Y-92956667D02*
X152694867Y-92956667D01*
X152694867Y-92956667D02*
X152719629Y-92944286D01*
X152719629Y-92944286D02*
X152732010Y-92931905D01*
X152732010Y-92931905D02*
X152744391Y-92907143D01*
X152744391Y-92907143D02*
X152744391Y-92808095D01*
X152719629Y-93105238D02*
X152707248Y-93080476D01*
X152707248Y-93080476D02*
X152694867Y-93068095D01*
X152694867Y-93068095D02*
X152670105Y-93055714D01*
X152670105Y-93055714D02*
X152657724Y-93055714D01*
X152657724Y-93055714D02*
X152632962Y-93068095D01*
X152632962Y-93068095D02*
X152620581Y-93080476D01*
X152620581Y-93080476D02*
X152608200Y-93105238D01*
X152608200Y-93105238D02*
X152608200Y-93154762D01*
X152608200Y-93154762D02*
X152620581Y-93179524D01*
X152620581Y-93179524D02*
X152632962Y-93191905D01*
X152632962Y-93191905D02*
X152657724Y-93204286D01*
X152657724Y-93204286D02*
X152670105Y-93204286D01*
X152670105Y-93204286D02*
X152694867Y-93191905D01*
X152694867Y-93191905D02*
X152707248Y-93179524D01*
X152707248Y-93179524D02*
X152719629Y-93154762D01*
X152719629Y-93154762D02*
X152719629Y-93105238D01*
X152719629Y-93105238D02*
X152732010Y-93080476D01*
X152732010Y-93080476D02*
X152744391Y-93068095D01*
X152744391Y-93068095D02*
X152769153Y-93055714D01*
X152769153Y-93055714D02*
X152818677Y-93055714D01*
X152818677Y-93055714D02*
X152843439Y-93068095D01*
X152843439Y-93068095D02*
X152855820Y-93080476D01*
X152855820Y-93080476D02*
X152868200Y-93105238D01*
X152868200Y-93105238D02*
X152868200Y-93154762D01*
X152868200Y-93154762D02*
X152855820Y-93179524D01*
X152855820Y-93179524D02*
X152843439Y-93191905D01*
X152843439Y-93191905D02*
X152818677Y-93204286D01*
X152818677Y-93204286D02*
X152769153Y-93204286D01*
X152769153Y-93204286D02*
X152744391Y-93191905D01*
X152744391Y-93191905D02*
X152732010Y-93179524D01*
X152732010Y-93179524D02*
X152719629Y-93154762D01*
D11*
X140535713Y-93962904D02*
X140702380Y-93962904D01*
X140702380Y-94224809D02*
X140702380Y-93724809D01*
X140702380Y-93724809D02*
X140464285Y-93724809D01*
X140273809Y-94224809D02*
X140273809Y-93724809D01*
X140035714Y-94224809D02*
X140035714Y-93724809D01*
X140035714Y-93724809D02*
X139916666Y-93724809D01*
X139916666Y-93724809D02*
X139845238Y-93748619D01*
X139845238Y-93748619D02*
X139797619Y-93796238D01*
X139797619Y-93796238D02*
X139773809Y-93843857D01*
X139773809Y-93843857D02*
X139750000Y-93939095D01*
X139750000Y-93939095D02*
X139750000Y-94010523D01*
X139750000Y-94010523D02*
X139773809Y-94105761D01*
X139773809Y-94105761D02*
X139797619Y-94153380D01*
X139797619Y-94153380D02*
X139845238Y-94201000D01*
X139845238Y-94201000D02*
X139916666Y-94224809D01*
X139916666Y-94224809D02*
X140035714Y-94224809D01*
X139321428Y-93891476D02*
X139321428Y-94224809D01*
X139440476Y-93701000D02*
X139559523Y-94058142D01*
X139559523Y-94058142D02*
X139250000Y-94058142D01*
D12*
X140214285Y-92985681D02*
X140280951Y-92985681D01*
X140280951Y-93090443D02*
X140280951Y-92890443D01*
X140280951Y-92890443D02*
X140185713Y-92890443D01*
X140109522Y-93090443D02*
X140109522Y-92890443D01*
X140014284Y-93090443D02*
X140014284Y-92890443D01*
X140014284Y-92890443D02*
X139966665Y-92890443D01*
X139966665Y-92890443D02*
X139938094Y-92899967D01*
X139938094Y-92899967D02*
X139919046Y-92919015D01*
X139919046Y-92919015D02*
X139909523Y-92938062D01*
X139909523Y-92938062D02*
X139899999Y-92976158D01*
X139899999Y-92976158D02*
X139899999Y-93004729D01*
X139899999Y-93004729D02*
X139909523Y-93042824D01*
X139909523Y-93042824D02*
X139919046Y-93061872D01*
X139919046Y-93061872D02*
X139938094Y-93080920D01*
X139938094Y-93080920D02*
X139966665Y-93090443D01*
X139966665Y-93090443D02*
X140014284Y-93090443D01*
X139728570Y-92957110D02*
X139728570Y-93090443D01*
X139776189Y-92880920D02*
X139823808Y-93023777D01*
X139823808Y-93023777D02*
X139699999Y-93023777D01*
D11*
X157641476Y-99297620D02*
X157974809Y-99297620D01*
X157451000Y-99178572D02*
X157808142Y-99059525D01*
X157808142Y-99059525D02*
X157808142Y-99369048D01*
X157927190Y-99559524D02*
X157951000Y-99583334D01*
X157951000Y-99583334D02*
X157974809Y-99559524D01*
X157974809Y-99559524D02*
X157951000Y-99535715D01*
X157951000Y-99535715D02*
X157927190Y-99559524D01*
X157927190Y-99559524D02*
X157974809Y-99559524D01*
X157474809Y-99750000D02*
X157474809Y-100083333D01*
X157474809Y-100083333D02*
X157974809Y-99869048D01*
X157641476Y-100488095D02*
X157974809Y-100488095D01*
X157641476Y-100273809D02*
X157903380Y-100273809D01*
X157903380Y-100273809D02*
X157951000Y-100297619D01*
X157951000Y-100297619D02*
X157974809Y-100345238D01*
X157974809Y-100345238D02*
X157974809Y-100416666D01*
X157974809Y-100416666D02*
X157951000Y-100464285D01*
X157951000Y-100464285D02*
X157927190Y-100488095D01*
X157712904Y-100892857D02*
X157712904Y-100726190D01*
X157974809Y-100726190D02*
X157474809Y-100726190D01*
X157474809Y-100726190D02*
X157474809Y-100964285D01*
D13*
X158643832Y-99933333D02*
X158662880Y-99914285D01*
X158662880Y-99914285D02*
X158681927Y-99857143D01*
X158681927Y-99857143D02*
X158681927Y-99819047D01*
X158681927Y-99819047D02*
X158662880Y-99761904D01*
X158662880Y-99761904D02*
X158624784Y-99723809D01*
X158624784Y-99723809D02*
X158586689Y-99704762D01*
X158586689Y-99704762D02*
X158510499Y-99685714D01*
X158510499Y-99685714D02*
X158453356Y-99685714D01*
X158453356Y-99685714D02*
X158377165Y-99704762D01*
X158377165Y-99704762D02*
X158339070Y-99723809D01*
X158339070Y-99723809D02*
X158300975Y-99761904D01*
X158300975Y-99761904D02*
X158281927Y-99819047D01*
X158281927Y-99819047D02*
X158281927Y-99857143D01*
X158281927Y-99857143D02*
X158300975Y-99914285D01*
X158300975Y-99914285D02*
X158320022Y-99933333D01*
X158320022Y-100085714D02*
X158300975Y-100104762D01*
X158300975Y-100104762D02*
X158281927Y-100142857D01*
X158281927Y-100142857D02*
X158281927Y-100238095D01*
X158281927Y-100238095D02*
X158300975Y-100276190D01*
X158300975Y-100276190D02*
X158320022Y-100295238D01*
X158320022Y-100295238D02*
X158358118Y-100314285D01*
X158358118Y-100314285D02*
X158396213Y-100314285D01*
X158396213Y-100314285D02*
X158453356Y-100295238D01*
X158453356Y-100295238D02*
X158681927Y-100066666D01*
X158681927Y-100066666D02*
X158681927Y-100314285D01*
D11*
X155641476Y-104547620D02*
X155974809Y-104547620D01*
X155451000Y-104428572D02*
X155808142Y-104309525D01*
X155808142Y-104309525D02*
X155808142Y-104619048D01*
X155927190Y-104809524D02*
X155951000Y-104833334D01*
X155951000Y-104833334D02*
X155974809Y-104809524D01*
X155974809Y-104809524D02*
X155951000Y-104785715D01*
X155951000Y-104785715D02*
X155927190Y-104809524D01*
X155927190Y-104809524D02*
X155974809Y-104809524D01*
X155474809Y-105000000D02*
X155474809Y-105333333D01*
X155474809Y-105333333D02*
X155974809Y-105119048D01*
X155641476Y-105738095D02*
X155974809Y-105738095D01*
X155641476Y-105523809D02*
X155903380Y-105523809D01*
X155903380Y-105523809D02*
X155951000Y-105547619D01*
X155951000Y-105547619D02*
X155974809Y-105595238D01*
X155974809Y-105595238D02*
X155974809Y-105666666D01*
X155974809Y-105666666D02*
X155951000Y-105714285D01*
X155951000Y-105714285D02*
X155927190Y-105738095D01*
X155712904Y-106142857D02*
X155712904Y-105976190D01*
X155974809Y-105976190D02*
X155474809Y-105976190D01*
X155474809Y-105976190D02*
X155474809Y-106214285D01*
D13*
X156643832Y-105183333D02*
X156662880Y-105164285D01*
X156662880Y-105164285D02*
X156681927Y-105107143D01*
X156681927Y-105107143D02*
X156681927Y-105069047D01*
X156681927Y-105069047D02*
X156662880Y-105011904D01*
X156662880Y-105011904D02*
X156624784Y-104973809D01*
X156624784Y-104973809D02*
X156586689Y-104954762D01*
X156586689Y-104954762D02*
X156510499Y-104935714D01*
X156510499Y-104935714D02*
X156453356Y-104935714D01*
X156453356Y-104935714D02*
X156377165Y-104954762D01*
X156377165Y-104954762D02*
X156339070Y-104973809D01*
X156339070Y-104973809D02*
X156300975Y-105011904D01*
X156300975Y-105011904D02*
X156281927Y-105069047D01*
X156281927Y-105069047D02*
X156281927Y-105107143D01*
X156281927Y-105107143D02*
X156300975Y-105164285D01*
X156300975Y-105164285D02*
X156320022Y-105183333D01*
X156281927Y-105316666D02*
X156281927Y-105564285D01*
X156281927Y-105564285D02*
X156434308Y-105430952D01*
X156434308Y-105430952D02*
X156434308Y-105488095D01*
X156434308Y-105488095D02*
X156453356Y-105526190D01*
X156453356Y-105526190D02*
X156472403Y-105545238D01*
X156472403Y-105545238D02*
X156510499Y-105564285D01*
X156510499Y-105564285D02*
X156605737Y-105564285D01*
X156605737Y-105564285D02*
X156643832Y-105545238D01*
X156643832Y-105545238D02*
X156662880Y-105526190D01*
X156662880Y-105526190D02*
X156681927Y-105488095D01*
X156681927Y-105488095D02*
X156681927Y-105373809D01*
X156681927Y-105373809D02*
X156662880Y-105335714D01*
X156662880Y-105335714D02*
X156643832Y-105316666D01*
D11*
X140345237Y-103474809D02*
X140035713Y-103474809D01*
X140035713Y-103474809D02*
X140202380Y-103665285D01*
X140202380Y-103665285D02*
X140130951Y-103665285D01*
X140130951Y-103665285D02*
X140083332Y-103689095D01*
X140083332Y-103689095D02*
X140059523Y-103712904D01*
X140059523Y-103712904D02*
X140035713Y-103760523D01*
X140035713Y-103760523D02*
X140035713Y-103879571D01*
X140035713Y-103879571D02*
X140059523Y-103927190D01*
X140059523Y-103927190D02*
X140083332Y-103951000D01*
X140083332Y-103951000D02*
X140130951Y-103974809D01*
X140130951Y-103974809D02*
X140273808Y-103974809D01*
X140273808Y-103974809D02*
X140321427Y-103951000D01*
X140321427Y-103951000D02*
X140345237Y-103927190D01*
X139726190Y-103474809D02*
X139678571Y-103474809D01*
X139678571Y-103474809D02*
X139630952Y-103498619D01*
X139630952Y-103498619D02*
X139607142Y-103522428D01*
X139607142Y-103522428D02*
X139583333Y-103570047D01*
X139583333Y-103570047D02*
X139559523Y-103665285D01*
X139559523Y-103665285D02*
X139559523Y-103784333D01*
X139559523Y-103784333D02*
X139583333Y-103879571D01*
X139583333Y-103879571D02*
X139607142Y-103927190D01*
X139607142Y-103927190D02*
X139630952Y-103951000D01*
X139630952Y-103951000D02*
X139678571Y-103974809D01*
X139678571Y-103974809D02*
X139726190Y-103974809D01*
X139726190Y-103974809D02*
X139773809Y-103951000D01*
X139773809Y-103951000D02*
X139797618Y-103927190D01*
X139797618Y-103927190D02*
X139821428Y-103879571D01*
X139821428Y-103879571D02*
X139845237Y-103784333D01*
X139845237Y-103784333D02*
X139845237Y-103665285D01*
X139845237Y-103665285D02*
X139821428Y-103570047D01*
X139821428Y-103570047D02*
X139797618Y-103522428D01*
X139797618Y-103522428D02*
X139773809Y-103498619D01*
X139773809Y-103498619D02*
X139726190Y-103474809D01*
X139345238Y-103641476D02*
X139345238Y-104141476D01*
X139345238Y-103665285D02*
X139297619Y-103641476D01*
X139297619Y-103641476D02*
X139202381Y-103641476D01*
X139202381Y-103641476D02*
X139154762Y-103665285D01*
X139154762Y-103665285D02*
X139130952Y-103689095D01*
X139130952Y-103689095D02*
X139107143Y-103736714D01*
X139107143Y-103736714D02*
X139107143Y-103879571D01*
X139107143Y-103879571D02*
X139130952Y-103927190D01*
X139130952Y-103927190D02*
X139154762Y-103951000D01*
X139154762Y-103951000D02*
X139202381Y-103974809D01*
X139202381Y-103974809D02*
X139297619Y-103974809D01*
X139297619Y-103974809D02*
X139345238Y-103951000D01*
X138726190Y-103712904D02*
X138892857Y-103712904D01*
X138892857Y-103974809D02*
X138892857Y-103474809D01*
X138892857Y-103474809D02*
X138654762Y-103474809D01*
D12*
X139660714Y-103089765D02*
X139672618Y-103101670D01*
X139672618Y-103101670D02*
X139708333Y-103113574D01*
X139708333Y-103113574D02*
X139732142Y-103113574D01*
X139732142Y-103113574D02*
X139767856Y-103101670D01*
X139767856Y-103101670D02*
X139791666Y-103077860D01*
X139791666Y-103077860D02*
X139803571Y-103054050D01*
X139803571Y-103054050D02*
X139815475Y-103006431D01*
X139815475Y-103006431D02*
X139815475Y-102970717D01*
X139815475Y-102970717D02*
X139803571Y-102923098D01*
X139803571Y-102923098D02*
X139791666Y-102899289D01*
X139791666Y-102899289D02*
X139767856Y-102875479D01*
X139767856Y-102875479D02*
X139732142Y-102863574D01*
X139732142Y-102863574D02*
X139708333Y-102863574D01*
X139708333Y-102863574D02*
X139672618Y-102875479D01*
X139672618Y-102875479D02*
X139660714Y-102887384D01*
X139422618Y-103113574D02*
X139565475Y-103113574D01*
X139494047Y-103113574D02*
X139494047Y-102863574D01*
X139494047Y-102863574D02*
X139517856Y-102899289D01*
X139517856Y-102899289D02*
X139541666Y-102923098D01*
X139541666Y-102923098D02*
X139565475Y-102935003D01*
X139184523Y-103113574D02*
X139327380Y-103113574D01*
X139255952Y-103113574D02*
X139255952Y-102863574D01*
X139255952Y-102863574D02*
X139279761Y-102899289D01*
X139279761Y-102899289D02*
X139303571Y-102923098D01*
X139303571Y-102923098D02*
X139327380Y-102935003D01*
D15*
%TO.C,H2*%
X165130000Y-93000000D02*
G75*
G03*
X162870000Y-93000000I-1130000J0D01*
G01*
X162870000Y-93000000D02*
G75*
G03*
X165130000Y-93000000I1130000J0D01*
G01*
%TO.C,H4*%
X137130000Y-107000000D02*
G75*
G03*
X134870000Y-107000000I-1130000J0D01*
G01*
X134870000Y-107000000D02*
G75*
G03*
X137130000Y-107000000I1130000J0D01*
G01*
%TO.C,H3*%
X165130000Y-107000000D02*
G75*
G03*
X162870000Y-107000000I-1130000J0D01*
G01*
X162870000Y-107000000D02*
G75*
G03*
X165130000Y-107000000I1130000J0D01*
G01*
%TO.C,H1*%
X137130000Y-93000000D02*
G75*
G03*
X134870000Y-93000000I-1130000J0D01*
G01*
X134870000Y-93000000D02*
G75*
G03*
X137130000Y-93000000I1130000J0D01*
G01*
D10*
%TO.C,C7*%
X145000000Y-93500000D02*
X145500000Y-93500000D01*
X145500000Y-93500000D02*
X145500000Y-92500000D01*
X145000000Y-92500000D02*
X145000000Y-93500000D01*
X145500000Y-92500000D02*
X145000000Y-92500000D01*
%TO.C,R3*%
X148520000Y-92475000D02*
X147980000Y-92475000D01*
X147980000Y-92475000D02*
X147980000Y-93525000D01*
X148520000Y-93525000D02*
X148520000Y-92475000D01*
X147980000Y-93525000D02*
X148520000Y-93525000D01*
%TO.C,C4*%
X156100000Y-95550000D02*
X156900000Y-95550000D01*
X156900000Y-95550000D02*
X156900000Y-93950000D01*
X156100000Y-93950000D02*
X156100000Y-95550000D01*
X156900000Y-93950000D02*
X156100000Y-93950000D01*
%TO.C,C5*%
X154100000Y-106050000D02*
X154900000Y-106050000D01*
X154900000Y-106050000D02*
X154900000Y-104450000D01*
X154100000Y-104450000D02*
X154100000Y-106050000D01*
X154900000Y-104450000D02*
X154100000Y-104450000D01*
%TO.C,C1*%
X154100000Y-95550000D02*
X154900000Y-95550000D01*
X154900000Y-95550000D02*
X154900000Y-93950000D01*
X154100000Y-93950000D02*
X154100000Y-95550000D01*
X154900000Y-93950000D02*
X154100000Y-93950000D01*
%TO.C,R6*%
X149480000Y-93525000D02*
X150020000Y-93525000D01*
X150020000Y-93525000D02*
X150020000Y-92475000D01*
X149480000Y-92475000D02*
X149480000Y-93525000D01*
X150020000Y-92475000D02*
X149480000Y-92475000D01*
%TO.C,U4*%
X138000000Y-101500000D02*
X140500000Y-101500000D01*
X141000000Y-101000000D02*
X140500000Y-101500000D01*
X141000000Y-101000000D02*
X141000000Y-98500000D01*
X138000000Y-98500000D02*
X138000000Y-101500000D01*
X141000000Y-98500000D02*
X138000000Y-98500000D01*
%TO.C,R4*%
X148520000Y-106475000D02*
X147980000Y-106475000D01*
X147980000Y-106475000D02*
X147980000Y-107525000D01*
X148520000Y-107525000D02*
X148520000Y-106475000D01*
X147980000Y-107525000D02*
X148520000Y-107525000D01*
%TO.C,FID2*%
X160500000Y-107000000D02*
G75*
G03*
X159500000Y-107000000I-500000J0D01*
G01*
X159500000Y-107000000D02*
G75*
G03*
X160500000Y-107000000I500000J0D01*
G01*
%TO.C,R11*%
X135450000Y-101600000D02*
X137050000Y-101600000D01*
X137050000Y-101600000D02*
X137050000Y-98400000D01*
X135450000Y-98400000D02*
X135450000Y-101600000D01*
X137050000Y-98400000D02*
X135450000Y-98400000D01*
D16*
%TO.C,U1*%
X153950000Y-101550000D02*
X153950000Y-98450000D01*
X157050000Y-101550000D02*
X153950000Y-101550000D01*
X157050000Y-101550000D02*
X157050000Y-98450000D01*
X157050000Y-98450000D02*
X153950000Y-98450000D01*
D14*
X157045000Y-102000000D02*
G75*
G03*
X156845000Y-102000000I-100000J0D01*
G01*
X156845000Y-102000000D02*
G75*
G03*
X157045000Y-102000000I100000J0D01*
G01*
D10*
%TO.C,U3*%
X142350000Y-103750000D02*
X151650000Y-103750000D01*
X151650000Y-103750000D02*
X152650000Y-102750000D01*
X152650000Y-102750000D02*
X152650000Y-96250000D01*
X142350000Y-96250000D02*
X142350000Y-103750000D01*
X152650000Y-96250000D02*
X142350000Y-96250000D01*
D15*
X153150000Y-104750000D02*
G75*
G03*
X152850000Y-104750000I-150000J0D01*
G01*
X152850000Y-104750000D02*
G75*
G03*
X153150000Y-104750000I150000J0D01*
G01*
%TO.C,J2*%
X164800000Y-98700000D02*
X164800000Y-101300000D01*
X162700000Y-98700000D02*
X164800000Y-98700000D01*
X162200000Y-99200000D02*
X162700000Y-98700000D01*
X162200000Y-99200000D02*
X162200000Y-100800000D01*
X162200000Y-100800000D02*
X162700000Y-101300000D01*
X162700000Y-101300000D02*
X164800000Y-101300000D01*
D16*
X163676775Y-100000000D02*
G75*
G03*
X163323225Y-100000000I-176775J0D01*
G01*
X163323225Y-100000000D02*
G75*
G03*
X163676775Y-100000000I176775J0D01*
G01*
X164500000Y-100000000D02*
G75*
G03*
X162500000Y-100000000I-1000000J0D01*
G01*
X162500000Y-100000000D02*
G75*
G03*
X164500000Y-100000000I1000000J0D01*
G01*
D10*
%TO.C,C10*%
X140000000Y-97250000D02*
X140000000Y-96750000D01*
X140000000Y-96750000D02*
X139000000Y-96750000D01*
X139000000Y-97250000D02*
X140000000Y-97250000D01*
X139000000Y-96750000D02*
X139000000Y-97250000D01*
%TO.C,C9*%
X144000000Y-92500000D02*
X143500000Y-92500000D01*
X143500000Y-92500000D02*
X143500000Y-93500000D01*
X144000000Y-93500000D02*
X144000000Y-92500000D01*
X143500000Y-93500000D02*
X144000000Y-93500000D01*
%TO.C,R8*%
X153020000Y-92475000D02*
X152480000Y-92475000D01*
X152480000Y-92475000D02*
X152480000Y-93525000D01*
X153020000Y-93525000D02*
X153020000Y-92475000D01*
X152480000Y-93525000D02*
X153020000Y-93525000D01*
%TO.C,FID4*%
X140500000Y-93000000D02*
G75*
G03*
X139500000Y-93000000I-500000J0D01*
G01*
X139500000Y-93000000D02*
G75*
G03*
X140500000Y-93000000I500000J0D01*
G01*
%TO.C,C2*%
X158900000Y-99200000D02*
X158100000Y-99200000D01*
X158100000Y-99200000D02*
X158100000Y-100800000D01*
X158900000Y-100800000D02*
X158900000Y-99200000D01*
X158100000Y-100800000D02*
X158900000Y-100800000D01*
%TO.C,C3*%
X156900000Y-104450000D02*
X156100000Y-104450000D01*
X156100000Y-104450000D02*
X156100000Y-106050000D01*
X156900000Y-106050000D02*
X156900000Y-104450000D01*
X156100000Y-106050000D02*
X156900000Y-106050000D01*
%TO.C,C11*%
X140000000Y-103250000D02*
X140000000Y-102750000D01*
X140000000Y-102750000D02*
X139000000Y-102750000D01*
X139000000Y-103250000D02*
X140000000Y-103250000D01*
X139000000Y-102750000D02*
X139000000Y-103250000D01*
%TD*%
D17*
X134000000Y-93000000D02*
X134000000Y-107000000D01*
X164000000Y-109000000D02*
G75*
G03*
X166000000Y-107000000I0J2000000D01*
G01*
X166000000Y-93000000D02*
G75*
G03*
X164000000Y-91000000I-2000000J0D01*
G01*
X136000000Y-91000000D02*
X164000000Y-91000000D01*
X136000000Y-91000000D02*
G75*
G03*
X134000000Y-93000000I0J-2000000D01*
G01*
X166000000Y-107000000D02*
X166000000Y-93000000D01*
X136000000Y-109000000D02*
X164000000Y-109000000D01*
X134000000Y-107000000D02*
G75*
G03*
X136000000Y-109000000I2000000J0D01*
G01*
M02*
