%TF.GenerationSoftware,KiCad,Pcbnew,7.0.10*%
%TF.CreationDate,2024-02-15T14:25:29-05:00*%
%TF.ProjectId,wingbeat_detector,77696e67-6265-4617-945f-646574656374,4.0*%
%TF.SameCoordinates,Original*%
%TF.FileFunction,Copper,L3,Inr*%
%TF.FilePolarity,Positive*%
%FSLAX46Y46*%
G04 Gerber Fmt 4.6, Leading zero omitted, Abs format (unit mm)*
G04 Created by KiCad (PCBNEW 7.0.10) date 2024-02-15 14:25:29*
%MOMM*%
%LPD*%
G01*
G04 APERTURE LIST*
%TA.AperFunction,ComponentPad*%
%ADD10C,2.660000*%
%TD*%
%TA.AperFunction,ComponentPad*%
%ADD11C,0.600000*%
%TD*%
%TA.AperFunction,ComponentPad*%
%ADD12O,1.300000X0.800000*%
%TD*%
%TA.AperFunction,ViaPad*%
%ADD13C,0.800000*%
%TD*%
%TA.AperFunction,Conductor*%
%ADD14C,0.150000*%
%TD*%
%TA.AperFunction,Profile*%
%ADD15C,0.100000*%
%TD*%
G04 APERTURE END LIST*
D10*
%TO.N,/GND*%
%TO.C,H2*%
X164000000Y-93000000D03*
%TD*%
D11*
%TO.N,/GND*%
%TO.C,J1*%
X159650000Y-97150000D03*
%TO.N,unconnected-(J1-SSTXP2-PadB2)*%
X160350000Y-97550000D03*
%TO.N,unconnected-(J1-SSTXN2-PadB3)*%
X160350000Y-98350000D03*
%TO.N,/V5+*%
X159650000Y-98750000D03*
%TO.N,unconnected-(J1-CC2-PadB5)*%
X160350000Y-99150000D03*
%TO.N,unconnected-(J1-DP2-PadB6)*%
X159650000Y-99550000D03*
%TO.N,unconnected-(J1-DN2-PadB7)*%
X159650000Y-100350000D03*
%TO.N,unconnected-(J1-SBU2-PadB8)*%
X160350000Y-100750000D03*
%TO.N,/V5+*%
X159650000Y-101150000D03*
%TO.N,unconnected-(J1-SSRXN1-PadB10)*%
X160350000Y-101550000D03*
%TO.N,unconnected-(J1-SSRXP1-PadB11)*%
X160350000Y-102350000D03*
%TO.N,/GND*%
X159650000Y-102750000D03*
D12*
%TO.N,unconnected-(J1-SHIELD-PadS1)*%
X160250000Y-104080000D03*
%TO.N,unconnected-(J1-SHIELD-PadS2)*%
X160250000Y-95820000D03*
%TO.N,unconnected-(J1-SHIELD-PadS3)*%
X164700000Y-104490000D03*
%TO.N,unconnected-(J1-SHIELD-PadS4)*%
X164700000Y-95510000D03*
%TD*%
D10*
%TO.N,/GND*%
%TO.C,H4*%
X136000000Y-107000000D03*
%TD*%
%TO.N,/GND*%
%TO.C,H3*%
X164000000Y-107000000D03*
%TD*%
%TO.N,/GND*%
%TO.C,H1*%
X136000000Y-93000000D03*
%TD*%
D13*
%TO.N,/filter/HIGHPASS_AMPLIFIED*%
X146667000Y-92098500D03*
%TO.N,/V5+*%
X140536000Y-97740200D03*
%TO.N,/V10+*%
X149397400Y-102199800D03*
%TO.N,/V10-*%
X148494700Y-102757700D03*
%TO.N,Net-(D1-K)*%
X141341700Y-102367800D03*
%TO.N,/PHOTODIODE_SIG*%
X139250000Y-104750000D03*
%TD*%
D14*
%TO.N,/V5+*%
X141545800Y-98750000D02*
X140536000Y-97740200D01*
X159650000Y-98750000D02*
X141545800Y-98750000D01*
%TD*%
%TA.AperFunction,Conductor*%
%TO.N,/V5+*%
G36*
X146668308Y-91314979D02*
G01*
X146695898Y-91301981D01*
X146715004Y-91300500D01*
X163693258Y-91300500D01*
X163760297Y-91320185D01*
X163806052Y-91372989D01*
X163815996Y-91442147D01*
X163786971Y-91505703D01*
X163728193Y-91543477D01*
X163713667Y-91546809D01*
X163635310Y-91559884D01*
X163403259Y-91639548D01*
X163403245Y-91639554D01*
X163187473Y-91756323D01*
X163187464Y-91756329D01*
X162993854Y-91907022D01*
X162993850Y-91907025D01*
X162827670Y-92087544D01*
X162693477Y-92292943D01*
X162594917Y-92517637D01*
X162534686Y-92755486D01*
X162514426Y-92999994D01*
X162514426Y-93000005D01*
X162534686Y-93244513D01*
X162594917Y-93482362D01*
X162693477Y-93707056D01*
X162827670Y-93912455D01*
X162993850Y-94092974D01*
X162993854Y-94092977D01*
X163187468Y-94243673D01*
X163187470Y-94243674D01*
X163187473Y-94243676D01*
X163312917Y-94311562D01*
X163403252Y-94360449D01*
X163523753Y-94401817D01*
X163635309Y-94440115D01*
X163635311Y-94440115D01*
X163635313Y-94440116D01*
X163877322Y-94480500D01*
X163877323Y-94480500D01*
X164122677Y-94480500D01*
X164122678Y-94480500D01*
X164364687Y-94440116D01*
X164596748Y-94360449D01*
X164812532Y-94243673D01*
X165006152Y-94092972D01*
X165172327Y-93912458D01*
X165306523Y-93707055D01*
X165405082Y-93482365D01*
X165455294Y-93284080D01*
X165490834Y-93223925D01*
X165553254Y-93192533D01*
X165622737Y-93199871D01*
X165677223Y-93243610D01*
X165699412Y-93309862D01*
X165699500Y-93314521D01*
X165699500Y-95251061D01*
X165679815Y-95318100D01*
X165627011Y-95363855D01*
X165557853Y-95373799D01*
X165494297Y-95344774D01*
X165465403Y-95308110D01*
X165434716Y-95248889D01*
X165403971Y-95189553D01*
X165403968Y-95189550D01*
X165403967Y-95189548D01*
X165300681Y-95078956D01*
X165222053Y-95031141D01*
X165171382Y-95000328D01*
X165025665Y-94959500D01*
X164412342Y-94959500D01*
X164412341Y-94959500D01*
X164300082Y-94974929D01*
X164300079Y-94974930D01*
X164161283Y-95035217D01*
X164043889Y-95130724D01*
X163956623Y-95254352D01*
X163956621Y-95254355D01*
X163905946Y-95396939D01*
X163905946Y-95396942D01*
X163895619Y-95547918D01*
X163895619Y-95547921D01*
X163926405Y-95696078D01*
X163926407Y-95696083D01*
X163926408Y-95696085D01*
X163996029Y-95830447D01*
X163996031Y-95830449D01*
X163996032Y-95830451D01*
X164099318Y-95941043D01*
X164099320Y-95941044D01*
X164228618Y-96019672D01*
X164374335Y-96060500D01*
X164374336Y-96060500D01*
X164987659Y-96060500D01*
X165015723Y-96056642D01*
X165099920Y-96045070D01*
X165209854Y-95997318D01*
X165238716Y-95984782D01*
X165238716Y-95984781D01*
X165238720Y-95984780D01*
X165356108Y-95889278D01*
X165443377Y-95765647D01*
X165458660Y-95722646D01*
X165499658Y-95666069D01*
X165564735Y-95640639D01*
X165633231Y-95654430D01*
X165683397Y-95703062D01*
X165699500Y-95764171D01*
X165699500Y-104231061D01*
X165679815Y-104298100D01*
X165627011Y-104343855D01*
X165557853Y-104353799D01*
X165494297Y-104324774D01*
X165465403Y-104288110D01*
X165416149Y-104193056D01*
X165403971Y-104169553D01*
X165403968Y-104169550D01*
X165403967Y-104169548D01*
X165300681Y-104058956D01*
X165216609Y-104007831D01*
X165171382Y-103980328D01*
X165025665Y-103939500D01*
X164412342Y-103939500D01*
X164412341Y-103939500D01*
X164300082Y-103954929D01*
X164300079Y-103954930D01*
X164161283Y-104015217D01*
X164043889Y-104110724D01*
X163956623Y-104234352D01*
X163956621Y-104234355D01*
X163905946Y-104376939D01*
X163905946Y-104376942D01*
X163895619Y-104527918D01*
X163895619Y-104527921D01*
X163926405Y-104676078D01*
X163926407Y-104676083D01*
X163926408Y-104676085D01*
X163996029Y-104810447D01*
X163996031Y-104810449D01*
X163996032Y-104810451D01*
X164099318Y-104921043D01*
X164099320Y-104921044D01*
X164228618Y-104999672D01*
X164374335Y-105040500D01*
X164374336Y-105040500D01*
X164987659Y-105040500D01*
X165015723Y-105036642D01*
X165099920Y-105025070D01*
X165209854Y-104977318D01*
X165238716Y-104964782D01*
X165238716Y-104964781D01*
X165238720Y-104964780D01*
X165356108Y-104869278D01*
X165443377Y-104745647D01*
X165458660Y-104702646D01*
X165499658Y-104646069D01*
X165564735Y-104620639D01*
X165633231Y-104634430D01*
X165683397Y-104683062D01*
X165699500Y-104744171D01*
X165699500Y-106685478D01*
X165679815Y-106752517D01*
X165627011Y-106798272D01*
X165557853Y-106808216D01*
X165494297Y-106779191D01*
X165456523Y-106720413D01*
X165455294Y-106715918D01*
X165442682Y-106666117D01*
X165405082Y-106517635D01*
X165306523Y-106292945D01*
X165306522Y-106292943D01*
X165172329Y-106087544D01*
X165006149Y-105907025D01*
X165006145Y-105907022D01*
X164812535Y-105756329D01*
X164812526Y-105756323D01*
X164596754Y-105639554D01*
X164596751Y-105639553D01*
X164596748Y-105639551D01*
X164596742Y-105639549D01*
X164596740Y-105639548D01*
X164364690Y-105559884D01*
X164183180Y-105529596D01*
X164122678Y-105519500D01*
X163877322Y-105519500D01*
X163828920Y-105527576D01*
X163635309Y-105559884D01*
X163403259Y-105639548D01*
X163403245Y-105639554D01*
X163187473Y-105756323D01*
X163187464Y-105756329D01*
X162993854Y-105907022D01*
X162993850Y-105907025D01*
X162827670Y-106087544D01*
X162693477Y-106292943D01*
X162594917Y-106517637D01*
X162534686Y-106755486D01*
X162514426Y-106999994D01*
X162514426Y-107000005D01*
X162534686Y-107244513D01*
X162594917Y-107482362D01*
X162693477Y-107707056D01*
X162827670Y-107912455D01*
X162993850Y-108092974D01*
X162993854Y-108092977D01*
X163121478Y-108192311D01*
X163187468Y-108243673D01*
X163187470Y-108243674D01*
X163187473Y-108243676D01*
X163262718Y-108284396D01*
X163403252Y-108360449D01*
X163635313Y-108440116D01*
X163702666Y-108451355D01*
X163713667Y-108453191D01*
X163776553Y-108483641D01*
X163812992Y-108543256D01*
X163811417Y-108613108D01*
X163772327Y-108671020D01*
X163708134Y-108698604D01*
X163693258Y-108699500D01*
X136306742Y-108699500D01*
X136239703Y-108679815D01*
X136193948Y-108627011D01*
X136184004Y-108557853D01*
X136213029Y-108494297D01*
X136271807Y-108456523D01*
X136286333Y-108453191D01*
X136294879Y-108451764D01*
X136364687Y-108440116D01*
X136596748Y-108360449D01*
X136812532Y-108243673D01*
X137006152Y-108092972D01*
X137172327Y-107912458D01*
X137306523Y-107707055D01*
X137405082Y-107482365D01*
X137465313Y-107244517D01*
X137485574Y-107000000D01*
X137481630Y-106952405D01*
X137472066Y-106836988D01*
X137465313Y-106755483D01*
X137405082Y-106517635D01*
X137306523Y-106292945D01*
X137306522Y-106292943D01*
X137172329Y-106087544D01*
X137006149Y-105907025D01*
X137006145Y-105907022D01*
X136812535Y-105756329D01*
X136812526Y-105756323D01*
X136596754Y-105639554D01*
X136596751Y-105639553D01*
X136596748Y-105639551D01*
X136596742Y-105639549D01*
X136596740Y-105639548D01*
X136364690Y-105559884D01*
X136183180Y-105529596D01*
X136122678Y-105519500D01*
X135877322Y-105519500D01*
X135828920Y-105527576D01*
X135635309Y-105559884D01*
X135403259Y-105639548D01*
X135403245Y-105639554D01*
X135187473Y-105756323D01*
X135187464Y-105756329D01*
X134993854Y-105907022D01*
X134993850Y-105907025D01*
X134827670Y-106087544D01*
X134693477Y-106292943D01*
X134594917Y-106517637D01*
X134544706Y-106715918D01*
X134509166Y-106776074D01*
X134446746Y-106807466D01*
X134377263Y-106800128D01*
X134322777Y-106756389D01*
X134300588Y-106690137D01*
X134300500Y-106685478D01*
X134300500Y-104750000D01*
X138694750Y-104750000D01*
X138713670Y-104893708D01*
X138713671Y-104893712D01*
X138769137Y-105027622D01*
X138769138Y-105027624D01*
X138769139Y-105027625D01*
X138857379Y-105142621D01*
X138972375Y-105230861D01*
X139106291Y-105286330D01*
X139233280Y-105303048D01*
X139249999Y-105305250D01*
X139250000Y-105305250D01*
X139250001Y-105305250D01*
X139264977Y-105303278D01*
X139393709Y-105286330D01*
X139527625Y-105230861D01*
X139642621Y-105142621D01*
X139730861Y-105027625D01*
X139786330Y-104893709D01*
X139805250Y-104750000D01*
X139786330Y-104606291D01*
X139730861Y-104472375D01*
X139642621Y-104357379D01*
X139527625Y-104269139D01*
X139527624Y-104269138D01*
X139527622Y-104269137D01*
X139393712Y-104213671D01*
X139393710Y-104213670D01*
X139393709Y-104213670D01*
X139321854Y-104204210D01*
X139250001Y-104194750D01*
X139249999Y-104194750D01*
X139106291Y-104213670D01*
X139106287Y-104213671D01*
X138972377Y-104269137D01*
X138857379Y-104357379D01*
X138769137Y-104472377D01*
X138713671Y-104606287D01*
X138713670Y-104606291D01*
X138694750Y-104749999D01*
X138694750Y-104750000D01*
X134300500Y-104750000D01*
X134300500Y-103618367D01*
X158524500Y-103618367D01*
X158563021Y-103749559D01*
X158563020Y-103749559D01*
X158636942Y-103864586D01*
X158636946Y-103864590D01*
X158740278Y-103954127D01*
X158740285Y-103954132D01*
X158797647Y-103980328D01*
X158864658Y-104010931D01*
X158965989Y-104025500D01*
X158965992Y-104025500D01*
X159034008Y-104025500D01*
X159034011Y-104025500D01*
X159135342Y-104010931D01*
X159205631Y-103978830D01*
X159267786Y-103950446D01*
X159268516Y-103952045D01*
X159325316Y-103935359D01*
X159392358Y-103955034D01*
X159438121Y-104007831D01*
X159449045Y-104067819D01*
X159445618Y-104117916D01*
X159445619Y-104117921D01*
X159476405Y-104266078D01*
X159476407Y-104266083D01*
X159476408Y-104266085D01*
X159546029Y-104400447D01*
X159546031Y-104400449D01*
X159546032Y-104400451D01*
X159649318Y-104511043D01*
X159649320Y-104511044D01*
X159778618Y-104589672D01*
X159924335Y-104630500D01*
X159924336Y-104630500D01*
X160537659Y-104630500D01*
X160565723Y-104626642D01*
X160649920Y-104615070D01*
X160759854Y-104567318D01*
X160788716Y-104554782D01*
X160788716Y-104554781D01*
X160788720Y-104554780D01*
X160906108Y-104459278D01*
X160993377Y-104335647D01*
X161017015Y-104269137D01*
X161044053Y-104193060D01*
X161044053Y-104193058D01*
X161044054Y-104193056D01*
X161054381Y-104042079D01*
X161048799Y-104015217D01*
X161023594Y-103893921D01*
X161023592Y-103893918D01*
X161023592Y-103893915D01*
X160953971Y-103759553D01*
X160953967Y-103759549D01*
X160953967Y-103759548D01*
X160850681Y-103648956D01*
X160770297Y-103600074D01*
X160721382Y-103570328D01*
X160575665Y-103529500D01*
X159962342Y-103529500D01*
X159962341Y-103529500D01*
X159850082Y-103544929D01*
X159850079Y-103544930D01*
X159711282Y-103605218D01*
X159711280Y-103605219D01*
X159677754Y-103632495D01*
X159613327Y-103659533D01*
X159544511Y-103647446D01*
X159493153Y-103600074D01*
X159475500Y-103536306D01*
X159475500Y-103481632D01*
X159438789Y-103356606D01*
X159438789Y-103286736D01*
X159476563Y-103227958D01*
X159540119Y-103198933D01*
X159576120Y-103201516D01*
X159576448Y-103199238D01*
X159585227Y-103200500D01*
X159585228Y-103200500D01*
X159714773Y-103200500D01*
X159714773Y-103200499D01*
X159839069Y-103164004D01*
X159948049Y-103093967D01*
X160032882Y-102996063D01*
X160086697Y-102878226D01*
X160086697Y-102878224D01*
X160088531Y-102871980D01*
X160126305Y-102813201D01*
X160189861Y-102784176D01*
X160242440Y-102787936D01*
X160285228Y-102800500D01*
X160414773Y-102800500D01*
X160414773Y-102800499D01*
X160539069Y-102764004D01*
X160648049Y-102693967D01*
X160732882Y-102596063D01*
X160786697Y-102478226D01*
X160805133Y-102350000D01*
X160786697Y-102221774D01*
X160732882Y-102103937D01*
X160732880Y-102103935D01*
X160732879Y-102103932D01*
X160669858Y-102031202D01*
X160640833Y-101967647D01*
X160650777Y-101898488D01*
X160669858Y-101868798D01*
X160732879Y-101796067D01*
X160732879Y-101796065D01*
X160732882Y-101796063D01*
X160786697Y-101678226D01*
X160805133Y-101550000D01*
X160786697Y-101421774D01*
X160732882Y-101303937D01*
X160732880Y-101303935D01*
X160732879Y-101303932D01*
X160669858Y-101231202D01*
X160640833Y-101167647D01*
X160650777Y-101098488D01*
X160669858Y-101068798D01*
X160732879Y-100996067D01*
X160732879Y-100996065D01*
X160732882Y-100996063D01*
X160786697Y-100878226D01*
X160805133Y-100750000D01*
X160786697Y-100621774D01*
X160732882Y-100503937D01*
X160648049Y-100406033D01*
X160539069Y-100335996D01*
X160539065Y-100335994D01*
X160539064Y-100335994D01*
X160414774Y-100299500D01*
X160414772Y-100299500D01*
X160285228Y-100299500D01*
X160285226Y-100299500D01*
X160242442Y-100312062D01*
X160172572Y-100312062D01*
X160113794Y-100274287D01*
X160088531Y-100228022D01*
X160086697Y-100221779D01*
X160086697Y-100221774D01*
X160032882Y-100103937D01*
X160032880Y-100103935D01*
X160032879Y-100103932D01*
X159969858Y-100031202D01*
X159940833Y-99967647D01*
X159950777Y-99898488D01*
X159969858Y-99868798D01*
X160032879Y-99796067D01*
X160032879Y-99796065D01*
X160032882Y-99796063D01*
X160086697Y-99678226D01*
X160086697Y-99678224D01*
X160088531Y-99671980D01*
X160126305Y-99613201D01*
X160189861Y-99584176D01*
X160242440Y-99587936D01*
X160285228Y-99600500D01*
X160414773Y-99600500D01*
X160414773Y-99600499D01*
X160539069Y-99564004D01*
X160648049Y-99493967D01*
X160732882Y-99396063D01*
X160786697Y-99278226D01*
X160805133Y-99150000D01*
X160786697Y-99021774D01*
X160732882Y-98903937D01*
X160732880Y-98903935D01*
X160732879Y-98903932D01*
X160669858Y-98831202D01*
X160640833Y-98767647D01*
X160650777Y-98698488D01*
X160669858Y-98668798D01*
X160732879Y-98596067D01*
X160732879Y-98596065D01*
X160732882Y-98596063D01*
X160786697Y-98478226D01*
X160805133Y-98350000D01*
X160786697Y-98221774D01*
X160732882Y-98103937D01*
X160732880Y-98103935D01*
X160732879Y-98103932D01*
X160669858Y-98031202D01*
X160640833Y-97967647D01*
X160650777Y-97898488D01*
X160669858Y-97868798D01*
X160732879Y-97796067D01*
X160732879Y-97796065D01*
X160732882Y-97796063D01*
X160786697Y-97678226D01*
X160805133Y-97550000D01*
X160786697Y-97421774D01*
X160732882Y-97303937D01*
X160648049Y-97206033D01*
X160539069Y-97135996D01*
X160539065Y-97135994D01*
X160539064Y-97135994D01*
X160414774Y-97099500D01*
X160414772Y-97099500D01*
X160285228Y-97099500D01*
X160285226Y-97099500D01*
X160242442Y-97112062D01*
X160172572Y-97112062D01*
X160113794Y-97074287D01*
X160088531Y-97028022D01*
X160086697Y-97021779D01*
X160086697Y-97021774D01*
X160032882Y-96903937D01*
X159948049Y-96806033D01*
X159839069Y-96735996D01*
X159839065Y-96735994D01*
X159839064Y-96735994D01*
X159714774Y-96699500D01*
X159714772Y-96699500D01*
X159591216Y-96699500D01*
X159524177Y-96679815D01*
X159478422Y-96627011D01*
X159468478Y-96557855D01*
X159472115Y-96532550D01*
X159475500Y-96509011D01*
X159475500Y-96365875D01*
X159495185Y-96298836D01*
X159547989Y-96253081D01*
X159617147Y-96243137D01*
X159663925Y-96259925D01*
X159778618Y-96329672D01*
X159924335Y-96370500D01*
X159924336Y-96370500D01*
X160537659Y-96370500D01*
X160571307Y-96365875D01*
X160649920Y-96355070D01*
X160759854Y-96307318D01*
X160788716Y-96294782D01*
X160788716Y-96294781D01*
X160788720Y-96294780D01*
X160906108Y-96199278D01*
X160993377Y-96075647D01*
X161013271Y-96019670D01*
X161044053Y-95933060D01*
X161044053Y-95933058D01*
X161044054Y-95933056D01*
X161054381Y-95782079D01*
X161038768Y-95706944D01*
X161023594Y-95633921D01*
X161023592Y-95633918D01*
X161023592Y-95633915D01*
X160953971Y-95499553D01*
X160953967Y-95499549D01*
X160953967Y-95499548D01*
X160850681Y-95388956D01*
X160772053Y-95341141D01*
X160721382Y-95310328D01*
X160575665Y-95269500D01*
X159962342Y-95269500D01*
X159962341Y-95269500D01*
X159850082Y-95284929D01*
X159850079Y-95284930D01*
X159711283Y-95345217D01*
X159593889Y-95440724D01*
X159506623Y-95564352D01*
X159506621Y-95564355D01*
X159455946Y-95706939D01*
X159455946Y-95706942D01*
X159454150Y-95733197D01*
X159429935Y-95798737D01*
X159374131Y-95840780D01*
X159304455Y-95845980D01*
X159263403Y-95829050D01*
X159199561Y-95788022D01*
X159199559Y-95788021D01*
X159199557Y-95788020D01*
X159068368Y-95749500D01*
X159068367Y-95749500D01*
X158931633Y-95749500D01*
X158931632Y-95749500D01*
X158800440Y-95788021D01*
X158685413Y-95861942D01*
X158685409Y-95861946D01*
X158595872Y-95965278D01*
X158595867Y-95965285D01*
X158539070Y-96089654D01*
X158539068Y-96089663D01*
X158524500Y-96190988D01*
X158524500Y-96509011D01*
X158539068Y-96610336D01*
X158539070Y-96610345D01*
X158595867Y-96734714D01*
X158595872Y-96734721D01*
X158685409Y-96838053D01*
X158685413Y-96838057D01*
X158745979Y-96876979D01*
X158800439Y-96911978D01*
X158866036Y-96931239D01*
X158931632Y-96950500D01*
X159077236Y-96950500D01*
X159077236Y-96953360D01*
X159132002Y-96961223D01*
X159184816Y-97006967D01*
X159204514Y-97074002D01*
X159203252Y-97091673D01*
X159194867Y-97149997D01*
X159194867Y-97149999D01*
X159213302Y-97278225D01*
X159225045Y-97303937D01*
X159267118Y-97396063D01*
X159351951Y-97493967D01*
X159460931Y-97564004D01*
X159585225Y-97600499D01*
X159585227Y-97600500D01*
X159585228Y-97600500D01*
X159714771Y-97600500D01*
X159714772Y-97600500D01*
X159757558Y-97587936D01*
X159827424Y-97587936D01*
X159886203Y-97625710D01*
X159911466Y-97671972D01*
X159913302Y-97678223D01*
X159913302Y-97678224D01*
X159913303Y-97678226D01*
X159967118Y-97796063D01*
X160015115Y-97851455D01*
X160030142Y-97868798D01*
X160059166Y-97932354D01*
X160049222Y-98001513D01*
X160030142Y-98031202D01*
X159967118Y-98103937D01*
X159967116Y-98103939D01*
X159946886Y-98148236D01*
X159901131Y-98201039D01*
X159834091Y-98220722D01*
X159801941Y-98214339D01*
X159801427Y-98216260D01*
X159793580Y-98214157D01*
X159650001Y-98195254D01*
X159649999Y-98195254D01*
X159506421Y-98214157D01*
X159506417Y-98214158D01*
X159372626Y-98269575D01*
X159357758Y-98280982D01*
X159626905Y-98550128D01*
X159560992Y-98565173D01*
X159489613Y-98622095D01*
X159450000Y-98704351D01*
X159450000Y-98726775D01*
X159180983Y-98457758D01*
X159180982Y-98457758D01*
X159169575Y-98472626D01*
X159114158Y-98606417D01*
X159114157Y-98606421D01*
X159095254Y-98749999D01*
X159095254Y-98750000D01*
X159114157Y-98893578D01*
X159114157Y-98893579D01*
X159169575Y-99027370D01*
X159169580Y-99027378D01*
X159180982Y-99042240D01*
X159204220Y-99043763D01*
X159224659Y-98999009D01*
X159230691Y-98992530D01*
X159450000Y-98773221D01*
X159450000Y-98795649D01*
X159489613Y-98877905D01*
X159560992Y-98934827D01*
X159626903Y-98949871D01*
X159413967Y-99162807D01*
X159393325Y-99179442D01*
X159385411Y-99184528D01*
X159339604Y-99197977D01*
X159313628Y-99250259D01*
X159267120Y-99303932D01*
X159267117Y-99303938D01*
X159213302Y-99421774D01*
X159194867Y-99550000D01*
X159213302Y-99678225D01*
X159267117Y-99796061D01*
X159267118Y-99796063D01*
X159315115Y-99851455D01*
X159330142Y-99868798D01*
X159359166Y-99932354D01*
X159349222Y-100001513D01*
X159330142Y-100031202D01*
X159267118Y-100103937D01*
X159267117Y-100103938D01*
X159213302Y-100221774D01*
X159194867Y-100350000D01*
X159213302Y-100478225D01*
X159225045Y-100503937D01*
X159267118Y-100596063D01*
X159309982Y-100645532D01*
X159313626Y-100649737D01*
X159337587Y-100702206D01*
X159377801Y-100710955D01*
X159385404Y-100715465D01*
X159393328Y-100720558D01*
X159413967Y-100737191D01*
X159626905Y-100950128D01*
X159560992Y-100965173D01*
X159489613Y-101022095D01*
X159450000Y-101104351D01*
X159450000Y-101126776D01*
X159230692Y-100907468D01*
X159202768Y-100856329D01*
X159180983Y-100857758D01*
X159169575Y-100872626D01*
X159114158Y-101006417D01*
X159114157Y-101006421D01*
X159095254Y-101149999D01*
X159095254Y-101150000D01*
X159114157Y-101293578D01*
X159114157Y-101293579D01*
X159169575Y-101427370D01*
X159169580Y-101427378D01*
X159180982Y-101442239D01*
X159450000Y-101173222D01*
X159450000Y-101195649D01*
X159489613Y-101277905D01*
X159560992Y-101334827D01*
X159626903Y-101349871D01*
X159357758Y-101619015D01*
X159372627Y-101630424D01*
X159372630Y-101630425D01*
X159506417Y-101685841D01*
X159506421Y-101685842D01*
X159649999Y-101704746D01*
X159650001Y-101704746D01*
X159793578Y-101685842D01*
X159801430Y-101683739D01*
X159802318Y-101687056D01*
X159855946Y-101681218D01*
X159918467Y-101712409D01*
X159946887Y-101751764D01*
X159967118Y-101796063D01*
X160030142Y-101868798D01*
X160059166Y-101932354D01*
X160049222Y-102001513D01*
X160030142Y-102031202D01*
X159967118Y-102103937D01*
X159967117Y-102103938D01*
X159913300Y-102221779D01*
X159911465Y-102228029D01*
X159873686Y-102286804D01*
X159810128Y-102315824D01*
X159757557Y-102312062D01*
X159714774Y-102299500D01*
X159714772Y-102299500D01*
X159585228Y-102299500D01*
X159585226Y-102299500D01*
X159460935Y-102335994D01*
X159460932Y-102335995D01*
X159460931Y-102335996D01*
X159415677Y-102365079D01*
X159351950Y-102406033D01*
X159267118Y-102503937D01*
X159267117Y-102503938D01*
X159213302Y-102621774D01*
X159194867Y-102750000D01*
X159213302Y-102878225D01*
X159227501Y-102909315D01*
X159237445Y-102978474D01*
X159208420Y-103042030D01*
X159149642Y-103079804D01*
X159097061Y-103083565D01*
X159034011Y-103074500D01*
X158965989Y-103074500D01*
X158965988Y-103074500D01*
X158864663Y-103089068D01*
X158864654Y-103089070D01*
X158740285Y-103145867D01*
X158740278Y-103145872D01*
X158636946Y-103235409D01*
X158636942Y-103235413D01*
X158563021Y-103350440D01*
X158524500Y-103481632D01*
X158524500Y-103618367D01*
X134300500Y-103618367D01*
X134300500Y-102367800D01*
X140786450Y-102367800D01*
X140805370Y-102511508D01*
X140805371Y-102511512D01*
X140860837Y-102645422D01*
X140860838Y-102645424D01*
X140860839Y-102645425D01*
X140949079Y-102760421D01*
X141064075Y-102848661D01*
X141197991Y-102904130D01*
X141324980Y-102920848D01*
X141341699Y-102923050D01*
X141341700Y-102923050D01*
X141341701Y-102923050D01*
X141356677Y-102921078D01*
X141485409Y-102904130D01*
X141619325Y-102848661D01*
X141734321Y-102760421D01*
X141736409Y-102757700D01*
X147939450Y-102757700D01*
X147951425Y-102848661D01*
X147958370Y-102901408D01*
X147958371Y-102901412D01*
X148013837Y-103035322D01*
X148013838Y-103035324D01*
X148013839Y-103035325D01*
X148102079Y-103150321D01*
X148217075Y-103238561D01*
X148350991Y-103294030D01*
X148477980Y-103310748D01*
X148494699Y-103312950D01*
X148494700Y-103312950D01*
X148494701Y-103312950D01*
X148509677Y-103310978D01*
X148638409Y-103294030D01*
X148772325Y-103238561D01*
X148887321Y-103150321D01*
X148975561Y-103035325D01*
X149031030Y-102901409D01*
X149042086Y-102817431D01*
X149070351Y-102753538D01*
X149128675Y-102715066D01*
X149198540Y-102714234D01*
X149212464Y-102719053D01*
X149253691Y-102736130D01*
X149380680Y-102752848D01*
X149397399Y-102755050D01*
X149397400Y-102755050D01*
X149397401Y-102755050D01*
X149412377Y-102753078D01*
X149541109Y-102736130D01*
X149675025Y-102680661D01*
X149790021Y-102592421D01*
X149878261Y-102477425D01*
X149933730Y-102343509D01*
X149952650Y-102199800D01*
X149933730Y-102056091D01*
X149878261Y-101922175D01*
X149790021Y-101807179D01*
X149675025Y-101718939D01*
X149675024Y-101718938D01*
X149675022Y-101718937D01*
X149541112Y-101663471D01*
X149541110Y-101663470D01*
X149541109Y-101663470D01*
X149469254Y-101654010D01*
X149397401Y-101644550D01*
X149397399Y-101644550D01*
X149253691Y-101663470D01*
X149253687Y-101663471D01*
X149119777Y-101718937D01*
X149004779Y-101807179D01*
X148916537Y-101922177D01*
X148861071Y-102056087D01*
X148861070Y-102056092D01*
X148850014Y-102140066D01*
X148821747Y-102203963D01*
X148763422Y-102242433D01*
X148693557Y-102243264D01*
X148679623Y-102238441D01*
X148638412Y-102221371D01*
X148638410Y-102221370D01*
X148638409Y-102221370D01*
X148566554Y-102211910D01*
X148494701Y-102202450D01*
X148494699Y-102202450D01*
X148350991Y-102221370D01*
X148350987Y-102221371D01*
X148217077Y-102276837D01*
X148102079Y-102365079D01*
X148013837Y-102480077D01*
X147958371Y-102613987D01*
X147958370Y-102613991D01*
X147945173Y-102714234D01*
X147939450Y-102757700D01*
X141736409Y-102757700D01*
X141822561Y-102645425D01*
X141878030Y-102511509D01*
X141896950Y-102367800D01*
X141878030Y-102224091D01*
X141822561Y-102090175D01*
X141734321Y-101975179D01*
X141619325Y-101886939D01*
X141619324Y-101886938D01*
X141619322Y-101886937D01*
X141485412Y-101831471D01*
X141485410Y-101831470D01*
X141485409Y-101831470D01*
X141413554Y-101822010D01*
X141341701Y-101812550D01*
X141341699Y-101812550D01*
X141197991Y-101831470D01*
X141197987Y-101831471D01*
X141064077Y-101886937D01*
X140949079Y-101975179D01*
X140860837Y-102090177D01*
X140805371Y-102224087D01*
X140805370Y-102224091D01*
X140786450Y-102367799D01*
X140786450Y-102367800D01*
X134300500Y-102367800D01*
X134300500Y-93314521D01*
X134320185Y-93247482D01*
X134372989Y-93201727D01*
X134442147Y-93191783D01*
X134505703Y-93220808D01*
X134543477Y-93279586D01*
X134544706Y-93284081D01*
X134594917Y-93482362D01*
X134693477Y-93707056D01*
X134827670Y-93912455D01*
X134993850Y-94092974D01*
X134993854Y-94092977D01*
X135187468Y-94243673D01*
X135187470Y-94243674D01*
X135187473Y-94243676D01*
X135312917Y-94311562D01*
X135403252Y-94360449D01*
X135523753Y-94401817D01*
X135635309Y-94440115D01*
X135635311Y-94440115D01*
X135635313Y-94440116D01*
X135877322Y-94480500D01*
X135877323Y-94480500D01*
X136122677Y-94480500D01*
X136122678Y-94480500D01*
X136364687Y-94440116D01*
X136596748Y-94360449D01*
X136812532Y-94243673D01*
X137006152Y-94092972D01*
X137172327Y-93912458D01*
X137306523Y-93707055D01*
X137405082Y-93482365D01*
X137465313Y-93244517D01*
X137485574Y-93000000D01*
X137480919Y-92943827D01*
X137465313Y-92755486D01*
X137465313Y-92755483D01*
X137405082Y-92517635D01*
X137306523Y-92292945D01*
X137273375Y-92242208D01*
X137179487Y-92098500D01*
X146111750Y-92098500D01*
X146130670Y-92242208D01*
X146130671Y-92242212D01*
X146186137Y-92376122D01*
X146186138Y-92376124D01*
X146186139Y-92376125D01*
X146274379Y-92491121D01*
X146389375Y-92579361D01*
X146389376Y-92579361D01*
X146389377Y-92579362D01*
X146434013Y-92597850D01*
X146523291Y-92634830D01*
X146650280Y-92651548D01*
X146666999Y-92653750D01*
X146667000Y-92653750D01*
X146667001Y-92653750D01*
X146681977Y-92651778D01*
X146810709Y-92634830D01*
X146944625Y-92579361D01*
X147059621Y-92491121D01*
X147147861Y-92376125D01*
X147203330Y-92242209D01*
X147222250Y-92098500D01*
X147203330Y-91954791D01*
X147147861Y-91820875D01*
X147059621Y-91705879D01*
X146944625Y-91617639D01*
X146944624Y-91617638D01*
X146944622Y-91617637D01*
X146810712Y-91562171D01*
X146810710Y-91562170D01*
X146810709Y-91562170D01*
X146698817Y-91547438D01*
X146668580Y-91534062D01*
X146653931Y-91543477D01*
X146635182Y-91547439D01*
X146523291Y-91562170D01*
X146523287Y-91562171D01*
X146389377Y-91617637D01*
X146274379Y-91705879D01*
X146186137Y-91820877D01*
X146130671Y-91954787D01*
X146130670Y-91954791D01*
X146111750Y-92098499D01*
X146111750Y-92098500D01*
X137179487Y-92098500D01*
X137172329Y-92087544D01*
X137006149Y-91907025D01*
X137006145Y-91907022D01*
X136812535Y-91756329D01*
X136812526Y-91756323D01*
X136596754Y-91639554D01*
X136596751Y-91639553D01*
X136596748Y-91639551D01*
X136596742Y-91639549D01*
X136596740Y-91639548D01*
X136364689Y-91559884D01*
X136286333Y-91546809D01*
X136223447Y-91516359D01*
X136187008Y-91456744D01*
X136188583Y-91386892D01*
X136227673Y-91328980D01*
X136291866Y-91301396D01*
X136306742Y-91300500D01*
X146618996Y-91300500D01*
X146668308Y-91314979D01*
G37*
%TD.AperFunction*%
%TD*%
D15*
X134000000Y-93000000D02*
X134000000Y-107000000D01*
X164000000Y-109000000D02*
G75*
G03*
X166000000Y-107000000I0J2000000D01*
G01*
X166000000Y-93000000D02*
G75*
G03*
X164000000Y-91000000I-2000000J0D01*
G01*
X136000000Y-91000000D02*
X164000000Y-91000000D01*
X136000000Y-91000000D02*
G75*
G03*
X134000000Y-93000000I0J-2000000D01*
G01*
X166000000Y-107000000D02*
X166000000Y-93000000D01*
X136000000Y-109000000D02*
X164000000Y-109000000D01*
X134000000Y-107000000D02*
G75*
G03*
X136000000Y-109000000I2000000J0D01*
G01*
M02*
