%TF.GenerationSoftware,KiCad,Pcbnew,7.0.1*%
%TF.CreationDate,2023-03-24T10:32:53-04:00*%
%TF.ProjectId,wingbeat_detector,77696e67-6265-4617-945f-646574656374,3.0*%
%TF.SameCoordinates,Original*%
%TF.FileFunction,OtherDrawing,Comment*%
%FSLAX46Y46*%
G04 Gerber Fmt 4.6, Leading zero omitted, Abs format (unit mm)*
G04 Created by KiCad (PCBNEW 7.0.1) date 2023-03-24 10:32:53*
%MOMM*%
%LPD*%
G01*
G04 APERTURE LIST*
%ADD10C,0.100000*%
%ADD11C,0.150000*%
%ADD12C,0.300000*%
G04 APERTURE END LIST*
D10*
X168000000Y-93000000D02*
G75*
G03*
X166000000Y-91000000I-2000000J0D01*
G01*
X166000000Y-109000000D02*
G75*
G03*
X168000000Y-107000000I0J2000000D01*
G01*
X134000000Y-91000000D02*
X166000000Y-91000000D01*
X132000000Y-107000000D02*
G75*
G03*
X134000000Y-109000000I2000000J0D01*
G01*
X134000000Y-91000000D02*
G75*
G03*
X132000000Y-93000000I0J-2000000D01*
G01*
X132000000Y-93000000D02*
X132000000Y-107000000D01*
X134000000Y-109000000D02*
X166000000Y-109000000D01*
X168000000Y-107000000D02*
X168000000Y-93000000D01*
D11*
X134000000Y-96000000D02*
X134000000Y-90000000D01*
X131000000Y-93000000D02*
X137000000Y-93000000D01*
X166000000Y-110000000D02*
X166000000Y-104000000D01*
X163000000Y-107000000D02*
X169000000Y-107000000D01*
X134000000Y-110000000D02*
X134000000Y-104000000D01*
X131000000Y-107000000D02*
X137000000Y-107000000D01*
X169000000Y-100000000D02*
X131000000Y-100000000D01*
X150000000Y-119000000D02*
X150000000Y-81000000D01*
X166000000Y-96000000D02*
X166000000Y-90000000D01*
X163000000Y-93000000D02*
X169000000Y-93000000D01*
X180346386Y-111570910D02*
X180013053Y-111094719D01*
X179774958Y-111570910D02*
X179774958Y-110570910D01*
X179774958Y-110570910D02*
X180155910Y-110570910D01*
X180155910Y-110570910D02*
X180251148Y-110618529D01*
X180251148Y-110618529D02*
X180298767Y-110666148D01*
X180298767Y-110666148D02*
X180346386Y-110761386D01*
X180346386Y-110761386D02*
X180346386Y-110904243D01*
X180346386Y-110904243D02*
X180298767Y-110999481D01*
X180298767Y-110999481D02*
X180251148Y-111047100D01*
X180251148Y-111047100D02*
X180155910Y-111094719D01*
X180155910Y-111094719D02*
X179774958Y-111094719D01*
X181489244Y-110666148D02*
X181536863Y-110618529D01*
X181536863Y-110618529D02*
X181632101Y-110570910D01*
X181632101Y-110570910D02*
X181870196Y-110570910D01*
X181870196Y-110570910D02*
X181965434Y-110618529D01*
X181965434Y-110618529D02*
X182013053Y-110666148D01*
X182013053Y-110666148D02*
X182060672Y-110761386D01*
X182060672Y-110761386D02*
X182060672Y-110856624D01*
X182060672Y-110856624D02*
X182013053Y-110999481D01*
X182013053Y-110999481D02*
X181441625Y-111570910D01*
X181441625Y-111570910D02*
X182060672Y-111570910D01*
X183251149Y-111570910D02*
X183251149Y-110904243D01*
X183251149Y-110999481D02*
X183298768Y-110951862D01*
X183298768Y-110951862D02*
X183394006Y-110904243D01*
X183394006Y-110904243D02*
X183536863Y-110904243D01*
X183536863Y-110904243D02*
X183632101Y-110951862D01*
X183632101Y-110951862D02*
X183679720Y-111047100D01*
X183679720Y-111047100D02*
X183679720Y-111570910D01*
X183679720Y-111047100D02*
X183727339Y-110951862D01*
X183727339Y-110951862D02*
X183822577Y-110904243D01*
X183822577Y-110904243D02*
X183965434Y-110904243D01*
X183965434Y-110904243D02*
X184060673Y-110951862D01*
X184060673Y-110951862D02*
X184108292Y-111047100D01*
X184108292Y-111047100D02*
X184108292Y-111570910D01*
X184584482Y-111570910D02*
X184584482Y-110904243D01*
X184584482Y-110999481D02*
X184632101Y-110951862D01*
X184632101Y-110951862D02*
X184727339Y-110904243D01*
X184727339Y-110904243D02*
X184870196Y-110904243D01*
X184870196Y-110904243D02*
X184965434Y-110951862D01*
X184965434Y-110951862D02*
X185013053Y-111047100D01*
X185013053Y-111047100D02*
X185013053Y-111570910D01*
X185013053Y-111047100D02*
X185060672Y-110951862D01*
X185060672Y-110951862D02*
X185155910Y-110904243D01*
X185155910Y-110904243D02*
X185298767Y-110904243D01*
X185298767Y-110904243D02*
X185394006Y-110951862D01*
X185394006Y-110951862D02*
X185441625Y-111047100D01*
X185441625Y-111047100D02*
X185441625Y-111570910D01*
X166000000Y-105750000D02*
X166000000Y-108250000D01*
X167250000Y-107000000D02*
X164750000Y-107000000D01*
X167414214Y-108414214D02*
X170108291Y-111108291D01*
X167414214Y-108414214D02*
X168606360Y-108790096D01*
X167414214Y-108414214D02*
X167790096Y-109606360D01*
X170108291Y-111108291D02*
X178949363Y-111108291D01*
X139095238Y-86986569D02*
X138523810Y-86986569D01*
X138809524Y-86986569D02*
X138809524Y-85986569D01*
X138809524Y-85986569D02*
X138714286Y-86129426D01*
X138714286Y-86129426D02*
X138619048Y-86224664D01*
X138619048Y-86224664D02*
X138523810Y-86272283D01*
X139666667Y-86415140D02*
X139571429Y-86367521D01*
X139571429Y-86367521D02*
X139523810Y-86319902D01*
X139523810Y-86319902D02*
X139476191Y-86224664D01*
X139476191Y-86224664D02*
X139476191Y-86177045D01*
X139476191Y-86177045D02*
X139523810Y-86081807D01*
X139523810Y-86081807D02*
X139571429Y-86034188D01*
X139571429Y-86034188D02*
X139666667Y-85986569D01*
X139666667Y-85986569D02*
X139857143Y-85986569D01*
X139857143Y-85986569D02*
X139952381Y-86034188D01*
X139952381Y-86034188D02*
X140000000Y-86081807D01*
X140000000Y-86081807D02*
X140047619Y-86177045D01*
X140047619Y-86177045D02*
X140047619Y-86224664D01*
X140047619Y-86224664D02*
X140000000Y-86319902D01*
X140000000Y-86319902D02*
X139952381Y-86367521D01*
X139952381Y-86367521D02*
X139857143Y-86415140D01*
X139857143Y-86415140D02*
X139666667Y-86415140D01*
X139666667Y-86415140D02*
X139571429Y-86462759D01*
X139571429Y-86462759D02*
X139523810Y-86510378D01*
X139523810Y-86510378D02*
X139476191Y-86605616D01*
X139476191Y-86605616D02*
X139476191Y-86796092D01*
X139476191Y-86796092D02*
X139523810Y-86891330D01*
X139523810Y-86891330D02*
X139571429Y-86938950D01*
X139571429Y-86938950D02*
X139666667Y-86986569D01*
X139666667Y-86986569D02*
X139857143Y-86986569D01*
X139857143Y-86986569D02*
X139952381Y-86938950D01*
X139952381Y-86938950D02*
X140000000Y-86891330D01*
X140000000Y-86891330D02*
X140047619Y-86796092D01*
X140047619Y-86796092D02*
X140047619Y-86605616D01*
X140047619Y-86605616D02*
X140000000Y-86510378D01*
X140000000Y-86510378D02*
X139952381Y-86462759D01*
X139952381Y-86462759D02*
X139857143Y-86415140D01*
X141238096Y-86986569D02*
X141238096Y-86319902D01*
X141238096Y-86415140D02*
X141285715Y-86367521D01*
X141285715Y-86367521D02*
X141380953Y-86319902D01*
X141380953Y-86319902D02*
X141523810Y-86319902D01*
X141523810Y-86319902D02*
X141619048Y-86367521D01*
X141619048Y-86367521D02*
X141666667Y-86462759D01*
X141666667Y-86462759D02*
X141666667Y-86986569D01*
X141666667Y-86462759D02*
X141714286Y-86367521D01*
X141714286Y-86367521D02*
X141809524Y-86319902D01*
X141809524Y-86319902D02*
X141952381Y-86319902D01*
X141952381Y-86319902D02*
X142047620Y-86367521D01*
X142047620Y-86367521D02*
X142095239Y-86462759D01*
X142095239Y-86462759D02*
X142095239Y-86986569D01*
X142571429Y-86986569D02*
X142571429Y-86319902D01*
X142571429Y-86415140D02*
X142619048Y-86367521D01*
X142619048Y-86367521D02*
X142714286Y-86319902D01*
X142714286Y-86319902D02*
X142857143Y-86319902D01*
X142857143Y-86319902D02*
X142952381Y-86367521D01*
X142952381Y-86367521D02*
X143000000Y-86462759D01*
X143000000Y-86462759D02*
X143000000Y-86986569D01*
X143000000Y-86462759D02*
X143047619Y-86367521D01*
X143047619Y-86367521D02*
X143142857Y-86319902D01*
X143142857Y-86319902D02*
X143285714Y-86319902D01*
X143285714Y-86319902D02*
X143380953Y-86367521D01*
X143380953Y-86367521D02*
X143428572Y-86462759D01*
X143428572Y-86462759D02*
X143428572Y-86986569D01*
X150000000Y-99500000D02*
X150000000Y-87087530D01*
X132000000Y-87087530D02*
X132000000Y-94500000D01*
X150000000Y-87673950D02*
X132000000Y-87673950D01*
X150000000Y-87673950D02*
X132000000Y-87673950D01*
X150000000Y-87673950D02*
X148891236Y-88251136D01*
X150000000Y-87673950D02*
X148891236Y-87096764D01*
X132000000Y-87673950D02*
X133108764Y-87096764D01*
X132000000Y-87673950D02*
X133108764Y-88251136D01*
X156095238Y-86986569D02*
X155523810Y-86986569D01*
X155809524Y-86986569D02*
X155809524Y-85986569D01*
X155809524Y-85986569D02*
X155714286Y-86129426D01*
X155714286Y-86129426D02*
X155619048Y-86224664D01*
X155619048Y-86224664D02*
X155523810Y-86272283D01*
X156952381Y-85986569D02*
X156761905Y-85986569D01*
X156761905Y-85986569D02*
X156666667Y-86034188D01*
X156666667Y-86034188D02*
X156619048Y-86081807D01*
X156619048Y-86081807D02*
X156523810Y-86224664D01*
X156523810Y-86224664D02*
X156476191Y-86415140D01*
X156476191Y-86415140D02*
X156476191Y-86796092D01*
X156476191Y-86796092D02*
X156523810Y-86891330D01*
X156523810Y-86891330D02*
X156571429Y-86938950D01*
X156571429Y-86938950D02*
X156666667Y-86986569D01*
X156666667Y-86986569D02*
X156857143Y-86986569D01*
X156857143Y-86986569D02*
X156952381Y-86938950D01*
X156952381Y-86938950D02*
X157000000Y-86891330D01*
X157000000Y-86891330D02*
X157047619Y-86796092D01*
X157047619Y-86796092D02*
X157047619Y-86557997D01*
X157047619Y-86557997D02*
X157000000Y-86462759D01*
X157000000Y-86462759D02*
X156952381Y-86415140D01*
X156952381Y-86415140D02*
X156857143Y-86367521D01*
X156857143Y-86367521D02*
X156666667Y-86367521D01*
X156666667Y-86367521D02*
X156571429Y-86415140D01*
X156571429Y-86415140D02*
X156523810Y-86462759D01*
X156523810Y-86462759D02*
X156476191Y-86557997D01*
X158238096Y-86986569D02*
X158238096Y-86319902D01*
X158238096Y-86415140D02*
X158285715Y-86367521D01*
X158285715Y-86367521D02*
X158380953Y-86319902D01*
X158380953Y-86319902D02*
X158523810Y-86319902D01*
X158523810Y-86319902D02*
X158619048Y-86367521D01*
X158619048Y-86367521D02*
X158666667Y-86462759D01*
X158666667Y-86462759D02*
X158666667Y-86986569D01*
X158666667Y-86462759D02*
X158714286Y-86367521D01*
X158714286Y-86367521D02*
X158809524Y-86319902D01*
X158809524Y-86319902D02*
X158952381Y-86319902D01*
X158952381Y-86319902D02*
X159047620Y-86367521D01*
X159047620Y-86367521D02*
X159095239Y-86462759D01*
X159095239Y-86462759D02*
X159095239Y-86986569D01*
X159571429Y-86986569D02*
X159571429Y-86319902D01*
X159571429Y-86415140D02*
X159619048Y-86367521D01*
X159619048Y-86367521D02*
X159714286Y-86319902D01*
X159714286Y-86319902D02*
X159857143Y-86319902D01*
X159857143Y-86319902D02*
X159952381Y-86367521D01*
X159952381Y-86367521D02*
X160000000Y-86462759D01*
X160000000Y-86462759D02*
X160000000Y-86986569D01*
X160000000Y-86462759D02*
X160047619Y-86367521D01*
X160047619Y-86367521D02*
X160142857Y-86319902D01*
X160142857Y-86319902D02*
X160285714Y-86319902D01*
X160285714Y-86319902D02*
X160380953Y-86367521D01*
X160380953Y-86367521D02*
X160428572Y-86462759D01*
X160428572Y-86462759D02*
X160428572Y-86986569D01*
X150000000Y-99500000D02*
X150000000Y-87087530D01*
X166000000Y-87087530D02*
X166000000Y-92500000D01*
X150000000Y-87673950D02*
X166000000Y-87673950D01*
X150000000Y-87673950D02*
X166000000Y-87673950D01*
X150000000Y-87673950D02*
X151108764Y-87096764D01*
X150000000Y-87673950D02*
X151108764Y-88251136D01*
X166000000Y-87673950D02*
X164891236Y-88251136D01*
X166000000Y-87673950D02*
X164891236Y-87096764D01*
X167809524Y-113557857D02*
X167857143Y-113510238D01*
X167857143Y-113510238D02*
X167952381Y-113462619D01*
X167952381Y-113462619D02*
X168190476Y-113462619D01*
X168190476Y-113462619D02*
X168285714Y-113510238D01*
X168285714Y-113510238D02*
X168333333Y-113557857D01*
X168333333Y-113557857D02*
X168380952Y-113653095D01*
X168380952Y-113653095D02*
X168380952Y-113748333D01*
X168380952Y-113748333D02*
X168333333Y-113891190D01*
X168333333Y-113891190D02*
X167761905Y-114462619D01*
X167761905Y-114462619D02*
X168380952Y-114462619D01*
X168809524Y-114367380D02*
X168857143Y-114415000D01*
X168857143Y-114415000D02*
X168809524Y-114462619D01*
X168809524Y-114462619D02*
X168761905Y-114415000D01*
X168761905Y-114415000D02*
X168809524Y-114367380D01*
X168809524Y-114367380D02*
X168809524Y-114462619D01*
X169238095Y-113557857D02*
X169285714Y-113510238D01*
X169285714Y-113510238D02*
X169380952Y-113462619D01*
X169380952Y-113462619D02*
X169619047Y-113462619D01*
X169619047Y-113462619D02*
X169714285Y-113510238D01*
X169714285Y-113510238D02*
X169761904Y-113557857D01*
X169761904Y-113557857D02*
X169809523Y-113653095D01*
X169809523Y-113653095D02*
X169809523Y-113748333D01*
X169809523Y-113748333D02*
X169761904Y-113891190D01*
X169761904Y-113891190D02*
X169190476Y-114462619D01*
X169190476Y-114462619D02*
X169809523Y-114462619D01*
X170666666Y-113462619D02*
X170476190Y-113462619D01*
X170476190Y-113462619D02*
X170380952Y-113510238D01*
X170380952Y-113510238D02*
X170333333Y-113557857D01*
X170333333Y-113557857D02*
X170238095Y-113700714D01*
X170238095Y-113700714D02*
X170190476Y-113891190D01*
X170190476Y-113891190D02*
X170190476Y-114272142D01*
X170190476Y-114272142D02*
X170238095Y-114367380D01*
X170238095Y-114367380D02*
X170285714Y-114415000D01*
X170285714Y-114415000D02*
X170380952Y-114462619D01*
X170380952Y-114462619D02*
X170571428Y-114462619D01*
X170571428Y-114462619D02*
X170666666Y-114415000D01*
X170666666Y-114415000D02*
X170714285Y-114367380D01*
X170714285Y-114367380D02*
X170761904Y-114272142D01*
X170761904Y-114272142D02*
X170761904Y-114034047D01*
X170761904Y-114034047D02*
X170714285Y-113938809D01*
X170714285Y-113938809D02*
X170666666Y-113891190D01*
X170666666Y-113891190D02*
X170571428Y-113843571D01*
X170571428Y-113843571D02*
X170380952Y-113843571D01*
X170380952Y-113843571D02*
X170285714Y-113891190D01*
X170285714Y-113891190D02*
X170238095Y-113938809D01*
X170238095Y-113938809D02*
X170190476Y-114034047D01*
X171952381Y-114462619D02*
X171952381Y-113795952D01*
X171952381Y-113891190D02*
X172000000Y-113843571D01*
X172000000Y-113843571D02*
X172095238Y-113795952D01*
X172095238Y-113795952D02*
X172238095Y-113795952D01*
X172238095Y-113795952D02*
X172333333Y-113843571D01*
X172333333Y-113843571D02*
X172380952Y-113938809D01*
X172380952Y-113938809D02*
X172380952Y-114462619D01*
X172380952Y-113938809D02*
X172428571Y-113843571D01*
X172428571Y-113843571D02*
X172523809Y-113795952D01*
X172523809Y-113795952D02*
X172666666Y-113795952D01*
X172666666Y-113795952D02*
X172761905Y-113843571D01*
X172761905Y-113843571D02*
X172809524Y-113938809D01*
X172809524Y-113938809D02*
X172809524Y-114462619D01*
X173285714Y-114462619D02*
X173285714Y-113795952D01*
X173285714Y-113891190D02*
X173333333Y-113843571D01*
X173333333Y-113843571D02*
X173428571Y-113795952D01*
X173428571Y-113795952D02*
X173571428Y-113795952D01*
X173571428Y-113795952D02*
X173666666Y-113843571D01*
X173666666Y-113843571D02*
X173714285Y-113938809D01*
X173714285Y-113938809D02*
X173714285Y-114462619D01*
X173714285Y-113938809D02*
X173761904Y-113843571D01*
X173761904Y-113843571D02*
X173857142Y-113795952D01*
X173857142Y-113795952D02*
X173999999Y-113795952D01*
X173999999Y-113795952D02*
X174095238Y-113843571D01*
X174095238Y-113843571D02*
X174142857Y-113938809D01*
X174142857Y-113938809D02*
X174142857Y-114462619D01*
X167130000Y-108500000D02*
X167130000Y-114586420D01*
X164870000Y-114586420D02*
X164870000Y-108500000D01*
X167031548Y-114000000D02*
X164870000Y-114000000D01*
X167130000Y-114000000D02*
X166686495Y-114230874D01*
X167130000Y-114000000D02*
X166686495Y-113769126D01*
X164870000Y-114000000D02*
X165313505Y-113769126D01*
X164870000Y-114000000D02*
X165313505Y-114230874D01*
X147476191Y-78312619D02*
X148095238Y-78312619D01*
X148095238Y-78312619D02*
X147761905Y-78693571D01*
X147761905Y-78693571D02*
X147904762Y-78693571D01*
X147904762Y-78693571D02*
X148000000Y-78741190D01*
X148000000Y-78741190D02*
X148047619Y-78788809D01*
X148047619Y-78788809D02*
X148095238Y-78884047D01*
X148095238Y-78884047D02*
X148095238Y-79122142D01*
X148095238Y-79122142D02*
X148047619Y-79217380D01*
X148047619Y-79217380D02*
X148000000Y-79265000D01*
X148000000Y-79265000D02*
X147904762Y-79312619D01*
X147904762Y-79312619D02*
X147619048Y-79312619D01*
X147619048Y-79312619D02*
X147523810Y-79265000D01*
X147523810Y-79265000D02*
X147476191Y-79217380D01*
X148952381Y-78312619D02*
X148761905Y-78312619D01*
X148761905Y-78312619D02*
X148666667Y-78360238D01*
X148666667Y-78360238D02*
X148619048Y-78407857D01*
X148619048Y-78407857D02*
X148523810Y-78550714D01*
X148523810Y-78550714D02*
X148476191Y-78741190D01*
X148476191Y-78741190D02*
X148476191Y-79122142D01*
X148476191Y-79122142D02*
X148523810Y-79217380D01*
X148523810Y-79217380D02*
X148571429Y-79265000D01*
X148571429Y-79265000D02*
X148666667Y-79312619D01*
X148666667Y-79312619D02*
X148857143Y-79312619D01*
X148857143Y-79312619D02*
X148952381Y-79265000D01*
X148952381Y-79265000D02*
X149000000Y-79217380D01*
X149000000Y-79217380D02*
X149047619Y-79122142D01*
X149047619Y-79122142D02*
X149047619Y-78884047D01*
X149047619Y-78884047D02*
X149000000Y-78788809D01*
X149000000Y-78788809D02*
X148952381Y-78741190D01*
X148952381Y-78741190D02*
X148857143Y-78693571D01*
X148857143Y-78693571D02*
X148666667Y-78693571D01*
X148666667Y-78693571D02*
X148571429Y-78741190D01*
X148571429Y-78741190D02*
X148523810Y-78788809D01*
X148523810Y-78788809D02*
X148476191Y-78884047D01*
X150238096Y-79312619D02*
X150238096Y-78645952D01*
X150238096Y-78741190D02*
X150285715Y-78693571D01*
X150285715Y-78693571D02*
X150380953Y-78645952D01*
X150380953Y-78645952D02*
X150523810Y-78645952D01*
X150523810Y-78645952D02*
X150619048Y-78693571D01*
X150619048Y-78693571D02*
X150666667Y-78788809D01*
X150666667Y-78788809D02*
X150666667Y-79312619D01*
X150666667Y-78788809D02*
X150714286Y-78693571D01*
X150714286Y-78693571D02*
X150809524Y-78645952D01*
X150809524Y-78645952D02*
X150952381Y-78645952D01*
X150952381Y-78645952D02*
X151047620Y-78693571D01*
X151047620Y-78693571D02*
X151095239Y-78788809D01*
X151095239Y-78788809D02*
X151095239Y-79312619D01*
X151571429Y-79312619D02*
X151571429Y-78645952D01*
X151571429Y-78741190D02*
X151619048Y-78693571D01*
X151619048Y-78693571D02*
X151714286Y-78645952D01*
X151714286Y-78645952D02*
X151857143Y-78645952D01*
X151857143Y-78645952D02*
X151952381Y-78693571D01*
X151952381Y-78693571D02*
X152000000Y-78788809D01*
X152000000Y-78788809D02*
X152000000Y-79312619D01*
X152000000Y-78788809D02*
X152047619Y-78693571D01*
X152047619Y-78693571D02*
X152142857Y-78645952D01*
X152142857Y-78645952D02*
X152285714Y-78645952D01*
X152285714Y-78645952D02*
X152380953Y-78693571D01*
X152380953Y-78693571D02*
X152428572Y-78788809D01*
X152428572Y-78788809D02*
X152428572Y-79312619D01*
X168000000Y-97500000D02*
X168000000Y-79413580D01*
X132000000Y-79413580D02*
X132000000Y-97500000D01*
X168000000Y-80000000D02*
X132000000Y-80000000D01*
X168000000Y-80000000D02*
X132000000Y-80000000D01*
X168000000Y-80000000D02*
X166891236Y-80577186D01*
X168000000Y-80000000D02*
X166891236Y-79422814D01*
X132000000Y-80000000D02*
X133108764Y-79422814D01*
X132000000Y-80000000D02*
X133108764Y-80577186D01*
X147476191Y-119312619D02*
X148095238Y-119312619D01*
X148095238Y-119312619D02*
X147761905Y-119693571D01*
X147761905Y-119693571D02*
X147904762Y-119693571D01*
X147904762Y-119693571D02*
X148000000Y-119741190D01*
X148000000Y-119741190D02*
X148047619Y-119788809D01*
X148047619Y-119788809D02*
X148095238Y-119884047D01*
X148095238Y-119884047D02*
X148095238Y-120122142D01*
X148095238Y-120122142D02*
X148047619Y-120217380D01*
X148047619Y-120217380D02*
X148000000Y-120265000D01*
X148000000Y-120265000D02*
X147904762Y-120312619D01*
X147904762Y-120312619D02*
X147619048Y-120312619D01*
X147619048Y-120312619D02*
X147523810Y-120265000D01*
X147523810Y-120265000D02*
X147476191Y-120217380D01*
X148476191Y-119407857D02*
X148523810Y-119360238D01*
X148523810Y-119360238D02*
X148619048Y-119312619D01*
X148619048Y-119312619D02*
X148857143Y-119312619D01*
X148857143Y-119312619D02*
X148952381Y-119360238D01*
X148952381Y-119360238D02*
X149000000Y-119407857D01*
X149000000Y-119407857D02*
X149047619Y-119503095D01*
X149047619Y-119503095D02*
X149047619Y-119598333D01*
X149047619Y-119598333D02*
X149000000Y-119741190D01*
X149000000Y-119741190D02*
X148428572Y-120312619D01*
X148428572Y-120312619D02*
X149047619Y-120312619D01*
X150238096Y-120312619D02*
X150238096Y-119645952D01*
X150238096Y-119741190D02*
X150285715Y-119693571D01*
X150285715Y-119693571D02*
X150380953Y-119645952D01*
X150380953Y-119645952D02*
X150523810Y-119645952D01*
X150523810Y-119645952D02*
X150619048Y-119693571D01*
X150619048Y-119693571D02*
X150666667Y-119788809D01*
X150666667Y-119788809D02*
X150666667Y-120312619D01*
X150666667Y-119788809D02*
X150714286Y-119693571D01*
X150714286Y-119693571D02*
X150809524Y-119645952D01*
X150809524Y-119645952D02*
X150952381Y-119645952D01*
X150952381Y-119645952D02*
X151047620Y-119693571D01*
X151047620Y-119693571D02*
X151095239Y-119788809D01*
X151095239Y-119788809D02*
X151095239Y-120312619D01*
X151571429Y-120312619D02*
X151571429Y-119645952D01*
X151571429Y-119741190D02*
X151619048Y-119693571D01*
X151619048Y-119693571D02*
X151714286Y-119645952D01*
X151714286Y-119645952D02*
X151857143Y-119645952D01*
X151857143Y-119645952D02*
X151952381Y-119693571D01*
X151952381Y-119693571D02*
X152000000Y-119788809D01*
X152000000Y-119788809D02*
X152000000Y-120312619D01*
X152000000Y-119788809D02*
X152047619Y-119693571D01*
X152047619Y-119693571D02*
X152142857Y-119645952D01*
X152142857Y-119645952D02*
X152285714Y-119645952D01*
X152285714Y-119645952D02*
X152380953Y-119693571D01*
X152380953Y-119693571D02*
X152428572Y-119788809D01*
X152428572Y-119788809D02*
X152428572Y-120312619D01*
X166000000Y-107500000D02*
X166000000Y-121586420D01*
X134000000Y-121586420D02*
X134000000Y-107500000D01*
X166000000Y-121000000D02*
X134000000Y-121000000D01*
X166000000Y-121000000D02*
X134000000Y-121000000D01*
X166000000Y-121000000D02*
X164891236Y-121577186D01*
X166000000Y-121000000D02*
X164891236Y-120422814D01*
X134000000Y-121000000D02*
X135108764Y-120422814D01*
X134000000Y-121000000D02*
X135108764Y-121577186D01*
X126462619Y-101904761D02*
X126462619Y-102476189D01*
X126462619Y-102190475D02*
X125462619Y-102190475D01*
X125462619Y-102190475D02*
X125605476Y-102285713D01*
X125605476Y-102285713D02*
X125700714Y-102380951D01*
X125700714Y-102380951D02*
X125748333Y-102476189D01*
X125891190Y-101333332D02*
X125843571Y-101428570D01*
X125843571Y-101428570D02*
X125795952Y-101476189D01*
X125795952Y-101476189D02*
X125700714Y-101523808D01*
X125700714Y-101523808D02*
X125653095Y-101523808D01*
X125653095Y-101523808D02*
X125557857Y-101476189D01*
X125557857Y-101476189D02*
X125510238Y-101428570D01*
X125510238Y-101428570D02*
X125462619Y-101333332D01*
X125462619Y-101333332D02*
X125462619Y-101142856D01*
X125462619Y-101142856D02*
X125510238Y-101047618D01*
X125510238Y-101047618D02*
X125557857Y-100999999D01*
X125557857Y-100999999D02*
X125653095Y-100952380D01*
X125653095Y-100952380D02*
X125700714Y-100952380D01*
X125700714Y-100952380D02*
X125795952Y-100999999D01*
X125795952Y-100999999D02*
X125843571Y-101047618D01*
X125843571Y-101047618D02*
X125891190Y-101142856D01*
X125891190Y-101142856D02*
X125891190Y-101333332D01*
X125891190Y-101333332D02*
X125938809Y-101428570D01*
X125938809Y-101428570D02*
X125986428Y-101476189D01*
X125986428Y-101476189D02*
X126081666Y-101523808D01*
X126081666Y-101523808D02*
X126272142Y-101523808D01*
X126272142Y-101523808D02*
X126367380Y-101476189D01*
X126367380Y-101476189D02*
X126415000Y-101428570D01*
X126415000Y-101428570D02*
X126462619Y-101333332D01*
X126462619Y-101333332D02*
X126462619Y-101142856D01*
X126462619Y-101142856D02*
X126415000Y-101047618D01*
X126415000Y-101047618D02*
X126367380Y-100999999D01*
X126367380Y-100999999D02*
X126272142Y-100952380D01*
X126272142Y-100952380D02*
X126081666Y-100952380D01*
X126081666Y-100952380D02*
X125986428Y-100999999D01*
X125986428Y-100999999D02*
X125938809Y-101047618D01*
X125938809Y-101047618D02*
X125891190Y-101142856D01*
X126462619Y-99761903D02*
X125795952Y-99761903D01*
X125891190Y-99761903D02*
X125843571Y-99714284D01*
X125843571Y-99714284D02*
X125795952Y-99619046D01*
X125795952Y-99619046D02*
X125795952Y-99476189D01*
X125795952Y-99476189D02*
X125843571Y-99380951D01*
X125843571Y-99380951D02*
X125938809Y-99333332D01*
X125938809Y-99333332D02*
X126462619Y-99333332D01*
X125938809Y-99333332D02*
X125843571Y-99285713D01*
X125843571Y-99285713D02*
X125795952Y-99190475D01*
X125795952Y-99190475D02*
X125795952Y-99047618D01*
X125795952Y-99047618D02*
X125843571Y-98952379D01*
X125843571Y-98952379D02*
X125938809Y-98904760D01*
X125938809Y-98904760D02*
X126462619Y-98904760D01*
X126462619Y-98428570D02*
X125795952Y-98428570D01*
X125891190Y-98428570D02*
X125843571Y-98380951D01*
X125843571Y-98380951D02*
X125795952Y-98285713D01*
X125795952Y-98285713D02*
X125795952Y-98142856D01*
X125795952Y-98142856D02*
X125843571Y-98047618D01*
X125843571Y-98047618D02*
X125938809Y-97999999D01*
X125938809Y-97999999D02*
X126462619Y-97999999D01*
X125938809Y-97999999D02*
X125843571Y-97952380D01*
X125843571Y-97952380D02*
X125795952Y-97857142D01*
X125795952Y-97857142D02*
X125795952Y-97714285D01*
X125795952Y-97714285D02*
X125843571Y-97619046D01*
X125843571Y-97619046D02*
X125938809Y-97571427D01*
X125938809Y-97571427D02*
X126462619Y-97571427D01*
X162505063Y-91000000D02*
X126413580Y-91000000D01*
X126413580Y-109000000D02*
X161505063Y-109000000D01*
X127000000Y-91000000D02*
X127000000Y-109000000D01*
X127000000Y-91000000D02*
X127000000Y-109000000D01*
X127000000Y-91000000D02*
X127577186Y-92108764D01*
X127000000Y-91000000D02*
X126422814Y-92108764D01*
X127000000Y-109000000D02*
X126422814Y-107891236D01*
X127000000Y-109000000D02*
X127577186Y-107891236D01*
X128174562Y-98547618D02*
X128174562Y-97880952D01*
X128174562Y-97880952D02*
X129174562Y-98309523D01*
X129174562Y-96738094D02*
X128507895Y-96738094D01*
X128603133Y-96738094D02*
X128555514Y-96690475D01*
X128555514Y-96690475D02*
X128507895Y-96595237D01*
X128507895Y-96595237D02*
X128507895Y-96452380D01*
X128507895Y-96452380D02*
X128555514Y-96357142D01*
X128555514Y-96357142D02*
X128650752Y-96309523D01*
X128650752Y-96309523D02*
X129174562Y-96309523D01*
X128650752Y-96309523D02*
X128555514Y-96261904D01*
X128555514Y-96261904D02*
X128507895Y-96166666D01*
X128507895Y-96166666D02*
X128507895Y-96023809D01*
X128507895Y-96023809D02*
X128555514Y-95928570D01*
X128555514Y-95928570D02*
X128650752Y-95880951D01*
X128650752Y-95880951D02*
X129174562Y-95880951D01*
X129174562Y-95404761D02*
X128507895Y-95404761D01*
X128603133Y-95404761D02*
X128555514Y-95357142D01*
X128555514Y-95357142D02*
X128507895Y-95261904D01*
X128507895Y-95261904D02*
X128507895Y-95119047D01*
X128507895Y-95119047D02*
X128555514Y-95023809D01*
X128555514Y-95023809D02*
X128650752Y-94976190D01*
X128650752Y-94976190D02*
X129174562Y-94976190D01*
X128650752Y-94976190D02*
X128555514Y-94928571D01*
X128555514Y-94928571D02*
X128507895Y-94833333D01*
X128507895Y-94833333D02*
X128507895Y-94690476D01*
X128507895Y-94690476D02*
X128555514Y-94595237D01*
X128555514Y-94595237D02*
X128650752Y-94547618D01*
X128650752Y-94547618D02*
X129174562Y-94547618D01*
X149500000Y-100000000D02*
X129275523Y-100000000D01*
X129275523Y-93000000D02*
X165500000Y-93000000D01*
X129861943Y-100000000D02*
X129861943Y-93000000D01*
X129861943Y-100000000D02*
X129861943Y-93000000D01*
X129861943Y-100000000D02*
X129284757Y-98891236D01*
X129861943Y-100000000D02*
X130439129Y-98891236D01*
X129861943Y-93000000D02*
X130439129Y-94108764D01*
X129861943Y-93000000D02*
X129284757Y-94108764D01*
X129184936Y-106404761D02*
X129184936Y-106214285D01*
X129184936Y-106214285D02*
X129137317Y-106119047D01*
X129137317Y-106119047D02*
X129089697Y-106071428D01*
X129089697Y-106071428D02*
X128946840Y-105976190D01*
X128946840Y-105976190D02*
X128756364Y-105928571D01*
X128756364Y-105928571D02*
X128375412Y-105928571D01*
X128375412Y-105928571D02*
X128280174Y-105976190D01*
X128280174Y-105976190D02*
X128232555Y-106023809D01*
X128232555Y-106023809D02*
X128184936Y-106119047D01*
X128184936Y-106119047D02*
X128184936Y-106309523D01*
X128184936Y-106309523D02*
X128232555Y-106404761D01*
X128232555Y-106404761D02*
X128280174Y-106452380D01*
X128280174Y-106452380D02*
X128375412Y-106499999D01*
X128375412Y-106499999D02*
X128613507Y-106499999D01*
X128613507Y-106499999D02*
X128708745Y-106452380D01*
X128708745Y-106452380D02*
X128756364Y-106404761D01*
X128756364Y-106404761D02*
X128803983Y-106309523D01*
X128803983Y-106309523D02*
X128803983Y-106119047D01*
X128803983Y-106119047D02*
X128756364Y-106023809D01*
X128756364Y-106023809D02*
X128708745Y-105976190D01*
X128708745Y-105976190D02*
X128613507Y-105928571D01*
X129184936Y-104738094D02*
X128518269Y-104738094D01*
X128613507Y-104738094D02*
X128565888Y-104690475D01*
X128565888Y-104690475D02*
X128518269Y-104595237D01*
X128518269Y-104595237D02*
X128518269Y-104452380D01*
X128518269Y-104452380D02*
X128565888Y-104357142D01*
X128565888Y-104357142D02*
X128661126Y-104309523D01*
X128661126Y-104309523D02*
X129184936Y-104309523D01*
X128661126Y-104309523D02*
X128565888Y-104261904D01*
X128565888Y-104261904D02*
X128518269Y-104166666D01*
X128518269Y-104166666D02*
X128518269Y-104023809D01*
X128518269Y-104023809D02*
X128565888Y-103928570D01*
X128565888Y-103928570D02*
X128661126Y-103880951D01*
X128661126Y-103880951D02*
X129184936Y-103880951D01*
X129184936Y-103404761D02*
X128518269Y-103404761D01*
X128613507Y-103404761D02*
X128565888Y-103357142D01*
X128565888Y-103357142D02*
X128518269Y-103261904D01*
X128518269Y-103261904D02*
X128518269Y-103119047D01*
X128518269Y-103119047D02*
X128565888Y-103023809D01*
X128565888Y-103023809D02*
X128661126Y-102976190D01*
X128661126Y-102976190D02*
X129184936Y-102976190D01*
X128661126Y-102976190D02*
X128565888Y-102928571D01*
X128565888Y-102928571D02*
X128518269Y-102833333D01*
X128518269Y-102833333D02*
X128518269Y-102690476D01*
X128518269Y-102690476D02*
X128565888Y-102595237D01*
X128565888Y-102595237D02*
X128661126Y-102547618D01*
X128661126Y-102547618D02*
X129184936Y-102547618D01*
X149500000Y-100000000D02*
X129285897Y-100000000D01*
X129285897Y-109000000D02*
X147500000Y-109000000D01*
X129872317Y-100000000D02*
X129872317Y-109000000D01*
X129872317Y-100000000D02*
X129872317Y-109000000D01*
X129872317Y-100000000D02*
X130449503Y-101108764D01*
X129872317Y-100000000D02*
X129295131Y-101108764D01*
X129872317Y-109000000D02*
X129295131Y-107891236D01*
X129872317Y-109000000D02*
X130449503Y-107891236D01*
X171312619Y-101904761D02*
X171312619Y-102476189D01*
X171312619Y-102190475D02*
X170312619Y-102190475D01*
X170312619Y-102190475D02*
X170455476Y-102285713D01*
X170455476Y-102285713D02*
X170550714Y-102380951D01*
X170550714Y-102380951D02*
X170598333Y-102476189D01*
X170645952Y-101047618D02*
X171312619Y-101047618D01*
X170265000Y-101285713D02*
X170979285Y-101523808D01*
X170979285Y-101523808D02*
X170979285Y-100904761D01*
X171312619Y-99761903D02*
X170645952Y-99761903D01*
X170741190Y-99761903D02*
X170693571Y-99714284D01*
X170693571Y-99714284D02*
X170645952Y-99619046D01*
X170645952Y-99619046D02*
X170645952Y-99476189D01*
X170645952Y-99476189D02*
X170693571Y-99380951D01*
X170693571Y-99380951D02*
X170788809Y-99333332D01*
X170788809Y-99333332D02*
X171312619Y-99333332D01*
X170788809Y-99333332D02*
X170693571Y-99285713D01*
X170693571Y-99285713D02*
X170645952Y-99190475D01*
X170645952Y-99190475D02*
X170645952Y-99047618D01*
X170645952Y-99047618D02*
X170693571Y-98952379D01*
X170693571Y-98952379D02*
X170788809Y-98904760D01*
X170788809Y-98904760D02*
X171312619Y-98904760D01*
X171312619Y-98428570D02*
X170645952Y-98428570D01*
X170741190Y-98428570D02*
X170693571Y-98380951D01*
X170693571Y-98380951D02*
X170645952Y-98285713D01*
X170645952Y-98285713D02*
X170645952Y-98142856D01*
X170645952Y-98142856D02*
X170693571Y-98047618D01*
X170693571Y-98047618D02*
X170788809Y-97999999D01*
X170788809Y-97999999D02*
X171312619Y-97999999D01*
X170788809Y-97999999D02*
X170693571Y-97952380D01*
X170693571Y-97952380D02*
X170645952Y-97857142D01*
X170645952Y-97857142D02*
X170645952Y-97714285D01*
X170645952Y-97714285D02*
X170693571Y-97619046D01*
X170693571Y-97619046D02*
X170788809Y-97571427D01*
X170788809Y-97571427D02*
X171312619Y-97571427D01*
X166500000Y-107000000D02*
X172586420Y-107000000D01*
X172586420Y-93000000D02*
X166500000Y-93000000D01*
X172000000Y-107000000D02*
X172000000Y-93000000D01*
X172000000Y-107000000D02*
X172000000Y-93000000D01*
X172000000Y-107000000D02*
X171422814Y-105891236D01*
X172000000Y-107000000D02*
X172577186Y-105891236D01*
X172000000Y-93000000D02*
X172577186Y-94108764D01*
X172000000Y-93000000D02*
X171422814Y-94108764D01*
D12*
%TO.C,H2*%
X167130000Y-93000000D02*
G75*
G03*
X167130000Y-93000000I-1130000J0D01*
G01*
%TO.C,H4*%
X135130000Y-107000000D02*
G75*
G03*
X135130000Y-107000000I-1130000J0D01*
G01*
%TO.C,H3*%
X167130000Y-107000000D02*
G75*
G03*
X167130000Y-107000000I-1130000J0D01*
G01*
%TO.C,H1*%
X135130000Y-93000000D02*
G75*
G03*
X135130000Y-93000000I-1130000J0D01*
G01*
%TD*%
M02*
