M48
; DRILL file {KiCad 7.0.1} date Fri 24 Mar 2023 10:33:37 AM EDT
; FORMAT={-:-/ absolute / inch / decimal}
; #@! TF.CreationDate,2023-03-24T10:33:37-04:00
; #@! TF.GenerationSoftware,Kicad,Pcbnew,7.0.1
; #@! TF.FileFunction,MixedPlating,1,4
FMAT,2
INCH
; #@! TA.AperFunction,Plated,PTH,ViaDrill
T1C0.0157
; #@! TA.AperFunction,Plated,PTH,ComponentDrill
T2C0.0157
; #@! TA.AperFunction,Plated,PTH,ComponentDrill
T3C0.0197
; #@! TA.AperFunction,Plated,PTH,ComponentDrill
T4C0.0890
; #@! TA.AperFunction,NonPlated,NPTH,ComponentDrill
T5C0.0256
%
G90
G05
T1
X5.3691Y-4.1808
X5.4047Y-4.1919
X5.413Y-3.8386
X5.5118Y-3.6811
X5.5709Y-4.0945
X5.6201Y-3.6713
X5.6339Y-3.9353
X5.6693Y-3.8091
X5.7563Y-3.612
X5.7641Y-3.8717
X5.9043Y-3.6811
X5.9055Y-3.6417
X5.9467Y-4.0487
X5.9788Y-4.0222
X5.9858Y-3.8556
X6.1052Y-4.0549
X6.1289Y-3.6614
X6.1534Y-3.8415
X6.2205Y-3.937
X6.2697Y-3.6506
T2
X6.3642Y-3.8248
X6.3642Y-3.8878
X6.3642Y-3.9193
X6.3642Y-3.9508
X6.3642Y-3.9823
X6.3642Y-4.0453
X6.3917Y-3.8406
X6.3917Y-3.872
X6.3917Y-3.9035
X6.3917Y-3.9665
X6.3917Y-3.998
X6.3917Y-4.0295
T4
X5.2756Y-3.6614
X5.2756Y-4.2126
X6.5354Y-3.6614
X6.5354Y-4.2126
T5
X6.3386Y-4.0768
T3
G00X6.376Y-3.7724
M15
G01X6.3996Y-3.7724
M16
G05
G00X6.376Y-4.0976
M15
G01X6.3996Y-4.0976
M16
G05
G00X6.5512Y-3.7602
M15
G01X6.5748Y-3.7602
M16
G05
G00X6.5512Y-4.1138
M15
G01X6.5748Y-4.1138
M16
G05
T5
G00X6.3386Y-3.7992
M15
G01X6.3386Y-3.7874
M16
G05
T0
M30
