%TF.GenerationSoftware,KiCad,Pcbnew,7.0.1*%
%TF.CreationDate,2023-03-24T10:32:53-04:00*%
%TF.ProjectId,wingbeat_detector,77696e67-6265-4617-945f-646574656374,3.0*%
%TF.SameCoordinates,Original*%
%TF.FileFunction,Legend,Bot*%
%TF.FilePolarity,Positive*%
%FSLAX46Y46*%
G04 Gerber Fmt 4.6, Leading zero omitted, Abs format (unit mm)*
G04 Created by KiCad (PCBNEW 7.0.1) date 2023-03-24 10:32:53*
%MOMM*%
%LPD*%
G01*
G04 APERTURE LIST*
G04 Aperture macros list*
%AMRoundRect*
0 Rectangle with rounded corners*
0 $1 Rounding radius*
0 $2 $3 $4 $5 $6 $7 $8 $9 X,Y pos of 4 corners*
0 Add a 4 corners polygon primitive as box body*
4,1,4,$2,$3,$4,$5,$6,$7,$8,$9,$2,$3,0*
0 Add four circle primitives for the rounded corners*
1,1,$1+$1,$2,$3*
1,1,$1+$1,$4,$5*
1,1,$1+$1,$6,$7*
1,1,$1+$1,$8,$9*
0 Add four rect primitives between the rounded corners*
20,1,$1+$1,$2,$3,$4,$5,0*
20,1,$1+$1,$4,$5,$6,$7,0*
20,1,$1+$1,$6,$7,$8,$9,0*
20,1,$1+$1,$8,$9,$2,$3,0*%
%AMOutline5P*
0 Free polygon, 5 corners , with rotation*
0 The origin of the aperture is its center*
0 number of corners: always 5*
0 $1 to $10 corner X, Y*
0 $11 Rotation angle, in degrees counterclockwise*
0 create outline with 5 corners*
4,1,5,$1,$2,$3,$4,$5,$6,$7,$8,$9,$10,$1,$2,$11*%
%AMOutline6P*
0 Free polygon, 6 corners , with rotation*
0 The origin of the aperture is its center*
0 number of corners: always 6*
0 $1 to $12 corner X, Y*
0 $13 Rotation angle, in degrees counterclockwise*
0 create outline with 6 corners*
4,1,6,$1,$2,$3,$4,$5,$6,$7,$8,$9,$10,$11,$12,$1,$2,$13*%
%AMOutline7P*
0 Free polygon, 7 corners , with rotation*
0 The origin of the aperture is its center*
0 number of corners: always 7*
0 $1 to $14 corner X, Y*
0 $15 Rotation angle, in degrees counterclockwise*
0 create outline with 7 corners*
4,1,7,$1,$2,$3,$4,$5,$6,$7,$8,$9,$10,$11,$12,$13,$14,$1,$2,$15*%
%AMOutline8P*
0 Free polygon, 8 corners , with rotation*
0 The origin of the aperture is its center*
0 number of corners: always 8*
0 $1 to $16 corner X, Y*
0 $17 Rotation angle, in degrees counterclockwise*
0 create outline with 8 corners*
4,1,8,$1,$2,$3,$4,$5,$6,$7,$8,$9,$10,$11,$12,$13,$14,$15,$16,$1,$2,$17*%
%AMFreePoly0*
4,1,19,0.500000,-0.750000,0.000000,-0.750000,0.000000,-0.744911,-0.071157,-0.744911,-0.207708,-0.704816,-0.327430,-0.627875,-0.420627,-0.520320,-0.479746,-0.390866,-0.500000,-0.250000,-0.500000,0.250000,-0.479746,0.390866,-0.420627,0.520320,-0.327430,0.627875,-0.207708,0.704816,-0.071157,0.744911,0.000000,0.744911,0.000000,0.750000,0.500000,0.750000,0.500000,-0.750000,0.500000,-0.750000,
$1*%
%AMFreePoly1*
4,1,19,0.000000,0.744911,0.071157,0.744911,0.207708,0.704816,0.327430,0.627875,0.420627,0.520320,0.479746,0.390866,0.500000,0.250000,0.500000,-0.250000,0.479746,-0.390866,0.420627,-0.520320,0.327430,-0.627875,0.207708,-0.704816,0.071157,-0.744911,0.000000,-0.744911,0.000000,-0.750000,-0.500000,-0.750000,-0.500000,0.750000,0.000000,0.750000,0.000000,0.744911,0.000000,0.744911,
$1*%
G04 Aperture macros list end*
%ADD10C,0.100000*%
%ADD11C,0.125000*%
%ADD12C,0.150000*%
%ADD13C,0.350000*%
%ADD14C,0.500000*%
%ADD15C,0.300000*%
%ADD16C,0.120000*%
%ADD17C,0.127000*%
%ADD18C,0.200000*%
%ADD19C,0.050000*%
%ADD20C,0.250000*%
%ADD21C,2.660000*%
%ADD22C,0.650000*%
%ADD23O,0.650000X0.950000*%
%ADD24C,0.600000*%
%ADD25O,1.600000X1.000000*%
%ADD26RoundRect,0.140000X0.170000X-0.140000X0.170000X0.140000X-0.170000X0.140000X-0.170000X-0.140000X0*%
%ADD27RoundRect,0.225000X-0.225000X-0.250000X0.225000X-0.250000X0.225000X0.250000X-0.225000X0.250000X0*%
%ADD28RoundRect,0.135000X0.185000X-0.135000X0.185000X0.135000X-0.185000X0.135000X-0.185000X-0.135000X0*%
%ADD29RoundRect,0.225000X0.250000X-0.225000X0.250000X0.225000X-0.250000X0.225000X-0.250000X-0.225000X0*%
%ADD30RoundRect,0.135000X-0.135000X-0.185000X0.135000X-0.185000X0.135000X0.185000X-0.135000X0.185000X0*%
%ADD31C,1.000000*%
%ADD32R,0.650000X0.350000*%
%ADD33Outline5P,-0.500000X0.800000X0.500000X0.800000X0.500000X-0.800000X-0.300000X-0.800000X-0.500000X-0.600000X0.000000*%
%ADD34R,1.050000X1.000000*%
%ADD35Outline5P,-0.525000X1.100000X0.525000X1.100000X0.525000X-0.837500X0.262500X-1.100000X-0.525000X-1.100000X270.000000*%
%ADD36Outline5P,-0.525000X1.100000X0.525000X1.100000X0.525000X-1.100000X-0.262500X-1.100000X-0.525000X-0.837500X270.000000*%
%ADD37RoundRect,0.135000X0.135000X0.185000X-0.135000X0.185000X-0.135000X-0.185000X0.135000X-0.185000X0*%
%ADD38RoundRect,0.250000X-1.500000X-0.250000X1.500000X-0.250000X1.500000X0.250000X-1.500000X0.250000X0*%
%ADD39FreePoly0,180.000000*%
%ADD40FreePoly1,180.000000*%
%ADD41RoundRect,0.028200X0.206800X-0.681800X0.206800X0.681800X-0.206800X0.681800X-0.206800X-0.681800X0*%
%ADD42RoundRect,0.150000X0.150000X-0.875000X0.150000X0.875000X-0.150000X0.875000X-0.150000X-0.875000X0*%
%ADD43RoundRect,0.140000X-0.170000X0.140000X-0.170000X-0.140000X0.170000X-0.140000X0.170000X0.140000X0*%
%ADD44RoundRect,0.225000X-0.250000X0.225000X-0.250000X-0.225000X0.250000X-0.225000X0.250000X0.225000X0*%
%ADD45RoundRect,0.030000X-0.045000X-0.095000X0.045000X-0.095000X0.045000X0.095000X-0.045000X0.095000X0*%
%ADD46RoundRect,0.050000X-0.200000X-0.075000X0.200000X-0.075000X0.200000X0.075000X-0.200000X0.075000X0*%
G04 APERTURE END LIST*
D10*
X149063047Y-106919047D02*
X149348761Y-106919047D01*
X149348761Y-106919047D02*
X149405904Y-106900000D01*
X149405904Y-106900000D02*
X149444000Y-106861904D01*
X149444000Y-106861904D02*
X149463047Y-106804762D01*
X149463047Y-106804762D02*
X149463047Y-106766666D01*
X149063047Y-107109524D02*
X149386857Y-107109524D01*
X149386857Y-107109524D02*
X149424952Y-107128571D01*
X149424952Y-107128571D02*
X149444000Y-107147619D01*
X149444000Y-107147619D02*
X149463047Y-107185714D01*
X149463047Y-107185714D02*
X149463047Y-107261905D01*
X149463047Y-107261905D02*
X149444000Y-107300000D01*
X149444000Y-107300000D02*
X149424952Y-107319047D01*
X149424952Y-107319047D02*
X149386857Y-107338095D01*
X149386857Y-107338095D02*
X149063047Y-107338095D01*
X149463047Y-107528572D02*
X149063047Y-107528572D01*
X149063047Y-107528572D02*
X149348761Y-107661905D01*
X149348761Y-107661905D02*
X149063047Y-107795238D01*
X149063047Y-107795238D02*
X149463047Y-107795238D01*
X149463047Y-107985715D02*
X149063047Y-107985715D01*
X149063047Y-107985715D02*
X149063047Y-108138096D01*
X149063047Y-108138096D02*
X149082095Y-108176191D01*
X149082095Y-108176191D02*
X149101142Y-108195238D01*
X149101142Y-108195238D02*
X149139238Y-108214286D01*
X149139238Y-108214286D02*
X149196380Y-108214286D01*
X149196380Y-108214286D02*
X149234476Y-108195238D01*
X149234476Y-108195238D02*
X149253523Y-108176191D01*
X149253523Y-108176191D02*
X149272571Y-108138096D01*
X149272571Y-108138096D02*
X149272571Y-107985715D01*
X150111047Y-107242857D02*
X150111047Y-107052381D01*
X150111047Y-107052381D02*
X149711047Y-107052381D01*
X149901523Y-107376191D02*
X149901523Y-107509524D01*
X150111047Y-107566667D02*
X150111047Y-107376191D01*
X150111047Y-107376191D02*
X149711047Y-107376191D01*
X149711047Y-107376191D02*
X149711047Y-107566667D01*
X150111047Y-107738096D02*
X149711047Y-107738096D01*
X149711047Y-107738096D02*
X149711047Y-107833334D01*
X149711047Y-107833334D02*
X149730095Y-107890477D01*
X149730095Y-107890477D02*
X149768190Y-107928572D01*
X149768190Y-107928572D02*
X149806285Y-107947619D01*
X149806285Y-107947619D02*
X149882476Y-107966667D01*
X149882476Y-107966667D02*
X149939619Y-107966667D01*
X149939619Y-107966667D02*
X150015809Y-107947619D01*
X150015809Y-107947619D02*
X150053904Y-107928572D01*
X150053904Y-107928572D02*
X150092000Y-107890477D01*
X150092000Y-107890477D02*
X150111047Y-107833334D01*
X150111047Y-107833334D02*
X150111047Y-107738096D01*
X150759047Y-106347619D02*
X150359047Y-106347619D01*
X150359047Y-106347619D02*
X150359047Y-106442857D01*
X150359047Y-106442857D02*
X150378095Y-106500000D01*
X150378095Y-106500000D02*
X150416190Y-106538095D01*
X150416190Y-106538095D02*
X150454285Y-106557142D01*
X150454285Y-106557142D02*
X150530476Y-106576190D01*
X150530476Y-106576190D02*
X150587619Y-106576190D01*
X150587619Y-106576190D02*
X150663809Y-106557142D01*
X150663809Y-106557142D02*
X150701904Y-106538095D01*
X150701904Y-106538095D02*
X150740000Y-106500000D01*
X150740000Y-106500000D02*
X150759047Y-106442857D01*
X150759047Y-106442857D02*
X150759047Y-106347619D01*
X150549523Y-106747619D02*
X150549523Y-106880952D01*
X150759047Y-106938095D02*
X150759047Y-106747619D01*
X150759047Y-106747619D02*
X150359047Y-106747619D01*
X150359047Y-106747619D02*
X150359047Y-106938095D01*
X150549523Y-107242857D02*
X150549523Y-107109524D01*
X150759047Y-107109524D02*
X150359047Y-107109524D01*
X150359047Y-107109524D02*
X150359047Y-107300000D01*
X150644761Y-107433333D02*
X150644761Y-107623809D01*
X150759047Y-107395238D02*
X150359047Y-107528571D01*
X150359047Y-107528571D02*
X150759047Y-107661904D01*
X150359047Y-107795238D02*
X150682857Y-107795238D01*
X150682857Y-107795238D02*
X150720952Y-107814285D01*
X150720952Y-107814285D02*
X150740000Y-107833333D01*
X150740000Y-107833333D02*
X150759047Y-107871428D01*
X150759047Y-107871428D02*
X150759047Y-107947619D01*
X150759047Y-107947619D02*
X150740000Y-107985714D01*
X150740000Y-107985714D02*
X150720952Y-108004761D01*
X150720952Y-108004761D02*
X150682857Y-108023809D01*
X150682857Y-108023809D02*
X150359047Y-108023809D01*
X150759047Y-108404762D02*
X150759047Y-108214286D01*
X150759047Y-108214286D02*
X150359047Y-108214286D01*
X150359047Y-108480953D02*
X150359047Y-108709524D01*
X150759047Y-108595238D02*
X150359047Y-108595238D01*
X151407047Y-106195238D02*
X151007047Y-106195238D01*
X151007047Y-106195238D02*
X151007047Y-106290476D01*
X151007047Y-106290476D02*
X151026095Y-106347619D01*
X151026095Y-106347619D02*
X151064190Y-106385714D01*
X151064190Y-106385714D02*
X151102285Y-106404761D01*
X151102285Y-106404761D02*
X151178476Y-106423809D01*
X151178476Y-106423809D02*
X151235619Y-106423809D01*
X151235619Y-106423809D02*
X151311809Y-106404761D01*
X151311809Y-106404761D02*
X151349904Y-106385714D01*
X151349904Y-106385714D02*
X151388000Y-106347619D01*
X151388000Y-106347619D02*
X151407047Y-106290476D01*
X151407047Y-106290476D02*
X151407047Y-106195238D01*
X151407047Y-106595238D02*
X151007047Y-106595238D01*
X151388000Y-106766666D02*
X151407047Y-106823809D01*
X151407047Y-106823809D02*
X151407047Y-106919047D01*
X151407047Y-106919047D02*
X151388000Y-106957142D01*
X151388000Y-106957142D02*
X151368952Y-106976190D01*
X151368952Y-106976190D02*
X151330857Y-106995237D01*
X151330857Y-106995237D02*
X151292761Y-106995237D01*
X151292761Y-106995237D02*
X151254666Y-106976190D01*
X151254666Y-106976190D02*
X151235619Y-106957142D01*
X151235619Y-106957142D02*
X151216571Y-106919047D01*
X151216571Y-106919047D02*
X151197523Y-106842856D01*
X151197523Y-106842856D02*
X151178476Y-106804761D01*
X151178476Y-106804761D02*
X151159428Y-106785714D01*
X151159428Y-106785714D02*
X151121333Y-106766666D01*
X151121333Y-106766666D02*
X151083238Y-106766666D01*
X151083238Y-106766666D02*
X151045142Y-106785714D01*
X151045142Y-106785714D02*
X151026095Y-106804761D01*
X151026095Y-106804761D02*
X151007047Y-106842856D01*
X151007047Y-106842856D02*
X151007047Y-106938095D01*
X151007047Y-106938095D02*
X151026095Y-106995237D01*
X151292761Y-107147618D02*
X151292761Y-107338094D01*
X151407047Y-107109523D02*
X151007047Y-107242856D01*
X151007047Y-107242856D02*
X151407047Y-107376189D01*
X151197523Y-107642856D02*
X151216571Y-107699999D01*
X151216571Y-107699999D02*
X151235619Y-107719046D01*
X151235619Y-107719046D02*
X151273714Y-107738094D01*
X151273714Y-107738094D02*
X151330857Y-107738094D01*
X151330857Y-107738094D02*
X151368952Y-107719046D01*
X151368952Y-107719046D02*
X151388000Y-107699999D01*
X151388000Y-107699999D02*
X151407047Y-107661904D01*
X151407047Y-107661904D02*
X151407047Y-107509523D01*
X151407047Y-107509523D02*
X151007047Y-107509523D01*
X151007047Y-107509523D02*
X151007047Y-107642856D01*
X151007047Y-107642856D02*
X151026095Y-107680951D01*
X151026095Y-107680951D02*
X151045142Y-107699999D01*
X151045142Y-107699999D02*
X151083238Y-107719046D01*
X151083238Y-107719046D02*
X151121333Y-107719046D01*
X151121333Y-107719046D02*
X151159428Y-107699999D01*
X151159428Y-107699999D02*
X151178476Y-107680951D01*
X151178476Y-107680951D02*
X151197523Y-107642856D01*
X151197523Y-107642856D02*
X151197523Y-107509523D01*
X151407047Y-108099999D02*
X151407047Y-107909523D01*
X151407047Y-107909523D02*
X151007047Y-107909523D01*
X151197523Y-108233333D02*
X151197523Y-108366666D01*
X151407047Y-108423809D02*
X151407047Y-108233333D01*
X151407047Y-108233333D02*
X151007047Y-108233333D01*
X151007047Y-108233333D02*
X151007047Y-108423809D01*
X151407047Y-108595238D02*
X151007047Y-108595238D01*
X151007047Y-108595238D02*
X151007047Y-108690476D01*
X151007047Y-108690476D02*
X151026095Y-108747619D01*
X151026095Y-108747619D02*
X151064190Y-108785714D01*
X151064190Y-108785714D02*
X151102285Y-108804761D01*
X151102285Y-108804761D02*
X151178476Y-108823809D01*
X151178476Y-108823809D02*
X151235619Y-108823809D01*
X151235619Y-108823809D02*
X151311809Y-108804761D01*
X151311809Y-108804761D02*
X151349904Y-108785714D01*
X151349904Y-108785714D02*
X151388000Y-108747619D01*
X151388000Y-108747619D02*
X151407047Y-108690476D01*
X151407047Y-108690476D02*
X151407047Y-108595238D01*
D11*
X140731309Y-104607142D02*
X140731309Y-104369047D01*
X140731309Y-104369047D02*
X140231309Y-104369047D01*
X140469404Y-104773809D02*
X140469404Y-104940476D01*
X140731309Y-105011904D02*
X140731309Y-104773809D01*
X140731309Y-104773809D02*
X140231309Y-104773809D01*
X140231309Y-104773809D02*
X140231309Y-105011904D01*
X140731309Y-105226190D02*
X140231309Y-105226190D01*
X140231309Y-105226190D02*
X140231309Y-105345238D01*
X140231309Y-105345238D02*
X140255119Y-105416666D01*
X140255119Y-105416666D02*
X140302738Y-105464285D01*
X140302738Y-105464285D02*
X140350357Y-105488095D01*
X140350357Y-105488095D02*
X140445595Y-105511904D01*
X140445595Y-105511904D02*
X140517023Y-105511904D01*
X140517023Y-105511904D02*
X140612261Y-105488095D01*
X140612261Y-105488095D02*
X140659880Y-105464285D01*
X140659880Y-105464285D02*
X140707500Y-105416666D01*
X140707500Y-105416666D02*
X140731309Y-105345238D01*
X140731309Y-105345238D02*
X140731309Y-105226190D01*
X140469404Y-106107142D02*
X140469404Y-106273809D01*
X140731309Y-106345237D02*
X140731309Y-106107142D01*
X140731309Y-106107142D02*
X140231309Y-106107142D01*
X140231309Y-106107142D02*
X140231309Y-106345237D01*
X140731309Y-106559523D02*
X140231309Y-106559523D01*
X140231309Y-106559523D02*
X140731309Y-106845237D01*
X140731309Y-106845237D02*
X140231309Y-106845237D01*
X140588452Y-107059524D02*
X140588452Y-107297619D01*
X140731309Y-107011905D02*
X140231309Y-107178571D01*
X140231309Y-107178571D02*
X140731309Y-107345238D01*
X140469404Y-107678571D02*
X140493214Y-107749999D01*
X140493214Y-107749999D02*
X140517023Y-107773809D01*
X140517023Y-107773809D02*
X140564642Y-107797618D01*
X140564642Y-107797618D02*
X140636071Y-107797618D01*
X140636071Y-107797618D02*
X140683690Y-107773809D01*
X140683690Y-107773809D02*
X140707500Y-107749999D01*
X140707500Y-107749999D02*
X140731309Y-107702380D01*
X140731309Y-107702380D02*
X140731309Y-107511904D01*
X140731309Y-107511904D02*
X140231309Y-107511904D01*
X140231309Y-107511904D02*
X140231309Y-107678571D01*
X140231309Y-107678571D02*
X140255119Y-107726190D01*
X140255119Y-107726190D02*
X140278928Y-107749999D01*
X140278928Y-107749999D02*
X140326547Y-107773809D01*
X140326547Y-107773809D02*
X140374166Y-107773809D01*
X140374166Y-107773809D02*
X140421785Y-107749999D01*
X140421785Y-107749999D02*
X140445595Y-107726190D01*
X140445595Y-107726190D02*
X140469404Y-107678571D01*
X140469404Y-107678571D02*
X140469404Y-107511904D01*
X140731309Y-108249999D02*
X140731309Y-108011904D01*
X140731309Y-108011904D02*
X140231309Y-108011904D01*
X140469404Y-108416666D02*
X140469404Y-108583333D01*
X140731309Y-108654761D02*
X140731309Y-108416666D01*
X140731309Y-108416666D02*
X140231309Y-108416666D01*
X140231309Y-108416666D02*
X140231309Y-108654761D01*
X166416665Y-102564404D02*
X166583332Y-102564404D01*
X166583332Y-102826309D02*
X166583332Y-102326309D01*
X166583332Y-102326309D02*
X166345237Y-102326309D01*
X166154761Y-102826309D02*
X166154761Y-102326309D01*
X165678571Y-102826309D02*
X165916666Y-102826309D01*
X165916666Y-102826309D02*
X165916666Y-102326309D01*
X165583332Y-102326309D02*
X165297618Y-102326309D01*
X165440475Y-102826309D02*
X165440475Y-102326309D01*
X165130952Y-102564404D02*
X164964285Y-102564404D01*
X164892857Y-102826309D02*
X165130952Y-102826309D01*
X165130952Y-102826309D02*
X165130952Y-102326309D01*
X165130952Y-102326309D02*
X164892857Y-102326309D01*
X164392857Y-102826309D02*
X164559523Y-102588214D01*
X164678571Y-102826309D02*
X164678571Y-102326309D01*
X164678571Y-102326309D02*
X164488095Y-102326309D01*
X164488095Y-102326309D02*
X164440476Y-102350119D01*
X164440476Y-102350119D02*
X164416666Y-102373928D01*
X164416666Y-102373928D02*
X164392857Y-102421547D01*
X164392857Y-102421547D02*
X164392857Y-102492976D01*
X164392857Y-102492976D02*
X164416666Y-102540595D01*
X164416666Y-102540595D02*
X164440476Y-102564404D01*
X164440476Y-102564404D02*
X164488095Y-102588214D01*
X164488095Y-102588214D02*
X164678571Y-102588214D01*
X166702381Y-103136309D02*
X166607143Y-103136309D01*
X166607143Y-103136309D02*
X166559524Y-103160119D01*
X166559524Y-103160119D02*
X166511905Y-103207738D01*
X166511905Y-103207738D02*
X166488095Y-103302976D01*
X166488095Y-103302976D02*
X166488095Y-103469642D01*
X166488095Y-103469642D02*
X166511905Y-103564880D01*
X166511905Y-103564880D02*
X166559524Y-103612500D01*
X166559524Y-103612500D02*
X166607143Y-103636309D01*
X166607143Y-103636309D02*
X166702381Y-103636309D01*
X166702381Y-103636309D02*
X166750000Y-103612500D01*
X166750000Y-103612500D02*
X166797619Y-103564880D01*
X166797619Y-103564880D02*
X166821428Y-103469642D01*
X166821428Y-103469642D02*
X166821428Y-103302976D01*
X166821428Y-103302976D02*
X166797619Y-103207738D01*
X166797619Y-103207738D02*
X166750000Y-103160119D01*
X166750000Y-103160119D02*
X166702381Y-103136309D01*
X166273809Y-103136309D02*
X166273809Y-103541071D01*
X166273809Y-103541071D02*
X166249999Y-103588690D01*
X166249999Y-103588690D02*
X166226190Y-103612500D01*
X166226190Y-103612500D02*
X166178571Y-103636309D01*
X166178571Y-103636309D02*
X166083333Y-103636309D01*
X166083333Y-103636309D02*
X166035714Y-103612500D01*
X166035714Y-103612500D02*
X166011904Y-103588690D01*
X166011904Y-103588690D02*
X165988095Y-103541071D01*
X165988095Y-103541071D02*
X165988095Y-103136309D01*
X165821427Y-103136309D02*
X165535713Y-103136309D01*
X165678570Y-103636309D02*
X165678570Y-103136309D01*
X165369047Y-103636309D02*
X165369047Y-103136309D01*
X165369047Y-103136309D02*
X165178571Y-103136309D01*
X165178571Y-103136309D02*
X165130952Y-103160119D01*
X165130952Y-103160119D02*
X165107142Y-103183928D01*
X165107142Y-103183928D02*
X165083333Y-103231547D01*
X165083333Y-103231547D02*
X165083333Y-103302976D01*
X165083333Y-103302976D02*
X165107142Y-103350595D01*
X165107142Y-103350595D02*
X165130952Y-103374404D01*
X165130952Y-103374404D02*
X165178571Y-103398214D01*
X165178571Y-103398214D02*
X165369047Y-103398214D01*
X164869047Y-103136309D02*
X164869047Y-103541071D01*
X164869047Y-103541071D02*
X164845237Y-103588690D01*
X164845237Y-103588690D02*
X164821428Y-103612500D01*
X164821428Y-103612500D02*
X164773809Y-103636309D01*
X164773809Y-103636309D02*
X164678571Y-103636309D01*
X164678571Y-103636309D02*
X164630952Y-103612500D01*
X164630952Y-103612500D02*
X164607142Y-103588690D01*
X164607142Y-103588690D02*
X164583333Y-103541071D01*
X164583333Y-103541071D02*
X164583333Y-103136309D01*
X164416665Y-103136309D02*
X164130951Y-103136309D01*
X164273808Y-103636309D02*
X164273808Y-103136309D01*
X138576309Y-93154761D02*
X138338214Y-92988095D01*
X138576309Y-92869047D02*
X138076309Y-92869047D01*
X138076309Y-92869047D02*
X138076309Y-93059523D01*
X138076309Y-93059523D02*
X138100119Y-93107142D01*
X138100119Y-93107142D02*
X138123928Y-93130952D01*
X138123928Y-93130952D02*
X138171547Y-93154761D01*
X138171547Y-93154761D02*
X138242976Y-93154761D01*
X138242976Y-93154761D02*
X138290595Y-93130952D01*
X138290595Y-93130952D02*
X138314404Y-93107142D01*
X138314404Y-93107142D02*
X138338214Y-93059523D01*
X138338214Y-93059523D02*
X138338214Y-92869047D01*
X138433452Y-93345238D02*
X138433452Y-93583333D01*
X138576309Y-93297619D02*
X138076309Y-93464285D01*
X138076309Y-93464285D02*
X138576309Y-93630952D01*
X138076309Y-93749999D02*
X138576309Y-93869047D01*
X138576309Y-93869047D02*
X138219166Y-93964285D01*
X138219166Y-93964285D02*
X138576309Y-94059523D01*
X138576309Y-94059523D02*
X138076309Y-94178571D01*
X138886309Y-92297618D02*
X138886309Y-92392856D01*
X138886309Y-92392856D02*
X138910119Y-92440475D01*
X138910119Y-92440475D02*
X138957738Y-92488094D01*
X138957738Y-92488094D02*
X139052976Y-92511904D01*
X139052976Y-92511904D02*
X139219642Y-92511904D01*
X139219642Y-92511904D02*
X139314880Y-92488094D01*
X139314880Y-92488094D02*
X139362500Y-92440475D01*
X139362500Y-92440475D02*
X139386309Y-92392856D01*
X139386309Y-92392856D02*
X139386309Y-92297618D01*
X139386309Y-92297618D02*
X139362500Y-92249999D01*
X139362500Y-92249999D02*
X139314880Y-92202380D01*
X139314880Y-92202380D02*
X139219642Y-92178571D01*
X139219642Y-92178571D02*
X139052976Y-92178571D01*
X139052976Y-92178571D02*
X138957738Y-92202380D01*
X138957738Y-92202380D02*
X138910119Y-92249999D01*
X138910119Y-92249999D02*
X138886309Y-92297618D01*
X138886309Y-92726190D02*
X139291071Y-92726190D01*
X139291071Y-92726190D02*
X139338690Y-92750000D01*
X139338690Y-92750000D02*
X139362500Y-92773809D01*
X139362500Y-92773809D02*
X139386309Y-92821428D01*
X139386309Y-92821428D02*
X139386309Y-92916666D01*
X139386309Y-92916666D02*
X139362500Y-92964285D01*
X139362500Y-92964285D02*
X139338690Y-92988095D01*
X139338690Y-92988095D02*
X139291071Y-93011904D01*
X139291071Y-93011904D02*
X138886309Y-93011904D01*
X138886309Y-93178572D02*
X138886309Y-93464286D01*
X139386309Y-93321429D02*
X138886309Y-93321429D01*
X139386309Y-93630952D02*
X138886309Y-93630952D01*
X138886309Y-93630952D02*
X138886309Y-93821428D01*
X138886309Y-93821428D02*
X138910119Y-93869047D01*
X138910119Y-93869047D02*
X138933928Y-93892857D01*
X138933928Y-93892857D02*
X138981547Y-93916666D01*
X138981547Y-93916666D02*
X139052976Y-93916666D01*
X139052976Y-93916666D02*
X139100595Y-93892857D01*
X139100595Y-93892857D02*
X139124404Y-93869047D01*
X139124404Y-93869047D02*
X139148214Y-93821428D01*
X139148214Y-93821428D02*
X139148214Y-93630952D01*
X138886309Y-94130952D02*
X139291071Y-94130952D01*
X139291071Y-94130952D02*
X139338690Y-94154762D01*
X139338690Y-94154762D02*
X139362500Y-94178571D01*
X139362500Y-94178571D02*
X139386309Y-94226190D01*
X139386309Y-94226190D02*
X139386309Y-94321428D01*
X139386309Y-94321428D02*
X139362500Y-94369047D01*
X139362500Y-94369047D02*
X139338690Y-94392857D01*
X139338690Y-94392857D02*
X139291071Y-94416666D01*
X139291071Y-94416666D02*
X138886309Y-94416666D01*
X138886309Y-94583334D02*
X138886309Y-94869048D01*
X139386309Y-94726191D02*
X138886309Y-94726191D01*
X135071428Y-96326309D02*
X135309523Y-96326309D01*
X135309523Y-96326309D02*
X135309523Y-95826309D01*
X134904761Y-96064404D02*
X134738094Y-96064404D01*
X134666666Y-96326309D02*
X134904761Y-96326309D01*
X134904761Y-96326309D02*
X134904761Y-95826309D01*
X134904761Y-95826309D02*
X134666666Y-95826309D01*
X134452380Y-96326309D02*
X134452380Y-95826309D01*
X134452380Y-95826309D02*
X134333332Y-95826309D01*
X134333332Y-95826309D02*
X134261904Y-95850119D01*
X134261904Y-95850119D02*
X134214285Y-95897738D01*
X134214285Y-95897738D02*
X134190475Y-95945357D01*
X134190475Y-95945357D02*
X134166666Y-96040595D01*
X134166666Y-96040595D02*
X134166666Y-96112023D01*
X134166666Y-96112023D02*
X134190475Y-96207261D01*
X134190475Y-96207261D02*
X134214285Y-96254880D01*
X134214285Y-96254880D02*
X134261904Y-96302500D01*
X134261904Y-96302500D02*
X134333332Y-96326309D01*
X134333332Y-96326309D02*
X134452380Y-96326309D01*
X136071427Y-97136309D02*
X135976189Y-97136309D01*
X135976189Y-97136309D02*
X135928570Y-97112500D01*
X135928570Y-97112500D02*
X135904761Y-97088690D01*
X135904761Y-97088690D02*
X135857142Y-97017261D01*
X135857142Y-97017261D02*
X135833332Y-96922023D01*
X135833332Y-96922023D02*
X135833332Y-96731547D01*
X135833332Y-96731547D02*
X135857142Y-96683928D01*
X135857142Y-96683928D02*
X135880951Y-96660119D01*
X135880951Y-96660119D02*
X135928570Y-96636309D01*
X135928570Y-96636309D02*
X136023808Y-96636309D01*
X136023808Y-96636309D02*
X136071427Y-96660119D01*
X136071427Y-96660119D02*
X136095237Y-96683928D01*
X136095237Y-96683928D02*
X136119046Y-96731547D01*
X136119046Y-96731547D02*
X136119046Y-96850595D01*
X136119046Y-96850595D02*
X136095237Y-96898214D01*
X136095237Y-96898214D02*
X136071427Y-96922023D01*
X136071427Y-96922023D02*
X136023808Y-96945833D01*
X136023808Y-96945833D02*
X135928570Y-96945833D01*
X135928570Y-96945833D02*
X135880951Y-96922023D01*
X135880951Y-96922023D02*
X135857142Y-96898214D01*
X135857142Y-96898214D02*
X135833332Y-96850595D01*
X135404761Y-96802976D02*
X135404761Y-97136309D01*
X135523809Y-96612500D02*
X135642856Y-96969642D01*
X135642856Y-96969642D02*
X135333333Y-96969642D01*
X135047619Y-96636309D02*
X135000000Y-96636309D01*
X135000000Y-96636309D02*
X134952381Y-96660119D01*
X134952381Y-96660119D02*
X134928571Y-96683928D01*
X134928571Y-96683928D02*
X134904762Y-96731547D01*
X134904762Y-96731547D02*
X134880952Y-96826785D01*
X134880952Y-96826785D02*
X134880952Y-96945833D01*
X134880952Y-96945833D02*
X134904762Y-97041071D01*
X134904762Y-97041071D02*
X134928571Y-97088690D01*
X134928571Y-97088690D02*
X134952381Y-97112500D01*
X134952381Y-97112500D02*
X135000000Y-97136309D01*
X135000000Y-97136309D02*
X135047619Y-97136309D01*
X135047619Y-97136309D02*
X135095238Y-97112500D01*
X135095238Y-97112500D02*
X135119047Y-97088690D01*
X135119047Y-97088690D02*
X135142857Y-97041071D01*
X135142857Y-97041071D02*
X135166666Y-96945833D01*
X135166666Y-96945833D02*
X135166666Y-96826785D01*
X135166666Y-96826785D02*
X135142857Y-96731547D01*
X135142857Y-96731547D02*
X135119047Y-96683928D01*
X135119047Y-96683928D02*
X135095238Y-96660119D01*
X135095238Y-96660119D02*
X135047619Y-96636309D01*
X134285715Y-96802976D02*
X134285715Y-97136309D01*
X134285715Y-96850595D02*
X134261905Y-96826785D01*
X134261905Y-96826785D02*
X134214286Y-96802976D01*
X134214286Y-96802976D02*
X134142858Y-96802976D01*
X134142858Y-96802976D02*
X134095239Y-96826785D01*
X134095239Y-96826785D02*
X134071429Y-96874404D01*
X134071429Y-96874404D02*
X134071429Y-97136309D01*
X133833334Y-97136309D02*
X133833334Y-96802976D01*
X133833334Y-96850595D02*
X133809524Y-96826785D01*
X133809524Y-96826785D02*
X133761905Y-96802976D01*
X133761905Y-96802976D02*
X133690477Y-96802976D01*
X133690477Y-96802976D02*
X133642858Y-96826785D01*
X133642858Y-96826785D02*
X133619048Y-96874404D01*
X133619048Y-96874404D02*
X133619048Y-97136309D01*
X133619048Y-96874404D02*
X133595239Y-96826785D01*
X133595239Y-96826785D02*
X133547620Y-96802976D01*
X133547620Y-96802976D02*
X133476191Y-96802976D01*
X133476191Y-96802976D02*
X133428572Y-96826785D01*
X133428572Y-96826785D02*
X133404762Y-96874404D01*
X133404762Y-96874404D02*
X133404762Y-97136309D01*
%TO.C,C7*%
X149433690Y-92416666D02*
X149457500Y-92392857D01*
X149457500Y-92392857D02*
X149481309Y-92321428D01*
X149481309Y-92321428D02*
X149481309Y-92273809D01*
X149481309Y-92273809D02*
X149457500Y-92202381D01*
X149457500Y-92202381D02*
X149409880Y-92154762D01*
X149409880Y-92154762D02*
X149362261Y-92130952D01*
X149362261Y-92130952D02*
X149267023Y-92107143D01*
X149267023Y-92107143D02*
X149195595Y-92107143D01*
X149195595Y-92107143D02*
X149100357Y-92130952D01*
X149100357Y-92130952D02*
X149052738Y-92154762D01*
X149052738Y-92154762D02*
X149005119Y-92202381D01*
X149005119Y-92202381D02*
X148981309Y-92273809D01*
X148981309Y-92273809D02*
X148981309Y-92321428D01*
X148981309Y-92321428D02*
X149005119Y-92392857D01*
X149005119Y-92392857D02*
X149028928Y-92416666D01*
X148981309Y-92583333D02*
X148981309Y-92916666D01*
X148981309Y-92916666D02*
X149481309Y-92702381D01*
%TO.C,C13*%
X138321428Y-108683690D02*
X138345237Y-108707500D01*
X138345237Y-108707500D02*
X138416666Y-108731309D01*
X138416666Y-108731309D02*
X138464285Y-108731309D01*
X138464285Y-108731309D02*
X138535713Y-108707500D01*
X138535713Y-108707500D02*
X138583332Y-108659880D01*
X138583332Y-108659880D02*
X138607142Y-108612261D01*
X138607142Y-108612261D02*
X138630951Y-108517023D01*
X138630951Y-108517023D02*
X138630951Y-108445595D01*
X138630951Y-108445595D02*
X138607142Y-108350357D01*
X138607142Y-108350357D02*
X138583332Y-108302738D01*
X138583332Y-108302738D02*
X138535713Y-108255119D01*
X138535713Y-108255119D02*
X138464285Y-108231309D01*
X138464285Y-108231309D02*
X138416666Y-108231309D01*
X138416666Y-108231309D02*
X138345237Y-108255119D01*
X138345237Y-108255119D02*
X138321428Y-108278928D01*
X137845237Y-108731309D02*
X138130951Y-108731309D01*
X137988094Y-108731309D02*
X137988094Y-108231309D01*
X137988094Y-108231309D02*
X138035713Y-108302738D01*
X138035713Y-108302738D02*
X138083332Y-108350357D01*
X138083332Y-108350357D02*
X138130951Y-108374166D01*
X137678571Y-108231309D02*
X137369047Y-108231309D01*
X137369047Y-108231309D02*
X137535714Y-108421785D01*
X137535714Y-108421785D02*
X137464285Y-108421785D01*
X137464285Y-108421785D02*
X137416666Y-108445595D01*
X137416666Y-108445595D02*
X137392857Y-108469404D01*
X137392857Y-108469404D02*
X137369047Y-108517023D01*
X137369047Y-108517023D02*
X137369047Y-108636071D01*
X137369047Y-108636071D02*
X137392857Y-108683690D01*
X137392857Y-108683690D02*
X137416666Y-108707500D01*
X137416666Y-108707500D02*
X137464285Y-108731309D01*
X137464285Y-108731309D02*
X137607142Y-108731309D01*
X137607142Y-108731309D02*
X137654761Y-108707500D01*
X137654761Y-108707500D02*
X137678571Y-108683690D01*
%TO.C,R3*%
X151981309Y-92416666D02*
X151743214Y-92250000D01*
X151981309Y-92130952D02*
X151481309Y-92130952D01*
X151481309Y-92130952D02*
X151481309Y-92321428D01*
X151481309Y-92321428D02*
X151505119Y-92369047D01*
X151505119Y-92369047D02*
X151528928Y-92392857D01*
X151528928Y-92392857D02*
X151576547Y-92416666D01*
X151576547Y-92416666D02*
X151647976Y-92416666D01*
X151647976Y-92416666D02*
X151695595Y-92392857D01*
X151695595Y-92392857D02*
X151719404Y-92369047D01*
X151719404Y-92369047D02*
X151743214Y-92321428D01*
X151743214Y-92321428D02*
X151743214Y-92130952D01*
X151481309Y-92583333D02*
X151481309Y-92892857D01*
X151481309Y-92892857D02*
X151671785Y-92726190D01*
X151671785Y-92726190D02*
X151671785Y-92797619D01*
X151671785Y-92797619D02*
X151695595Y-92845238D01*
X151695595Y-92845238D02*
X151719404Y-92869047D01*
X151719404Y-92869047D02*
X151767023Y-92892857D01*
X151767023Y-92892857D02*
X151886071Y-92892857D01*
X151886071Y-92892857D02*
X151933690Y-92869047D01*
X151933690Y-92869047D02*
X151957500Y-92845238D01*
X151957500Y-92845238D02*
X151981309Y-92797619D01*
X151981309Y-92797619D02*
X151981309Y-92654762D01*
X151981309Y-92654762D02*
X151957500Y-92607143D01*
X151957500Y-92607143D02*
X151933690Y-92583333D01*
%TO.C,C4*%
X161683690Y-93416666D02*
X161707500Y-93392857D01*
X161707500Y-93392857D02*
X161731309Y-93321428D01*
X161731309Y-93321428D02*
X161731309Y-93273809D01*
X161731309Y-93273809D02*
X161707500Y-93202381D01*
X161707500Y-93202381D02*
X161659880Y-93154762D01*
X161659880Y-93154762D02*
X161612261Y-93130952D01*
X161612261Y-93130952D02*
X161517023Y-93107143D01*
X161517023Y-93107143D02*
X161445595Y-93107143D01*
X161445595Y-93107143D02*
X161350357Y-93130952D01*
X161350357Y-93130952D02*
X161302738Y-93154762D01*
X161302738Y-93154762D02*
X161255119Y-93202381D01*
X161255119Y-93202381D02*
X161231309Y-93273809D01*
X161231309Y-93273809D02*
X161231309Y-93321428D01*
X161231309Y-93321428D02*
X161255119Y-93392857D01*
X161255119Y-93392857D02*
X161278928Y-93416666D01*
X161397976Y-93845238D02*
X161731309Y-93845238D01*
X161207500Y-93726190D02*
X161564642Y-93607143D01*
X161564642Y-93607143D02*
X161564642Y-93916666D01*
%TO.C,C5*%
X156183690Y-106416666D02*
X156207500Y-106392857D01*
X156207500Y-106392857D02*
X156231309Y-106321428D01*
X156231309Y-106321428D02*
X156231309Y-106273809D01*
X156231309Y-106273809D02*
X156207500Y-106202381D01*
X156207500Y-106202381D02*
X156159880Y-106154762D01*
X156159880Y-106154762D02*
X156112261Y-106130952D01*
X156112261Y-106130952D02*
X156017023Y-106107143D01*
X156017023Y-106107143D02*
X155945595Y-106107143D01*
X155945595Y-106107143D02*
X155850357Y-106130952D01*
X155850357Y-106130952D02*
X155802738Y-106154762D01*
X155802738Y-106154762D02*
X155755119Y-106202381D01*
X155755119Y-106202381D02*
X155731309Y-106273809D01*
X155731309Y-106273809D02*
X155731309Y-106321428D01*
X155731309Y-106321428D02*
X155755119Y-106392857D01*
X155755119Y-106392857D02*
X155778928Y-106416666D01*
X155731309Y-106869047D02*
X155731309Y-106630952D01*
X155731309Y-106630952D02*
X155969404Y-106607143D01*
X155969404Y-106607143D02*
X155945595Y-106630952D01*
X155945595Y-106630952D02*
X155921785Y-106678571D01*
X155921785Y-106678571D02*
X155921785Y-106797619D01*
X155921785Y-106797619D02*
X155945595Y-106845238D01*
X155945595Y-106845238D02*
X155969404Y-106869047D01*
X155969404Y-106869047D02*
X156017023Y-106892857D01*
X156017023Y-106892857D02*
X156136071Y-106892857D01*
X156136071Y-106892857D02*
X156183690Y-106869047D01*
X156183690Y-106869047D02*
X156207500Y-106845238D01*
X156207500Y-106845238D02*
X156231309Y-106797619D01*
X156231309Y-106797619D02*
X156231309Y-106678571D01*
X156231309Y-106678571D02*
X156207500Y-106630952D01*
X156207500Y-106630952D02*
X156183690Y-106607143D01*
%TO.C,C1*%
X157183690Y-93416666D02*
X157207500Y-93392857D01*
X157207500Y-93392857D02*
X157231309Y-93321428D01*
X157231309Y-93321428D02*
X157231309Y-93273809D01*
X157231309Y-93273809D02*
X157207500Y-93202381D01*
X157207500Y-93202381D02*
X157159880Y-93154762D01*
X157159880Y-93154762D02*
X157112261Y-93130952D01*
X157112261Y-93130952D02*
X157017023Y-93107143D01*
X157017023Y-93107143D02*
X156945595Y-93107143D01*
X156945595Y-93107143D02*
X156850357Y-93130952D01*
X156850357Y-93130952D02*
X156802738Y-93154762D01*
X156802738Y-93154762D02*
X156755119Y-93202381D01*
X156755119Y-93202381D02*
X156731309Y-93273809D01*
X156731309Y-93273809D02*
X156731309Y-93321428D01*
X156731309Y-93321428D02*
X156755119Y-93392857D01*
X156755119Y-93392857D02*
X156778928Y-93416666D01*
X157231309Y-93892857D02*
X157231309Y-93607143D01*
X157231309Y-93750000D02*
X156731309Y-93750000D01*
X156731309Y-93750000D02*
X156802738Y-93702381D01*
X156802738Y-93702381D02*
X156850357Y-93654762D01*
X156850357Y-93654762D02*
X156874166Y-93607143D01*
%TO.C,R6*%
X153981309Y-92416666D02*
X153743214Y-92250000D01*
X153981309Y-92130952D02*
X153481309Y-92130952D01*
X153481309Y-92130952D02*
X153481309Y-92321428D01*
X153481309Y-92321428D02*
X153505119Y-92369047D01*
X153505119Y-92369047D02*
X153528928Y-92392857D01*
X153528928Y-92392857D02*
X153576547Y-92416666D01*
X153576547Y-92416666D02*
X153647976Y-92416666D01*
X153647976Y-92416666D02*
X153695595Y-92392857D01*
X153695595Y-92392857D02*
X153719404Y-92369047D01*
X153719404Y-92369047D02*
X153743214Y-92321428D01*
X153743214Y-92321428D02*
X153743214Y-92130952D01*
X153481309Y-92845238D02*
X153481309Y-92750000D01*
X153481309Y-92750000D02*
X153505119Y-92702381D01*
X153505119Y-92702381D02*
X153528928Y-92678571D01*
X153528928Y-92678571D02*
X153600357Y-92630952D01*
X153600357Y-92630952D02*
X153695595Y-92607143D01*
X153695595Y-92607143D02*
X153886071Y-92607143D01*
X153886071Y-92607143D02*
X153933690Y-92630952D01*
X153933690Y-92630952D02*
X153957500Y-92654762D01*
X153957500Y-92654762D02*
X153981309Y-92702381D01*
X153981309Y-92702381D02*
X153981309Y-92797619D01*
X153981309Y-92797619D02*
X153957500Y-92845238D01*
X153957500Y-92845238D02*
X153933690Y-92869047D01*
X153933690Y-92869047D02*
X153886071Y-92892857D01*
X153886071Y-92892857D02*
X153767023Y-92892857D01*
X153767023Y-92892857D02*
X153719404Y-92869047D01*
X153719404Y-92869047D02*
X153695595Y-92845238D01*
X153695595Y-92845238D02*
X153671785Y-92797619D01*
X153671785Y-92797619D02*
X153671785Y-92702381D01*
X153671785Y-92702381D02*
X153695595Y-92654762D01*
X153695595Y-92654762D02*
X153719404Y-92630952D01*
X153719404Y-92630952D02*
X153767023Y-92607143D01*
%TO.C,R4*%
X152583333Y-107981309D02*
X152749999Y-107743214D01*
X152869047Y-107981309D02*
X152869047Y-107481309D01*
X152869047Y-107481309D02*
X152678571Y-107481309D01*
X152678571Y-107481309D02*
X152630952Y-107505119D01*
X152630952Y-107505119D02*
X152607142Y-107528928D01*
X152607142Y-107528928D02*
X152583333Y-107576547D01*
X152583333Y-107576547D02*
X152583333Y-107647976D01*
X152583333Y-107647976D02*
X152607142Y-107695595D01*
X152607142Y-107695595D02*
X152630952Y-107719404D01*
X152630952Y-107719404D02*
X152678571Y-107743214D01*
X152678571Y-107743214D02*
X152869047Y-107743214D01*
X152154761Y-107647976D02*
X152154761Y-107981309D01*
X152273809Y-107457500D02*
X152392856Y-107814642D01*
X152392856Y-107814642D02*
X152083333Y-107814642D01*
%TO.C,U6*%
X137880952Y-102231309D02*
X137880952Y-102636071D01*
X137880952Y-102636071D02*
X137857142Y-102683690D01*
X137857142Y-102683690D02*
X137833333Y-102707500D01*
X137833333Y-102707500D02*
X137785714Y-102731309D01*
X137785714Y-102731309D02*
X137690476Y-102731309D01*
X137690476Y-102731309D02*
X137642857Y-102707500D01*
X137642857Y-102707500D02*
X137619047Y-102683690D01*
X137619047Y-102683690D02*
X137595238Y-102636071D01*
X137595238Y-102636071D02*
X137595238Y-102231309D01*
X137142856Y-102231309D02*
X137238094Y-102231309D01*
X137238094Y-102231309D02*
X137285713Y-102255119D01*
X137285713Y-102255119D02*
X137309523Y-102278928D01*
X137309523Y-102278928D02*
X137357142Y-102350357D01*
X137357142Y-102350357D02*
X137380951Y-102445595D01*
X137380951Y-102445595D02*
X137380951Y-102636071D01*
X137380951Y-102636071D02*
X137357142Y-102683690D01*
X137357142Y-102683690D02*
X137333332Y-102707500D01*
X137333332Y-102707500D02*
X137285713Y-102731309D01*
X137285713Y-102731309D02*
X137190475Y-102731309D01*
X137190475Y-102731309D02*
X137142856Y-102707500D01*
X137142856Y-102707500D02*
X137119047Y-102683690D01*
X137119047Y-102683690D02*
X137095237Y-102636071D01*
X137095237Y-102636071D02*
X137095237Y-102517023D01*
X137095237Y-102517023D02*
X137119047Y-102469404D01*
X137119047Y-102469404D02*
X137142856Y-102445595D01*
X137142856Y-102445595D02*
X137190475Y-102421785D01*
X137190475Y-102421785D02*
X137285713Y-102421785D01*
X137285713Y-102421785D02*
X137333332Y-102445595D01*
X137333332Y-102445595D02*
X137357142Y-102469404D01*
X137357142Y-102469404D02*
X137380951Y-102517023D01*
%TO.C,J3*%
X143166666Y-95731309D02*
X143166666Y-96088452D01*
X143166666Y-96088452D02*
X143190475Y-96159880D01*
X143190475Y-96159880D02*
X143238094Y-96207500D01*
X143238094Y-96207500D02*
X143309523Y-96231309D01*
X143309523Y-96231309D02*
X143357142Y-96231309D01*
X142976190Y-95731309D02*
X142666666Y-95731309D01*
X142666666Y-95731309D02*
X142833333Y-95921785D01*
X142833333Y-95921785D02*
X142761904Y-95921785D01*
X142761904Y-95921785D02*
X142714285Y-95945595D01*
X142714285Y-95945595D02*
X142690476Y-95969404D01*
X142690476Y-95969404D02*
X142666666Y-96017023D01*
X142666666Y-96017023D02*
X142666666Y-96136071D01*
X142666666Y-96136071D02*
X142690476Y-96183690D01*
X142690476Y-96183690D02*
X142714285Y-96207500D01*
X142714285Y-96207500D02*
X142761904Y-96231309D01*
X142761904Y-96231309D02*
X142904761Y-96231309D01*
X142904761Y-96231309D02*
X142952380Y-96207500D01*
X142952380Y-96207500D02*
X142976190Y-96183690D01*
%TO.C,R17*%
X143321428Y-102481309D02*
X143488094Y-102243214D01*
X143607142Y-102481309D02*
X143607142Y-101981309D01*
X143607142Y-101981309D02*
X143416666Y-101981309D01*
X143416666Y-101981309D02*
X143369047Y-102005119D01*
X143369047Y-102005119D02*
X143345237Y-102028928D01*
X143345237Y-102028928D02*
X143321428Y-102076547D01*
X143321428Y-102076547D02*
X143321428Y-102147976D01*
X143321428Y-102147976D02*
X143345237Y-102195595D01*
X143345237Y-102195595D02*
X143369047Y-102219404D01*
X143369047Y-102219404D02*
X143416666Y-102243214D01*
X143416666Y-102243214D02*
X143607142Y-102243214D01*
X142845237Y-102481309D02*
X143130951Y-102481309D01*
X142988094Y-102481309D02*
X142988094Y-101981309D01*
X142988094Y-101981309D02*
X143035713Y-102052738D01*
X143035713Y-102052738D02*
X143083332Y-102100357D01*
X143083332Y-102100357D02*
X143130951Y-102124166D01*
X142678571Y-101981309D02*
X142345238Y-101981309D01*
X142345238Y-101981309D02*
X142559523Y-102481309D01*
%TO.C,D2*%
X139619047Y-100231309D02*
X139619047Y-99731309D01*
X139619047Y-99731309D02*
X139499999Y-99731309D01*
X139499999Y-99731309D02*
X139428571Y-99755119D01*
X139428571Y-99755119D02*
X139380952Y-99802738D01*
X139380952Y-99802738D02*
X139357142Y-99850357D01*
X139357142Y-99850357D02*
X139333333Y-99945595D01*
X139333333Y-99945595D02*
X139333333Y-100017023D01*
X139333333Y-100017023D02*
X139357142Y-100112261D01*
X139357142Y-100112261D02*
X139380952Y-100159880D01*
X139380952Y-100159880D02*
X139428571Y-100207500D01*
X139428571Y-100207500D02*
X139499999Y-100231309D01*
X139499999Y-100231309D02*
X139619047Y-100231309D01*
X139142856Y-99778928D02*
X139119047Y-99755119D01*
X139119047Y-99755119D02*
X139071428Y-99731309D01*
X139071428Y-99731309D02*
X138952380Y-99731309D01*
X138952380Y-99731309D02*
X138904761Y-99755119D01*
X138904761Y-99755119D02*
X138880952Y-99778928D01*
X138880952Y-99778928D02*
X138857142Y-99826547D01*
X138857142Y-99826547D02*
X138857142Y-99874166D01*
X138857142Y-99874166D02*
X138880952Y-99945595D01*
X138880952Y-99945595D02*
X139166666Y-100231309D01*
X139166666Y-100231309D02*
X138857142Y-100231309D01*
%TO.C,JP1*%
X147916666Y-105731309D02*
X147916666Y-106088452D01*
X147916666Y-106088452D02*
X147940475Y-106159880D01*
X147940475Y-106159880D02*
X147988094Y-106207500D01*
X147988094Y-106207500D02*
X148059523Y-106231309D01*
X148059523Y-106231309D02*
X148107142Y-106231309D01*
X147678571Y-106231309D02*
X147678571Y-105731309D01*
X147678571Y-105731309D02*
X147488095Y-105731309D01*
X147488095Y-105731309D02*
X147440476Y-105755119D01*
X147440476Y-105755119D02*
X147416666Y-105778928D01*
X147416666Y-105778928D02*
X147392857Y-105826547D01*
X147392857Y-105826547D02*
X147392857Y-105897976D01*
X147392857Y-105897976D02*
X147416666Y-105945595D01*
X147416666Y-105945595D02*
X147440476Y-105969404D01*
X147440476Y-105969404D02*
X147488095Y-105993214D01*
X147488095Y-105993214D02*
X147678571Y-105993214D01*
X146916666Y-106231309D02*
X147202380Y-106231309D01*
X147059523Y-106231309D02*
X147059523Y-105731309D01*
X147059523Y-105731309D02*
X147107142Y-105802738D01*
X147107142Y-105802738D02*
X147154761Y-105850357D01*
X147154761Y-105850357D02*
X147202380Y-105874166D01*
%TO.C,U1*%
X159731309Y-99619047D02*
X160136071Y-99619047D01*
X160136071Y-99619047D02*
X160183690Y-99642857D01*
X160183690Y-99642857D02*
X160207500Y-99666666D01*
X160207500Y-99666666D02*
X160231309Y-99714285D01*
X160231309Y-99714285D02*
X160231309Y-99809523D01*
X160231309Y-99809523D02*
X160207500Y-99857142D01*
X160207500Y-99857142D02*
X160183690Y-99880952D01*
X160183690Y-99880952D02*
X160136071Y-99904761D01*
X160136071Y-99904761D02*
X159731309Y-99904761D01*
X160231309Y-100404762D02*
X160231309Y-100119048D01*
X160231309Y-100261905D02*
X159731309Y-100261905D01*
X159731309Y-100261905D02*
X159802738Y-100214286D01*
X159802738Y-100214286D02*
X159850357Y-100166667D01*
X159850357Y-100166667D02*
X159874166Y-100119048D01*
%TO.C,U3*%
X156231309Y-103369047D02*
X156636071Y-103369047D01*
X156636071Y-103369047D02*
X156683690Y-103392857D01*
X156683690Y-103392857D02*
X156707500Y-103416666D01*
X156707500Y-103416666D02*
X156731309Y-103464285D01*
X156731309Y-103464285D02*
X156731309Y-103559523D01*
X156731309Y-103559523D02*
X156707500Y-103607142D01*
X156707500Y-103607142D02*
X156683690Y-103630952D01*
X156683690Y-103630952D02*
X156636071Y-103654761D01*
X156636071Y-103654761D02*
X156231309Y-103654761D01*
X156231309Y-103845238D02*
X156231309Y-104154762D01*
X156231309Y-104154762D02*
X156421785Y-103988095D01*
X156421785Y-103988095D02*
X156421785Y-104059524D01*
X156421785Y-104059524D02*
X156445595Y-104107143D01*
X156445595Y-104107143D02*
X156469404Y-104130952D01*
X156469404Y-104130952D02*
X156517023Y-104154762D01*
X156517023Y-104154762D02*
X156636071Y-104154762D01*
X156636071Y-104154762D02*
X156683690Y-104130952D01*
X156683690Y-104130952D02*
X156707500Y-104107143D01*
X156707500Y-104107143D02*
X156731309Y-104059524D01*
X156731309Y-104059524D02*
X156731309Y-103916667D01*
X156731309Y-103916667D02*
X156707500Y-103869048D01*
X156707500Y-103869048D02*
X156683690Y-103845238D01*
%TO.C,J4*%
X143166666Y-103731309D02*
X143166666Y-104088452D01*
X143166666Y-104088452D02*
X143190475Y-104159880D01*
X143190475Y-104159880D02*
X143238094Y-104207500D01*
X143238094Y-104207500D02*
X143309523Y-104231309D01*
X143309523Y-104231309D02*
X143357142Y-104231309D01*
X142714285Y-103897976D02*
X142714285Y-104231309D01*
X142833333Y-103707500D02*
X142952380Y-104064642D01*
X142952380Y-104064642D02*
X142642857Y-104064642D01*
%TO.C,J2*%
X165666666Y-97231309D02*
X165666666Y-97588452D01*
X165666666Y-97588452D02*
X165690475Y-97659880D01*
X165690475Y-97659880D02*
X165738094Y-97707500D01*
X165738094Y-97707500D02*
X165809523Y-97731309D01*
X165809523Y-97731309D02*
X165857142Y-97731309D01*
X165452380Y-97278928D02*
X165428571Y-97255119D01*
X165428571Y-97255119D02*
X165380952Y-97231309D01*
X165380952Y-97231309D02*
X165261904Y-97231309D01*
X165261904Y-97231309D02*
X165214285Y-97255119D01*
X165214285Y-97255119D02*
X165190476Y-97278928D01*
X165190476Y-97278928D02*
X165166666Y-97326547D01*
X165166666Y-97326547D02*
X165166666Y-97374166D01*
X165166666Y-97374166D02*
X165190476Y-97445595D01*
X165190476Y-97445595D02*
X165476190Y-97731309D01*
X165476190Y-97731309D02*
X165166666Y-97731309D01*
%TO.C,R16*%
X139321428Y-103231309D02*
X139488094Y-102993214D01*
X139607142Y-103231309D02*
X139607142Y-102731309D01*
X139607142Y-102731309D02*
X139416666Y-102731309D01*
X139416666Y-102731309D02*
X139369047Y-102755119D01*
X139369047Y-102755119D02*
X139345237Y-102778928D01*
X139345237Y-102778928D02*
X139321428Y-102826547D01*
X139321428Y-102826547D02*
X139321428Y-102897976D01*
X139321428Y-102897976D02*
X139345237Y-102945595D01*
X139345237Y-102945595D02*
X139369047Y-102969404D01*
X139369047Y-102969404D02*
X139416666Y-102993214D01*
X139416666Y-102993214D02*
X139607142Y-102993214D01*
X138845237Y-103231309D02*
X139130951Y-103231309D01*
X138988094Y-103231309D02*
X138988094Y-102731309D01*
X138988094Y-102731309D02*
X139035713Y-102802738D01*
X139035713Y-102802738D02*
X139083332Y-102850357D01*
X139083332Y-102850357D02*
X139130951Y-102874166D01*
X138416666Y-102731309D02*
X138511904Y-102731309D01*
X138511904Y-102731309D02*
X138559523Y-102755119D01*
X138559523Y-102755119D02*
X138583333Y-102778928D01*
X138583333Y-102778928D02*
X138630952Y-102850357D01*
X138630952Y-102850357D02*
X138654761Y-102945595D01*
X138654761Y-102945595D02*
X138654761Y-103136071D01*
X138654761Y-103136071D02*
X138630952Y-103183690D01*
X138630952Y-103183690D02*
X138607142Y-103207500D01*
X138607142Y-103207500D02*
X138559523Y-103231309D01*
X138559523Y-103231309D02*
X138464285Y-103231309D01*
X138464285Y-103231309D02*
X138416666Y-103207500D01*
X138416666Y-103207500D02*
X138392857Y-103183690D01*
X138392857Y-103183690D02*
X138369047Y-103136071D01*
X138369047Y-103136071D02*
X138369047Y-103017023D01*
X138369047Y-103017023D02*
X138392857Y-102969404D01*
X138392857Y-102969404D02*
X138416666Y-102945595D01*
X138416666Y-102945595D02*
X138464285Y-102921785D01*
X138464285Y-102921785D02*
X138559523Y-102921785D01*
X138559523Y-102921785D02*
X138607142Y-102945595D01*
X138607142Y-102945595D02*
X138630952Y-102969404D01*
X138630952Y-102969404D02*
X138654761Y-103017023D01*
%TO.C,R15*%
X139321428Y-106981309D02*
X139488094Y-106743214D01*
X139607142Y-106981309D02*
X139607142Y-106481309D01*
X139607142Y-106481309D02*
X139416666Y-106481309D01*
X139416666Y-106481309D02*
X139369047Y-106505119D01*
X139369047Y-106505119D02*
X139345237Y-106528928D01*
X139345237Y-106528928D02*
X139321428Y-106576547D01*
X139321428Y-106576547D02*
X139321428Y-106647976D01*
X139321428Y-106647976D02*
X139345237Y-106695595D01*
X139345237Y-106695595D02*
X139369047Y-106719404D01*
X139369047Y-106719404D02*
X139416666Y-106743214D01*
X139416666Y-106743214D02*
X139607142Y-106743214D01*
X138845237Y-106981309D02*
X139130951Y-106981309D01*
X138988094Y-106981309D02*
X138988094Y-106481309D01*
X138988094Y-106481309D02*
X139035713Y-106552738D01*
X139035713Y-106552738D02*
X139083332Y-106600357D01*
X139083332Y-106600357D02*
X139130951Y-106624166D01*
X138392857Y-106481309D02*
X138630952Y-106481309D01*
X138630952Y-106481309D02*
X138654761Y-106719404D01*
X138654761Y-106719404D02*
X138630952Y-106695595D01*
X138630952Y-106695595D02*
X138583333Y-106671785D01*
X138583333Y-106671785D02*
X138464285Y-106671785D01*
X138464285Y-106671785D02*
X138416666Y-106695595D01*
X138416666Y-106695595D02*
X138392857Y-106719404D01*
X138392857Y-106719404D02*
X138369047Y-106767023D01*
X138369047Y-106767023D02*
X138369047Y-106886071D01*
X138369047Y-106886071D02*
X138392857Y-106933690D01*
X138392857Y-106933690D02*
X138416666Y-106957500D01*
X138416666Y-106957500D02*
X138464285Y-106981309D01*
X138464285Y-106981309D02*
X138583333Y-106981309D01*
X138583333Y-106981309D02*
X138630952Y-106957500D01*
X138630952Y-106957500D02*
X138654761Y-106933690D01*
%TO.C,C9*%
X147933690Y-92416666D02*
X147957500Y-92392857D01*
X147957500Y-92392857D02*
X147981309Y-92321428D01*
X147981309Y-92321428D02*
X147981309Y-92273809D01*
X147981309Y-92273809D02*
X147957500Y-92202381D01*
X147957500Y-92202381D02*
X147909880Y-92154762D01*
X147909880Y-92154762D02*
X147862261Y-92130952D01*
X147862261Y-92130952D02*
X147767023Y-92107143D01*
X147767023Y-92107143D02*
X147695595Y-92107143D01*
X147695595Y-92107143D02*
X147600357Y-92130952D01*
X147600357Y-92130952D02*
X147552738Y-92154762D01*
X147552738Y-92154762D02*
X147505119Y-92202381D01*
X147505119Y-92202381D02*
X147481309Y-92273809D01*
X147481309Y-92273809D02*
X147481309Y-92321428D01*
X147481309Y-92321428D02*
X147505119Y-92392857D01*
X147505119Y-92392857D02*
X147528928Y-92416666D01*
X147981309Y-92654762D02*
X147981309Y-92750000D01*
X147981309Y-92750000D02*
X147957500Y-92797619D01*
X147957500Y-92797619D02*
X147933690Y-92821428D01*
X147933690Y-92821428D02*
X147862261Y-92869047D01*
X147862261Y-92869047D02*
X147767023Y-92892857D01*
X147767023Y-92892857D02*
X147576547Y-92892857D01*
X147576547Y-92892857D02*
X147528928Y-92869047D01*
X147528928Y-92869047D02*
X147505119Y-92845238D01*
X147505119Y-92845238D02*
X147481309Y-92797619D01*
X147481309Y-92797619D02*
X147481309Y-92702381D01*
X147481309Y-92702381D02*
X147505119Y-92654762D01*
X147505119Y-92654762D02*
X147528928Y-92630952D01*
X147528928Y-92630952D02*
X147576547Y-92607143D01*
X147576547Y-92607143D02*
X147695595Y-92607143D01*
X147695595Y-92607143D02*
X147743214Y-92630952D01*
X147743214Y-92630952D02*
X147767023Y-92654762D01*
X147767023Y-92654762D02*
X147790833Y-92702381D01*
X147790833Y-92702381D02*
X147790833Y-92797619D01*
X147790833Y-92797619D02*
X147767023Y-92845238D01*
X147767023Y-92845238D02*
X147743214Y-92869047D01*
X147743214Y-92869047D02*
X147695595Y-92892857D01*
%TO.C,R8*%
X144231309Y-98416666D02*
X143993214Y-98250000D01*
X144231309Y-98130952D02*
X143731309Y-98130952D01*
X143731309Y-98130952D02*
X143731309Y-98321428D01*
X143731309Y-98321428D02*
X143755119Y-98369047D01*
X143755119Y-98369047D02*
X143778928Y-98392857D01*
X143778928Y-98392857D02*
X143826547Y-98416666D01*
X143826547Y-98416666D02*
X143897976Y-98416666D01*
X143897976Y-98416666D02*
X143945595Y-98392857D01*
X143945595Y-98392857D02*
X143969404Y-98369047D01*
X143969404Y-98369047D02*
X143993214Y-98321428D01*
X143993214Y-98321428D02*
X143993214Y-98130952D01*
X143945595Y-98702381D02*
X143921785Y-98654762D01*
X143921785Y-98654762D02*
X143897976Y-98630952D01*
X143897976Y-98630952D02*
X143850357Y-98607143D01*
X143850357Y-98607143D02*
X143826547Y-98607143D01*
X143826547Y-98607143D02*
X143778928Y-98630952D01*
X143778928Y-98630952D02*
X143755119Y-98654762D01*
X143755119Y-98654762D02*
X143731309Y-98702381D01*
X143731309Y-98702381D02*
X143731309Y-98797619D01*
X143731309Y-98797619D02*
X143755119Y-98845238D01*
X143755119Y-98845238D02*
X143778928Y-98869047D01*
X143778928Y-98869047D02*
X143826547Y-98892857D01*
X143826547Y-98892857D02*
X143850357Y-98892857D01*
X143850357Y-98892857D02*
X143897976Y-98869047D01*
X143897976Y-98869047D02*
X143921785Y-98845238D01*
X143921785Y-98845238D02*
X143945595Y-98797619D01*
X143945595Y-98797619D02*
X143945595Y-98702381D01*
X143945595Y-98702381D02*
X143969404Y-98654762D01*
X143969404Y-98654762D02*
X143993214Y-98630952D01*
X143993214Y-98630952D02*
X144040833Y-98607143D01*
X144040833Y-98607143D02*
X144136071Y-98607143D01*
X144136071Y-98607143D02*
X144183690Y-98630952D01*
X144183690Y-98630952D02*
X144207500Y-98654762D01*
X144207500Y-98654762D02*
X144231309Y-98702381D01*
X144231309Y-98702381D02*
X144231309Y-98797619D01*
X144231309Y-98797619D02*
X144207500Y-98845238D01*
X144207500Y-98845238D02*
X144183690Y-98869047D01*
X144183690Y-98869047D02*
X144136071Y-98892857D01*
X144136071Y-98892857D02*
X144040833Y-98892857D01*
X144040833Y-98892857D02*
X143993214Y-98869047D01*
X143993214Y-98869047D02*
X143969404Y-98845238D01*
X143969404Y-98845238D02*
X143945595Y-98797619D01*
%TO.C,C2*%
X161183690Y-106416666D02*
X161207500Y-106392857D01*
X161207500Y-106392857D02*
X161231309Y-106321428D01*
X161231309Y-106321428D02*
X161231309Y-106273809D01*
X161231309Y-106273809D02*
X161207500Y-106202381D01*
X161207500Y-106202381D02*
X161159880Y-106154762D01*
X161159880Y-106154762D02*
X161112261Y-106130952D01*
X161112261Y-106130952D02*
X161017023Y-106107143D01*
X161017023Y-106107143D02*
X160945595Y-106107143D01*
X160945595Y-106107143D02*
X160850357Y-106130952D01*
X160850357Y-106130952D02*
X160802738Y-106154762D01*
X160802738Y-106154762D02*
X160755119Y-106202381D01*
X160755119Y-106202381D02*
X160731309Y-106273809D01*
X160731309Y-106273809D02*
X160731309Y-106321428D01*
X160731309Y-106321428D02*
X160755119Y-106392857D01*
X160755119Y-106392857D02*
X160778928Y-106416666D01*
X160778928Y-106607143D02*
X160755119Y-106630952D01*
X160755119Y-106630952D02*
X160731309Y-106678571D01*
X160731309Y-106678571D02*
X160731309Y-106797619D01*
X160731309Y-106797619D02*
X160755119Y-106845238D01*
X160755119Y-106845238D02*
X160778928Y-106869047D01*
X160778928Y-106869047D02*
X160826547Y-106892857D01*
X160826547Y-106892857D02*
X160874166Y-106892857D01*
X160874166Y-106892857D02*
X160945595Y-106869047D01*
X160945595Y-106869047D02*
X161231309Y-106583333D01*
X161231309Y-106583333D02*
X161231309Y-106892857D01*
%TO.C,Q1*%
X139028928Y-104452380D02*
X139005119Y-104404761D01*
X139005119Y-104404761D02*
X138957500Y-104357142D01*
X138957500Y-104357142D02*
X138886071Y-104285714D01*
X138886071Y-104285714D02*
X138862261Y-104238095D01*
X138862261Y-104238095D02*
X138862261Y-104190476D01*
X138981309Y-104214285D02*
X138957500Y-104166666D01*
X138957500Y-104166666D02*
X138909880Y-104119047D01*
X138909880Y-104119047D02*
X138814642Y-104095238D01*
X138814642Y-104095238D02*
X138647976Y-104095238D01*
X138647976Y-104095238D02*
X138552738Y-104119047D01*
X138552738Y-104119047D02*
X138505119Y-104166666D01*
X138505119Y-104166666D02*
X138481309Y-104214285D01*
X138481309Y-104214285D02*
X138481309Y-104309523D01*
X138481309Y-104309523D02*
X138505119Y-104357142D01*
X138505119Y-104357142D02*
X138552738Y-104404761D01*
X138552738Y-104404761D02*
X138647976Y-104428571D01*
X138647976Y-104428571D02*
X138814642Y-104428571D01*
X138814642Y-104428571D02*
X138909880Y-104404761D01*
X138909880Y-104404761D02*
X138957500Y-104357142D01*
X138957500Y-104357142D02*
X138981309Y-104309523D01*
X138981309Y-104309523D02*
X138981309Y-104214285D01*
X138981309Y-104904762D02*
X138981309Y-104619048D01*
X138981309Y-104761905D02*
X138481309Y-104761905D01*
X138481309Y-104761905D02*
X138552738Y-104714286D01*
X138552738Y-104714286D02*
X138600357Y-104666667D01*
X138600357Y-104666667D02*
X138624166Y-104619048D01*
%TO.C,C3*%
X158683690Y-106416666D02*
X158707500Y-106392857D01*
X158707500Y-106392857D02*
X158731309Y-106321428D01*
X158731309Y-106321428D02*
X158731309Y-106273809D01*
X158731309Y-106273809D02*
X158707500Y-106202381D01*
X158707500Y-106202381D02*
X158659880Y-106154762D01*
X158659880Y-106154762D02*
X158612261Y-106130952D01*
X158612261Y-106130952D02*
X158517023Y-106107143D01*
X158517023Y-106107143D02*
X158445595Y-106107143D01*
X158445595Y-106107143D02*
X158350357Y-106130952D01*
X158350357Y-106130952D02*
X158302738Y-106154762D01*
X158302738Y-106154762D02*
X158255119Y-106202381D01*
X158255119Y-106202381D02*
X158231309Y-106273809D01*
X158231309Y-106273809D02*
X158231309Y-106321428D01*
X158231309Y-106321428D02*
X158255119Y-106392857D01*
X158255119Y-106392857D02*
X158278928Y-106416666D01*
X158231309Y-106583333D02*
X158231309Y-106892857D01*
X158231309Y-106892857D02*
X158421785Y-106726190D01*
X158421785Y-106726190D02*
X158421785Y-106797619D01*
X158421785Y-106797619D02*
X158445595Y-106845238D01*
X158445595Y-106845238D02*
X158469404Y-106869047D01*
X158469404Y-106869047D02*
X158517023Y-106892857D01*
X158517023Y-106892857D02*
X158636071Y-106892857D01*
X158636071Y-106892857D02*
X158683690Y-106869047D01*
X158683690Y-106869047D02*
X158707500Y-106845238D01*
X158707500Y-106845238D02*
X158731309Y-106797619D01*
X158731309Y-106797619D02*
X158731309Y-106654762D01*
X158731309Y-106654762D02*
X158707500Y-106607143D01*
X158707500Y-106607143D02*
X158683690Y-106583333D01*
D12*
%TO.C,C7*%
X148250000Y-92607836D02*
X148250000Y-92392164D01*
X148750000Y-92607836D02*
X148750000Y-92392164D01*
%TO.C,C13*%
X137859420Y-107100000D02*
X138140580Y-107100000D01*
X137859420Y-107900000D02*
X138140580Y-107900000D01*
%TO.C,R3*%
X150725000Y-92653641D02*
X150725000Y-92346359D01*
X151275000Y-92653641D02*
X151275000Y-92346359D01*
%TO.C,C4*%
X160100000Y-93640580D02*
X160100000Y-93359420D01*
X160900000Y-93640580D02*
X160900000Y-93359420D01*
%TO.C,C5*%
X156600000Y-106640580D02*
X156600000Y-106359420D01*
X157400000Y-106640580D02*
X157400000Y-106359420D01*
%TO.C,C1*%
X157600000Y-93640580D02*
X157600000Y-93359420D01*
X158400000Y-93640580D02*
X158400000Y-93359420D01*
%TO.C,R6*%
X152725000Y-92653641D02*
X152725000Y-92346359D01*
X153275000Y-92653641D02*
X153275000Y-92346359D01*
%TO.C,R4*%
X152346359Y-106725000D02*
X152653641Y-106725000D01*
X152346359Y-107275000D02*
X152653641Y-107275000D01*
%TO.C,U6*%
X136000000Y-102900000D02*
X138000000Y-102900000D01*
X137000000Y-105100000D02*
X138000000Y-105100000D01*
D13*
X135950001Y-105050000D02*
G75*
G03*
X135950001Y-105050000I-1J0D01*
G01*
D14*
%TO.C,J3*%
X144300000Y-92200000D02*
X144300000Y-94800000D01*
X142200000Y-92200000D02*
X144300000Y-92200000D01*
X141700000Y-92700000D02*
X142200000Y-92200000D01*
X141700000Y-92700000D02*
X141700000Y-94300000D01*
X141700000Y-94300000D02*
X142200000Y-94800000D01*
X142200000Y-94800000D02*
X144300000Y-94800000D01*
D12*
%TO.C,R17*%
X143153641Y-103275000D02*
X142846359Y-103275000D01*
X143153641Y-102725000D02*
X142846359Y-102725000D01*
D14*
%TO.C,D2*%
X136425000Y-101270000D02*
X138330000Y-101270000D01*
D15*
X137060000Y-100381000D02*
X138330000Y-100381000D01*
X137695000Y-100381000D02*
X137695000Y-101270000D01*
X137695000Y-100381000D02*
X137060000Y-99746000D01*
X137060000Y-99746000D02*
X138330000Y-99746000D01*
X137695000Y-99746000D02*
X137695000Y-98730000D01*
X138330000Y-99746000D02*
X137695000Y-100381000D01*
D14*
X136425000Y-98730000D02*
X138330000Y-98730000D01*
X132825000Y-102400000D02*
X136425000Y-102400000D01*
X136425000Y-102400000D02*
X136425000Y-97600000D01*
X136425000Y-97600000D02*
X132825000Y-97600000D01*
X132825000Y-97600000D02*
X132825000Y-102400000D01*
D15*
X138680000Y-101270000D02*
G75*
G03*
X138680000Y-101270000I-350000J0D01*
G01*
D16*
%TO.C,JP1*%
X148900000Y-107800000D02*
X148900000Y-107200000D01*
X148200000Y-106500000D02*
X146800000Y-106500000D01*
X146800000Y-108500000D02*
X148200000Y-108500000D01*
X146100000Y-107200000D02*
X146100000Y-107800000D01*
X148200000Y-108500000D02*
G75*
G03*
X148900000Y-107800000I1J699999D01*
G01*
X148900000Y-107200000D02*
G75*
G03*
X148200000Y-106500000I-699999J1D01*
G01*
X146100000Y-107800000D02*
G75*
G03*
X146800000Y-108500000I700000J0D01*
G01*
X146800000Y-106500000D02*
G75*
G03*
X146100000Y-107200000I0J-700000D01*
G01*
D17*
%TO.C,U1*%
X156450000Y-101550000D02*
X156450000Y-98450000D01*
X159550000Y-101550000D02*
X159550000Y-98450000D01*
D18*
X159545000Y-102000000D02*
G75*
G03*
X159545000Y-102000000I-100000J0D01*
G01*
D16*
%TO.C,U3*%
X145240000Y-103860000D02*
X145495000Y-103860000D01*
X155505000Y-103860000D02*
X155505000Y-105675000D01*
X155760000Y-103860000D02*
X155505000Y-103860000D01*
X145240000Y-100000000D02*
X145240000Y-103860000D01*
X145240000Y-100000000D02*
X145240000Y-96140000D01*
X155760000Y-100000000D02*
X155760000Y-103860000D01*
X155760000Y-100000000D02*
X155760000Y-96140000D01*
X145240000Y-96140000D02*
X145495000Y-96140000D01*
X155760000Y-96140000D02*
X155505000Y-96140000D01*
D15*
X156150000Y-104750000D02*
G75*
G03*
X156150000Y-104750000I-150000J0D01*
G01*
D14*
%TO.C,J4*%
X144300000Y-105200000D02*
X144300000Y-107800000D01*
X142200000Y-105200000D02*
X144300000Y-105200000D01*
X141700000Y-105700000D02*
X142200000Y-105200000D01*
X141700000Y-105700000D02*
X141700000Y-107300000D01*
X141700000Y-107300000D02*
X142200000Y-107800000D01*
X142200000Y-107800000D02*
X144300000Y-107800000D01*
%TO.C,J2*%
X166800000Y-98700000D02*
X166800000Y-101300000D01*
X164700000Y-98700000D02*
X166800000Y-98700000D01*
X164200000Y-99200000D02*
X164700000Y-98700000D01*
X164200000Y-99200000D02*
X164200000Y-100800000D01*
X164200000Y-100800000D02*
X164700000Y-101300000D01*
X164700000Y-101300000D02*
X166800000Y-101300000D01*
D12*
%TO.C,R16*%
X140346359Y-102725000D02*
X140653641Y-102725000D01*
X140346359Y-103275000D02*
X140653641Y-103275000D01*
%TO.C,R15*%
X138846359Y-105725000D02*
X139153641Y-105725000D01*
X138846359Y-106275000D02*
X139153641Y-106275000D01*
%TO.C,C9*%
X147250000Y-92392164D02*
X147250000Y-92607836D01*
X146750000Y-92392164D02*
X146750000Y-92607836D01*
%TO.C,R8*%
X143725000Y-100153641D02*
X143725000Y-99846359D01*
X144275000Y-100153641D02*
X144275000Y-99846359D01*
%TO.C,C2*%
X162400000Y-106359420D02*
X162400000Y-106640580D01*
X161600000Y-106359420D02*
X161600000Y-106640580D01*
D19*
%TO.C,Q1*%
X139180000Y-103980000D02*
X139820000Y-103980000D01*
X139180000Y-105020000D02*
X139180000Y-103980000D01*
X139820000Y-103980000D02*
X139820000Y-105020000D01*
X139820000Y-105020000D02*
X139180000Y-105020000D01*
D20*
X139950001Y-105150000D02*
G75*
G03*
X139950001Y-105150000I-1J0D01*
G01*
D12*
%TO.C,C3*%
X159900000Y-106359420D02*
X159900000Y-106640580D01*
X159100000Y-106359420D02*
X159100000Y-106640580D01*
%TD*%
%LPC*%
D21*
%TO.C,H2*%
X166000000Y-93000000D03*
%TD*%
D22*
%TO.C,J1*%
X161000000Y-103550000D03*
D23*
X161000000Y-96350000D03*
D24*
X161650000Y-97150000D03*
X162350000Y-97550000D03*
X162350000Y-98350000D03*
X161650000Y-98750000D03*
X162350000Y-99150000D03*
X161650000Y-99550000D03*
X161650000Y-100350000D03*
X162350000Y-100750000D03*
X161650000Y-101150000D03*
X162350000Y-101550000D03*
X162350000Y-102350000D03*
X161650000Y-102750000D03*
D25*
X162250000Y-104080000D03*
X162250000Y-95820000D03*
X166700000Y-104490000D03*
X166700000Y-95510000D03*
%TD*%
D21*
%TO.C,H4*%
X134000000Y-107000000D03*
%TD*%
%TO.C,H3*%
X166000000Y-107000000D03*
%TD*%
%TO.C,H1*%
X134000000Y-93000000D03*
%TD*%
D26*
%TO.C,C7*%
X148500000Y-92980000D03*
X148500000Y-92020000D03*
%TD*%
D27*
%TO.C,C13*%
X137225000Y-107500000D03*
X138775000Y-107500000D03*
%TD*%
D28*
%TO.C,R3*%
X151000000Y-93010000D03*
X151000000Y-91990000D03*
%TD*%
D29*
%TO.C,C4*%
X160500000Y-94275000D03*
X160500000Y-92725000D03*
%TD*%
%TO.C,C5*%
X157000000Y-107275000D03*
X157000000Y-105725000D03*
%TD*%
%TO.C,C1*%
X158000000Y-94275000D03*
X158000000Y-92725000D03*
%TD*%
D28*
%TO.C,R6*%
X153000000Y-93010000D03*
X153000000Y-91990000D03*
%TD*%
D30*
%TO.C,R4*%
X151990000Y-107000000D03*
X153010000Y-107000000D03*
%TD*%
D31*
%TO.C,FID2*%
X163000000Y-93000000D03*
%TD*%
D32*
%TO.C,U6*%
X135950000Y-104650000D03*
X135950000Y-104000000D03*
X135950000Y-103350000D03*
X138050000Y-103350000D03*
X138050000Y-104000000D03*
X138050000Y-104650000D03*
D33*
X137000000Y-104000000D03*
%TD*%
D34*
%TO.C,J3*%
X141475000Y-93500000D03*
D35*
X143000000Y-92025000D03*
D34*
X144525000Y-93500000D03*
D36*
X143000000Y-94975000D03*
%TD*%
D37*
%TO.C,R17*%
X143510000Y-103000000D03*
X142490000Y-103000000D03*
%TD*%
D38*
%TO.C,D2*%
X140675000Y-101270000D03*
X140675000Y-98730000D03*
%TD*%
D39*
%TO.C,JP1*%
X148150000Y-107500000D03*
D40*
X146850000Y-107500000D03*
%TD*%
D41*
%TO.C,U1*%
X158975000Y-102165000D03*
X158325000Y-102165000D03*
X157675000Y-102165000D03*
X157025000Y-102165000D03*
X157025000Y-97835000D03*
X157675000Y-97835000D03*
X158325000Y-97835000D03*
X158975000Y-97835000D03*
%TD*%
D42*
%TO.C,U3*%
X154945000Y-104650000D03*
X153675000Y-104650000D03*
X152405000Y-104650000D03*
X151135000Y-104650000D03*
X149865000Y-104650000D03*
X148595000Y-104650000D03*
X147325000Y-104650000D03*
X146055000Y-104650000D03*
X146055000Y-95350000D03*
X147325000Y-95350000D03*
X148595000Y-95350000D03*
X149865000Y-95350000D03*
X151135000Y-95350000D03*
X152405000Y-95350000D03*
X153675000Y-95350000D03*
X154945000Y-95350000D03*
%TD*%
D34*
%TO.C,J4*%
X141475000Y-106500000D03*
D35*
X143000000Y-105025000D03*
D34*
X144525000Y-106500000D03*
D36*
X143000000Y-107975000D03*
%TD*%
D34*
%TO.C,J2*%
X163975000Y-100000000D03*
D35*
X165500000Y-98525000D03*
D34*
X167025000Y-100000000D03*
D36*
X165500000Y-101475000D03*
%TD*%
D30*
%TO.C,R16*%
X139990000Y-103000000D03*
X141010000Y-103000000D03*
%TD*%
%TO.C,R15*%
X138490000Y-106000000D03*
X139510000Y-106000000D03*
%TD*%
D43*
%TO.C,C9*%
X147000000Y-92020000D03*
X147000000Y-92980000D03*
%TD*%
D28*
%TO.C,R8*%
X144000000Y-100510000D03*
X144000000Y-99490000D03*
%TD*%
D31*
%TO.C,FID4*%
X134000000Y-104000000D03*
%TD*%
D44*
%TO.C,C2*%
X162000000Y-105725000D03*
X162000000Y-107275000D03*
%TD*%
D45*
%TO.C,Q1*%
X139675000Y-104825000D03*
X139325000Y-104825000D03*
D46*
X139500000Y-104175000D03*
%TD*%
D44*
%TO.C,C3*%
X159500000Y-105725000D03*
X159500000Y-107275000D03*
%TD*%
M02*
