%TF.GenerationSoftware,KiCad,Pcbnew,7.0.1*%
%TF.CreationDate,2023-03-24T10:32:53-04:00*%
%TF.ProjectId,wingbeat_detector,77696e67-6265-4617-945f-646574656374,3.0*%
%TF.SameCoordinates,Original*%
%TF.FileFunction,AssemblyDrawing,Bot*%
%FSLAX46Y46*%
G04 Gerber Fmt 4.6, Leading zero omitted, Abs format (unit mm)*
G04 Created by KiCad (PCBNEW 7.0.1) date 2023-03-24 10:32:53*
%MOMM*%
%LPD*%
G01*
G04 APERTURE LIST*
%ADD10C,0.100000*%
%ADD11C,0.125000*%
%ADD12C,0.040000*%
%ADD13C,0.060000*%
%ADD14C,0.075000*%
%ADD15C,0.050000*%
%ADD16C,0.300000*%
%ADD17C,0.150000*%
%ADD18C,0.127000*%
%ADD19C,0.500000*%
%ADD20C,0.120000*%
%ADD21C,0.200000*%
G04 APERTURE END LIST*
D10*
X134000000Y-91000000D02*
X166000000Y-91000000D01*
X134000000Y-91000000D02*
G75*
G03*
X132000000Y-93000000I0J-2000000D01*
G01*
X132000000Y-93000000D02*
X132000000Y-107000000D01*
X166000000Y-109000000D02*
G75*
G03*
X168000000Y-107000000I0J2000000D01*
G01*
X134000000Y-109000000D02*
X166000000Y-109000000D01*
X132000000Y-107000000D02*
G75*
G03*
X134000000Y-109000000I2000000J0D01*
G01*
X168000000Y-107000000D02*
X168000000Y-93000000D01*
X168000000Y-93000000D02*
G75*
G03*
X166000000Y-91000000I-2000000J0D01*
G01*
D11*
%TO.C,C7*%
X148981309Y-91678572D02*
X148981309Y-91726191D01*
X148981309Y-91726191D02*
X149005119Y-91773810D01*
X149005119Y-91773810D02*
X149028928Y-91797620D01*
X149028928Y-91797620D02*
X149076547Y-91821429D01*
X149076547Y-91821429D02*
X149171785Y-91845239D01*
X149171785Y-91845239D02*
X149290833Y-91845239D01*
X149290833Y-91845239D02*
X149386071Y-91821429D01*
X149386071Y-91821429D02*
X149433690Y-91797620D01*
X149433690Y-91797620D02*
X149457500Y-91773810D01*
X149457500Y-91773810D02*
X149481309Y-91726191D01*
X149481309Y-91726191D02*
X149481309Y-91678572D01*
X149481309Y-91678572D02*
X149457500Y-91630953D01*
X149457500Y-91630953D02*
X149433690Y-91607144D01*
X149433690Y-91607144D02*
X149386071Y-91583334D01*
X149386071Y-91583334D02*
X149290833Y-91559525D01*
X149290833Y-91559525D02*
X149171785Y-91559525D01*
X149171785Y-91559525D02*
X149076547Y-91583334D01*
X149076547Y-91583334D02*
X149028928Y-91607144D01*
X149028928Y-91607144D02*
X149005119Y-91630953D01*
X149005119Y-91630953D02*
X148981309Y-91678572D01*
X149433690Y-92059524D02*
X149457500Y-92083334D01*
X149457500Y-92083334D02*
X149481309Y-92059524D01*
X149481309Y-92059524D02*
X149457500Y-92035715D01*
X149457500Y-92035715D02*
X149433690Y-92059524D01*
X149433690Y-92059524D02*
X149481309Y-92059524D01*
X149481309Y-92559524D02*
X149481309Y-92273810D01*
X149481309Y-92416667D02*
X148981309Y-92416667D01*
X148981309Y-92416667D02*
X149052738Y-92369048D01*
X149052738Y-92369048D02*
X149100357Y-92321429D01*
X149100357Y-92321429D02*
X149124166Y-92273810D01*
X149147976Y-92988095D02*
X149481309Y-92988095D01*
X149147976Y-92773809D02*
X149409880Y-92773809D01*
X149409880Y-92773809D02*
X149457500Y-92797619D01*
X149457500Y-92797619D02*
X149481309Y-92845238D01*
X149481309Y-92845238D02*
X149481309Y-92916666D01*
X149481309Y-92916666D02*
X149457500Y-92964285D01*
X149457500Y-92964285D02*
X149433690Y-92988095D01*
X149219404Y-93392857D02*
X149219404Y-93226190D01*
X149481309Y-93226190D02*
X148981309Y-93226190D01*
X148981309Y-93226190D02*
X148981309Y-93464285D01*
D12*
X148591845Y-92458333D02*
X148603750Y-92446429D01*
X148603750Y-92446429D02*
X148615654Y-92410714D01*
X148615654Y-92410714D02*
X148615654Y-92386905D01*
X148615654Y-92386905D02*
X148603750Y-92351191D01*
X148603750Y-92351191D02*
X148579940Y-92327381D01*
X148579940Y-92327381D02*
X148556130Y-92315476D01*
X148556130Y-92315476D02*
X148508511Y-92303572D01*
X148508511Y-92303572D02*
X148472797Y-92303572D01*
X148472797Y-92303572D02*
X148425178Y-92315476D01*
X148425178Y-92315476D02*
X148401369Y-92327381D01*
X148401369Y-92327381D02*
X148377559Y-92351191D01*
X148377559Y-92351191D02*
X148365654Y-92386905D01*
X148365654Y-92386905D02*
X148365654Y-92410714D01*
X148365654Y-92410714D02*
X148377559Y-92446429D01*
X148377559Y-92446429D02*
X148389464Y-92458333D01*
X148365654Y-92541667D02*
X148365654Y-92708333D01*
X148365654Y-92708333D02*
X148615654Y-92601191D01*
D11*
%TO.C,C13*%
X138702379Y-108397976D02*
X138702379Y-108731309D01*
X138821427Y-108207500D02*
X138940474Y-108564642D01*
X138940474Y-108564642D02*
X138630951Y-108564642D01*
X138440475Y-108683690D02*
X138416665Y-108707500D01*
X138416665Y-108707500D02*
X138440475Y-108731309D01*
X138440475Y-108731309D02*
X138464284Y-108707500D01*
X138464284Y-108707500D02*
X138440475Y-108683690D01*
X138440475Y-108683690D02*
X138440475Y-108731309D01*
X138249999Y-108231309D02*
X137916666Y-108231309D01*
X137916666Y-108231309D02*
X138130951Y-108731309D01*
X137511904Y-108397976D02*
X137511904Y-108731309D01*
X137726190Y-108397976D02*
X137726190Y-108659880D01*
X137726190Y-108659880D02*
X137702380Y-108707500D01*
X137702380Y-108707500D02*
X137654761Y-108731309D01*
X137654761Y-108731309D02*
X137583333Y-108731309D01*
X137583333Y-108731309D02*
X137535714Y-108707500D01*
X137535714Y-108707500D02*
X137511904Y-108683690D01*
X137107142Y-108469404D02*
X137273809Y-108469404D01*
X137273809Y-108731309D02*
X137273809Y-108231309D01*
X137273809Y-108231309D02*
X137035714Y-108231309D01*
D13*
X138257142Y-107646952D02*
X138276190Y-107666000D01*
X138276190Y-107666000D02*
X138333332Y-107685047D01*
X138333332Y-107685047D02*
X138371428Y-107685047D01*
X138371428Y-107685047D02*
X138428571Y-107666000D01*
X138428571Y-107666000D02*
X138466666Y-107627904D01*
X138466666Y-107627904D02*
X138485713Y-107589809D01*
X138485713Y-107589809D02*
X138504761Y-107513619D01*
X138504761Y-107513619D02*
X138504761Y-107456476D01*
X138504761Y-107456476D02*
X138485713Y-107380285D01*
X138485713Y-107380285D02*
X138466666Y-107342190D01*
X138466666Y-107342190D02*
X138428571Y-107304095D01*
X138428571Y-107304095D02*
X138371428Y-107285047D01*
X138371428Y-107285047D02*
X138333332Y-107285047D01*
X138333332Y-107285047D02*
X138276190Y-107304095D01*
X138276190Y-107304095D02*
X138257142Y-107323142D01*
X137876190Y-107685047D02*
X138104761Y-107685047D01*
X137990475Y-107685047D02*
X137990475Y-107285047D01*
X137990475Y-107285047D02*
X138028571Y-107342190D01*
X138028571Y-107342190D02*
X138066666Y-107380285D01*
X138066666Y-107380285D02*
X138104761Y-107399333D01*
X137742857Y-107285047D02*
X137495238Y-107285047D01*
X137495238Y-107285047D02*
X137628571Y-107437428D01*
X137628571Y-107437428D02*
X137571428Y-107437428D01*
X137571428Y-107437428D02*
X137533333Y-107456476D01*
X137533333Y-107456476D02*
X137514285Y-107475523D01*
X137514285Y-107475523D02*
X137495238Y-107513619D01*
X137495238Y-107513619D02*
X137495238Y-107608857D01*
X137495238Y-107608857D02*
X137514285Y-107646952D01*
X137514285Y-107646952D02*
X137533333Y-107666000D01*
X137533333Y-107666000D02*
X137571428Y-107685047D01*
X137571428Y-107685047D02*
X137685714Y-107685047D01*
X137685714Y-107685047D02*
X137723809Y-107666000D01*
X137723809Y-107666000D02*
X137742857Y-107646952D01*
D11*
%TO.C,R3*%
X151647976Y-91797620D02*
X151981309Y-91797620D01*
X151457500Y-91678572D02*
X151814642Y-91559525D01*
X151814642Y-91559525D02*
X151814642Y-91869048D01*
X151981309Y-92083334D02*
X151981309Y-92178572D01*
X151981309Y-92178572D02*
X151957500Y-92226191D01*
X151957500Y-92226191D02*
X151933690Y-92250000D01*
X151933690Y-92250000D02*
X151862261Y-92297619D01*
X151862261Y-92297619D02*
X151767023Y-92321429D01*
X151767023Y-92321429D02*
X151576547Y-92321429D01*
X151576547Y-92321429D02*
X151528928Y-92297619D01*
X151528928Y-92297619D02*
X151505119Y-92273810D01*
X151505119Y-92273810D02*
X151481309Y-92226191D01*
X151481309Y-92226191D02*
X151481309Y-92130953D01*
X151481309Y-92130953D02*
X151505119Y-92083334D01*
X151505119Y-92083334D02*
X151528928Y-92059524D01*
X151528928Y-92059524D02*
X151576547Y-92035715D01*
X151576547Y-92035715D02*
X151695595Y-92035715D01*
X151695595Y-92035715D02*
X151743214Y-92059524D01*
X151743214Y-92059524D02*
X151767023Y-92083334D01*
X151767023Y-92083334D02*
X151790833Y-92130953D01*
X151790833Y-92130953D02*
X151790833Y-92226191D01*
X151790833Y-92226191D02*
X151767023Y-92273810D01*
X151767023Y-92273810D02*
X151743214Y-92297619D01*
X151743214Y-92297619D02*
X151695595Y-92321429D01*
X151933690Y-92535714D02*
X151957500Y-92559524D01*
X151957500Y-92559524D02*
X151981309Y-92535714D01*
X151981309Y-92535714D02*
X151957500Y-92511905D01*
X151957500Y-92511905D02*
X151933690Y-92535714D01*
X151933690Y-92535714D02*
X151981309Y-92535714D01*
X151981309Y-92797619D02*
X151981309Y-92892857D01*
X151981309Y-92892857D02*
X151957500Y-92940476D01*
X151957500Y-92940476D02*
X151933690Y-92964285D01*
X151933690Y-92964285D02*
X151862261Y-93011904D01*
X151862261Y-93011904D02*
X151767023Y-93035714D01*
X151767023Y-93035714D02*
X151576547Y-93035714D01*
X151576547Y-93035714D02*
X151528928Y-93011904D01*
X151528928Y-93011904D02*
X151505119Y-92988095D01*
X151505119Y-92988095D02*
X151481309Y-92940476D01*
X151481309Y-92940476D02*
X151481309Y-92845238D01*
X151481309Y-92845238D02*
X151505119Y-92797619D01*
X151505119Y-92797619D02*
X151528928Y-92773809D01*
X151528928Y-92773809D02*
X151576547Y-92750000D01*
X151576547Y-92750000D02*
X151695595Y-92750000D01*
X151695595Y-92750000D02*
X151743214Y-92773809D01*
X151743214Y-92773809D02*
X151767023Y-92797619D01*
X151767023Y-92797619D02*
X151790833Y-92845238D01*
X151790833Y-92845238D02*
X151790833Y-92940476D01*
X151790833Y-92940476D02*
X151767023Y-92988095D01*
X151767023Y-92988095D02*
X151743214Y-93011904D01*
X151743214Y-93011904D02*
X151695595Y-93035714D01*
X151981309Y-93249999D02*
X151481309Y-93249999D01*
X151790833Y-93297618D02*
X151981309Y-93440475D01*
X151647976Y-93440475D02*
X151838452Y-93249999D01*
D12*
X151120280Y-92456667D02*
X150996471Y-92370000D01*
X151120280Y-92308095D02*
X150860280Y-92308095D01*
X150860280Y-92308095D02*
X150860280Y-92407143D01*
X150860280Y-92407143D02*
X150872661Y-92431905D01*
X150872661Y-92431905D02*
X150885042Y-92444286D01*
X150885042Y-92444286D02*
X150909804Y-92456667D01*
X150909804Y-92456667D02*
X150946947Y-92456667D01*
X150946947Y-92456667D02*
X150971709Y-92444286D01*
X150971709Y-92444286D02*
X150984090Y-92431905D01*
X150984090Y-92431905D02*
X150996471Y-92407143D01*
X150996471Y-92407143D02*
X150996471Y-92308095D01*
X150860280Y-92543333D02*
X150860280Y-92704286D01*
X150860280Y-92704286D02*
X150959328Y-92617619D01*
X150959328Y-92617619D02*
X150959328Y-92654762D01*
X150959328Y-92654762D02*
X150971709Y-92679524D01*
X150971709Y-92679524D02*
X150984090Y-92691905D01*
X150984090Y-92691905D02*
X151008852Y-92704286D01*
X151008852Y-92704286D02*
X151070757Y-92704286D01*
X151070757Y-92704286D02*
X151095519Y-92691905D01*
X151095519Y-92691905D02*
X151107900Y-92679524D01*
X151107900Y-92679524D02*
X151120280Y-92654762D01*
X151120280Y-92654762D02*
X151120280Y-92580476D01*
X151120280Y-92580476D02*
X151107900Y-92555714D01*
X151107900Y-92555714D02*
X151095519Y-92543333D01*
D11*
%TO.C,C4*%
X161397976Y-92797620D02*
X161731309Y-92797620D01*
X161207500Y-92678572D02*
X161564642Y-92559525D01*
X161564642Y-92559525D02*
X161564642Y-92869048D01*
X161683690Y-93059524D02*
X161707500Y-93083334D01*
X161707500Y-93083334D02*
X161731309Y-93059524D01*
X161731309Y-93059524D02*
X161707500Y-93035715D01*
X161707500Y-93035715D02*
X161683690Y-93059524D01*
X161683690Y-93059524D02*
X161731309Y-93059524D01*
X161231309Y-93250000D02*
X161231309Y-93583333D01*
X161231309Y-93583333D02*
X161731309Y-93369048D01*
X161397976Y-93988095D02*
X161731309Y-93988095D01*
X161397976Y-93773809D02*
X161659880Y-93773809D01*
X161659880Y-93773809D02*
X161707500Y-93797619D01*
X161707500Y-93797619D02*
X161731309Y-93845238D01*
X161731309Y-93845238D02*
X161731309Y-93916666D01*
X161731309Y-93916666D02*
X161707500Y-93964285D01*
X161707500Y-93964285D02*
X161683690Y-93988095D01*
X161469404Y-94392857D02*
X161469404Y-94226190D01*
X161731309Y-94226190D02*
X161231309Y-94226190D01*
X161231309Y-94226190D02*
X161231309Y-94464285D01*
D13*
X160646952Y-93433333D02*
X160666000Y-93414285D01*
X160666000Y-93414285D02*
X160685047Y-93357143D01*
X160685047Y-93357143D02*
X160685047Y-93319047D01*
X160685047Y-93319047D02*
X160666000Y-93261904D01*
X160666000Y-93261904D02*
X160627904Y-93223809D01*
X160627904Y-93223809D02*
X160589809Y-93204762D01*
X160589809Y-93204762D02*
X160513619Y-93185714D01*
X160513619Y-93185714D02*
X160456476Y-93185714D01*
X160456476Y-93185714D02*
X160380285Y-93204762D01*
X160380285Y-93204762D02*
X160342190Y-93223809D01*
X160342190Y-93223809D02*
X160304095Y-93261904D01*
X160304095Y-93261904D02*
X160285047Y-93319047D01*
X160285047Y-93319047D02*
X160285047Y-93357143D01*
X160285047Y-93357143D02*
X160304095Y-93414285D01*
X160304095Y-93414285D02*
X160323142Y-93433333D01*
X160418380Y-93776190D02*
X160685047Y-93776190D01*
X160266000Y-93680952D02*
X160551714Y-93585714D01*
X160551714Y-93585714D02*
X160551714Y-93833333D01*
D11*
%TO.C,C5*%
X157897976Y-105797620D02*
X158231309Y-105797620D01*
X157707500Y-105678572D02*
X158064642Y-105559525D01*
X158064642Y-105559525D02*
X158064642Y-105869048D01*
X158183690Y-106059524D02*
X158207500Y-106083334D01*
X158207500Y-106083334D02*
X158231309Y-106059524D01*
X158231309Y-106059524D02*
X158207500Y-106035715D01*
X158207500Y-106035715D02*
X158183690Y-106059524D01*
X158183690Y-106059524D02*
X158231309Y-106059524D01*
X157731309Y-106250000D02*
X157731309Y-106583333D01*
X157731309Y-106583333D02*
X158231309Y-106369048D01*
X157897976Y-106988095D02*
X158231309Y-106988095D01*
X157897976Y-106773809D02*
X158159880Y-106773809D01*
X158159880Y-106773809D02*
X158207500Y-106797619D01*
X158207500Y-106797619D02*
X158231309Y-106845238D01*
X158231309Y-106845238D02*
X158231309Y-106916666D01*
X158231309Y-106916666D02*
X158207500Y-106964285D01*
X158207500Y-106964285D02*
X158183690Y-106988095D01*
X157969404Y-107392857D02*
X157969404Y-107226190D01*
X158231309Y-107226190D02*
X157731309Y-107226190D01*
X157731309Y-107226190D02*
X157731309Y-107464285D01*
D13*
X157146952Y-106433333D02*
X157166000Y-106414285D01*
X157166000Y-106414285D02*
X157185047Y-106357143D01*
X157185047Y-106357143D02*
X157185047Y-106319047D01*
X157185047Y-106319047D02*
X157166000Y-106261904D01*
X157166000Y-106261904D02*
X157127904Y-106223809D01*
X157127904Y-106223809D02*
X157089809Y-106204762D01*
X157089809Y-106204762D02*
X157013619Y-106185714D01*
X157013619Y-106185714D02*
X156956476Y-106185714D01*
X156956476Y-106185714D02*
X156880285Y-106204762D01*
X156880285Y-106204762D02*
X156842190Y-106223809D01*
X156842190Y-106223809D02*
X156804095Y-106261904D01*
X156804095Y-106261904D02*
X156785047Y-106319047D01*
X156785047Y-106319047D02*
X156785047Y-106357143D01*
X156785047Y-106357143D02*
X156804095Y-106414285D01*
X156804095Y-106414285D02*
X156823142Y-106433333D01*
X156785047Y-106795238D02*
X156785047Y-106604762D01*
X156785047Y-106604762D02*
X156975523Y-106585714D01*
X156975523Y-106585714D02*
X156956476Y-106604762D01*
X156956476Y-106604762D02*
X156937428Y-106642857D01*
X156937428Y-106642857D02*
X156937428Y-106738095D01*
X156937428Y-106738095D02*
X156956476Y-106776190D01*
X156956476Y-106776190D02*
X156975523Y-106795238D01*
X156975523Y-106795238D02*
X157013619Y-106814285D01*
X157013619Y-106814285D02*
X157108857Y-106814285D01*
X157108857Y-106814285D02*
X157146952Y-106795238D01*
X157146952Y-106795238D02*
X157166000Y-106776190D01*
X157166000Y-106776190D02*
X157185047Y-106738095D01*
X157185047Y-106738095D02*
X157185047Y-106642857D01*
X157185047Y-106642857D02*
X157166000Y-106604762D01*
X157166000Y-106604762D02*
X157146952Y-106585714D01*
D11*
%TO.C,C1*%
X158897976Y-92797620D02*
X159231309Y-92797620D01*
X158707500Y-92678572D02*
X159064642Y-92559525D01*
X159064642Y-92559525D02*
X159064642Y-92869048D01*
X159183690Y-93059524D02*
X159207500Y-93083334D01*
X159207500Y-93083334D02*
X159231309Y-93059524D01*
X159231309Y-93059524D02*
X159207500Y-93035715D01*
X159207500Y-93035715D02*
X159183690Y-93059524D01*
X159183690Y-93059524D02*
X159231309Y-93059524D01*
X158731309Y-93250000D02*
X158731309Y-93583333D01*
X158731309Y-93583333D02*
X159231309Y-93369048D01*
X158897976Y-93988095D02*
X159231309Y-93988095D01*
X158897976Y-93773809D02*
X159159880Y-93773809D01*
X159159880Y-93773809D02*
X159207500Y-93797619D01*
X159207500Y-93797619D02*
X159231309Y-93845238D01*
X159231309Y-93845238D02*
X159231309Y-93916666D01*
X159231309Y-93916666D02*
X159207500Y-93964285D01*
X159207500Y-93964285D02*
X159183690Y-93988095D01*
X158969404Y-94392857D02*
X158969404Y-94226190D01*
X159231309Y-94226190D02*
X158731309Y-94226190D01*
X158731309Y-94226190D02*
X158731309Y-94464285D01*
D13*
X158146952Y-93433333D02*
X158166000Y-93414285D01*
X158166000Y-93414285D02*
X158185047Y-93357143D01*
X158185047Y-93357143D02*
X158185047Y-93319047D01*
X158185047Y-93319047D02*
X158166000Y-93261904D01*
X158166000Y-93261904D02*
X158127904Y-93223809D01*
X158127904Y-93223809D02*
X158089809Y-93204762D01*
X158089809Y-93204762D02*
X158013619Y-93185714D01*
X158013619Y-93185714D02*
X157956476Y-93185714D01*
X157956476Y-93185714D02*
X157880285Y-93204762D01*
X157880285Y-93204762D02*
X157842190Y-93223809D01*
X157842190Y-93223809D02*
X157804095Y-93261904D01*
X157804095Y-93261904D02*
X157785047Y-93319047D01*
X157785047Y-93319047D02*
X157785047Y-93357143D01*
X157785047Y-93357143D02*
X157804095Y-93414285D01*
X157804095Y-93414285D02*
X157823142Y-93433333D01*
X158185047Y-93814285D02*
X158185047Y-93585714D01*
X158185047Y-93700000D02*
X157785047Y-93700000D01*
X157785047Y-93700000D02*
X157842190Y-93661904D01*
X157842190Y-93661904D02*
X157880285Y-93623809D01*
X157880285Y-93623809D02*
X157899333Y-93585714D01*
D11*
%TO.C,R6*%
X153647976Y-91797620D02*
X153981309Y-91797620D01*
X153457500Y-91678572D02*
X153814642Y-91559525D01*
X153814642Y-91559525D02*
X153814642Y-91869048D01*
X153981309Y-92083334D02*
X153981309Y-92178572D01*
X153981309Y-92178572D02*
X153957500Y-92226191D01*
X153957500Y-92226191D02*
X153933690Y-92250000D01*
X153933690Y-92250000D02*
X153862261Y-92297619D01*
X153862261Y-92297619D02*
X153767023Y-92321429D01*
X153767023Y-92321429D02*
X153576547Y-92321429D01*
X153576547Y-92321429D02*
X153528928Y-92297619D01*
X153528928Y-92297619D02*
X153505119Y-92273810D01*
X153505119Y-92273810D02*
X153481309Y-92226191D01*
X153481309Y-92226191D02*
X153481309Y-92130953D01*
X153481309Y-92130953D02*
X153505119Y-92083334D01*
X153505119Y-92083334D02*
X153528928Y-92059524D01*
X153528928Y-92059524D02*
X153576547Y-92035715D01*
X153576547Y-92035715D02*
X153695595Y-92035715D01*
X153695595Y-92035715D02*
X153743214Y-92059524D01*
X153743214Y-92059524D02*
X153767023Y-92083334D01*
X153767023Y-92083334D02*
X153790833Y-92130953D01*
X153790833Y-92130953D02*
X153790833Y-92226191D01*
X153790833Y-92226191D02*
X153767023Y-92273810D01*
X153767023Y-92273810D02*
X153743214Y-92297619D01*
X153743214Y-92297619D02*
X153695595Y-92321429D01*
X153933690Y-92535714D02*
X153957500Y-92559524D01*
X153957500Y-92559524D02*
X153981309Y-92535714D01*
X153981309Y-92535714D02*
X153957500Y-92511905D01*
X153957500Y-92511905D02*
X153933690Y-92535714D01*
X153933690Y-92535714D02*
X153981309Y-92535714D01*
X153981309Y-92797619D02*
X153981309Y-92892857D01*
X153981309Y-92892857D02*
X153957500Y-92940476D01*
X153957500Y-92940476D02*
X153933690Y-92964285D01*
X153933690Y-92964285D02*
X153862261Y-93011904D01*
X153862261Y-93011904D02*
X153767023Y-93035714D01*
X153767023Y-93035714D02*
X153576547Y-93035714D01*
X153576547Y-93035714D02*
X153528928Y-93011904D01*
X153528928Y-93011904D02*
X153505119Y-92988095D01*
X153505119Y-92988095D02*
X153481309Y-92940476D01*
X153481309Y-92940476D02*
X153481309Y-92845238D01*
X153481309Y-92845238D02*
X153505119Y-92797619D01*
X153505119Y-92797619D02*
X153528928Y-92773809D01*
X153528928Y-92773809D02*
X153576547Y-92750000D01*
X153576547Y-92750000D02*
X153695595Y-92750000D01*
X153695595Y-92750000D02*
X153743214Y-92773809D01*
X153743214Y-92773809D02*
X153767023Y-92797619D01*
X153767023Y-92797619D02*
X153790833Y-92845238D01*
X153790833Y-92845238D02*
X153790833Y-92940476D01*
X153790833Y-92940476D02*
X153767023Y-92988095D01*
X153767023Y-92988095D02*
X153743214Y-93011904D01*
X153743214Y-93011904D02*
X153695595Y-93035714D01*
X153981309Y-93249999D02*
X153481309Y-93249999D01*
X153790833Y-93297618D02*
X153981309Y-93440475D01*
X153647976Y-93440475D02*
X153838452Y-93249999D01*
D12*
X153120280Y-92456667D02*
X152996471Y-92370000D01*
X153120280Y-92308095D02*
X152860280Y-92308095D01*
X152860280Y-92308095D02*
X152860280Y-92407143D01*
X152860280Y-92407143D02*
X152872661Y-92431905D01*
X152872661Y-92431905D02*
X152885042Y-92444286D01*
X152885042Y-92444286D02*
X152909804Y-92456667D01*
X152909804Y-92456667D02*
X152946947Y-92456667D01*
X152946947Y-92456667D02*
X152971709Y-92444286D01*
X152971709Y-92444286D02*
X152984090Y-92431905D01*
X152984090Y-92431905D02*
X152996471Y-92407143D01*
X152996471Y-92407143D02*
X152996471Y-92308095D01*
X152860280Y-92679524D02*
X152860280Y-92630000D01*
X152860280Y-92630000D02*
X152872661Y-92605238D01*
X152872661Y-92605238D02*
X152885042Y-92592857D01*
X152885042Y-92592857D02*
X152922185Y-92568095D01*
X152922185Y-92568095D02*
X152971709Y-92555714D01*
X152971709Y-92555714D02*
X153070757Y-92555714D01*
X153070757Y-92555714D02*
X153095519Y-92568095D01*
X153095519Y-92568095D02*
X153107900Y-92580476D01*
X153107900Y-92580476D02*
X153120280Y-92605238D01*
X153120280Y-92605238D02*
X153120280Y-92654762D01*
X153120280Y-92654762D02*
X153107900Y-92679524D01*
X153107900Y-92679524D02*
X153095519Y-92691905D01*
X153095519Y-92691905D02*
X153070757Y-92704286D01*
X153070757Y-92704286D02*
X153008852Y-92704286D01*
X153008852Y-92704286D02*
X152984090Y-92691905D01*
X152984090Y-92691905D02*
X152971709Y-92679524D01*
X152971709Y-92679524D02*
X152959328Y-92654762D01*
X152959328Y-92654762D02*
X152959328Y-92605238D01*
X152959328Y-92605238D02*
X152971709Y-92580476D01*
X152971709Y-92580476D02*
X152984090Y-92568095D01*
X152984090Y-92568095D02*
X153008852Y-92555714D01*
D11*
%TO.C,R4*%
X153202379Y-105981309D02*
X153297617Y-105981309D01*
X153297617Y-105981309D02*
X153345236Y-106005119D01*
X153345236Y-106005119D02*
X153369046Y-106028928D01*
X153369046Y-106028928D02*
X153416665Y-106100357D01*
X153416665Y-106100357D02*
X153440474Y-106195595D01*
X153440474Y-106195595D02*
X153440474Y-106386071D01*
X153440474Y-106386071D02*
X153416665Y-106433690D01*
X153416665Y-106433690D02*
X153392855Y-106457500D01*
X153392855Y-106457500D02*
X153345236Y-106481309D01*
X153345236Y-106481309D02*
X153249998Y-106481309D01*
X153249998Y-106481309D02*
X153202379Y-106457500D01*
X153202379Y-106457500D02*
X153178570Y-106433690D01*
X153178570Y-106433690D02*
X153154760Y-106386071D01*
X153154760Y-106386071D02*
X153154760Y-106267023D01*
X153154760Y-106267023D02*
X153178570Y-106219404D01*
X153178570Y-106219404D02*
X153202379Y-106195595D01*
X153202379Y-106195595D02*
X153249998Y-106171785D01*
X153249998Y-106171785D02*
X153345236Y-106171785D01*
X153345236Y-106171785D02*
X153392855Y-106195595D01*
X153392855Y-106195595D02*
X153416665Y-106219404D01*
X153416665Y-106219404D02*
X153440474Y-106267023D01*
X152869046Y-106195595D02*
X152916665Y-106171785D01*
X152916665Y-106171785D02*
X152940475Y-106147976D01*
X152940475Y-106147976D02*
X152964284Y-106100357D01*
X152964284Y-106100357D02*
X152964284Y-106076547D01*
X152964284Y-106076547D02*
X152940475Y-106028928D01*
X152940475Y-106028928D02*
X152916665Y-106005119D01*
X152916665Y-106005119D02*
X152869046Y-105981309D01*
X152869046Y-105981309D02*
X152773808Y-105981309D01*
X152773808Y-105981309D02*
X152726189Y-106005119D01*
X152726189Y-106005119D02*
X152702380Y-106028928D01*
X152702380Y-106028928D02*
X152678570Y-106076547D01*
X152678570Y-106076547D02*
X152678570Y-106100357D01*
X152678570Y-106100357D02*
X152702380Y-106147976D01*
X152702380Y-106147976D02*
X152726189Y-106171785D01*
X152726189Y-106171785D02*
X152773808Y-106195595D01*
X152773808Y-106195595D02*
X152869046Y-106195595D01*
X152869046Y-106195595D02*
X152916665Y-106219404D01*
X152916665Y-106219404D02*
X152940475Y-106243214D01*
X152940475Y-106243214D02*
X152964284Y-106290833D01*
X152964284Y-106290833D02*
X152964284Y-106386071D01*
X152964284Y-106386071D02*
X152940475Y-106433690D01*
X152940475Y-106433690D02*
X152916665Y-106457500D01*
X152916665Y-106457500D02*
X152869046Y-106481309D01*
X152869046Y-106481309D02*
X152773808Y-106481309D01*
X152773808Y-106481309D02*
X152726189Y-106457500D01*
X152726189Y-106457500D02*
X152702380Y-106433690D01*
X152702380Y-106433690D02*
X152678570Y-106386071D01*
X152678570Y-106386071D02*
X152678570Y-106290833D01*
X152678570Y-106290833D02*
X152702380Y-106243214D01*
X152702380Y-106243214D02*
X152726189Y-106219404D01*
X152726189Y-106219404D02*
X152773808Y-106195595D01*
X152464285Y-106433690D02*
X152440475Y-106457500D01*
X152440475Y-106457500D02*
X152464285Y-106481309D01*
X152464285Y-106481309D02*
X152488094Y-106457500D01*
X152488094Y-106457500D02*
X152464285Y-106433690D01*
X152464285Y-106433690D02*
X152464285Y-106481309D01*
X151964285Y-106481309D02*
X152249999Y-106481309D01*
X152107142Y-106481309D02*
X152107142Y-105981309D01*
X152107142Y-105981309D02*
X152154761Y-106052738D01*
X152154761Y-106052738D02*
X152202380Y-106100357D01*
X152202380Y-106100357D02*
X152249999Y-106124166D01*
X151750000Y-106481309D02*
X151750000Y-105981309D01*
X151702381Y-106290833D02*
X151559524Y-106481309D01*
X151559524Y-106147976D02*
X151750000Y-106338452D01*
D12*
X152543332Y-107120280D02*
X152629999Y-106996471D01*
X152691904Y-107120280D02*
X152691904Y-106860280D01*
X152691904Y-106860280D02*
X152592856Y-106860280D01*
X152592856Y-106860280D02*
X152568094Y-106872661D01*
X152568094Y-106872661D02*
X152555713Y-106885042D01*
X152555713Y-106885042D02*
X152543332Y-106909804D01*
X152543332Y-106909804D02*
X152543332Y-106946947D01*
X152543332Y-106946947D02*
X152555713Y-106971709D01*
X152555713Y-106971709D02*
X152568094Y-106984090D01*
X152568094Y-106984090D02*
X152592856Y-106996471D01*
X152592856Y-106996471D02*
X152691904Y-106996471D01*
X152320475Y-106946947D02*
X152320475Y-107120280D01*
X152382380Y-106847900D02*
X152444285Y-107033614D01*
X152444285Y-107033614D02*
X152283332Y-107033614D01*
D11*
%TO.C,FID2*%
X163535713Y-92069404D02*
X163702380Y-92069404D01*
X163702380Y-92331309D02*
X163702380Y-91831309D01*
X163702380Y-91831309D02*
X163464285Y-91831309D01*
X163273809Y-92331309D02*
X163273809Y-91831309D01*
X163035714Y-92331309D02*
X163035714Y-91831309D01*
X163035714Y-91831309D02*
X162916666Y-91831309D01*
X162916666Y-91831309D02*
X162845238Y-91855119D01*
X162845238Y-91855119D02*
X162797619Y-91902738D01*
X162797619Y-91902738D02*
X162773809Y-91950357D01*
X162773809Y-91950357D02*
X162750000Y-92045595D01*
X162750000Y-92045595D02*
X162750000Y-92117023D01*
X162750000Y-92117023D02*
X162773809Y-92212261D01*
X162773809Y-92212261D02*
X162797619Y-92259880D01*
X162797619Y-92259880D02*
X162845238Y-92307500D01*
X162845238Y-92307500D02*
X162916666Y-92331309D01*
X162916666Y-92331309D02*
X163035714Y-92331309D01*
X162559523Y-91878928D02*
X162535714Y-91855119D01*
X162535714Y-91855119D02*
X162488095Y-91831309D01*
X162488095Y-91831309D02*
X162369047Y-91831309D01*
X162369047Y-91831309D02*
X162321428Y-91855119D01*
X162321428Y-91855119D02*
X162297619Y-91878928D01*
X162297619Y-91878928D02*
X162273809Y-91926547D01*
X162273809Y-91926547D02*
X162273809Y-91974166D01*
X162273809Y-91974166D02*
X162297619Y-92045595D01*
X162297619Y-92045595D02*
X162583333Y-92331309D01*
X162583333Y-92331309D02*
X162273809Y-92331309D01*
D12*
X163214285Y-92987761D02*
X163280951Y-92987761D01*
X163280951Y-93092523D02*
X163280951Y-92892523D01*
X163280951Y-92892523D02*
X163185713Y-92892523D01*
X163109522Y-93092523D02*
X163109522Y-92892523D01*
X163014284Y-93092523D02*
X163014284Y-92892523D01*
X163014284Y-92892523D02*
X162966665Y-92892523D01*
X162966665Y-92892523D02*
X162938094Y-92902047D01*
X162938094Y-92902047D02*
X162919046Y-92921095D01*
X162919046Y-92921095D02*
X162909523Y-92940142D01*
X162909523Y-92940142D02*
X162899999Y-92978238D01*
X162899999Y-92978238D02*
X162899999Y-93006809D01*
X162899999Y-93006809D02*
X162909523Y-93044904D01*
X162909523Y-93044904D02*
X162919046Y-93063952D01*
X162919046Y-93063952D02*
X162938094Y-93083000D01*
X162938094Y-93083000D02*
X162966665Y-93092523D01*
X162966665Y-93092523D02*
X163014284Y-93092523D01*
X162823808Y-92911571D02*
X162814284Y-92902047D01*
X162814284Y-92902047D02*
X162795237Y-92892523D01*
X162795237Y-92892523D02*
X162747618Y-92892523D01*
X162747618Y-92892523D02*
X162728570Y-92902047D01*
X162728570Y-92902047D02*
X162719046Y-92911571D01*
X162719046Y-92911571D02*
X162709523Y-92930619D01*
X162709523Y-92930619D02*
X162709523Y-92949666D01*
X162709523Y-92949666D02*
X162719046Y-92978238D01*
X162719046Y-92978238D02*
X162833332Y-93092523D01*
X162833332Y-93092523D02*
X162709523Y-93092523D01*
D10*
%TO.C,U6*%
X140952380Y-102435047D02*
X141142856Y-102435047D01*
X141142856Y-102435047D02*
X141142856Y-102035047D01*
X140819046Y-102225523D02*
X140685713Y-102225523D01*
X140628570Y-102435047D02*
X140819046Y-102435047D01*
X140819046Y-102435047D02*
X140819046Y-102035047D01*
X140819046Y-102035047D02*
X140628570Y-102035047D01*
X140457141Y-102435047D02*
X140457141Y-102035047D01*
X140457141Y-102035047D02*
X140361903Y-102035047D01*
X140361903Y-102035047D02*
X140304760Y-102054095D01*
X140304760Y-102054095D02*
X140266665Y-102092190D01*
X140266665Y-102092190D02*
X140247618Y-102130285D01*
X140247618Y-102130285D02*
X140228570Y-102206476D01*
X140228570Y-102206476D02*
X140228570Y-102263619D01*
X140228570Y-102263619D02*
X140247618Y-102339809D01*
X140247618Y-102339809D02*
X140266665Y-102377904D01*
X140266665Y-102377904D02*
X140304760Y-102416000D01*
X140304760Y-102416000D02*
X140361903Y-102435047D01*
X140361903Y-102435047D02*
X140457141Y-102435047D01*
X140152380Y-102473142D02*
X139847618Y-102473142D01*
X139752379Y-102435047D02*
X139752379Y-102035047D01*
X139752379Y-102035047D02*
X139657141Y-102035047D01*
X139657141Y-102035047D02*
X139599998Y-102054095D01*
X139599998Y-102054095D02*
X139561903Y-102092190D01*
X139561903Y-102092190D02*
X139542856Y-102130285D01*
X139542856Y-102130285D02*
X139523808Y-102206476D01*
X139523808Y-102206476D02*
X139523808Y-102263619D01*
X139523808Y-102263619D02*
X139542856Y-102339809D01*
X139542856Y-102339809D02*
X139561903Y-102377904D01*
X139561903Y-102377904D02*
X139599998Y-102416000D01*
X139599998Y-102416000D02*
X139657141Y-102435047D01*
X139657141Y-102435047D02*
X139752379Y-102435047D01*
X139123808Y-102435047D02*
X139257141Y-102244571D01*
X139352379Y-102435047D02*
X139352379Y-102035047D01*
X139352379Y-102035047D02*
X139199998Y-102035047D01*
X139199998Y-102035047D02*
X139161903Y-102054095D01*
X139161903Y-102054095D02*
X139142856Y-102073142D01*
X139142856Y-102073142D02*
X139123808Y-102111238D01*
X139123808Y-102111238D02*
X139123808Y-102168380D01*
X139123808Y-102168380D02*
X139142856Y-102206476D01*
X139142856Y-102206476D02*
X139161903Y-102225523D01*
X139161903Y-102225523D02*
X139199998Y-102244571D01*
X139199998Y-102244571D02*
X139352379Y-102244571D01*
X139009522Y-102035047D02*
X138876189Y-102435047D01*
X138876189Y-102435047D02*
X138742856Y-102035047D01*
X138704761Y-102473142D02*
X138399999Y-102473142D01*
X138114284Y-102035047D02*
X138304760Y-102035047D01*
X138304760Y-102035047D02*
X138323808Y-102225523D01*
X138323808Y-102225523D02*
X138304760Y-102206476D01*
X138304760Y-102206476D02*
X138266665Y-102187428D01*
X138266665Y-102187428D02*
X138171427Y-102187428D01*
X138171427Y-102187428D02*
X138133332Y-102206476D01*
X138133332Y-102206476D02*
X138114284Y-102225523D01*
X138114284Y-102225523D02*
X138095237Y-102263619D01*
X138095237Y-102263619D02*
X138095237Y-102358857D01*
X138095237Y-102358857D02*
X138114284Y-102396952D01*
X138114284Y-102396952D02*
X138133332Y-102416000D01*
X138133332Y-102416000D02*
X138171427Y-102435047D01*
X138171427Y-102435047D02*
X138266665Y-102435047D01*
X138266665Y-102435047D02*
X138304760Y-102416000D01*
X138304760Y-102416000D02*
X138323808Y-102396952D01*
X137847618Y-102035047D02*
X137809523Y-102035047D01*
X137809523Y-102035047D02*
X137771427Y-102054095D01*
X137771427Y-102054095D02*
X137752380Y-102073142D01*
X137752380Y-102073142D02*
X137733332Y-102111238D01*
X137733332Y-102111238D02*
X137714285Y-102187428D01*
X137714285Y-102187428D02*
X137714285Y-102282666D01*
X137714285Y-102282666D02*
X137733332Y-102358857D01*
X137733332Y-102358857D02*
X137752380Y-102396952D01*
X137752380Y-102396952D02*
X137771427Y-102416000D01*
X137771427Y-102416000D02*
X137809523Y-102435047D01*
X137809523Y-102435047D02*
X137847618Y-102435047D01*
X137847618Y-102435047D02*
X137885713Y-102416000D01*
X137885713Y-102416000D02*
X137904761Y-102396952D01*
X137904761Y-102396952D02*
X137923808Y-102358857D01*
X137923808Y-102358857D02*
X137942856Y-102282666D01*
X137942856Y-102282666D02*
X137942856Y-102187428D01*
X137942856Y-102187428D02*
X137923808Y-102111238D01*
X137923808Y-102111238D02*
X137904761Y-102073142D01*
X137904761Y-102073142D02*
X137885713Y-102054095D01*
X137885713Y-102054095D02*
X137847618Y-102035047D01*
X137542856Y-102435047D02*
X137542856Y-102168380D01*
X137542856Y-102206476D02*
X137523809Y-102187428D01*
X137523809Y-102187428D02*
X137485714Y-102168380D01*
X137485714Y-102168380D02*
X137428571Y-102168380D01*
X137428571Y-102168380D02*
X137390475Y-102187428D01*
X137390475Y-102187428D02*
X137371428Y-102225523D01*
X137371428Y-102225523D02*
X137371428Y-102435047D01*
X137371428Y-102225523D02*
X137352380Y-102187428D01*
X137352380Y-102187428D02*
X137314285Y-102168380D01*
X137314285Y-102168380D02*
X137257142Y-102168380D01*
X137257142Y-102168380D02*
X137219047Y-102187428D01*
X137219047Y-102187428D02*
X137199999Y-102225523D01*
X137199999Y-102225523D02*
X137199999Y-102435047D01*
X137028571Y-102320761D02*
X136838095Y-102320761D01*
X137066666Y-102435047D02*
X136933333Y-102035047D01*
X136933333Y-102035047D02*
X136800000Y-102435047D01*
D14*
X137380952Y-103731309D02*
X137380952Y-104136071D01*
X137380952Y-104136071D02*
X137357142Y-104183690D01*
X137357142Y-104183690D02*
X137333333Y-104207500D01*
X137333333Y-104207500D02*
X137285714Y-104231309D01*
X137285714Y-104231309D02*
X137190476Y-104231309D01*
X137190476Y-104231309D02*
X137142857Y-104207500D01*
X137142857Y-104207500D02*
X137119047Y-104183690D01*
X137119047Y-104183690D02*
X137095238Y-104136071D01*
X137095238Y-104136071D02*
X137095238Y-103731309D01*
X136642856Y-103731309D02*
X136738094Y-103731309D01*
X136738094Y-103731309D02*
X136785713Y-103755119D01*
X136785713Y-103755119D02*
X136809523Y-103778928D01*
X136809523Y-103778928D02*
X136857142Y-103850357D01*
X136857142Y-103850357D02*
X136880951Y-103945595D01*
X136880951Y-103945595D02*
X136880951Y-104136071D01*
X136880951Y-104136071D02*
X136857142Y-104183690D01*
X136857142Y-104183690D02*
X136833332Y-104207500D01*
X136833332Y-104207500D02*
X136785713Y-104231309D01*
X136785713Y-104231309D02*
X136690475Y-104231309D01*
X136690475Y-104231309D02*
X136642856Y-104207500D01*
X136642856Y-104207500D02*
X136619047Y-104183690D01*
X136619047Y-104183690D02*
X136595237Y-104136071D01*
X136595237Y-104136071D02*
X136595237Y-104017023D01*
X136595237Y-104017023D02*
X136619047Y-103969404D01*
X136619047Y-103969404D02*
X136642856Y-103945595D01*
X136642856Y-103945595D02*
X136690475Y-103921785D01*
X136690475Y-103921785D02*
X136785713Y-103921785D01*
X136785713Y-103921785D02*
X136833332Y-103945595D01*
X136833332Y-103945595D02*
X136857142Y-103969404D01*
X136857142Y-103969404D02*
X136880951Y-104017023D01*
D11*
%TO.C,J3*%
X145738094Y-95031309D02*
X145738094Y-95436071D01*
X145738094Y-95436071D02*
X145714284Y-95483690D01*
X145714284Y-95483690D02*
X145690475Y-95507500D01*
X145690475Y-95507500D02*
X145642856Y-95531309D01*
X145642856Y-95531309D02*
X145547618Y-95531309D01*
X145547618Y-95531309D02*
X145499999Y-95507500D01*
X145499999Y-95507500D02*
X145476189Y-95483690D01*
X145476189Y-95483690D02*
X145452380Y-95436071D01*
X145452380Y-95436071D02*
X145452380Y-95031309D01*
X145214284Y-95531309D02*
X145214284Y-95031309D01*
X145214284Y-95031309D02*
X145047617Y-95388452D01*
X145047617Y-95388452D02*
X144880951Y-95031309D01*
X144880951Y-95031309D02*
X144880951Y-95531309D01*
X144357141Y-95483690D02*
X144380950Y-95507500D01*
X144380950Y-95507500D02*
X144452379Y-95531309D01*
X144452379Y-95531309D02*
X144499998Y-95531309D01*
X144499998Y-95531309D02*
X144571426Y-95507500D01*
X144571426Y-95507500D02*
X144619045Y-95459880D01*
X144619045Y-95459880D02*
X144642855Y-95412261D01*
X144642855Y-95412261D02*
X144666664Y-95317023D01*
X144666664Y-95317023D02*
X144666664Y-95245595D01*
X144666664Y-95245595D02*
X144642855Y-95150357D01*
X144642855Y-95150357D02*
X144619045Y-95102738D01*
X144619045Y-95102738D02*
X144571426Y-95055119D01*
X144571426Y-95055119D02*
X144499998Y-95031309D01*
X144499998Y-95031309D02*
X144452379Y-95031309D01*
X144452379Y-95031309D02*
X144380950Y-95055119D01*
X144380950Y-95055119D02*
X144357141Y-95078928D01*
X144261903Y-95578928D02*
X143880950Y-95578928D01*
X143619046Y-95031309D02*
X143619046Y-95388452D01*
X143619046Y-95388452D02*
X143642855Y-95459880D01*
X143642855Y-95459880D02*
X143690474Y-95507500D01*
X143690474Y-95507500D02*
X143761903Y-95531309D01*
X143761903Y-95531309D02*
X143809522Y-95531309D01*
X143404760Y-95388452D02*
X143166665Y-95388452D01*
X143452379Y-95531309D02*
X143285713Y-95031309D01*
X143285713Y-95031309D02*
X143119046Y-95531309D01*
X142666666Y-95483690D02*
X142690475Y-95507500D01*
X142690475Y-95507500D02*
X142761904Y-95531309D01*
X142761904Y-95531309D02*
X142809523Y-95531309D01*
X142809523Y-95531309D02*
X142880951Y-95507500D01*
X142880951Y-95507500D02*
X142928570Y-95459880D01*
X142928570Y-95459880D02*
X142952380Y-95412261D01*
X142952380Y-95412261D02*
X142976189Y-95317023D01*
X142976189Y-95317023D02*
X142976189Y-95245595D01*
X142976189Y-95245595D02*
X142952380Y-95150357D01*
X142952380Y-95150357D02*
X142928570Y-95102738D01*
X142928570Y-95102738D02*
X142880951Y-95055119D01*
X142880951Y-95055119D02*
X142809523Y-95031309D01*
X142809523Y-95031309D02*
X142761904Y-95031309D01*
X142761904Y-95031309D02*
X142690475Y-95055119D01*
X142690475Y-95055119D02*
X142666666Y-95078928D01*
X142452380Y-95531309D02*
X142452380Y-95031309D01*
X142166666Y-95531309D02*
X142380951Y-95245595D01*
X142166666Y-95031309D02*
X142452380Y-95317023D01*
X142071428Y-95578928D02*
X141690475Y-95578928D01*
X141595237Y-95507500D02*
X141523809Y-95531309D01*
X141523809Y-95531309D02*
X141404761Y-95531309D01*
X141404761Y-95531309D02*
X141357142Y-95507500D01*
X141357142Y-95507500D02*
X141333333Y-95483690D01*
X141333333Y-95483690D02*
X141309523Y-95436071D01*
X141309523Y-95436071D02*
X141309523Y-95388452D01*
X141309523Y-95388452D02*
X141333333Y-95340833D01*
X141333333Y-95340833D02*
X141357142Y-95317023D01*
X141357142Y-95317023D02*
X141404761Y-95293214D01*
X141404761Y-95293214D02*
X141499999Y-95269404D01*
X141499999Y-95269404D02*
X141547618Y-95245595D01*
X141547618Y-95245595D02*
X141571428Y-95221785D01*
X141571428Y-95221785D02*
X141595237Y-95174166D01*
X141595237Y-95174166D02*
X141595237Y-95126547D01*
X141595237Y-95126547D02*
X141571428Y-95078928D01*
X141571428Y-95078928D02*
X141547618Y-95055119D01*
X141547618Y-95055119D02*
X141499999Y-95031309D01*
X141499999Y-95031309D02*
X141380952Y-95031309D01*
X141380952Y-95031309D02*
X141309523Y-95055119D01*
X141095238Y-95531309D02*
X141095238Y-95031309D01*
X141095238Y-95031309D02*
X140928571Y-95388452D01*
X140928571Y-95388452D02*
X140761905Y-95031309D01*
X140761905Y-95031309D02*
X140761905Y-95531309D01*
X140523809Y-95531309D02*
X140523809Y-95031309D01*
X140523809Y-95031309D02*
X140404761Y-95031309D01*
X140404761Y-95031309D02*
X140333333Y-95055119D01*
X140333333Y-95055119D02*
X140285714Y-95102738D01*
X140285714Y-95102738D02*
X140261904Y-95150357D01*
X140261904Y-95150357D02*
X140238095Y-95245595D01*
X140238095Y-95245595D02*
X140238095Y-95317023D01*
X140238095Y-95317023D02*
X140261904Y-95412261D01*
X140261904Y-95412261D02*
X140285714Y-95459880D01*
X140285714Y-95459880D02*
X140333333Y-95507500D01*
X140333333Y-95507500D02*
X140404761Y-95531309D01*
X140404761Y-95531309D02*
X140523809Y-95531309D01*
%TO.C,R17*%
X143345237Y-103528928D02*
X143321428Y-103505119D01*
X143321428Y-103505119D02*
X143273809Y-103481309D01*
X143273809Y-103481309D02*
X143154761Y-103481309D01*
X143154761Y-103481309D02*
X143107142Y-103505119D01*
X143107142Y-103505119D02*
X143083333Y-103528928D01*
X143083333Y-103528928D02*
X143059523Y-103576547D01*
X143059523Y-103576547D02*
X143059523Y-103624166D01*
X143059523Y-103624166D02*
X143083333Y-103695595D01*
X143083333Y-103695595D02*
X143369047Y-103981309D01*
X143369047Y-103981309D02*
X143059523Y-103981309D01*
X142845238Y-103981309D02*
X142845238Y-103481309D01*
X142797619Y-103790833D02*
X142654762Y-103981309D01*
X142654762Y-103647976D02*
X142845238Y-103838452D01*
D12*
X143167142Y-103120280D02*
X143253809Y-102996471D01*
X143315714Y-103120280D02*
X143315714Y-102860280D01*
X143315714Y-102860280D02*
X143216666Y-102860280D01*
X143216666Y-102860280D02*
X143191904Y-102872661D01*
X143191904Y-102872661D02*
X143179523Y-102885042D01*
X143179523Y-102885042D02*
X143167142Y-102909804D01*
X143167142Y-102909804D02*
X143167142Y-102946947D01*
X143167142Y-102946947D02*
X143179523Y-102971709D01*
X143179523Y-102971709D02*
X143191904Y-102984090D01*
X143191904Y-102984090D02*
X143216666Y-102996471D01*
X143216666Y-102996471D02*
X143315714Y-102996471D01*
X142919523Y-103120280D02*
X143068095Y-103120280D01*
X142993809Y-103120280D02*
X142993809Y-102860280D01*
X142993809Y-102860280D02*
X143018571Y-102897423D01*
X143018571Y-102897423D02*
X143043333Y-102922185D01*
X143043333Y-102922185D02*
X143068095Y-102934566D01*
X142832857Y-102860280D02*
X142659523Y-102860280D01*
X142659523Y-102860280D02*
X142770952Y-103120280D01*
D11*
%TO.C,D2*%
X126893690Y-100321428D02*
X126893690Y-100559523D01*
X126893690Y-100559523D02*
X127393690Y-100559523D01*
X127155595Y-100154761D02*
X127155595Y-99988094D01*
X126893690Y-99916666D02*
X126893690Y-100154761D01*
X126893690Y-100154761D02*
X127393690Y-100154761D01*
X127393690Y-100154761D02*
X127393690Y-99916666D01*
X126893690Y-99702380D02*
X127393690Y-99702380D01*
X127393690Y-99702380D02*
X127393690Y-99583332D01*
X127393690Y-99583332D02*
X127369880Y-99511904D01*
X127369880Y-99511904D02*
X127322261Y-99464285D01*
X127322261Y-99464285D02*
X127274642Y-99440475D01*
X127274642Y-99440475D02*
X127179404Y-99416666D01*
X127179404Y-99416666D02*
X127107976Y-99416666D01*
X127107976Y-99416666D02*
X127012738Y-99440475D01*
X127012738Y-99440475D02*
X126965119Y-99464285D01*
X126965119Y-99464285D02*
X126917500Y-99511904D01*
X126917500Y-99511904D02*
X126893690Y-99583332D01*
X126893690Y-99583332D02*
X126893690Y-99702380D01*
X134493690Y-100369047D02*
X134993690Y-100369047D01*
X134993690Y-100369047D02*
X134993690Y-100249999D01*
X134993690Y-100249999D02*
X134969880Y-100178571D01*
X134969880Y-100178571D02*
X134922261Y-100130952D01*
X134922261Y-100130952D02*
X134874642Y-100107142D01*
X134874642Y-100107142D02*
X134779404Y-100083333D01*
X134779404Y-100083333D02*
X134707976Y-100083333D01*
X134707976Y-100083333D02*
X134612738Y-100107142D01*
X134612738Y-100107142D02*
X134565119Y-100130952D01*
X134565119Y-100130952D02*
X134517500Y-100178571D01*
X134517500Y-100178571D02*
X134493690Y-100249999D01*
X134493690Y-100249999D02*
X134493690Y-100369047D01*
X134946071Y-99892856D02*
X134969880Y-99869047D01*
X134969880Y-99869047D02*
X134993690Y-99821428D01*
X134993690Y-99821428D02*
X134993690Y-99702380D01*
X134993690Y-99702380D02*
X134969880Y-99654761D01*
X134969880Y-99654761D02*
X134946071Y-99630952D01*
X134946071Y-99630952D02*
X134898452Y-99607142D01*
X134898452Y-99607142D02*
X134850833Y-99607142D01*
X134850833Y-99607142D02*
X134779404Y-99630952D01*
X134779404Y-99630952D02*
X134493690Y-99916666D01*
X134493690Y-99916666D02*
X134493690Y-99607142D01*
%TO.C,JP1*%
X147916666Y-105731309D02*
X147916666Y-106088452D01*
X147916666Y-106088452D02*
X147940475Y-106159880D01*
X147940475Y-106159880D02*
X147988094Y-106207500D01*
X147988094Y-106207500D02*
X148059523Y-106231309D01*
X148059523Y-106231309D02*
X148107142Y-106231309D01*
X147678571Y-106231309D02*
X147678571Y-105731309D01*
X147678571Y-105731309D02*
X147488095Y-105731309D01*
X147488095Y-105731309D02*
X147440476Y-105755119D01*
X147440476Y-105755119D02*
X147416666Y-105778928D01*
X147416666Y-105778928D02*
X147392857Y-105826547D01*
X147392857Y-105826547D02*
X147392857Y-105897976D01*
X147392857Y-105897976D02*
X147416666Y-105945595D01*
X147416666Y-105945595D02*
X147440476Y-105969404D01*
X147440476Y-105969404D02*
X147488095Y-105993214D01*
X147488095Y-105993214D02*
X147678571Y-105993214D01*
X146916666Y-106231309D02*
X147202380Y-106231309D01*
X147059523Y-106231309D02*
X147059523Y-105731309D01*
X147059523Y-105731309D02*
X147107142Y-105802738D01*
X147107142Y-105802738D02*
X147154761Y-105850357D01*
X147154761Y-105850357D02*
X147202380Y-105874166D01*
%TO.C,U1*%
X160481309Y-97654762D02*
X159981309Y-97654762D01*
X159981309Y-97654762D02*
X160338452Y-97821429D01*
X160338452Y-97821429D02*
X159981309Y-97988095D01*
X159981309Y-97988095D02*
X160481309Y-97988095D01*
X160338452Y-98202382D02*
X160338452Y-98440477D01*
X160481309Y-98154763D02*
X159981309Y-98321429D01*
X159981309Y-98321429D02*
X160481309Y-98488096D01*
X159981309Y-98607143D02*
X160481309Y-98940476D01*
X159981309Y-98940476D02*
X160481309Y-98607143D01*
X160195595Y-99202381D02*
X160171785Y-99154762D01*
X160171785Y-99154762D02*
X160147976Y-99130952D01*
X160147976Y-99130952D02*
X160100357Y-99107143D01*
X160100357Y-99107143D02*
X160076547Y-99107143D01*
X160076547Y-99107143D02*
X160028928Y-99130952D01*
X160028928Y-99130952D02*
X160005119Y-99154762D01*
X160005119Y-99154762D02*
X159981309Y-99202381D01*
X159981309Y-99202381D02*
X159981309Y-99297619D01*
X159981309Y-99297619D02*
X160005119Y-99345238D01*
X160005119Y-99345238D02*
X160028928Y-99369047D01*
X160028928Y-99369047D02*
X160076547Y-99392857D01*
X160076547Y-99392857D02*
X160100357Y-99392857D01*
X160100357Y-99392857D02*
X160147976Y-99369047D01*
X160147976Y-99369047D02*
X160171785Y-99345238D01*
X160171785Y-99345238D02*
X160195595Y-99297619D01*
X160195595Y-99297619D02*
X160195595Y-99202381D01*
X160195595Y-99202381D02*
X160219404Y-99154762D01*
X160219404Y-99154762D02*
X160243214Y-99130952D01*
X160243214Y-99130952D02*
X160290833Y-99107143D01*
X160290833Y-99107143D02*
X160386071Y-99107143D01*
X160386071Y-99107143D02*
X160433690Y-99130952D01*
X160433690Y-99130952D02*
X160457500Y-99154762D01*
X160457500Y-99154762D02*
X160481309Y-99202381D01*
X160481309Y-99202381D02*
X160481309Y-99297619D01*
X160481309Y-99297619D02*
X160457500Y-99345238D01*
X160457500Y-99345238D02*
X160433690Y-99369047D01*
X160433690Y-99369047D02*
X160386071Y-99392857D01*
X160386071Y-99392857D02*
X160290833Y-99392857D01*
X160290833Y-99392857D02*
X160243214Y-99369047D01*
X160243214Y-99369047D02*
X160219404Y-99345238D01*
X160219404Y-99345238D02*
X160195595Y-99297619D01*
X159981309Y-99821428D02*
X159981309Y-99726190D01*
X159981309Y-99726190D02*
X160005119Y-99678571D01*
X160005119Y-99678571D02*
X160028928Y-99654761D01*
X160028928Y-99654761D02*
X160100357Y-99607142D01*
X160100357Y-99607142D02*
X160195595Y-99583333D01*
X160195595Y-99583333D02*
X160386071Y-99583333D01*
X160386071Y-99583333D02*
X160433690Y-99607142D01*
X160433690Y-99607142D02*
X160457500Y-99630952D01*
X160457500Y-99630952D02*
X160481309Y-99678571D01*
X160481309Y-99678571D02*
X160481309Y-99773809D01*
X160481309Y-99773809D02*
X160457500Y-99821428D01*
X160457500Y-99821428D02*
X160433690Y-99845237D01*
X160433690Y-99845237D02*
X160386071Y-99869047D01*
X160386071Y-99869047D02*
X160267023Y-99869047D01*
X160267023Y-99869047D02*
X160219404Y-99845237D01*
X160219404Y-99845237D02*
X160195595Y-99821428D01*
X160195595Y-99821428D02*
X160171785Y-99773809D01*
X160171785Y-99773809D02*
X160171785Y-99678571D01*
X160171785Y-99678571D02*
X160195595Y-99630952D01*
X160195595Y-99630952D02*
X160219404Y-99607142D01*
X160219404Y-99607142D02*
X160267023Y-99583333D01*
X159981309Y-100321427D02*
X159981309Y-100083332D01*
X159981309Y-100083332D02*
X160219404Y-100059523D01*
X160219404Y-100059523D02*
X160195595Y-100083332D01*
X160195595Y-100083332D02*
X160171785Y-100130951D01*
X160171785Y-100130951D02*
X160171785Y-100249999D01*
X160171785Y-100249999D02*
X160195595Y-100297618D01*
X160195595Y-100297618D02*
X160219404Y-100321427D01*
X160219404Y-100321427D02*
X160267023Y-100345237D01*
X160267023Y-100345237D02*
X160386071Y-100345237D01*
X160386071Y-100345237D02*
X160433690Y-100321427D01*
X160433690Y-100321427D02*
X160457500Y-100297618D01*
X160457500Y-100297618D02*
X160481309Y-100249999D01*
X160481309Y-100249999D02*
X160481309Y-100130951D01*
X160481309Y-100130951D02*
X160457500Y-100083332D01*
X160457500Y-100083332D02*
X160433690Y-100059523D01*
X160219404Y-100559522D02*
X160219404Y-100726189D01*
X160481309Y-100797617D02*
X160481309Y-100559522D01*
X160481309Y-100559522D02*
X159981309Y-100559522D01*
X159981309Y-100559522D02*
X159981309Y-100797617D01*
X159981309Y-101011903D02*
X160386071Y-101011903D01*
X160386071Y-101011903D02*
X160433690Y-101035713D01*
X160433690Y-101035713D02*
X160457500Y-101059522D01*
X160457500Y-101059522D02*
X160481309Y-101107141D01*
X160481309Y-101107141D02*
X160481309Y-101202379D01*
X160481309Y-101202379D02*
X160457500Y-101249998D01*
X160457500Y-101249998D02*
X160433690Y-101273808D01*
X160433690Y-101273808D02*
X160386071Y-101297617D01*
X160386071Y-101297617D02*
X159981309Y-101297617D01*
X160338452Y-101511904D02*
X160338452Y-101749999D01*
X160481309Y-101464285D02*
X159981309Y-101630951D01*
X159981309Y-101630951D02*
X160481309Y-101797618D01*
X160290833Y-101964284D02*
X160290833Y-102345237D01*
X160481309Y-102154760D02*
X160100357Y-102154760D01*
%TO.C,U3*%
X149331309Y-98023810D02*
X149736071Y-98023810D01*
X149736071Y-98023810D02*
X149783690Y-98047620D01*
X149783690Y-98047620D02*
X149807500Y-98071429D01*
X149807500Y-98071429D02*
X149831309Y-98119048D01*
X149831309Y-98119048D02*
X149831309Y-98214286D01*
X149831309Y-98214286D02*
X149807500Y-98261905D01*
X149807500Y-98261905D02*
X149783690Y-98285715D01*
X149783690Y-98285715D02*
X149736071Y-98309524D01*
X149736071Y-98309524D02*
X149331309Y-98309524D01*
X149688452Y-98523811D02*
X149688452Y-98761906D01*
X149831309Y-98476192D02*
X149331309Y-98642858D01*
X149331309Y-98642858D02*
X149831309Y-98809525D01*
X149569404Y-99142858D02*
X149569404Y-98976191D01*
X149831309Y-98976191D02*
X149331309Y-98976191D01*
X149331309Y-98976191D02*
X149331309Y-99214286D01*
X149497976Y-99619048D02*
X149831309Y-99619048D01*
X149307500Y-99500000D02*
X149664642Y-99380953D01*
X149664642Y-99380953D02*
X149664642Y-99690476D01*
X149378928Y-99857143D02*
X149355119Y-99880952D01*
X149355119Y-99880952D02*
X149331309Y-99928571D01*
X149331309Y-99928571D02*
X149331309Y-100047619D01*
X149331309Y-100047619D02*
X149355119Y-100095238D01*
X149355119Y-100095238D02*
X149378928Y-100119047D01*
X149378928Y-100119047D02*
X149426547Y-100142857D01*
X149426547Y-100142857D02*
X149474166Y-100142857D01*
X149474166Y-100142857D02*
X149545595Y-100119047D01*
X149545595Y-100119047D02*
X149831309Y-99833333D01*
X149831309Y-99833333D02*
X149831309Y-100142857D01*
X149878928Y-100238095D02*
X149878928Y-100619047D01*
X149807500Y-100714285D02*
X149831309Y-100785713D01*
X149831309Y-100785713D02*
X149831309Y-100904761D01*
X149831309Y-100904761D02*
X149807500Y-100952380D01*
X149807500Y-100952380D02*
X149783690Y-100976189D01*
X149783690Y-100976189D02*
X149736071Y-100999999D01*
X149736071Y-100999999D02*
X149688452Y-100999999D01*
X149688452Y-100999999D02*
X149640833Y-100976189D01*
X149640833Y-100976189D02*
X149617023Y-100952380D01*
X149617023Y-100952380D02*
X149593214Y-100904761D01*
X149593214Y-100904761D02*
X149569404Y-100809523D01*
X149569404Y-100809523D02*
X149545595Y-100761904D01*
X149545595Y-100761904D02*
X149521785Y-100738094D01*
X149521785Y-100738094D02*
X149474166Y-100714285D01*
X149474166Y-100714285D02*
X149426547Y-100714285D01*
X149426547Y-100714285D02*
X149378928Y-100738094D01*
X149378928Y-100738094D02*
X149355119Y-100761904D01*
X149355119Y-100761904D02*
X149331309Y-100809523D01*
X149331309Y-100809523D02*
X149331309Y-100928570D01*
X149331309Y-100928570D02*
X149355119Y-100999999D01*
X149831309Y-101214284D02*
X149331309Y-101214284D01*
X149331309Y-101214284D02*
X149688452Y-101380951D01*
X149688452Y-101380951D02*
X149331309Y-101547617D01*
X149331309Y-101547617D02*
X149831309Y-101547617D01*
X149688452Y-101761904D02*
X149688452Y-101999999D01*
X149831309Y-101714285D02*
X149331309Y-101880951D01*
X149331309Y-101880951D02*
X149831309Y-102047618D01*
X150231309Y-99619047D02*
X150636071Y-99619047D01*
X150636071Y-99619047D02*
X150683690Y-99642857D01*
X150683690Y-99642857D02*
X150707500Y-99666666D01*
X150707500Y-99666666D02*
X150731309Y-99714285D01*
X150731309Y-99714285D02*
X150731309Y-99809523D01*
X150731309Y-99809523D02*
X150707500Y-99857142D01*
X150707500Y-99857142D02*
X150683690Y-99880952D01*
X150683690Y-99880952D02*
X150636071Y-99904761D01*
X150636071Y-99904761D02*
X150231309Y-99904761D01*
X150231309Y-100095238D02*
X150231309Y-100404762D01*
X150231309Y-100404762D02*
X150421785Y-100238095D01*
X150421785Y-100238095D02*
X150421785Y-100309524D01*
X150421785Y-100309524D02*
X150445595Y-100357143D01*
X150445595Y-100357143D02*
X150469404Y-100380952D01*
X150469404Y-100380952D02*
X150517023Y-100404762D01*
X150517023Y-100404762D02*
X150636071Y-100404762D01*
X150636071Y-100404762D02*
X150683690Y-100380952D01*
X150683690Y-100380952D02*
X150707500Y-100357143D01*
X150707500Y-100357143D02*
X150731309Y-100309524D01*
X150731309Y-100309524D02*
X150731309Y-100166667D01*
X150731309Y-100166667D02*
X150707500Y-100119048D01*
X150707500Y-100119048D02*
X150683690Y-100095238D01*
%TO.C,J4*%
X145738094Y-108031309D02*
X145738094Y-108436071D01*
X145738094Y-108436071D02*
X145714284Y-108483690D01*
X145714284Y-108483690D02*
X145690475Y-108507500D01*
X145690475Y-108507500D02*
X145642856Y-108531309D01*
X145642856Y-108531309D02*
X145547618Y-108531309D01*
X145547618Y-108531309D02*
X145499999Y-108507500D01*
X145499999Y-108507500D02*
X145476189Y-108483690D01*
X145476189Y-108483690D02*
X145452380Y-108436071D01*
X145452380Y-108436071D02*
X145452380Y-108031309D01*
X145214284Y-108531309D02*
X145214284Y-108031309D01*
X145214284Y-108031309D02*
X145047617Y-108388452D01*
X145047617Y-108388452D02*
X144880951Y-108031309D01*
X144880951Y-108031309D02*
X144880951Y-108531309D01*
X144357141Y-108483690D02*
X144380950Y-108507500D01*
X144380950Y-108507500D02*
X144452379Y-108531309D01*
X144452379Y-108531309D02*
X144499998Y-108531309D01*
X144499998Y-108531309D02*
X144571426Y-108507500D01*
X144571426Y-108507500D02*
X144619045Y-108459880D01*
X144619045Y-108459880D02*
X144642855Y-108412261D01*
X144642855Y-108412261D02*
X144666664Y-108317023D01*
X144666664Y-108317023D02*
X144666664Y-108245595D01*
X144666664Y-108245595D02*
X144642855Y-108150357D01*
X144642855Y-108150357D02*
X144619045Y-108102738D01*
X144619045Y-108102738D02*
X144571426Y-108055119D01*
X144571426Y-108055119D02*
X144499998Y-108031309D01*
X144499998Y-108031309D02*
X144452379Y-108031309D01*
X144452379Y-108031309D02*
X144380950Y-108055119D01*
X144380950Y-108055119D02*
X144357141Y-108078928D01*
X144261903Y-108578928D02*
X143880950Y-108578928D01*
X143619046Y-108031309D02*
X143619046Y-108388452D01*
X143619046Y-108388452D02*
X143642855Y-108459880D01*
X143642855Y-108459880D02*
X143690474Y-108507500D01*
X143690474Y-108507500D02*
X143761903Y-108531309D01*
X143761903Y-108531309D02*
X143809522Y-108531309D01*
X143404760Y-108388452D02*
X143166665Y-108388452D01*
X143452379Y-108531309D02*
X143285713Y-108031309D01*
X143285713Y-108031309D02*
X143119046Y-108531309D01*
X142666666Y-108483690D02*
X142690475Y-108507500D01*
X142690475Y-108507500D02*
X142761904Y-108531309D01*
X142761904Y-108531309D02*
X142809523Y-108531309D01*
X142809523Y-108531309D02*
X142880951Y-108507500D01*
X142880951Y-108507500D02*
X142928570Y-108459880D01*
X142928570Y-108459880D02*
X142952380Y-108412261D01*
X142952380Y-108412261D02*
X142976189Y-108317023D01*
X142976189Y-108317023D02*
X142976189Y-108245595D01*
X142976189Y-108245595D02*
X142952380Y-108150357D01*
X142952380Y-108150357D02*
X142928570Y-108102738D01*
X142928570Y-108102738D02*
X142880951Y-108055119D01*
X142880951Y-108055119D02*
X142809523Y-108031309D01*
X142809523Y-108031309D02*
X142761904Y-108031309D01*
X142761904Y-108031309D02*
X142690475Y-108055119D01*
X142690475Y-108055119D02*
X142666666Y-108078928D01*
X142452380Y-108531309D02*
X142452380Y-108031309D01*
X142166666Y-108531309D02*
X142380951Y-108245595D01*
X142166666Y-108031309D02*
X142452380Y-108317023D01*
X142071428Y-108578928D02*
X141690475Y-108578928D01*
X141595237Y-108507500D02*
X141523809Y-108531309D01*
X141523809Y-108531309D02*
X141404761Y-108531309D01*
X141404761Y-108531309D02*
X141357142Y-108507500D01*
X141357142Y-108507500D02*
X141333333Y-108483690D01*
X141333333Y-108483690D02*
X141309523Y-108436071D01*
X141309523Y-108436071D02*
X141309523Y-108388452D01*
X141309523Y-108388452D02*
X141333333Y-108340833D01*
X141333333Y-108340833D02*
X141357142Y-108317023D01*
X141357142Y-108317023D02*
X141404761Y-108293214D01*
X141404761Y-108293214D02*
X141499999Y-108269404D01*
X141499999Y-108269404D02*
X141547618Y-108245595D01*
X141547618Y-108245595D02*
X141571428Y-108221785D01*
X141571428Y-108221785D02*
X141595237Y-108174166D01*
X141595237Y-108174166D02*
X141595237Y-108126547D01*
X141595237Y-108126547D02*
X141571428Y-108078928D01*
X141571428Y-108078928D02*
X141547618Y-108055119D01*
X141547618Y-108055119D02*
X141499999Y-108031309D01*
X141499999Y-108031309D02*
X141380952Y-108031309D01*
X141380952Y-108031309D02*
X141309523Y-108055119D01*
X141095238Y-108531309D02*
X141095238Y-108031309D01*
X141095238Y-108031309D02*
X140928571Y-108388452D01*
X140928571Y-108388452D02*
X140761905Y-108031309D01*
X140761905Y-108031309D02*
X140761905Y-108531309D01*
X140523809Y-108531309D02*
X140523809Y-108031309D01*
X140523809Y-108031309D02*
X140404761Y-108031309D01*
X140404761Y-108031309D02*
X140333333Y-108055119D01*
X140333333Y-108055119D02*
X140285714Y-108102738D01*
X140285714Y-108102738D02*
X140261904Y-108150357D01*
X140261904Y-108150357D02*
X140238095Y-108245595D01*
X140238095Y-108245595D02*
X140238095Y-108317023D01*
X140238095Y-108317023D02*
X140261904Y-108412261D01*
X140261904Y-108412261D02*
X140285714Y-108459880D01*
X140285714Y-108459880D02*
X140333333Y-108507500D01*
X140333333Y-108507500D02*
X140404761Y-108531309D01*
X140404761Y-108531309D02*
X140523809Y-108531309D01*
%TO.C,J2*%
X167231309Y-97261905D02*
X167636071Y-97261905D01*
X167636071Y-97261905D02*
X167683690Y-97285715D01*
X167683690Y-97285715D02*
X167707500Y-97309524D01*
X167707500Y-97309524D02*
X167731309Y-97357143D01*
X167731309Y-97357143D02*
X167731309Y-97452381D01*
X167731309Y-97452381D02*
X167707500Y-97500000D01*
X167707500Y-97500000D02*
X167683690Y-97523810D01*
X167683690Y-97523810D02*
X167636071Y-97547619D01*
X167636071Y-97547619D02*
X167231309Y-97547619D01*
X167731309Y-97785715D02*
X167231309Y-97785715D01*
X167231309Y-97785715D02*
X167588452Y-97952382D01*
X167588452Y-97952382D02*
X167231309Y-98119048D01*
X167231309Y-98119048D02*
X167731309Y-98119048D01*
X167683690Y-98642858D02*
X167707500Y-98619049D01*
X167707500Y-98619049D02*
X167731309Y-98547620D01*
X167731309Y-98547620D02*
X167731309Y-98500001D01*
X167731309Y-98500001D02*
X167707500Y-98428573D01*
X167707500Y-98428573D02*
X167659880Y-98380954D01*
X167659880Y-98380954D02*
X167612261Y-98357144D01*
X167612261Y-98357144D02*
X167517023Y-98333335D01*
X167517023Y-98333335D02*
X167445595Y-98333335D01*
X167445595Y-98333335D02*
X167350357Y-98357144D01*
X167350357Y-98357144D02*
X167302738Y-98380954D01*
X167302738Y-98380954D02*
X167255119Y-98428573D01*
X167255119Y-98428573D02*
X167231309Y-98500001D01*
X167231309Y-98500001D02*
X167231309Y-98547620D01*
X167231309Y-98547620D02*
X167255119Y-98619049D01*
X167255119Y-98619049D02*
X167278928Y-98642858D01*
X167778928Y-98738097D02*
X167778928Y-99119049D01*
X167231309Y-99380953D02*
X167588452Y-99380953D01*
X167588452Y-99380953D02*
X167659880Y-99357144D01*
X167659880Y-99357144D02*
X167707500Y-99309525D01*
X167707500Y-99309525D02*
X167731309Y-99238096D01*
X167731309Y-99238096D02*
X167731309Y-99190477D01*
X167588452Y-99595239D02*
X167588452Y-99833334D01*
X167731309Y-99547620D02*
X167231309Y-99714286D01*
X167231309Y-99714286D02*
X167731309Y-99880953D01*
X167683690Y-100333333D02*
X167707500Y-100309524D01*
X167707500Y-100309524D02*
X167731309Y-100238095D01*
X167731309Y-100238095D02*
X167731309Y-100190476D01*
X167731309Y-100190476D02*
X167707500Y-100119048D01*
X167707500Y-100119048D02*
X167659880Y-100071429D01*
X167659880Y-100071429D02*
X167612261Y-100047619D01*
X167612261Y-100047619D02*
X167517023Y-100023810D01*
X167517023Y-100023810D02*
X167445595Y-100023810D01*
X167445595Y-100023810D02*
X167350357Y-100047619D01*
X167350357Y-100047619D02*
X167302738Y-100071429D01*
X167302738Y-100071429D02*
X167255119Y-100119048D01*
X167255119Y-100119048D02*
X167231309Y-100190476D01*
X167231309Y-100190476D02*
X167231309Y-100238095D01*
X167231309Y-100238095D02*
X167255119Y-100309524D01*
X167255119Y-100309524D02*
X167278928Y-100333333D01*
X167731309Y-100547619D02*
X167231309Y-100547619D01*
X167731309Y-100833333D02*
X167445595Y-100619048D01*
X167231309Y-100833333D02*
X167517023Y-100547619D01*
X167778928Y-100928572D02*
X167778928Y-101309524D01*
X167707500Y-101404762D02*
X167731309Y-101476190D01*
X167731309Y-101476190D02*
X167731309Y-101595238D01*
X167731309Y-101595238D02*
X167707500Y-101642857D01*
X167707500Y-101642857D02*
X167683690Y-101666666D01*
X167683690Y-101666666D02*
X167636071Y-101690476D01*
X167636071Y-101690476D02*
X167588452Y-101690476D01*
X167588452Y-101690476D02*
X167540833Y-101666666D01*
X167540833Y-101666666D02*
X167517023Y-101642857D01*
X167517023Y-101642857D02*
X167493214Y-101595238D01*
X167493214Y-101595238D02*
X167469404Y-101500000D01*
X167469404Y-101500000D02*
X167445595Y-101452381D01*
X167445595Y-101452381D02*
X167421785Y-101428571D01*
X167421785Y-101428571D02*
X167374166Y-101404762D01*
X167374166Y-101404762D02*
X167326547Y-101404762D01*
X167326547Y-101404762D02*
X167278928Y-101428571D01*
X167278928Y-101428571D02*
X167255119Y-101452381D01*
X167255119Y-101452381D02*
X167231309Y-101500000D01*
X167231309Y-101500000D02*
X167231309Y-101619047D01*
X167231309Y-101619047D02*
X167255119Y-101690476D01*
X167731309Y-101904761D02*
X167231309Y-101904761D01*
X167231309Y-101904761D02*
X167588452Y-102071428D01*
X167588452Y-102071428D02*
X167231309Y-102238094D01*
X167231309Y-102238094D02*
X167731309Y-102238094D01*
X167731309Y-102476190D02*
X167231309Y-102476190D01*
X167231309Y-102476190D02*
X167231309Y-102595238D01*
X167231309Y-102595238D02*
X167255119Y-102666666D01*
X167255119Y-102666666D02*
X167302738Y-102714285D01*
X167302738Y-102714285D02*
X167350357Y-102738095D01*
X167350357Y-102738095D02*
X167445595Y-102761904D01*
X167445595Y-102761904D02*
X167517023Y-102761904D01*
X167517023Y-102761904D02*
X167612261Y-102738095D01*
X167612261Y-102738095D02*
X167659880Y-102714285D01*
X167659880Y-102714285D02*
X167707500Y-102666666D01*
X167707500Y-102666666D02*
X167731309Y-102595238D01*
X167731309Y-102595238D02*
X167731309Y-102476190D01*
%TO.C,R16*%
X141647976Y-102297620D02*
X141981309Y-102297620D01*
X141457500Y-102178572D02*
X141814642Y-102059525D01*
X141814642Y-102059525D02*
X141814642Y-102369048D01*
X141981309Y-102583334D02*
X141981309Y-102678572D01*
X141981309Y-102678572D02*
X141957500Y-102726191D01*
X141957500Y-102726191D02*
X141933690Y-102750000D01*
X141933690Y-102750000D02*
X141862261Y-102797619D01*
X141862261Y-102797619D02*
X141767023Y-102821429D01*
X141767023Y-102821429D02*
X141576547Y-102821429D01*
X141576547Y-102821429D02*
X141528928Y-102797619D01*
X141528928Y-102797619D02*
X141505119Y-102773810D01*
X141505119Y-102773810D02*
X141481309Y-102726191D01*
X141481309Y-102726191D02*
X141481309Y-102630953D01*
X141481309Y-102630953D02*
X141505119Y-102583334D01*
X141505119Y-102583334D02*
X141528928Y-102559524D01*
X141528928Y-102559524D02*
X141576547Y-102535715D01*
X141576547Y-102535715D02*
X141695595Y-102535715D01*
X141695595Y-102535715D02*
X141743214Y-102559524D01*
X141743214Y-102559524D02*
X141767023Y-102583334D01*
X141767023Y-102583334D02*
X141790833Y-102630953D01*
X141790833Y-102630953D02*
X141790833Y-102726191D01*
X141790833Y-102726191D02*
X141767023Y-102773810D01*
X141767023Y-102773810D02*
X141743214Y-102797619D01*
X141743214Y-102797619D02*
X141695595Y-102821429D01*
X141933690Y-103035714D02*
X141957500Y-103059524D01*
X141957500Y-103059524D02*
X141981309Y-103035714D01*
X141981309Y-103035714D02*
X141957500Y-103011905D01*
X141957500Y-103011905D02*
X141933690Y-103035714D01*
X141933690Y-103035714D02*
X141981309Y-103035714D01*
X141981309Y-103297619D02*
X141981309Y-103392857D01*
X141981309Y-103392857D02*
X141957500Y-103440476D01*
X141957500Y-103440476D02*
X141933690Y-103464285D01*
X141933690Y-103464285D02*
X141862261Y-103511904D01*
X141862261Y-103511904D02*
X141767023Y-103535714D01*
X141767023Y-103535714D02*
X141576547Y-103535714D01*
X141576547Y-103535714D02*
X141528928Y-103511904D01*
X141528928Y-103511904D02*
X141505119Y-103488095D01*
X141505119Y-103488095D02*
X141481309Y-103440476D01*
X141481309Y-103440476D02*
X141481309Y-103345238D01*
X141481309Y-103345238D02*
X141505119Y-103297619D01*
X141505119Y-103297619D02*
X141528928Y-103273809D01*
X141528928Y-103273809D02*
X141576547Y-103250000D01*
X141576547Y-103250000D02*
X141695595Y-103250000D01*
X141695595Y-103250000D02*
X141743214Y-103273809D01*
X141743214Y-103273809D02*
X141767023Y-103297619D01*
X141767023Y-103297619D02*
X141790833Y-103345238D01*
X141790833Y-103345238D02*
X141790833Y-103440476D01*
X141790833Y-103440476D02*
X141767023Y-103488095D01*
X141767023Y-103488095D02*
X141743214Y-103511904D01*
X141743214Y-103511904D02*
X141695595Y-103535714D01*
X141981309Y-103749999D02*
X141481309Y-103749999D01*
X141790833Y-103797618D02*
X141981309Y-103940475D01*
X141647976Y-103940475D02*
X141838452Y-103749999D01*
D12*
X140667142Y-103120280D02*
X140753809Y-102996471D01*
X140815714Y-103120280D02*
X140815714Y-102860280D01*
X140815714Y-102860280D02*
X140716666Y-102860280D01*
X140716666Y-102860280D02*
X140691904Y-102872661D01*
X140691904Y-102872661D02*
X140679523Y-102885042D01*
X140679523Y-102885042D02*
X140667142Y-102909804D01*
X140667142Y-102909804D02*
X140667142Y-102946947D01*
X140667142Y-102946947D02*
X140679523Y-102971709D01*
X140679523Y-102971709D02*
X140691904Y-102984090D01*
X140691904Y-102984090D02*
X140716666Y-102996471D01*
X140716666Y-102996471D02*
X140815714Y-102996471D01*
X140419523Y-103120280D02*
X140568095Y-103120280D01*
X140493809Y-103120280D02*
X140493809Y-102860280D01*
X140493809Y-102860280D02*
X140518571Y-102897423D01*
X140518571Y-102897423D02*
X140543333Y-102922185D01*
X140543333Y-102922185D02*
X140568095Y-102934566D01*
X140196666Y-102860280D02*
X140246190Y-102860280D01*
X140246190Y-102860280D02*
X140270952Y-102872661D01*
X140270952Y-102872661D02*
X140283333Y-102885042D01*
X140283333Y-102885042D02*
X140308095Y-102922185D01*
X140308095Y-102922185D02*
X140320476Y-102971709D01*
X140320476Y-102971709D02*
X140320476Y-103070757D01*
X140320476Y-103070757D02*
X140308095Y-103095519D01*
X140308095Y-103095519D02*
X140295714Y-103107900D01*
X140295714Y-103107900D02*
X140270952Y-103120280D01*
X140270952Y-103120280D02*
X140221428Y-103120280D01*
X140221428Y-103120280D02*
X140196666Y-103107900D01*
X140196666Y-103107900D02*
X140184285Y-103095519D01*
X140184285Y-103095519D02*
X140171904Y-103070757D01*
X140171904Y-103070757D02*
X140171904Y-103008852D01*
X140171904Y-103008852D02*
X140184285Y-102984090D01*
X140184285Y-102984090D02*
X140196666Y-102971709D01*
X140196666Y-102971709D02*
X140221428Y-102959328D01*
X140221428Y-102959328D02*
X140270952Y-102959328D01*
X140270952Y-102959328D02*
X140295714Y-102971709D01*
X140295714Y-102971709D02*
X140308095Y-102984090D01*
X140308095Y-102984090D02*
X140320476Y-103008852D01*
D11*
%TO.C,R15*%
X140028928Y-105059525D02*
X140005119Y-105083334D01*
X140005119Y-105083334D02*
X139981309Y-105130953D01*
X139981309Y-105130953D02*
X139981309Y-105250001D01*
X139981309Y-105250001D02*
X140005119Y-105297620D01*
X140005119Y-105297620D02*
X140028928Y-105321429D01*
X140028928Y-105321429D02*
X140076547Y-105345239D01*
X140076547Y-105345239D02*
X140124166Y-105345239D01*
X140124166Y-105345239D02*
X140195595Y-105321429D01*
X140195595Y-105321429D02*
X140481309Y-105035715D01*
X140481309Y-105035715D02*
X140481309Y-105345239D01*
X139981309Y-105511905D02*
X139981309Y-105821429D01*
X139981309Y-105821429D02*
X140171785Y-105654762D01*
X140171785Y-105654762D02*
X140171785Y-105726191D01*
X140171785Y-105726191D02*
X140195595Y-105773810D01*
X140195595Y-105773810D02*
X140219404Y-105797619D01*
X140219404Y-105797619D02*
X140267023Y-105821429D01*
X140267023Y-105821429D02*
X140386071Y-105821429D01*
X140386071Y-105821429D02*
X140433690Y-105797619D01*
X140433690Y-105797619D02*
X140457500Y-105773810D01*
X140457500Y-105773810D02*
X140481309Y-105726191D01*
X140481309Y-105726191D02*
X140481309Y-105583334D01*
X140481309Y-105583334D02*
X140457500Y-105535715D01*
X140457500Y-105535715D02*
X140433690Y-105511905D01*
X140433690Y-106035714D02*
X140457500Y-106059524D01*
X140457500Y-106059524D02*
X140481309Y-106035714D01*
X140481309Y-106035714D02*
X140457500Y-106011905D01*
X140457500Y-106011905D02*
X140433690Y-106035714D01*
X140433690Y-106035714D02*
X140481309Y-106035714D01*
X140028928Y-106250000D02*
X140005119Y-106273809D01*
X140005119Y-106273809D02*
X139981309Y-106321428D01*
X139981309Y-106321428D02*
X139981309Y-106440476D01*
X139981309Y-106440476D02*
X140005119Y-106488095D01*
X140005119Y-106488095D02*
X140028928Y-106511904D01*
X140028928Y-106511904D02*
X140076547Y-106535714D01*
X140076547Y-106535714D02*
X140124166Y-106535714D01*
X140124166Y-106535714D02*
X140195595Y-106511904D01*
X140195595Y-106511904D02*
X140481309Y-106226190D01*
X140481309Y-106226190D02*
X140481309Y-106535714D01*
X140481309Y-106749999D02*
X139981309Y-106749999D01*
X140290833Y-106797618D02*
X140481309Y-106940475D01*
X140147976Y-106940475D02*
X140338452Y-106749999D01*
D12*
X139167142Y-106120280D02*
X139253809Y-105996471D01*
X139315714Y-106120280D02*
X139315714Y-105860280D01*
X139315714Y-105860280D02*
X139216666Y-105860280D01*
X139216666Y-105860280D02*
X139191904Y-105872661D01*
X139191904Y-105872661D02*
X139179523Y-105885042D01*
X139179523Y-105885042D02*
X139167142Y-105909804D01*
X139167142Y-105909804D02*
X139167142Y-105946947D01*
X139167142Y-105946947D02*
X139179523Y-105971709D01*
X139179523Y-105971709D02*
X139191904Y-105984090D01*
X139191904Y-105984090D02*
X139216666Y-105996471D01*
X139216666Y-105996471D02*
X139315714Y-105996471D01*
X138919523Y-106120280D02*
X139068095Y-106120280D01*
X138993809Y-106120280D02*
X138993809Y-105860280D01*
X138993809Y-105860280D02*
X139018571Y-105897423D01*
X139018571Y-105897423D02*
X139043333Y-105922185D01*
X139043333Y-105922185D02*
X139068095Y-105934566D01*
X138684285Y-105860280D02*
X138808095Y-105860280D01*
X138808095Y-105860280D02*
X138820476Y-105984090D01*
X138820476Y-105984090D02*
X138808095Y-105971709D01*
X138808095Y-105971709D02*
X138783333Y-105959328D01*
X138783333Y-105959328D02*
X138721428Y-105959328D01*
X138721428Y-105959328D02*
X138696666Y-105971709D01*
X138696666Y-105971709D02*
X138684285Y-105984090D01*
X138684285Y-105984090D02*
X138671904Y-106008852D01*
X138671904Y-106008852D02*
X138671904Y-106070757D01*
X138671904Y-106070757D02*
X138684285Y-106095519D01*
X138684285Y-106095519D02*
X138696666Y-106107900D01*
X138696666Y-106107900D02*
X138721428Y-106120280D01*
X138721428Y-106120280D02*
X138783333Y-106120280D01*
X138783333Y-106120280D02*
X138808095Y-106107900D01*
X138808095Y-106107900D02*
X138820476Y-106095519D01*
D11*
%TO.C,C9*%
X147481309Y-91678572D02*
X147481309Y-91726191D01*
X147481309Y-91726191D02*
X147505119Y-91773810D01*
X147505119Y-91773810D02*
X147528928Y-91797620D01*
X147528928Y-91797620D02*
X147576547Y-91821429D01*
X147576547Y-91821429D02*
X147671785Y-91845239D01*
X147671785Y-91845239D02*
X147790833Y-91845239D01*
X147790833Y-91845239D02*
X147886071Y-91821429D01*
X147886071Y-91821429D02*
X147933690Y-91797620D01*
X147933690Y-91797620D02*
X147957500Y-91773810D01*
X147957500Y-91773810D02*
X147981309Y-91726191D01*
X147981309Y-91726191D02*
X147981309Y-91678572D01*
X147981309Y-91678572D02*
X147957500Y-91630953D01*
X147957500Y-91630953D02*
X147933690Y-91607144D01*
X147933690Y-91607144D02*
X147886071Y-91583334D01*
X147886071Y-91583334D02*
X147790833Y-91559525D01*
X147790833Y-91559525D02*
X147671785Y-91559525D01*
X147671785Y-91559525D02*
X147576547Y-91583334D01*
X147576547Y-91583334D02*
X147528928Y-91607144D01*
X147528928Y-91607144D02*
X147505119Y-91630953D01*
X147505119Y-91630953D02*
X147481309Y-91678572D01*
X147933690Y-92059524D02*
X147957500Y-92083334D01*
X147957500Y-92083334D02*
X147981309Y-92059524D01*
X147981309Y-92059524D02*
X147957500Y-92035715D01*
X147957500Y-92035715D02*
X147933690Y-92059524D01*
X147933690Y-92059524D02*
X147981309Y-92059524D01*
X147981309Y-92559524D02*
X147981309Y-92273810D01*
X147981309Y-92416667D02*
X147481309Y-92416667D01*
X147481309Y-92416667D02*
X147552738Y-92369048D01*
X147552738Y-92369048D02*
X147600357Y-92321429D01*
X147600357Y-92321429D02*
X147624166Y-92273810D01*
X147647976Y-92988095D02*
X147981309Y-92988095D01*
X147647976Y-92773809D02*
X147909880Y-92773809D01*
X147909880Y-92773809D02*
X147957500Y-92797619D01*
X147957500Y-92797619D02*
X147981309Y-92845238D01*
X147981309Y-92845238D02*
X147981309Y-92916666D01*
X147981309Y-92916666D02*
X147957500Y-92964285D01*
X147957500Y-92964285D02*
X147933690Y-92988095D01*
X147719404Y-93392857D02*
X147719404Y-93226190D01*
X147981309Y-93226190D02*
X147481309Y-93226190D01*
X147481309Y-93226190D02*
X147481309Y-93464285D01*
D12*
X147091845Y-92458333D02*
X147103750Y-92446429D01*
X147103750Y-92446429D02*
X147115654Y-92410714D01*
X147115654Y-92410714D02*
X147115654Y-92386905D01*
X147115654Y-92386905D02*
X147103750Y-92351191D01*
X147103750Y-92351191D02*
X147079940Y-92327381D01*
X147079940Y-92327381D02*
X147056130Y-92315476D01*
X147056130Y-92315476D02*
X147008511Y-92303572D01*
X147008511Y-92303572D02*
X146972797Y-92303572D01*
X146972797Y-92303572D02*
X146925178Y-92315476D01*
X146925178Y-92315476D02*
X146901369Y-92327381D01*
X146901369Y-92327381D02*
X146877559Y-92351191D01*
X146877559Y-92351191D02*
X146865654Y-92386905D01*
X146865654Y-92386905D02*
X146865654Y-92410714D01*
X146865654Y-92410714D02*
X146877559Y-92446429D01*
X146877559Y-92446429D02*
X146889464Y-92458333D01*
X147115654Y-92577381D02*
X147115654Y-92625000D01*
X147115654Y-92625000D02*
X147103750Y-92648810D01*
X147103750Y-92648810D02*
X147091845Y-92660714D01*
X147091845Y-92660714D02*
X147056130Y-92684524D01*
X147056130Y-92684524D02*
X147008511Y-92696429D01*
X147008511Y-92696429D02*
X146913273Y-92696429D01*
X146913273Y-92696429D02*
X146889464Y-92684524D01*
X146889464Y-92684524D02*
X146877559Y-92672619D01*
X146877559Y-92672619D02*
X146865654Y-92648810D01*
X146865654Y-92648810D02*
X146865654Y-92601191D01*
X146865654Y-92601191D02*
X146877559Y-92577381D01*
X146877559Y-92577381D02*
X146889464Y-92565476D01*
X146889464Y-92565476D02*
X146913273Y-92553572D01*
X146913273Y-92553572D02*
X146972797Y-92553572D01*
X146972797Y-92553572D02*
X146996607Y-92565476D01*
X146996607Y-92565476D02*
X147008511Y-92577381D01*
X147008511Y-92577381D02*
X147020416Y-92601191D01*
X147020416Y-92601191D02*
X147020416Y-92648810D01*
X147020416Y-92648810D02*
X147008511Y-92672619D01*
X147008511Y-92672619D02*
X146996607Y-92684524D01*
X146996607Y-92684524D02*
X146972797Y-92696429D01*
D11*
%TO.C,R8*%
X144647976Y-99297620D02*
X144981309Y-99297620D01*
X144457500Y-99178572D02*
X144814642Y-99059525D01*
X144814642Y-99059525D02*
X144814642Y-99369048D01*
X144981309Y-99583334D02*
X144981309Y-99678572D01*
X144981309Y-99678572D02*
X144957500Y-99726191D01*
X144957500Y-99726191D02*
X144933690Y-99750000D01*
X144933690Y-99750000D02*
X144862261Y-99797619D01*
X144862261Y-99797619D02*
X144767023Y-99821429D01*
X144767023Y-99821429D02*
X144576547Y-99821429D01*
X144576547Y-99821429D02*
X144528928Y-99797619D01*
X144528928Y-99797619D02*
X144505119Y-99773810D01*
X144505119Y-99773810D02*
X144481309Y-99726191D01*
X144481309Y-99726191D02*
X144481309Y-99630953D01*
X144481309Y-99630953D02*
X144505119Y-99583334D01*
X144505119Y-99583334D02*
X144528928Y-99559524D01*
X144528928Y-99559524D02*
X144576547Y-99535715D01*
X144576547Y-99535715D02*
X144695595Y-99535715D01*
X144695595Y-99535715D02*
X144743214Y-99559524D01*
X144743214Y-99559524D02*
X144767023Y-99583334D01*
X144767023Y-99583334D02*
X144790833Y-99630953D01*
X144790833Y-99630953D02*
X144790833Y-99726191D01*
X144790833Y-99726191D02*
X144767023Y-99773810D01*
X144767023Y-99773810D02*
X144743214Y-99797619D01*
X144743214Y-99797619D02*
X144695595Y-99821429D01*
X144933690Y-100035714D02*
X144957500Y-100059524D01*
X144957500Y-100059524D02*
X144981309Y-100035714D01*
X144981309Y-100035714D02*
X144957500Y-100011905D01*
X144957500Y-100011905D02*
X144933690Y-100035714D01*
X144933690Y-100035714D02*
X144981309Y-100035714D01*
X144981309Y-100297619D02*
X144981309Y-100392857D01*
X144981309Y-100392857D02*
X144957500Y-100440476D01*
X144957500Y-100440476D02*
X144933690Y-100464285D01*
X144933690Y-100464285D02*
X144862261Y-100511904D01*
X144862261Y-100511904D02*
X144767023Y-100535714D01*
X144767023Y-100535714D02*
X144576547Y-100535714D01*
X144576547Y-100535714D02*
X144528928Y-100511904D01*
X144528928Y-100511904D02*
X144505119Y-100488095D01*
X144505119Y-100488095D02*
X144481309Y-100440476D01*
X144481309Y-100440476D02*
X144481309Y-100345238D01*
X144481309Y-100345238D02*
X144505119Y-100297619D01*
X144505119Y-100297619D02*
X144528928Y-100273809D01*
X144528928Y-100273809D02*
X144576547Y-100250000D01*
X144576547Y-100250000D02*
X144695595Y-100250000D01*
X144695595Y-100250000D02*
X144743214Y-100273809D01*
X144743214Y-100273809D02*
X144767023Y-100297619D01*
X144767023Y-100297619D02*
X144790833Y-100345238D01*
X144790833Y-100345238D02*
X144790833Y-100440476D01*
X144790833Y-100440476D02*
X144767023Y-100488095D01*
X144767023Y-100488095D02*
X144743214Y-100511904D01*
X144743214Y-100511904D02*
X144695595Y-100535714D01*
X144981309Y-100749999D02*
X144481309Y-100749999D01*
X144790833Y-100797618D02*
X144981309Y-100940475D01*
X144647976Y-100940475D02*
X144838452Y-100749999D01*
D12*
X144120280Y-99956667D02*
X143996471Y-99870000D01*
X144120280Y-99808095D02*
X143860280Y-99808095D01*
X143860280Y-99808095D02*
X143860280Y-99907143D01*
X143860280Y-99907143D02*
X143872661Y-99931905D01*
X143872661Y-99931905D02*
X143885042Y-99944286D01*
X143885042Y-99944286D02*
X143909804Y-99956667D01*
X143909804Y-99956667D02*
X143946947Y-99956667D01*
X143946947Y-99956667D02*
X143971709Y-99944286D01*
X143971709Y-99944286D02*
X143984090Y-99931905D01*
X143984090Y-99931905D02*
X143996471Y-99907143D01*
X143996471Y-99907143D02*
X143996471Y-99808095D01*
X143971709Y-100105238D02*
X143959328Y-100080476D01*
X143959328Y-100080476D02*
X143946947Y-100068095D01*
X143946947Y-100068095D02*
X143922185Y-100055714D01*
X143922185Y-100055714D02*
X143909804Y-100055714D01*
X143909804Y-100055714D02*
X143885042Y-100068095D01*
X143885042Y-100068095D02*
X143872661Y-100080476D01*
X143872661Y-100080476D02*
X143860280Y-100105238D01*
X143860280Y-100105238D02*
X143860280Y-100154762D01*
X143860280Y-100154762D02*
X143872661Y-100179524D01*
X143872661Y-100179524D02*
X143885042Y-100191905D01*
X143885042Y-100191905D02*
X143909804Y-100204286D01*
X143909804Y-100204286D02*
X143922185Y-100204286D01*
X143922185Y-100204286D02*
X143946947Y-100191905D01*
X143946947Y-100191905D02*
X143959328Y-100179524D01*
X143959328Y-100179524D02*
X143971709Y-100154762D01*
X143971709Y-100154762D02*
X143971709Y-100105238D01*
X143971709Y-100105238D02*
X143984090Y-100080476D01*
X143984090Y-100080476D02*
X143996471Y-100068095D01*
X143996471Y-100068095D02*
X144021233Y-100055714D01*
X144021233Y-100055714D02*
X144070757Y-100055714D01*
X144070757Y-100055714D02*
X144095519Y-100068095D01*
X144095519Y-100068095D02*
X144107900Y-100080476D01*
X144107900Y-100080476D02*
X144120280Y-100105238D01*
X144120280Y-100105238D02*
X144120280Y-100154762D01*
X144120280Y-100154762D02*
X144107900Y-100179524D01*
X144107900Y-100179524D02*
X144095519Y-100191905D01*
X144095519Y-100191905D02*
X144070757Y-100204286D01*
X144070757Y-100204286D02*
X144021233Y-100204286D01*
X144021233Y-100204286D02*
X143996471Y-100191905D01*
X143996471Y-100191905D02*
X143984090Y-100179524D01*
X143984090Y-100179524D02*
X143971709Y-100154762D01*
D11*
%TO.C,FID4*%
X134535713Y-104969404D02*
X134702380Y-104969404D01*
X134702380Y-105231309D02*
X134702380Y-104731309D01*
X134702380Y-104731309D02*
X134464285Y-104731309D01*
X134273809Y-105231309D02*
X134273809Y-104731309D01*
X134035714Y-105231309D02*
X134035714Y-104731309D01*
X134035714Y-104731309D02*
X133916666Y-104731309D01*
X133916666Y-104731309D02*
X133845238Y-104755119D01*
X133845238Y-104755119D02*
X133797619Y-104802738D01*
X133797619Y-104802738D02*
X133773809Y-104850357D01*
X133773809Y-104850357D02*
X133750000Y-104945595D01*
X133750000Y-104945595D02*
X133750000Y-105017023D01*
X133750000Y-105017023D02*
X133773809Y-105112261D01*
X133773809Y-105112261D02*
X133797619Y-105159880D01*
X133797619Y-105159880D02*
X133845238Y-105207500D01*
X133845238Y-105207500D02*
X133916666Y-105231309D01*
X133916666Y-105231309D02*
X134035714Y-105231309D01*
X133321428Y-104897976D02*
X133321428Y-105231309D01*
X133440476Y-104707500D02*
X133559523Y-105064642D01*
X133559523Y-105064642D02*
X133250000Y-105064642D01*
D12*
X134214285Y-103987761D02*
X134280951Y-103987761D01*
X134280951Y-104092523D02*
X134280951Y-103892523D01*
X134280951Y-103892523D02*
X134185713Y-103892523D01*
X134109522Y-104092523D02*
X134109522Y-103892523D01*
X134014284Y-104092523D02*
X134014284Y-103892523D01*
X134014284Y-103892523D02*
X133966665Y-103892523D01*
X133966665Y-103892523D02*
X133938094Y-103902047D01*
X133938094Y-103902047D02*
X133919046Y-103921095D01*
X133919046Y-103921095D02*
X133909523Y-103940142D01*
X133909523Y-103940142D02*
X133899999Y-103978238D01*
X133899999Y-103978238D02*
X133899999Y-104006809D01*
X133899999Y-104006809D02*
X133909523Y-104044904D01*
X133909523Y-104044904D02*
X133919046Y-104063952D01*
X133919046Y-104063952D02*
X133938094Y-104083000D01*
X133938094Y-104083000D02*
X133966665Y-104092523D01*
X133966665Y-104092523D02*
X134014284Y-104092523D01*
X133728570Y-103959190D02*
X133728570Y-104092523D01*
X133776189Y-103883000D02*
X133823808Y-104025857D01*
X133823808Y-104025857D02*
X133699999Y-104025857D01*
D11*
%TO.C,C2*%
X162897976Y-105797620D02*
X163231309Y-105797620D01*
X162707500Y-105678572D02*
X163064642Y-105559525D01*
X163064642Y-105559525D02*
X163064642Y-105869048D01*
X163183690Y-106059524D02*
X163207500Y-106083334D01*
X163207500Y-106083334D02*
X163231309Y-106059524D01*
X163231309Y-106059524D02*
X163207500Y-106035715D01*
X163207500Y-106035715D02*
X163183690Y-106059524D01*
X163183690Y-106059524D02*
X163231309Y-106059524D01*
X162731309Y-106250000D02*
X162731309Y-106583333D01*
X162731309Y-106583333D02*
X163231309Y-106369048D01*
X162897976Y-106988095D02*
X163231309Y-106988095D01*
X162897976Y-106773809D02*
X163159880Y-106773809D01*
X163159880Y-106773809D02*
X163207500Y-106797619D01*
X163207500Y-106797619D02*
X163231309Y-106845238D01*
X163231309Y-106845238D02*
X163231309Y-106916666D01*
X163231309Y-106916666D02*
X163207500Y-106964285D01*
X163207500Y-106964285D02*
X163183690Y-106988095D01*
X162969404Y-107392857D02*
X162969404Y-107226190D01*
X163231309Y-107226190D02*
X162731309Y-107226190D01*
X162731309Y-107226190D02*
X162731309Y-107464285D01*
D13*
X162146952Y-106433333D02*
X162166000Y-106414285D01*
X162166000Y-106414285D02*
X162185047Y-106357143D01*
X162185047Y-106357143D02*
X162185047Y-106319047D01*
X162185047Y-106319047D02*
X162166000Y-106261904D01*
X162166000Y-106261904D02*
X162127904Y-106223809D01*
X162127904Y-106223809D02*
X162089809Y-106204762D01*
X162089809Y-106204762D02*
X162013619Y-106185714D01*
X162013619Y-106185714D02*
X161956476Y-106185714D01*
X161956476Y-106185714D02*
X161880285Y-106204762D01*
X161880285Y-106204762D02*
X161842190Y-106223809D01*
X161842190Y-106223809D02*
X161804095Y-106261904D01*
X161804095Y-106261904D02*
X161785047Y-106319047D01*
X161785047Y-106319047D02*
X161785047Y-106357143D01*
X161785047Y-106357143D02*
X161804095Y-106414285D01*
X161804095Y-106414285D02*
X161823142Y-106433333D01*
X161823142Y-106585714D02*
X161804095Y-106604762D01*
X161804095Y-106604762D02*
X161785047Y-106642857D01*
X161785047Y-106642857D02*
X161785047Y-106738095D01*
X161785047Y-106738095D02*
X161804095Y-106776190D01*
X161804095Y-106776190D02*
X161823142Y-106795238D01*
X161823142Y-106795238D02*
X161861238Y-106814285D01*
X161861238Y-106814285D02*
X161899333Y-106814285D01*
X161899333Y-106814285D02*
X161956476Y-106795238D01*
X161956476Y-106795238D02*
X162185047Y-106566666D01*
X162185047Y-106566666D02*
X162185047Y-106814285D01*
D11*
%TO.C,Q1*%
X145940476Y-104731309D02*
X145940476Y-104231309D01*
X145940476Y-104231309D02*
X145773809Y-104588452D01*
X145773809Y-104588452D02*
X145607143Y-104231309D01*
X145607143Y-104231309D02*
X145607143Y-104731309D01*
X145273809Y-104231309D02*
X145178571Y-104231309D01*
X145178571Y-104231309D02*
X145130952Y-104255119D01*
X145130952Y-104255119D02*
X145083333Y-104302738D01*
X145083333Y-104302738D02*
X145059523Y-104397976D01*
X145059523Y-104397976D02*
X145059523Y-104564642D01*
X145059523Y-104564642D02*
X145083333Y-104659880D01*
X145083333Y-104659880D02*
X145130952Y-104707500D01*
X145130952Y-104707500D02*
X145178571Y-104731309D01*
X145178571Y-104731309D02*
X145273809Y-104731309D01*
X145273809Y-104731309D02*
X145321428Y-104707500D01*
X145321428Y-104707500D02*
X145369047Y-104659880D01*
X145369047Y-104659880D02*
X145392856Y-104564642D01*
X145392856Y-104564642D02*
X145392856Y-104397976D01*
X145392856Y-104397976D02*
X145369047Y-104302738D01*
X145369047Y-104302738D02*
X145321428Y-104255119D01*
X145321428Y-104255119D02*
X145273809Y-104231309D01*
X144869046Y-104707500D02*
X144797618Y-104731309D01*
X144797618Y-104731309D02*
X144678570Y-104731309D01*
X144678570Y-104731309D02*
X144630951Y-104707500D01*
X144630951Y-104707500D02*
X144607142Y-104683690D01*
X144607142Y-104683690D02*
X144583332Y-104636071D01*
X144583332Y-104636071D02*
X144583332Y-104588452D01*
X144583332Y-104588452D02*
X144607142Y-104540833D01*
X144607142Y-104540833D02*
X144630951Y-104517023D01*
X144630951Y-104517023D02*
X144678570Y-104493214D01*
X144678570Y-104493214D02*
X144773808Y-104469404D01*
X144773808Y-104469404D02*
X144821427Y-104445595D01*
X144821427Y-104445595D02*
X144845237Y-104421785D01*
X144845237Y-104421785D02*
X144869046Y-104374166D01*
X144869046Y-104374166D02*
X144869046Y-104326547D01*
X144869046Y-104326547D02*
X144845237Y-104278928D01*
X144845237Y-104278928D02*
X144821427Y-104255119D01*
X144821427Y-104255119D02*
X144773808Y-104231309D01*
X144773808Y-104231309D02*
X144654761Y-104231309D01*
X144654761Y-104231309D02*
X144583332Y-104255119D01*
X144202380Y-104469404D02*
X144369047Y-104469404D01*
X144369047Y-104731309D02*
X144369047Y-104231309D01*
X144369047Y-104231309D02*
X144130952Y-104231309D01*
X143940476Y-104469404D02*
X143773809Y-104469404D01*
X143702381Y-104731309D02*
X143940476Y-104731309D01*
X143940476Y-104731309D02*
X143940476Y-104231309D01*
X143940476Y-104231309D02*
X143702381Y-104231309D01*
X143559523Y-104231309D02*
X143273809Y-104231309D01*
X143416666Y-104731309D02*
X143416666Y-104231309D01*
X143107143Y-104540833D02*
X142726191Y-104540833D01*
X142488095Y-104731309D02*
X142488095Y-104231309D01*
X142488095Y-104231309D02*
X142202381Y-104731309D01*
X142202381Y-104731309D02*
X142202381Y-104231309D01*
X141964285Y-104540833D02*
X141583333Y-104540833D01*
X141059523Y-104683690D02*
X141083332Y-104707500D01*
X141083332Y-104707500D02*
X141154761Y-104731309D01*
X141154761Y-104731309D02*
X141202380Y-104731309D01*
X141202380Y-104731309D02*
X141273808Y-104707500D01*
X141273808Y-104707500D02*
X141321427Y-104659880D01*
X141321427Y-104659880D02*
X141345237Y-104612261D01*
X141345237Y-104612261D02*
X141369046Y-104517023D01*
X141369046Y-104517023D02*
X141369046Y-104445595D01*
X141369046Y-104445595D02*
X141345237Y-104350357D01*
X141345237Y-104350357D02*
X141321427Y-104302738D01*
X141321427Y-104302738D02*
X141273808Y-104255119D01*
X141273808Y-104255119D02*
X141202380Y-104231309D01*
X141202380Y-104231309D02*
X141154761Y-104231309D01*
X141154761Y-104231309D02*
X141083332Y-104255119D01*
X141083332Y-104255119D02*
X141059523Y-104278928D01*
X140845237Y-104731309D02*
X140845237Y-104231309D01*
X140845237Y-104469404D02*
X140559523Y-104469404D01*
X140559523Y-104731309D02*
X140559523Y-104231309D01*
D15*
X140278514Y-104469523D02*
X140263276Y-104439047D01*
X140263276Y-104439047D02*
X140232800Y-104408571D01*
X140232800Y-104408571D02*
X140187085Y-104362857D01*
X140187085Y-104362857D02*
X140171847Y-104332380D01*
X140171847Y-104332380D02*
X140171847Y-104301904D01*
X140248038Y-104317142D02*
X140232800Y-104286666D01*
X140232800Y-104286666D02*
X140202323Y-104256190D01*
X140202323Y-104256190D02*
X140141371Y-104240952D01*
X140141371Y-104240952D02*
X140034704Y-104240952D01*
X140034704Y-104240952D02*
X139973752Y-104256190D01*
X139973752Y-104256190D02*
X139943276Y-104286666D01*
X139943276Y-104286666D02*
X139928038Y-104317142D01*
X139928038Y-104317142D02*
X139928038Y-104378095D01*
X139928038Y-104378095D02*
X139943276Y-104408571D01*
X139943276Y-104408571D02*
X139973752Y-104439047D01*
X139973752Y-104439047D02*
X140034704Y-104454285D01*
X140034704Y-104454285D02*
X140141371Y-104454285D01*
X140141371Y-104454285D02*
X140202323Y-104439047D01*
X140202323Y-104439047D02*
X140232800Y-104408571D01*
X140232800Y-104408571D02*
X140248038Y-104378095D01*
X140248038Y-104378095D02*
X140248038Y-104317142D01*
X140248038Y-104759047D02*
X140248038Y-104576190D01*
X140248038Y-104667618D02*
X139928038Y-104667618D01*
X139928038Y-104667618D02*
X139973752Y-104637142D01*
X139973752Y-104637142D02*
X140004228Y-104606666D01*
X140004228Y-104606666D02*
X140019466Y-104576190D01*
D11*
%TO.C,C3*%
X160397976Y-105797620D02*
X160731309Y-105797620D01*
X160207500Y-105678572D02*
X160564642Y-105559525D01*
X160564642Y-105559525D02*
X160564642Y-105869048D01*
X160683690Y-106059524D02*
X160707500Y-106083334D01*
X160707500Y-106083334D02*
X160731309Y-106059524D01*
X160731309Y-106059524D02*
X160707500Y-106035715D01*
X160707500Y-106035715D02*
X160683690Y-106059524D01*
X160683690Y-106059524D02*
X160731309Y-106059524D01*
X160231309Y-106250000D02*
X160231309Y-106583333D01*
X160231309Y-106583333D02*
X160731309Y-106369048D01*
X160397976Y-106988095D02*
X160731309Y-106988095D01*
X160397976Y-106773809D02*
X160659880Y-106773809D01*
X160659880Y-106773809D02*
X160707500Y-106797619D01*
X160707500Y-106797619D02*
X160731309Y-106845238D01*
X160731309Y-106845238D02*
X160731309Y-106916666D01*
X160731309Y-106916666D02*
X160707500Y-106964285D01*
X160707500Y-106964285D02*
X160683690Y-106988095D01*
X160469404Y-107392857D02*
X160469404Y-107226190D01*
X160731309Y-107226190D02*
X160231309Y-107226190D01*
X160231309Y-107226190D02*
X160231309Y-107464285D01*
D13*
X159646952Y-106433333D02*
X159666000Y-106414285D01*
X159666000Y-106414285D02*
X159685047Y-106357143D01*
X159685047Y-106357143D02*
X159685047Y-106319047D01*
X159685047Y-106319047D02*
X159666000Y-106261904D01*
X159666000Y-106261904D02*
X159627904Y-106223809D01*
X159627904Y-106223809D02*
X159589809Y-106204762D01*
X159589809Y-106204762D02*
X159513619Y-106185714D01*
X159513619Y-106185714D02*
X159456476Y-106185714D01*
X159456476Y-106185714D02*
X159380285Y-106204762D01*
X159380285Y-106204762D02*
X159342190Y-106223809D01*
X159342190Y-106223809D02*
X159304095Y-106261904D01*
X159304095Y-106261904D02*
X159285047Y-106319047D01*
X159285047Y-106319047D02*
X159285047Y-106357143D01*
X159285047Y-106357143D02*
X159304095Y-106414285D01*
X159304095Y-106414285D02*
X159323142Y-106433333D01*
X159285047Y-106566666D02*
X159285047Y-106814285D01*
X159285047Y-106814285D02*
X159437428Y-106680952D01*
X159437428Y-106680952D02*
X159437428Y-106738095D01*
X159437428Y-106738095D02*
X159456476Y-106776190D01*
X159456476Y-106776190D02*
X159475523Y-106795238D01*
X159475523Y-106795238D02*
X159513619Y-106814285D01*
X159513619Y-106814285D02*
X159608857Y-106814285D01*
X159608857Y-106814285D02*
X159646952Y-106795238D01*
X159646952Y-106795238D02*
X159666000Y-106776190D01*
X159666000Y-106776190D02*
X159685047Y-106738095D01*
X159685047Y-106738095D02*
X159685047Y-106623809D01*
X159685047Y-106623809D02*
X159666000Y-106585714D01*
X159666000Y-106585714D02*
X159646952Y-106566666D01*
D16*
%TO.C,H2*%
X167130000Y-93000000D02*
G75*
G03*
X167130000Y-93000000I-1130000J0D01*
G01*
%TO.C,H4*%
X135130000Y-107000000D02*
G75*
G03*
X135130000Y-107000000I-1130000J0D01*
G01*
%TO.C,H3*%
X167130000Y-107000000D02*
G75*
G03*
X167130000Y-107000000I-1130000J0D01*
G01*
%TO.C,H1*%
X135130000Y-93000000D02*
G75*
G03*
X135130000Y-93000000I-1130000J0D01*
G01*
D10*
%TO.C,C7*%
X148250000Y-93000000D02*
X148750000Y-93000000D01*
X148750000Y-93000000D02*
X148750000Y-92000000D01*
X148250000Y-92000000D02*
X148250000Y-93000000D01*
X148750000Y-92000000D02*
X148250000Y-92000000D01*
%TO.C,C13*%
X137200000Y-107100000D02*
X137200000Y-107900000D01*
X137200000Y-107900000D02*
X138800000Y-107900000D01*
X138800000Y-107100000D02*
X137200000Y-107100000D01*
X138800000Y-107900000D02*
X138800000Y-107100000D01*
%TO.C,R3*%
X150730000Y-93025000D02*
X151270000Y-93025000D01*
X151270000Y-93025000D02*
X151270000Y-91975000D01*
X150730000Y-91975000D02*
X150730000Y-93025000D01*
X151270000Y-91975000D02*
X150730000Y-91975000D01*
%TO.C,C4*%
X160100000Y-94300000D02*
X160900000Y-94300000D01*
X160900000Y-94300000D02*
X160900000Y-92700000D01*
X160100000Y-92700000D02*
X160100000Y-94300000D01*
X160900000Y-92700000D02*
X160100000Y-92700000D01*
%TO.C,C5*%
X156600000Y-107300000D02*
X157400000Y-107300000D01*
X157400000Y-107300000D02*
X157400000Y-105700000D01*
X156600000Y-105700000D02*
X156600000Y-107300000D01*
X157400000Y-105700000D02*
X156600000Y-105700000D01*
%TO.C,C1*%
X157600000Y-94300000D02*
X158400000Y-94300000D01*
X158400000Y-94300000D02*
X158400000Y-92700000D01*
X157600000Y-92700000D02*
X157600000Y-94300000D01*
X158400000Y-92700000D02*
X157600000Y-92700000D01*
%TO.C,R6*%
X152730000Y-93025000D02*
X153270000Y-93025000D01*
X153270000Y-93025000D02*
X153270000Y-91975000D01*
X152730000Y-91975000D02*
X152730000Y-93025000D01*
X153270000Y-91975000D02*
X152730000Y-91975000D01*
%TO.C,R4*%
X151975000Y-106730000D02*
X151975000Y-107270000D01*
X151975000Y-107270000D02*
X153025000Y-107270000D01*
X153025000Y-106730000D02*
X151975000Y-106730000D01*
X153025000Y-107270000D02*
X153025000Y-106730000D01*
%TO.C,FID2*%
X163500000Y-93000000D02*
G75*
G03*
X163500000Y-93000000I-500000J0D01*
G01*
D17*
%TO.C,U6*%
X136000000Y-103000000D02*
X136000000Y-104500000D01*
X136000000Y-104500000D02*
X136500000Y-105000000D01*
X136500000Y-105000000D02*
X138000000Y-105000000D01*
X138000000Y-103000000D02*
X136000000Y-103000000D01*
X138000000Y-105000000D02*
X138000000Y-103000000D01*
D16*
%TO.C,J3*%
X144300000Y-92200000D02*
X144300000Y-94800000D01*
X142200000Y-92200000D02*
X144300000Y-92200000D01*
X141700000Y-92700000D02*
X142200000Y-92200000D01*
X141700000Y-92700000D02*
X141700000Y-94300000D01*
X141700000Y-94300000D02*
X142200000Y-94800000D01*
X142200000Y-94800000D02*
X144300000Y-94800000D01*
D18*
X143176775Y-93500000D02*
G75*
G03*
X143176775Y-93500000I-176775J0D01*
G01*
X144000000Y-93500000D02*
G75*
G03*
X144000000Y-93500000I-1000000J0D01*
G01*
D10*
%TO.C,R17*%
X143525000Y-103270000D02*
X143525000Y-102730000D01*
X143525000Y-102730000D02*
X142475000Y-102730000D01*
X142475000Y-103270000D02*
X143525000Y-103270000D01*
X142475000Y-102730000D02*
X142475000Y-103270000D01*
D19*
%TO.C,D2*%
X136425000Y-101300000D02*
X138325000Y-101300000D01*
X136425000Y-98700000D02*
X138325000Y-98700000D01*
X130225000Y-102400000D02*
X132825000Y-102400000D01*
X132825000Y-102400000D02*
X132825000Y-97600000D01*
X132825000Y-97600000D02*
X130225000Y-97600000D01*
X130225000Y-97600000D02*
X130225000Y-102400000D01*
X136425000Y-102400000D02*
X132825000Y-102400000D01*
X132825000Y-102400000D02*
X132825000Y-97600000D01*
X132825000Y-97600000D02*
X136425000Y-97600000D01*
X136425000Y-97600000D02*
X136425000Y-102400000D01*
X132625000Y-100000000D02*
G75*
G03*
X132625000Y-100000000I-2400000J0D01*
G01*
D20*
%TO.C,JP1*%
X148900000Y-107800000D02*
X148900000Y-107200000D01*
X148200000Y-106500000D02*
X146800000Y-106500000D01*
D10*
X147500000Y-106500000D02*
X147500000Y-108500000D01*
D20*
X146800000Y-108500000D02*
X148200000Y-108500000D01*
X146100000Y-107200000D02*
X146100000Y-107800000D01*
X148200000Y-108500000D02*
G75*
G03*
X148900000Y-107800000I-3J700003D01*
G01*
X148900000Y-107200000D02*
G75*
G03*
X148200000Y-106500000I-700003J-3D01*
G01*
X146100000Y-107800000D02*
G75*
G03*
X146800000Y-108500000I700000J0D01*
G01*
X146800000Y-106500000D02*
G75*
G03*
X146100000Y-107200000I0J-700000D01*
G01*
D18*
%TO.C,U1*%
X156450000Y-101550000D02*
X156450000Y-98450000D01*
X159550000Y-101550000D02*
X156450000Y-101550000D01*
X159550000Y-101550000D02*
X159550000Y-98450000D01*
X159550000Y-98450000D02*
X156450000Y-98450000D01*
D21*
X159545000Y-102000000D02*
G75*
G03*
X159545000Y-102000000I-100000J0D01*
G01*
D10*
%TO.C,U3*%
X145350000Y-103750000D02*
X154650000Y-103750000D01*
X154650000Y-103750000D02*
X155650000Y-102750000D01*
X155650000Y-102750000D02*
X155650000Y-96250000D01*
X145350000Y-96250000D02*
X145350000Y-103750000D01*
X155650000Y-96250000D02*
X145350000Y-96250000D01*
D16*
X156150000Y-104750000D02*
G75*
G03*
X156150000Y-104750000I-150000J0D01*
G01*
%TO.C,J4*%
X144300000Y-105200000D02*
X144300000Y-107800000D01*
X142200000Y-105200000D02*
X144300000Y-105200000D01*
X141700000Y-105700000D02*
X142200000Y-105200000D01*
X141700000Y-105700000D02*
X141700000Y-107300000D01*
X141700000Y-107300000D02*
X142200000Y-107800000D01*
X142200000Y-107800000D02*
X144300000Y-107800000D01*
D18*
X143176775Y-106500000D02*
G75*
G03*
X143176775Y-106500000I-176775J0D01*
G01*
X144000000Y-106500000D02*
G75*
G03*
X144000000Y-106500000I-1000000J0D01*
G01*
D16*
%TO.C,J2*%
X166800000Y-98700000D02*
X166800000Y-101300000D01*
X164700000Y-98700000D02*
X166800000Y-98700000D01*
X164200000Y-99200000D02*
X164700000Y-98700000D01*
X164200000Y-99200000D02*
X164200000Y-100800000D01*
X164200000Y-100800000D02*
X164700000Y-101300000D01*
X164700000Y-101300000D02*
X166800000Y-101300000D01*
D18*
X165676775Y-100000000D02*
G75*
G03*
X165676775Y-100000000I-176775J0D01*
G01*
X166500000Y-100000000D02*
G75*
G03*
X166500000Y-100000000I-1000000J0D01*
G01*
D10*
%TO.C,R16*%
X139975000Y-102730000D02*
X139975000Y-103270000D01*
X139975000Y-103270000D02*
X141025000Y-103270000D01*
X141025000Y-102730000D02*
X139975000Y-102730000D01*
X141025000Y-103270000D02*
X141025000Y-102730000D01*
%TO.C,R15*%
X138475000Y-105730000D02*
X138475000Y-106270000D01*
X138475000Y-106270000D02*
X139525000Y-106270000D01*
X139525000Y-105730000D02*
X138475000Y-105730000D01*
X139525000Y-106270000D02*
X139525000Y-105730000D01*
%TO.C,C9*%
X147250000Y-92000000D02*
X146750000Y-92000000D01*
X146750000Y-92000000D02*
X146750000Y-93000000D01*
X147250000Y-93000000D02*
X147250000Y-92000000D01*
X146750000Y-93000000D02*
X147250000Y-93000000D01*
%TO.C,R8*%
X143730000Y-100525000D02*
X144270000Y-100525000D01*
X144270000Y-100525000D02*
X144270000Y-99475000D01*
X143730000Y-99475000D02*
X143730000Y-100525000D01*
X144270000Y-99475000D02*
X143730000Y-99475000D01*
%TO.C,FID4*%
X134500000Y-104000000D02*
G75*
G03*
X134500000Y-104000000I-500000J0D01*
G01*
%TO.C,C2*%
X162400000Y-105700000D02*
X161600000Y-105700000D01*
X161600000Y-105700000D02*
X161600000Y-107300000D01*
X162400000Y-107300000D02*
X162400000Y-105700000D01*
X161600000Y-107300000D02*
X162400000Y-107300000D01*
D15*
%TO.C,Q1*%
X139180000Y-105020000D02*
X139820000Y-105020000D01*
X139820000Y-105020000D02*
X139820000Y-103980000D01*
X139820000Y-103980000D02*
X139180000Y-103980000D01*
X139180000Y-103980000D02*
X139180000Y-105020000D01*
D10*
%TO.C,C3*%
X159900000Y-105700000D02*
X159100000Y-105700000D01*
X159100000Y-105700000D02*
X159100000Y-107300000D01*
X159900000Y-107300000D02*
X159900000Y-105700000D01*
X159100000Y-107300000D02*
X159900000Y-107300000D01*
%TD*%
M02*
