%TF.GenerationSoftware,KiCad,Pcbnew,7.0.1*%
%TF.CreationDate,2023-03-24T10:33:38-04:00*%
%TF.ProjectId,wingbeat_detector,77696e67-6265-4617-945f-646574656374,3.0*%
%TF.SameCoordinates,Original*%
%TF.FileFunction,Drillmap*%
%TF.FilePolarity,Positive*%
%FSLAX45Y45*%
G04 Gerber Fmt 4.5, Leading zero omitted, Abs format (unit mm)*
G04 Created by KiCad (PCBNEW 7.0.1) date 2023-03-24 10:33:38*
%MOMM*%
%LPD*%
G01*
G04 APERTURE LIST*
%ADD10C,0.100000*%
%ADD11C,0.200000*%
%ADD12C,0.040000*%
%ADD13C,0.050000*%
%ADD14C,0.226000*%
%ADD15C,0.065000*%
G04 APERTURE END LIST*
D10*
X13200000Y-9300000D02*
X13200000Y-10700000D01*
X16600000Y-10900000D02*
G75*
G03*
X16800000Y-10700000I0J200000D01*
G01*
X16800000Y-9300000D02*
G75*
G03*
X16600000Y-9100000I-200000J0D01*
G01*
X13400000Y-9100000D02*
X16600000Y-9100000D01*
X13400000Y-9100000D02*
G75*
G03*
X13200000Y-9300000I0J-200000D01*
G01*
X16800000Y-10700000D02*
X16800000Y-9300000D01*
X13400000Y-10900000D02*
X16600000Y-10900000D01*
X13200000Y-10700000D02*
G75*
G03*
X13400000Y-10900000I200000J0D01*
G01*
D11*
D12*
X13617450Y-10599159D02*
X13657450Y-10639159D01*
X13657450Y-10599159D02*
X13617450Y-10639159D01*
X13708056Y-10627550D02*
X13748056Y-10667550D01*
X13748056Y-10627550D02*
X13708056Y-10667550D01*
X13729000Y-9730020D02*
X13769000Y-9770020D01*
X13769000Y-9730020D02*
X13729000Y-9770020D01*
X13980000Y-9330000D02*
X14020000Y-9370000D01*
X14020000Y-9330000D02*
X13980000Y-9370000D01*
X14130000Y-10380000D02*
X14170000Y-10420000D01*
X14170000Y-10380000D02*
X14130000Y-10420000D01*
X14255000Y-9305000D02*
X14295000Y-9345000D01*
X14295000Y-9305000D02*
X14255000Y-9345000D01*
X14290000Y-9975750D02*
X14330000Y-10015750D01*
X14330000Y-9975750D02*
X14290000Y-10015750D01*
X14380000Y-9655000D02*
X14420000Y-9695000D01*
X14420000Y-9655000D02*
X14380000Y-9695000D01*
X14600880Y-9154460D02*
X14640880Y-9194460D01*
X14640880Y-9154460D02*
X14600880Y-9194460D01*
X14620833Y-9814167D02*
X14660833Y-9854167D01*
X14660833Y-9814167D02*
X14620833Y-9854167D01*
X14977000Y-9330000D02*
X15017000Y-9370000D01*
X15017000Y-9330000D02*
X14977000Y-9370000D01*
X14980000Y-9230000D02*
X15020000Y-9270000D01*
X15020000Y-9230000D02*
X14980000Y-9270000D01*
X15084684Y-10263634D02*
X15124684Y-10303634D01*
X15124684Y-10263634D02*
X15084684Y-10303634D01*
X15166070Y-10196500D02*
X15206070Y-10236500D01*
X15206070Y-10196500D02*
X15166070Y-10236500D01*
X15183950Y-9773270D02*
X15223950Y-9813270D01*
X15223950Y-9773270D02*
X15183950Y-9813270D01*
X15487130Y-10279410D02*
X15527130Y-10319410D01*
X15527130Y-10279410D02*
X15487130Y-10319410D01*
X15547500Y-9280000D02*
X15587500Y-9320000D01*
X15587500Y-9280000D02*
X15547500Y-9320000D01*
X15609650Y-9737440D02*
X15649650Y-9777440D01*
X15649650Y-9737440D02*
X15609650Y-9777440D01*
X15780000Y-9980000D02*
X15820000Y-10020000D01*
X15820000Y-9980000D02*
X15780000Y-10020000D01*
X15905000Y-9252500D02*
X15945000Y-9292500D01*
X15945000Y-9252500D02*
X15905000Y-9292500D01*
X16185000Y-9715000D02*
G75*
G03*
X16185000Y-9715000I-20000J0D01*
G01*
X16185000Y-9875000D02*
G75*
G03*
X16185000Y-9875000I-20000J0D01*
G01*
X16185000Y-9955000D02*
G75*
G03*
X16185000Y-9955000I-20000J0D01*
G01*
X16185000Y-10035000D02*
G75*
G03*
X16185000Y-10035000I-20000J0D01*
G01*
X16185000Y-10115000D02*
G75*
G03*
X16185000Y-10115000I-20000J0D01*
G01*
X16185000Y-10275000D02*
G75*
G03*
X16185000Y-10275000I-20000J0D01*
G01*
X16255000Y-9755000D02*
G75*
G03*
X16255000Y-9755000I-20000J0D01*
G01*
X16255000Y-9835000D02*
G75*
G03*
X16255000Y-9835000I-20000J0D01*
G01*
X16255000Y-9915000D02*
G75*
G03*
X16255000Y-9915000I-20000J0D01*
G01*
X16255000Y-10075000D02*
G75*
G03*
X16255000Y-10075000I-20000J0D01*
G01*
X16255000Y-10155000D02*
G75*
G03*
X16255000Y-10155000I-20000J0D01*
G01*
X16255000Y-10235000D02*
G75*
G03*
X16255000Y-10235000I-20000J0D01*
G01*
D13*
X16225000Y-9557000D02*
X16225000Y-9607000D01*
X16200000Y-9582000D02*
X16250000Y-9582000D01*
D11*
X16195000Y-9607000D02*
X16255000Y-9607000D01*
X16255000Y-9607000D02*
G75*
G03*
X16255000Y-9557000I0J25000D01*
G01*
X16255000Y-9557000D02*
X16195000Y-9557000D01*
X16195000Y-9557000D02*
G75*
G03*
X16195000Y-9607000I0J-25000D01*
G01*
D13*
X16225000Y-10383000D02*
X16225000Y-10433000D01*
X16200000Y-10408000D02*
X16250000Y-10408000D01*
D11*
X16195000Y-10433000D02*
X16255000Y-10433000D01*
X16255000Y-10433000D02*
G75*
G03*
X16255000Y-10383000I0J25000D01*
G01*
X16255000Y-10383000D02*
X16195000Y-10383000D01*
X16195000Y-10383000D02*
G75*
G03*
X16195000Y-10433000I0J-25000D01*
G01*
D13*
X16670000Y-9526000D02*
X16670000Y-9576000D01*
X16645000Y-9551000D02*
X16695000Y-9551000D01*
D11*
X16640000Y-9576000D02*
X16700000Y-9576000D01*
X16700000Y-9576000D02*
G75*
G03*
X16700000Y-9526000I0J25000D01*
G01*
X16700000Y-9526000D02*
X16640000Y-9526000D01*
X16640000Y-9526000D02*
G75*
G03*
X16640000Y-9576000I0J-25000D01*
G01*
D13*
X16670000Y-10424000D02*
X16670000Y-10474000D01*
X16645000Y-10449000D02*
X16695000Y-10449000D01*
D11*
X16640000Y-10474000D02*
X16700000Y-10474000D01*
X16700000Y-10474000D02*
G75*
G03*
X16700000Y-10424000I0J25000D01*
G01*
X16700000Y-10424000D02*
X16640000Y-10424000D01*
X16640000Y-10424000D02*
G75*
G03*
X16640000Y-10474000I0J-25000D01*
G01*
D14*
X13479904Y-9379904D02*
X13479904Y-9220096D01*
X13320096Y-9220096D01*
X13320096Y-9379904D01*
X13479904Y-9379904D01*
X13479904Y-10779904D02*
X13479904Y-10620096D01*
X13320096Y-10620096D01*
X13320096Y-10779904D01*
X13479904Y-10779904D01*
X16679904Y-9379904D02*
X16679904Y-9220096D01*
X16520096Y-9220096D01*
X16520096Y-9379904D01*
X16679904Y-9379904D01*
X16679904Y-10779904D02*
X16679904Y-10620096D01*
X16520096Y-10620096D01*
X16520096Y-10779904D01*
X16679904Y-10779904D01*
D15*
X16100000Y-9667500D02*
X16132500Y-9635000D01*
X16100000Y-9602500D01*
X16067500Y-9635000D01*
X16100000Y-9667500D01*
D11*
X16132500Y-9650000D02*
X16132500Y-9620000D01*
X16132500Y-9620000D02*
G75*
G03*
X16067500Y-9620000I-32500J0D01*
G01*
X16067500Y-9620000D02*
X16067500Y-9650000D01*
X16067500Y-9650000D02*
G75*
G03*
X16132500Y-9650000I32500J0D01*
G01*
D15*
X16100000Y-10387500D02*
X16132500Y-10355000D01*
X16100000Y-10322500D01*
X16067500Y-10355000D01*
X16100000Y-10387500D01*
D11*
X13442619Y-11217524D02*
X13442619Y-11017524D01*
X13442619Y-11017524D02*
X13490238Y-11017524D01*
X13490238Y-11017524D02*
X13518809Y-11027048D01*
X13518809Y-11027048D02*
X13537857Y-11046095D01*
X13537857Y-11046095D02*
X13547381Y-11065143D01*
X13547381Y-11065143D02*
X13556905Y-11103238D01*
X13556905Y-11103238D02*
X13556905Y-11131810D01*
X13556905Y-11131810D02*
X13547381Y-11169905D01*
X13547381Y-11169905D02*
X13537857Y-11188952D01*
X13537857Y-11188952D02*
X13518809Y-11208000D01*
X13518809Y-11208000D02*
X13490238Y-11217524D01*
X13490238Y-11217524D02*
X13442619Y-11217524D01*
X13642619Y-11217524D02*
X13642619Y-11084190D01*
X13642619Y-11122286D02*
X13652143Y-11103238D01*
X13652143Y-11103238D02*
X13661667Y-11093714D01*
X13661667Y-11093714D02*
X13680714Y-11084190D01*
X13680714Y-11084190D02*
X13699762Y-11084190D01*
X13766428Y-11217524D02*
X13766428Y-11084190D01*
X13766428Y-11017524D02*
X13756905Y-11027048D01*
X13756905Y-11027048D02*
X13766428Y-11036571D01*
X13766428Y-11036571D02*
X13775952Y-11027048D01*
X13775952Y-11027048D02*
X13766428Y-11017524D01*
X13766428Y-11017524D02*
X13766428Y-11036571D01*
X13890238Y-11217524D02*
X13871190Y-11208000D01*
X13871190Y-11208000D02*
X13861667Y-11188952D01*
X13861667Y-11188952D02*
X13861667Y-11017524D01*
X13995000Y-11217524D02*
X13975952Y-11208000D01*
X13975952Y-11208000D02*
X13966428Y-11188952D01*
X13966428Y-11188952D02*
X13966428Y-11017524D01*
X14223571Y-11217524D02*
X14223571Y-11017524D01*
X14223571Y-11017524D02*
X14290238Y-11160381D01*
X14290238Y-11160381D02*
X14356905Y-11017524D01*
X14356905Y-11017524D02*
X14356905Y-11217524D01*
X14537857Y-11217524D02*
X14537857Y-11112762D01*
X14537857Y-11112762D02*
X14528333Y-11093714D01*
X14528333Y-11093714D02*
X14509286Y-11084190D01*
X14509286Y-11084190D02*
X14471190Y-11084190D01*
X14471190Y-11084190D02*
X14452143Y-11093714D01*
X14537857Y-11208000D02*
X14518809Y-11217524D01*
X14518809Y-11217524D02*
X14471190Y-11217524D01*
X14471190Y-11217524D02*
X14452143Y-11208000D01*
X14452143Y-11208000D02*
X14442619Y-11188952D01*
X14442619Y-11188952D02*
X14442619Y-11169905D01*
X14442619Y-11169905D02*
X14452143Y-11150857D01*
X14452143Y-11150857D02*
X14471190Y-11141333D01*
X14471190Y-11141333D02*
X14518809Y-11141333D01*
X14518809Y-11141333D02*
X14537857Y-11131810D01*
X14633095Y-11084190D02*
X14633095Y-11284190D01*
X14633095Y-11093714D02*
X14652143Y-11084190D01*
X14652143Y-11084190D02*
X14690238Y-11084190D01*
X14690238Y-11084190D02*
X14709286Y-11093714D01*
X14709286Y-11093714D02*
X14718809Y-11103238D01*
X14718809Y-11103238D02*
X14728333Y-11122286D01*
X14728333Y-11122286D02*
X14728333Y-11179429D01*
X14728333Y-11179429D02*
X14718809Y-11198476D01*
X14718809Y-11198476D02*
X14709286Y-11208000D01*
X14709286Y-11208000D02*
X14690238Y-11217524D01*
X14690238Y-11217524D02*
X14652143Y-11217524D01*
X14652143Y-11217524D02*
X14633095Y-11208000D01*
X14814048Y-11198476D02*
X14823571Y-11208000D01*
X14823571Y-11208000D02*
X14814048Y-11217524D01*
X14814048Y-11217524D02*
X14804524Y-11208000D01*
X14804524Y-11208000D02*
X14814048Y-11198476D01*
X14814048Y-11198476D02*
X14814048Y-11217524D01*
X14814048Y-11093714D02*
X14823571Y-11103238D01*
X14823571Y-11103238D02*
X14814048Y-11112762D01*
X14814048Y-11112762D02*
X14804524Y-11103238D01*
X14804524Y-11103238D02*
X14814048Y-11093714D01*
X14814048Y-11093714D02*
X14814048Y-11112762D01*
D12*
X13155000Y-11525000D02*
X13195000Y-11565000D01*
X13195000Y-11525000D02*
X13155000Y-11565000D01*
D11*
X13480714Y-11437524D02*
X13499762Y-11437524D01*
X13499762Y-11437524D02*
X13518809Y-11447048D01*
X13518809Y-11447048D02*
X13528333Y-11456571D01*
X13528333Y-11456571D02*
X13537857Y-11475619D01*
X13537857Y-11475619D02*
X13547381Y-11513714D01*
X13547381Y-11513714D02*
X13547381Y-11561333D01*
X13547381Y-11561333D02*
X13537857Y-11599428D01*
X13537857Y-11599428D02*
X13528333Y-11618476D01*
X13528333Y-11618476D02*
X13518809Y-11628000D01*
X13518809Y-11628000D02*
X13499762Y-11637524D01*
X13499762Y-11637524D02*
X13480714Y-11637524D01*
X13480714Y-11637524D02*
X13461667Y-11628000D01*
X13461667Y-11628000D02*
X13452143Y-11618476D01*
X13452143Y-11618476D02*
X13442619Y-11599428D01*
X13442619Y-11599428D02*
X13433095Y-11561333D01*
X13433095Y-11561333D02*
X13433095Y-11513714D01*
X13433095Y-11513714D02*
X13442619Y-11475619D01*
X13442619Y-11475619D02*
X13452143Y-11456571D01*
X13452143Y-11456571D02*
X13461667Y-11447048D01*
X13461667Y-11447048D02*
X13480714Y-11437524D01*
X13633095Y-11618476D02*
X13642619Y-11628000D01*
X13642619Y-11628000D02*
X13633095Y-11637524D01*
X13633095Y-11637524D02*
X13623571Y-11628000D01*
X13623571Y-11628000D02*
X13633095Y-11618476D01*
X13633095Y-11618476D02*
X13633095Y-11637524D01*
X13814048Y-11504190D02*
X13814048Y-11637524D01*
X13766428Y-11428000D02*
X13718809Y-11570857D01*
X13718809Y-11570857D02*
X13842619Y-11570857D01*
X13956905Y-11437524D02*
X13975952Y-11437524D01*
X13975952Y-11437524D02*
X13995000Y-11447048D01*
X13995000Y-11447048D02*
X14004524Y-11456571D01*
X14004524Y-11456571D02*
X14014048Y-11475619D01*
X14014048Y-11475619D02*
X14023571Y-11513714D01*
X14023571Y-11513714D02*
X14023571Y-11561333D01*
X14023571Y-11561333D02*
X14014048Y-11599428D01*
X14014048Y-11599428D02*
X14004524Y-11618476D01*
X14004524Y-11618476D02*
X13995000Y-11628000D01*
X13995000Y-11628000D02*
X13975952Y-11637524D01*
X13975952Y-11637524D02*
X13956905Y-11637524D01*
X13956905Y-11637524D02*
X13937857Y-11628000D01*
X13937857Y-11628000D02*
X13928333Y-11618476D01*
X13928333Y-11618476D02*
X13918809Y-11599428D01*
X13918809Y-11599428D02*
X13909286Y-11561333D01*
X13909286Y-11561333D02*
X13909286Y-11513714D01*
X13909286Y-11513714D02*
X13918809Y-11475619D01*
X13918809Y-11475619D02*
X13928333Y-11456571D01*
X13928333Y-11456571D02*
X13937857Y-11447048D01*
X13937857Y-11447048D02*
X13956905Y-11437524D01*
X14147381Y-11437524D02*
X14166429Y-11437524D01*
X14166429Y-11437524D02*
X14185476Y-11447048D01*
X14185476Y-11447048D02*
X14195000Y-11456571D01*
X14195000Y-11456571D02*
X14204524Y-11475619D01*
X14204524Y-11475619D02*
X14214048Y-11513714D01*
X14214048Y-11513714D02*
X14214048Y-11561333D01*
X14214048Y-11561333D02*
X14204524Y-11599428D01*
X14204524Y-11599428D02*
X14195000Y-11618476D01*
X14195000Y-11618476D02*
X14185476Y-11628000D01*
X14185476Y-11628000D02*
X14166429Y-11637524D01*
X14166429Y-11637524D02*
X14147381Y-11637524D01*
X14147381Y-11637524D02*
X14128333Y-11628000D01*
X14128333Y-11628000D02*
X14118809Y-11618476D01*
X14118809Y-11618476D02*
X14109286Y-11599428D01*
X14109286Y-11599428D02*
X14099762Y-11561333D01*
X14099762Y-11561333D02*
X14099762Y-11513714D01*
X14099762Y-11513714D02*
X14109286Y-11475619D01*
X14109286Y-11475619D02*
X14118809Y-11456571D01*
X14118809Y-11456571D02*
X14128333Y-11447048D01*
X14128333Y-11447048D02*
X14147381Y-11437524D01*
X14299762Y-11637524D02*
X14299762Y-11504190D01*
X14299762Y-11523238D02*
X14309286Y-11513714D01*
X14309286Y-11513714D02*
X14328333Y-11504190D01*
X14328333Y-11504190D02*
X14356905Y-11504190D01*
X14356905Y-11504190D02*
X14375952Y-11513714D01*
X14375952Y-11513714D02*
X14385476Y-11532762D01*
X14385476Y-11532762D02*
X14385476Y-11637524D01*
X14385476Y-11532762D02*
X14395000Y-11513714D01*
X14395000Y-11513714D02*
X14414048Y-11504190D01*
X14414048Y-11504190D02*
X14442619Y-11504190D01*
X14442619Y-11504190D02*
X14461667Y-11513714D01*
X14461667Y-11513714D02*
X14471190Y-11532762D01*
X14471190Y-11532762D02*
X14471190Y-11637524D01*
X14566429Y-11637524D02*
X14566429Y-11504190D01*
X14566429Y-11523238D02*
X14575952Y-11513714D01*
X14575952Y-11513714D02*
X14595000Y-11504190D01*
X14595000Y-11504190D02*
X14623571Y-11504190D01*
X14623571Y-11504190D02*
X14642619Y-11513714D01*
X14642619Y-11513714D02*
X14652143Y-11532762D01*
X14652143Y-11532762D02*
X14652143Y-11637524D01*
X14652143Y-11532762D02*
X14661667Y-11513714D01*
X14661667Y-11513714D02*
X14680714Y-11504190D01*
X14680714Y-11504190D02*
X14709286Y-11504190D01*
X14709286Y-11504190D02*
X14728333Y-11513714D01*
X14728333Y-11513714D02*
X14737857Y-11532762D01*
X14737857Y-11532762D02*
X14737857Y-11637524D01*
X15128333Y-11428000D02*
X14956905Y-11685143D01*
X15385476Y-11437524D02*
X15404524Y-11437524D01*
X15404524Y-11437524D02*
X15423572Y-11447048D01*
X15423572Y-11447048D02*
X15433095Y-11456571D01*
X15433095Y-11456571D02*
X15442619Y-11475619D01*
X15442619Y-11475619D02*
X15452143Y-11513714D01*
X15452143Y-11513714D02*
X15452143Y-11561333D01*
X15452143Y-11561333D02*
X15442619Y-11599428D01*
X15442619Y-11599428D02*
X15433095Y-11618476D01*
X15433095Y-11618476D02*
X15423572Y-11628000D01*
X15423572Y-11628000D02*
X15404524Y-11637524D01*
X15404524Y-11637524D02*
X15385476Y-11637524D01*
X15385476Y-11637524D02*
X15366429Y-11628000D01*
X15366429Y-11628000D02*
X15356905Y-11618476D01*
X15356905Y-11618476D02*
X15347381Y-11599428D01*
X15347381Y-11599428D02*
X15337857Y-11561333D01*
X15337857Y-11561333D02*
X15337857Y-11513714D01*
X15337857Y-11513714D02*
X15347381Y-11475619D01*
X15347381Y-11475619D02*
X15356905Y-11456571D01*
X15356905Y-11456571D02*
X15366429Y-11447048D01*
X15366429Y-11447048D02*
X15385476Y-11437524D01*
X15537857Y-11618476D02*
X15547381Y-11628000D01*
X15547381Y-11628000D02*
X15537857Y-11637524D01*
X15537857Y-11637524D02*
X15528333Y-11628000D01*
X15528333Y-11628000D02*
X15537857Y-11618476D01*
X15537857Y-11618476D02*
X15537857Y-11637524D01*
X15671191Y-11437524D02*
X15690238Y-11437524D01*
X15690238Y-11437524D02*
X15709286Y-11447048D01*
X15709286Y-11447048D02*
X15718810Y-11456571D01*
X15718810Y-11456571D02*
X15728333Y-11475619D01*
X15728333Y-11475619D02*
X15737857Y-11513714D01*
X15737857Y-11513714D02*
X15737857Y-11561333D01*
X15737857Y-11561333D02*
X15728333Y-11599428D01*
X15728333Y-11599428D02*
X15718810Y-11618476D01*
X15718810Y-11618476D02*
X15709286Y-11628000D01*
X15709286Y-11628000D02*
X15690238Y-11637524D01*
X15690238Y-11637524D02*
X15671191Y-11637524D01*
X15671191Y-11637524D02*
X15652143Y-11628000D01*
X15652143Y-11628000D02*
X15642619Y-11618476D01*
X15642619Y-11618476D02*
X15633095Y-11599428D01*
X15633095Y-11599428D02*
X15623572Y-11561333D01*
X15623572Y-11561333D02*
X15623572Y-11513714D01*
X15623572Y-11513714D02*
X15633095Y-11475619D01*
X15633095Y-11475619D02*
X15642619Y-11456571D01*
X15642619Y-11456571D02*
X15652143Y-11447048D01*
X15652143Y-11447048D02*
X15671191Y-11437524D01*
X15928333Y-11637524D02*
X15814048Y-11637524D01*
X15871191Y-11637524D02*
X15871191Y-11437524D01*
X15871191Y-11437524D02*
X15852143Y-11466095D01*
X15852143Y-11466095D02*
X15833095Y-11485143D01*
X15833095Y-11485143D02*
X15814048Y-11494667D01*
X16109286Y-11437524D02*
X16014048Y-11437524D01*
X16014048Y-11437524D02*
X16004524Y-11532762D01*
X16004524Y-11532762D02*
X16014048Y-11523238D01*
X16014048Y-11523238D02*
X16033095Y-11513714D01*
X16033095Y-11513714D02*
X16080714Y-11513714D01*
X16080714Y-11513714D02*
X16099762Y-11523238D01*
X16099762Y-11523238D02*
X16109286Y-11532762D01*
X16109286Y-11532762D02*
X16118810Y-11551809D01*
X16118810Y-11551809D02*
X16118810Y-11599428D01*
X16118810Y-11599428D02*
X16109286Y-11618476D01*
X16109286Y-11618476D02*
X16099762Y-11628000D01*
X16099762Y-11628000D02*
X16080714Y-11637524D01*
X16080714Y-11637524D02*
X16033095Y-11637524D01*
X16033095Y-11637524D02*
X16014048Y-11628000D01*
X16014048Y-11628000D02*
X16004524Y-11618476D01*
X16185476Y-11437524D02*
X16318810Y-11437524D01*
X16318810Y-11437524D02*
X16233095Y-11637524D01*
X16385476Y-11437524D02*
X16385476Y-11475619D01*
X16461667Y-11437524D02*
X16461667Y-11475619D01*
X16756905Y-11713714D02*
X16747381Y-11704190D01*
X16747381Y-11704190D02*
X16728334Y-11675619D01*
X16728334Y-11675619D02*
X16718810Y-11656571D01*
X16718810Y-11656571D02*
X16709286Y-11628000D01*
X16709286Y-11628000D02*
X16699762Y-11580381D01*
X16699762Y-11580381D02*
X16699762Y-11542286D01*
X16699762Y-11542286D02*
X16709286Y-11494667D01*
X16709286Y-11494667D02*
X16718810Y-11466095D01*
X16718810Y-11466095D02*
X16728334Y-11447048D01*
X16728334Y-11447048D02*
X16747381Y-11418476D01*
X16747381Y-11418476D02*
X16756905Y-11408952D01*
X16823572Y-11456571D02*
X16833096Y-11447048D01*
X16833096Y-11447048D02*
X16852143Y-11437524D01*
X16852143Y-11437524D02*
X16899762Y-11437524D01*
X16899762Y-11437524D02*
X16918810Y-11447048D01*
X16918810Y-11447048D02*
X16928334Y-11456571D01*
X16928334Y-11456571D02*
X16937857Y-11475619D01*
X16937857Y-11475619D02*
X16937857Y-11494667D01*
X16937857Y-11494667D02*
X16928334Y-11523238D01*
X16928334Y-11523238D02*
X16814048Y-11637524D01*
X16814048Y-11637524D02*
X16937857Y-11637524D01*
X17061667Y-11437524D02*
X17080715Y-11437524D01*
X17080715Y-11437524D02*
X17099762Y-11447048D01*
X17099762Y-11447048D02*
X17109286Y-11456571D01*
X17109286Y-11456571D02*
X17118810Y-11475619D01*
X17118810Y-11475619D02*
X17128334Y-11513714D01*
X17128334Y-11513714D02*
X17128334Y-11561333D01*
X17128334Y-11561333D02*
X17118810Y-11599428D01*
X17118810Y-11599428D02*
X17109286Y-11618476D01*
X17109286Y-11618476D02*
X17099762Y-11628000D01*
X17099762Y-11628000D02*
X17080715Y-11637524D01*
X17080715Y-11637524D02*
X17061667Y-11637524D01*
X17061667Y-11637524D02*
X17042619Y-11628000D01*
X17042619Y-11628000D02*
X17033096Y-11618476D01*
X17033096Y-11618476D02*
X17023572Y-11599428D01*
X17023572Y-11599428D02*
X17014048Y-11561333D01*
X17014048Y-11561333D02*
X17014048Y-11513714D01*
X17014048Y-11513714D02*
X17023572Y-11475619D01*
X17023572Y-11475619D02*
X17033096Y-11456571D01*
X17033096Y-11456571D02*
X17042619Y-11447048D01*
X17042619Y-11447048D02*
X17061667Y-11437524D01*
X17366429Y-11637524D02*
X17366429Y-11437524D01*
X17452143Y-11637524D02*
X17452143Y-11532762D01*
X17452143Y-11532762D02*
X17442619Y-11513714D01*
X17442619Y-11513714D02*
X17423572Y-11504190D01*
X17423572Y-11504190D02*
X17395000Y-11504190D01*
X17395000Y-11504190D02*
X17375953Y-11513714D01*
X17375953Y-11513714D02*
X17366429Y-11523238D01*
X17575953Y-11637524D02*
X17556905Y-11628000D01*
X17556905Y-11628000D02*
X17547381Y-11618476D01*
X17547381Y-11618476D02*
X17537858Y-11599428D01*
X17537858Y-11599428D02*
X17537858Y-11542286D01*
X17537858Y-11542286D02*
X17547381Y-11523238D01*
X17547381Y-11523238D02*
X17556905Y-11513714D01*
X17556905Y-11513714D02*
X17575953Y-11504190D01*
X17575953Y-11504190D02*
X17604524Y-11504190D01*
X17604524Y-11504190D02*
X17623572Y-11513714D01*
X17623572Y-11513714D02*
X17633096Y-11523238D01*
X17633096Y-11523238D02*
X17642619Y-11542286D01*
X17642619Y-11542286D02*
X17642619Y-11599428D01*
X17642619Y-11599428D02*
X17633096Y-11618476D01*
X17633096Y-11618476D02*
X17623572Y-11628000D01*
X17623572Y-11628000D02*
X17604524Y-11637524D01*
X17604524Y-11637524D02*
X17575953Y-11637524D01*
X17756905Y-11637524D02*
X17737858Y-11628000D01*
X17737858Y-11628000D02*
X17728334Y-11608952D01*
X17728334Y-11608952D02*
X17728334Y-11437524D01*
X17909286Y-11628000D02*
X17890239Y-11637524D01*
X17890239Y-11637524D02*
X17852143Y-11637524D01*
X17852143Y-11637524D02*
X17833096Y-11628000D01*
X17833096Y-11628000D02*
X17823572Y-11608952D01*
X17823572Y-11608952D02*
X17823572Y-11532762D01*
X17823572Y-11532762D02*
X17833096Y-11513714D01*
X17833096Y-11513714D02*
X17852143Y-11504190D01*
X17852143Y-11504190D02*
X17890239Y-11504190D01*
X17890239Y-11504190D02*
X17909286Y-11513714D01*
X17909286Y-11513714D02*
X17918810Y-11532762D01*
X17918810Y-11532762D02*
X17918810Y-11551809D01*
X17918810Y-11551809D02*
X17823572Y-11570857D01*
X17995000Y-11628000D02*
X18014048Y-11637524D01*
X18014048Y-11637524D02*
X18052143Y-11637524D01*
X18052143Y-11637524D02*
X18071191Y-11628000D01*
X18071191Y-11628000D02*
X18080715Y-11608952D01*
X18080715Y-11608952D02*
X18080715Y-11599428D01*
X18080715Y-11599428D02*
X18071191Y-11580381D01*
X18071191Y-11580381D02*
X18052143Y-11570857D01*
X18052143Y-11570857D02*
X18023572Y-11570857D01*
X18023572Y-11570857D02*
X18004524Y-11561333D01*
X18004524Y-11561333D02*
X17995000Y-11542286D01*
X17995000Y-11542286D02*
X17995000Y-11532762D01*
X17995000Y-11532762D02*
X18004524Y-11513714D01*
X18004524Y-11513714D02*
X18023572Y-11504190D01*
X18023572Y-11504190D02*
X18052143Y-11504190D01*
X18052143Y-11504190D02*
X18071191Y-11513714D01*
X18147381Y-11713714D02*
X18156905Y-11704190D01*
X18156905Y-11704190D02*
X18175953Y-11675619D01*
X18175953Y-11675619D02*
X18185477Y-11656571D01*
X18185477Y-11656571D02*
X18195000Y-11628000D01*
X18195000Y-11628000D02*
X18204524Y-11580381D01*
X18204524Y-11580381D02*
X18204524Y-11542286D01*
X18204524Y-11542286D02*
X18195000Y-11494667D01*
X18195000Y-11494667D02*
X18185477Y-11466095D01*
X18185477Y-11466095D02*
X18175953Y-11447048D01*
X18175953Y-11447048D02*
X18156905Y-11418476D01*
X18156905Y-11418476D02*
X18147381Y-11408952D01*
D12*
X13195000Y-11809000D02*
G75*
G03*
X13195000Y-11809000I-20000J0D01*
G01*
D11*
X13480714Y-11701524D02*
X13499762Y-11701524D01*
X13499762Y-11701524D02*
X13518809Y-11711048D01*
X13518809Y-11711048D02*
X13528333Y-11720571D01*
X13528333Y-11720571D02*
X13537857Y-11739619D01*
X13537857Y-11739619D02*
X13547381Y-11777714D01*
X13547381Y-11777714D02*
X13547381Y-11825333D01*
X13547381Y-11825333D02*
X13537857Y-11863428D01*
X13537857Y-11863428D02*
X13528333Y-11882476D01*
X13528333Y-11882476D02*
X13518809Y-11892000D01*
X13518809Y-11892000D02*
X13499762Y-11901524D01*
X13499762Y-11901524D02*
X13480714Y-11901524D01*
X13480714Y-11901524D02*
X13461667Y-11892000D01*
X13461667Y-11892000D02*
X13452143Y-11882476D01*
X13452143Y-11882476D02*
X13442619Y-11863428D01*
X13442619Y-11863428D02*
X13433095Y-11825333D01*
X13433095Y-11825333D02*
X13433095Y-11777714D01*
X13433095Y-11777714D02*
X13442619Y-11739619D01*
X13442619Y-11739619D02*
X13452143Y-11720571D01*
X13452143Y-11720571D02*
X13461667Y-11711048D01*
X13461667Y-11711048D02*
X13480714Y-11701524D01*
X13633095Y-11882476D02*
X13642619Y-11892000D01*
X13642619Y-11892000D02*
X13633095Y-11901524D01*
X13633095Y-11901524D02*
X13623571Y-11892000D01*
X13623571Y-11892000D02*
X13633095Y-11882476D01*
X13633095Y-11882476D02*
X13633095Y-11901524D01*
X13814048Y-11768190D02*
X13814048Y-11901524D01*
X13766428Y-11692000D02*
X13718809Y-11834857D01*
X13718809Y-11834857D02*
X13842619Y-11834857D01*
X13956905Y-11701524D02*
X13975952Y-11701524D01*
X13975952Y-11701524D02*
X13995000Y-11711048D01*
X13995000Y-11711048D02*
X14004524Y-11720571D01*
X14004524Y-11720571D02*
X14014048Y-11739619D01*
X14014048Y-11739619D02*
X14023571Y-11777714D01*
X14023571Y-11777714D02*
X14023571Y-11825333D01*
X14023571Y-11825333D02*
X14014048Y-11863428D01*
X14014048Y-11863428D02*
X14004524Y-11882476D01*
X14004524Y-11882476D02*
X13995000Y-11892000D01*
X13995000Y-11892000D02*
X13975952Y-11901524D01*
X13975952Y-11901524D02*
X13956905Y-11901524D01*
X13956905Y-11901524D02*
X13937857Y-11892000D01*
X13937857Y-11892000D02*
X13928333Y-11882476D01*
X13928333Y-11882476D02*
X13918809Y-11863428D01*
X13918809Y-11863428D02*
X13909286Y-11825333D01*
X13909286Y-11825333D02*
X13909286Y-11777714D01*
X13909286Y-11777714D02*
X13918809Y-11739619D01*
X13918809Y-11739619D02*
X13928333Y-11720571D01*
X13928333Y-11720571D02*
X13937857Y-11711048D01*
X13937857Y-11711048D02*
X13956905Y-11701524D01*
X14147381Y-11701524D02*
X14166429Y-11701524D01*
X14166429Y-11701524D02*
X14185476Y-11711048D01*
X14185476Y-11711048D02*
X14195000Y-11720571D01*
X14195000Y-11720571D02*
X14204524Y-11739619D01*
X14204524Y-11739619D02*
X14214048Y-11777714D01*
X14214048Y-11777714D02*
X14214048Y-11825333D01*
X14214048Y-11825333D02*
X14204524Y-11863428D01*
X14204524Y-11863428D02*
X14195000Y-11882476D01*
X14195000Y-11882476D02*
X14185476Y-11892000D01*
X14185476Y-11892000D02*
X14166429Y-11901524D01*
X14166429Y-11901524D02*
X14147381Y-11901524D01*
X14147381Y-11901524D02*
X14128333Y-11892000D01*
X14128333Y-11892000D02*
X14118809Y-11882476D01*
X14118809Y-11882476D02*
X14109286Y-11863428D01*
X14109286Y-11863428D02*
X14099762Y-11825333D01*
X14099762Y-11825333D02*
X14099762Y-11777714D01*
X14099762Y-11777714D02*
X14109286Y-11739619D01*
X14109286Y-11739619D02*
X14118809Y-11720571D01*
X14118809Y-11720571D02*
X14128333Y-11711048D01*
X14128333Y-11711048D02*
X14147381Y-11701524D01*
X14299762Y-11901524D02*
X14299762Y-11768190D01*
X14299762Y-11787238D02*
X14309286Y-11777714D01*
X14309286Y-11777714D02*
X14328333Y-11768190D01*
X14328333Y-11768190D02*
X14356905Y-11768190D01*
X14356905Y-11768190D02*
X14375952Y-11777714D01*
X14375952Y-11777714D02*
X14385476Y-11796762D01*
X14385476Y-11796762D02*
X14385476Y-11901524D01*
X14385476Y-11796762D02*
X14395000Y-11777714D01*
X14395000Y-11777714D02*
X14414048Y-11768190D01*
X14414048Y-11768190D02*
X14442619Y-11768190D01*
X14442619Y-11768190D02*
X14461667Y-11777714D01*
X14461667Y-11777714D02*
X14471190Y-11796762D01*
X14471190Y-11796762D02*
X14471190Y-11901524D01*
X14566429Y-11901524D02*
X14566429Y-11768190D01*
X14566429Y-11787238D02*
X14575952Y-11777714D01*
X14575952Y-11777714D02*
X14595000Y-11768190D01*
X14595000Y-11768190D02*
X14623571Y-11768190D01*
X14623571Y-11768190D02*
X14642619Y-11777714D01*
X14642619Y-11777714D02*
X14652143Y-11796762D01*
X14652143Y-11796762D02*
X14652143Y-11901524D01*
X14652143Y-11796762D02*
X14661667Y-11777714D01*
X14661667Y-11777714D02*
X14680714Y-11768190D01*
X14680714Y-11768190D02*
X14709286Y-11768190D01*
X14709286Y-11768190D02*
X14728333Y-11777714D01*
X14728333Y-11777714D02*
X14737857Y-11796762D01*
X14737857Y-11796762D02*
X14737857Y-11901524D01*
X15128333Y-11692000D02*
X14956905Y-11949143D01*
X15385476Y-11701524D02*
X15404524Y-11701524D01*
X15404524Y-11701524D02*
X15423572Y-11711048D01*
X15423572Y-11711048D02*
X15433095Y-11720571D01*
X15433095Y-11720571D02*
X15442619Y-11739619D01*
X15442619Y-11739619D02*
X15452143Y-11777714D01*
X15452143Y-11777714D02*
X15452143Y-11825333D01*
X15452143Y-11825333D02*
X15442619Y-11863428D01*
X15442619Y-11863428D02*
X15433095Y-11882476D01*
X15433095Y-11882476D02*
X15423572Y-11892000D01*
X15423572Y-11892000D02*
X15404524Y-11901524D01*
X15404524Y-11901524D02*
X15385476Y-11901524D01*
X15385476Y-11901524D02*
X15366429Y-11892000D01*
X15366429Y-11892000D02*
X15356905Y-11882476D01*
X15356905Y-11882476D02*
X15347381Y-11863428D01*
X15347381Y-11863428D02*
X15337857Y-11825333D01*
X15337857Y-11825333D02*
X15337857Y-11777714D01*
X15337857Y-11777714D02*
X15347381Y-11739619D01*
X15347381Y-11739619D02*
X15356905Y-11720571D01*
X15356905Y-11720571D02*
X15366429Y-11711048D01*
X15366429Y-11711048D02*
X15385476Y-11701524D01*
X15537857Y-11882476D02*
X15547381Y-11892000D01*
X15547381Y-11892000D02*
X15537857Y-11901524D01*
X15537857Y-11901524D02*
X15528333Y-11892000D01*
X15528333Y-11892000D02*
X15537857Y-11882476D01*
X15537857Y-11882476D02*
X15537857Y-11901524D01*
X15671191Y-11701524D02*
X15690238Y-11701524D01*
X15690238Y-11701524D02*
X15709286Y-11711048D01*
X15709286Y-11711048D02*
X15718810Y-11720571D01*
X15718810Y-11720571D02*
X15728333Y-11739619D01*
X15728333Y-11739619D02*
X15737857Y-11777714D01*
X15737857Y-11777714D02*
X15737857Y-11825333D01*
X15737857Y-11825333D02*
X15728333Y-11863428D01*
X15728333Y-11863428D02*
X15718810Y-11882476D01*
X15718810Y-11882476D02*
X15709286Y-11892000D01*
X15709286Y-11892000D02*
X15690238Y-11901524D01*
X15690238Y-11901524D02*
X15671191Y-11901524D01*
X15671191Y-11901524D02*
X15652143Y-11892000D01*
X15652143Y-11892000D02*
X15642619Y-11882476D01*
X15642619Y-11882476D02*
X15633095Y-11863428D01*
X15633095Y-11863428D02*
X15623572Y-11825333D01*
X15623572Y-11825333D02*
X15623572Y-11777714D01*
X15623572Y-11777714D02*
X15633095Y-11739619D01*
X15633095Y-11739619D02*
X15642619Y-11720571D01*
X15642619Y-11720571D02*
X15652143Y-11711048D01*
X15652143Y-11711048D02*
X15671191Y-11701524D01*
X15928333Y-11901524D02*
X15814048Y-11901524D01*
X15871191Y-11901524D02*
X15871191Y-11701524D01*
X15871191Y-11701524D02*
X15852143Y-11730095D01*
X15852143Y-11730095D02*
X15833095Y-11749143D01*
X15833095Y-11749143D02*
X15814048Y-11758667D01*
X16109286Y-11701524D02*
X16014048Y-11701524D01*
X16014048Y-11701524D02*
X16004524Y-11796762D01*
X16004524Y-11796762D02*
X16014048Y-11787238D01*
X16014048Y-11787238D02*
X16033095Y-11777714D01*
X16033095Y-11777714D02*
X16080714Y-11777714D01*
X16080714Y-11777714D02*
X16099762Y-11787238D01*
X16099762Y-11787238D02*
X16109286Y-11796762D01*
X16109286Y-11796762D02*
X16118810Y-11815809D01*
X16118810Y-11815809D02*
X16118810Y-11863428D01*
X16118810Y-11863428D02*
X16109286Y-11882476D01*
X16109286Y-11882476D02*
X16099762Y-11892000D01*
X16099762Y-11892000D02*
X16080714Y-11901524D01*
X16080714Y-11901524D02*
X16033095Y-11901524D01*
X16033095Y-11901524D02*
X16014048Y-11892000D01*
X16014048Y-11892000D02*
X16004524Y-11882476D01*
X16185476Y-11701524D02*
X16318810Y-11701524D01*
X16318810Y-11701524D02*
X16233095Y-11901524D01*
X16385476Y-11701524D02*
X16385476Y-11739619D01*
X16461667Y-11701524D02*
X16461667Y-11739619D01*
X16756905Y-11977714D02*
X16747381Y-11968190D01*
X16747381Y-11968190D02*
X16728334Y-11939619D01*
X16728334Y-11939619D02*
X16718810Y-11920571D01*
X16718810Y-11920571D02*
X16709286Y-11892000D01*
X16709286Y-11892000D02*
X16699762Y-11844381D01*
X16699762Y-11844381D02*
X16699762Y-11806286D01*
X16699762Y-11806286D02*
X16709286Y-11758667D01*
X16709286Y-11758667D02*
X16718810Y-11730095D01*
X16718810Y-11730095D02*
X16728334Y-11711048D01*
X16728334Y-11711048D02*
X16747381Y-11682476D01*
X16747381Y-11682476D02*
X16756905Y-11672952D01*
X16937857Y-11901524D02*
X16823572Y-11901524D01*
X16880715Y-11901524D02*
X16880715Y-11701524D01*
X16880715Y-11701524D02*
X16861667Y-11730095D01*
X16861667Y-11730095D02*
X16842619Y-11749143D01*
X16842619Y-11749143D02*
X16823572Y-11758667D01*
X17014048Y-11720571D02*
X17023572Y-11711048D01*
X17023572Y-11711048D02*
X17042619Y-11701524D01*
X17042619Y-11701524D02*
X17090238Y-11701524D01*
X17090238Y-11701524D02*
X17109286Y-11711048D01*
X17109286Y-11711048D02*
X17118810Y-11720571D01*
X17118810Y-11720571D02*
X17128334Y-11739619D01*
X17128334Y-11739619D02*
X17128334Y-11758667D01*
X17128334Y-11758667D02*
X17118810Y-11787238D01*
X17118810Y-11787238D02*
X17004524Y-11901524D01*
X17004524Y-11901524D02*
X17128334Y-11901524D01*
X17366429Y-11901524D02*
X17366429Y-11701524D01*
X17452143Y-11901524D02*
X17452143Y-11796762D01*
X17452143Y-11796762D02*
X17442619Y-11777714D01*
X17442619Y-11777714D02*
X17423572Y-11768190D01*
X17423572Y-11768190D02*
X17395000Y-11768190D01*
X17395000Y-11768190D02*
X17375953Y-11777714D01*
X17375953Y-11777714D02*
X17366429Y-11787238D01*
X17575953Y-11901524D02*
X17556905Y-11892000D01*
X17556905Y-11892000D02*
X17547381Y-11882476D01*
X17547381Y-11882476D02*
X17537858Y-11863428D01*
X17537858Y-11863428D02*
X17537858Y-11806286D01*
X17537858Y-11806286D02*
X17547381Y-11787238D01*
X17547381Y-11787238D02*
X17556905Y-11777714D01*
X17556905Y-11777714D02*
X17575953Y-11768190D01*
X17575953Y-11768190D02*
X17604524Y-11768190D01*
X17604524Y-11768190D02*
X17623572Y-11777714D01*
X17623572Y-11777714D02*
X17633096Y-11787238D01*
X17633096Y-11787238D02*
X17642619Y-11806286D01*
X17642619Y-11806286D02*
X17642619Y-11863428D01*
X17642619Y-11863428D02*
X17633096Y-11882476D01*
X17633096Y-11882476D02*
X17623572Y-11892000D01*
X17623572Y-11892000D02*
X17604524Y-11901524D01*
X17604524Y-11901524D02*
X17575953Y-11901524D01*
X17756905Y-11901524D02*
X17737858Y-11892000D01*
X17737858Y-11892000D02*
X17728334Y-11872952D01*
X17728334Y-11872952D02*
X17728334Y-11701524D01*
X17909286Y-11892000D02*
X17890239Y-11901524D01*
X17890239Y-11901524D02*
X17852143Y-11901524D01*
X17852143Y-11901524D02*
X17833096Y-11892000D01*
X17833096Y-11892000D02*
X17823572Y-11872952D01*
X17823572Y-11872952D02*
X17823572Y-11796762D01*
X17823572Y-11796762D02*
X17833096Y-11777714D01*
X17833096Y-11777714D02*
X17852143Y-11768190D01*
X17852143Y-11768190D02*
X17890239Y-11768190D01*
X17890239Y-11768190D02*
X17909286Y-11777714D01*
X17909286Y-11777714D02*
X17918810Y-11796762D01*
X17918810Y-11796762D02*
X17918810Y-11815809D01*
X17918810Y-11815809D02*
X17823572Y-11834857D01*
X17995000Y-11892000D02*
X18014048Y-11901524D01*
X18014048Y-11901524D02*
X18052143Y-11901524D01*
X18052143Y-11901524D02*
X18071191Y-11892000D01*
X18071191Y-11892000D02*
X18080715Y-11872952D01*
X18080715Y-11872952D02*
X18080715Y-11863428D01*
X18080715Y-11863428D02*
X18071191Y-11844381D01*
X18071191Y-11844381D02*
X18052143Y-11834857D01*
X18052143Y-11834857D02*
X18023572Y-11834857D01*
X18023572Y-11834857D02*
X18004524Y-11825333D01*
X18004524Y-11825333D02*
X17995000Y-11806286D01*
X17995000Y-11806286D02*
X17995000Y-11796762D01*
X17995000Y-11796762D02*
X18004524Y-11777714D01*
X18004524Y-11777714D02*
X18023572Y-11768190D01*
X18023572Y-11768190D02*
X18052143Y-11768190D01*
X18052143Y-11768190D02*
X18071191Y-11777714D01*
X18147381Y-11977714D02*
X18156905Y-11968190D01*
X18156905Y-11968190D02*
X18175953Y-11939619D01*
X18175953Y-11939619D02*
X18185477Y-11920571D01*
X18185477Y-11920571D02*
X18195000Y-11892000D01*
X18195000Y-11892000D02*
X18204524Y-11844381D01*
X18204524Y-11844381D02*
X18204524Y-11806286D01*
X18204524Y-11806286D02*
X18195000Y-11758667D01*
X18195000Y-11758667D02*
X18185477Y-11730095D01*
X18185477Y-11730095D02*
X18175953Y-11711048D01*
X18175953Y-11711048D02*
X18156905Y-11682476D01*
X18156905Y-11682476D02*
X18147381Y-11672952D01*
D13*
X13170000Y-12048000D02*
X13170000Y-12098000D01*
X13145000Y-12073000D02*
X13195000Y-12073000D01*
D11*
X13480714Y-11965524D02*
X13499762Y-11965524D01*
X13499762Y-11965524D02*
X13518809Y-11975048D01*
X13518809Y-11975048D02*
X13528333Y-11984571D01*
X13528333Y-11984571D02*
X13537857Y-12003619D01*
X13537857Y-12003619D02*
X13547381Y-12041714D01*
X13547381Y-12041714D02*
X13547381Y-12089333D01*
X13547381Y-12089333D02*
X13537857Y-12127428D01*
X13537857Y-12127428D02*
X13528333Y-12146476D01*
X13528333Y-12146476D02*
X13518809Y-12156000D01*
X13518809Y-12156000D02*
X13499762Y-12165524D01*
X13499762Y-12165524D02*
X13480714Y-12165524D01*
X13480714Y-12165524D02*
X13461667Y-12156000D01*
X13461667Y-12156000D02*
X13452143Y-12146476D01*
X13452143Y-12146476D02*
X13442619Y-12127428D01*
X13442619Y-12127428D02*
X13433095Y-12089333D01*
X13433095Y-12089333D02*
X13433095Y-12041714D01*
X13433095Y-12041714D02*
X13442619Y-12003619D01*
X13442619Y-12003619D02*
X13452143Y-11984571D01*
X13452143Y-11984571D02*
X13461667Y-11975048D01*
X13461667Y-11975048D02*
X13480714Y-11965524D01*
X13633095Y-12146476D02*
X13642619Y-12156000D01*
X13642619Y-12156000D02*
X13633095Y-12165524D01*
X13633095Y-12165524D02*
X13623571Y-12156000D01*
X13623571Y-12156000D02*
X13633095Y-12146476D01*
X13633095Y-12146476D02*
X13633095Y-12165524D01*
X13823571Y-11965524D02*
X13728333Y-11965524D01*
X13728333Y-11965524D02*
X13718809Y-12060762D01*
X13718809Y-12060762D02*
X13728333Y-12051238D01*
X13728333Y-12051238D02*
X13747381Y-12041714D01*
X13747381Y-12041714D02*
X13795000Y-12041714D01*
X13795000Y-12041714D02*
X13814048Y-12051238D01*
X13814048Y-12051238D02*
X13823571Y-12060762D01*
X13823571Y-12060762D02*
X13833095Y-12079809D01*
X13833095Y-12079809D02*
X13833095Y-12127428D01*
X13833095Y-12127428D02*
X13823571Y-12146476D01*
X13823571Y-12146476D02*
X13814048Y-12156000D01*
X13814048Y-12156000D02*
X13795000Y-12165524D01*
X13795000Y-12165524D02*
X13747381Y-12165524D01*
X13747381Y-12165524D02*
X13728333Y-12156000D01*
X13728333Y-12156000D02*
X13718809Y-12146476D01*
X13956905Y-11965524D02*
X13975952Y-11965524D01*
X13975952Y-11965524D02*
X13995000Y-11975048D01*
X13995000Y-11975048D02*
X14004524Y-11984571D01*
X14004524Y-11984571D02*
X14014048Y-12003619D01*
X14014048Y-12003619D02*
X14023571Y-12041714D01*
X14023571Y-12041714D02*
X14023571Y-12089333D01*
X14023571Y-12089333D02*
X14014048Y-12127428D01*
X14014048Y-12127428D02*
X14004524Y-12146476D01*
X14004524Y-12146476D02*
X13995000Y-12156000D01*
X13995000Y-12156000D02*
X13975952Y-12165524D01*
X13975952Y-12165524D02*
X13956905Y-12165524D01*
X13956905Y-12165524D02*
X13937857Y-12156000D01*
X13937857Y-12156000D02*
X13928333Y-12146476D01*
X13928333Y-12146476D02*
X13918809Y-12127428D01*
X13918809Y-12127428D02*
X13909286Y-12089333D01*
X13909286Y-12089333D02*
X13909286Y-12041714D01*
X13909286Y-12041714D02*
X13918809Y-12003619D01*
X13918809Y-12003619D02*
X13928333Y-11984571D01*
X13928333Y-11984571D02*
X13937857Y-11975048D01*
X13937857Y-11975048D02*
X13956905Y-11965524D01*
X14147381Y-11965524D02*
X14166429Y-11965524D01*
X14166429Y-11965524D02*
X14185476Y-11975048D01*
X14185476Y-11975048D02*
X14195000Y-11984571D01*
X14195000Y-11984571D02*
X14204524Y-12003619D01*
X14204524Y-12003619D02*
X14214048Y-12041714D01*
X14214048Y-12041714D02*
X14214048Y-12089333D01*
X14214048Y-12089333D02*
X14204524Y-12127428D01*
X14204524Y-12127428D02*
X14195000Y-12146476D01*
X14195000Y-12146476D02*
X14185476Y-12156000D01*
X14185476Y-12156000D02*
X14166429Y-12165524D01*
X14166429Y-12165524D02*
X14147381Y-12165524D01*
X14147381Y-12165524D02*
X14128333Y-12156000D01*
X14128333Y-12156000D02*
X14118809Y-12146476D01*
X14118809Y-12146476D02*
X14109286Y-12127428D01*
X14109286Y-12127428D02*
X14099762Y-12089333D01*
X14099762Y-12089333D02*
X14099762Y-12041714D01*
X14099762Y-12041714D02*
X14109286Y-12003619D01*
X14109286Y-12003619D02*
X14118809Y-11984571D01*
X14118809Y-11984571D02*
X14128333Y-11975048D01*
X14128333Y-11975048D02*
X14147381Y-11965524D01*
X14299762Y-12165524D02*
X14299762Y-12032190D01*
X14299762Y-12051238D02*
X14309286Y-12041714D01*
X14309286Y-12041714D02*
X14328333Y-12032190D01*
X14328333Y-12032190D02*
X14356905Y-12032190D01*
X14356905Y-12032190D02*
X14375952Y-12041714D01*
X14375952Y-12041714D02*
X14385476Y-12060762D01*
X14385476Y-12060762D02*
X14385476Y-12165524D01*
X14385476Y-12060762D02*
X14395000Y-12041714D01*
X14395000Y-12041714D02*
X14414048Y-12032190D01*
X14414048Y-12032190D02*
X14442619Y-12032190D01*
X14442619Y-12032190D02*
X14461667Y-12041714D01*
X14461667Y-12041714D02*
X14471190Y-12060762D01*
X14471190Y-12060762D02*
X14471190Y-12165524D01*
X14566429Y-12165524D02*
X14566429Y-12032190D01*
X14566429Y-12051238D02*
X14575952Y-12041714D01*
X14575952Y-12041714D02*
X14595000Y-12032190D01*
X14595000Y-12032190D02*
X14623571Y-12032190D01*
X14623571Y-12032190D02*
X14642619Y-12041714D01*
X14642619Y-12041714D02*
X14652143Y-12060762D01*
X14652143Y-12060762D02*
X14652143Y-12165524D01*
X14652143Y-12060762D02*
X14661667Y-12041714D01*
X14661667Y-12041714D02*
X14680714Y-12032190D01*
X14680714Y-12032190D02*
X14709286Y-12032190D01*
X14709286Y-12032190D02*
X14728333Y-12041714D01*
X14728333Y-12041714D02*
X14737857Y-12060762D01*
X14737857Y-12060762D02*
X14737857Y-12165524D01*
X15128333Y-11956000D02*
X14956905Y-12213143D01*
X15385476Y-11965524D02*
X15404524Y-11965524D01*
X15404524Y-11965524D02*
X15423572Y-11975048D01*
X15423572Y-11975048D02*
X15433095Y-11984571D01*
X15433095Y-11984571D02*
X15442619Y-12003619D01*
X15442619Y-12003619D02*
X15452143Y-12041714D01*
X15452143Y-12041714D02*
X15452143Y-12089333D01*
X15452143Y-12089333D02*
X15442619Y-12127428D01*
X15442619Y-12127428D02*
X15433095Y-12146476D01*
X15433095Y-12146476D02*
X15423572Y-12156000D01*
X15423572Y-12156000D02*
X15404524Y-12165524D01*
X15404524Y-12165524D02*
X15385476Y-12165524D01*
X15385476Y-12165524D02*
X15366429Y-12156000D01*
X15366429Y-12156000D02*
X15356905Y-12146476D01*
X15356905Y-12146476D02*
X15347381Y-12127428D01*
X15347381Y-12127428D02*
X15337857Y-12089333D01*
X15337857Y-12089333D02*
X15337857Y-12041714D01*
X15337857Y-12041714D02*
X15347381Y-12003619D01*
X15347381Y-12003619D02*
X15356905Y-11984571D01*
X15356905Y-11984571D02*
X15366429Y-11975048D01*
X15366429Y-11975048D02*
X15385476Y-11965524D01*
X15537857Y-12146476D02*
X15547381Y-12156000D01*
X15547381Y-12156000D02*
X15537857Y-12165524D01*
X15537857Y-12165524D02*
X15528333Y-12156000D01*
X15528333Y-12156000D02*
X15537857Y-12146476D01*
X15537857Y-12146476D02*
X15537857Y-12165524D01*
X15671191Y-11965524D02*
X15690238Y-11965524D01*
X15690238Y-11965524D02*
X15709286Y-11975048D01*
X15709286Y-11975048D02*
X15718810Y-11984571D01*
X15718810Y-11984571D02*
X15728333Y-12003619D01*
X15728333Y-12003619D02*
X15737857Y-12041714D01*
X15737857Y-12041714D02*
X15737857Y-12089333D01*
X15737857Y-12089333D02*
X15728333Y-12127428D01*
X15728333Y-12127428D02*
X15718810Y-12146476D01*
X15718810Y-12146476D02*
X15709286Y-12156000D01*
X15709286Y-12156000D02*
X15690238Y-12165524D01*
X15690238Y-12165524D02*
X15671191Y-12165524D01*
X15671191Y-12165524D02*
X15652143Y-12156000D01*
X15652143Y-12156000D02*
X15642619Y-12146476D01*
X15642619Y-12146476D02*
X15633095Y-12127428D01*
X15633095Y-12127428D02*
X15623572Y-12089333D01*
X15623572Y-12089333D02*
X15623572Y-12041714D01*
X15623572Y-12041714D02*
X15633095Y-12003619D01*
X15633095Y-12003619D02*
X15642619Y-11984571D01*
X15642619Y-11984571D02*
X15652143Y-11975048D01*
X15652143Y-11975048D02*
X15671191Y-11965524D01*
X15928333Y-12165524D02*
X15814048Y-12165524D01*
X15871191Y-12165524D02*
X15871191Y-11965524D01*
X15871191Y-11965524D02*
X15852143Y-11994095D01*
X15852143Y-11994095D02*
X15833095Y-12013143D01*
X15833095Y-12013143D02*
X15814048Y-12022667D01*
X16023572Y-12165524D02*
X16061667Y-12165524D01*
X16061667Y-12165524D02*
X16080714Y-12156000D01*
X16080714Y-12156000D02*
X16090238Y-12146476D01*
X16090238Y-12146476D02*
X16109286Y-12117905D01*
X16109286Y-12117905D02*
X16118810Y-12079809D01*
X16118810Y-12079809D02*
X16118810Y-12003619D01*
X16118810Y-12003619D02*
X16109286Y-11984571D01*
X16109286Y-11984571D02*
X16099762Y-11975048D01*
X16099762Y-11975048D02*
X16080714Y-11965524D01*
X16080714Y-11965524D02*
X16042619Y-11965524D01*
X16042619Y-11965524D02*
X16023572Y-11975048D01*
X16023572Y-11975048D02*
X16014048Y-11984571D01*
X16014048Y-11984571D02*
X16004524Y-12003619D01*
X16004524Y-12003619D02*
X16004524Y-12051238D01*
X16004524Y-12051238D02*
X16014048Y-12070286D01*
X16014048Y-12070286D02*
X16023572Y-12079809D01*
X16023572Y-12079809D02*
X16042619Y-12089333D01*
X16042619Y-12089333D02*
X16080714Y-12089333D01*
X16080714Y-12089333D02*
X16099762Y-12079809D01*
X16099762Y-12079809D02*
X16109286Y-12070286D01*
X16109286Y-12070286D02*
X16118810Y-12051238D01*
X16185476Y-11965524D02*
X16318810Y-11965524D01*
X16318810Y-11965524D02*
X16233095Y-12165524D01*
X16385476Y-11965524D02*
X16385476Y-12003619D01*
X16461667Y-11965524D02*
X16461667Y-12003619D01*
X16756905Y-12241714D02*
X16747381Y-12232190D01*
X16747381Y-12232190D02*
X16728334Y-12203619D01*
X16728334Y-12203619D02*
X16718810Y-12184571D01*
X16718810Y-12184571D02*
X16709286Y-12156000D01*
X16709286Y-12156000D02*
X16699762Y-12108381D01*
X16699762Y-12108381D02*
X16699762Y-12070286D01*
X16699762Y-12070286D02*
X16709286Y-12022667D01*
X16709286Y-12022667D02*
X16718810Y-11994095D01*
X16718810Y-11994095D02*
X16728334Y-11975048D01*
X16728334Y-11975048D02*
X16747381Y-11946476D01*
X16747381Y-11946476D02*
X16756905Y-11936952D01*
X16871191Y-11965524D02*
X16890238Y-11965524D01*
X16890238Y-11965524D02*
X16909286Y-11975048D01*
X16909286Y-11975048D02*
X16918810Y-11984571D01*
X16918810Y-11984571D02*
X16928334Y-12003619D01*
X16928334Y-12003619D02*
X16937857Y-12041714D01*
X16937857Y-12041714D02*
X16937857Y-12089333D01*
X16937857Y-12089333D02*
X16928334Y-12127428D01*
X16928334Y-12127428D02*
X16918810Y-12146476D01*
X16918810Y-12146476D02*
X16909286Y-12156000D01*
X16909286Y-12156000D02*
X16890238Y-12165524D01*
X16890238Y-12165524D02*
X16871191Y-12165524D01*
X16871191Y-12165524D02*
X16852143Y-12156000D01*
X16852143Y-12156000D02*
X16842619Y-12146476D01*
X16842619Y-12146476D02*
X16833096Y-12127428D01*
X16833096Y-12127428D02*
X16823572Y-12089333D01*
X16823572Y-12089333D02*
X16823572Y-12041714D01*
X16823572Y-12041714D02*
X16833096Y-12003619D01*
X16833096Y-12003619D02*
X16842619Y-11984571D01*
X16842619Y-11984571D02*
X16852143Y-11975048D01*
X16852143Y-11975048D02*
X16871191Y-11965524D01*
X17175953Y-12165524D02*
X17175953Y-11965524D01*
X17261667Y-12165524D02*
X17261667Y-12060762D01*
X17261667Y-12060762D02*
X17252143Y-12041714D01*
X17252143Y-12041714D02*
X17233096Y-12032190D01*
X17233096Y-12032190D02*
X17204524Y-12032190D01*
X17204524Y-12032190D02*
X17185477Y-12041714D01*
X17185477Y-12041714D02*
X17175953Y-12051238D01*
X17385477Y-12165524D02*
X17366429Y-12156000D01*
X17366429Y-12156000D02*
X17356905Y-12146476D01*
X17356905Y-12146476D02*
X17347381Y-12127428D01*
X17347381Y-12127428D02*
X17347381Y-12070286D01*
X17347381Y-12070286D02*
X17356905Y-12051238D01*
X17356905Y-12051238D02*
X17366429Y-12041714D01*
X17366429Y-12041714D02*
X17385477Y-12032190D01*
X17385477Y-12032190D02*
X17414048Y-12032190D01*
X17414048Y-12032190D02*
X17433096Y-12041714D01*
X17433096Y-12041714D02*
X17442619Y-12051238D01*
X17442619Y-12051238D02*
X17452143Y-12070286D01*
X17452143Y-12070286D02*
X17452143Y-12127428D01*
X17452143Y-12127428D02*
X17442619Y-12146476D01*
X17442619Y-12146476D02*
X17433096Y-12156000D01*
X17433096Y-12156000D02*
X17414048Y-12165524D01*
X17414048Y-12165524D02*
X17385477Y-12165524D01*
X17566429Y-12165524D02*
X17547381Y-12156000D01*
X17547381Y-12156000D02*
X17537858Y-12136952D01*
X17537858Y-12136952D02*
X17537858Y-11965524D01*
X17718810Y-12156000D02*
X17699762Y-12165524D01*
X17699762Y-12165524D02*
X17661667Y-12165524D01*
X17661667Y-12165524D02*
X17642619Y-12156000D01*
X17642619Y-12156000D02*
X17633096Y-12136952D01*
X17633096Y-12136952D02*
X17633096Y-12060762D01*
X17633096Y-12060762D02*
X17642619Y-12041714D01*
X17642619Y-12041714D02*
X17661667Y-12032190D01*
X17661667Y-12032190D02*
X17699762Y-12032190D01*
X17699762Y-12032190D02*
X17718810Y-12041714D01*
X17718810Y-12041714D02*
X17728334Y-12060762D01*
X17728334Y-12060762D02*
X17728334Y-12079809D01*
X17728334Y-12079809D02*
X17633096Y-12098857D01*
X17804524Y-12156000D02*
X17823572Y-12165524D01*
X17823572Y-12165524D02*
X17861667Y-12165524D01*
X17861667Y-12165524D02*
X17880715Y-12156000D01*
X17880715Y-12156000D02*
X17890239Y-12136952D01*
X17890239Y-12136952D02*
X17890239Y-12127428D01*
X17890239Y-12127428D02*
X17880715Y-12108381D01*
X17880715Y-12108381D02*
X17861667Y-12098857D01*
X17861667Y-12098857D02*
X17833096Y-12098857D01*
X17833096Y-12098857D02*
X17814048Y-12089333D01*
X17814048Y-12089333D02*
X17804524Y-12070286D01*
X17804524Y-12070286D02*
X17804524Y-12060762D01*
X17804524Y-12060762D02*
X17814048Y-12041714D01*
X17814048Y-12041714D02*
X17833096Y-12032190D01*
X17833096Y-12032190D02*
X17861667Y-12032190D01*
X17861667Y-12032190D02*
X17880715Y-12041714D01*
X18128334Y-12089333D02*
X18280715Y-12089333D01*
X18204524Y-12165524D02*
X18204524Y-12013143D01*
X18614048Y-12032190D02*
X18614048Y-12165524D01*
X18566429Y-11956000D02*
X18518810Y-12098857D01*
X18518810Y-12098857D02*
X18642620Y-12098857D01*
X18861667Y-12156000D02*
X18880715Y-12165524D01*
X18880715Y-12165524D02*
X18918810Y-12165524D01*
X18918810Y-12165524D02*
X18937858Y-12156000D01*
X18937858Y-12156000D02*
X18947382Y-12136952D01*
X18947382Y-12136952D02*
X18947382Y-12127428D01*
X18947382Y-12127428D02*
X18937858Y-12108381D01*
X18937858Y-12108381D02*
X18918810Y-12098857D01*
X18918810Y-12098857D02*
X18890239Y-12098857D01*
X18890239Y-12098857D02*
X18871191Y-12089333D01*
X18871191Y-12089333D02*
X18861667Y-12070286D01*
X18861667Y-12070286D02*
X18861667Y-12060762D01*
X18861667Y-12060762D02*
X18871191Y-12041714D01*
X18871191Y-12041714D02*
X18890239Y-12032190D01*
X18890239Y-12032190D02*
X18918810Y-12032190D01*
X18918810Y-12032190D02*
X18937858Y-12041714D01*
X19061667Y-12165524D02*
X19042620Y-12156000D01*
X19042620Y-12156000D02*
X19033096Y-12136952D01*
X19033096Y-12136952D02*
X19033096Y-11965524D01*
X19166429Y-12165524D02*
X19147382Y-12156000D01*
X19147382Y-12156000D02*
X19137858Y-12146476D01*
X19137858Y-12146476D02*
X19128334Y-12127428D01*
X19128334Y-12127428D02*
X19128334Y-12070286D01*
X19128334Y-12070286D02*
X19137858Y-12051238D01*
X19137858Y-12051238D02*
X19147382Y-12041714D01*
X19147382Y-12041714D02*
X19166429Y-12032190D01*
X19166429Y-12032190D02*
X19195001Y-12032190D01*
X19195001Y-12032190D02*
X19214048Y-12041714D01*
X19214048Y-12041714D02*
X19223572Y-12051238D01*
X19223572Y-12051238D02*
X19233096Y-12070286D01*
X19233096Y-12070286D02*
X19233096Y-12127428D01*
X19233096Y-12127428D02*
X19223572Y-12146476D01*
X19223572Y-12146476D02*
X19214048Y-12156000D01*
X19214048Y-12156000D02*
X19195001Y-12165524D01*
X19195001Y-12165524D02*
X19166429Y-12165524D01*
X19290239Y-12032190D02*
X19366429Y-12032190D01*
X19318810Y-11965524D02*
X19318810Y-12136952D01*
X19318810Y-12136952D02*
X19328334Y-12156000D01*
X19328334Y-12156000D02*
X19347382Y-12165524D01*
X19347382Y-12165524D02*
X19366429Y-12165524D01*
X19423572Y-12156000D02*
X19442620Y-12165524D01*
X19442620Y-12165524D02*
X19480715Y-12165524D01*
X19480715Y-12165524D02*
X19499763Y-12156000D01*
X19499763Y-12156000D02*
X19509286Y-12136952D01*
X19509286Y-12136952D02*
X19509286Y-12127428D01*
X19509286Y-12127428D02*
X19499763Y-12108381D01*
X19499763Y-12108381D02*
X19480715Y-12098857D01*
X19480715Y-12098857D02*
X19452143Y-12098857D01*
X19452143Y-12098857D02*
X19433096Y-12089333D01*
X19433096Y-12089333D02*
X19423572Y-12070286D01*
X19423572Y-12070286D02*
X19423572Y-12060762D01*
X19423572Y-12060762D02*
X19433096Y-12041714D01*
X19433096Y-12041714D02*
X19452143Y-12032190D01*
X19452143Y-12032190D02*
X19480715Y-12032190D01*
X19480715Y-12032190D02*
X19499763Y-12041714D01*
X19575953Y-12241714D02*
X19585477Y-12232190D01*
X19585477Y-12232190D02*
X19604524Y-12203619D01*
X19604524Y-12203619D02*
X19614048Y-12184571D01*
X19614048Y-12184571D02*
X19623572Y-12156000D01*
X19623572Y-12156000D02*
X19633096Y-12108381D01*
X19633096Y-12108381D02*
X19633096Y-12070286D01*
X19633096Y-12070286D02*
X19623572Y-12022667D01*
X19623572Y-12022667D02*
X19614048Y-11994095D01*
X19614048Y-11994095D02*
X19604524Y-11975048D01*
X19604524Y-11975048D02*
X19585477Y-11946476D01*
X19585477Y-11946476D02*
X19575953Y-11936952D01*
X13165711Y-12407711D02*
X13165711Y-12266289D01*
X13024289Y-12266289D01*
X13024289Y-12407711D01*
X13165711Y-12407711D01*
X13433095Y-12248571D02*
X13442619Y-12239048D01*
X13442619Y-12239048D02*
X13461667Y-12229524D01*
X13461667Y-12229524D02*
X13509286Y-12229524D01*
X13509286Y-12229524D02*
X13528333Y-12239048D01*
X13528333Y-12239048D02*
X13537857Y-12248571D01*
X13537857Y-12248571D02*
X13547381Y-12267619D01*
X13547381Y-12267619D02*
X13547381Y-12286667D01*
X13547381Y-12286667D02*
X13537857Y-12315238D01*
X13537857Y-12315238D02*
X13423571Y-12429524D01*
X13423571Y-12429524D02*
X13547381Y-12429524D01*
X13633095Y-12410476D02*
X13642619Y-12420000D01*
X13642619Y-12420000D02*
X13633095Y-12429524D01*
X13633095Y-12429524D02*
X13623571Y-12420000D01*
X13623571Y-12420000D02*
X13633095Y-12410476D01*
X13633095Y-12410476D02*
X13633095Y-12429524D01*
X13718809Y-12248571D02*
X13728333Y-12239048D01*
X13728333Y-12239048D02*
X13747381Y-12229524D01*
X13747381Y-12229524D02*
X13795000Y-12229524D01*
X13795000Y-12229524D02*
X13814048Y-12239048D01*
X13814048Y-12239048D02*
X13823571Y-12248571D01*
X13823571Y-12248571D02*
X13833095Y-12267619D01*
X13833095Y-12267619D02*
X13833095Y-12286667D01*
X13833095Y-12286667D02*
X13823571Y-12315238D01*
X13823571Y-12315238D02*
X13709286Y-12429524D01*
X13709286Y-12429524D02*
X13833095Y-12429524D01*
X14004524Y-12229524D02*
X13966428Y-12229524D01*
X13966428Y-12229524D02*
X13947381Y-12239048D01*
X13947381Y-12239048D02*
X13937857Y-12248571D01*
X13937857Y-12248571D02*
X13918809Y-12277143D01*
X13918809Y-12277143D02*
X13909286Y-12315238D01*
X13909286Y-12315238D02*
X13909286Y-12391428D01*
X13909286Y-12391428D02*
X13918809Y-12410476D01*
X13918809Y-12410476D02*
X13928333Y-12420000D01*
X13928333Y-12420000D02*
X13947381Y-12429524D01*
X13947381Y-12429524D02*
X13985476Y-12429524D01*
X13985476Y-12429524D02*
X14004524Y-12420000D01*
X14004524Y-12420000D02*
X14014048Y-12410476D01*
X14014048Y-12410476D02*
X14023571Y-12391428D01*
X14023571Y-12391428D02*
X14023571Y-12343809D01*
X14023571Y-12343809D02*
X14014048Y-12324762D01*
X14014048Y-12324762D02*
X14004524Y-12315238D01*
X14004524Y-12315238D02*
X13985476Y-12305714D01*
X13985476Y-12305714D02*
X13947381Y-12305714D01*
X13947381Y-12305714D02*
X13928333Y-12315238D01*
X13928333Y-12315238D02*
X13918809Y-12324762D01*
X13918809Y-12324762D02*
X13909286Y-12343809D01*
X14147381Y-12229524D02*
X14166429Y-12229524D01*
X14166429Y-12229524D02*
X14185476Y-12239048D01*
X14185476Y-12239048D02*
X14195000Y-12248571D01*
X14195000Y-12248571D02*
X14204524Y-12267619D01*
X14204524Y-12267619D02*
X14214048Y-12305714D01*
X14214048Y-12305714D02*
X14214048Y-12353333D01*
X14214048Y-12353333D02*
X14204524Y-12391428D01*
X14204524Y-12391428D02*
X14195000Y-12410476D01*
X14195000Y-12410476D02*
X14185476Y-12420000D01*
X14185476Y-12420000D02*
X14166429Y-12429524D01*
X14166429Y-12429524D02*
X14147381Y-12429524D01*
X14147381Y-12429524D02*
X14128333Y-12420000D01*
X14128333Y-12420000D02*
X14118809Y-12410476D01*
X14118809Y-12410476D02*
X14109286Y-12391428D01*
X14109286Y-12391428D02*
X14099762Y-12353333D01*
X14099762Y-12353333D02*
X14099762Y-12305714D01*
X14099762Y-12305714D02*
X14109286Y-12267619D01*
X14109286Y-12267619D02*
X14118809Y-12248571D01*
X14118809Y-12248571D02*
X14128333Y-12239048D01*
X14128333Y-12239048D02*
X14147381Y-12229524D01*
X14299762Y-12429524D02*
X14299762Y-12296190D01*
X14299762Y-12315238D02*
X14309286Y-12305714D01*
X14309286Y-12305714D02*
X14328333Y-12296190D01*
X14328333Y-12296190D02*
X14356905Y-12296190D01*
X14356905Y-12296190D02*
X14375952Y-12305714D01*
X14375952Y-12305714D02*
X14385476Y-12324762D01*
X14385476Y-12324762D02*
X14385476Y-12429524D01*
X14385476Y-12324762D02*
X14395000Y-12305714D01*
X14395000Y-12305714D02*
X14414048Y-12296190D01*
X14414048Y-12296190D02*
X14442619Y-12296190D01*
X14442619Y-12296190D02*
X14461667Y-12305714D01*
X14461667Y-12305714D02*
X14471190Y-12324762D01*
X14471190Y-12324762D02*
X14471190Y-12429524D01*
X14566429Y-12429524D02*
X14566429Y-12296190D01*
X14566429Y-12315238D02*
X14575952Y-12305714D01*
X14575952Y-12305714D02*
X14595000Y-12296190D01*
X14595000Y-12296190D02*
X14623571Y-12296190D01*
X14623571Y-12296190D02*
X14642619Y-12305714D01*
X14642619Y-12305714D02*
X14652143Y-12324762D01*
X14652143Y-12324762D02*
X14652143Y-12429524D01*
X14652143Y-12324762D02*
X14661667Y-12305714D01*
X14661667Y-12305714D02*
X14680714Y-12296190D01*
X14680714Y-12296190D02*
X14709286Y-12296190D01*
X14709286Y-12296190D02*
X14728333Y-12305714D01*
X14728333Y-12305714D02*
X14737857Y-12324762D01*
X14737857Y-12324762D02*
X14737857Y-12429524D01*
X15128333Y-12220000D02*
X14956905Y-12477143D01*
X15385476Y-12229524D02*
X15404524Y-12229524D01*
X15404524Y-12229524D02*
X15423572Y-12239048D01*
X15423572Y-12239048D02*
X15433095Y-12248571D01*
X15433095Y-12248571D02*
X15442619Y-12267619D01*
X15442619Y-12267619D02*
X15452143Y-12305714D01*
X15452143Y-12305714D02*
X15452143Y-12353333D01*
X15452143Y-12353333D02*
X15442619Y-12391428D01*
X15442619Y-12391428D02*
X15433095Y-12410476D01*
X15433095Y-12410476D02*
X15423572Y-12420000D01*
X15423572Y-12420000D02*
X15404524Y-12429524D01*
X15404524Y-12429524D02*
X15385476Y-12429524D01*
X15385476Y-12429524D02*
X15366429Y-12420000D01*
X15366429Y-12420000D02*
X15356905Y-12410476D01*
X15356905Y-12410476D02*
X15347381Y-12391428D01*
X15347381Y-12391428D02*
X15337857Y-12353333D01*
X15337857Y-12353333D02*
X15337857Y-12305714D01*
X15337857Y-12305714D02*
X15347381Y-12267619D01*
X15347381Y-12267619D02*
X15356905Y-12248571D01*
X15356905Y-12248571D02*
X15366429Y-12239048D01*
X15366429Y-12239048D02*
X15385476Y-12229524D01*
X15537857Y-12410476D02*
X15547381Y-12420000D01*
X15547381Y-12420000D02*
X15537857Y-12429524D01*
X15537857Y-12429524D02*
X15528333Y-12420000D01*
X15528333Y-12420000D02*
X15537857Y-12410476D01*
X15537857Y-12410476D02*
X15537857Y-12429524D01*
X15671191Y-12229524D02*
X15690238Y-12229524D01*
X15690238Y-12229524D02*
X15709286Y-12239048D01*
X15709286Y-12239048D02*
X15718810Y-12248571D01*
X15718810Y-12248571D02*
X15728333Y-12267619D01*
X15728333Y-12267619D02*
X15737857Y-12305714D01*
X15737857Y-12305714D02*
X15737857Y-12353333D01*
X15737857Y-12353333D02*
X15728333Y-12391428D01*
X15728333Y-12391428D02*
X15718810Y-12410476D01*
X15718810Y-12410476D02*
X15709286Y-12420000D01*
X15709286Y-12420000D02*
X15690238Y-12429524D01*
X15690238Y-12429524D02*
X15671191Y-12429524D01*
X15671191Y-12429524D02*
X15652143Y-12420000D01*
X15652143Y-12420000D02*
X15642619Y-12410476D01*
X15642619Y-12410476D02*
X15633095Y-12391428D01*
X15633095Y-12391428D02*
X15623572Y-12353333D01*
X15623572Y-12353333D02*
X15623572Y-12305714D01*
X15623572Y-12305714D02*
X15633095Y-12267619D01*
X15633095Y-12267619D02*
X15642619Y-12248571D01*
X15642619Y-12248571D02*
X15652143Y-12239048D01*
X15652143Y-12239048D02*
X15671191Y-12229524D01*
X15852143Y-12315238D02*
X15833095Y-12305714D01*
X15833095Y-12305714D02*
X15823572Y-12296190D01*
X15823572Y-12296190D02*
X15814048Y-12277143D01*
X15814048Y-12277143D02*
X15814048Y-12267619D01*
X15814048Y-12267619D02*
X15823572Y-12248571D01*
X15823572Y-12248571D02*
X15833095Y-12239048D01*
X15833095Y-12239048D02*
X15852143Y-12229524D01*
X15852143Y-12229524D02*
X15890238Y-12229524D01*
X15890238Y-12229524D02*
X15909286Y-12239048D01*
X15909286Y-12239048D02*
X15918810Y-12248571D01*
X15918810Y-12248571D02*
X15928333Y-12267619D01*
X15928333Y-12267619D02*
X15928333Y-12277143D01*
X15928333Y-12277143D02*
X15918810Y-12296190D01*
X15918810Y-12296190D02*
X15909286Y-12305714D01*
X15909286Y-12305714D02*
X15890238Y-12315238D01*
X15890238Y-12315238D02*
X15852143Y-12315238D01*
X15852143Y-12315238D02*
X15833095Y-12324762D01*
X15833095Y-12324762D02*
X15823572Y-12334286D01*
X15823572Y-12334286D02*
X15814048Y-12353333D01*
X15814048Y-12353333D02*
X15814048Y-12391428D01*
X15814048Y-12391428D02*
X15823572Y-12410476D01*
X15823572Y-12410476D02*
X15833095Y-12420000D01*
X15833095Y-12420000D02*
X15852143Y-12429524D01*
X15852143Y-12429524D02*
X15890238Y-12429524D01*
X15890238Y-12429524D02*
X15909286Y-12420000D01*
X15909286Y-12420000D02*
X15918810Y-12410476D01*
X15918810Y-12410476D02*
X15928333Y-12391428D01*
X15928333Y-12391428D02*
X15928333Y-12353333D01*
X15928333Y-12353333D02*
X15918810Y-12334286D01*
X15918810Y-12334286D02*
X15909286Y-12324762D01*
X15909286Y-12324762D02*
X15890238Y-12315238D01*
X16023572Y-12429524D02*
X16061667Y-12429524D01*
X16061667Y-12429524D02*
X16080714Y-12420000D01*
X16080714Y-12420000D02*
X16090238Y-12410476D01*
X16090238Y-12410476D02*
X16109286Y-12381905D01*
X16109286Y-12381905D02*
X16118810Y-12343809D01*
X16118810Y-12343809D02*
X16118810Y-12267619D01*
X16118810Y-12267619D02*
X16109286Y-12248571D01*
X16109286Y-12248571D02*
X16099762Y-12239048D01*
X16099762Y-12239048D02*
X16080714Y-12229524D01*
X16080714Y-12229524D02*
X16042619Y-12229524D01*
X16042619Y-12229524D02*
X16023572Y-12239048D01*
X16023572Y-12239048D02*
X16014048Y-12248571D01*
X16014048Y-12248571D02*
X16004524Y-12267619D01*
X16004524Y-12267619D02*
X16004524Y-12315238D01*
X16004524Y-12315238D02*
X16014048Y-12334286D01*
X16014048Y-12334286D02*
X16023572Y-12343809D01*
X16023572Y-12343809D02*
X16042619Y-12353333D01*
X16042619Y-12353333D02*
X16080714Y-12353333D01*
X16080714Y-12353333D02*
X16099762Y-12343809D01*
X16099762Y-12343809D02*
X16109286Y-12334286D01*
X16109286Y-12334286D02*
X16118810Y-12315238D01*
X16242619Y-12229524D02*
X16261667Y-12229524D01*
X16261667Y-12229524D02*
X16280714Y-12239048D01*
X16280714Y-12239048D02*
X16290238Y-12248571D01*
X16290238Y-12248571D02*
X16299762Y-12267619D01*
X16299762Y-12267619D02*
X16309286Y-12305714D01*
X16309286Y-12305714D02*
X16309286Y-12353333D01*
X16309286Y-12353333D02*
X16299762Y-12391428D01*
X16299762Y-12391428D02*
X16290238Y-12410476D01*
X16290238Y-12410476D02*
X16280714Y-12420000D01*
X16280714Y-12420000D02*
X16261667Y-12429524D01*
X16261667Y-12429524D02*
X16242619Y-12429524D01*
X16242619Y-12429524D02*
X16223572Y-12420000D01*
X16223572Y-12420000D02*
X16214048Y-12410476D01*
X16214048Y-12410476D02*
X16204524Y-12391428D01*
X16204524Y-12391428D02*
X16195000Y-12353333D01*
X16195000Y-12353333D02*
X16195000Y-12305714D01*
X16195000Y-12305714D02*
X16204524Y-12267619D01*
X16204524Y-12267619D02*
X16214048Y-12248571D01*
X16214048Y-12248571D02*
X16223572Y-12239048D01*
X16223572Y-12239048D02*
X16242619Y-12229524D01*
X16385476Y-12229524D02*
X16385476Y-12267619D01*
X16461667Y-12229524D02*
X16461667Y-12267619D01*
X16756905Y-12505714D02*
X16747381Y-12496190D01*
X16747381Y-12496190D02*
X16728334Y-12467619D01*
X16728334Y-12467619D02*
X16718810Y-12448571D01*
X16718810Y-12448571D02*
X16709286Y-12420000D01*
X16709286Y-12420000D02*
X16699762Y-12372381D01*
X16699762Y-12372381D02*
X16699762Y-12334286D01*
X16699762Y-12334286D02*
X16709286Y-12286667D01*
X16709286Y-12286667D02*
X16718810Y-12258095D01*
X16718810Y-12258095D02*
X16728334Y-12239048D01*
X16728334Y-12239048D02*
X16747381Y-12210476D01*
X16747381Y-12210476D02*
X16756905Y-12200952D01*
X16918810Y-12296190D02*
X16918810Y-12429524D01*
X16871191Y-12220000D02*
X16823572Y-12362857D01*
X16823572Y-12362857D02*
X16947381Y-12362857D01*
X17175953Y-12429524D02*
X17175953Y-12229524D01*
X17261667Y-12429524D02*
X17261667Y-12324762D01*
X17261667Y-12324762D02*
X17252143Y-12305714D01*
X17252143Y-12305714D02*
X17233096Y-12296190D01*
X17233096Y-12296190D02*
X17204524Y-12296190D01*
X17204524Y-12296190D02*
X17185477Y-12305714D01*
X17185477Y-12305714D02*
X17175953Y-12315238D01*
X17385477Y-12429524D02*
X17366429Y-12420000D01*
X17366429Y-12420000D02*
X17356905Y-12410476D01*
X17356905Y-12410476D02*
X17347381Y-12391428D01*
X17347381Y-12391428D02*
X17347381Y-12334286D01*
X17347381Y-12334286D02*
X17356905Y-12315238D01*
X17356905Y-12315238D02*
X17366429Y-12305714D01*
X17366429Y-12305714D02*
X17385477Y-12296190D01*
X17385477Y-12296190D02*
X17414048Y-12296190D01*
X17414048Y-12296190D02*
X17433096Y-12305714D01*
X17433096Y-12305714D02*
X17442619Y-12315238D01*
X17442619Y-12315238D02*
X17452143Y-12334286D01*
X17452143Y-12334286D02*
X17452143Y-12391428D01*
X17452143Y-12391428D02*
X17442619Y-12410476D01*
X17442619Y-12410476D02*
X17433096Y-12420000D01*
X17433096Y-12420000D02*
X17414048Y-12429524D01*
X17414048Y-12429524D02*
X17385477Y-12429524D01*
X17566429Y-12429524D02*
X17547381Y-12420000D01*
X17547381Y-12420000D02*
X17537858Y-12400952D01*
X17537858Y-12400952D02*
X17537858Y-12229524D01*
X17718810Y-12420000D02*
X17699762Y-12429524D01*
X17699762Y-12429524D02*
X17661667Y-12429524D01*
X17661667Y-12429524D02*
X17642619Y-12420000D01*
X17642619Y-12420000D02*
X17633096Y-12400952D01*
X17633096Y-12400952D02*
X17633096Y-12324762D01*
X17633096Y-12324762D02*
X17642619Y-12305714D01*
X17642619Y-12305714D02*
X17661667Y-12296190D01*
X17661667Y-12296190D02*
X17699762Y-12296190D01*
X17699762Y-12296190D02*
X17718810Y-12305714D01*
X17718810Y-12305714D02*
X17728334Y-12324762D01*
X17728334Y-12324762D02*
X17728334Y-12343809D01*
X17728334Y-12343809D02*
X17633096Y-12362857D01*
X17804524Y-12420000D02*
X17823572Y-12429524D01*
X17823572Y-12429524D02*
X17861667Y-12429524D01*
X17861667Y-12429524D02*
X17880715Y-12420000D01*
X17880715Y-12420000D02*
X17890239Y-12400952D01*
X17890239Y-12400952D02*
X17890239Y-12391428D01*
X17890239Y-12391428D02*
X17880715Y-12372381D01*
X17880715Y-12372381D02*
X17861667Y-12362857D01*
X17861667Y-12362857D02*
X17833096Y-12362857D01*
X17833096Y-12362857D02*
X17814048Y-12353333D01*
X17814048Y-12353333D02*
X17804524Y-12334286D01*
X17804524Y-12334286D02*
X17804524Y-12324762D01*
X17804524Y-12324762D02*
X17814048Y-12305714D01*
X17814048Y-12305714D02*
X17833096Y-12296190D01*
X17833096Y-12296190D02*
X17861667Y-12296190D01*
X17861667Y-12296190D02*
X17880715Y-12305714D01*
X17956905Y-12505714D02*
X17966429Y-12496190D01*
X17966429Y-12496190D02*
X17985477Y-12467619D01*
X17985477Y-12467619D02*
X17995000Y-12448571D01*
X17995000Y-12448571D02*
X18004524Y-12420000D01*
X18004524Y-12420000D02*
X18014048Y-12372381D01*
X18014048Y-12372381D02*
X18014048Y-12334286D01*
X18014048Y-12334286D02*
X18004524Y-12286667D01*
X18004524Y-12286667D02*
X17995000Y-12258095D01*
X17995000Y-12258095D02*
X17985477Y-12239048D01*
X17985477Y-12239048D02*
X17966429Y-12210476D01*
X17966429Y-12210476D02*
X17956905Y-12200952D01*
D15*
X13162500Y-12689500D02*
X13195000Y-12657000D01*
X13162500Y-12624500D01*
X13130000Y-12657000D01*
X13162500Y-12689500D01*
D11*
X13480714Y-12549524D02*
X13499762Y-12549524D01*
X13499762Y-12549524D02*
X13518809Y-12559048D01*
X13518809Y-12559048D02*
X13528333Y-12568571D01*
X13528333Y-12568571D02*
X13537857Y-12587619D01*
X13537857Y-12587619D02*
X13547381Y-12625714D01*
X13547381Y-12625714D02*
X13547381Y-12673333D01*
X13547381Y-12673333D02*
X13537857Y-12711428D01*
X13537857Y-12711428D02*
X13528333Y-12730476D01*
X13528333Y-12730476D02*
X13518809Y-12740000D01*
X13518809Y-12740000D02*
X13499762Y-12749524D01*
X13499762Y-12749524D02*
X13480714Y-12749524D01*
X13480714Y-12749524D02*
X13461667Y-12740000D01*
X13461667Y-12740000D02*
X13452143Y-12730476D01*
X13452143Y-12730476D02*
X13442619Y-12711428D01*
X13442619Y-12711428D02*
X13433095Y-12673333D01*
X13433095Y-12673333D02*
X13433095Y-12625714D01*
X13433095Y-12625714D02*
X13442619Y-12587619D01*
X13442619Y-12587619D02*
X13452143Y-12568571D01*
X13452143Y-12568571D02*
X13461667Y-12559048D01*
X13461667Y-12559048D02*
X13480714Y-12549524D01*
X13633095Y-12730476D02*
X13642619Y-12740000D01*
X13642619Y-12740000D02*
X13633095Y-12749524D01*
X13633095Y-12749524D02*
X13623571Y-12740000D01*
X13623571Y-12740000D02*
X13633095Y-12730476D01*
X13633095Y-12730476D02*
X13633095Y-12749524D01*
X13814048Y-12549524D02*
X13775952Y-12549524D01*
X13775952Y-12549524D02*
X13756905Y-12559048D01*
X13756905Y-12559048D02*
X13747381Y-12568571D01*
X13747381Y-12568571D02*
X13728333Y-12597143D01*
X13728333Y-12597143D02*
X13718809Y-12635238D01*
X13718809Y-12635238D02*
X13718809Y-12711428D01*
X13718809Y-12711428D02*
X13728333Y-12730476D01*
X13728333Y-12730476D02*
X13737857Y-12740000D01*
X13737857Y-12740000D02*
X13756905Y-12749524D01*
X13756905Y-12749524D02*
X13795000Y-12749524D01*
X13795000Y-12749524D02*
X13814048Y-12740000D01*
X13814048Y-12740000D02*
X13823571Y-12730476D01*
X13823571Y-12730476D02*
X13833095Y-12711428D01*
X13833095Y-12711428D02*
X13833095Y-12663809D01*
X13833095Y-12663809D02*
X13823571Y-12644762D01*
X13823571Y-12644762D02*
X13814048Y-12635238D01*
X13814048Y-12635238D02*
X13795000Y-12625714D01*
X13795000Y-12625714D02*
X13756905Y-12625714D01*
X13756905Y-12625714D02*
X13737857Y-12635238D01*
X13737857Y-12635238D02*
X13728333Y-12644762D01*
X13728333Y-12644762D02*
X13718809Y-12663809D01*
X14014048Y-12549524D02*
X13918809Y-12549524D01*
X13918809Y-12549524D02*
X13909286Y-12644762D01*
X13909286Y-12644762D02*
X13918809Y-12635238D01*
X13918809Y-12635238D02*
X13937857Y-12625714D01*
X13937857Y-12625714D02*
X13985476Y-12625714D01*
X13985476Y-12625714D02*
X14004524Y-12635238D01*
X14004524Y-12635238D02*
X14014048Y-12644762D01*
X14014048Y-12644762D02*
X14023571Y-12663809D01*
X14023571Y-12663809D02*
X14023571Y-12711428D01*
X14023571Y-12711428D02*
X14014048Y-12730476D01*
X14014048Y-12730476D02*
X14004524Y-12740000D01*
X14004524Y-12740000D02*
X13985476Y-12749524D01*
X13985476Y-12749524D02*
X13937857Y-12749524D01*
X13937857Y-12749524D02*
X13918809Y-12740000D01*
X13918809Y-12740000D02*
X13909286Y-12730476D01*
X14147381Y-12549524D02*
X14166429Y-12549524D01*
X14166429Y-12549524D02*
X14185476Y-12559048D01*
X14185476Y-12559048D02*
X14195000Y-12568571D01*
X14195000Y-12568571D02*
X14204524Y-12587619D01*
X14204524Y-12587619D02*
X14214048Y-12625714D01*
X14214048Y-12625714D02*
X14214048Y-12673333D01*
X14214048Y-12673333D02*
X14204524Y-12711428D01*
X14204524Y-12711428D02*
X14195000Y-12730476D01*
X14195000Y-12730476D02*
X14185476Y-12740000D01*
X14185476Y-12740000D02*
X14166429Y-12749524D01*
X14166429Y-12749524D02*
X14147381Y-12749524D01*
X14147381Y-12749524D02*
X14128333Y-12740000D01*
X14128333Y-12740000D02*
X14118809Y-12730476D01*
X14118809Y-12730476D02*
X14109286Y-12711428D01*
X14109286Y-12711428D02*
X14099762Y-12673333D01*
X14099762Y-12673333D02*
X14099762Y-12625714D01*
X14099762Y-12625714D02*
X14109286Y-12587619D01*
X14109286Y-12587619D02*
X14118809Y-12568571D01*
X14118809Y-12568571D02*
X14128333Y-12559048D01*
X14128333Y-12559048D02*
X14147381Y-12549524D01*
X14299762Y-12749524D02*
X14299762Y-12616190D01*
X14299762Y-12635238D02*
X14309286Y-12625714D01*
X14309286Y-12625714D02*
X14328333Y-12616190D01*
X14328333Y-12616190D02*
X14356905Y-12616190D01*
X14356905Y-12616190D02*
X14375952Y-12625714D01*
X14375952Y-12625714D02*
X14385476Y-12644762D01*
X14385476Y-12644762D02*
X14385476Y-12749524D01*
X14385476Y-12644762D02*
X14395000Y-12625714D01*
X14395000Y-12625714D02*
X14414048Y-12616190D01*
X14414048Y-12616190D02*
X14442619Y-12616190D01*
X14442619Y-12616190D02*
X14461667Y-12625714D01*
X14461667Y-12625714D02*
X14471190Y-12644762D01*
X14471190Y-12644762D02*
X14471190Y-12749524D01*
X14566429Y-12749524D02*
X14566429Y-12616190D01*
X14566429Y-12635238D02*
X14575952Y-12625714D01*
X14575952Y-12625714D02*
X14595000Y-12616190D01*
X14595000Y-12616190D02*
X14623571Y-12616190D01*
X14623571Y-12616190D02*
X14642619Y-12625714D01*
X14642619Y-12625714D02*
X14652143Y-12644762D01*
X14652143Y-12644762D02*
X14652143Y-12749524D01*
X14652143Y-12644762D02*
X14661667Y-12625714D01*
X14661667Y-12625714D02*
X14680714Y-12616190D01*
X14680714Y-12616190D02*
X14709286Y-12616190D01*
X14709286Y-12616190D02*
X14728333Y-12625714D01*
X14728333Y-12625714D02*
X14737857Y-12644762D01*
X14737857Y-12644762D02*
X14737857Y-12749524D01*
X15128333Y-12540000D02*
X14956905Y-12797143D01*
X15385476Y-12549524D02*
X15404524Y-12549524D01*
X15404524Y-12549524D02*
X15423572Y-12559048D01*
X15423572Y-12559048D02*
X15433095Y-12568571D01*
X15433095Y-12568571D02*
X15442619Y-12587619D01*
X15442619Y-12587619D02*
X15452143Y-12625714D01*
X15452143Y-12625714D02*
X15452143Y-12673333D01*
X15452143Y-12673333D02*
X15442619Y-12711428D01*
X15442619Y-12711428D02*
X15433095Y-12730476D01*
X15433095Y-12730476D02*
X15423572Y-12740000D01*
X15423572Y-12740000D02*
X15404524Y-12749524D01*
X15404524Y-12749524D02*
X15385476Y-12749524D01*
X15385476Y-12749524D02*
X15366429Y-12740000D01*
X15366429Y-12740000D02*
X15356905Y-12730476D01*
X15356905Y-12730476D02*
X15347381Y-12711428D01*
X15347381Y-12711428D02*
X15337857Y-12673333D01*
X15337857Y-12673333D02*
X15337857Y-12625714D01*
X15337857Y-12625714D02*
X15347381Y-12587619D01*
X15347381Y-12587619D02*
X15356905Y-12568571D01*
X15356905Y-12568571D02*
X15366429Y-12559048D01*
X15366429Y-12559048D02*
X15385476Y-12549524D01*
X15537857Y-12730476D02*
X15547381Y-12740000D01*
X15547381Y-12740000D02*
X15537857Y-12749524D01*
X15537857Y-12749524D02*
X15528333Y-12740000D01*
X15528333Y-12740000D02*
X15537857Y-12730476D01*
X15537857Y-12730476D02*
X15537857Y-12749524D01*
X15671191Y-12549524D02*
X15690238Y-12549524D01*
X15690238Y-12549524D02*
X15709286Y-12559048D01*
X15709286Y-12559048D02*
X15718810Y-12568571D01*
X15718810Y-12568571D02*
X15728333Y-12587619D01*
X15728333Y-12587619D02*
X15737857Y-12625714D01*
X15737857Y-12625714D02*
X15737857Y-12673333D01*
X15737857Y-12673333D02*
X15728333Y-12711428D01*
X15728333Y-12711428D02*
X15718810Y-12730476D01*
X15718810Y-12730476D02*
X15709286Y-12740000D01*
X15709286Y-12740000D02*
X15690238Y-12749524D01*
X15690238Y-12749524D02*
X15671191Y-12749524D01*
X15671191Y-12749524D02*
X15652143Y-12740000D01*
X15652143Y-12740000D02*
X15642619Y-12730476D01*
X15642619Y-12730476D02*
X15633095Y-12711428D01*
X15633095Y-12711428D02*
X15623572Y-12673333D01*
X15623572Y-12673333D02*
X15623572Y-12625714D01*
X15623572Y-12625714D02*
X15633095Y-12587619D01*
X15633095Y-12587619D02*
X15642619Y-12568571D01*
X15642619Y-12568571D02*
X15652143Y-12559048D01*
X15652143Y-12559048D02*
X15671191Y-12549524D01*
X15814048Y-12568571D02*
X15823572Y-12559048D01*
X15823572Y-12559048D02*
X15842619Y-12549524D01*
X15842619Y-12549524D02*
X15890238Y-12549524D01*
X15890238Y-12549524D02*
X15909286Y-12559048D01*
X15909286Y-12559048D02*
X15918810Y-12568571D01*
X15918810Y-12568571D02*
X15928333Y-12587619D01*
X15928333Y-12587619D02*
X15928333Y-12606667D01*
X15928333Y-12606667D02*
X15918810Y-12635238D01*
X15918810Y-12635238D02*
X15804524Y-12749524D01*
X15804524Y-12749524D02*
X15928333Y-12749524D01*
X16109286Y-12549524D02*
X16014048Y-12549524D01*
X16014048Y-12549524D02*
X16004524Y-12644762D01*
X16004524Y-12644762D02*
X16014048Y-12635238D01*
X16014048Y-12635238D02*
X16033095Y-12625714D01*
X16033095Y-12625714D02*
X16080714Y-12625714D01*
X16080714Y-12625714D02*
X16099762Y-12635238D01*
X16099762Y-12635238D02*
X16109286Y-12644762D01*
X16109286Y-12644762D02*
X16118810Y-12663809D01*
X16118810Y-12663809D02*
X16118810Y-12711428D01*
X16118810Y-12711428D02*
X16109286Y-12730476D01*
X16109286Y-12730476D02*
X16099762Y-12740000D01*
X16099762Y-12740000D02*
X16080714Y-12749524D01*
X16080714Y-12749524D02*
X16033095Y-12749524D01*
X16033095Y-12749524D02*
X16014048Y-12740000D01*
X16014048Y-12740000D02*
X16004524Y-12730476D01*
X16290238Y-12549524D02*
X16252143Y-12549524D01*
X16252143Y-12549524D02*
X16233095Y-12559048D01*
X16233095Y-12559048D02*
X16223572Y-12568571D01*
X16223572Y-12568571D02*
X16204524Y-12597143D01*
X16204524Y-12597143D02*
X16195000Y-12635238D01*
X16195000Y-12635238D02*
X16195000Y-12711428D01*
X16195000Y-12711428D02*
X16204524Y-12730476D01*
X16204524Y-12730476D02*
X16214048Y-12740000D01*
X16214048Y-12740000D02*
X16233095Y-12749524D01*
X16233095Y-12749524D02*
X16271191Y-12749524D01*
X16271191Y-12749524D02*
X16290238Y-12740000D01*
X16290238Y-12740000D02*
X16299762Y-12730476D01*
X16299762Y-12730476D02*
X16309286Y-12711428D01*
X16309286Y-12711428D02*
X16309286Y-12663809D01*
X16309286Y-12663809D02*
X16299762Y-12644762D01*
X16299762Y-12644762D02*
X16290238Y-12635238D01*
X16290238Y-12635238D02*
X16271191Y-12625714D01*
X16271191Y-12625714D02*
X16233095Y-12625714D01*
X16233095Y-12625714D02*
X16214048Y-12635238D01*
X16214048Y-12635238D02*
X16204524Y-12644762D01*
X16204524Y-12644762D02*
X16195000Y-12663809D01*
X16385476Y-12549524D02*
X16385476Y-12587619D01*
X16461667Y-12549524D02*
X16461667Y-12587619D01*
X16756905Y-12825714D02*
X16747381Y-12816190D01*
X16747381Y-12816190D02*
X16728334Y-12787619D01*
X16728334Y-12787619D02*
X16718810Y-12768571D01*
X16718810Y-12768571D02*
X16709286Y-12740000D01*
X16709286Y-12740000D02*
X16699762Y-12692381D01*
X16699762Y-12692381D02*
X16699762Y-12654286D01*
X16699762Y-12654286D02*
X16709286Y-12606667D01*
X16709286Y-12606667D02*
X16718810Y-12578095D01*
X16718810Y-12578095D02*
X16728334Y-12559048D01*
X16728334Y-12559048D02*
X16747381Y-12530476D01*
X16747381Y-12530476D02*
X16756905Y-12520952D01*
X16937857Y-12749524D02*
X16823572Y-12749524D01*
X16880715Y-12749524D02*
X16880715Y-12549524D01*
X16880715Y-12549524D02*
X16861667Y-12578095D01*
X16861667Y-12578095D02*
X16842619Y-12597143D01*
X16842619Y-12597143D02*
X16823572Y-12606667D01*
X17175953Y-12749524D02*
X17175953Y-12549524D01*
X17261667Y-12749524D02*
X17261667Y-12644762D01*
X17261667Y-12644762D02*
X17252143Y-12625714D01*
X17252143Y-12625714D02*
X17233096Y-12616190D01*
X17233096Y-12616190D02*
X17204524Y-12616190D01*
X17204524Y-12616190D02*
X17185477Y-12625714D01*
X17185477Y-12625714D02*
X17175953Y-12635238D01*
X17385477Y-12749524D02*
X17366429Y-12740000D01*
X17366429Y-12740000D02*
X17356905Y-12730476D01*
X17356905Y-12730476D02*
X17347381Y-12711428D01*
X17347381Y-12711428D02*
X17347381Y-12654286D01*
X17347381Y-12654286D02*
X17356905Y-12635238D01*
X17356905Y-12635238D02*
X17366429Y-12625714D01*
X17366429Y-12625714D02*
X17385477Y-12616190D01*
X17385477Y-12616190D02*
X17414048Y-12616190D01*
X17414048Y-12616190D02*
X17433096Y-12625714D01*
X17433096Y-12625714D02*
X17442619Y-12635238D01*
X17442619Y-12635238D02*
X17452143Y-12654286D01*
X17452143Y-12654286D02*
X17452143Y-12711428D01*
X17452143Y-12711428D02*
X17442619Y-12730476D01*
X17442619Y-12730476D02*
X17433096Y-12740000D01*
X17433096Y-12740000D02*
X17414048Y-12749524D01*
X17414048Y-12749524D02*
X17385477Y-12749524D01*
X17566429Y-12749524D02*
X17547381Y-12740000D01*
X17547381Y-12740000D02*
X17537858Y-12720952D01*
X17537858Y-12720952D02*
X17537858Y-12549524D01*
X17718810Y-12740000D02*
X17699762Y-12749524D01*
X17699762Y-12749524D02*
X17661667Y-12749524D01*
X17661667Y-12749524D02*
X17642619Y-12740000D01*
X17642619Y-12740000D02*
X17633096Y-12720952D01*
X17633096Y-12720952D02*
X17633096Y-12644762D01*
X17633096Y-12644762D02*
X17642619Y-12625714D01*
X17642619Y-12625714D02*
X17661667Y-12616190D01*
X17661667Y-12616190D02*
X17699762Y-12616190D01*
X17699762Y-12616190D02*
X17718810Y-12625714D01*
X17718810Y-12625714D02*
X17728334Y-12644762D01*
X17728334Y-12644762D02*
X17728334Y-12663809D01*
X17728334Y-12663809D02*
X17633096Y-12682857D01*
X17804524Y-12740000D02*
X17823572Y-12749524D01*
X17823572Y-12749524D02*
X17861667Y-12749524D01*
X17861667Y-12749524D02*
X17880715Y-12740000D01*
X17880715Y-12740000D02*
X17890239Y-12720952D01*
X17890239Y-12720952D02*
X17890239Y-12711428D01*
X17890239Y-12711428D02*
X17880715Y-12692381D01*
X17880715Y-12692381D02*
X17861667Y-12682857D01*
X17861667Y-12682857D02*
X17833096Y-12682857D01*
X17833096Y-12682857D02*
X17814048Y-12673333D01*
X17814048Y-12673333D02*
X17804524Y-12654286D01*
X17804524Y-12654286D02*
X17804524Y-12644762D01*
X17804524Y-12644762D02*
X17814048Y-12625714D01*
X17814048Y-12625714D02*
X17833096Y-12616190D01*
X17833096Y-12616190D02*
X17861667Y-12616190D01*
X17861667Y-12616190D02*
X17880715Y-12625714D01*
X18128334Y-12673333D02*
X18280715Y-12673333D01*
X18204524Y-12749524D02*
X18204524Y-12597143D01*
X18633096Y-12749524D02*
X18518810Y-12749524D01*
X18575953Y-12749524D02*
X18575953Y-12549524D01*
X18575953Y-12549524D02*
X18556905Y-12578095D01*
X18556905Y-12578095D02*
X18537858Y-12597143D01*
X18537858Y-12597143D02*
X18518810Y-12606667D01*
X18861667Y-12740000D02*
X18880715Y-12749524D01*
X18880715Y-12749524D02*
X18918810Y-12749524D01*
X18918810Y-12749524D02*
X18937858Y-12740000D01*
X18937858Y-12740000D02*
X18947382Y-12720952D01*
X18947382Y-12720952D02*
X18947382Y-12711428D01*
X18947382Y-12711428D02*
X18937858Y-12692381D01*
X18937858Y-12692381D02*
X18918810Y-12682857D01*
X18918810Y-12682857D02*
X18890239Y-12682857D01*
X18890239Y-12682857D02*
X18871191Y-12673333D01*
X18871191Y-12673333D02*
X18861667Y-12654286D01*
X18861667Y-12654286D02*
X18861667Y-12644762D01*
X18861667Y-12644762D02*
X18871191Y-12625714D01*
X18871191Y-12625714D02*
X18890239Y-12616190D01*
X18890239Y-12616190D02*
X18918810Y-12616190D01*
X18918810Y-12616190D02*
X18937858Y-12625714D01*
X19061667Y-12749524D02*
X19042620Y-12740000D01*
X19042620Y-12740000D02*
X19033096Y-12720952D01*
X19033096Y-12720952D02*
X19033096Y-12549524D01*
X19166429Y-12749524D02*
X19147382Y-12740000D01*
X19147382Y-12740000D02*
X19137858Y-12730476D01*
X19137858Y-12730476D02*
X19128334Y-12711428D01*
X19128334Y-12711428D02*
X19128334Y-12654286D01*
X19128334Y-12654286D02*
X19137858Y-12635238D01*
X19137858Y-12635238D02*
X19147382Y-12625714D01*
X19147382Y-12625714D02*
X19166429Y-12616190D01*
X19166429Y-12616190D02*
X19195001Y-12616190D01*
X19195001Y-12616190D02*
X19214048Y-12625714D01*
X19214048Y-12625714D02*
X19223572Y-12635238D01*
X19223572Y-12635238D02*
X19233096Y-12654286D01*
X19233096Y-12654286D02*
X19233096Y-12711428D01*
X19233096Y-12711428D02*
X19223572Y-12730476D01*
X19223572Y-12730476D02*
X19214048Y-12740000D01*
X19214048Y-12740000D02*
X19195001Y-12749524D01*
X19195001Y-12749524D02*
X19166429Y-12749524D01*
X19290239Y-12616190D02*
X19366429Y-12616190D01*
X19318810Y-12549524D02*
X19318810Y-12720952D01*
X19318810Y-12720952D02*
X19328334Y-12740000D01*
X19328334Y-12740000D02*
X19347382Y-12749524D01*
X19347382Y-12749524D02*
X19366429Y-12749524D01*
X19414048Y-12825714D02*
X19423572Y-12816190D01*
X19423572Y-12816190D02*
X19442620Y-12787619D01*
X19442620Y-12787619D02*
X19452143Y-12768571D01*
X19452143Y-12768571D02*
X19461667Y-12740000D01*
X19461667Y-12740000D02*
X19471191Y-12692381D01*
X19471191Y-12692381D02*
X19471191Y-12654286D01*
X19471191Y-12654286D02*
X19461667Y-12606667D01*
X19461667Y-12606667D02*
X19452143Y-12578095D01*
X19452143Y-12578095D02*
X19442620Y-12559048D01*
X19442620Y-12559048D02*
X19423572Y-12530476D01*
X19423572Y-12530476D02*
X19414048Y-12520952D01*
X19775953Y-12825714D02*
X19766429Y-12816190D01*
X19766429Y-12816190D02*
X19747382Y-12787619D01*
X19747382Y-12787619D02*
X19737858Y-12768571D01*
X19737858Y-12768571D02*
X19728334Y-12740000D01*
X19728334Y-12740000D02*
X19718810Y-12692381D01*
X19718810Y-12692381D02*
X19718810Y-12654286D01*
X19718810Y-12654286D02*
X19728334Y-12606667D01*
X19728334Y-12606667D02*
X19737858Y-12578095D01*
X19737858Y-12578095D02*
X19747382Y-12559048D01*
X19747382Y-12559048D02*
X19766429Y-12530476D01*
X19766429Y-12530476D02*
X19775953Y-12520952D01*
X19852143Y-12616190D02*
X19852143Y-12749524D01*
X19852143Y-12635238D02*
X19861667Y-12625714D01*
X19861667Y-12625714D02*
X19880715Y-12616190D01*
X19880715Y-12616190D02*
X19909286Y-12616190D01*
X19909286Y-12616190D02*
X19928334Y-12625714D01*
X19928334Y-12625714D02*
X19937858Y-12644762D01*
X19937858Y-12644762D02*
X19937858Y-12749524D01*
X20061667Y-12749524D02*
X20042620Y-12740000D01*
X20042620Y-12740000D02*
X20033096Y-12730476D01*
X20033096Y-12730476D02*
X20023572Y-12711428D01*
X20023572Y-12711428D02*
X20023572Y-12654286D01*
X20023572Y-12654286D02*
X20033096Y-12635238D01*
X20033096Y-12635238D02*
X20042620Y-12625714D01*
X20042620Y-12625714D02*
X20061667Y-12616190D01*
X20061667Y-12616190D02*
X20090239Y-12616190D01*
X20090239Y-12616190D02*
X20109286Y-12625714D01*
X20109286Y-12625714D02*
X20118810Y-12635238D01*
X20118810Y-12635238D02*
X20128334Y-12654286D01*
X20128334Y-12654286D02*
X20128334Y-12711428D01*
X20128334Y-12711428D02*
X20118810Y-12730476D01*
X20118810Y-12730476D02*
X20109286Y-12740000D01*
X20109286Y-12740000D02*
X20090239Y-12749524D01*
X20090239Y-12749524D02*
X20061667Y-12749524D01*
X20185477Y-12616190D02*
X20261667Y-12616190D01*
X20214048Y-12549524D02*
X20214048Y-12720952D01*
X20214048Y-12720952D02*
X20223572Y-12740000D01*
X20223572Y-12740000D02*
X20242620Y-12749524D01*
X20242620Y-12749524D02*
X20261667Y-12749524D01*
X20480715Y-12616190D02*
X20480715Y-12816190D01*
X20480715Y-12625714D02*
X20499763Y-12616190D01*
X20499763Y-12616190D02*
X20537858Y-12616190D01*
X20537858Y-12616190D02*
X20556905Y-12625714D01*
X20556905Y-12625714D02*
X20566429Y-12635238D01*
X20566429Y-12635238D02*
X20575953Y-12654286D01*
X20575953Y-12654286D02*
X20575953Y-12711428D01*
X20575953Y-12711428D02*
X20566429Y-12730476D01*
X20566429Y-12730476D02*
X20556905Y-12740000D01*
X20556905Y-12740000D02*
X20537858Y-12749524D01*
X20537858Y-12749524D02*
X20499763Y-12749524D01*
X20499763Y-12749524D02*
X20480715Y-12740000D01*
X20690239Y-12749524D02*
X20671191Y-12740000D01*
X20671191Y-12740000D02*
X20661667Y-12720952D01*
X20661667Y-12720952D02*
X20661667Y-12549524D01*
X20852144Y-12749524D02*
X20852144Y-12644762D01*
X20852144Y-12644762D02*
X20842620Y-12625714D01*
X20842620Y-12625714D02*
X20823572Y-12616190D01*
X20823572Y-12616190D02*
X20785477Y-12616190D01*
X20785477Y-12616190D02*
X20766429Y-12625714D01*
X20852144Y-12740000D02*
X20833096Y-12749524D01*
X20833096Y-12749524D02*
X20785477Y-12749524D01*
X20785477Y-12749524D02*
X20766429Y-12740000D01*
X20766429Y-12740000D02*
X20756905Y-12720952D01*
X20756905Y-12720952D02*
X20756905Y-12701905D01*
X20756905Y-12701905D02*
X20766429Y-12682857D01*
X20766429Y-12682857D02*
X20785477Y-12673333D01*
X20785477Y-12673333D02*
X20833096Y-12673333D01*
X20833096Y-12673333D02*
X20852144Y-12663809D01*
X20918810Y-12616190D02*
X20995001Y-12616190D01*
X20947382Y-12549524D02*
X20947382Y-12720952D01*
X20947382Y-12720952D02*
X20956905Y-12740000D01*
X20956905Y-12740000D02*
X20975953Y-12749524D01*
X20975953Y-12749524D02*
X20995001Y-12749524D01*
X21137858Y-12740000D02*
X21118810Y-12749524D01*
X21118810Y-12749524D02*
X21080715Y-12749524D01*
X21080715Y-12749524D02*
X21061667Y-12740000D01*
X21061667Y-12740000D02*
X21052144Y-12720952D01*
X21052144Y-12720952D02*
X21052144Y-12644762D01*
X21052144Y-12644762D02*
X21061667Y-12625714D01*
X21061667Y-12625714D02*
X21080715Y-12616190D01*
X21080715Y-12616190D02*
X21118810Y-12616190D01*
X21118810Y-12616190D02*
X21137858Y-12625714D01*
X21137858Y-12625714D02*
X21147382Y-12644762D01*
X21147382Y-12644762D02*
X21147382Y-12663809D01*
X21147382Y-12663809D02*
X21052144Y-12682857D01*
X21318810Y-12749524D02*
X21318810Y-12549524D01*
X21318810Y-12740000D02*
X21299763Y-12749524D01*
X21299763Y-12749524D02*
X21261667Y-12749524D01*
X21261667Y-12749524D02*
X21242620Y-12740000D01*
X21242620Y-12740000D02*
X21233096Y-12730476D01*
X21233096Y-12730476D02*
X21223572Y-12711428D01*
X21223572Y-12711428D02*
X21223572Y-12654286D01*
X21223572Y-12654286D02*
X21233096Y-12635238D01*
X21233096Y-12635238D02*
X21242620Y-12625714D01*
X21242620Y-12625714D02*
X21261667Y-12616190D01*
X21261667Y-12616190D02*
X21299763Y-12616190D01*
X21299763Y-12616190D02*
X21318810Y-12625714D01*
X21395001Y-12825714D02*
X21404525Y-12816190D01*
X21404525Y-12816190D02*
X21423572Y-12787619D01*
X21423572Y-12787619D02*
X21433096Y-12768571D01*
X21433096Y-12768571D02*
X21442620Y-12740000D01*
X21442620Y-12740000D02*
X21452144Y-12692381D01*
X21452144Y-12692381D02*
X21452144Y-12654286D01*
X21452144Y-12654286D02*
X21442620Y-12606667D01*
X21442620Y-12606667D02*
X21433096Y-12578095D01*
X21433096Y-12578095D02*
X21423572Y-12559048D01*
X21423572Y-12559048D02*
X21404525Y-12530476D01*
X21404525Y-12530476D02*
X21395001Y-12520952D01*
M02*
