%TF.GenerationSoftware,KiCad,Pcbnew,7.0.1*%
%TF.CreationDate,2023-03-24T10:32:53-04:00*%
%TF.ProjectId,wingbeat_detector,77696e67-6265-4617-945f-646574656374,3.0*%
%TF.SameCoordinates,Original*%
%TF.FileFunction,Paste,Top*%
%TF.FilePolarity,Positive*%
%FSLAX46Y46*%
G04 Gerber Fmt 4.6, Leading zero omitted, Abs format (unit mm)*
G04 Created by KiCad (PCBNEW 7.0.1) date 2023-03-24 10:32:53*
%MOMM*%
%LPD*%
G01*
G04 APERTURE LIST*
G04 Aperture macros list*
%AMRoundRect*
0 Rectangle with rounded corners*
0 $1 Rounding radius*
0 $2 $3 $4 $5 $6 $7 $8 $9 X,Y pos of 4 corners*
0 Add a 4 corners polygon primitive as box body*
4,1,4,$2,$3,$4,$5,$6,$7,$8,$9,$2,$3,0*
0 Add four circle primitives for the rounded corners*
1,1,$1+$1,$2,$3*
1,1,$1+$1,$4,$5*
1,1,$1+$1,$6,$7*
1,1,$1+$1,$8,$9*
0 Add four rect primitives between the rounded corners*
20,1,$1+$1,$2,$3,$4,$5,0*
20,1,$1+$1,$4,$5,$6,$7,0*
20,1,$1+$1,$6,$7,$8,$9,0*
20,1,$1+$1,$8,$9,$2,$3,0*%
%AMFreePoly0*
4,1,18,-0.735000,0.212000,-0.417000,0.530000,0.682000,0.530000,0.702282,0.525966,0.719477,0.514477,0.730966,0.497282,0.735000,0.477000,0.735000,-0.477000,0.730966,-0.497282,0.719477,-0.514477,0.702282,-0.525966,0.682000,-0.530000,-0.682000,-0.530000,-0.702282,-0.525966,-0.719477,-0.514477,-0.730966,-0.497282,-0.735000,-0.477000,-0.735000,0.212000,-0.735000,0.212000,$1*%
%AMFreePoly1*
4,1,18,-0.237500,0.075000,-0.233694,0.094134,-0.222855,0.110355,-0.206634,0.121194,-0.187500,0.125000,0.137500,0.125000,0.237500,0.025000,0.237500,-0.075000,0.233694,-0.094134,0.222855,-0.110355,0.206634,-0.121194,0.187500,-0.125000,-0.187500,-0.125000,-0.206634,-0.121194,-0.222855,-0.110355,-0.233694,-0.094134,-0.237500,-0.075000,-0.237500,0.075000,-0.237500,0.075000,$1*%
G04 Aperture macros list end*
%ADD10R,0.900000X0.300000*%
%ADD11RoundRect,0.135000X0.135000X0.185000X-0.135000X0.185000X-0.135000X-0.185000X0.135000X-0.185000X0*%
%ADD12FreePoly0,0.000000*%
%ADD13RoundRect,0.053000X-0.682000X-0.477000X0.682000X-0.477000X0.682000X0.477000X-0.682000X0.477000X0*%
%ADD14RoundRect,0.030000X-0.270000X-0.120000X0.270000X-0.120000X0.270000X0.120000X-0.270000X0.120000X0*%
%ADD15RoundRect,0.135000X-0.135000X-0.185000X0.135000X-0.185000X0.135000X0.185000X-0.135000X0.185000X0*%
%ADD16RoundRect,0.150000X-0.150000X0.875000X-0.150000X-0.875000X0.150000X-0.875000X0.150000X0.875000X0*%
%ADD17RoundRect,0.135000X0.185000X-0.135000X0.185000X0.135000X-0.185000X0.135000X-0.185000X-0.135000X0*%
%ADD18RoundRect,0.135000X-0.185000X0.135000X-0.185000X-0.135000X0.185000X-0.135000X0.185000X0.135000X0*%
%ADD19RoundRect,0.200000X-0.275000X0.200000X-0.275000X-0.200000X0.275000X-0.200000X0.275000X0.200000X0*%
%ADD20RoundRect,0.200000X0.275000X-0.200000X0.275000X0.200000X-0.275000X0.200000X-0.275000X-0.200000X0*%
%ADD21RoundRect,0.140000X0.140000X0.170000X-0.140000X0.170000X-0.140000X-0.170000X0.140000X-0.170000X0*%
%ADD22RoundRect,0.250000X-1.500000X-0.250000X1.500000X-0.250000X1.500000X0.250000X-1.500000X0.250000X0*%
%ADD23R,0.890000X1.550000*%
%ADD24R,1.270000X1.270000*%
%ADD25RoundRect,0.140000X-0.140000X-0.170000X0.140000X-0.170000X0.140000X0.170000X-0.140000X0.170000X0*%
%ADD26FreePoly1,0.000000*%
%ADD27RoundRect,0.050000X-0.187500X-0.075000X0.187500X-0.075000X0.187500X0.075000X-0.187500X0.075000X0*%
G04 APERTURE END LIST*
D10*
%TO.C,J1*%
X160440000Y-102750000D03*
X160440000Y-102250000D03*
X160440000Y-101750000D03*
X160440000Y-101250000D03*
X160440000Y-100750000D03*
X160440000Y-100250000D03*
X160440000Y-99750000D03*
X160440000Y-99250000D03*
X160440000Y-98750000D03*
X160440000Y-98250000D03*
X160440000Y-97750000D03*
X160440000Y-97250000D03*
%TD*%
D11*
%TO.C,R14*%
X138510000Y-96500000D03*
X137490000Y-96500000D03*
%TD*%
D12*
%TO.C,U4*%
X139000000Y-103845000D03*
D13*
X139000000Y-105105000D03*
D14*
X137600000Y-103500000D03*
X137600000Y-104150000D03*
X137600000Y-104800000D03*
X137600000Y-105450000D03*
X140400000Y-105450000D03*
X140400000Y-104800000D03*
X140400000Y-104150000D03*
X140400000Y-103500000D03*
%TD*%
D15*
%TO.C,R9*%
X150990000Y-93000000D03*
X152010000Y-93000000D03*
%TD*%
D16*
%TO.C,U2*%
X156945000Y-95350000D03*
X155675000Y-95350000D03*
X154405000Y-95350000D03*
X153135000Y-95350000D03*
X151865000Y-95350000D03*
X150595000Y-95350000D03*
X149325000Y-95350000D03*
X148055000Y-95350000D03*
X148055000Y-104650000D03*
X149325000Y-104650000D03*
X150595000Y-104650000D03*
X151865000Y-104650000D03*
X153135000Y-104650000D03*
X154405000Y-104650000D03*
X155675000Y-104650000D03*
X156945000Y-104650000D03*
%TD*%
D17*
%TO.C,R12*%
X149750000Y-108010000D03*
X149750000Y-106990000D03*
%TD*%
D18*
%TO.C,R10*%
X147500000Y-106990000D03*
X147500000Y-108010000D03*
%TD*%
D15*
%TO.C,R1*%
X142490000Y-103000000D03*
X143510000Y-103000000D03*
%TD*%
D17*
%TO.C,R11*%
X152000000Y-108010000D03*
X152000000Y-106990000D03*
%TD*%
D19*
%TO.C,R5*%
X146000000Y-101675000D03*
X146000000Y-103325000D03*
%TD*%
D20*
%TO.C,R7*%
X147500000Y-93325000D03*
X147500000Y-91675000D03*
%TD*%
D21*
%TO.C,C8*%
X154730000Y-108000000D03*
X153770000Y-108000000D03*
%TD*%
D22*
%TO.C,D1*%
X140675000Y-101270000D03*
X140675000Y-98730000D03*
%TD*%
D23*
%TO.C,RV2*%
X142605000Y-107720000D03*
D24*
X144000000Y-105280000D03*
D23*
X145395000Y-107720000D03*
%TD*%
D25*
%TO.C,C6*%
X153770000Y-106750000D03*
X154730000Y-106750000D03*
%TD*%
%TO.C,C10*%
X137020000Y-107500000D03*
X137980000Y-107500000D03*
%TD*%
D11*
%TO.C,R2*%
X154510000Y-93000000D03*
X153490000Y-93000000D03*
%TD*%
D21*
%TO.C,C12*%
X144980000Y-98000000D03*
X144020000Y-98000000D03*
%TD*%
D26*
%TO.C,U5*%
X144137500Y-99600000D03*
D27*
X144137500Y-100000000D03*
X144137500Y-100400000D03*
X144862500Y-100400000D03*
X144862500Y-100000000D03*
X144862500Y-99600000D03*
%TD*%
D11*
%TO.C,R13*%
X141010000Y-96500000D03*
X139990000Y-96500000D03*
%TD*%
D25*
%TO.C,C11*%
X140020000Y-107500000D03*
X140980000Y-107500000D03*
%TD*%
D23*
%TO.C,RV1*%
X142605000Y-94720000D03*
D24*
X144000000Y-92280000D03*
D23*
X145395000Y-94720000D03*
%TD*%
M02*
