%TF.GenerationSoftware,KiCad,Pcbnew,7.0.1*%
%TF.CreationDate,2023-03-24T10:32:53-04:00*%
%TF.ProjectId,wingbeat_detector,77696e67-6265-4617-945f-646574656374,3.0*%
%TF.SameCoordinates,Original*%
%TF.FileFunction,Copper,L1,Top*%
%TF.FilePolarity,Positive*%
%FSLAX46Y46*%
G04 Gerber Fmt 4.6, Leading zero omitted, Abs format (unit mm)*
G04 Created by KiCad (PCBNEW 7.0.1) date 2023-03-24 10:32:53*
%MOMM*%
%LPD*%
G01*
G04 APERTURE LIST*
G04 Aperture macros list*
%AMRoundRect*
0 Rectangle with rounded corners*
0 $1 Rounding radius*
0 $2 $3 $4 $5 $6 $7 $8 $9 X,Y pos of 4 corners*
0 Add a 4 corners polygon primitive as box body*
4,1,4,$2,$3,$4,$5,$6,$7,$8,$9,$2,$3,0*
0 Add four circle primitives for the rounded corners*
1,1,$1+$1,$2,$3*
1,1,$1+$1,$4,$5*
1,1,$1+$1,$6,$7*
1,1,$1+$1,$8,$9*
0 Add four rect primitives between the rounded corners*
20,1,$1+$1,$2,$3,$4,$5,0*
20,1,$1+$1,$4,$5,$6,$7,0*
20,1,$1+$1,$6,$7,$8,$9,0*
20,1,$1+$1,$8,$9,$2,$3,0*%
%AMFreePoly0*
4,1,18,-0.825000,0.870000,-0.495000,1.200000,0.742500,1.200000,0.774071,1.193720,0.800836,1.175836,0.818720,1.149071,0.825000,1.117500,0.825000,-1.117500,0.818720,-1.149071,0.800836,-1.175836,0.774071,-1.193720,0.742500,-1.200000,-0.742500,-1.200000,-0.774071,-1.193720,-0.800836,-1.175836,-0.818720,-1.149071,-0.825000,-1.117500,-0.825000,0.870000,-0.825000,0.870000,$1*%
%AMFreePoly1*
4,1,18,-0.237500,0.075000,-0.233694,0.094134,-0.222855,0.110355,-0.206634,0.121194,-0.187500,0.125000,0.137500,0.125000,0.237500,0.025000,0.237500,-0.075000,0.233694,-0.094134,0.222855,-0.110355,0.206634,-0.121194,0.187500,-0.125000,-0.187500,-0.125000,-0.206634,-0.121194,-0.222855,-0.110355,-0.233694,-0.094134,-0.237500,-0.075000,-0.237500,0.075000,-0.237500,0.075000,$1*%
G04 Aperture macros list end*
%TA.AperFunction,ComponentPad*%
%ADD10C,2.660000*%
%TD*%
%TA.AperFunction,SMDPad,CuDef*%
%ADD11R,0.900000X0.300000*%
%TD*%
%TA.AperFunction,ComponentPad*%
%ADD12C,0.600000*%
%TD*%
%TA.AperFunction,ComponentPad*%
%ADD13O,1.600000X1.000000*%
%TD*%
%TA.AperFunction,SMDPad,CuDef*%
%ADD14RoundRect,0.135000X0.135000X0.185000X-0.135000X0.185000X-0.135000X-0.185000X0.135000X-0.185000X0*%
%TD*%
%TA.AperFunction,SMDPad,CuDef*%
%ADD15RoundRect,0.030000X-0.270000X-0.120000X0.270000X-0.120000X0.270000X0.120000X-0.270000X0.120000X0*%
%TD*%
%TA.AperFunction,SMDPad,CuDef*%
%ADD16FreePoly0,0.000000*%
%TD*%
%TA.AperFunction,SMDPad,CuDef*%
%ADD17RoundRect,0.135000X-0.135000X-0.185000X0.135000X-0.185000X0.135000X0.185000X-0.135000X0.185000X0*%
%TD*%
%TA.AperFunction,SMDPad,CuDef*%
%ADD18C,0.500000*%
%TD*%
%TA.AperFunction,SMDPad,CuDef*%
%ADD19RoundRect,0.150000X-0.150000X0.875000X-0.150000X-0.875000X0.150000X-0.875000X0.150000X0.875000X0*%
%TD*%
%TA.AperFunction,SMDPad,CuDef*%
%ADD20RoundRect,0.135000X0.185000X-0.135000X0.185000X0.135000X-0.185000X0.135000X-0.185000X-0.135000X0*%
%TD*%
%TA.AperFunction,SMDPad,CuDef*%
%ADD21RoundRect,0.135000X-0.185000X0.135000X-0.185000X-0.135000X0.185000X-0.135000X0.185000X0.135000X0*%
%TD*%
%TA.AperFunction,SMDPad,CuDef*%
%ADD22RoundRect,0.200000X-0.275000X0.200000X-0.275000X-0.200000X0.275000X-0.200000X0.275000X0.200000X0*%
%TD*%
%TA.AperFunction,SMDPad,CuDef*%
%ADD23RoundRect,0.200000X0.275000X-0.200000X0.275000X0.200000X-0.275000X0.200000X-0.275000X-0.200000X0*%
%TD*%
%TA.AperFunction,SMDPad,CuDef*%
%ADD24RoundRect,0.140000X0.140000X0.170000X-0.140000X0.170000X-0.140000X-0.170000X0.140000X-0.170000X0*%
%TD*%
%TA.AperFunction,SMDPad,CuDef*%
%ADD25RoundRect,0.250000X-1.500000X-0.250000X1.500000X-0.250000X1.500000X0.250000X-1.500000X0.250000X0*%
%TD*%
%TA.AperFunction,SMDPad,CuDef*%
%ADD26R,0.890000X1.550000*%
%TD*%
%TA.AperFunction,SMDPad,CuDef*%
%ADD27R,1.270000X1.270000*%
%TD*%
%TA.AperFunction,SMDPad,CuDef*%
%ADD28RoundRect,0.140000X-0.140000X-0.170000X0.140000X-0.170000X0.140000X0.170000X-0.140000X0.170000X0*%
%TD*%
%TA.AperFunction,SMDPad,CuDef*%
%ADD29FreePoly1,0.000000*%
%TD*%
%TA.AperFunction,SMDPad,CuDef*%
%ADD30RoundRect,0.050000X-0.187500X-0.075000X0.187500X-0.075000X0.187500X0.075000X-0.187500X0.075000X0*%
%TD*%
%TA.AperFunction,ViaPad*%
%ADD31C,0.800000*%
%TD*%
%TA.AperFunction,Conductor*%
%ADD32C,0.150000*%
%TD*%
%TA.AperFunction,Conductor*%
%ADD33C,0.200000*%
%TD*%
G04 APERTURE END LIST*
D10*
%TO.P,H2,1,1*%
%TO.N,/GND*%
X166000000Y-93000000D03*
%TD*%
D11*
%TO.P,J1,A1,GND*%
%TO.N,/GND*%
X160440000Y-102750000D03*
%TO.P,J1,A2,SSTXP1*%
%TO.N,unconnected-(J1-SSTXP1-PadA2)*%
X160440000Y-102250000D03*
%TO.P,J1,A3,SSTXN1*%
%TO.N,unconnected-(J1-SSTXN1-PadA3)*%
X160440000Y-101750000D03*
%TO.P,J1,A4,VBUS_A*%
%TO.N,/V5+*%
X160440000Y-101250000D03*
%TO.P,J1,A5,CC1*%
%TO.N,unconnected-(J1-CC1-PadA5)*%
X160440000Y-100750000D03*
%TO.P,J1,A6,DP1*%
%TO.N,unconnected-(J1-DP1-PadA6)*%
X160440000Y-100250000D03*
%TO.P,J1,A7,DN1*%
%TO.N,unconnected-(J1-DN1-PadA7)*%
X160440000Y-99750000D03*
%TO.P,J1,A8,SBU1*%
%TO.N,unconnected-(J1-SBU1-PadA8)*%
X160440000Y-99250000D03*
%TO.P,J1,A9,VBUS_A*%
%TO.N,/V5+*%
X160440000Y-98750000D03*
%TO.P,J1,A10,SSRXN2*%
%TO.N,unconnected-(J1-SSRXN2-PadA10)*%
X160440000Y-98250000D03*
%TO.P,J1,A11,SSRXP2*%
%TO.N,unconnected-(J1-SSRXP2-PadA11)*%
X160440000Y-97750000D03*
%TO.P,J1,A12,GND*%
%TO.N,/GND*%
X160440000Y-97250000D03*
D12*
%TO.P,J1,B1,GND*%
X161650000Y-97150000D03*
%TO.P,J1,B2,SSTXP2*%
%TO.N,unconnected-(J1-SSTXP2-PadB2)*%
X162350000Y-97550000D03*
%TO.P,J1,B3,SSTXN2*%
%TO.N,unconnected-(J1-SSTXN2-PadB3)*%
X162350000Y-98350000D03*
%TO.P,J1,B4,VBUS_B*%
%TO.N,/V5+*%
X161650000Y-98750000D03*
%TO.P,J1,B5,CC2*%
%TO.N,unconnected-(J1-CC2-PadB5)*%
X162350000Y-99150000D03*
%TO.P,J1,B6,DP2*%
%TO.N,unconnected-(J1-DP2-PadB6)*%
X161650000Y-99550000D03*
%TO.P,J1,B7,DN2*%
%TO.N,unconnected-(J1-DN2-PadB7)*%
X161650000Y-100350000D03*
%TO.P,J1,B8,SBU2*%
%TO.N,unconnected-(J1-SBU2-PadB8)*%
X162350000Y-100750000D03*
%TO.P,J1,B9,VBUS_B*%
%TO.N,/V5+*%
X161650000Y-101150000D03*
%TO.P,J1,B10,SSRXN1*%
%TO.N,unconnected-(J1-SSRXN1-PadB10)*%
X162350000Y-101550000D03*
%TO.P,J1,B11,SSRXP1*%
%TO.N,unconnected-(J1-SSRXP1-PadB11)*%
X162350000Y-102350000D03*
%TO.P,J1,B12,GND*%
%TO.N,/GND*%
X161650000Y-102750000D03*
D13*
%TO.P,J1,S1,SHIELD*%
%TO.N,unconnected-(J1-SHIELD-PadS1)*%
X162250000Y-104080000D03*
%TO.P,J1,S2,SHIELD*%
%TO.N,unconnected-(J1-SHIELD-PadS2)*%
X162250000Y-95820000D03*
%TO.P,J1,S3,SHIELD*%
%TO.N,unconnected-(J1-SHIELD-PadS3)*%
X166700000Y-104490000D03*
%TO.P,J1,S4,SHIELD*%
%TO.N,unconnected-(J1-SHIELD-PadS4)*%
X166700000Y-95510000D03*
%TD*%
D14*
%TO.P,R14,1*%
%TO.N,/photodiode/PHOTODIODE_BUFFERED_SCALED*%
X138510000Y-96500000D03*
%TO.P,R14,2*%
%TO.N,/GND*%
X137490000Y-96500000D03*
%TD*%
D15*
%TO.P,U4,1*%
%TO.N,N/C*%
X137600000Y-103500000D03*
%TO.P,U4,2,-*%
%TO.N,Net-(D1-K)*%
X137600000Y-104150000D03*
%TO.P,U4,3,+*%
%TO.N,/GND*%
X137600000Y-104800000D03*
%TO.P,U4,4,V-*%
X137600000Y-105450000D03*
%TO.P,U4,5*%
%TO.N,N/C*%
X140400000Y-105450000D03*
%TO.P,U4,6*%
%TO.N,/PHOTODIODE_RAW*%
X140400000Y-104800000D03*
%TO.P,U4,7,V+*%
%TO.N,/V5+*%
X140400000Y-104150000D03*
%TO.P,U4,8*%
%TO.N,N/C*%
X140400000Y-103500000D03*
D16*
%TO.P,U4,9,EP*%
%TO.N,/GND*%
X139000000Y-104475000D03*
%TD*%
D17*
%TO.P,R9,1*%
%TO.N,Net-(U2-AAin-)*%
X150990000Y-93000000D03*
%TO.P,R9,2*%
%TO.N,/GND*%
X152010000Y-93000000D03*
%TD*%
D18*
%TO.P,FID1,*%
%TO.N,*%
X134000000Y-96000000D03*
%TD*%
D19*
%TO.P,U2,1,LPVo*%
%TO.N,unconnected-(U2-LPVo-Pad1)*%
X156945000Y-95350000D03*
%TO.P,U2,2,NC1*%
%TO.N,/GND*%
X155675000Y-95350000D03*
%TO.P,U2,3,Vin3*%
%TO.N,unconnected-(U2-Vin3-Pad3)*%
X154405000Y-95350000D03*
%TO.P,U2,4,Vin2*%
%TO.N,Net-(U2-Vin2)*%
X153135000Y-95350000D03*
%TO.P,U2,5,AAin+*%
%TO.N,/filter/HIGHPASS*%
X151865000Y-95350000D03*
%TO.P,U2,6,AAin-*%
%TO.N,Net-(U2-AAin-)*%
X150595000Y-95350000D03*
%TO.P,U2,7,AAVo*%
%TO.N,/filter/HIGHPASS_AMPLIFIED*%
X149325000Y-95350000D03*
%TO.P,U2,8,BPVo*%
%TO.N,Net-(U2-BPVo)*%
X148055000Y-95350000D03*
%TO.P,U2,9,Fadj1*%
%TO.N,Net-(U2-Fadj1)*%
X148055000Y-104650000D03*
%TO.P,U2,10,V-*%
%TO.N,/V10-*%
X149325000Y-104650000D03*
%TO.P,U2,11,V+*%
%TO.N,/V10+*%
X150595000Y-104650000D03*
%TO.P,U2,12,GND*%
%TO.N,/GND*%
X151865000Y-104650000D03*
%TO.P,U2,13,Vin1*%
%TO.N,Net-(U2-Vin1)*%
X153135000Y-104650000D03*
%TO.P,U2,14,HPVo*%
%TO.N,/filter/HIGHPASS*%
X154405000Y-104650000D03*
%TO.P,U2,15,NC2*%
%TO.N,/GND*%
X155675000Y-104650000D03*
%TO.P,U2,16,Fadj2*%
%TO.N,Net-(U2-Fadj2)*%
X156945000Y-104650000D03*
%TD*%
D20*
%TO.P,R12,1*%
%TO.N,Net-(R10-Pad2)*%
X149750000Y-108010000D03*
%TO.P,R12,2*%
%TO.N,/PHOTODIODE_RAW*%
X149750000Y-106990000D03*
%TD*%
D10*
%TO.P,H4,1,1*%
%TO.N,/GND*%
X134000000Y-107000000D03*
%TD*%
D21*
%TO.P,R10,1*%
%TO.N,/GND*%
X147500000Y-106990000D03*
%TO.P,R10,2*%
%TO.N,Net-(R10-Pad2)*%
X147500000Y-108010000D03*
%TD*%
D17*
%TO.P,R1,1*%
%TO.N,/PHOTODIODE_RAW*%
X142490000Y-103000000D03*
%TO.P,R1,2*%
%TO.N,Net-(U2-Vin1)*%
X143510000Y-103000000D03*
%TD*%
D20*
%TO.P,R11,1*%
%TO.N,Net-(R10-Pad2)*%
X152000000Y-108010000D03*
%TO.P,R11,2*%
%TO.N,/V10-*%
X152000000Y-106990000D03*
%TD*%
D22*
%TO.P,R5,1*%
%TO.N,/filter/HIGHPASS*%
X146000000Y-101675000D03*
%TO.P,R5,2*%
%TO.N,Net-(U2-Fadj1)*%
X146000000Y-103325000D03*
%TD*%
D23*
%TO.P,R7,1*%
%TO.N,Net-(U2-BPVo)*%
X147500000Y-93325000D03*
%TO.P,R7,2*%
%TO.N,Net-(U2-Fadj2)*%
X147500000Y-91675000D03*
%TD*%
D10*
%TO.P,H3,1,1*%
%TO.N,/GND*%
X166000000Y-107000000D03*
%TD*%
D24*
%TO.P,C8,1*%
%TO.N,/GND*%
X154730000Y-108000000D03*
%TO.P,C8,2*%
%TO.N,/V10-*%
X153770000Y-108000000D03*
%TD*%
D25*
%TO.P,D1,1,K*%
%TO.N,Net-(D1-K)*%
X140675000Y-101270000D03*
%TO.P,D1,2,A*%
%TO.N,/GND*%
X140675000Y-98730000D03*
%TD*%
D26*
%TO.P,RV2,1,1*%
%TO.N,Net-(D1-K)*%
X142605000Y-107720000D03*
D27*
%TO.P,RV2,2,2*%
%TO.N,/PHOTODIODE_RAW*%
X144000000Y-105280000D03*
D26*
%TO.P,RV2,3,3*%
%TO.N,unconnected-(RV2-Pad3)*%
X145395000Y-107720000D03*
%TD*%
D28*
%TO.P,C6,1*%
%TO.N,/V10+*%
X153770000Y-106750000D03*
%TO.P,C6,2*%
%TO.N,/GND*%
X154730000Y-106750000D03*
%TD*%
%TO.P,C10,1*%
%TO.N,/V5+*%
X137020000Y-107500000D03*
%TO.P,C10,2*%
%TO.N,/GND*%
X137980000Y-107500000D03*
%TD*%
D18*
%TO.P,FID3,*%
%TO.N,*%
X163000000Y-93000000D03*
%TD*%
D14*
%TO.P,R2,1*%
%TO.N,Net-(U2-Vin2)*%
X154510000Y-93000000D03*
%TO.P,R2,2*%
%TO.N,/GND*%
X153490000Y-93000000D03*
%TD*%
D24*
%TO.P,C12,1*%
%TO.N,/V5+*%
X144980000Y-98000000D03*
%TO.P,C12,2*%
%TO.N,/GND*%
X144020000Y-98000000D03*
%TD*%
D29*
%TO.P,U5,1*%
%TO.N,/photodiode/PHOTODIODE_BUFFERED*%
X144137500Y-99600000D03*
D30*
%TO.P,U5,2,V-*%
%TO.N,/GND*%
X144137500Y-100000000D03*
%TO.P,U5,3,-*%
%TO.N,/photodiode/PHOTODIODE_BUFFERED*%
X144137500Y-100400000D03*
%TO.P,U5,4,+*%
%TO.N,/PHOTODIODE_RAW*%
X144862500Y-100400000D03*
%TO.P,U5,5,~{SHDN}*%
%TO.N,/V5+*%
X144862500Y-100000000D03*
%TO.P,U5,6,V+*%
X144862500Y-99600000D03*
%TD*%
D10*
%TO.P,H1,1,1*%
%TO.N,/GND*%
X134000000Y-93000000D03*
%TD*%
D14*
%TO.P,R13,1*%
%TO.N,/photodiode/PHOTODIODE_BUFFERED*%
X141010000Y-96500000D03*
%TO.P,R13,2*%
%TO.N,/photodiode/PHOTODIODE_BUFFERED_SCALED*%
X139990000Y-96500000D03*
%TD*%
D28*
%TO.P,C11,1*%
%TO.N,Net-(D1-K)*%
X140020000Y-107500000D03*
%TO.P,C11,2*%
%TO.N,/PHOTODIODE_RAW*%
X140980000Y-107500000D03*
%TD*%
D26*
%TO.P,RV1,1,1*%
%TO.N,Net-(U2-AAin-)*%
X142605000Y-94720000D03*
D27*
%TO.P,RV1,2,2*%
%TO.N,/filter/HIGHPASS_AMPLIFIED*%
X144000000Y-92280000D03*
D26*
%TO.P,RV1,3,3*%
%TO.N,unconnected-(RV1-Pad3)*%
X145395000Y-94720000D03*
%TD*%
D31*
%TO.N,/GND*%
X144000000Y-96750000D03*
X137280562Y-106475500D03*
X149970000Y-93500000D03*
X137490000Y-97500200D03*
X156296500Y-97574400D03*
X155675000Y-93000000D03*
X146208800Y-91744600D03*
X155071300Y-102994100D03*
X143100000Y-99957500D03*
X142750000Y-93250000D03*
X159250000Y-92725000D03*
%TO.N,/filter/HIGHPASS_AMPLIFIED*%
X150000000Y-92500000D03*
%TO.N,/V5+*%
X158000000Y-100000000D03*
X146408329Y-98341671D03*
X136374500Y-106191589D03*
X141500000Y-104000000D03*
%TO.N,/V10+*%
X151046839Y-102836339D03*
%TO.N,/V10-*%
X151860700Y-102165000D03*
X152039500Y-97932700D03*
%TO.N,/photodiode/PHOTODIODE_BUFFERED_SCALED*%
X140000000Y-93500000D03*
%TD*%
D32*
%TO.N,/GND*%
X160440000Y-102750000D02*
X161650000Y-102750000D01*
X154730000Y-106480000D02*
X154250000Y-106000000D01*
X137600000Y-104800000D02*
X137600000Y-105450000D01*
X147050000Y-108775000D02*
X153955000Y-108775000D01*
X152010000Y-93000000D02*
X153490000Y-93000000D01*
X147010000Y-106990000D02*
X146500000Y-107500000D01*
X151865000Y-105615000D02*
X151865000Y-104650000D01*
X154250000Y-106000000D02*
X152250000Y-106000000D01*
X155071300Y-102994100D02*
X155675000Y-103597800D01*
X146500000Y-107500000D02*
X146500000Y-108225000D01*
X147500000Y-106990000D02*
X147010000Y-106990000D01*
X137600000Y-104800000D02*
X138675000Y-104800000D01*
X154730000Y-106750000D02*
X154730000Y-106480000D01*
X137490000Y-97990000D02*
X137490000Y-97500200D01*
X146500000Y-108225000D02*
X147050000Y-108775000D01*
X137980000Y-107174938D02*
X137280562Y-106475500D01*
X155675000Y-103597800D02*
X155675000Y-104650000D01*
X154730000Y-106270000D02*
X154730000Y-106750000D01*
X137980000Y-107500000D02*
X137980000Y-107174938D01*
X155000000Y-92000000D02*
X155675000Y-92675000D01*
X153490000Y-93000000D02*
X153490000Y-92510000D01*
X138230000Y-98730000D02*
X137490000Y-97990000D01*
X140675000Y-98730000D02*
X138230000Y-98730000D01*
X143142500Y-100000000D02*
X143100000Y-99957500D01*
X137490000Y-97500200D02*
X137490000Y-96500000D01*
X154730000Y-108000000D02*
X154730000Y-106750000D01*
X155675000Y-93000000D02*
X155675000Y-95350000D01*
X153490000Y-92510000D02*
X154000000Y-92000000D01*
X154000000Y-92000000D02*
X155000000Y-92000000D01*
X144020000Y-96770000D02*
X144020000Y-98000000D01*
X144000000Y-96750000D02*
X144020000Y-96770000D01*
X160440000Y-97250000D02*
X161550000Y-97250000D01*
X155675000Y-105325000D02*
X154730000Y-106270000D01*
X144137500Y-100000000D02*
X143142500Y-100000000D01*
X137280562Y-106475500D02*
X137280562Y-105769438D01*
X152250000Y-106000000D02*
X151865000Y-105615000D01*
X155675000Y-92675000D02*
X155675000Y-93000000D01*
X153955000Y-108775000D02*
X154730000Y-108000000D01*
X137280562Y-105769438D02*
X137600000Y-105450000D01*
%TO.N,Net-(U2-Vin1)*%
X145000000Y-102500000D02*
X144500000Y-103000000D01*
X149000000Y-101000000D02*
X147500000Y-102500000D01*
X144500000Y-103000000D02*
X143510000Y-103000000D01*
X152500000Y-101000000D02*
X149000000Y-101000000D01*
X153135000Y-104650000D02*
X153135000Y-101635000D01*
X153135000Y-101635000D02*
X152500000Y-101000000D01*
X147500000Y-102500000D02*
X145000000Y-102500000D01*
%TO.N,Net-(U2-Vin2)*%
X153135000Y-95350000D02*
X153135000Y-94375000D01*
X153135000Y-94375000D02*
X154510000Y-93000000D01*
%TO.N,/filter/HIGHPASS_AMPLIFIED*%
X149325000Y-93175000D02*
X149325000Y-95350000D01*
X147500000Y-97000000D02*
X148500000Y-97000000D01*
X146250000Y-95750000D02*
X147500000Y-97000000D01*
X148500000Y-97000000D02*
X149325000Y-96175000D01*
X150000000Y-92500000D02*
X149325000Y-93175000D01*
X144000000Y-92280000D02*
X145780000Y-92280000D01*
X146250000Y-92750000D02*
X146250000Y-95750000D01*
X145780000Y-92280000D02*
X146250000Y-92750000D01*
%TO.N,/filter/HIGHPASS*%
X154250000Y-101750000D02*
X154250000Y-104305000D01*
X146000000Y-101675000D02*
X146825000Y-101675000D01*
X148500000Y-100000000D02*
X151865000Y-96635000D01*
X152500000Y-100000000D02*
X154250000Y-101750000D01*
X146825000Y-101675000D02*
X148500000Y-100000000D01*
X151865000Y-96635000D02*
X151865000Y-95350000D01*
X148500000Y-100000000D02*
X152500000Y-100000000D01*
%TO.N,Net-(U2-Fadj1)*%
X146730000Y-103325000D02*
X148055000Y-104650000D01*
X146000000Y-103325000D02*
X146730000Y-103325000D01*
%TO.N,Net-(U2-BPVo)*%
X148055000Y-95350000D02*
X148055000Y-93880000D01*
X148055000Y-93880000D02*
X147500000Y-93325000D01*
%TO.N,Net-(U2-Fadj2)*%
X147500000Y-91675000D02*
X156675000Y-91675000D01*
X158000000Y-93000000D02*
X158000000Y-97000000D01*
X158000000Y-97000000D02*
X156945000Y-98055000D01*
X156675000Y-91675000D02*
X158000000Y-93000000D01*
X156945000Y-98055000D02*
X156945000Y-104650000D01*
%TO.N,Net-(U2-AAin-)*%
X145000000Y-96000000D02*
X146000000Y-96000000D01*
X143720000Y-94720000D02*
X145000000Y-96000000D01*
X142605000Y-94720000D02*
X143720000Y-94720000D01*
X146000000Y-96000000D02*
X147300000Y-97300000D01*
X150595000Y-95350000D02*
X150595000Y-93395000D01*
X147300000Y-97300000D02*
X149700000Y-97300000D01*
X150595000Y-93395000D02*
X150990000Y-93000000D01*
X150595000Y-96405000D02*
X150595000Y-95350000D01*
X149700000Y-97300000D02*
X150595000Y-96405000D01*
%TO.N,/V5+*%
X136500000Y-107500000D02*
X137020000Y-107500000D01*
X144862000Y-99654300D02*
X144862500Y-99654800D01*
X146066658Y-98000000D02*
X144980000Y-98000000D01*
X136050000Y-106516089D02*
X136050000Y-107050000D01*
X144862500Y-99600000D02*
X144862500Y-98117500D01*
X146408329Y-98341671D02*
X146066658Y-98000000D01*
X160440000Y-98750000D02*
X161650000Y-98750000D01*
X144862000Y-100000000D02*
X144862000Y-99654300D01*
X136374500Y-106191589D02*
X136050000Y-106516089D01*
X136050000Y-107050000D02*
X136500000Y-107500000D01*
X144862500Y-99654800D02*
X144862500Y-100000000D01*
X140400000Y-104150000D02*
X141350000Y-104150000D01*
X160440000Y-101250000D02*
X161550000Y-101250000D01*
X141350000Y-104150000D02*
X141500000Y-104000000D01*
%TO.N,/V10+*%
X151046839Y-102836339D02*
X150500000Y-103383178D01*
D33*
X150595000Y-105325000D02*
X151595000Y-106325000D01*
X151595000Y-106325000D02*
X152700000Y-106325000D01*
D32*
X150500000Y-103383178D02*
X150500000Y-103840300D01*
D33*
X152700000Y-106325000D02*
X153125000Y-106750000D01*
X153125000Y-106750000D02*
X153770000Y-106750000D01*
D32*
%TO.N,/V10-*%
X150835000Y-102165000D02*
X149325000Y-103675000D01*
X149325000Y-103675000D02*
X149325000Y-104408900D01*
D33*
X149575000Y-105325000D02*
X151240000Y-106990000D01*
D32*
X151860700Y-102165000D02*
X150835000Y-102165000D01*
D33*
X152010000Y-107000000D02*
X152770000Y-107000000D01*
X152770000Y-107000000D02*
X153770000Y-108000000D01*
X149325000Y-105325000D02*
X149575000Y-105325000D01*
X151240000Y-106990000D02*
X152000000Y-106990000D01*
D32*
%TO.N,Net-(D1-K)*%
X140020000Y-107500000D02*
X140020000Y-108020000D01*
X136150000Y-104150000D02*
X135750000Y-103750000D01*
X140250000Y-108250000D02*
X141250000Y-108250000D01*
X136500000Y-108250000D02*
X140250000Y-108250000D01*
X139079000Y-101270000D02*
X138230000Y-101270000D01*
X141780000Y-107720000D02*
X142605000Y-107720000D01*
X135750000Y-103750000D02*
X135750000Y-107500000D01*
X137600000Y-104150000D02*
X136150000Y-104150000D01*
X140020000Y-108020000D02*
X140250000Y-108250000D01*
X141250000Y-108250000D02*
X141780000Y-107720000D01*
X135750000Y-107500000D02*
X136500000Y-108250000D01*
X138230000Y-101270000D02*
X135750000Y-103750000D01*
%TO.N,/PHOTODIODE_RAW*%
X144000000Y-105280000D02*
X145280000Y-105280000D01*
X146500000Y-106500000D02*
X147160883Y-106500000D01*
X140400000Y-104800000D02*
X141300000Y-104800000D01*
X147160883Y-106500000D02*
X147165883Y-106495000D01*
X144862000Y-101138000D02*
X144000000Y-102000000D01*
X144862000Y-100769000D02*
X144862000Y-101138000D01*
X147165883Y-106495000D02*
X149255000Y-106495000D01*
X144862000Y-100400000D02*
X144862000Y-100769000D01*
X144000000Y-104500000D02*
X142500000Y-103000000D01*
X141300000Y-104800000D02*
X141500000Y-105000000D01*
X141500000Y-105000000D02*
X141780000Y-105280000D01*
X149255000Y-106495000D02*
X149750000Y-106990000D01*
X141500000Y-106980000D02*
X140980000Y-107500000D01*
X141500000Y-105000000D02*
X141500000Y-106980000D01*
X144000000Y-105280000D02*
X144000000Y-104500000D01*
X144862500Y-100768500D02*
X144862500Y-100400000D01*
X142490000Y-102510000D02*
X142490000Y-103000000D01*
X141780000Y-105280000D02*
X144000000Y-105280000D01*
X143000000Y-102000000D02*
X142490000Y-102510000D01*
X144862000Y-100769000D02*
X144862500Y-100768500D01*
X144000000Y-102000000D02*
X143000000Y-102000000D01*
X145280000Y-105280000D02*
X146500000Y-106500000D01*
%TO.N,Net-(R10-Pad2)*%
X149750000Y-108010000D02*
X152000000Y-108010000D01*
X147500000Y-108010000D02*
X149750000Y-108010000D01*
%TO.N,/photodiode/PHOTODIODE_BUFFERED*%
X143700000Y-99600000D02*
X144137500Y-99600000D01*
X143417500Y-100582500D02*
X142841116Y-100582500D01*
X143000000Y-99132500D02*
X143199700Y-99332200D01*
X142475000Y-99698616D02*
X142841116Y-99332500D01*
X144137500Y-100400000D02*
X143600000Y-100400000D01*
X141750000Y-96500000D02*
X143000000Y-97750000D01*
X143432500Y-99332500D02*
X143700000Y-99600000D01*
X143000000Y-97750000D02*
X143000000Y-99132500D01*
X142841116Y-100582500D02*
X142475000Y-100216384D01*
X143600000Y-100400000D02*
X143417500Y-100582500D01*
X142841116Y-99332500D02*
X143432500Y-99332500D01*
X142475000Y-100216384D02*
X142475000Y-99698616D01*
X141010000Y-96500000D02*
X141750000Y-96500000D01*
%TO.N,/photodiode/PHOTODIODE_BUFFERED_SCALED*%
X139990000Y-93510000D02*
X140000000Y-93500000D01*
X139990000Y-96500000D02*
X139990000Y-93510000D01*
X138510000Y-96500000D02*
X139990000Y-96500000D01*
%TD*%
%TA.AperFunction,Conductor*%
%TO.N,/GND*%
G36*
X143189598Y-99558911D02*
G01*
X143211765Y-99562422D01*
X143218856Y-99560522D01*
X143238010Y-99558000D01*
X143308442Y-99558000D01*
X143336760Y-99563633D01*
X143360768Y-99579674D01*
X143534992Y-99753897D01*
X143537658Y-99756707D01*
X143564492Y-99786509D01*
X143586747Y-99796418D01*
X143596953Y-99801959D01*
X143617382Y-99815226D01*
X143625781Y-99816556D01*
X143644300Y-99822042D01*
X143652067Y-99825500D01*
X143652068Y-99825500D01*
X143676000Y-99825500D01*
X143713000Y-99835414D01*
X143740086Y-99862500D01*
X143750000Y-99899500D01*
X143750000Y-99925000D01*
X144138500Y-99925000D01*
X144175500Y-99934914D01*
X144202586Y-99962000D01*
X144212500Y-99999000D01*
X144212500Y-100001000D01*
X144202586Y-100038000D01*
X144175500Y-100065086D01*
X144138500Y-100075000D01*
X143750000Y-100075000D01*
X143750000Y-100100500D01*
X143740086Y-100137500D01*
X143713000Y-100164586D01*
X143676000Y-100174500D01*
X143607861Y-100174500D01*
X143603988Y-100174399D01*
X143600055Y-100174192D01*
X143563936Y-100172300D01*
X143563935Y-100172300D01*
X143541185Y-100181032D01*
X143530056Y-100184328D01*
X143506231Y-100189392D01*
X143499353Y-100194390D01*
X143482383Y-100203604D01*
X143474439Y-100206653D01*
X143457209Y-100223883D01*
X143448384Y-100231420D01*
X143428677Y-100245739D01*
X143424423Y-100253107D01*
X143412666Y-100268426D01*
X143345766Y-100335327D01*
X143321763Y-100351367D01*
X143293444Y-100357000D01*
X142965173Y-100357000D01*
X142936854Y-100351367D01*
X142912847Y-100335326D01*
X142722174Y-100144653D01*
X142706133Y-100120646D01*
X142700500Y-100092327D01*
X142700500Y-99822674D01*
X142706133Y-99794356D01*
X142722174Y-99770348D01*
X142912847Y-99579674D01*
X142936854Y-99563633D01*
X142965173Y-99558000D01*
X143178021Y-99558000D01*
X143189598Y-99558911D01*
G37*
%TD.AperFunction*%
%TA.AperFunction,Conductor*%
G36*
X146916279Y-91162971D02*
G01*
X146943534Y-91196181D01*
X146947745Y-91238937D01*
X146938560Y-91256120D01*
X146941225Y-91257423D01*
X146884426Y-91373605D01*
X146874500Y-91441740D01*
X146874500Y-91908260D01*
X146884426Y-91976394D01*
X146935801Y-92081482D01*
X147018517Y-92164198D01*
X147123605Y-92215573D01*
X147191740Y-92225500D01*
X147808260Y-92225500D01*
X147876394Y-92215573D01*
X147928937Y-92189885D01*
X147981483Y-92164198D01*
X148064198Y-92081483D01*
X148115573Y-91976393D01*
X148117403Y-91963831D01*
X148130405Y-91931501D01*
X148156762Y-91908705D01*
X148190630Y-91900500D01*
X149658992Y-91900500D01*
X149702095Y-91914349D01*
X149729065Y-91950713D01*
X149729806Y-91995981D01*
X149704042Y-92033206D01*
X149641127Y-92081483D01*
X149607379Y-92107379D01*
X149519137Y-92222377D01*
X149463670Y-92356289D01*
X149444749Y-92499999D01*
X149458294Y-92602876D01*
X149463670Y-92643709D01*
X149466339Y-92650152D01*
X149470549Y-92692906D01*
X149450297Y-92730795D01*
X149171099Y-93009994D01*
X149168291Y-93012659D01*
X149138490Y-93039493D01*
X149128581Y-93061748D01*
X149123043Y-93071948D01*
X149109773Y-93092381D01*
X149108443Y-93100782D01*
X149102960Y-93119294D01*
X149100841Y-93124057D01*
X149099500Y-93127069D01*
X149099500Y-93151427D01*
X149098589Y-93163002D01*
X149094778Y-93187064D01*
X149096979Y-93195279D01*
X149099500Y-93214430D01*
X149099500Y-94131629D01*
X149087499Y-94172028D01*
X149055390Y-94199323D01*
X149030354Y-94210377D01*
X149002234Y-94222794D01*
X148922794Y-94302235D01*
X148877414Y-94405009D01*
X148874500Y-94430134D01*
X148874501Y-96274141D01*
X148873434Y-96274141D01*
X148870575Y-96300082D01*
X148853014Y-96328080D01*
X148428269Y-96752826D01*
X148404262Y-96768867D01*
X148375943Y-96774500D01*
X147624058Y-96774500D01*
X147595739Y-96768867D01*
X147571732Y-96752826D01*
X146497174Y-95678269D01*
X146481133Y-95654262D01*
X146475500Y-95625943D01*
X146475500Y-93558260D01*
X146874500Y-93558260D01*
X146884426Y-93626394D01*
X146935801Y-93731482D01*
X147018517Y-93814198D01*
X147123605Y-93865573D01*
X147191740Y-93875500D01*
X147700943Y-93875500D01*
X147729262Y-93881133D01*
X147753269Y-93897174D01*
X147807826Y-93951731D01*
X147823867Y-93975738D01*
X147829500Y-94004057D01*
X147829500Y-94131629D01*
X147817499Y-94172028D01*
X147785390Y-94199323D01*
X147760354Y-94210377D01*
X147732234Y-94222794D01*
X147652794Y-94302235D01*
X147607414Y-94405009D01*
X147604500Y-94430134D01*
X147604500Y-96269865D01*
X147607414Y-96294989D01*
X147607415Y-96294991D01*
X147652794Y-96397765D01*
X147732235Y-96477206D01*
X147835009Y-96522585D01*
X147860135Y-96525500D01*
X148249864Y-96525499D01*
X148249865Y-96525499D01*
X148258239Y-96524527D01*
X148274991Y-96522585D01*
X148377765Y-96477206D01*
X148457206Y-96397765D01*
X148502585Y-96294991D01*
X148505500Y-96269865D01*
X148505499Y-94430136D01*
X148502585Y-94405009D01*
X148457206Y-94302235D01*
X148377765Y-94222794D01*
X148324609Y-94199323D01*
X148292501Y-94172028D01*
X148280500Y-94131629D01*
X148280500Y-93887861D01*
X148280601Y-93883988D01*
X148281566Y-93865573D01*
X148282700Y-93843936D01*
X148273968Y-93821190D01*
X148270670Y-93810054D01*
X148265607Y-93786231D01*
X148260611Y-93779355D01*
X148251392Y-93762376D01*
X148248346Y-93754441D01*
X148231118Y-93737213D01*
X148223583Y-93728391D01*
X148209260Y-93708677D01*
X148209259Y-93708676D01*
X148209258Y-93708675D01*
X148201896Y-93704425D01*
X148186571Y-93692666D01*
X148142427Y-93648522D01*
X148124518Y-93619498D01*
X148121527Y-93585524D01*
X148125500Y-93558262D01*
X148125500Y-93091740D01*
X148115573Y-93023605D01*
X148064198Y-92918517D01*
X147981482Y-92835801D01*
X147876394Y-92784426D01*
X147808260Y-92774500D01*
X147191740Y-92774500D01*
X147123605Y-92784426D01*
X147018517Y-92835801D01*
X146935801Y-92918517D01*
X146884426Y-93023605D01*
X146874500Y-93091740D01*
X146874500Y-93558260D01*
X146475500Y-93558260D01*
X146475500Y-92757849D01*
X146475601Y-92753977D01*
X146477699Y-92713935D01*
X146468970Y-92691197D01*
X146465671Y-92680059D01*
X146460607Y-92656233D01*
X146460607Y-92656232D01*
X146455608Y-92649352D01*
X146446390Y-92632374D01*
X146443345Y-92624440D01*
X146426118Y-92607213D01*
X146418583Y-92598391D01*
X146404260Y-92578677D01*
X146404259Y-92578676D01*
X146404258Y-92578675D01*
X146396896Y-92574425D01*
X146381571Y-92562666D01*
X145945007Y-92126102D01*
X145942340Y-92123292D01*
X145915505Y-92093489D01*
X145893253Y-92083582D01*
X145883051Y-92078044D01*
X145862618Y-92064774D01*
X145862617Y-92064773D01*
X145862616Y-92064773D01*
X145854217Y-92063443D01*
X145835700Y-92057958D01*
X145827932Y-92054500D01*
X145803573Y-92054500D01*
X145791998Y-92053589D01*
X145767935Y-92049778D01*
X145759721Y-92051979D01*
X145740570Y-92054500D01*
X144859500Y-92054500D01*
X144822500Y-92044586D01*
X144795414Y-92017500D01*
X144785500Y-91980500D01*
X144785500Y-91630181D01*
X144785500Y-91630180D01*
X144776767Y-91586278D01*
X144743504Y-91536496D01*
X144693722Y-91503233D01*
X144649820Y-91494500D01*
X143350180Y-91494500D01*
X143306278Y-91503233D01*
X143256496Y-91536496D01*
X143223233Y-91586278D01*
X143214500Y-91630180D01*
X143214500Y-92929820D01*
X143223233Y-92973722D01*
X143256496Y-93023504D01*
X143306278Y-93056767D01*
X143350180Y-93065500D01*
X144649819Y-93065500D01*
X144649820Y-93065500D01*
X144693722Y-93056767D01*
X144743504Y-93023504D01*
X144776767Y-92973722D01*
X144785500Y-92929820D01*
X144785500Y-92579500D01*
X144795414Y-92542500D01*
X144822500Y-92515414D01*
X144859500Y-92505500D01*
X145655942Y-92505500D01*
X145684261Y-92511133D01*
X145708268Y-92527174D01*
X146002826Y-92821731D01*
X146018867Y-92845738D01*
X146024500Y-92874057D01*
X146024500Y-93748831D01*
X146013972Y-93786874D01*
X145985384Y-93814093D01*
X145946870Y-93822742D01*
X145909390Y-93810361D01*
X145898722Y-93803233D01*
X145854820Y-93794500D01*
X144935180Y-93794500D01*
X144891277Y-93803233D01*
X144891278Y-93803233D01*
X144841496Y-93836496D01*
X144808233Y-93886278D01*
X144799500Y-93930181D01*
X144799500Y-95301943D01*
X144787029Y-95343055D01*
X144753819Y-95370310D01*
X144711063Y-95374521D01*
X144673174Y-95354269D01*
X143885007Y-94566102D01*
X143882340Y-94563292D01*
X143855505Y-94533489D01*
X143833253Y-94523582D01*
X143823051Y-94518044D01*
X143802618Y-94504774D01*
X143802617Y-94504773D01*
X143802616Y-94504773D01*
X143794217Y-94503443D01*
X143775700Y-94497958D01*
X143767932Y-94494500D01*
X143743573Y-94494500D01*
X143731998Y-94493589D01*
X143707935Y-94489778D01*
X143699721Y-94491979D01*
X143680570Y-94494500D01*
X143274500Y-94494500D01*
X143237500Y-94484586D01*
X143210414Y-94457500D01*
X143200500Y-94420500D01*
X143200500Y-93930181D01*
X143193934Y-93897174D01*
X143191767Y-93886278D01*
X143158504Y-93836496D01*
X143108722Y-93803233D01*
X143064820Y-93794500D01*
X142145180Y-93794500D01*
X142101278Y-93803233D01*
X142051496Y-93836496D01*
X142018233Y-93886278D01*
X142009500Y-93930180D01*
X142009500Y-95509820D01*
X142018233Y-95553722D01*
X142051496Y-95603504D01*
X142101278Y-95636767D01*
X142145180Y-95645500D01*
X143064819Y-95645500D01*
X143064820Y-95645500D01*
X143108722Y-95636767D01*
X143158504Y-95603504D01*
X143191767Y-95553722D01*
X143200500Y-95509820D01*
X143200500Y-95019500D01*
X143210414Y-94982500D01*
X143237500Y-94955414D01*
X143274500Y-94945500D01*
X143595942Y-94945500D01*
X143624261Y-94951133D01*
X143648268Y-94967174D01*
X144834992Y-96153897D01*
X144837658Y-96156706D01*
X144864493Y-96186509D01*
X144886753Y-96196419D01*
X144896944Y-96201952D01*
X144917382Y-96215225D01*
X144925779Y-96216554D01*
X144944298Y-96222040D01*
X144952068Y-96225500D01*
X144976427Y-96225500D01*
X144988004Y-96226411D01*
X144996355Y-96227733D01*
X145012065Y-96230222D01*
X145012065Y-96230221D01*
X145012066Y-96230222D01*
X145020278Y-96228022D01*
X145039431Y-96225500D01*
X145875942Y-96225500D01*
X145904261Y-96231133D01*
X145928268Y-96247174D01*
X147134992Y-97453897D01*
X147137658Y-97456706D01*
X147164493Y-97486509D01*
X147186751Y-97496418D01*
X147196942Y-97501951D01*
X147217383Y-97515226D01*
X147225782Y-97516555D01*
X147244305Y-97522043D01*
X147252068Y-97525500D01*
X147276428Y-97525500D01*
X147288003Y-97526411D01*
X147291545Y-97526971D01*
X147312066Y-97530222D01*
X147320280Y-97528020D01*
X147339431Y-97525500D01*
X149692139Y-97525500D01*
X149696012Y-97525601D01*
X149736064Y-97527700D01*
X149758812Y-97518967D01*
X149769930Y-97515673D01*
X149793768Y-97510607D01*
X149800644Y-97505610D01*
X149817624Y-97496392D01*
X149817621Y-97496392D01*
X149825560Y-97493346D01*
X149842793Y-97476112D01*
X149851616Y-97468577D01*
X149871323Y-97454260D01*
X149875572Y-97446898D01*
X149887329Y-97431575D01*
X150748915Y-96569988D01*
X150751706Y-96567341D01*
X150758745Y-96561003D01*
X150781509Y-96540507D01*
X150781509Y-96540504D01*
X150781863Y-96540187D01*
X150805759Y-96529397D01*
X150804748Y-96527107D01*
X150814988Y-96522585D01*
X150814991Y-96522585D01*
X150917765Y-96477206D01*
X150997206Y-96397765D01*
X151042585Y-96294991D01*
X151045500Y-96269865D01*
X151045499Y-94430136D01*
X151042585Y-94405009D01*
X150997206Y-94302235D01*
X150917765Y-94222794D01*
X150864609Y-94199323D01*
X150832501Y-94172028D01*
X150820500Y-94131629D01*
X150820500Y-93544499D01*
X150830414Y-93507499D01*
X150857500Y-93480413D01*
X150894500Y-93470499D01*
X151167624Y-93470499D01*
X151179559Y-93469114D01*
X151191498Y-93467730D01*
X151289141Y-93424616D01*
X151364616Y-93349141D01*
X151407730Y-93251498D01*
X151410500Y-93227623D01*
X151410499Y-93075000D01*
X151590000Y-93075000D01*
X151590000Y-93227557D01*
X151592763Y-93251379D01*
X151635804Y-93348855D01*
X151711144Y-93424195D01*
X151808620Y-93467236D01*
X151832443Y-93470000D01*
X151935000Y-93470000D01*
X151935000Y-93075000D01*
X152085000Y-93075000D01*
X152085000Y-93470000D01*
X152187557Y-93470000D01*
X152211379Y-93467236D01*
X152308855Y-93424195D01*
X152384195Y-93348855D01*
X152427236Y-93251379D01*
X152430000Y-93227557D01*
X152430000Y-93075000D01*
X153070000Y-93075000D01*
X153070000Y-93227557D01*
X153072763Y-93251379D01*
X153115804Y-93348855D01*
X153191144Y-93424195D01*
X153288620Y-93467236D01*
X153312443Y-93470000D01*
X153415000Y-93470000D01*
X153415000Y-93075000D01*
X153070000Y-93075000D01*
X152430000Y-93075000D01*
X152085000Y-93075000D01*
X151935000Y-93075000D01*
X151590000Y-93075000D01*
X151410499Y-93075000D01*
X151410499Y-92925000D01*
X151590000Y-92925000D01*
X151935000Y-92925000D01*
X151935000Y-92530000D01*
X152085000Y-92530000D01*
X152085000Y-92925000D01*
X152430000Y-92925000D01*
X153070000Y-92925000D01*
X153415000Y-92925000D01*
X153415000Y-92530000D01*
X153565000Y-92530000D01*
X153565000Y-92925000D01*
X153910000Y-92925000D01*
X153910000Y-92772443D01*
X153907236Y-92748620D01*
X153864195Y-92651144D01*
X153788855Y-92575804D01*
X153691379Y-92532763D01*
X153667557Y-92530000D01*
X153565000Y-92530000D01*
X153415000Y-92530000D01*
X153312443Y-92530000D01*
X153288620Y-92532763D01*
X153191144Y-92575804D01*
X153115804Y-92651144D01*
X153072763Y-92748620D01*
X153070000Y-92772443D01*
X153070000Y-92925000D01*
X152430000Y-92925000D01*
X152430000Y-92772443D01*
X152427236Y-92748620D01*
X152384195Y-92651144D01*
X152308855Y-92575804D01*
X152211379Y-92532763D01*
X152187557Y-92530000D01*
X152085000Y-92530000D01*
X151935000Y-92530000D01*
X151832443Y-92530000D01*
X151808620Y-92532763D01*
X151711144Y-92575804D01*
X151635804Y-92651144D01*
X151592763Y-92748620D01*
X151590000Y-92772443D01*
X151590000Y-92925000D01*
X151410499Y-92925000D01*
X151410499Y-92772378D01*
X151407730Y-92748502D01*
X151364616Y-92650859D01*
X151289141Y-92575384D01*
X151191498Y-92532270D01*
X151191496Y-92532269D01*
X151170755Y-92529863D01*
X151167622Y-92529500D01*
X150812376Y-92529500D01*
X150788503Y-92532269D01*
X150690857Y-92575384D01*
X150677407Y-92588835D01*
X150637135Y-92609520D01*
X150592351Y-92602876D01*
X150559819Y-92571390D01*
X150551715Y-92526848D01*
X150553221Y-92515414D01*
X150555250Y-92500000D01*
X150536330Y-92356291D01*
X150507992Y-92287876D01*
X150480862Y-92222377D01*
X150480861Y-92222376D01*
X150480861Y-92222375D01*
X150392621Y-92107379D01*
X150295957Y-92033206D01*
X150270194Y-91995981D01*
X150270935Y-91950713D01*
X150297905Y-91914349D01*
X150341008Y-91900500D01*
X156550942Y-91900500D01*
X156579261Y-91906133D01*
X156603268Y-91922174D01*
X157752826Y-93071731D01*
X157768867Y-93095738D01*
X157774500Y-93124057D01*
X157774500Y-96875943D01*
X157768867Y-96904262D01*
X157752826Y-96928269D01*
X156791100Y-97889993D01*
X156788292Y-97892658D01*
X156758490Y-97919493D01*
X156748581Y-97941748D01*
X156743043Y-97951948D01*
X156729773Y-97972381D01*
X156728443Y-97980782D01*
X156722960Y-97999294D01*
X156722647Y-98000000D01*
X156719500Y-98007069D01*
X156719500Y-98031427D01*
X156718589Y-98043002D01*
X156714778Y-98067064D01*
X156716979Y-98075279D01*
X156719500Y-98094430D01*
X156719500Y-103431629D01*
X156707499Y-103472028D01*
X156675390Y-103499323D01*
X156661556Y-103505432D01*
X156622234Y-103522794D01*
X156542794Y-103602235D01*
X156497414Y-103705009D01*
X156494500Y-103730134D01*
X156494500Y-105569865D01*
X156497414Y-105594989D01*
X156497415Y-105594991D01*
X156542794Y-105697765D01*
X156622235Y-105777206D01*
X156725009Y-105822585D01*
X156750135Y-105825500D01*
X157139864Y-105825499D01*
X157139865Y-105825499D01*
X157148239Y-105824527D01*
X157164991Y-105822585D01*
X157267765Y-105777206D01*
X157347206Y-105697765D01*
X157392585Y-105594991D01*
X157395500Y-105569865D01*
X157395499Y-103730136D01*
X157392585Y-103705009D01*
X157347206Y-103602235D01*
X157267765Y-103522794D01*
X157214609Y-103499323D01*
X157182501Y-103472028D01*
X157170500Y-103431629D01*
X157170500Y-102825000D01*
X159840001Y-102825000D01*
X159840001Y-102914777D01*
X159848702Y-102958526D01*
X159881855Y-103008143D01*
X159931473Y-103041296D01*
X159975226Y-103050000D01*
X160365000Y-103050000D01*
X160365000Y-103049999D01*
X160515000Y-103049999D01*
X160652521Y-103049999D01*
X160694725Y-103063214D01*
X160721855Y-103098139D01*
X160724222Y-103142300D01*
X160700980Y-103179925D01*
X160636944Y-103235411D01*
X160563021Y-103350440D01*
X160524500Y-103481631D01*
X160524500Y-103618369D01*
X160557939Y-103732251D01*
X160563022Y-103749561D01*
X160571366Y-103762545D01*
X160636944Y-103864589D01*
X160740280Y-103954129D01*
X160740281Y-103954129D01*
X160740282Y-103954130D01*
X160864658Y-104010931D01*
X160965989Y-104025500D01*
X161034010Y-104025500D01*
X161034011Y-104025500D01*
X161135342Y-104010931D01*
X161191599Y-103985238D01*
X161238275Y-103980287D01*
X161278541Y-104004411D01*
X161296194Y-104047904D01*
X161305944Y-104202860D01*
X161356732Y-104359171D01*
X161444030Y-104496731D01*
X161444798Y-104497940D01*
X161564607Y-104610448D01*
X161708632Y-104689627D01*
X161867823Y-104730500D01*
X162590925Y-104730500D01*
X162590929Y-104730500D01*
X162713058Y-104715071D01*
X162777322Y-104689627D01*
X162865871Y-104654568D01*
X162998837Y-104557963D01*
X163089121Y-104448828D01*
X165745623Y-104448828D01*
X165755944Y-104612860D01*
X165806732Y-104769171D01*
X165873893Y-104875000D01*
X165894798Y-104907940D01*
X166014607Y-105020448D01*
X166158632Y-105099627D01*
X166317823Y-105140500D01*
X167040925Y-105140500D01*
X167040929Y-105140500D01*
X167163058Y-105125071D01*
X167167551Y-105123292D01*
X167315871Y-105064568D01*
X167448837Y-104967963D01*
X167553600Y-104841326D01*
X167623579Y-104692613D01*
X167643864Y-104586278D01*
X167654376Y-104531171D01*
X167652618Y-104503233D01*
X167644056Y-104367140D01*
X167593268Y-104210829D01*
X167505202Y-104072060D01*
X167385393Y-103959552D01*
X167385392Y-103959551D01*
X167241366Y-103880372D01*
X167082177Y-103839500D01*
X166359075Y-103839500D01*
X166359071Y-103839500D01*
X166236941Y-103854928D01*
X166084129Y-103915431D01*
X165951163Y-104012037D01*
X165846400Y-104138673D01*
X165776420Y-104287387D01*
X165745623Y-104448828D01*
X163089121Y-104448828D01*
X163103600Y-104431326D01*
X163173579Y-104282613D01*
X163200076Y-104143710D01*
X163204376Y-104121171D01*
X163199766Y-104047904D01*
X163194056Y-103957140D01*
X163143268Y-103800829D01*
X163058580Y-103667383D01*
X163055204Y-103662063D01*
X163055203Y-103662062D01*
X163055202Y-103662060D01*
X162935393Y-103549552D01*
X162935392Y-103549551D01*
X162804175Y-103477414D01*
X162791368Y-103470373D01*
X162791367Y-103470372D01*
X162791366Y-103470372D01*
X162632177Y-103429500D01*
X161909075Y-103429500D01*
X161909071Y-103429500D01*
X161786941Y-103444928D01*
X161634129Y-103505431D01*
X161592996Y-103535317D01*
X161555306Y-103549222D01*
X161515905Y-103541385D01*
X161486405Y-103514115D01*
X161479998Y-103491400D01*
X161478498Y-103491841D01*
X161440438Y-103362223D01*
X161436978Y-103350439D01*
X161398557Y-103290654D01*
X161390575Y-103278233D01*
X161378875Y-103235584D01*
X161393588Y-103193879D01*
X161429459Y-103168013D01*
X161473677Y-103167224D01*
X161585299Y-103200000D01*
X161714701Y-103200000D01*
X161838858Y-103163543D01*
X161911069Y-103117135D01*
X161281749Y-102487815D01*
X161267543Y-102504210D01*
X161213788Y-102621916D01*
X161195373Y-102749999D01*
X161213788Y-102878083D01*
X161271963Y-103005469D01*
X161270316Y-103006220D01*
X161283134Y-103038796D01*
X161268421Y-103085784D01*
X161227482Y-103113139D01*
X161178440Y-103108751D01*
X161135341Y-103089068D01*
X161077078Y-103080692D01*
X161033750Y-103058191D01*
X161013866Y-103013602D01*
X161026081Y-102966332D01*
X161031296Y-102958526D01*
X161040000Y-102914774D01*
X161040000Y-102825000D01*
X160515000Y-102825000D01*
X160515000Y-103049999D01*
X160365000Y-103049999D01*
X160365000Y-102825000D01*
X159840001Y-102825000D01*
X157170500Y-102825000D01*
X157170500Y-102414819D01*
X159839500Y-102414819D01*
X159848233Y-102458722D01*
X159848644Y-102459337D01*
X159861115Y-102500447D01*
X159848763Y-102541169D01*
X159840000Y-102585226D01*
X159840000Y-102675000D01*
X161039999Y-102675000D01*
X161039999Y-102585223D01*
X161031237Y-102541169D01*
X161018884Y-102500445D01*
X161031358Y-102459333D01*
X161031767Y-102458722D01*
X161040500Y-102414820D01*
X161040500Y-102085180D01*
X161031767Y-102041278D01*
X161031655Y-102041110D01*
X161019184Y-102000000D01*
X161031656Y-101958887D01*
X161031767Y-101958722D01*
X161040500Y-101914820D01*
X161040500Y-101585180D01*
X161036274Y-101563936D01*
X161040484Y-101521182D01*
X161067739Y-101487972D01*
X161108852Y-101475500D01*
X161302154Y-101475500D01*
X161332890Y-101482185D01*
X161342333Y-101489252D01*
X161343000Y-101488215D01*
X161366887Y-101503566D01*
X161460931Y-101564004D01*
X161585228Y-101600500D01*
X161714770Y-101600500D01*
X161714772Y-101600500D01*
X161812599Y-101571776D01*
X161854293Y-101571777D01*
X161889371Y-101594319D01*
X161906692Y-101632248D01*
X161913302Y-101678225D01*
X161967118Y-101796064D01*
X162058514Y-101901541D01*
X162074502Y-101932554D01*
X162074502Y-101967446D01*
X162058514Y-101998459D01*
X161967118Y-102103935D01*
X161913302Y-102221774D01*
X161906620Y-102268253D01*
X161889298Y-102306181D01*
X161854221Y-102328723D01*
X161812525Y-102328724D01*
X161714699Y-102300000D01*
X161585299Y-102300000D01*
X161461141Y-102336456D01*
X161388930Y-102382863D01*
X161388930Y-102382864D01*
X162018249Y-103012183D01*
X162018250Y-103012183D01*
X162032455Y-102995791D01*
X162086211Y-102878081D01*
X162092821Y-102832106D01*
X162110142Y-102794177D01*
X162145219Y-102771634D01*
X162186913Y-102771633D01*
X162285228Y-102800500D01*
X162414770Y-102800500D01*
X162414772Y-102800500D01*
X162539069Y-102764004D01*
X162648049Y-102693967D01*
X162732882Y-102596063D01*
X162786697Y-102478226D01*
X162805133Y-102350000D01*
X162786697Y-102221774D01*
X162732882Y-102103937D01*
X162732881Y-102103936D01*
X162732881Y-102103935D01*
X162658509Y-102018105D01*
X162648049Y-102006033D01*
X162648048Y-102006032D01*
X162641486Y-101998459D01*
X162625498Y-101967446D01*
X162625498Y-101932554D01*
X162641486Y-101901541D01*
X162649856Y-101891882D01*
X162732882Y-101796063D01*
X162786697Y-101678226D01*
X162805133Y-101550000D01*
X162786697Y-101421774D01*
X162732882Y-101303937D01*
X162732881Y-101303936D01*
X162732881Y-101303935D01*
X162641486Y-101198459D01*
X162625498Y-101167446D01*
X162625498Y-101132554D01*
X162641486Y-101101541D01*
X162663051Y-101076654D01*
X162732882Y-100996063D01*
X162786697Y-100878226D01*
X162805133Y-100750000D01*
X162786697Y-100621774D01*
X162732882Y-100503937D01*
X162648049Y-100406033D01*
X162539069Y-100335996D01*
X162414772Y-100299500D01*
X162285228Y-100299500D01*
X162187400Y-100328223D01*
X162145705Y-100328223D01*
X162110628Y-100305680D01*
X162093307Y-100267751D01*
X162090290Y-100246769D01*
X162086697Y-100221774D01*
X162032882Y-100103937D01*
X162032881Y-100103936D01*
X162032881Y-100103935D01*
X161941486Y-99998459D01*
X161925498Y-99967446D01*
X161925498Y-99932554D01*
X161941486Y-99901541D01*
X161964051Y-99875500D01*
X162032882Y-99796063D01*
X162086697Y-99678226D01*
X162093307Y-99632247D01*
X162110628Y-99594320D01*
X162145705Y-99571777D01*
X162187400Y-99571776D01*
X162285228Y-99600500D01*
X162414770Y-99600500D01*
X162414772Y-99600500D01*
X162539069Y-99564004D01*
X162648049Y-99493967D01*
X162732882Y-99396063D01*
X162786697Y-99278226D01*
X162805133Y-99150000D01*
X162786697Y-99021774D01*
X162732882Y-98903937D01*
X162732881Y-98903936D01*
X162732881Y-98903935D01*
X162641486Y-98798459D01*
X162625498Y-98767446D01*
X162625498Y-98732554D01*
X162641486Y-98701541D01*
X162732881Y-98596064D01*
X162732880Y-98596064D01*
X162732882Y-98596063D01*
X162786697Y-98478226D01*
X162805133Y-98350000D01*
X162786697Y-98221774D01*
X162732882Y-98103937D01*
X162732881Y-98103936D01*
X162732881Y-98103935D01*
X162641486Y-97998459D01*
X162625498Y-97967446D01*
X162625498Y-97932554D01*
X162641486Y-97901541D01*
X162691861Y-97843405D01*
X162732882Y-97796063D01*
X162786697Y-97678226D01*
X162805133Y-97550000D01*
X162786697Y-97421774D01*
X162732882Y-97303937D01*
X162648049Y-97206033D01*
X162539069Y-97135996D01*
X162414772Y-97099500D01*
X162285228Y-97099500D01*
X162273165Y-97103042D01*
X162186915Y-97128366D01*
X162145219Y-97128365D01*
X162110142Y-97105822D01*
X162092821Y-97067894D01*
X162086210Y-97021916D01*
X162032457Y-96904209D01*
X162018250Y-96887815D01*
X161650000Y-97256066D01*
X161388930Y-97517135D01*
X161461140Y-97563543D01*
X161585299Y-97600000D01*
X161714701Y-97600000D01*
X161812524Y-97571276D01*
X161854221Y-97571275D01*
X161889298Y-97593818D01*
X161906620Y-97631747D01*
X161913302Y-97678225D01*
X161967118Y-97796064D01*
X162058514Y-97901541D01*
X162074502Y-97932554D01*
X162074502Y-97967446D01*
X162058514Y-97998459D01*
X161967118Y-98103935D01*
X161913302Y-98221774D01*
X161906692Y-98267752D01*
X161889371Y-98305680D01*
X161854294Y-98328222D01*
X161812598Y-98328223D01*
X161746802Y-98308904D01*
X161714772Y-98299500D01*
X161585228Y-98299500D01*
X161460931Y-98335996D01*
X161351951Y-98406033D01*
X161272697Y-98497499D01*
X161271431Y-98498960D01*
X161246246Y-98517813D01*
X161215505Y-98524500D01*
X161108852Y-98524500D01*
X161067739Y-98512028D01*
X161040484Y-98478818D01*
X161036274Y-98436063D01*
X161040500Y-98414820D01*
X161040500Y-98085180D01*
X161031767Y-98041278D01*
X161031655Y-98041110D01*
X161019184Y-98000000D01*
X161031656Y-97958887D01*
X161031767Y-97958722D01*
X161040500Y-97914820D01*
X161040500Y-97585180D01*
X161031767Y-97541278D01*
X161031355Y-97540661D01*
X161018884Y-97499548D01*
X161031234Y-97458839D01*
X161040000Y-97414776D01*
X161040000Y-97325000D01*
X159840001Y-97325000D01*
X159840001Y-97414777D01*
X159848762Y-97458830D01*
X159861115Y-97499550D01*
X159848645Y-97540661D01*
X159848233Y-97541276D01*
X159839500Y-97585181D01*
X159839500Y-97914819D01*
X159848233Y-97958723D01*
X159848345Y-97958890D01*
X159860815Y-98000000D01*
X159848345Y-98041110D01*
X159848233Y-98041276D01*
X159843104Y-98067064D01*
X159839500Y-98085180D01*
X159839500Y-98414820D01*
X159848233Y-98458722D01*
X159848233Y-98458723D01*
X159848234Y-98458724D01*
X159848345Y-98458891D01*
X159860814Y-98499998D01*
X159848346Y-98541106D01*
X159848233Y-98541275D01*
X159839500Y-98585179D01*
X159839500Y-98914819D01*
X159848233Y-98958723D01*
X159848345Y-98958890D01*
X159860815Y-99000000D01*
X159848345Y-99041110D01*
X159848233Y-99041276D01*
X159848232Y-99041278D01*
X159848233Y-99041278D01*
X159839500Y-99085180D01*
X159839500Y-99414820D01*
X159848233Y-99458722D01*
X159848233Y-99458723D01*
X159848234Y-99458724D01*
X159848345Y-99458891D01*
X159860814Y-99499998D01*
X159848346Y-99541106D01*
X159848233Y-99541275D01*
X159839500Y-99585179D01*
X159839500Y-99914819D01*
X159848233Y-99958723D01*
X159848345Y-99958890D01*
X159860815Y-100000000D01*
X159848345Y-100041110D01*
X159848233Y-100041276D01*
X159843497Y-100065086D01*
X159839500Y-100085180D01*
X159839500Y-100414820D01*
X159848233Y-100458722D01*
X159848233Y-100458723D01*
X159848234Y-100458724D01*
X159848345Y-100458891D01*
X159860814Y-100499998D01*
X159848346Y-100541106D01*
X159848233Y-100541275D01*
X159841727Y-100573984D01*
X159839500Y-100585180D01*
X159839500Y-100914820D01*
X159848233Y-100958722D01*
X159848233Y-100958723D01*
X159848234Y-100958724D01*
X159848345Y-100958891D01*
X159860814Y-100999998D01*
X159848346Y-101041106D01*
X159848233Y-101041275D01*
X159839500Y-101085179D01*
X159839500Y-101414819D01*
X159848233Y-101458723D01*
X159848345Y-101458890D01*
X159860815Y-101500000D01*
X159848345Y-101541110D01*
X159848233Y-101541276D01*
X159839500Y-101585181D01*
X159839500Y-101914819D01*
X159848233Y-101958723D01*
X159848345Y-101958890D01*
X159860815Y-102000000D01*
X159848345Y-102041110D01*
X159848233Y-102041276D01*
X159842410Y-102070546D01*
X159840236Y-102081483D01*
X159839500Y-102085181D01*
X159839500Y-102414819D01*
X157170500Y-102414819D01*
X157170500Y-100000000D01*
X157444749Y-100000000D01*
X157463670Y-100143710D01*
X157519137Y-100277622D01*
X157519138Y-100277624D01*
X157519139Y-100277625D01*
X157607379Y-100392621D01*
X157722375Y-100480861D01*
X157722376Y-100480861D01*
X157722377Y-100480862D01*
X157768576Y-100499998D01*
X157856291Y-100536330D01*
X158000000Y-100555250D01*
X158143709Y-100536330D01*
X158277625Y-100480861D01*
X158392621Y-100392621D01*
X158480861Y-100277625D01*
X158536330Y-100143709D01*
X158555250Y-100000000D01*
X158536330Y-99856291D01*
X158480861Y-99722375D01*
X158392621Y-99607379D01*
X158277625Y-99519139D01*
X158277624Y-99519138D01*
X158277622Y-99519137D01*
X158143710Y-99463670D01*
X158000000Y-99444749D01*
X157856289Y-99463670D01*
X157722377Y-99519137D01*
X157607379Y-99607379D01*
X157519137Y-99722377D01*
X157463670Y-99856289D01*
X157444749Y-100000000D01*
X157170500Y-100000000D01*
X157170500Y-98179058D01*
X157176133Y-98150739D01*
X157192174Y-98126732D01*
X157351460Y-97967446D01*
X158143903Y-97175000D01*
X159840000Y-97175000D01*
X160365000Y-97175000D01*
X160515000Y-97175000D01*
X161039999Y-97175000D01*
X161039999Y-97085225D01*
X161034146Y-97055797D01*
X161035975Y-97019669D01*
X161054711Y-96988724D01*
X161085872Y-96970359D01*
X161116686Y-96961312D01*
X161165035Y-96963616D01*
X161201618Y-96995315D01*
X161210779Y-97042846D01*
X161195373Y-97149999D01*
X161213788Y-97278083D01*
X161267541Y-97395787D01*
X161281749Y-97412182D01*
X161650000Y-97043934D01*
X161911068Y-96782864D01*
X161838856Y-96736455D01*
X161714701Y-96700000D01*
X161585300Y-96700000D01*
X161556224Y-96708537D01*
X161507873Y-96706233D01*
X161471291Y-96674534D01*
X161462130Y-96627003D01*
X161471619Y-96561003D01*
X161475500Y-96534011D01*
X161475500Y-96426588D01*
X161492482Y-96379419D01*
X161535634Y-96353899D01*
X161585148Y-96361740D01*
X161708632Y-96429627D01*
X161867823Y-96470500D01*
X162590925Y-96470500D01*
X162590929Y-96470500D01*
X162713058Y-96455071D01*
X162777322Y-96429627D01*
X162865871Y-96394568D01*
X162998837Y-96297963D01*
X163103600Y-96171326D01*
X163173579Y-96022613D01*
X163204376Y-95861170D01*
X163194056Y-95697140D01*
X163143268Y-95540829D01*
X163097575Y-95468828D01*
X165745623Y-95468828D01*
X165755000Y-95617856D01*
X165755944Y-95632860D01*
X165806732Y-95789171D01*
X165894798Y-95927940D01*
X166014607Y-96040448D01*
X166158632Y-96119627D01*
X166317823Y-96160500D01*
X167040925Y-96160500D01*
X167040929Y-96160500D01*
X167163058Y-96145071D01*
X167227322Y-96119627D01*
X167315871Y-96084568D01*
X167448837Y-95987963D01*
X167553600Y-95861326D01*
X167623579Y-95712613D01*
X167653889Y-95553722D01*
X167654376Y-95551171D01*
X167651125Y-95499500D01*
X167644056Y-95387140D01*
X167593268Y-95230829D01*
X167505202Y-95092060D01*
X167385393Y-94979552D01*
X167385392Y-94979551D01*
X167241366Y-94900372D01*
X167082177Y-94859500D01*
X166359075Y-94859500D01*
X166359071Y-94859500D01*
X166236941Y-94874928D01*
X166084129Y-94935431D01*
X165951163Y-95032037D01*
X165846400Y-95158673D01*
X165776420Y-95307387D01*
X165745623Y-95468828D01*
X163097575Y-95468828D01*
X163055202Y-95402060D01*
X162935393Y-95289552D01*
X162935392Y-95289551D01*
X162791366Y-95210372D01*
X162632177Y-95169500D01*
X161909075Y-95169500D01*
X161909071Y-95169500D01*
X161786941Y-95184928D01*
X161634129Y-95245431D01*
X161501163Y-95342037D01*
X161396400Y-95468673D01*
X161326420Y-95617387D01*
X161308348Y-95712123D01*
X161285071Y-95753342D01*
X161241575Y-95772019D01*
X161210308Y-95764183D01*
X161209770Y-95766019D01*
X161068369Y-95724500D01*
X161068367Y-95724500D01*
X160931633Y-95724500D01*
X160931631Y-95724500D01*
X160800440Y-95763021D01*
X160685410Y-95836944D01*
X160595870Y-95940280D01*
X160539068Y-96064658D01*
X160524500Y-96165990D01*
X160524500Y-96534010D01*
X160539068Y-96635341D01*
X160595870Y-96759719D01*
X160654638Y-96827541D01*
X160671959Y-96865469D01*
X160666025Y-96906741D01*
X160638719Y-96938253D01*
X160598712Y-96950000D01*
X160515000Y-96950000D01*
X160515000Y-97175000D01*
X160365000Y-97175000D01*
X160365000Y-96950001D01*
X159975223Y-96950001D01*
X159931473Y-96958702D01*
X159881856Y-96991855D01*
X159848703Y-97041473D01*
X159840000Y-97085226D01*
X159840000Y-97175000D01*
X158143903Y-97175000D01*
X158153915Y-97164988D01*
X158156687Y-97162357D01*
X158186509Y-97135507D01*
X158196421Y-97113240D01*
X158201957Y-97103047D01*
X158215225Y-97082618D01*
X158216554Y-97074221D01*
X158222040Y-97055701D01*
X158225500Y-97047932D01*
X158225500Y-97023573D01*
X158226411Y-97011996D01*
X158230222Y-96987933D01*
X158228022Y-96979722D01*
X158225500Y-96960569D01*
X158225500Y-94101038D01*
X165005026Y-94101038D01*
X165187746Y-94243254D01*
X165403454Y-94359989D01*
X165635432Y-94439627D01*
X165877366Y-94480000D01*
X166122634Y-94480000D01*
X166364567Y-94439627D01*
X166596545Y-94359989D01*
X166812257Y-94243252D01*
X166994972Y-94101039D01*
X166994973Y-94101039D01*
X166000000Y-93106066D01*
X165005026Y-94101038D01*
X158225500Y-94101038D01*
X158225500Y-93007861D01*
X158225601Y-93003988D01*
X158225810Y-93000000D01*
X162494353Y-93000000D01*
X162495483Y-93007861D01*
X162514834Y-93142456D01*
X162574623Y-93273374D01*
X162668871Y-93382143D01*
X162734961Y-93424616D01*
X162789947Y-93459953D01*
X162928039Y-93500500D01*
X163071959Y-93500500D01*
X163071961Y-93500500D01*
X163210053Y-93459953D01*
X163331128Y-93382143D01*
X163425377Y-93273373D01*
X163485165Y-93142457D01*
X163505647Y-93000000D01*
X164514927Y-93000000D01*
X164535181Y-93244431D01*
X164595394Y-93482206D01*
X164693917Y-93706816D01*
X164828069Y-93912150D01*
X164901747Y-93992184D01*
X164901748Y-93992185D01*
X165893932Y-93000000D01*
X166106066Y-93000000D01*
X167098251Y-93992185D01*
X167098251Y-93992184D01*
X167171930Y-93912150D01*
X167306082Y-93706816D01*
X167404605Y-93482206D01*
X167464818Y-93244431D01*
X167485072Y-93000000D01*
X167464818Y-92755568D01*
X167404605Y-92517793D01*
X167306082Y-92293183D01*
X167171930Y-92087849D01*
X167098251Y-92007814D01*
X166106066Y-93000000D01*
X165893932Y-93000000D01*
X165893933Y-92999999D01*
X164901748Y-92007814D01*
X164901747Y-92007814D01*
X164828069Y-92087849D01*
X164693917Y-92293183D01*
X164595394Y-92517793D01*
X164535181Y-92755568D01*
X164514927Y-93000000D01*
X163505647Y-93000000D01*
X163485165Y-92857543D01*
X163425377Y-92726627D01*
X163425376Y-92726626D01*
X163425376Y-92726625D01*
X163331128Y-92617856D01*
X163210054Y-92540047D01*
X163162465Y-92526074D01*
X163071961Y-92499500D01*
X162928039Y-92499500D01*
X162869382Y-92516723D01*
X162789945Y-92540047D01*
X162668871Y-92617856D01*
X162574623Y-92726625D01*
X162514834Y-92857543D01*
X162494353Y-92999999D01*
X162494353Y-93000000D01*
X158225810Y-93000000D01*
X158225936Y-92997589D01*
X158227700Y-92963936D01*
X158218967Y-92941186D01*
X158215671Y-92930056D01*
X158210607Y-92906231D01*
X158205611Y-92899355D01*
X158196393Y-92882379D01*
X158193346Y-92874440D01*
X158176115Y-92857210D01*
X158168574Y-92848380D01*
X158154260Y-92828677D01*
X158146895Y-92824425D01*
X158131573Y-92812667D01*
X157217864Y-91898959D01*
X165005025Y-91898959D01*
X165999999Y-92893933D01*
X166994973Y-91898959D01*
X166812256Y-91756747D01*
X166596545Y-91640010D01*
X166364567Y-91560372D01*
X166122634Y-91520000D01*
X165877366Y-91520000D01*
X165635432Y-91560372D01*
X165403454Y-91640010D01*
X165187743Y-91756747D01*
X165005025Y-91898959D01*
X157217864Y-91898959D01*
X156840007Y-91521102D01*
X156837340Y-91518292D01*
X156823781Y-91503233D01*
X156810507Y-91488491D01*
X156810506Y-91488490D01*
X156810505Y-91488489D01*
X156788253Y-91478582D01*
X156778051Y-91473044D01*
X156757618Y-91459774D01*
X156757617Y-91459773D01*
X156757616Y-91459773D01*
X156749217Y-91458443D01*
X156730700Y-91452958D01*
X156722932Y-91449500D01*
X156698573Y-91449500D01*
X156686998Y-91448589D01*
X156662935Y-91444778D01*
X156654721Y-91446979D01*
X156635570Y-91449500D01*
X148190630Y-91449500D01*
X148156762Y-91441295D01*
X148130405Y-91418499D01*
X148117403Y-91386168D01*
X148115573Y-91373607D01*
X148075329Y-91291285D01*
X148058775Y-91257423D01*
X148061439Y-91256120D01*
X148052255Y-91238937D01*
X148056466Y-91196181D01*
X148083721Y-91162971D01*
X148124833Y-91150500D01*
X165965649Y-91150500D01*
X165997571Y-91150500D01*
X166002410Y-91150657D01*
X166236572Y-91166006D01*
X166246168Y-91167270D01*
X166473925Y-91212573D01*
X166483274Y-91215077D01*
X166703183Y-91289727D01*
X166712120Y-91293429D01*
X166920409Y-91396145D01*
X166928774Y-91400975D01*
X167121875Y-91530001D01*
X167129545Y-91535886D01*
X167157466Y-91560372D01*
X167304147Y-91689008D01*
X167310991Y-91695852D01*
X167464109Y-91870449D01*
X167470000Y-91878126D01*
X167594714Y-92064774D01*
X167599019Y-92071216D01*
X167603856Y-92079595D01*
X167645578Y-92164198D01*
X167706569Y-92287876D01*
X167710273Y-92296818D01*
X167784921Y-92516723D01*
X167787426Y-92526074D01*
X167832729Y-92753831D01*
X167833993Y-92763427D01*
X167849342Y-92997589D01*
X167849500Y-93002429D01*
X167849500Y-106997571D01*
X167849342Y-107002411D01*
X167833993Y-107236572D01*
X167832729Y-107246168D01*
X167787426Y-107473925D01*
X167784921Y-107483276D01*
X167710273Y-107703181D01*
X167706569Y-107712123D01*
X167603859Y-107920400D01*
X167599019Y-107928783D01*
X167470002Y-108121870D01*
X167464109Y-108129550D01*
X167310991Y-108304147D01*
X167304147Y-108310991D01*
X167129550Y-108464109D01*
X167121870Y-108470002D01*
X166928783Y-108599019D01*
X166920400Y-108603859D01*
X166712123Y-108706569D01*
X166703181Y-108710273D01*
X166483276Y-108784921D01*
X166473925Y-108787426D01*
X166246168Y-108832729D01*
X166236572Y-108833993D01*
X166002411Y-108849342D01*
X165997571Y-108849500D01*
X134002429Y-108849500D01*
X133997589Y-108849342D01*
X133763427Y-108833993D01*
X133753831Y-108832729D01*
X133526074Y-108787426D01*
X133516723Y-108784921D01*
X133296818Y-108710273D01*
X133287876Y-108706569D01*
X133164039Y-108645500D01*
X133079595Y-108603856D01*
X133071220Y-108599021D01*
X132878126Y-108470000D01*
X132870449Y-108464109D01*
X132863120Y-108457682D01*
X132751723Y-108359989D01*
X132695852Y-108310991D01*
X132689008Y-108304147D01*
X132535890Y-108129550D01*
X132530001Y-108121875D01*
X132516078Y-108101038D01*
X133005026Y-108101038D01*
X133187746Y-108243254D01*
X133403454Y-108359989D01*
X133635432Y-108439627D01*
X133877366Y-108480000D01*
X134122634Y-108480000D01*
X134364567Y-108439627D01*
X134596545Y-108359989D01*
X134812257Y-108243252D01*
X134994972Y-108101039D01*
X134994973Y-108101039D01*
X134000000Y-107106066D01*
X133005026Y-108101038D01*
X132516078Y-108101038D01*
X132400975Y-107928774D01*
X132396145Y-107920409D01*
X132293429Y-107712120D01*
X132289726Y-107703181D01*
X132276602Y-107664520D01*
X132215077Y-107483274D01*
X132212573Y-107473925D01*
X132167270Y-107246168D01*
X132166006Y-107236572D01*
X132150658Y-107002411D01*
X132150579Y-107000000D01*
X132514927Y-107000000D01*
X132535181Y-107244431D01*
X132595394Y-107482206D01*
X132693917Y-107706816D01*
X132828069Y-107912150D01*
X132901747Y-107992184D01*
X132901748Y-107992185D01*
X133893934Y-107000000D01*
X133893933Y-106999999D01*
X134106065Y-106999999D01*
X135098251Y-107992185D01*
X135098251Y-107992184D01*
X135171930Y-107912150D01*
X135306082Y-107706816D01*
X135384019Y-107529137D01*
X135412040Y-107496442D01*
X135453520Y-107484882D01*
X135494412Y-107498372D01*
X135520871Y-107532344D01*
X135531030Y-107558810D01*
X135534327Y-107569940D01*
X135539392Y-107593767D01*
X135544389Y-107600645D01*
X135553604Y-107617617D01*
X135556653Y-107625559D01*
X135573880Y-107642786D01*
X135581421Y-107651615D01*
X135589890Y-107663272D01*
X135595740Y-107671323D01*
X135603101Y-107675573D01*
X135618426Y-107687332D01*
X136334992Y-108403897D01*
X136337658Y-108406707D01*
X136364492Y-108436509D01*
X136386747Y-108446418D01*
X136396953Y-108451959D01*
X136417382Y-108465226D01*
X136425781Y-108466556D01*
X136444300Y-108472042D01*
X136452067Y-108475500D01*
X136452068Y-108475500D01*
X136476427Y-108475500D01*
X136488002Y-108476411D01*
X136491544Y-108476971D01*
X136512065Y-108480222D01*
X136520279Y-108478020D01*
X136539430Y-108475500D01*
X140202068Y-108475500D01*
X140226427Y-108475500D01*
X140238002Y-108476411D01*
X140241544Y-108476971D01*
X140262065Y-108480222D01*
X140270279Y-108478020D01*
X140289430Y-108475500D01*
X141242139Y-108475500D01*
X141246012Y-108475601D01*
X141286064Y-108477700D01*
X141308812Y-108468967D01*
X141319930Y-108465673D01*
X141343768Y-108460607D01*
X141350644Y-108455610D01*
X141367624Y-108446392D01*
X141367621Y-108446392D01*
X141375560Y-108443346D01*
X141392793Y-108426112D01*
X141401616Y-108418577D01*
X141421323Y-108404260D01*
X141425572Y-108396898D01*
X141437329Y-108381575D01*
X141851731Y-107967173D01*
X141875738Y-107951133D01*
X141904057Y-107945500D01*
X141935500Y-107945500D01*
X141972500Y-107955414D01*
X141999586Y-107982500D01*
X142009500Y-108019500D01*
X142009500Y-108509820D01*
X142018233Y-108553722D01*
X142051496Y-108603504D01*
X142101278Y-108636767D01*
X142145180Y-108645500D01*
X143064819Y-108645500D01*
X143064820Y-108645500D01*
X143108722Y-108636767D01*
X143158504Y-108603504D01*
X143191767Y-108553722D01*
X143200500Y-108509820D01*
X144799500Y-108509820D01*
X144808233Y-108553722D01*
X144841496Y-108603504D01*
X144891278Y-108636767D01*
X144935180Y-108645500D01*
X145854819Y-108645500D01*
X145854820Y-108645500D01*
X145898722Y-108636767D01*
X145948504Y-108603504D01*
X145981767Y-108553722D01*
X145990500Y-108509820D01*
X145990500Y-108187623D01*
X147029500Y-108187623D01*
X147032269Y-108211496D01*
X147046291Y-108243252D01*
X147075384Y-108309141D01*
X147150859Y-108384616D01*
X147248502Y-108427730D01*
X147272377Y-108430500D01*
X147727622Y-108430499D01*
X147727623Y-108430499D01*
X147735580Y-108429575D01*
X147751498Y-108427730D01*
X147849141Y-108384616D01*
X147924616Y-108309141D01*
X147937655Y-108279609D01*
X147964951Y-108247500D01*
X148005350Y-108235500D01*
X149244650Y-108235500D01*
X149285049Y-108247500D01*
X149312344Y-108279609D01*
X149325384Y-108309141D01*
X149400859Y-108384616D01*
X149498502Y-108427730D01*
X149522377Y-108430500D01*
X149977622Y-108430499D01*
X149977623Y-108430499D01*
X149985580Y-108429575D01*
X150001498Y-108427730D01*
X150099141Y-108384616D01*
X150174616Y-108309141D01*
X150187655Y-108279609D01*
X150214951Y-108247500D01*
X150255350Y-108235500D01*
X151494650Y-108235500D01*
X151535049Y-108247500D01*
X151562344Y-108279609D01*
X151575384Y-108309141D01*
X151650859Y-108384616D01*
X151748502Y-108427730D01*
X151772377Y-108430500D01*
X152227622Y-108430499D01*
X152227623Y-108430499D01*
X152235580Y-108429575D01*
X152251498Y-108427730D01*
X152349141Y-108384616D01*
X152424616Y-108309141D01*
X152467730Y-108211498D01*
X152470500Y-108187623D01*
X152470499Y-107832378D01*
X152467730Y-107808502D01*
X152424616Y-107710859D01*
X152349141Y-107635384D01*
X152254891Y-107593768D01*
X152251496Y-107592269D01*
X152230755Y-107589863D01*
X152227622Y-107589500D01*
X151772376Y-107589500D01*
X151748503Y-107592269D01*
X151650858Y-107635384D01*
X151575384Y-107710858D01*
X151568919Y-107725500D01*
X151562351Y-107740377D01*
X151562345Y-107740390D01*
X151535049Y-107772500D01*
X151494650Y-107784500D01*
X150255350Y-107784500D01*
X150214951Y-107772500D01*
X150187655Y-107740390D01*
X150174616Y-107710859D01*
X150099141Y-107635384D01*
X150004891Y-107593768D01*
X150001496Y-107592269D01*
X149980755Y-107589863D01*
X149977622Y-107589500D01*
X149522376Y-107589500D01*
X149498503Y-107592269D01*
X149400858Y-107635384D01*
X149325384Y-107710858D01*
X149318919Y-107725500D01*
X149312351Y-107740377D01*
X149312345Y-107740390D01*
X149285049Y-107772500D01*
X149244650Y-107784500D01*
X148005350Y-107784500D01*
X147964951Y-107772500D01*
X147937655Y-107740390D01*
X147924616Y-107710859D01*
X147849141Y-107635384D01*
X147754891Y-107593768D01*
X147751496Y-107592269D01*
X147730755Y-107589863D01*
X147727622Y-107589500D01*
X147272376Y-107589500D01*
X147248503Y-107592269D01*
X147150858Y-107635384D01*
X147075385Y-107710857D01*
X147032269Y-107808503D01*
X147029500Y-107832377D01*
X147029500Y-108187623D01*
X145990500Y-108187623D01*
X145990500Y-107065000D01*
X147030000Y-107065000D01*
X147030000Y-107167557D01*
X147032763Y-107191379D01*
X147075804Y-107288855D01*
X147151144Y-107364195D01*
X147248620Y-107407236D01*
X147272443Y-107410000D01*
X147425000Y-107410000D01*
X147425000Y-107065000D01*
X147575000Y-107065000D01*
X147575000Y-107410000D01*
X147727557Y-107410000D01*
X147751379Y-107407236D01*
X147848855Y-107364195D01*
X147924195Y-107288855D01*
X147967236Y-107191379D01*
X147970000Y-107167557D01*
X147970000Y-107065000D01*
X147575000Y-107065000D01*
X147425000Y-107065000D01*
X147030000Y-107065000D01*
X145990500Y-107065000D01*
X145990500Y-106930180D01*
X145981767Y-106886278D01*
X145948504Y-106836496D01*
X145898722Y-106803233D01*
X145854820Y-106794500D01*
X144935180Y-106794500D01*
X144891278Y-106803233D01*
X144841496Y-106836496D01*
X144808233Y-106886278D01*
X144799500Y-106930180D01*
X144799500Y-108509820D01*
X143200500Y-108509820D01*
X143200500Y-106930180D01*
X143191767Y-106886278D01*
X143158504Y-106836496D01*
X143108722Y-106803233D01*
X143064820Y-106794500D01*
X142145180Y-106794500D01*
X142102324Y-106803025D01*
X142101278Y-106803233D01*
X142051496Y-106836496D01*
X142018233Y-106886278D01*
X142009500Y-106930181D01*
X142009500Y-107420500D01*
X141999586Y-107457500D01*
X141972500Y-107484586D01*
X141935500Y-107494500D01*
X141787861Y-107494500D01*
X141783988Y-107494399D01*
X141777996Y-107494085D01*
X141743936Y-107492300D01*
X141743935Y-107492300D01*
X141721193Y-107501029D01*
X141710064Y-107504326D01*
X141686230Y-107509392D01*
X141679348Y-107514393D01*
X141662379Y-107523607D01*
X141654439Y-107526655D01*
X141637209Y-107543884D01*
X141628384Y-107551421D01*
X141608676Y-107565740D01*
X141604424Y-107573105D01*
X141592667Y-107588426D01*
X141536825Y-107644268D01*
X141498936Y-107664520D01*
X141456180Y-107660309D01*
X141422970Y-107633054D01*
X141410499Y-107591944D01*
X141410499Y-107419056D01*
X141416132Y-107390739D01*
X141432171Y-107366733D01*
X141653915Y-107144988D01*
X141656687Y-107142357D01*
X141686509Y-107115507D01*
X141696416Y-107093253D01*
X141701955Y-107083050D01*
X141715226Y-107062618D01*
X141716556Y-107054217D01*
X141722042Y-107035698D01*
X141725500Y-107027932D01*
X141725500Y-107003573D01*
X141726411Y-106991998D01*
X141728666Y-106977758D01*
X141730222Y-106967935D01*
X141728020Y-106959720D01*
X141725500Y-106940570D01*
X141725500Y-105584840D01*
X141740792Y-105539791D01*
X141780349Y-105513361D01*
X141792065Y-105510221D01*
X141792066Y-105510222D01*
X141800280Y-105508020D01*
X141819431Y-105505500D01*
X143140500Y-105505500D01*
X143177500Y-105515414D01*
X143204586Y-105542500D01*
X143214500Y-105579500D01*
X143214500Y-105929820D01*
X143223233Y-105973722D01*
X143256496Y-106023504D01*
X143306278Y-106056767D01*
X143350180Y-106065500D01*
X144649819Y-106065500D01*
X144649820Y-106065500D01*
X144693722Y-106056767D01*
X144743504Y-106023504D01*
X144776767Y-105973722D01*
X144785500Y-105929820D01*
X144785500Y-105579500D01*
X144795414Y-105542500D01*
X144822500Y-105515414D01*
X144859500Y-105505500D01*
X145155942Y-105505500D01*
X145184261Y-105511133D01*
X145208268Y-105527174D01*
X146334993Y-106653899D01*
X146337659Y-106656708D01*
X146364493Y-106686510D01*
X146386745Y-106696416D01*
X146396946Y-106701954D01*
X146417383Y-106715226D01*
X146425782Y-106716555D01*
X146444305Y-106722043D01*
X146452068Y-106725500D01*
X146476428Y-106725500D01*
X146488003Y-106726411D01*
X146491545Y-106726971D01*
X146512066Y-106730222D01*
X146520280Y-106728020D01*
X146539431Y-106725500D01*
X146957005Y-106725500D01*
X146996443Y-106736885D01*
X147023746Y-106767537D01*
X147030512Y-106808025D01*
X147030000Y-106812440D01*
X147030000Y-106915000D01*
X147970000Y-106915000D01*
X147970000Y-106812440D01*
X147968908Y-106803025D01*
X147975674Y-106762538D01*
X148002976Y-106731885D01*
X148042415Y-106720500D01*
X149130942Y-106720500D01*
X149159261Y-106726133D01*
X149183268Y-106742174D01*
X149257826Y-106816732D01*
X149273867Y-106840739D01*
X149279500Y-106869058D01*
X149279500Y-107167623D01*
X149282269Y-107191496D01*
X149290660Y-107210499D01*
X149325384Y-107289141D01*
X149400859Y-107364616D01*
X149498502Y-107407730D01*
X149522377Y-107410500D01*
X149977622Y-107410499D01*
X149977623Y-107410499D01*
X149985580Y-107409576D01*
X150001498Y-107407730D01*
X150099141Y-107364616D01*
X150174616Y-107289141D01*
X150217730Y-107191498D01*
X150220500Y-107167623D01*
X150220499Y-106812378D01*
X150219438Y-106803233D01*
X150217730Y-106788503D01*
X150213281Y-106778427D01*
X150174616Y-106690859D01*
X150099141Y-106615384D01*
X150001498Y-106572270D01*
X150001496Y-106572269D01*
X149977623Y-106569500D01*
X149679057Y-106569500D01*
X149650738Y-106563867D01*
X149626731Y-106547826D01*
X149420007Y-106341102D01*
X149417340Y-106338292D01*
X149390505Y-106308489D01*
X149368253Y-106298582D01*
X149358051Y-106293044D01*
X149337618Y-106279774D01*
X149337617Y-106279773D01*
X149337616Y-106279773D01*
X149329217Y-106278443D01*
X149310700Y-106272958D01*
X149302932Y-106269500D01*
X149278573Y-106269500D01*
X149266998Y-106268589D01*
X149242935Y-106264778D01*
X149234721Y-106266979D01*
X149215570Y-106269500D01*
X147173744Y-106269500D01*
X147169871Y-106269399D01*
X147129819Y-106267300D01*
X147123865Y-106269585D01*
X147097347Y-106274500D01*
X146624057Y-106274500D01*
X146595738Y-106268867D01*
X146571731Y-106252826D01*
X145445007Y-105126102D01*
X145442340Y-105123292D01*
X145415505Y-105093489D01*
X145393253Y-105083582D01*
X145383051Y-105078044D01*
X145362618Y-105064774D01*
X145362617Y-105064773D01*
X145362616Y-105064773D01*
X145354217Y-105063443D01*
X145335700Y-105057958D01*
X145327932Y-105054500D01*
X145303573Y-105054500D01*
X145291998Y-105053589D01*
X145267935Y-105049778D01*
X145259721Y-105051979D01*
X145240570Y-105054500D01*
X144859500Y-105054500D01*
X144822500Y-105044586D01*
X144795414Y-105017500D01*
X144785500Y-104980500D01*
X144785500Y-104630181D01*
X144782180Y-104613491D01*
X144776767Y-104586278D01*
X144743504Y-104536496D01*
X144693722Y-104503233D01*
X144649820Y-104494500D01*
X144649819Y-104494500D01*
X144290290Y-104494500D01*
X144248378Y-104481487D01*
X144221207Y-104447023D01*
X144218971Y-104441199D01*
X144215671Y-104430059D01*
X144212145Y-104413471D01*
X144210607Y-104406232D01*
X144205608Y-104399352D01*
X144196390Y-104382374D01*
X144195564Y-104380222D01*
X144193345Y-104374440D01*
X144176118Y-104357213D01*
X144168583Y-104348391D01*
X144154260Y-104328677D01*
X144154259Y-104328676D01*
X144154258Y-104328675D01*
X144146896Y-104324425D01*
X144131571Y-104312666D01*
X143415730Y-103596825D01*
X143395478Y-103558936D01*
X143399689Y-103516180D01*
X143426944Y-103482970D01*
X143468053Y-103470499D01*
X143687622Y-103470499D01*
X143687624Y-103470499D01*
X143701694Y-103468867D01*
X143711498Y-103467730D01*
X143809141Y-103424616D01*
X143884616Y-103349141D01*
X143919733Y-103269608D01*
X143947029Y-103237500D01*
X143987428Y-103225500D01*
X144492139Y-103225500D01*
X144496012Y-103225601D01*
X144536064Y-103227700D01*
X144558812Y-103218967D01*
X144569930Y-103215673D01*
X144593768Y-103210607D01*
X144600644Y-103205610D01*
X144617624Y-103196392D01*
X144617621Y-103196392D01*
X144625560Y-103193346D01*
X144642794Y-103176111D01*
X144651616Y-103168576D01*
X144671323Y-103154260D01*
X144675572Y-103146898D01*
X144687329Y-103131575D01*
X145071731Y-102747174D01*
X145095740Y-102731133D01*
X145124058Y-102725500D01*
X145450167Y-102725500D01*
X145491279Y-102737971D01*
X145518534Y-102771181D01*
X145522745Y-102813937D01*
X145502493Y-102851826D01*
X145435801Y-102918517D01*
X145384426Y-103023605D01*
X145374500Y-103091740D01*
X145374500Y-103558260D01*
X145384426Y-103626394D01*
X145435801Y-103731482D01*
X145518517Y-103814198D01*
X145623605Y-103865573D01*
X145691740Y-103875500D01*
X146308260Y-103875500D01*
X146376394Y-103865573D01*
X146429727Y-103839500D01*
X146481483Y-103814198D01*
X146564198Y-103731483D01*
X146601874Y-103654413D01*
X146634036Y-103621353D01*
X146679529Y-103613761D01*
X146720680Y-103634586D01*
X147124925Y-104038830D01*
X147582826Y-104496731D01*
X147598867Y-104520738D01*
X147604500Y-104549057D01*
X147604500Y-105569865D01*
X147607414Y-105594989D01*
X147607415Y-105594991D01*
X147652794Y-105697765D01*
X147732235Y-105777206D01*
X147835009Y-105822585D01*
X147860135Y-105825500D01*
X148249864Y-105825499D01*
X148249865Y-105825499D01*
X148258239Y-105824527D01*
X148274991Y-105822585D01*
X148377765Y-105777206D01*
X148457206Y-105697765D01*
X148502585Y-105594991D01*
X148505500Y-105569865D01*
X148874500Y-105569865D01*
X148877414Y-105594989D01*
X148877415Y-105594991D01*
X148922794Y-105697765D01*
X149002235Y-105777206D01*
X149105009Y-105822585D01*
X149130135Y-105825500D01*
X149519864Y-105825499D01*
X149519865Y-105825499D01*
X149528239Y-105824527D01*
X149544991Y-105822585D01*
X149618861Y-105789967D01*
X149662349Y-105784923D01*
X149701076Y-105805336D01*
X150373565Y-106477826D01*
X151040268Y-107144529D01*
X151049470Y-107155742D01*
X151059398Y-107170600D01*
X151074255Y-107180527D01*
X151074263Y-107180534D01*
X151142258Y-107225965D01*
X151142260Y-107225966D01*
X151240000Y-107245409D01*
X151255868Y-107242252D01*
X151257530Y-107241922D01*
X151271967Y-107240500D01*
X151505689Y-107240500D01*
X151546088Y-107252500D01*
X151573382Y-107284608D01*
X151575384Y-107289141D01*
X151650859Y-107364616D01*
X151748502Y-107407730D01*
X151772377Y-107410500D01*
X152227622Y-107410499D01*
X152227623Y-107410499D01*
X152235580Y-107409576D01*
X152251498Y-107407730D01*
X152349141Y-107364616D01*
X152424616Y-107289141D01*
X152424616Y-107289140D01*
X152434397Y-107279360D01*
X152434811Y-107279774D01*
X152449497Y-107262500D01*
X152489896Y-107250500D01*
X152635588Y-107250500D01*
X152663907Y-107256133D01*
X152687914Y-107272174D01*
X153317826Y-107902087D01*
X153333867Y-107926094D01*
X153339500Y-107954413D01*
X153339500Y-108213373D01*
X153342317Y-108237660D01*
X153342318Y-108237662D01*
X153386187Y-108337016D01*
X153462984Y-108413813D01*
X153562338Y-108457682D01*
X153586627Y-108460500D01*
X153953372Y-108460499D01*
X153953373Y-108460499D01*
X153961468Y-108459559D01*
X153977662Y-108457682D01*
X154077016Y-108413813D01*
X154153813Y-108337016D01*
X154182579Y-108271866D01*
X154209874Y-108239759D01*
X154250273Y-108227758D01*
X154290671Y-108239758D01*
X154317967Y-108271867D01*
X154346606Y-108336727D01*
X154423272Y-108413393D01*
X154522452Y-108457187D01*
X154546701Y-108460000D01*
X154655000Y-108460000D01*
X154655000Y-108075000D01*
X154805000Y-108075000D01*
X154805000Y-108460000D01*
X154913299Y-108460000D01*
X154937547Y-108457187D01*
X155036727Y-108413393D01*
X155113393Y-108336727D01*
X155157187Y-108237547D01*
X155160000Y-108213299D01*
X155160000Y-108101038D01*
X165005026Y-108101038D01*
X165187746Y-108243254D01*
X165403454Y-108359989D01*
X165635432Y-108439627D01*
X165877366Y-108480000D01*
X166122634Y-108480000D01*
X166364567Y-108439627D01*
X166596545Y-108359989D01*
X166812257Y-108243252D01*
X166994972Y-108101039D01*
X166994973Y-108101039D01*
X166000000Y-107106066D01*
X165005026Y-108101038D01*
X155160000Y-108101038D01*
X155160000Y-108075000D01*
X154805000Y-108075000D01*
X154655000Y-108075000D01*
X154655000Y-107540000D01*
X154805000Y-107540000D01*
X154805000Y-107925000D01*
X155160000Y-107925000D01*
X155160000Y-107786701D01*
X155157187Y-107762452D01*
X155113393Y-107663272D01*
X155036727Y-107586606D01*
X154937547Y-107542812D01*
X154913299Y-107540000D01*
X154805000Y-107540000D01*
X154655000Y-107540000D01*
X154546701Y-107540000D01*
X154522452Y-107542812D01*
X154423272Y-107586606D01*
X154346605Y-107663273D01*
X154317966Y-107728133D01*
X154290670Y-107760242D01*
X154250271Y-107772242D01*
X154209872Y-107760241D01*
X154182579Y-107728133D01*
X154153813Y-107662984D01*
X154077016Y-107586187D01*
X153977662Y-107542318D01*
X153977660Y-107542317D01*
X153953373Y-107539500D01*
X153694413Y-107539500D01*
X153666095Y-107533867D01*
X153642087Y-107517826D01*
X153543318Y-107419057D01*
X153429698Y-107305437D01*
X153408341Y-107259941D01*
X153420975Y-107211293D01*
X153461774Y-107181938D01*
X153511914Y-107185417D01*
X153562338Y-107207682D01*
X153586627Y-107210500D01*
X153953372Y-107210499D01*
X153953373Y-107210499D01*
X153961468Y-107209560D01*
X153977662Y-107207682D01*
X154077016Y-107163813D01*
X154153813Y-107087016D01*
X154182579Y-107021866D01*
X154209874Y-106989759D01*
X154250273Y-106977758D01*
X154290671Y-106989758D01*
X154317967Y-107021867D01*
X154346606Y-107086727D01*
X154423272Y-107163393D01*
X154522452Y-107207187D01*
X154546701Y-107210000D01*
X154655000Y-107210000D01*
X154655000Y-106825000D01*
X154805000Y-106825000D01*
X154805000Y-107210000D01*
X154913299Y-107210000D01*
X154937547Y-107207187D01*
X155036727Y-107163393D01*
X155113393Y-107086727D01*
X155151688Y-107000000D01*
X164514927Y-107000000D01*
X164535181Y-107244431D01*
X164595394Y-107482206D01*
X164693917Y-107706816D01*
X164828069Y-107912150D01*
X164901747Y-107992184D01*
X164901748Y-107992185D01*
X165893934Y-107000000D01*
X166106066Y-107000000D01*
X167098251Y-107992185D01*
X167098251Y-107992184D01*
X167171930Y-107912150D01*
X167306082Y-107706816D01*
X167404605Y-107482206D01*
X167464818Y-107244431D01*
X167485072Y-107000000D01*
X167464818Y-106755568D01*
X167404605Y-106517793D01*
X167306082Y-106293183D01*
X167171930Y-106087849D01*
X167098251Y-106007814D01*
X166106066Y-107000000D01*
X165893934Y-107000000D01*
X164901748Y-106007814D01*
X164901747Y-106007814D01*
X164828069Y-106087849D01*
X164693917Y-106293183D01*
X164595394Y-106517793D01*
X164535181Y-106755568D01*
X164514927Y-107000000D01*
X155151688Y-107000000D01*
X155157187Y-106987547D01*
X155160000Y-106963299D01*
X155160000Y-106825000D01*
X154805000Y-106825000D01*
X154655000Y-106825000D01*
X154655000Y-106290000D01*
X154805000Y-106290000D01*
X154805000Y-106675000D01*
X155160000Y-106675000D01*
X155160000Y-106536701D01*
X155157187Y-106512452D01*
X155113393Y-106413272D01*
X155036727Y-106336606D01*
X154937547Y-106292812D01*
X154913299Y-106290000D01*
X154805000Y-106290000D01*
X154655000Y-106290000D01*
X154546701Y-106290000D01*
X154522452Y-106292812D01*
X154423272Y-106336606D01*
X154346605Y-106413273D01*
X154317966Y-106478133D01*
X154290670Y-106510242D01*
X154250271Y-106522242D01*
X154209872Y-106510241D01*
X154182579Y-106478133D01*
X154153813Y-106412984D01*
X154077016Y-106336187D01*
X153977662Y-106292318D01*
X153977660Y-106292317D01*
X153956559Y-106289869D01*
X153953372Y-106289500D01*
X153586626Y-106289500D01*
X153562339Y-106292317D01*
X153464997Y-106335298D01*
X153462984Y-106336187D01*
X153386187Y-106412984D01*
X153367462Y-106455391D01*
X153340168Y-106487499D01*
X153299769Y-106499500D01*
X153259413Y-106499500D01*
X153231094Y-106493867D01*
X153207087Y-106477826D01*
X152899731Y-106170470D01*
X152890528Y-106159256D01*
X152880601Y-106144399D01*
X152827536Y-106108942D01*
X152797741Y-106089034D01*
X152797740Y-106089033D01*
X152700000Y-106069591D01*
X152682475Y-106073078D01*
X152668038Y-106074500D01*
X151729413Y-106074500D01*
X151701095Y-106068867D01*
X151677087Y-106052826D01*
X151632075Y-106007814D01*
X151569108Y-105944847D01*
X151547751Y-105899352D01*
X151547853Y-105898959D01*
X165005025Y-105898959D01*
X165999999Y-106893933D01*
X166994973Y-105898959D01*
X166812256Y-105756747D01*
X166596545Y-105640010D01*
X166364567Y-105560372D01*
X166122634Y-105520000D01*
X165877366Y-105520000D01*
X165635432Y-105560372D01*
X165403454Y-105640010D01*
X165187743Y-105756747D01*
X165005025Y-105898959D01*
X151547853Y-105898959D01*
X151560384Y-105850705D01*
X151601181Y-105821349D01*
X151633678Y-105823603D01*
X151634004Y-105820800D01*
X151670207Y-105825000D01*
X151790000Y-105825000D01*
X151790000Y-104725000D01*
X151940000Y-104725000D01*
X151940000Y-105824999D01*
X152059793Y-105824999D01*
X152084873Y-105822090D01*
X152187477Y-105776786D01*
X152266786Y-105697477D01*
X152312090Y-105594874D01*
X152315000Y-105569793D01*
X152315000Y-104725000D01*
X151940000Y-104725000D01*
X151790000Y-104725000D01*
X151415001Y-104725000D01*
X151415001Y-105569793D01*
X151419200Y-105605996D01*
X151416398Y-105606320D01*
X151418651Y-105638824D01*
X151389294Y-105679618D01*
X151340648Y-105692250D01*
X151295152Y-105670892D01*
X151067173Y-105442913D01*
X151051132Y-105418906D01*
X151045499Y-105390587D01*
X151045499Y-104575000D01*
X151415000Y-104575000D01*
X151790000Y-104575000D01*
X151790000Y-103475001D01*
X151670207Y-103475001D01*
X151645126Y-103477909D01*
X151542522Y-103523213D01*
X151463213Y-103602522D01*
X151417909Y-103705125D01*
X151415000Y-103730207D01*
X151415000Y-104575000D01*
X151045499Y-104575000D01*
X151045499Y-103730134D01*
X151043507Y-103712959D01*
X151042585Y-103705009D01*
X150997206Y-103602235D01*
X150917765Y-103522794D01*
X150917763Y-103522793D01*
X150911535Y-103520043D01*
X150879676Y-103493128D01*
X150874109Y-103475000D01*
X151940000Y-103475000D01*
X151940000Y-104575000D01*
X152314999Y-104575000D01*
X152314999Y-103730207D01*
X152312090Y-103705126D01*
X152266786Y-103602522D01*
X152187477Y-103523213D01*
X152084874Y-103477909D01*
X152059793Y-103475000D01*
X151940000Y-103475000D01*
X150874109Y-103475000D01*
X150867432Y-103453260D01*
X150878691Y-103413102D01*
X150909878Y-103385411D01*
X150951083Y-103378982D01*
X151046839Y-103391589D01*
X151190548Y-103372669D01*
X151324464Y-103317200D01*
X151439460Y-103228960D01*
X151527700Y-103113964D01*
X151583169Y-102980048D01*
X151602089Y-102836339D01*
X151593391Y-102770276D01*
X151598390Y-102732303D01*
X151621709Y-102701913D01*
X151657098Y-102687253D01*
X151695076Y-102692253D01*
X151705067Y-102696391D01*
X151716991Y-102701330D01*
X151860700Y-102720250D01*
X152004409Y-102701330D01*
X152138325Y-102645861D01*
X152253321Y-102557621D01*
X152341561Y-102442625D01*
X152397030Y-102308709D01*
X152415950Y-102165000D01*
X152415844Y-102164198D01*
X152405441Y-102085180D01*
X152397030Y-102021291D01*
X152362241Y-101937301D01*
X152341562Y-101887377D01*
X152341561Y-101887376D01*
X152341561Y-101887375D01*
X152253321Y-101772379D01*
X152138325Y-101684139D01*
X152138324Y-101684138D01*
X152138322Y-101684137D01*
X152004410Y-101628670D01*
X151860700Y-101609749D01*
X151716989Y-101628670D01*
X151583077Y-101684137D01*
X151468079Y-101772379D01*
X151379837Y-101887377D01*
X151377170Y-101893818D01*
X151349915Y-101927029D01*
X151308803Y-101939500D01*
X150842842Y-101939500D01*
X150838969Y-101939399D01*
X150831710Y-101939018D01*
X150798936Y-101937301D01*
X150798935Y-101937301D01*
X150776193Y-101946030D01*
X150765064Y-101949326D01*
X150741231Y-101954392D01*
X150734348Y-101959393D01*
X150717379Y-101968607D01*
X150709439Y-101971655D01*
X150692209Y-101988884D01*
X150683384Y-101996421D01*
X150663676Y-102010740D01*
X150659424Y-102018105D01*
X150647667Y-102033426D01*
X149228267Y-103452826D01*
X149204260Y-103468867D01*
X149175942Y-103474500D01*
X149130135Y-103474500D01*
X149105010Y-103477414D01*
X149002235Y-103522794D01*
X148922794Y-103602235D01*
X148877414Y-103705009D01*
X148874500Y-103730134D01*
X148874500Y-105569865D01*
X148505500Y-105569865D01*
X148505499Y-103730136D01*
X148502585Y-103705009D01*
X148457206Y-103602235D01*
X148377765Y-103522794D01*
X148332385Y-103502756D01*
X148274990Y-103477414D01*
X148249865Y-103474500D01*
X147860134Y-103474500D01*
X147835010Y-103477414D01*
X147732235Y-103522794D01*
X147652794Y-103602235D01*
X147607414Y-103705009D01*
X147606492Y-103712959D01*
X147590725Y-103750711D01*
X147557309Y-103774316D01*
X147516458Y-103776559D01*
X147480660Y-103756755D01*
X146895006Y-103171101D01*
X146892340Y-103168292D01*
X146883511Y-103158486D01*
X146865507Y-103138491D01*
X146865506Y-103138490D01*
X146865505Y-103138489D01*
X146843253Y-103128582D01*
X146833051Y-103123044D01*
X146812618Y-103109774D01*
X146812617Y-103109773D01*
X146812616Y-103109773D01*
X146804217Y-103108443D01*
X146785700Y-103102958D01*
X146777932Y-103099500D01*
X146753573Y-103099500D01*
X146741998Y-103098589D01*
X146717934Y-103094777D01*
X146709778Y-103096963D01*
X146668698Y-103096160D01*
X146634379Y-103073568D01*
X146617401Y-103036153D01*
X146616395Y-103029248D01*
X146615573Y-103023607D01*
X146564198Y-102918517D01*
X146497507Y-102851825D01*
X146477255Y-102813937D01*
X146481466Y-102771181D01*
X146508721Y-102737971D01*
X146549833Y-102725500D01*
X147492139Y-102725500D01*
X147496012Y-102725601D01*
X147536064Y-102727700D01*
X147558812Y-102718967D01*
X147569930Y-102715673D01*
X147593768Y-102710607D01*
X147600644Y-102705610D01*
X147617621Y-102696393D01*
X147625560Y-102693346D01*
X147642791Y-102676112D01*
X147651614Y-102668577D01*
X147671323Y-102654260D01*
X147675575Y-102646894D01*
X147687329Y-102631575D01*
X149071730Y-101247174D01*
X149095738Y-101231133D01*
X149124057Y-101225500D01*
X152375942Y-101225500D01*
X152404261Y-101231133D01*
X152428268Y-101247174D01*
X152887826Y-101706731D01*
X152903867Y-101730738D01*
X152909500Y-101759057D01*
X152909500Y-103431629D01*
X152897499Y-103472028D01*
X152865390Y-103499323D01*
X152851556Y-103505432D01*
X152812234Y-103522794D01*
X152732794Y-103602235D01*
X152687414Y-103705009D01*
X152684500Y-103730134D01*
X152684500Y-105569865D01*
X152687414Y-105594989D01*
X152687415Y-105594991D01*
X152732794Y-105697765D01*
X152812235Y-105777206D01*
X152915009Y-105822585D01*
X152940135Y-105825500D01*
X153329864Y-105825499D01*
X153329865Y-105825499D01*
X153338239Y-105824527D01*
X153354991Y-105822585D01*
X153457765Y-105777206D01*
X153537206Y-105697765D01*
X153582585Y-105594991D01*
X153585500Y-105569865D01*
X153585499Y-103730136D01*
X153582585Y-103705009D01*
X153537206Y-103602235D01*
X153457765Y-103522794D01*
X153404609Y-103499323D01*
X153372501Y-103472028D01*
X153360500Y-103431629D01*
X153360500Y-101642861D01*
X153360601Y-101638988D01*
X153360623Y-101638558D01*
X153362700Y-101598936D01*
X153353968Y-101576190D01*
X153350670Y-101565054D01*
X153350446Y-101564002D01*
X153345617Y-101541278D01*
X153345607Y-101541231D01*
X153340611Y-101534355D01*
X153331392Y-101517376D01*
X153328346Y-101509441D01*
X153311118Y-101492213D01*
X153303583Y-101483391D01*
X153289260Y-101463677D01*
X153289259Y-101463676D01*
X153289258Y-101463675D01*
X153281896Y-101459425D01*
X153266571Y-101447666D01*
X152665007Y-100846102D01*
X152662340Y-100843292D01*
X152635505Y-100813489D01*
X152613253Y-100803582D01*
X152603051Y-100798044D01*
X152582618Y-100784774D01*
X152582617Y-100784773D01*
X152582616Y-100784773D01*
X152574217Y-100783443D01*
X152555700Y-100777958D01*
X152547932Y-100774500D01*
X152523573Y-100774500D01*
X152511998Y-100773589D01*
X152487935Y-100769778D01*
X152479721Y-100771979D01*
X152460570Y-100774500D01*
X149007849Y-100774500D01*
X149003977Y-100774399D01*
X148963935Y-100772300D01*
X148941193Y-100781030D01*
X148930064Y-100784326D01*
X148906231Y-100789392D01*
X148899348Y-100794393D01*
X148882379Y-100803607D01*
X148874439Y-100806655D01*
X148857209Y-100823884D01*
X148848384Y-100831421D01*
X148828676Y-100845740D01*
X148824424Y-100853105D01*
X148812667Y-100868426D01*
X147428269Y-102252826D01*
X147404262Y-102268867D01*
X147375943Y-102274500D01*
X146549833Y-102274500D01*
X146508721Y-102262029D01*
X146481466Y-102228819D01*
X146477255Y-102186063D01*
X146497507Y-102148174D01*
X146514110Y-102131571D01*
X146564198Y-102081483D01*
X146615573Y-101976393D01*
X146617403Y-101963831D01*
X146630405Y-101931501D01*
X146656762Y-101908705D01*
X146690630Y-101900500D01*
X146817139Y-101900500D01*
X146821012Y-101900601D01*
X146861064Y-101902700D01*
X146883812Y-101893967D01*
X146894930Y-101890673D01*
X146918768Y-101885607D01*
X146925644Y-101880610D01*
X146942624Y-101871392D01*
X146942621Y-101871392D01*
X146950560Y-101868346D01*
X146967794Y-101851111D01*
X146976616Y-101843576D01*
X146996323Y-101829260D01*
X147000572Y-101821898D01*
X147012329Y-101806575D01*
X148571731Y-100247174D01*
X148595739Y-100231133D01*
X148624058Y-100225500D01*
X152375942Y-100225500D01*
X152404261Y-100231133D01*
X152428268Y-100247174D01*
X154002826Y-101821732D01*
X154018867Y-101845739D01*
X154024500Y-101874058D01*
X154024500Y-103549878D01*
X154018867Y-103578197D01*
X154002828Y-103602200D01*
X154002794Y-103602234D01*
X154002794Y-103602235D01*
X153957414Y-103705009D01*
X153954500Y-103730134D01*
X153954500Y-105569865D01*
X153957414Y-105594989D01*
X153957415Y-105594991D01*
X154002794Y-105697765D01*
X154082235Y-105777206D01*
X154185009Y-105822585D01*
X154210135Y-105825500D01*
X154599864Y-105825499D01*
X154599865Y-105825499D01*
X154608239Y-105824527D01*
X154624991Y-105822585D01*
X154727765Y-105777206D01*
X154807206Y-105697765D01*
X154852585Y-105594991D01*
X154855500Y-105569865D01*
X154855499Y-104725000D01*
X155225001Y-104725000D01*
X155225001Y-105569793D01*
X155227909Y-105594873D01*
X155273213Y-105697477D01*
X155352522Y-105776786D01*
X155455125Y-105822090D01*
X155480207Y-105825000D01*
X155600000Y-105825000D01*
X155600000Y-104725000D01*
X155750000Y-104725000D01*
X155750000Y-105824999D01*
X155869793Y-105824999D01*
X155894873Y-105822090D01*
X155997477Y-105776786D01*
X156076786Y-105697477D01*
X156122090Y-105594874D01*
X156125000Y-105569793D01*
X156125000Y-104725000D01*
X155750000Y-104725000D01*
X155600000Y-104725000D01*
X155225001Y-104725000D01*
X154855499Y-104725000D01*
X154855499Y-104575000D01*
X155225000Y-104575000D01*
X155600000Y-104575000D01*
X155600000Y-103475001D01*
X155480207Y-103475001D01*
X155455126Y-103477909D01*
X155352522Y-103523213D01*
X155273213Y-103602522D01*
X155227909Y-103705125D01*
X155225000Y-103730207D01*
X155225000Y-104575000D01*
X154855499Y-104575000D01*
X154855499Y-103730136D01*
X154852585Y-103705009D01*
X154807206Y-103602235D01*
X154727765Y-103522794D01*
X154682385Y-103502756D01*
X154624990Y-103477414D01*
X154604177Y-103475000D01*
X155750000Y-103475000D01*
X155750000Y-104575000D01*
X156124999Y-104575000D01*
X156124999Y-103730207D01*
X156122090Y-103705126D01*
X156076786Y-103602522D01*
X155997477Y-103523213D01*
X155894874Y-103477909D01*
X155869793Y-103475000D01*
X155750000Y-103475000D01*
X154604177Y-103475000D01*
X154599866Y-103474500D01*
X154599865Y-103474500D01*
X154549500Y-103474500D01*
X154512500Y-103464586D01*
X154485414Y-103437500D01*
X154475500Y-103400500D01*
X154475500Y-101757861D01*
X154475601Y-101753988D01*
X154476819Y-101730738D01*
X154477700Y-101713936D01*
X154468968Y-101691190D01*
X154465670Y-101680054D01*
X154465281Y-101678225D01*
X154460607Y-101656232D01*
X154460607Y-101656231D01*
X154455611Y-101649355D01*
X154446392Y-101632376D01*
X154443346Y-101624441D01*
X154426118Y-101607213D01*
X154418583Y-101598391D01*
X154404260Y-101578677D01*
X154404259Y-101578676D01*
X154404258Y-101578675D01*
X154396896Y-101574425D01*
X154381571Y-101562666D01*
X152665007Y-99846102D01*
X152662340Y-99843292D01*
X152635505Y-99813489D01*
X152613253Y-99803582D01*
X152603051Y-99798044D01*
X152582618Y-99784774D01*
X152582617Y-99784773D01*
X152582616Y-99784773D01*
X152574217Y-99783443D01*
X152555700Y-99777958D01*
X152547932Y-99774500D01*
X152523573Y-99774500D01*
X152511998Y-99773589D01*
X152487935Y-99769778D01*
X152479721Y-99771979D01*
X152460570Y-99774500D01*
X149223058Y-99774500D01*
X149181946Y-99762029D01*
X149154691Y-99728819D01*
X149150480Y-99686063D01*
X149170732Y-99648174D01*
X149644826Y-99174080D01*
X150886204Y-97932700D01*
X151484249Y-97932700D01*
X151503170Y-98076410D01*
X151558637Y-98210322D01*
X151558638Y-98210324D01*
X151558639Y-98210325D01*
X151646879Y-98325321D01*
X151761875Y-98413561D01*
X151761876Y-98413561D01*
X151761877Y-98413562D01*
X151816198Y-98436062D01*
X151895791Y-98469030D01*
X152039500Y-98487950D01*
X152183209Y-98469030D01*
X152317125Y-98413561D01*
X152432121Y-98325321D01*
X152520361Y-98210325D01*
X152575830Y-98076409D01*
X152594750Y-97932700D01*
X152575830Y-97788991D01*
X152535321Y-97691192D01*
X152520362Y-97655077D01*
X152520361Y-97655076D01*
X152520361Y-97655075D01*
X152432121Y-97540079D01*
X152317125Y-97451839D01*
X152317124Y-97451838D01*
X152317122Y-97451837D01*
X152183210Y-97396370D01*
X152039500Y-97377449D01*
X151895789Y-97396370D01*
X151761877Y-97451837D01*
X151646879Y-97540079D01*
X151558637Y-97655077D01*
X151503170Y-97788989D01*
X151484249Y-97932700D01*
X150886204Y-97932700D01*
X152018924Y-96799979D01*
X152021695Y-96797350D01*
X152051509Y-96770507D01*
X152061418Y-96748247D01*
X152066952Y-96738054D01*
X152080226Y-96717617D01*
X152081556Y-96709215D01*
X152087042Y-96690696D01*
X152090500Y-96682932D01*
X152090500Y-96658572D01*
X152091411Y-96646997D01*
X152091894Y-96643944D01*
X152095222Y-96622934D01*
X152093020Y-96614719D01*
X152090500Y-96595569D01*
X152090500Y-96568371D01*
X152102501Y-96527972D01*
X152134609Y-96500676D01*
X152187765Y-96477206D01*
X152267206Y-96397765D01*
X152312585Y-96294991D01*
X152315500Y-96269865D01*
X152684500Y-96269865D01*
X152687414Y-96294989D01*
X152687415Y-96294991D01*
X152732794Y-96397765D01*
X152812235Y-96477206D01*
X152915009Y-96522585D01*
X152940135Y-96525500D01*
X153329864Y-96525499D01*
X153329865Y-96525499D01*
X153338239Y-96524527D01*
X153354991Y-96522585D01*
X153457765Y-96477206D01*
X153537206Y-96397765D01*
X153582585Y-96294991D01*
X153585500Y-96269865D01*
X153954500Y-96269865D01*
X153957414Y-96294989D01*
X153957415Y-96294991D01*
X154002794Y-96397765D01*
X154082235Y-96477206D01*
X154185009Y-96522585D01*
X154210135Y-96525500D01*
X154599864Y-96525499D01*
X154599865Y-96525499D01*
X154608239Y-96524527D01*
X154624991Y-96522585D01*
X154727765Y-96477206D01*
X154807206Y-96397765D01*
X154852585Y-96294991D01*
X154855500Y-96269865D01*
X154855499Y-95425000D01*
X155225001Y-95425000D01*
X155225001Y-96269793D01*
X155227909Y-96294873D01*
X155273213Y-96397477D01*
X155352522Y-96476786D01*
X155455125Y-96522090D01*
X155480207Y-96525000D01*
X155600000Y-96525000D01*
X155600000Y-95425000D01*
X155750000Y-95425000D01*
X155750000Y-96524999D01*
X155869793Y-96524999D01*
X155894873Y-96522090D01*
X155997477Y-96476786D01*
X156076786Y-96397477D01*
X156122090Y-96294874D01*
X156124992Y-96269865D01*
X156494500Y-96269865D01*
X156497414Y-96294989D01*
X156497415Y-96294991D01*
X156542794Y-96397765D01*
X156622235Y-96477206D01*
X156725009Y-96522585D01*
X156750135Y-96525500D01*
X157139864Y-96525499D01*
X157139865Y-96525499D01*
X157148239Y-96524527D01*
X157164991Y-96522585D01*
X157267765Y-96477206D01*
X157347206Y-96397765D01*
X157392585Y-96294991D01*
X157395500Y-96269865D01*
X157395499Y-94430136D01*
X157392585Y-94405009D01*
X157347206Y-94302235D01*
X157267765Y-94222794D01*
X157222385Y-94202756D01*
X157164990Y-94177414D01*
X157139865Y-94174500D01*
X156750134Y-94174500D01*
X156725010Y-94177414D01*
X156622235Y-94222794D01*
X156542794Y-94302235D01*
X156497414Y-94405009D01*
X156494500Y-94430134D01*
X156494500Y-96269865D01*
X156124992Y-96269865D01*
X156125000Y-96269793D01*
X156125000Y-95425000D01*
X155750000Y-95425000D01*
X155600000Y-95425000D01*
X155225001Y-95425000D01*
X154855499Y-95425000D01*
X154855499Y-95275000D01*
X155225000Y-95275000D01*
X155600000Y-95275000D01*
X155600000Y-94175001D01*
X155480207Y-94175001D01*
X155455126Y-94177909D01*
X155352522Y-94223213D01*
X155273213Y-94302522D01*
X155227909Y-94405125D01*
X155225000Y-94430207D01*
X155225000Y-95275000D01*
X154855499Y-95275000D01*
X154855499Y-94430136D01*
X154852585Y-94405009D01*
X154807206Y-94302235D01*
X154727765Y-94222794D01*
X154682385Y-94202756D01*
X154624990Y-94177414D01*
X154604176Y-94175000D01*
X155750000Y-94175000D01*
X155750000Y-95275000D01*
X156124999Y-95275000D01*
X156124999Y-94430207D01*
X156122090Y-94405126D01*
X156076786Y-94302522D01*
X155997477Y-94223213D01*
X155894874Y-94177909D01*
X155869793Y-94175000D01*
X155750000Y-94175000D01*
X154604176Y-94175000D01*
X154599865Y-94174500D01*
X154210134Y-94174500D01*
X154185010Y-94177414D01*
X154082235Y-94222794D01*
X154002794Y-94302235D01*
X153957414Y-94405009D01*
X153954500Y-94430134D01*
X153954500Y-96269865D01*
X153585500Y-96269865D01*
X153585499Y-94430136D01*
X153582585Y-94405009D01*
X153554452Y-94341295D01*
X153549408Y-94297811D01*
X153569820Y-94259084D01*
X154336731Y-93492172D01*
X154360738Y-93476132D01*
X154389057Y-93470499D01*
X154687624Y-93470499D01*
X154699559Y-93469114D01*
X154711498Y-93467730D01*
X154809141Y-93424616D01*
X154884616Y-93349141D01*
X154927730Y-93251498D01*
X154930500Y-93227623D01*
X154930499Y-92772378D01*
X154927730Y-92748502D01*
X154884616Y-92650859D01*
X154809141Y-92575384D01*
X154711498Y-92532270D01*
X154711496Y-92532269D01*
X154690755Y-92529863D01*
X154687622Y-92529500D01*
X154332376Y-92529500D01*
X154308503Y-92532269D01*
X154210858Y-92575384D01*
X154135385Y-92650857D01*
X154092269Y-92748503D01*
X154089500Y-92772377D01*
X154089500Y-93070942D01*
X154083867Y-93099261D01*
X154067826Y-93123268D01*
X154036326Y-93154768D01*
X153998437Y-93175020D01*
X153955681Y-93170809D01*
X153922471Y-93143554D01*
X153910000Y-93102442D01*
X153910000Y-93075000D01*
X153565000Y-93075000D01*
X153565000Y-93470000D01*
X153574822Y-93479822D01*
X153583553Y-93482471D01*
X153610808Y-93515681D01*
X153615019Y-93558437D01*
X153594767Y-93596326D01*
X153038267Y-94152826D01*
X153014260Y-94168867D01*
X152985942Y-94174500D01*
X152940135Y-94174500D01*
X152915010Y-94177414D01*
X152812235Y-94222794D01*
X152732794Y-94302235D01*
X152687414Y-94405009D01*
X152684500Y-94430134D01*
X152684500Y-96269865D01*
X152315500Y-96269865D01*
X152315499Y-94430136D01*
X152312585Y-94405009D01*
X152267206Y-94302235D01*
X152187765Y-94222794D01*
X152142385Y-94202756D01*
X152084990Y-94177414D01*
X152059865Y-94174500D01*
X151670134Y-94174500D01*
X151645010Y-94177414D01*
X151542235Y-94222794D01*
X151462794Y-94302235D01*
X151417414Y-94405009D01*
X151414500Y-94430134D01*
X151414500Y-96269865D01*
X151417414Y-96294989D01*
X151417415Y-96294991D01*
X151462794Y-96397765D01*
X151508061Y-96443032D01*
X151542235Y-96477206D01*
X151555550Y-96483085D01*
X151590309Y-96514770D01*
X151598952Y-96561003D01*
X151577988Y-96603106D01*
X148374442Y-99806653D01*
X148374439Y-99806656D01*
X148357209Y-99823884D01*
X148348384Y-99831421D01*
X148328676Y-99845740D01*
X148324424Y-99853105D01*
X148312667Y-99868426D01*
X146753269Y-101427826D01*
X146729262Y-101443867D01*
X146700943Y-101449500D01*
X146690630Y-101449500D01*
X146656762Y-101441295D01*
X146630405Y-101418499D01*
X146617403Y-101386168D01*
X146615573Y-101373607D01*
X146564198Y-101268517D01*
X146481483Y-101185802D01*
X146481482Y-101185801D01*
X146376394Y-101134426D01*
X146308260Y-101124500D01*
X145691740Y-101124500D01*
X145623605Y-101134426D01*
X145518517Y-101185801D01*
X145435801Y-101268517D01*
X145384426Y-101373605D01*
X145374500Y-101441740D01*
X145374500Y-101908260D01*
X145384426Y-101976394D01*
X145435801Y-102081482D01*
X145502493Y-102148174D01*
X145522745Y-102186063D01*
X145518534Y-102228819D01*
X145491279Y-102262029D01*
X145450167Y-102274500D01*
X145007861Y-102274500D01*
X145003988Y-102274399D01*
X144963933Y-102272299D01*
X144941188Y-102281030D01*
X144930060Y-102284326D01*
X144906233Y-102289391D01*
X144899355Y-102294389D01*
X144882384Y-102303604D01*
X144874441Y-102306653D01*
X144857209Y-102323884D01*
X144848384Y-102331421D01*
X144828676Y-102345740D01*
X144824424Y-102353105D01*
X144812667Y-102368426D01*
X144428269Y-102752826D01*
X144404262Y-102768867D01*
X144375943Y-102774500D01*
X143987427Y-102774500D01*
X143947028Y-102762499D01*
X143919733Y-102730391D01*
X143884616Y-102650859D01*
X143809141Y-102575384D01*
X143728298Y-102539688D01*
X143711496Y-102532269D01*
X143690755Y-102529863D01*
X143687622Y-102529500D01*
X143332376Y-102529500D01*
X143308503Y-102532269D01*
X143210858Y-102575384D01*
X143135385Y-102650857D01*
X143092269Y-102748503D01*
X143089500Y-102772377D01*
X143089500Y-103091943D01*
X143077029Y-103133055D01*
X143043819Y-103160310D01*
X143001063Y-103164521D01*
X142963174Y-103144269D01*
X142932173Y-103113268D01*
X142916132Y-103089261D01*
X142910499Y-103060942D01*
X142910499Y-102772376D01*
X142907730Y-102748503D01*
X142907730Y-102748502D01*
X142864616Y-102650859D01*
X142818656Y-102604899D01*
X142799503Y-102571726D01*
X142799504Y-102533420D01*
X142818654Y-102500249D01*
X143071730Y-102247174D01*
X143095739Y-102231133D01*
X143124057Y-102225500D01*
X143992139Y-102225500D01*
X143996012Y-102225601D01*
X144036064Y-102227700D01*
X144058812Y-102218967D01*
X144069930Y-102215673D01*
X144093768Y-102210607D01*
X144100644Y-102205610D01*
X144117624Y-102196392D01*
X144117621Y-102196392D01*
X144125560Y-102193346D01*
X144142793Y-102176112D01*
X144151616Y-102168577D01*
X144171323Y-102154260D01*
X144175572Y-102146898D01*
X144187329Y-102131575D01*
X145015915Y-101302988D01*
X145018687Y-101300357D01*
X145048509Y-101273507D01*
X145058416Y-101251253D01*
X145063955Y-101241050D01*
X145077226Y-101220618D01*
X145078556Y-101212217D01*
X145084042Y-101193698D01*
X145087500Y-101185932D01*
X145087500Y-101161573D01*
X145088411Y-101149998D01*
X145088894Y-101146945D01*
X145092222Y-101125935D01*
X145090020Y-101117720D01*
X145087500Y-101098570D01*
X145087500Y-100833284D01*
X145088000Y-100830932D01*
X145088000Y-100792073D01*
X145088911Y-100780498D01*
X145090260Y-100771979D01*
X145092722Y-100756435D01*
X145090801Y-100749265D01*
X145093023Y-100704048D01*
X145121168Y-100668586D01*
X145128229Y-100663867D01*
X145128231Y-100663867D01*
X145194552Y-100619552D01*
X145238867Y-100553231D01*
X145250500Y-100494748D01*
X145250500Y-100305252D01*
X145238867Y-100246769D01*
X145235087Y-100241113D01*
X145222615Y-100200000D01*
X145235088Y-100158886D01*
X145238867Y-100153231D01*
X145250500Y-100094748D01*
X145250500Y-99905252D01*
X145238867Y-99846769D01*
X145235086Y-99841111D01*
X145222615Y-99799997D01*
X145235087Y-99758886D01*
X145238867Y-99753231D01*
X145250500Y-99694748D01*
X145250500Y-99505252D01*
X145238867Y-99446769D01*
X145194552Y-99380448D01*
X145194550Y-99380447D01*
X145194550Y-99380446D01*
X145120887Y-99331225D01*
X145096738Y-99304580D01*
X145088000Y-99269697D01*
X145088000Y-98534499D01*
X145097914Y-98497499D01*
X145125000Y-98470413D01*
X145159154Y-98461261D01*
X145159123Y-98460992D01*
X145160951Y-98460779D01*
X145162000Y-98460499D01*
X145163374Y-98460499D01*
X145178694Y-98458722D01*
X145187662Y-98457682D01*
X145287016Y-98413813D01*
X145363813Y-98337016D01*
X145393576Y-98269608D01*
X145420871Y-98237501D01*
X145461270Y-98225500D01*
X145783992Y-98225500D01*
X145823752Y-98237089D01*
X145851059Y-98268226D01*
X145857359Y-98309159D01*
X145853078Y-98341670D01*
X145871999Y-98485381D01*
X145927466Y-98619293D01*
X145927467Y-98619295D01*
X145927468Y-98619296D01*
X146015708Y-98734292D01*
X146130704Y-98822532D01*
X146264620Y-98878001D01*
X146408329Y-98896921D01*
X146552038Y-98878001D01*
X146685954Y-98822532D01*
X146800950Y-98734292D01*
X146889190Y-98619296D01*
X146944659Y-98485380D01*
X146963579Y-98341671D01*
X146944659Y-98197962D01*
X146893727Y-98075000D01*
X146889191Y-98064048D01*
X146889190Y-98064047D01*
X146889190Y-98064046D01*
X146800950Y-97949050D01*
X146685954Y-97860810D01*
X146685953Y-97860809D01*
X146685951Y-97860808D01*
X146552039Y-97805341D01*
X146408329Y-97786420D01*
X146264616Y-97805341D01*
X146252149Y-97810505D01*
X146222865Y-97816130D01*
X146193738Y-97809739D01*
X146183860Y-97805341D01*
X146179907Y-97803581D01*
X146169709Y-97798044D01*
X146149276Y-97784774D01*
X146149275Y-97784773D01*
X146149274Y-97784773D01*
X146140875Y-97783443D01*
X146122358Y-97777958D01*
X146114590Y-97774500D01*
X146090231Y-97774500D01*
X146078656Y-97773589D01*
X146054593Y-97769778D01*
X146046379Y-97771979D01*
X146027228Y-97774500D01*
X145461270Y-97774500D01*
X145420871Y-97762499D01*
X145393576Y-97730391D01*
X145363813Y-97662984D01*
X145287016Y-97586187D01*
X145187662Y-97542318D01*
X145187660Y-97542317D01*
X145166559Y-97539869D01*
X145163372Y-97539500D01*
X144796626Y-97539500D01*
X144772339Y-97542317D01*
X144672984Y-97586187D01*
X144596186Y-97662985D01*
X144567420Y-97728132D01*
X144540124Y-97760241D01*
X144499725Y-97772241D01*
X144459327Y-97760240D01*
X144432031Y-97728131D01*
X144403392Y-97663271D01*
X144326727Y-97586606D01*
X144227547Y-97542812D01*
X144203299Y-97540000D01*
X144095000Y-97540000D01*
X144095000Y-98460000D01*
X144203299Y-98460000D01*
X144227547Y-98457187D01*
X144326727Y-98413393D01*
X144403392Y-98336728D01*
X144432032Y-98271867D01*
X144459328Y-98239757D01*
X144499727Y-98227757D01*
X144540126Y-98239758D01*
X144567419Y-98271864D01*
X144582351Y-98305680D01*
X144596187Y-98337016D01*
X144615327Y-98356156D01*
X144631367Y-98380163D01*
X144637000Y-98408481D01*
X144637000Y-99269697D01*
X144628262Y-99304580D01*
X144604113Y-99331225D01*
X144530447Y-99380448D01*
X144525602Y-99387699D01*
X144492392Y-99414952D01*
X144449638Y-99419162D01*
X144411750Y-99398910D01*
X144370940Y-99358101D01*
X144333721Y-99333231D01*
X144289822Y-99324500D01*
X144289821Y-99324500D01*
X143930252Y-99324500D01*
X143871768Y-99336133D01*
X143852289Y-99349149D01*
X143803923Y-99361264D01*
X143758852Y-99339946D01*
X143597504Y-99178599D01*
X143594839Y-99175790D01*
X143568007Y-99145990D01*
X143545751Y-99136081D01*
X143535550Y-99130542D01*
X143515118Y-99117274D01*
X143506717Y-99115943D01*
X143488200Y-99110458D01*
X143480432Y-99107000D01*
X143456073Y-99107000D01*
X143444498Y-99106089D01*
X143420435Y-99102278D01*
X143412221Y-99104479D01*
X143393070Y-99107000D01*
X143324057Y-99107000D01*
X143295738Y-99101367D01*
X143271731Y-99085326D01*
X143247174Y-99060769D01*
X143231133Y-99036762D01*
X143225500Y-99008443D01*
X143225500Y-98075000D01*
X143590000Y-98075000D01*
X143590000Y-98213299D01*
X143592812Y-98237547D01*
X143636606Y-98336727D01*
X143713272Y-98413393D01*
X143812452Y-98457187D01*
X143836701Y-98460000D01*
X143945000Y-98460000D01*
X143945000Y-98075000D01*
X143590000Y-98075000D01*
X143225500Y-98075000D01*
X143225500Y-97925000D01*
X143590000Y-97925000D01*
X143945000Y-97925000D01*
X143945000Y-97540000D01*
X143836701Y-97540000D01*
X143812452Y-97542812D01*
X143713272Y-97586606D01*
X143636606Y-97663272D01*
X143592812Y-97762452D01*
X143590000Y-97786701D01*
X143590000Y-97925000D01*
X143225500Y-97925000D01*
X143225500Y-97757861D01*
X143225601Y-97753988D01*
X143225624Y-97753536D01*
X143227700Y-97713936D01*
X143218967Y-97691186D01*
X143215671Y-97680056D01*
X143210607Y-97656231D01*
X143205611Y-97649355D01*
X143196393Y-97632379D01*
X143193346Y-97624440D01*
X143176115Y-97607210D01*
X143168574Y-97598380D01*
X143160020Y-97586606D01*
X143154260Y-97578677D01*
X143146895Y-97574425D01*
X143131573Y-97562667D01*
X141915005Y-96346099D01*
X141912340Y-96343290D01*
X141885507Y-96313491D01*
X141863252Y-96303582D01*
X141853051Y-96298044D01*
X141832618Y-96284774D01*
X141832617Y-96284773D01*
X141832616Y-96284773D01*
X141824217Y-96283443D01*
X141805700Y-96277958D01*
X141797932Y-96274500D01*
X141773573Y-96274500D01*
X141761998Y-96273589D01*
X141737935Y-96269778D01*
X141729721Y-96271979D01*
X141710570Y-96274500D01*
X141487427Y-96274500D01*
X141447028Y-96262499D01*
X141419733Y-96230391D01*
X141384616Y-96150859D01*
X141309141Y-96075384D01*
X141211498Y-96032270D01*
X141211496Y-96032269D01*
X141190755Y-96029863D01*
X141187622Y-96029500D01*
X140832376Y-96029500D01*
X140808503Y-96032269D01*
X140710858Y-96075384D01*
X140635385Y-96150857D01*
X140592269Y-96248503D01*
X140589500Y-96272377D01*
X140589500Y-96727623D01*
X140592269Y-96751496D01*
X140612507Y-96797330D01*
X140635384Y-96849141D01*
X140710859Y-96924616D01*
X140808502Y-96967730D01*
X140832377Y-96970500D01*
X141187622Y-96970499D01*
X141187623Y-96970499D01*
X141195580Y-96969576D01*
X141211498Y-96967730D01*
X141309141Y-96924616D01*
X141384616Y-96849141D01*
X141419733Y-96769608D01*
X141447029Y-96737500D01*
X141487428Y-96725500D01*
X141625942Y-96725500D01*
X141654261Y-96731133D01*
X141678268Y-96747174D01*
X142752826Y-97821731D01*
X142768867Y-97845738D01*
X142774500Y-97874057D01*
X142774500Y-99064461D01*
X142766431Y-99098064D01*
X142743982Y-99124338D01*
X142740454Y-99126900D01*
X142723495Y-99136107D01*
X142715555Y-99139155D01*
X142698325Y-99156384D01*
X142689500Y-99163921D01*
X142677361Y-99172741D01*
X142636770Y-99186818D01*
X142595199Y-99175971D01*
X142566661Y-99143856D01*
X142560774Y-99101299D01*
X142574999Y-99011480D01*
X142574999Y-98448519D01*
X142560165Y-98354851D01*
X142502641Y-98241956D01*
X142413043Y-98152358D01*
X142300148Y-98094834D01*
X142206481Y-98080000D01*
X141431065Y-98080000D01*
X140781066Y-98730000D01*
X141431065Y-99379999D01*
X142206480Y-99379999D01*
X142300243Y-99365150D01*
X142345414Y-99372305D01*
X142377753Y-99404644D01*
X142384907Y-99449815D01*
X142364144Y-99490565D01*
X142321100Y-99533609D01*
X142318292Y-99536274D01*
X142288490Y-99563109D01*
X142278581Y-99585364D01*
X142273043Y-99595564D01*
X142259773Y-99615997D01*
X142258443Y-99624398D01*
X142252960Y-99642910D01*
X142250618Y-99648174D01*
X142249500Y-99650685D01*
X142249500Y-99675043D01*
X142248589Y-99686618D01*
X142244778Y-99710680D01*
X142246979Y-99718895D01*
X142249500Y-99738046D01*
X142249500Y-100208523D01*
X142249399Y-100212396D01*
X142247300Y-100252447D01*
X142256031Y-100275194D01*
X142259327Y-100286324D01*
X142264392Y-100310151D01*
X142269389Y-100317029D01*
X142278604Y-100334001D01*
X142281653Y-100341943D01*
X142298880Y-100359170D01*
X142306421Y-100367999D01*
X142320740Y-100387707D01*
X142328101Y-100391957D01*
X142343426Y-100403716D01*
X142676109Y-100736398D01*
X142678775Y-100739207D01*
X142705609Y-100769009D01*
X142727869Y-100778919D01*
X142738060Y-100784452D01*
X142758498Y-100797725D01*
X142766895Y-100799054D01*
X142785414Y-100804540D01*
X142793184Y-100808000D01*
X142817543Y-100808000D01*
X142829120Y-100808911D01*
X142837252Y-100810199D01*
X142853181Y-100812722D01*
X142853181Y-100812721D01*
X142853182Y-100812722D01*
X142861394Y-100810522D01*
X142880547Y-100808000D01*
X143409639Y-100808000D01*
X143413512Y-100808101D01*
X143453564Y-100810200D01*
X143476312Y-100801467D01*
X143487430Y-100798173D01*
X143511268Y-100793107D01*
X143518144Y-100788110D01*
X143535124Y-100778892D01*
X143537557Y-100777958D01*
X143543060Y-100775846D01*
X143560293Y-100758612D01*
X143569116Y-100751077D01*
X143588823Y-100736760D01*
X143593072Y-100729398D01*
X143604829Y-100714075D01*
X143671731Y-100647173D01*
X143695739Y-100631133D01*
X143724057Y-100625500D01*
X143791902Y-100625500D01*
X143833015Y-100637972D01*
X143871769Y-100663867D01*
X143930252Y-100675500D01*
X144344748Y-100675500D01*
X144403231Y-100663867D01*
X144458887Y-100626677D01*
X144500000Y-100614206D01*
X144541112Y-100626677D01*
X144558015Y-100637972D01*
X144603613Y-100668440D01*
X144627762Y-100695085D01*
X144636500Y-100729968D01*
X144636500Y-100745427D01*
X144635589Y-100757002D01*
X144631784Y-100781030D01*
X144631778Y-100781065D01*
X144633979Y-100789279D01*
X144636500Y-100808430D01*
X144636500Y-101013942D01*
X144630867Y-101042261D01*
X144614826Y-101066268D01*
X143928269Y-101752826D01*
X143904262Y-101768867D01*
X143875943Y-101774500D01*
X143007861Y-101774500D01*
X143003988Y-101774399D01*
X142963933Y-101772299D01*
X142941188Y-101781030D01*
X142930060Y-101784326D01*
X142906233Y-101789391D01*
X142899355Y-101794389D01*
X142882384Y-101803604D01*
X142874441Y-101806653D01*
X142857209Y-101823884D01*
X142848384Y-101831421D01*
X142828676Y-101845740D01*
X142824424Y-101853105D01*
X142812667Y-101868426D01*
X142336100Y-102344993D01*
X142333292Y-102347658D01*
X142303490Y-102374493D01*
X142293581Y-102396748D01*
X142288043Y-102406948D01*
X142274773Y-102427381D01*
X142273443Y-102435782D01*
X142267960Y-102454294D01*
X142265719Y-102459331D01*
X142264500Y-102462069D01*
X142264500Y-102486427D01*
X142263588Y-102498010D01*
X142262187Y-102506850D01*
X142247736Y-102540408D01*
X142218991Y-102562961D01*
X142190859Y-102575383D01*
X142115385Y-102650857D01*
X142072269Y-102748503D01*
X142069500Y-102772377D01*
X142069500Y-103227623D01*
X142072269Y-103251496D01*
X142072270Y-103251498D01*
X142115384Y-103349141D01*
X142190859Y-103424616D01*
X142288502Y-103467730D01*
X142312377Y-103470500D01*
X142620941Y-103470499D01*
X142649259Y-103476132D01*
X142673267Y-103492173D01*
X143161381Y-103980287D01*
X143549269Y-104368174D01*
X143569521Y-104406063D01*
X143565310Y-104448819D01*
X143538055Y-104482029D01*
X143496943Y-104494500D01*
X143350180Y-104494500D01*
X143306277Y-104503233D01*
X143306278Y-104503233D01*
X143256496Y-104536496D01*
X143223233Y-104586278D01*
X143214500Y-104630181D01*
X143214500Y-104980500D01*
X143204586Y-105017500D01*
X143177500Y-105044586D01*
X143140500Y-105054500D01*
X141904057Y-105054500D01*
X141875738Y-105048867D01*
X141851731Y-105032826D01*
X141676118Y-104857213D01*
X141668583Y-104848391D01*
X141654260Y-104828677D01*
X141654259Y-104828676D01*
X141654258Y-104828675D01*
X141646896Y-104824425D01*
X141631571Y-104812666D01*
X141494902Y-104675997D01*
X141475161Y-104640475D01*
X141477155Y-104599885D01*
X141500283Y-104566468D01*
X141537569Y-104550304D01*
X141552711Y-104548310D01*
X141643709Y-104536330D01*
X141777625Y-104480861D01*
X141892621Y-104392621D01*
X141980861Y-104277625D01*
X142036330Y-104143709D01*
X142055250Y-104000000D01*
X142036330Y-103856291D01*
X141992358Y-103750132D01*
X141980862Y-103722377D01*
X141980861Y-103722376D01*
X141980861Y-103722375D01*
X141892621Y-103607379D01*
X141777625Y-103519139D01*
X141777624Y-103519138D01*
X141777622Y-103519137D01*
X141643710Y-103463670D01*
X141500000Y-103444749D01*
X141356289Y-103463670D01*
X141222377Y-103519137D01*
X141107379Y-103607379D01*
X141019137Y-103722377D01*
X140963670Y-103856289D01*
X140963669Y-103856291D01*
X140963670Y-103856291D01*
X140963186Y-103859973D01*
X140963161Y-103860160D01*
X140950411Y-103892945D01*
X140923963Y-103916139D01*
X140889794Y-103924500D01*
X140856146Y-103924500D01*
X140821263Y-103915762D01*
X140812513Y-103907832D01*
X140812372Y-103908045D01*
X140800133Y-103899867D01*
X140780170Y-103886528D01*
X140751210Y-103848787D01*
X140751210Y-103801213D01*
X140780171Y-103763471D01*
X140800133Y-103750133D01*
X140840027Y-103690428D01*
X140850500Y-103637777D01*
X140850499Y-103362224D01*
X140850499Y-103362223D01*
X140850499Y-103362221D01*
X140840028Y-103309574D01*
X140834005Y-103300560D01*
X140800133Y-103249867D01*
X140740428Y-103209973D01*
X140687776Y-103199500D01*
X140112221Y-103199500D01*
X140059572Y-103209972D01*
X140027063Y-103231694D01*
X139990790Y-103244007D01*
X139953222Y-103236534D01*
X139924422Y-103211277D01*
X139910123Y-103189877D01*
X139833216Y-103138490D01*
X139765398Y-103125000D01*
X139075000Y-103125000D01*
X139075000Y-105824999D01*
X139765401Y-105824999D01*
X139833215Y-105811510D01*
X139910122Y-105760123D01*
X139924422Y-105738722D01*
X139953221Y-105713466D01*
X139990791Y-105705992D01*
X140027063Y-105718305D01*
X140059572Y-105740027D01*
X140112223Y-105750500D01*
X140687776Y-105750499D01*
X140687778Y-105750499D01*
X140740425Y-105740028D01*
X140740425Y-105740027D01*
X140740428Y-105740027D01*
X140800133Y-105700133D01*
X140840027Y-105640428D01*
X140850500Y-105587777D01*
X140850499Y-105312224D01*
X140850499Y-105312223D01*
X140850499Y-105312221D01*
X140840028Y-105259574D01*
X140840027Y-105259572D01*
X140800133Y-105199867D01*
X140780170Y-105186528D01*
X140751210Y-105148787D01*
X140751210Y-105101213D01*
X140780171Y-105063471D01*
X140794961Y-105053589D01*
X140800133Y-105050133D01*
X140800133Y-105050132D01*
X140812372Y-105041955D01*
X140812513Y-105042167D01*
X140821263Y-105034238D01*
X140856146Y-105025500D01*
X141175942Y-105025500D01*
X141204261Y-105031133D01*
X141228268Y-105047174D01*
X141252826Y-105071732D01*
X141268867Y-105095739D01*
X141274500Y-105124058D01*
X141274500Y-106855942D01*
X141268867Y-106884261D01*
X141252826Y-106908268D01*
X141143267Y-107017826D01*
X141119260Y-107033867D01*
X141090941Y-107039500D01*
X140796626Y-107039500D01*
X140772339Y-107042317D01*
X140672984Y-107086187D01*
X140596186Y-107162985D01*
X140567693Y-107227514D01*
X140540397Y-107259623D01*
X140499998Y-107271623D01*
X140459600Y-107259622D01*
X140432306Y-107227516D01*
X140403813Y-107162984D01*
X140327016Y-107086187D01*
X140238060Y-107046909D01*
X140227660Y-107042317D01*
X140206559Y-107039869D01*
X140203372Y-107039500D01*
X139836626Y-107039500D01*
X139812339Y-107042317D01*
X139720104Y-107083043D01*
X139712984Y-107086187D01*
X139636187Y-107162984D01*
X139623598Y-107191496D01*
X139592317Y-107262339D01*
X139589500Y-107286627D01*
X139589500Y-107713373D01*
X139592317Y-107737660D01*
X139594345Y-107742253D01*
X139636187Y-107837016D01*
X139683377Y-107884206D01*
X139697345Y-107898174D01*
X139717597Y-107936064D01*
X139713386Y-107978819D01*
X139686131Y-108012029D01*
X139645019Y-108024500D01*
X138354273Y-108024500D01*
X138313161Y-108012029D01*
X138285906Y-107978819D01*
X138281695Y-107936063D01*
X138301947Y-107898174D01*
X138363393Y-107836727D01*
X138407187Y-107737547D01*
X138410000Y-107713299D01*
X138410000Y-107575000D01*
X137979000Y-107575000D01*
X137942000Y-107565086D01*
X137914914Y-107538000D01*
X137905000Y-107501000D01*
X137905000Y-107040000D01*
X138055000Y-107040000D01*
X138055000Y-107425000D01*
X138410000Y-107425000D01*
X138410000Y-107286701D01*
X138407187Y-107262452D01*
X138363393Y-107163272D01*
X138286727Y-107086606D01*
X138187547Y-107042812D01*
X138163299Y-107040000D01*
X138055000Y-107040000D01*
X137905000Y-107040000D01*
X137796701Y-107040000D01*
X137772452Y-107042812D01*
X137673272Y-107086606D01*
X137596605Y-107163273D01*
X137567966Y-107228133D01*
X137540670Y-107260242D01*
X137500271Y-107272242D01*
X137459872Y-107260241D01*
X137432579Y-107228133D01*
X137403813Y-107162984D01*
X137327016Y-107086187D01*
X137238060Y-107046909D01*
X137227660Y-107042317D01*
X137206559Y-107039869D01*
X137203372Y-107039500D01*
X136836626Y-107039500D01*
X136812339Y-107042317D01*
X136712984Y-107086187D01*
X136636187Y-107162984D01*
X136632559Y-107171201D01*
X136600872Y-107205957D01*
X136554641Y-107214598D01*
X136512540Y-107193634D01*
X136297173Y-106978268D01*
X136281133Y-106954262D01*
X136275500Y-106925943D01*
X136275500Y-106818187D01*
X136287089Y-106778427D01*
X136318226Y-106751120D01*
X136359158Y-106744820D01*
X136374498Y-106746839D01*
X136374498Y-106746838D01*
X136374500Y-106746839D01*
X136518209Y-106727919D01*
X136652125Y-106672450D01*
X136767121Y-106584210D01*
X136855361Y-106469214D01*
X136910830Y-106335298D01*
X136929750Y-106191589D01*
X136910830Y-106047880D01*
X136855361Y-105913964D01*
X136767121Y-105798968D01*
X136652125Y-105710728D01*
X136652124Y-105710727D01*
X136652122Y-105710726D01*
X136518210Y-105655259D01*
X136374500Y-105636338D01*
X136230789Y-105655259D01*
X136096874Y-105710727D01*
X136094547Y-105712514D01*
X136056752Y-105727449D01*
X136016770Y-105720173D01*
X135986659Y-105692882D01*
X135975500Y-105653805D01*
X135975500Y-105525000D01*
X137150000Y-105525000D01*
X137150000Y-105587726D01*
X137160443Y-105640230D01*
X137200228Y-105699771D01*
X137259769Y-105739556D01*
X137312274Y-105750000D01*
X137525000Y-105750000D01*
X137525000Y-105525000D01*
X137150000Y-105525000D01*
X135975500Y-105525000D01*
X135975500Y-104875000D01*
X137150000Y-104875000D01*
X137150000Y-104937726D01*
X137160443Y-104990230D01*
X137200229Y-105049773D01*
X137220730Y-105063472D01*
X137249690Y-105101214D01*
X137249690Y-105148786D01*
X137220730Y-105186528D01*
X137200229Y-105200226D01*
X137160443Y-105259769D01*
X137150000Y-105312274D01*
X137150000Y-105375000D01*
X137525000Y-105375000D01*
X137525000Y-104875000D01*
X137150000Y-104875000D01*
X135975500Y-104875000D01*
X135975500Y-104437315D01*
X135987437Y-104397013D01*
X136019398Y-104369714D01*
X136061071Y-104364225D01*
X136067380Y-104365223D01*
X136067382Y-104365225D01*
X136075779Y-104366554D01*
X136094298Y-104372040D01*
X136102068Y-104375500D01*
X136126427Y-104375500D01*
X136138004Y-104376411D01*
X136146355Y-104377733D01*
X136162065Y-104380222D01*
X136162065Y-104380221D01*
X136162066Y-104380222D01*
X136170278Y-104378022D01*
X136189431Y-104375500D01*
X137143854Y-104375500D01*
X137178737Y-104384238D01*
X137187487Y-104392168D01*
X137187629Y-104391956D01*
X137220280Y-104413773D01*
X137249240Y-104451515D01*
X137249240Y-104499087D01*
X137220280Y-104536829D01*
X137200229Y-104550226D01*
X137160443Y-104609769D01*
X137150000Y-104662274D01*
X137150000Y-104725000D01*
X137601000Y-104725000D01*
X137638000Y-104734914D01*
X137665086Y-104762000D01*
X137675000Y-104799000D01*
X137675000Y-105750000D01*
X137887726Y-105750000D01*
X137940230Y-105739556D01*
X137972656Y-105717889D01*
X138008929Y-105705576D01*
X138046499Y-105713048D01*
X138075299Y-105738305D01*
X138089877Y-105760122D01*
X138166783Y-105811509D01*
X138234601Y-105825000D01*
X138925000Y-105825000D01*
X138925000Y-103125001D01*
X138490222Y-103125001D01*
X138446473Y-103133702D01*
X138409381Y-103158486D01*
X138174134Y-103393734D01*
X138139788Y-103413190D01*
X138100326Y-103412221D01*
X138066977Y-103391102D01*
X138049230Y-103355845D01*
X138040027Y-103309572D01*
X138000133Y-103249867D01*
X137940428Y-103209973D01*
X137887776Y-103199500D01*
X137312221Y-103199500D01*
X137259574Y-103209971D01*
X137221502Y-103235411D01*
X137199869Y-103249866D01*
X137199866Y-103249868D01*
X137159973Y-103309571D01*
X137149500Y-103362223D01*
X137149500Y-103637778D01*
X137159971Y-103690425D01*
X137159972Y-103690427D01*
X137159973Y-103690428D01*
X137199867Y-103750133D01*
X137219829Y-103763471D01*
X137248788Y-103801211D01*
X137248789Y-103848784D01*
X137219830Y-103886526D01*
X137187630Y-103908043D01*
X137187488Y-103907830D01*
X137178737Y-103915762D01*
X137143854Y-103924500D01*
X136274057Y-103924500D01*
X136245738Y-103918867D01*
X136221731Y-103902826D01*
X136121231Y-103802326D01*
X136102078Y-103769153D01*
X136102078Y-103730847D01*
X136121231Y-103697674D01*
X138301731Y-101517174D01*
X138325738Y-101501133D01*
X138354057Y-101495500D01*
X138702427Y-101495500D01*
X138736023Y-101503566D01*
X138762295Y-101526005D01*
X138775515Y-101557923D01*
X138778129Y-101574425D01*
X138789353Y-101645304D01*
X138845713Y-101755915D01*
X138846950Y-101758342D01*
X138936658Y-101848050D01*
X138976491Y-101868346D01*
X139041639Y-101901541D01*
X139049696Y-101905646D01*
X139143481Y-101920500D01*
X142206518Y-101920499D01*
X142300304Y-101905646D01*
X142413342Y-101848050D01*
X142503050Y-101758342D01*
X142560646Y-101645304D01*
X142575500Y-101551519D01*
X142575499Y-100988482D01*
X142574484Y-100982076D01*
X142560646Y-100894696D01*
X142552254Y-100878226D01*
X142503050Y-100781658D01*
X142413342Y-100691950D01*
X142413339Y-100691948D01*
X142300305Y-100634354D01*
X142244402Y-100625500D01*
X142206518Y-100619500D01*
X139143481Y-100619500D01*
X139049696Y-100634353D01*
X138936659Y-100691949D01*
X138846948Y-100781660D01*
X138789354Y-100894694D01*
X138787890Y-100903937D01*
X138775514Y-100982078D01*
X138762293Y-101013996D01*
X138736021Y-101036434D01*
X138702426Y-101044500D01*
X138237861Y-101044500D01*
X138233988Y-101044399D01*
X138193933Y-101042299D01*
X138171188Y-101051030D01*
X138160060Y-101054326D01*
X138136233Y-101059391D01*
X138129355Y-101064389D01*
X138112384Y-101073604D01*
X138104441Y-101076653D01*
X138087209Y-101093884D01*
X138078384Y-101101421D01*
X138058676Y-101115740D01*
X138054424Y-101123105D01*
X138042667Y-101138426D01*
X135601648Y-103579445D01*
X135595894Y-103584626D01*
X135566254Y-103608629D01*
X135565891Y-103609101D01*
X135553581Y-103636749D01*
X135548043Y-103646948D01*
X135534773Y-103667383D01*
X135534695Y-103667876D01*
X135527544Y-103689886D01*
X135524638Y-103695589D01*
X135524500Y-103696166D01*
X135524500Y-103726427D01*
X135523589Y-103738002D01*
X135519777Y-103762066D01*
X135519906Y-103762545D01*
X135522326Y-103785561D01*
X135521990Y-103791968D01*
X135524500Y-103805510D01*
X135524500Y-106438205D01*
X135507945Y-106484854D01*
X135465686Y-106510630D01*
X135416632Y-106504000D01*
X135382733Y-106467930D01*
X135306082Y-106293183D01*
X135171930Y-106087849D01*
X135098251Y-106007814D01*
X134106065Y-106999999D01*
X133893933Y-106999999D01*
X132901748Y-106007814D01*
X132901747Y-106007814D01*
X132828069Y-106087849D01*
X132693917Y-106293183D01*
X132595394Y-106517793D01*
X132535181Y-106755568D01*
X132514927Y-107000000D01*
X132150579Y-107000000D01*
X132150500Y-106997571D01*
X132150500Y-105898959D01*
X133005025Y-105898959D01*
X133999999Y-106893933D01*
X134994973Y-105898959D01*
X134812256Y-105756747D01*
X134596545Y-105640010D01*
X134364567Y-105560372D01*
X134122634Y-105520000D01*
X133877366Y-105520000D01*
X133635432Y-105560372D01*
X133403454Y-105640010D01*
X133187743Y-105756747D01*
X133005025Y-105898959D01*
X132150500Y-105898959D01*
X132150500Y-99011480D01*
X138775000Y-99011480D01*
X138789834Y-99105148D01*
X138847358Y-99218043D01*
X138936956Y-99307641D01*
X139049851Y-99365165D01*
X139143518Y-99379999D01*
X139918933Y-99379999D01*
X140131066Y-99379999D01*
X141218933Y-99379999D01*
X140675000Y-98836066D01*
X140131066Y-99379998D01*
X140131066Y-99379999D01*
X139918933Y-99379999D01*
X139918934Y-99379998D01*
X140568934Y-98730000D01*
X139918934Y-98080000D01*
X140131066Y-98080000D01*
X140674999Y-98623933D01*
X141218933Y-98080000D01*
X140131066Y-98080000D01*
X139918934Y-98080000D01*
X139143519Y-98080000D01*
X139049851Y-98094834D01*
X138936956Y-98152358D01*
X138847358Y-98241956D01*
X138789834Y-98354851D01*
X138775000Y-98448518D01*
X138775000Y-99011480D01*
X132150500Y-99011480D01*
X132150500Y-96575000D01*
X137070000Y-96575000D01*
X137070000Y-96727557D01*
X137072763Y-96751379D01*
X137115804Y-96848855D01*
X137191144Y-96924195D01*
X137288620Y-96967236D01*
X137312443Y-96970000D01*
X137415000Y-96970000D01*
X137415000Y-96575000D01*
X137565000Y-96575000D01*
X137565000Y-96970000D01*
X137667557Y-96970000D01*
X137691379Y-96967236D01*
X137788855Y-96924195D01*
X137864195Y-96848855D01*
X137907236Y-96751379D01*
X137909992Y-96727623D01*
X138089500Y-96727623D01*
X138092269Y-96751496D01*
X138112507Y-96797330D01*
X138135384Y-96849141D01*
X138210859Y-96924616D01*
X138308502Y-96967730D01*
X138332377Y-96970500D01*
X138687622Y-96970499D01*
X138687623Y-96970499D01*
X138695580Y-96969576D01*
X138711498Y-96967730D01*
X138809141Y-96924616D01*
X138884616Y-96849141D01*
X138919733Y-96769608D01*
X138947029Y-96737500D01*
X138987428Y-96725500D01*
X139512573Y-96725500D01*
X139552972Y-96737501D01*
X139580266Y-96769608D01*
X139615384Y-96849141D01*
X139690859Y-96924616D01*
X139788502Y-96967730D01*
X139812377Y-96970500D01*
X140167622Y-96970499D01*
X140167623Y-96970499D01*
X140175580Y-96969576D01*
X140191498Y-96967730D01*
X140289141Y-96924616D01*
X140364616Y-96849141D01*
X140407730Y-96751498D01*
X140410500Y-96727623D01*
X140410499Y-96272378D01*
X140410207Y-96269864D01*
X140407730Y-96248503D01*
X140407730Y-96248502D01*
X140364616Y-96150859D01*
X140289141Y-96075384D01*
X140259609Y-96062344D01*
X140227500Y-96035049D01*
X140215500Y-95994650D01*
X140215500Y-94056039D01*
X140227971Y-94014927D01*
X140261182Y-93987672D01*
X140265667Y-93985813D01*
X140277625Y-93980861D01*
X140392621Y-93892621D01*
X140480861Y-93777625D01*
X140536330Y-93643709D01*
X140555250Y-93500000D01*
X140536330Y-93356291D01*
X140484585Y-93231366D01*
X140480862Y-93222377D01*
X140480861Y-93222376D01*
X140480861Y-93222375D01*
X140392621Y-93107379D01*
X140277625Y-93019139D01*
X140277624Y-93019138D01*
X140277622Y-93019137D01*
X140143710Y-92963670D01*
X140000000Y-92944749D01*
X139856289Y-92963670D01*
X139722377Y-93019137D01*
X139607379Y-93107379D01*
X139519137Y-93222377D01*
X139463670Y-93356289D01*
X139444749Y-93499999D01*
X139463670Y-93643710D01*
X139519137Y-93777622D01*
X139519138Y-93777624D01*
X139519139Y-93777625D01*
X139607379Y-93892621D01*
X139722375Y-93980861D01*
X139722376Y-93980861D01*
X139730105Y-93986792D01*
X139729230Y-93987932D01*
X139752029Y-94006643D01*
X139764500Y-94047755D01*
X139764500Y-95994650D01*
X139752500Y-96035049D01*
X139720390Y-96062344D01*
X139715151Y-96064658D01*
X139690858Y-96075384D01*
X139615385Y-96150857D01*
X139615384Y-96150858D01*
X139615384Y-96150859D01*
X139580342Y-96230222D01*
X139580267Y-96230391D01*
X139552971Y-96262500D01*
X139512572Y-96274500D01*
X138987427Y-96274500D01*
X138947028Y-96262499D01*
X138919733Y-96230391D01*
X138884616Y-96150859D01*
X138809141Y-96075384D01*
X138711498Y-96032270D01*
X138711496Y-96032269D01*
X138690755Y-96029863D01*
X138687622Y-96029500D01*
X138332376Y-96029500D01*
X138308503Y-96032269D01*
X138210858Y-96075384D01*
X138135385Y-96150857D01*
X138092269Y-96248503D01*
X138089500Y-96272377D01*
X138089500Y-96727623D01*
X137909992Y-96727623D01*
X137910000Y-96727557D01*
X137910000Y-96575000D01*
X137565000Y-96575000D01*
X137415000Y-96575000D01*
X137070000Y-96575000D01*
X132150500Y-96575000D01*
X132150500Y-95999999D01*
X133494353Y-95999999D01*
X133514834Y-96142456D01*
X133574623Y-96273374D01*
X133668871Y-96382143D01*
X133763617Y-96443032D01*
X133789947Y-96459953D01*
X133928039Y-96500500D01*
X134071959Y-96500500D01*
X134071961Y-96500500D01*
X134210053Y-96459953D01*
X134264441Y-96425000D01*
X137070000Y-96425000D01*
X137415000Y-96425000D01*
X137415000Y-96030000D01*
X137565000Y-96030000D01*
X137565000Y-96425000D01*
X137910000Y-96425000D01*
X137910000Y-96272443D01*
X137907236Y-96248620D01*
X137864195Y-96151144D01*
X137788855Y-96075804D01*
X137691379Y-96032763D01*
X137667557Y-96030000D01*
X137565000Y-96030000D01*
X137415000Y-96030000D01*
X137312443Y-96030000D01*
X137288620Y-96032763D01*
X137191144Y-96075804D01*
X137115804Y-96151144D01*
X137072763Y-96248620D01*
X137070000Y-96272443D01*
X137070000Y-96425000D01*
X134264441Y-96425000D01*
X134331128Y-96382143D01*
X134425377Y-96273373D01*
X134485165Y-96142457D01*
X134505647Y-96000000D01*
X134485165Y-95857543D01*
X134425377Y-95726627D01*
X134425376Y-95726626D01*
X134425376Y-95726625D01*
X134331128Y-95617856D01*
X134210054Y-95540047D01*
X134164022Y-95526531D01*
X134071961Y-95499500D01*
X133928039Y-95499500D01*
X133858992Y-95519773D01*
X133789945Y-95540047D01*
X133668871Y-95617856D01*
X133574623Y-95726625D01*
X133514834Y-95857543D01*
X133494353Y-95999999D01*
X132150500Y-95999999D01*
X132150500Y-94101038D01*
X133005026Y-94101038D01*
X133187746Y-94243254D01*
X133403454Y-94359989D01*
X133635432Y-94439627D01*
X133877366Y-94480000D01*
X134122634Y-94480000D01*
X134364567Y-94439627D01*
X134596545Y-94359989D01*
X134812257Y-94243252D01*
X134994972Y-94101039D01*
X134994973Y-94101039D01*
X134000000Y-93106066D01*
X133005026Y-94101038D01*
X132150500Y-94101038D01*
X132150500Y-93002429D01*
X132150579Y-93000000D01*
X132514927Y-93000000D01*
X132535181Y-93244431D01*
X132595394Y-93482206D01*
X132693917Y-93706816D01*
X132828069Y-93912150D01*
X132901747Y-93992184D01*
X132901748Y-93992185D01*
X133893934Y-93000000D01*
X133893933Y-92999999D01*
X134106065Y-92999999D01*
X135098251Y-93992185D01*
X135098251Y-93992184D01*
X135171930Y-93912150D01*
X135306082Y-93706816D01*
X135404605Y-93482206D01*
X135464818Y-93244431D01*
X135485072Y-93000000D01*
X135464818Y-92755568D01*
X135404605Y-92517793D01*
X135306082Y-92293183D01*
X135171930Y-92087849D01*
X135098251Y-92007814D01*
X134106065Y-92999999D01*
X133893933Y-92999999D01*
X132901748Y-92007814D01*
X132901747Y-92007814D01*
X132828069Y-92087849D01*
X132693917Y-92293183D01*
X132595394Y-92517793D01*
X132535181Y-92755568D01*
X132514927Y-93000000D01*
X132150579Y-93000000D01*
X132150658Y-92997589D01*
X132165419Y-92772377D01*
X132166006Y-92763425D01*
X132167270Y-92753831D01*
X132172682Y-92726625D01*
X132212573Y-92526071D01*
X132215078Y-92516723D01*
X132289729Y-92296810D01*
X132293426Y-92287884D01*
X132396149Y-92079583D01*
X132400970Y-92071231D01*
X132516079Y-91898959D01*
X133005025Y-91898959D01*
X133999999Y-92893933D01*
X134994973Y-91898959D01*
X134812256Y-91756747D01*
X134596545Y-91640010D01*
X134364567Y-91560372D01*
X134122634Y-91520000D01*
X133877366Y-91520000D01*
X133635432Y-91560372D01*
X133403454Y-91640010D01*
X133187743Y-91756747D01*
X133005025Y-91898959D01*
X132516079Y-91898959D01*
X132530006Y-91878116D01*
X132535880Y-91870461D01*
X132689012Y-91695847D01*
X132695847Y-91689012D01*
X132870461Y-91535880D01*
X132878116Y-91530006D01*
X133071231Y-91400970D01*
X133079583Y-91396149D01*
X133287884Y-91293426D01*
X133296810Y-91289729D01*
X133516729Y-91215076D01*
X133526071Y-91212573D01*
X133753831Y-91167269D01*
X133763425Y-91166006D01*
X133997589Y-91150657D01*
X134002429Y-91150500D01*
X134034351Y-91150500D01*
X146875167Y-91150500D01*
X146916279Y-91162971D01*
G37*
%TD.AperFunction*%
%TA.AperFunction,Conductor*%
G36*
X150519287Y-92810032D02*
G01*
X150555651Y-92837002D01*
X150569500Y-92880105D01*
X150569500Y-93070942D01*
X150563867Y-93099261D01*
X150547826Y-93123268D01*
X150441100Y-93229993D01*
X150438292Y-93232658D01*
X150408490Y-93259493D01*
X150398581Y-93281748D01*
X150393043Y-93291948D01*
X150379773Y-93312381D01*
X150378443Y-93320782D01*
X150372960Y-93339296D01*
X150369500Y-93347069D01*
X150369500Y-93371427D01*
X150368589Y-93383002D01*
X150364778Y-93407064D01*
X150366979Y-93415279D01*
X150369500Y-93434430D01*
X150369500Y-94131629D01*
X150357499Y-94172028D01*
X150325390Y-94199323D01*
X150300354Y-94210377D01*
X150272234Y-94222794D01*
X150192794Y-94302235D01*
X150147414Y-94405009D01*
X150144500Y-94430134D01*
X150144500Y-96269865D01*
X150147414Y-96294989D01*
X150147415Y-96294991D01*
X150192794Y-96397765D01*
X150192795Y-96397766D01*
X150198382Y-96410419D01*
X150197373Y-96410864D01*
X150204887Y-96423878D01*
X150204888Y-96462183D01*
X150185735Y-96495357D01*
X149628269Y-97052826D01*
X149604262Y-97068867D01*
X149575943Y-97074500D01*
X148923058Y-97074500D01*
X148881946Y-97062029D01*
X148854691Y-97028819D01*
X148850480Y-96986063D01*
X148870732Y-96948174D01*
X149271731Y-96547173D01*
X149295738Y-96531132D01*
X149324057Y-96525499D01*
X149519866Y-96525499D01*
X149532427Y-96524041D01*
X149544991Y-96522585D01*
X149647765Y-96477206D01*
X149727206Y-96397765D01*
X149772585Y-96294991D01*
X149775500Y-96269865D01*
X149775499Y-94430136D01*
X149772585Y-94405009D01*
X149727206Y-94302235D01*
X149647765Y-94222794D01*
X149594609Y-94199323D01*
X149562501Y-94172028D01*
X149550500Y-94131629D01*
X149550500Y-93299058D01*
X149556133Y-93270740D01*
X149572174Y-93246732D01*
X149614218Y-93204688D01*
X149769205Y-93049699D01*
X149807094Y-93029449D01*
X149849846Y-93033660D01*
X149856291Y-93036330D01*
X150000000Y-93055250D01*
X150143709Y-93036330D01*
X150277625Y-92980861D01*
X150392621Y-92892621D01*
X150436792Y-92835055D01*
X150474019Y-92809291D01*
X150519287Y-92810032D01*
G37*
%TD.AperFunction*%
%TD*%
M02*
