%TF.GenerationSoftware,KiCad,Pcbnew,7.0.1*%
%TF.CreationDate,2023-03-24T10:32:53-04:00*%
%TF.ProjectId,wingbeat_detector,77696e67-6265-4617-945f-646574656374,3.0*%
%TF.SameCoordinates,Original*%
%TF.FileFunction,Soldermask,Top*%
%TF.FilePolarity,Negative*%
%FSLAX46Y46*%
G04 Gerber Fmt 4.6, Leading zero omitted, Abs format (unit mm)*
G04 Created by KiCad (PCBNEW 7.0.1) date 2023-03-24 10:32:53*
%MOMM*%
%LPD*%
G01*
G04 APERTURE LIST*
G04 Aperture macros list*
%AMRoundRect*
0 Rectangle with rounded corners*
0 $1 Rounding radius*
0 $2 $3 $4 $5 $6 $7 $8 $9 X,Y pos of 4 corners*
0 Add a 4 corners polygon primitive as box body*
4,1,4,$2,$3,$4,$5,$6,$7,$8,$9,$2,$3,0*
0 Add four circle primitives for the rounded corners*
1,1,$1+$1,$2,$3*
1,1,$1+$1,$4,$5*
1,1,$1+$1,$6,$7*
1,1,$1+$1,$8,$9*
0 Add four rect primitives between the rounded corners*
20,1,$1+$1,$2,$3,$4,$5,0*
20,1,$1+$1,$4,$5,$6,$7,0*
20,1,$1+$1,$6,$7,$8,$9,0*
20,1,$1+$1,$8,$9,$2,$3,0*%
%AMFreePoly0*
4,1,18,-0.825000,0.870000,-0.495000,1.200000,0.742500,1.200000,0.774071,1.193720,0.800836,1.175836,0.818720,1.149071,0.825000,1.117500,0.825000,-1.117500,0.818720,-1.149071,0.800836,-1.175836,0.774071,-1.193720,0.742500,-1.200000,-0.742500,-1.200000,-0.774071,-1.193720,-0.800836,-1.175836,-0.818720,-1.149071,-0.825000,-1.117500,-0.825000,0.870000,-0.825000,0.870000,$1*%
%AMFreePoly1*
4,1,18,-0.237500,0.075000,-0.233694,0.094134,-0.222855,0.110355,-0.206634,0.121194,-0.187500,0.125000,0.137500,0.125000,0.237500,0.025000,0.237500,-0.075000,0.233694,-0.094134,0.222855,-0.110355,0.206634,-0.121194,0.187500,-0.125000,-0.187500,-0.125000,-0.206634,-0.121194,-0.222855,-0.110355,-0.233694,-0.094134,-0.237500,-0.075000,-0.237500,0.075000,-0.237500,0.075000,$1*%
G04 Aperture macros list end*
%ADD10C,2.660000*%
%ADD11C,0.650000*%
%ADD12O,0.650000X0.950000*%
%ADD13R,0.900000X0.300000*%
%ADD14C,0.600000*%
%ADD15O,1.600000X1.000000*%
%ADD16RoundRect,0.135000X0.135000X0.185000X-0.135000X0.185000X-0.135000X-0.185000X0.135000X-0.185000X0*%
%ADD17RoundRect,0.030000X-0.270000X-0.120000X0.270000X-0.120000X0.270000X0.120000X-0.270000X0.120000X0*%
%ADD18FreePoly0,0.000000*%
%ADD19RoundRect,0.135000X-0.135000X-0.185000X0.135000X-0.185000X0.135000X0.185000X-0.135000X0.185000X0*%
%ADD20C,1.000000*%
%ADD21RoundRect,0.150000X-0.150000X0.875000X-0.150000X-0.875000X0.150000X-0.875000X0.150000X0.875000X0*%
%ADD22RoundRect,0.135000X0.185000X-0.135000X0.185000X0.135000X-0.185000X0.135000X-0.185000X-0.135000X0*%
%ADD23RoundRect,0.135000X-0.185000X0.135000X-0.185000X-0.135000X0.185000X-0.135000X0.185000X0.135000X0*%
%ADD24RoundRect,0.200000X-0.275000X0.200000X-0.275000X-0.200000X0.275000X-0.200000X0.275000X0.200000X0*%
%ADD25RoundRect,0.200000X0.275000X-0.200000X0.275000X0.200000X-0.275000X0.200000X-0.275000X-0.200000X0*%
%ADD26RoundRect,0.140000X0.140000X0.170000X-0.140000X0.170000X-0.140000X-0.170000X0.140000X-0.170000X0*%
%ADD27RoundRect,0.250000X-1.500000X-0.250000X1.500000X-0.250000X1.500000X0.250000X-1.500000X0.250000X0*%
%ADD28R,0.890000X1.550000*%
%ADD29R,1.270000X1.270000*%
%ADD30RoundRect,0.140000X-0.140000X-0.170000X0.140000X-0.170000X0.140000X0.170000X-0.140000X0.170000X0*%
%ADD31FreePoly1,0.000000*%
%ADD32RoundRect,0.050000X-0.187500X-0.075000X0.187500X-0.075000X0.187500X0.075000X-0.187500X0.075000X0*%
G04 APERTURE END LIST*
D10*
%TO.C,H2*%
X166000000Y-93000000D03*
%TD*%
D11*
%TO.C,J1*%
X161000000Y-103550000D03*
D12*
X161000000Y-96350000D03*
D13*
X160440000Y-102750000D03*
X160440000Y-102250000D03*
X160440000Y-101750000D03*
X160440000Y-101250000D03*
X160440000Y-100750000D03*
X160440000Y-100250000D03*
X160440000Y-99750000D03*
X160440000Y-99250000D03*
X160440000Y-98750000D03*
X160440000Y-98250000D03*
X160440000Y-97750000D03*
X160440000Y-97250000D03*
D14*
X161650000Y-97150000D03*
X162350000Y-97550000D03*
X162350000Y-98350000D03*
X161650000Y-98750000D03*
X162350000Y-99150000D03*
X161650000Y-99550000D03*
X161650000Y-100350000D03*
X162350000Y-100750000D03*
X161650000Y-101150000D03*
X162350000Y-101550000D03*
X162350000Y-102350000D03*
X161650000Y-102750000D03*
D15*
X162250000Y-104080000D03*
X162250000Y-95820000D03*
X166700000Y-104490000D03*
X166700000Y-95510000D03*
%TD*%
D16*
%TO.C,R14*%
X138510000Y-96500000D03*
X137490000Y-96500000D03*
%TD*%
D17*
%TO.C,U4*%
X137600000Y-103500000D03*
X137600000Y-104150000D03*
X137600000Y-104800000D03*
X137600000Y-105450000D03*
X140400000Y-105450000D03*
X140400000Y-104800000D03*
X140400000Y-104150000D03*
X140400000Y-103500000D03*
D18*
X139000000Y-104475000D03*
%TD*%
D19*
%TO.C,R9*%
X150990000Y-93000000D03*
X152010000Y-93000000D03*
%TD*%
D20*
%TO.C,FID1*%
X134000000Y-96000000D03*
%TD*%
D21*
%TO.C,U2*%
X156945000Y-95350000D03*
X155675000Y-95350000D03*
X154405000Y-95350000D03*
X153135000Y-95350000D03*
X151865000Y-95350000D03*
X150595000Y-95350000D03*
X149325000Y-95350000D03*
X148055000Y-95350000D03*
X148055000Y-104650000D03*
X149325000Y-104650000D03*
X150595000Y-104650000D03*
X151865000Y-104650000D03*
X153135000Y-104650000D03*
X154405000Y-104650000D03*
X155675000Y-104650000D03*
X156945000Y-104650000D03*
%TD*%
D22*
%TO.C,R12*%
X149750000Y-108010000D03*
X149750000Y-106990000D03*
%TD*%
D10*
%TO.C,H4*%
X134000000Y-107000000D03*
%TD*%
D23*
%TO.C,R10*%
X147500000Y-106990000D03*
X147500000Y-108010000D03*
%TD*%
D19*
%TO.C,R1*%
X142490000Y-103000000D03*
X143510000Y-103000000D03*
%TD*%
D22*
%TO.C,R11*%
X152000000Y-108010000D03*
X152000000Y-106990000D03*
%TD*%
D24*
%TO.C,R5*%
X146000000Y-101675000D03*
X146000000Y-103325000D03*
%TD*%
D25*
%TO.C,R7*%
X147500000Y-93325000D03*
X147500000Y-91675000D03*
%TD*%
D10*
%TO.C,H3*%
X166000000Y-107000000D03*
%TD*%
D26*
%TO.C,C8*%
X154730000Y-108000000D03*
X153770000Y-108000000D03*
%TD*%
D27*
%TO.C,D1*%
X140675000Y-101270000D03*
X140675000Y-98730000D03*
%TD*%
D28*
%TO.C,RV2*%
X142605000Y-107720000D03*
D29*
X144000000Y-105280000D03*
D28*
X145395000Y-107720000D03*
%TD*%
D30*
%TO.C,C6*%
X153770000Y-106750000D03*
X154730000Y-106750000D03*
%TD*%
%TO.C,C10*%
X137020000Y-107500000D03*
X137980000Y-107500000D03*
%TD*%
D20*
%TO.C,FID3*%
X163000000Y-93000000D03*
%TD*%
D16*
%TO.C,R2*%
X154510000Y-93000000D03*
X153490000Y-93000000D03*
%TD*%
D26*
%TO.C,C12*%
X144980000Y-98000000D03*
X144020000Y-98000000D03*
%TD*%
D31*
%TO.C,U5*%
X144137500Y-99600000D03*
D32*
X144137500Y-100000000D03*
X144137500Y-100400000D03*
X144862500Y-100400000D03*
X144862500Y-100000000D03*
X144862500Y-99600000D03*
%TD*%
D10*
%TO.C,H1*%
X134000000Y-93000000D03*
%TD*%
D16*
%TO.C,R13*%
X141010000Y-96500000D03*
X139990000Y-96500000D03*
%TD*%
D30*
%TO.C,C11*%
X140020000Y-107500000D03*
X140980000Y-107500000D03*
%TD*%
D28*
%TO.C,RV1*%
X142605000Y-94720000D03*
D29*
X144000000Y-92280000D03*
D28*
X145395000Y-94720000D03*
%TD*%
M02*
